<svg width="780" height="180" viewBox="0 0 780 180" fill="none" xmlns="http://www.w3.org/2000/svg">
<mask id="path-2-inside-1_33_4635" fill="white">
<path d="M0 2C0 0.895429 0.895431 0 2 0H778C779.105 0 780 0.895431 780 2V132H0V2Z"/>
</mask>
<path d="M0 2C0 0.895429 0.895431 0 2 0H778C779.105 0 780 0.895431 780 2V132H0V2Z" fill="white"/>
<path d="M-1 2C-1 0.343146 0.343146 -1 2 -1H778C779.657 -1 781 0.343146 781 2H779C779 1.44772 778.552 1 778 1H2C1.44772 1 1 1.44772 1 2H-1ZM780 132H0H780ZM-1 132V2C-1 0.343146 0.343146 -1 2 -1V1C1.44772 1 1 1.44772 1 2V132H-1ZM778 -1C779.657 -1 781 0.343146 781 2V132H779V2C779 1.44772 778.552 1 778 1V-1Z" fill="#D9D9D9" mask="url(#path-2-inside-1_33_4635)"/>
<path d="M46.526 42.517C46.526 43.0717 46.3917 43.544 46.123 43.934C45.8543 44.3153 45.4687 44.61 44.966 44.818C44.472 45.026 43.887 45.13 43.211 45.13C42.8643 45.13 42.5307 45.1127 42.21 45.078C41.898 45.0433 41.612 44.9957 41.352 44.935C41.092 44.8657 40.8623 44.7833 40.663 44.688V43.57C40.975 43.7087 41.3607 43.8343 41.82 43.947C42.288 44.0597 42.769 44.116 43.263 44.116C43.7223 44.116 44.108 44.0553 44.42 43.934C44.732 43.8127 44.966 43.6393 45.122 43.414C45.278 43.1887 45.356 42.9243 45.356 42.621C45.356 42.3177 45.291 42.062 45.161 41.854C45.031 41.646 44.8057 41.4553 44.485 41.282C44.173 41.1 43.7353 40.9093 43.172 40.71C42.7733 40.5627 42.4223 40.4067 42.119 40.242C41.8243 40.0687 41.5773 39.8737 41.378 39.657C41.1787 39.4403 41.027 39.1933 40.923 38.916C40.8277 38.6387 40.78 38.318 40.78 37.954C40.78 37.46 40.9057 37.0397 41.157 36.693C41.4083 36.3377 41.755 36.0647 42.197 35.874C42.6477 35.6833 43.1633 35.588 43.744 35.588C44.2553 35.588 44.7233 35.6357 45.148 35.731C45.5727 35.8263 45.9583 35.952 46.305 36.108L45.941 37.109C45.6203 36.9703 45.2693 36.8533 44.888 36.758C44.5153 36.6627 44.1253 36.615 43.718 36.615C43.328 36.615 43.003 36.6713 42.743 36.784C42.483 36.8967 42.288 37.057 42.158 37.265C42.028 37.4643 41.963 37.6983 41.963 37.967C41.963 38.279 42.028 38.539 42.158 38.747C42.288 38.955 42.5003 39.1413 42.795 39.306C43.0897 39.4707 43.4883 39.6483 43.991 39.839C44.537 40.0383 44.9963 40.255 45.369 40.489C45.7503 40.7143 46.0363 40.9873 46.227 41.308C46.4263 41.6287 46.526 42.0317 46.526 42.517ZM51.5548 37.902C52.4128 37.902 53.1018 38.201 53.6218 38.799C54.1504 39.397 54.4148 40.2983 54.4148 41.503C54.4148 42.2917 54.2934 42.959 54.0508 43.505C53.8168 44.0423 53.4831 44.4497 53.0498 44.727C52.6251 44.9957 52.1224 45.13 51.5418 45.13C51.1864 45.13 50.8701 45.0823 50.5928 44.987C50.3154 44.8917 50.0771 44.7703 49.8778 44.623C49.6871 44.467 49.5224 44.298 49.3838 44.116H49.3058C49.3231 44.2633 49.3404 44.4497 49.3578 44.675C49.3751 44.9003 49.3838 45.0953 49.3838 45.26V48.12H48.2398V38.032H49.1758L49.3318 38.981H49.3838C49.5224 38.7817 49.6871 38.5997 49.8778 38.435C50.0771 38.2703 50.3111 38.1403 50.5798 38.045C50.8571 37.9497 51.1821 37.902 51.5548 37.902ZM51.3468 38.864C50.8788 38.864 50.5018 38.955 50.2158 39.137C49.9298 39.3103 49.7218 39.5747 49.5918 39.93C49.4618 40.2853 49.3924 40.736 49.3838 41.282V41.503C49.3838 42.075 49.4444 42.5603 49.5658 42.959C49.6871 43.3577 49.8908 43.661 50.1768 43.869C50.4714 44.077 50.8701 44.181 51.3728 44.181C51.7974 44.181 52.1441 44.064 52.4128 43.83C52.6901 43.596 52.8938 43.2797 53.0238 42.881C53.1624 42.4737 53.2318 42.01 53.2318 41.49C53.2318 40.6927 53.0758 40.0557 52.7638 39.579C52.4604 39.1023 51.9881 38.864 51.3468 38.864ZM57.3818 45H56.2378V35.12H57.3818V45ZM60.7334 38.032V45H59.5894V38.032H60.7334ZM60.1744 35.419C60.3477 35.419 60.4994 35.4797 60.6294 35.601C60.768 35.7137 60.8374 35.8957 60.8374 36.147C60.8374 36.3897 60.768 36.5717 60.6294 36.693C60.4994 36.8143 60.3477 36.875 60.1744 36.875C59.9837 36.875 59.8234 36.8143 59.6934 36.693C59.5634 36.5717 59.4984 36.3897 59.4984 36.147C59.4984 35.8957 59.5634 35.7137 59.6934 35.601C59.8234 35.4797 59.9837 35.419 60.1744 35.419ZM65.2679 44.194C65.4413 44.194 65.6189 44.181 65.8009 44.155C65.9829 44.1203 66.1303 44.0857 66.2429 44.051V44.922C66.1216 44.9827 65.9483 45.0303 65.7229 45.065C65.4976 45.1083 65.2809 45.13 65.0729 45.13C64.7089 45.13 64.3709 45.0693 64.0589 44.948C63.7556 44.818 63.5086 44.597 63.3179 44.285C63.1273 43.973 63.0319 43.5353 63.0319 42.972V38.916H62.0439V38.37L63.0449 37.915L63.4999 36.433H64.1759V38.032H66.1909V38.916H64.1759V42.946C64.1759 43.3707 64.2756 43.687 64.4749 43.895C64.6829 44.0943 64.9473 44.194 65.2679 44.194ZM73.8232 35.718C74.5945 35.718 75.2402 35.7917 75.7602 35.939C76.2888 36.0863 76.6832 36.329 76.9432 36.667C77.2118 37.005 77.3462 37.4557 77.3462 38.019C77.3462 38.383 77.2768 38.708 77.1382 38.994C77.0082 39.2713 76.8088 39.5053 76.5402 39.696C76.2802 39.878 75.9595 40.0037 75.5782 40.073V40.138C75.9682 40.1987 76.3192 40.3113 76.6312 40.476C76.9518 40.6407 77.2032 40.8747 77.3852 41.178C77.5672 41.4813 77.6582 41.8757 77.6582 42.361C77.6582 42.9243 77.5282 43.4053 77.2682 43.804C77.0082 44.194 76.6355 44.493 76.1502 44.701C75.6735 44.9003 75.1015 45 74.4342 45H71.1712V35.718H73.8232ZM74.0572 39.67C74.8545 39.67 75.4005 39.5443 75.6952 39.293C75.9898 39.033 76.1372 38.6517 76.1372 38.149C76.1372 37.6377 75.9552 37.2737 75.5912 37.057C75.2358 36.8317 74.6638 36.719 73.8752 36.719H72.3412V39.67H74.0572ZM72.3412 40.645V44.012H74.2132C75.0365 44.012 75.6085 43.8517 75.9292 43.531C76.2498 43.2103 76.4102 42.79 76.4102 42.27C76.4102 41.9407 76.3365 41.6547 76.1892 41.412C76.0505 41.1693 75.8122 40.983 75.4742 40.853C75.1448 40.7143 74.6942 40.645 74.1222 40.645H72.3412ZM85.2942 38.032V45H84.3582L84.1892 44.077H84.1372C83.9899 44.3197 83.7992 44.519 83.5652 44.675C83.3312 44.831 83.0756 44.9437 82.7982 45.013C82.5209 45.091 82.2306 45.13 81.9272 45.13C81.3726 45.13 80.9046 45.0433 80.5232 44.87C80.1506 44.688 79.8689 44.4107 79.6782 44.038C79.4876 43.6653 79.3922 43.1843 79.3922 42.595V38.032H80.5492V42.517C80.5492 43.0717 80.6749 43.4877 80.9262 43.765C81.1776 44.0423 81.5676 44.181 82.0962 44.181C82.6162 44.181 83.0236 44.0857 83.3182 43.895C83.6216 43.6957 83.8339 43.4097 83.9552 43.037C84.0852 42.6557 84.1502 42.1963 84.1502 41.659V38.032H85.2942ZM89.8334 44.194C90.0067 44.194 90.1844 44.181 90.3664 44.155C90.5484 44.1203 90.6957 44.0857 90.8084 44.051V44.922C90.687 44.9827 90.5137 45.0303 90.2884 45.065C90.063 45.1083 89.8464 45.13 89.6384 45.13C89.2744 45.13 88.9364 45.0693 88.6244 44.948C88.321 44.818 88.074 44.597 87.8834 44.285C87.6927 43.973 87.5974 43.5353 87.5974 42.972V38.916H86.6094V38.37L87.6104 37.915L88.0654 36.433H88.7414V38.032H90.7564V38.916H88.7414V42.946C88.7414 43.3707 88.841 43.687 89.0404 43.895C89.2484 44.0943 89.5127 44.194 89.8334 44.194ZM94.5306 44.194C94.704 44.194 94.8816 44.181 95.0636 44.155C95.2456 44.1203 95.393 44.0857 95.5056 44.051V44.922C95.3843 44.9827 95.211 45.0303 94.9856 45.065C94.7603 45.1083 94.5436 45.13 94.3356 45.13C93.9716 45.13 93.6336 45.0693 93.3216 44.948C93.0183 44.818 92.7713 44.597 92.5806 44.285C92.39 43.973 92.2946 43.5353 92.2946 42.972V38.916H91.3066V38.37L92.3076 37.915L92.7626 36.433H93.4386V38.032H95.4536V38.916H93.4386V42.946C93.4386 43.3707 93.5383 43.687 93.7376 43.895C93.9456 44.0943 94.21 44.194 94.5306 44.194ZM102.959 41.503C102.959 42.0837 102.881 42.5993 102.725 43.05C102.578 43.492 102.361 43.869 102.075 44.181C101.798 44.493 101.455 44.7313 101.048 44.896C100.649 45.052 100.203 45.13 99.7089 45.13C99.2496 45.13 98.8249 45.052 98.4349 44.896C98.0449 44.7313 97.7069 44.493 97.4209 44.181C97.1349 43.869 96.9096 43.492 96.7449 43.05C96.5889 42.5993 96.5109 42.0837 96.5109 41.503C96.5109 40.7317 96.6409 40.0817 96.9009 39.553C97.1609 39.0157 97.5336 38.6083 98.0189 38.331C98.5042 38.045 99.0806 37.902 99.7479 37.902C100.381 37.902 100.935 38.045 101.412 38.331C101.897 38.6083 102.274 39.0157 102.543 39.553C102.82 40.0817 102.959 40.7317 102.959 41.503ZM97.6939 41.503C97.6939 42.049 97.7632 42.5257 97.9019 42.933C98.0492 43.3317 98.2746 43.6393 98.5779 43.856C98.8812 44.0727 99.2669 44.181 99.7349 44.181C100.203 44.181 100.589 44.0727 100.892 43.856C101.195 43.6393 101.416 43.3317 101.555 42.933C101.702 42.5257 101.776 42.049 101.776 41.503C101.776 40.9483 101.702 40.476 101.555 40.086C101.408 39.696 101.182 39.397 100.879 39.189C100.584 38.9723 100.199 38.864 99.7219 38.864C99.0112 38.864 98.4956 39.098 98.1749 39.566C97.8542 40.034 97.6939 40.6797 97.6939 41.503ZM108.126 37.902C108.958 37.902 109.586 38.1057 110.011 38.513C110.436 38.9117 110.648 39.5617 110.648 40.463V45H109.517V40.541C109.517 39.9777 109.391 39.5573 109.14 39.28C108.889 39.0027 108.494 38.864 107.957 38.864C107.186 38.864 106.653 39.0807 106.358 39.514C106.063 39.9473 105.916 40.5713 105.916 41.386V45H104.772V38.032H105.695L105.864 38.981H105.929C106.085 38.7383 106.276 38.539 106.501 38.383C106.735 38.2183 106.991 38.097 107.268 38.019C107.545 37.941 107.831 37.902 108.126 37.902Z" fill="#161616"/>
<rect width="64" height="40" transform="translate(148 20)" fill="#465BC7"/>
<path d="M178.95 34.29V37.41H177.585V35.595H172.155V37.47H170.805V34.29H174.09C173.91 33.75 173.715 33.24 173.49 32.79L174.945 32.55C175.14 33.075 175.335 33.66 175.515 34.29H178.95ZM173.46 36.36L174.87 36.48C174.675 37.26 174.48 37.98 174.285 38.625H179.385V39.99H177.69C177.45 41.385 176.97 42.555 176.25 43.515C177.57 44.235 178.635 44.895 179.46 45.465L178.5 46.59C177.66 45.96 176.595 45.27 175.32 44.52C174.27 45.405 172.62 46.11 170.4 46.65L169.83 45.3C171.6 44.91 172.98 44.385 173.955 43.725C173.13 43.245 172.26 42.765 171.33 42.27C171.705 41.55 172.05 40.785 172.365 39.99H170.49V38.625H172.845C173.07 37.89 173.28 37.14 173.46 36.36ZM176.325 39.99H173.82C173.55 40.695 173.28 41.31 173.01 41.82C173.715 42.165 174.375 42.495 174.99 42.825C175.635 42.075 176.085 41.13 176.325 39.99ZM167.4 46.41H166.125L165.81 45.03C166.185 45.075 166.545 45.105 166.905 45.105C167.235 45.105 167.4 44.925 167.4 44.58V41.4C166.86 41.595 166.335 41.775 165.81 41.94L165.45 40.515C166.11 40.365 166.755 40.185 167.4 39.96V36.825H165.765V35.46H167.4V32.745H168.84V35.46H170.13V36.825H168.84V39.375C169.26 39.18 169.665 38.97 170.085 38.76V40.2C169.665 40.41 169.245 40.62 168.84 40.8V44.94C168.84 45.915 168.36 46.41 167.4 46.41ZM182.94 37.485H181.755V36.93L181.305 37.47L180.54 36.405C181.455 35.385 182.295 34.17 183.06 32.76H184.02C184.935 33.72 185.805 34.725 186.645 35.745L185.73 36.72L185.52 36.435V37.485H184.32V38.835H186.135V40.17H184.32V44.25C184.95 44.115 185.58 43.965 186.195 43.8V45.165C184.62 45.585 182.925 45.96 181.125 46.26L180.78 44.835C181.515 44.745 182.235 44.64 182.94 44.52V40.17H181.11V38.835H182.94V37.485ZM182.1 40.695C182.295 41.565 182.46 42.555 182.61 43.665L181.53 43.935C181.38 42.93 181.2 41.97 180.99 41.055L182.1 40.695ZM185.145 40.65L186.24 40.95C186.075 41.94 185.865 42.825 185.625 43.605L184.59 43.215C184.8 42.54 184.98 41.685 185.145 40.65ZM182.325 36.21H185.355C184.695 35.31 184.125 34.62 183.66 34.125C183.255 34.845 182.805 35.55 182.325 36.21ZM192.09 34.59H189.885L189.585 38.73H191.805L192.09 34.59ZM188.25 38.73L188.55 34.59H186.96V33.24H193.5L193.155 38.73H194.37V40.05H193.065L192.765 44.79H194.205V46.125H186.555V44.79H187.815L188.16 40.05H186.45V38.73H188.25ZM189.135 44.79H191.4L191.715 40.05H189.495L189.135 44.79Z" fill="white"/>
<rect width="40" height="40" transform="translate(213 20)" fill="#465BC7"/>
<path fill-rule="evenodd" clip-rule="evenodd" d="M233 44L226 36.9799L226.976 36H226.978L233 42.0412L239.024 36H239.026L240 36.9789V36.9809L233 44Z" fill="white"/>
<path d="M43.913 87.718C44.6843 87.718 45.33 87.7917 45.85 87.939C46.3787 88.0863 46.773 88.329 47.033 88.667C47.3017 89.005 47.436 89.4557 47.436 90.019C47.436 90.383 47.3667 90.708 47.228 90.994C47.098 91.2713 46.8987 91.5053 46.63 91.696C46.37 91.878 46.0493 92.0037 45.668 92.073V92.138C46.058 92.1987 46.409 92.3113 46.721 92.476C47.0417 92.6407 47.293 92.8747 47.475 93.178C47.657 93.4813 47.748 93.8757 47.748 94.361C47.748 94.9243 47.618 95.4053 47.358 95.804C47.098 96.194 46.7253 96.493 46.24 96.701C45.7633 96.9003 45.1913 97 44.524 97H41.261V87.718H43.913ZM44.147 91.67C44.9443 91.67 45.4903 91.5443 45.785 91.293C46.0797 91.033 46.227 90.6517 46.227 90.149C46.227 89.6377 46.045 89.2737 45.681 89.057C45.3257 88.8317 44.7537 88.719 43.965 88.719H42.431V91.67H44.147ZM42.431 92.645V96.012H44.303C45.1263 96.012 45.6983 95.8517 46.019 95.531C46.3397 95.2103 46.5 94.79 46.5 94.27C46.5 93.9407 46.4263 93.6547 46.279 93.412C46.1403 93.1693 45.902 92.983 45.564 92.853C45.2347 92.7143 44.784 92.645 44.212 92.645H42.431ZM55.3841 90.032V97H54.4481L54.2791 96.077H54.2271C54.0797 96.3197 53.8891 96.519 53.6551 96.675C53.4211 96.831 53.1654 96.9437 52.8881 97.013C52.6107 97.091 52.3204 97.13 52.0171 97.13C51.4624 97.13 50.9944 97.0433 50.6131 96.87C50.2404 96.688 49.9587 96.4107 49.7681 96.038C49.5774 95.6653 49.4821 95.1843 49.4821 94.595V90.032H50.6391V94.517C50.6391 95.0717 50.7647 95.4877 51.0161 95.765C51.2674 96.0423 51.6574 96.181 52.1861 96.181C52.7061 96.181 53.1134 96.0857 53.4081 95.895C53.7114 95.6957 53.9237 95.4097 54.0451 95.037C54.1751 94.6557 54.2401 94.1963 54.2401 93.659V90.032H55.3841ZM59.9232 96.194C60.0965 96.194 60.2742 96.181 60.4562 96.155C60.6382 96.1203 60.7855 96.0857 60.8982 96.051V96.922C60.7769 96.9827 60.6035 97.0303 60.3782 97.065C60.1529 97.1083 59.9362 97.13 59.7282 97.13C59.3642 97.13 59.0262 97.0693 58.7142 96.948C58.4109 96.818 58.1639 96.597 57.9732 96.285C57.7825 95.973 57.6872 95.5353 57.6872 94.972V90.916H56.6992V90.37L57.7002 89.915L58.1552 88.433H58.8312V90.032H60.8462V90.916H58.8312V94.946C58.8312 95.3707 58.9309 95.687 59.1302 95.895C59.3382 96.0943 59.6025 96.194 59.9232 96.194ZM64.6205 96.194C64.7938 96.194 64.9715 96.181 65.1535 96.155C65.3355 96.1203 65.4828 96.0857 65.5955 96.051V96.922C65.4741 96.9827 65.3008 97.0303 65.0755 97.065C64.8501 97.1083 64.6335 97.13 64.4255 97.13C64.0615 97.13 63.7235 97.0693 63.4115 96.948C63.1081 96.818 62.8611 96.597 62.6705 96.285C62.4798 95.973 62.3845 95.5353 62.3845 94.972V90.916H61.3965V90.37L62.3975 89.915L62.8525 88.433H63.5285V90.032H65.5435V90.916H63.5285V94.946C63.5285 95.3707 63.6281 95.687 63.8275 95.895C64.0355 96.0943 64.2998 96.194 64.6205 96.194ZM73.0487 93.503C73.0487 94.0837 72.9707 94.5993 72.8147 95.05C72.6674 95.492 72.4507 95.869 72.1647 96.181C71.8874 96.493 71.5451 96.7313 71.1377 96.896C70.7391 97.052 70.2927 97.13 69.7987 97.13C69.3394 97.13 68.9147 97.052 68.5247 96.896C68.1347 96.7313 67.7967 96.493 67.5107 96.181C67.2247 95.869 66.9994 95.492 66.8347 95.05C66.6787 94.5993 66.6007 94.0837 66.6007 93.503C66.6007 92.7317 66.7307 92.0817 66.9907 91.553C67.2507 91.0157 67.6234 90.6083 68.1087 90.331C68.5941 90.045 69.1704 89.902 69.8377 89.902C70.4704 89.902 71.0251 90.045 71.5017 90.331C71.9871 90.6083 72.3641 91.0157 72.6327 91.553C72.9101 92.0817 73.0487 92.7317 73.0487 93.503ZM67.7837 93.503C67.7837 94.049 67.8531 94.5257 67.9917 94.933C68.1391 95.3317 68.3644 95.6393 68.6677 95.856C68.9711 96.0727 69.3567 96.181 69.8247 96.181C70.2927 96.181 70.6784 96.0727 70.9817 95.856C71.2851 95.6393 71.5061 95.3317 71.6447 94.933C71.7921 94.5257 71.8657 94.049 71.8657 93.503C71.8657 92.9483 71.7921 92.476 71.6447 92.086C71.4974 91.696 71.2721 91.397 70.9687 91.189C70.6741 90.9723 70.2884 90.864 69.8117 90.864C69.1011 90.864 68.5854 91.098 68.2647 91.566C67.9441 92.034 67.7837 92.6797 67.7837 93.503ZM78.2158 89.902C79.0478 89.902 79.6762 90.1057 80.1008 90.513C80.5255 90.9117 80.7378 91.5617 80.7378 92.463V97H79.6068V92.541C79.6068 91.9777 79.4812 91.5573 79.2298 91.28C78.9785 91.0027 78.5842 90.864 78.0468 90.864C77.2755 90.864 76.7425 91.0807 76.4478 91.514C76.1532 91.9473 76.0058 92.5713 76.0058 93.386V97H74.8618V90.032H75.7848L75.9538 90.981H76.0188C76.1748 90.7383 76.3655 90.539 76.5908 90.383C76.8248 90.2183 77.0805 90.097 77.3578 90.019C77.6352 89.941 77.9212 89.902 78.2158 89.902ZM90.4609 92.099H93.6719V96.649C93.1693 96.8137 92.6623 96.935 92.1509 97.013C91.6396 97.091 91.0589 97.13 90.4089 97.13C89.4469 97.13 88.6366 96.9393 87.9779 96.558C87.3193 96.168 86.8166 95.6177 86.4699 94.907C86.1319 94.1877 85.9629 93.3383 85.9629 92.359C85.9629 91.3883 86.1536 90.5477 86.5349 89.837C86.9163 89.1263 87.4623 88.576 88.1729 88.186C88.8923 87.7873 89.7589 87.588 90.7729 87.588C91.2929 87.588 91.7826 87.6357 92.2419 87.731C92.7099 87.8263 93.1433 87.9607 93.5419 88.134L93.0999 89.148C92.7706 89.0007 92.3979 88.875 91.9819 88.771C91.5746 88.667 91.1499 88.615 90.7079 88.615C89.9713 88.615 89.3386 88.7667 88.8099 89.07C88.2813 89.3733 87.8783 89.8067 87.6009 90.37C87.3236 90.9247 87.1849 91.5877 87.1849 92.359C87.1849 93.0957 87.3019 93.75 87.5359 94.322C87.7786 94.8853 88.1556 95.3273 88.6669 95.648C89.1783 95.96 89.8499 96.116 90.6819 96.116C90.9593 96.116 91.2019 96.1073 91.4099 96.09C91.6266 96.064 91.8216 96.0337 91.9949 95.999C92.1769 95.9643 92.3459 95.9297 92.5019 95.895V93.139H90.4609V92.099ZM98.9829 89.902C99.1129 89.902 99.2516 89.9107 99.3989 89.928C99.5549 89.9367 99.6893 89.954 99.8019 89.98L99.6589 91.033C99.5463 91.007 99.4206 90.9853 99.2819 90.968C99.1519 90.9507 99.0263 90.942 98.9049 90.942C98.6363 90.942 98.3806 90.9983 98.1379 91.111C97.8953 91.2237 97.6786 91.384 97.4879 91.592C97.2973 91.7913 97.1456 92.034 97.0329 92.32C96.9289 92.606 96.8769 92.9267 96.8769 93.282V97H95.7329V90.032H96.6689L96.7989 91.306H96.8509C96.9983 91.046 97.1759 90.812 97.3839 90.604C97.5919 90.3873 97.8303 90.2183 98.0989 90.097C98.3676 89.967 98.6623 89.902 98.9829 89.902ZM106.907 93.503C106.907 94.0837 106.829 94.5993 106.673 95.05C106.526 95.492 106.309 95.869 106.023 96.181C105.746 96.493 105.403 96.7313 104.996 96.896C104.597 97.052 104.151 97.13 103.657 97.13C103.198 97.13 102.773 97.052 102.383 96.896C101.993 96.7313 101.655 96.493 101.369 96.181C101.083 95.869 100.858 95.492 100.693 95.05C100.537 94.5993 100.459 94.0837 100.459 93.503C100.459 92.7317 100.589 92.0817 100.849 91.553C101.109 91.0157 101.482 90.6083 101.967 90.331C102.452 90.045 103.029 89.902 103.696 89.902C104.329 89.902 104.883 90.045 105.36 90.331C105.845 90.6083 106.222 91.0157 106.491 91.553C106.768 92.0817 106.907 92.7317 106.907 93.503ZM101.642 93.503C101.642 94.049 101.711 94.5257 101.85 94.933C101.997 95.3317 102.223 95.6393 102.526 95.856C102.829 96.0727 103.215 96.181 103.683 96.181C104.151 96.181 104.537 96.0727 104.84 95.856C105.143 95.6393 105.364 95.3317 105.503 94.933C105.65 94.5257 105.724 94.049 105.724 93.503C105.724 92.9483 105.65 92.476 105.503 92.086C105.356 91.696 105.13 91.397 104.827 91.189C104.532 90.9723 104.147 90.864 103.67 90.864C102.959 90.864 102.444 91.098 102.123 91.566C101.802 92.034 101.642 92.6797 101.642 93.503ZM114.544 90.032V97H113.608L113.439 96.077H113.387C113.24 96.3197 113.049 96.519 112.815 96.675C112.581 96.831 112.326 96.9437 112.048 97.013C111.771 97.091 111.481 97.13 111.177 97.13C110.623 97.13 110.155 97.0433 109.773 96.87C109.401 96.688 109.119 96.4107 108.928 96.038C108.738 95.6653 108.642 95.1843 108.642 94.595V90.032H109.799V94.517C109.799 95.0717 109.925 95.4877 110.176 95.765C110.428 96.0423 110.818 96.181 111.346 96.181C111.866 96.181 112.274 96.0857 112.568 95.895C112.872 95.6957 113.084 95.4097 113.205 95.037C113.335 94.6557 113.4 94.1963 113.4 93.659V90.032H114.544ZM120.071 89.902C120.929 89.902 121.618 90.201 122.138 90.799C122.667 91.397 122.931 92.2983 122.931 93.503C122.931 94.2917 122.81 94.959 122.567 95.505C122.333 96.0423 122 96.4497 121.566 96.727C121.142 96.9957 120.639 97.13 120.058 97.13C119.703 97.13 119.387 97.0823 119.109 96.987C118.832 96.8917 118.594 96.7703 118.394 96.623C118.204 96.467 118.039 96.298 117.9 96.116H117.822C117.84 96.2633 117.857 96.4497 117.874 96.675C117.892 96.9003 117.9 97.0953 117.9 97.26V100.12H116.756V90.032H117.692L117.848 90.981H117.9C118.039 90.7817 118.204 90.5997 118.394 90.435C118.594 90.2703 118.828 90.1403 119.096 90.045C119.374 89.9497 119.699 89.902 120.071 89.902ZM119.863 90.864C119.395 90.864 119.018 90.955 118.732 91.137C118.446 91.3103 118.238 91.5747 118.108 91.93C117.978 92.2853 117.909 92.736 117.9 93.282V93.503C117.9 94.075 117.961 94.5603 118.082 94.959C118.204 95.3577 118.407 95.661 118.693 95.869C118.988 96.077 119.387 96.181 119.889 96.181C120.314 96.181 120.661 96.064 120.929 95.83C121.207 95.596 121.41 95.2797 121.54 94.881C121.679 94.4737 121.748 94.01 121.748 93.49C121.748 92.6927 121.592 92.0557 121.28 91.579C120.977 91.1023 120.505 90.864 119.863 90.864Z" fill="#161616"/>
<rect width="64" height="40" transform="translate(148 72)" fill="#465BC7"/>
<path d="M178.95 86.29V89.41H177.585V87.595H172.155V89.47H170.805V86.29H174.09C173.91 85.75 173.715 85.24 173.49 84.79L174.945 84.55C175.14 85.075 175.335 85.66 175.515 86.29H178.95ZM173.46 88.36L174.87 88.48C174.675 89.26 174.48 89.98 174.285 90.625H179.385V91.99H177.69C177.45 93.385 176.97 94.555 176.25 95.515C177.57 96.235 178.635 96.895 179.46 97.465L178.5 98.59C177.66 97.96 176.595 97.27 175.32 96.52C174.27 97.405 172.62 98.11 170.4 98.65L169.83 97.3C171.6 96.91 172.98 96.385 173.955 95.725C173.13 95.245 172.26 94.765 171.33 94.27C171.705 93.55 172.05 92.785 172.365 91.99H170.49V90.625H172.845C173.07 89.89 173.28 89.14 173.46 88.36ZM176.325 91.99H173.82C173.55 92.695 173.28 93.31 173.01 93.82C173.715 94.165 174.375 94.495 174.99 94.825C175.635 94.075 176.085 93.13 176.325 91.99ZM167.4 98.41H166.125L165.81 97.03C166.185 97.075 166.545 97.105 166.905 97.105C167.235 97.105 167.4 96.925 167.4 96.58V93.4C166.86 93.595 166.335 93.775 165.81 93.94L165.45 92.515C166.11 92.365 166.755 92.185 167.4 91.96V88.825H165.765V87.46H167.4V84.745H168.84V87.46H170.13V88.825H168.84V91.375C169.26 91.18 169.665 90.97 170.085 90.76V92.2C169.665 92.41 169.245 92.62 168.84 92.8V96.94C168.84 97.915 168.36 98.41 167.4 98.41ZM182.94 89.485H181.755V88.93L181.305 89.47L180.54 88.405C181.455 87.385 182.295 86.17 183.06 84.76H184.02C184.935 85.72 185.805 86.725 186.645 87.745L185.73 88.72L185.52 88.435V89.485H184.32V90.835H186.135V92.17H184.32V96.25C184.95 96.115 185.58 95.965 186.195 95.8V97.165C184.62 97.585 182.925 97.96 181.125 98.26L180.78 96.835C181.515 96.745 182.235 96.64 182.94 96.52V92.17H181.11V90.835H182.94V89.485ZM182.1 92.695C182.295 93.565 182.46 94.555 182.61 95.665L181.53 95.935C181.38 94.93 181.2 93.97 180.99 93.055L182.1 92.695ZM185.145 92.65L186.24 92.95C186.075 93.94 185.865 94.825 185.625 95.605L184.59 95.215C184.8 94.54 184.98 93.685 185.145 92.65ZM182.325 88.21H185.355C184.695 87.31 184.125 86.62 183.66 86.125C183.255 86.845 182.805 87.55 182.325 88.21ZM192.09 86.59H189.885L189.585 90.73H191.805L192.09 86.59ZM188.25 90.73L188.55 86.59H186.96V85.24H193.5L193.155 90.73H194.37V92.05H193.065L192.765 96.79H194.205V98.125H186.555V96.79H187.815L188.16 92.05H186.45V90.73H188.25ZM189.135 96.79H191.4L191.715 92.05H189.495L189.135 96.79Z" fill="white"/>
<rect width="64" height="40" transform="translate(228 72)" fill="#465BC7"/>
<path d="M258.95 86.29V89.41H257.585V87.595H252.155V89.47H250.805V86.29H254.09C253.91 85.75 253.715 85.24 253.49 84.79L254.945 84.55C255.14 85.075 255.335 85.66 255.515 86.29H258.95ZM253.46 88.36L254.87 88.48C254.675 89.26 254.48 89.98 254.285 90.625H259.385V91.99H257.69C257.45 93.385 256.97 94.555 256.25 95.515C257.57 96.235 258.635 96.895 259.46 97.465L258.5 98.59C257.66 97.96 256.595 97.27 255.32 96.52C254.27 97.405 252.62 98.11 250.4 98.65L249.83 97.3C251.6 96.91 252.98 96.385 253.955 95.725C253.13 95.245 252.26 94.765 251.33 94.27C251.705 93.55 252.05 92.785 252.365 91.99H250.49V90.625H252.845C253.07 89.89 253.28 89.14 253.46 88.36ZM256.325 91.99H253.82C253.55 92.695 253.28 93.31 253.01 93.82C253.715 94.165 254.375 94.495 254.99 94.825C255.635 94.075 256.085 93.13 256.325 91.99ZM247.4 98.41H246.125L245.81 97.03C246.185 97.075 246.545 97.105 246.905 97.105C247.235 97.105 247.4 96.925 247.4 96.58V93.4C246.86 93.595 246.335 93.775 245.81 93.94L245.45 92.515C246.11 92.365 246.755 92.185 247.4 91.96V88.825H245.765V87.46H247.4V84.745H248.84V87.46H250.13V88.825H248.84V91.375C249.26 91.18 249.665 90.97 250.085 90.76V92.2C249.665 92.41 249.245 92.62 248.84 92.8V96.94C248.84 97.915 248.36 98.41 247.4 98.41ZM262.94 89.485H261.755V88.93L261.305 89.47L260.54 88.405C261.455 87.385 262.295 86.17 263.06 84.76H264.02C264.935 85.72 265.805 86.725 266.645 87.745L265.73 88.72L265.52 88.435V89.485H264.32V90.835H266.135V92.17H264.32V96.25C264.95 96.115 265.58 95.965 266.195 95.8V97.165C264.62 97.585 262.925 97.96 261.125 98.26L260.78 96.835C261.515 96.745 262.235 96.64 262.94 96.52V92.17H261.11V90.835H262.94V89.485ZM262.1 92.695C262.295 93.565 262.46 94.555 262.61 95.665L261.53 95.935C261.38 94.93 261.2 93.97 260.99 93.055L262.1 92.695ZM265.145 92.65L266.24 92.95C266.075 93.94 265.865 94.825 265.625 95.605L264.59 95.215C264.8 94.54 264.98 93.685 265.145 92.65ZM262.325 88.21H265.355C264.695 87.31 264.125 86.62 263.66 86.125C263.255 86.845 262.805 87.55 262.325 88.21ZM272.09 86.59H269.885L269.585 90.73H271.805L272.09 86.59ZM268.25 90.73L268.55 86.59H266.96V85.24H273.5L273.155 90.73H274.37V92.05H273.065L272.765 96.79H274.205V98.125H266.555V96.79H267.815L268.16 92.05H266.45V90.73H268.25ZM269.135 96.79H271.4L271.715 92.05H269.495L269.135 96.79Z" fill="white"/>
<rect width="64" height="40" transform="translate(308 72)" fill="#465BC7"/>
<path d="M338.95 86.29V89.41H337.585V87.595H332.155V89.47H330.805V86.29H334.09C333.91 85.75 333.715 85.24 333.49 84.79L334.945 84.55C335.14 85.075 335.335 85.66 335.515 86.29H338.95ZM333.46 88.36L334.87 88.48C334.675 89.26 334.48 89.98 334.285 90.625H339.385V91.99H337.69C337.45 93.385 336.97 94.555 336.25 95.515C337.57 96.235 338.635 96.895 339.46 97.465L338.5 98.59C337.66 97.96 336.595 97.27 335.32 96.52C334.27 97.405 332.62 98.11 330.4 98.65L329.83 97.3C331.6 96.91 332.98 96.385 333.955 95.725C333.13 95.245 332.26 94.765 331.33 94.27C331.705 93.55 332.05 92.785 332.365 91.99H330.49V90.625H332.845C333.07 89.89 333.28 89.14 333.46 88.36ZM336.325 91.99H333.82C333.55 92.695 333.28 93.31 333.01 93.82C333.715 94.165 334.375 94.495 334.99 94.825C335.635 94.075 336.085 93.13 336.325 91.99ZM327.4 98.41H326.125L325.81 97.03C326.185 97.075 326.545 97.105 326.905 97.105C327.235 97.105 327.4 96.925 327.4 96.58V93.4C326.86 93.595 326.335 93.775 325.81 93.94L325.45 92.515C326.11 92.365 326.755 92.185 327.4 91.96V88.825H325.765V87.46H327.4V84.745H328.84V87.46H330.13V88.825H328.84V91.375C329.26 91.18 329.665 90.97 330.085 90.76V92.2C329.665 92.41 329.245 92.62 328.84 92.8V96.94C328.84 97.915 328.36 98.41 327.4 98.41ZM342.94 89.485H341.755V88.93L341.305 89.47L340.54 88.405C341.455 87.385 342.295 86.17 343.06 84.76H344.02C344.935 85.72 345.805 86.725 346.645 87.745L345.73 88.72L345.52 88.435V89.485H344.32V90.835H346.135V92.17H344.32V96.25C344.95 96.115 345.58 95.965 346.195 95.8V97.165C344.62 97.585 342.925 97.96 341.125 98.26L340.78 96.835C341.515 96.745 342.235 96.64 342.94 96.52V92.17H341.11V90.835H342.94V89.485ZM342.1 92.695C342.295 93.565 342.46 94.555 342.61 95.665L341.53 95.935C341.38 94.93 341.2 93.97 340.99 93.055L342.1 92.695ZM345.145 92.65L346.24 92.95C346.075 93.94 345.865 94.825 345.625 95.605L344.59 95.215C344.8 94.54 344.98 93.685 345.145 92.65ZM342.325 88.21H345.355C344.695 87.31 344.125 86.62 343.66 86.125C343.255 86.845 342.805 87.55 342.325 88.21ZM352.09 86.59H349.885L349.585 90.73H351.805L352.09 86.59ZM348.25 90.73L348.55 86.59H346.96V85.24H353.5L353.155 90.73H354.37V92.05H353.065L352.765 96.79H354.205V98.125H346.555V96.79H347.815L348.16 92.05H346.45V90.73H348.25ZM349.135 96.79H351.4L351.715 92.05H349.495L349.135 96.79Z" fill="white"/>
<mask id="path-11-inside-2_33_4635" fill="white">
<path d="M0 132H780V178C780 179.105 779.105 180 778 180H1.99998C0.895407 180 0 179.105 0 178V132Z"/>
</mask>
<path d="M0 132H780V178C780 179.105 779.105 180 778 180H1.99998C0.895407 180 0 179.105 0 178V132Z" fill="#E7E7E7"/>
<path d="M0 132H780H0ZM781 178C781 179.657 779.657 181 778 181H2C0.343146 181 -1 179.657 -1 178H1C1 178.552 1.44772 179 2 179H778C778.552 179 779 178.552 779 178H781ZM2 181C0.343146 181 -1 179.657 -1 178V132H1V178C1 178.552 1.44772 179 2 179V181ZM781 132V178C781 179.657 779.657 181 778 181V179C778.552 179 779 178.552 779 178V132H781Z" fill="#D9D9D9" mask="url(#path-11-inside-2_33_4635)"/>
<path fill-rule="evenodd" clip-rule="evenodd" d="M36.0005 160L29 152.98L29.9762 152H29.9781L36.0005 158.041L42.0238 152H42.0258L43 152.979V152.981L36.0005 160Z" fill="#4457CA"/>
<path d="M59.575 159.105C59.575 159.745 59.42 160.29 59.11 160.74C58.8 161.19 58.355 161.54 57.775 161.79C57.195 162.03 56.505 162.15 55.705 162.15C55.315 162.15 54.94 162.125 54.58 162.075C54.22 162.035 53.885 161.975 53.575 161.895C53.265 161.815 52.99 161.715 52.75 161.595V160.065C53.15 160.245 53.62 160.41 54.16 160.56C54.7 160.7 55.25 160.77 55.81 160.77C56.29 160.77 56.69 160.705 57.01 160.575C57.33 160.445 57.57 160.265 57.73 160.035C57.89 159.805 57.97 159.535 57.97 159.225C57.97 158.895 57.885 158.62 57.715 158.4C57.555 158.17 57.3 157.96 56.95 157.77C56.61 157.57 56.15 157.36 55.57 157.14C55.17 156.99 54.805 156.825 54.475 156.645C54.155 156.455 53.87 156.235 53.62 155.985C53.38 155.735 53.195 155.445 53.065 155.115C52.935 154.785 52.87 154.4 52.87 153.96C52.87 153.37 53.015 152.865 53.305 152.445C53.605 152.025 54.015 151.705 54.535 151.485C55.055 151.255 55.66 151.14 56.35 151.14C56.93 151.14 57.465 151.2 57.955 151.32C58.455 151.43 58.93 151.585 59.38 151.785L58.87 153.12C58.46 152.95 58.045 152.81 57.625 152.7C57.205 152.59 56.765 152.535 56.305 152.535C55.905 152.535 55.57 152.595 55.3 152.715C55.03 152.835 54.825 153 54.685 153.21C54.555 153.42 54.49 153.665 54.49 153.945C54.49 154.275 54.565 154.55 54.715 154.77C54.865 154.99 55.105 155.195 55.435 155.385C55.765 155.565 56.2 155.765 56.74 155.985C57.34 156.215 57.85 156.465 58.27 156.735C58.7 157.005 59.025 157.33 59.245 157.71C59.465 158.08 59.575 158.545 59.575 159.105ZM63.0821 153.645C63.0821 153.895 63.0721 154.145 63.0521 154.395C63.0321 154.645 63.0121 154.85 62.9921 155.01H63.0971C63.2671 154.73 63.4771 154.5 63.7271 154.32C63.9871 154.14 64.2721 154.005 64.5821 153.915C64.9021 153.825 65.2271 153.78 65.5571 153.78C66.1971 153.78 66.7321 153.885 67.1621 154.095C67.6021 154.295 67.9321 154.615 68.1521 155.055C68.3821 155.485 68.4971 156.045 68.4971 156.735V162H66.9221V156.96C66.9221 156.33 66.7871 155.86 66.5171 155.55C66.2571 155.23 65.8371 155.07 65.2571 155.07C64.7071 155.07 64.2721 155.18 63.9521 155.4C63.6421 155.62 63.4171 155.945 63.2771 156.375C63.1471 156.795 63.0821 157.315 63.0821 157.935V162H61.4921V150.6H63.0821V153.645ZM78.0653 157.95C78.0653 158.62 77.9753 159.215 77.7953 159.735C77.6153 160.255 77.3603 160.695 77.0303 161.055C76.7003 161.415 76.3003 161.69 75.8303 161.88C75.3603 162.06 74.8303 162.15 74.2403 162.15C73.7003 162.15 73.2003 162.06 72.7403 161.88C72.2803 161.69 71.8803 161.415 71.5403 161.055C71.2103 160.695 70.9503 160.255 70.7603 159.735C70.5703 159.215 70.4753 158.615 70.4753 157.935C70.4753 157.045 70.6253 156.29 70.9253 155.67C71.2353 155.05 71.6753 154.58 72.2453 154.26C72.8253 153.93 73.5053 153.765 74.2853 153.765C75.0253 153.765 75.6753 153.93 76.2353 154.26C76.8053 154.58 77.2503 155.05 77.5703 155.67C77.9003 156.29 78.0653 157.05 78.0653 157.95ZM72.1103 157.95C72.1103 158.55 72.1853 159.07 72.3353 159.51C72.4853 159.94 72.7203 160.27 73.0403 160.5C73.3603 160.73 73.7703 160.845 74.2703 160.845C74.7703 160.845 75.1803 160.73 75.5003 160.5C75.8203 160.27 76.0553 159.94 76.2053 159.51C76.3553 159.07 76.4303 158.55 76.4303 157.95C76.4303 157.33 76.3503 156.81 76.1903 156.39C76.0403 155.97 75.8053 155.65 75.4853 155.43C75.1753 155.2 74.7653 155.085 74.2553 155.085C73.5053 155.085 72.9603 155.335 72.6203 155.835C72.2803 156.335 72.1103 157.04 72.1103 157.95ZM85.248 157.95C85.198 157.75 85.138 157.53 85.068 157.29C85.008 157.05 84.948 156.81 84.888 156.57C84.828 156.32 84.773 156.09 84.723 155.88C84.673 155.67 84.633 155.505 84.603 155.385H84.543C84.523 155.505 84.488 155.67 84.438 155.88C84.398 156.09 84.348 156.32 84.288 156.57C84.228 156.81 84.168 157.055 84.108 157.305C84.048 157.545 83.983 157.765 83.913 157.965L82.713 161.985H80.943L78.708 153.9H80.328L81.378 157.995C81.458 158.275 81.528 158.57 81.588 158.88C81.658 159.19 81.718 159.49 81.768 159.78C81.828 160.06 81.868 160.295 81.888 160.485H81.948C81.968 160.355 81.998 160.195 82.038 160.005C82.078 159.805 82.118 159.6 82.158 159.39C82.208 159.17 82.253 158.96 82.293 158.76C82.343 158.56 82.393 158.395 82.443 158.265L83.733 153.9H85.473L86.733 158.265C86.793 158.465 86.858 158.705 86.928 158.985C86.998 159.255 87.058 159.525 87.108 159.795C87.168 160.055 87.208 160.28 87.228 160.47H87.288C87.308 160.3 87.343 160.08 87.393 159.81C87.443 159.53 87.503 159.23 87.573 158.91C87.653 158.59 87.728 158.285 87.798 157.995L88.878 153.9H90.483L88.218 161.985H86.403L85.248 157.95ZM100.539 152.535C100.009 152.535 99.5341 152.63 99.1141 152.82C98.6941 153 98.3341 153.27 98.0341 153.63C97.7441 153.99 97.5191 154.425 97.3591 154.935C97.2091 155.445 97.1341 156.02 97.1341 156.66C97.1341 157.5 97.2591 158.23 97.5091 158.85C97.7591 159.46 98.1341 159.93 98.6341 160.26C99.1341 160.59 99.7641 160.755 100.524 160.755C100.984 160.755 101.424 160.715 101.844 160.635C102.274 160.545 102.709 160.43 103.149 160.29V161.685C102.729 161.845 102.299 161.96 101.859 162.03C101.419 162.11 100.909 162.15 100.329 162.15C99.2391 162.15 98.3291 161.925 97.5991 161.475C96.8791 161.025 96.3391 160.385 95.9791 159.555C95.6191 158.725 95.4391 157.755 95.4391 156.645C95.4391 155.835 95.5491 155.095 95.7691 154.425C95.9991 153.745 96.3291 153.16 96.7591 152.67C97.1891 152.18 97.7191 151.805 98.3491 151.545C98.9891 151.275 99.7241 151.14 100.554 151.14C101.094 151.14 101.624 151.2 102.144 151.32C102.664 151.43 103.134 151.59 103.554 151.8L102.954 153.15C102.604 152.99 102.224 152.85 101.814 152.73C101.414 152.6 100.989 152.535 100.539 152.535ZM112.401 157.95C112.401 158.62 112.311 159.215 112.131 159.735C111.951 160.255 111.696 160.695 111.366 161.055C111.036 161.415 110.636 161.69 110.166 161.88C109.696 162.06 109.166 162.15 108.576 162.15C108.036 162.15 107.536 162.06 107.076 161.88C106.616 161.69 106.216 161.415 105.876 161.055C105.546 160.695 105.286 160.255 105.096 159.735C104.906 159.215 104.811 158.615 104.811 157.935C104.811 157.045 104.961 156.29 105.261 155.67C105.571 155.05 106.011 154.58 106.581 154.26C107.161 153.93 107.841 153.765 108.621 153.765C109.361 153.765 110.011 153.93 110.571 154.26C111.141 154.58 111.586 155.05 111.906 155.67C112.236 156.29 112.401 157.05 112.401 157.95ZM106.446 157.95C106.446 158.55 106.521 159.07 106.671 159.51C106.821 159.94 107.056 160.27 107.376 160.5C107.696 160.73 108.106 160.845 108.606 160.845C109.106 160.845 109.516 160.73 109.836 160.5C110.156 160.27 110.391 159.94 110.541 159.51C110.691 159.07 110.766 158.55 110.766 157.95C110.766 157.33 110.686 156.81 110.526 156.39C110.376 155.97 110.141 155.65 109.821 155.43C109.511 155.2 109.101 155.085 108.591 155.085C107.841 155.085 107.296 155.335 106.956 155.835C106.616 156.335 106.446 157.04 106.446 157.95ZM117.192 162.15C116.222 162.15 115.437 161.8 114.837 161.1C114.247 160.4 113.952 159.36 113.952 157.98C113.952 156.59 114.252 155.54 114.852 154.83C115.452 154.12 116.242 153.765 117.222 153.765C117.632 153.765 117.987 153.82 118.287 153.93C118.597 154.03 118.862 154.17 119.082 154.35C119.312 154.53 119.507 154.73 119.667 154.95H119.757C119.737 154.81 119.712 154.61 119.682 154.35C119.652 154.08 119.637 153.84 119.637 153.63V150.6H121.227V162H119.982L119.712 160.92H119.637C119.487 161.15 119.297 161.36 119.067 161.55C118.847 161.73 118.582 161.875 118.272 161.985C117.962 162.095 117.602 162.15 117.192 162.15ZM117.567 160.845C118.347 160.845 118.897 160.63 119.217 160.2C119.537 159.76 119.697 159.105 119.697 158.235V157.995C119.697 157.045 119.542 156.32 119.232 155.82C118.932 155.32 118.372 155.07 117.552 155.07C116.902 155.07 116.412 155.335 116.082 155.865C115.752 156.385 115.587 157.1 115.587 158.01C115.587 158.92 115.752 159.62 116.082 160.11C116.412 160.6 116.907 160.845 117.567 160.845ZM126.899 153.765C127.609 153.765 128.219 153.915 128.729 154.215C129.239 154.505 129.629 154.925 129.899 155.475C130.179 156.025 130.319 156.675 130.319 157.425V158.295H124.889C124.909 159.125 125.124 159.76 125.534 160.2C125.954 160.64 126.539 160.86 127.289 160.86C127.809 160.86 128.269 160.815 128.669 160.725C129.079 160.625 129.499 160.48 129.929 160.29V161.61C129.529 161.79 129.119 161.925 128.699 162.015C128.289 162.105 127.799 162.15 127.229 162.15C126.449 162.15 125.759 161.995 125.159 161.685C124.559 161.375 124.089 160.915 123.749 160.305C123.419 159.685 123.254 158.925 123.254 158.025C123.254 157.115 123.404 156.345 123.704 155.715C124.014 155.085 124.439 154.605 124.979 154.275C125.529 153.935 126.169 153.765 126.899 153.765ZM126.899 154.995C126.329 154.995 125.869 155.18 125.519 155.55C125.179 155.92 124.979 156.445 124.919 157.125H128.729C128.729 156.705 128.664 156.335 128.534 156.015C128.404 155.695 128.204 155.445 127.934 155.265C127.664 155.085 127.319 154.995 126.899 154.995Z" fill="#465BC7"/>
<path fill-rule="evenodd" clip-rule="evenodd" d="M700.2 156C700.2 151.546 703.97 148 708.539 148C709.459 148 710.343 148.151 711.168 148.413L711.295 149.816C709.717 150.659 708.675 152.254 708.675 154.056C708.675 156.704 710.934 158.917 713.804 158.917C714.204 158.917 714.599 158.869 714.98 158.783L715.8 159.917C714.368 162.362 711.644 164 708.535 164C703.97 164 700.2 160.454 700.2 156ZM708.539 149.528C704.734 149.528 701.72 152.463 701.72 156C701.72 159.537 704.735 162.472 708.535 162.472C710.496 162.472 712.254 161.686 713.491 160.438C709.997 160.282 707.155 157.518 707.155 154.056C707.155 152.29 707.901 150.701 709.093 149.55C708.91 149.536 708.725 149.528 708.539 149.528Z" fill="#4457CA"/>
<path d="M756 160.418H753.851V164H740V150.149H743.582V148H756V160.418ZM741.433 151.582V162.567H752.418V160.418H743.582V151.582H741.433ZM745.082 158.918H754.5V149.5H745.082V158.918Z" fill="#4457CA"/>
</svg>
