<svg width="780" height="208" viewBox="0 0 780 208" fill="none" xmlns="http://www.w3.org/2000/svg">
<mask id="path-2-inside-1_35_4942" fill="white">
<path d="M0 2C0 0.895429 0.895431 0 2 0H778C779.105 0 780 0.895431 780 2V160H0V2Z"/>
</mask>
<path d="M0 2C0 0.895429 0.895431 0 2 0H778C779.105 0 780 0.895431 780 2V160H0V2Z" fill="white"/>
<path d="M-1 2C-1 0.343146 0.343146 -1 2 -1H778C779.657 -1 781 0.343146 781 2H779C779 1.44772 778.552 1 778 1H2C1.44772 1 1 1.44772 1 2H-1ZM780 160H0H780ZM-1 160V2C-1 0.343146 0.343146 -1 2 -1V1C1.44772 1 1 1.44772 1 2V160H-1ZM778 -1C779.657 -1 781 0.343146 781 2V160H779V2C779 1.44772 778.552 1 778 1V-1Z" fill="#D9D9D9" mask="url(#path-2-inside-1_35_4942)"/>
<path d="M46.526 34.517C46.526 35.0717 46.3917 35.544 46.123 35.934C45.8543 36.3153 45.4687 36.61 44.966 36.818C44.472 37.026 43.887 37.13 43.211 37.13C42.8643 37.13 42.5307 37.1127 42.21 37.078C41.898 37.0433 41.612 36.9957 41.352 36.935C41.092 36.8657 40.8623 36.7833 40.663 36.688V35.57C40.975 35.7087 41.3607 35.8343 41.82 35.947C42.288 36.0597 42.769 36.116 43.263 36.116C43.7223 36.116 44.108 36.0553 44.42 35.934C44.732 35.8127 44.966 35.6393 45.122 35.414C45.278 35.1887 45.356 34.9243 45.356 34.621C45.356 34.3177 45.291 34.062 45.161 33.854C45.031 33.646 44.8057 33.4553 44.485 33.282C44.173 33.1 43.7353 32.9093 43.172 32.71C42.7733 32.5627 42.4223 32.4067 42.119 32.242C41.8243 32.0687 41.5773 31.8737 41.378 31.657C41.1787 31.4403 41.027 31.1933 40.923 30.916C40.8277 30.6387 40.78 30.318 40.78 29.954C40.78 29.46 40.9057 29.0397 41.157 28.693C41.4083 28.3377 41.755 28.0647 42.197 27.874C42.6477 27.6833 43.1633 27.588 43.744 27.588C44.2553 27.588 44.7233 27.6357 45.148 27.731C45.5727 27.8263 45.9583 27.952 46.305 28.108L45.941 29.109C45.6203 28.9703 45.2693 28.8533 44.888 28.758C44.5153 28.6627 44.1253 28.615 43.718 28.615C43.328 28.615 43.003 28.6713 42.743 28.784C42.483 28.8967 42.288 29.057 42.158 29.265C42.028 29.4643 41.963 29.6983 41.963 29.967C41.963 30.279 42.028 30.539 42.158 30.747C42.288 30.955 42.5003 31.1413 42.795 31.306C43.0897 31.4707 43.4883 31.6483 43.991 31.839C44.537 32.0383 44.9963 32.255 45.369 32.489C45.7503 32.7143 46.0363 32.9873 46.227 33.308C46.4263 33.6287 46.526 34.0317 46.526 34.517ZM55.8838 29.902C56.6724 29.902 57.2618 30.1057 57.6518 30.513C58.0418 30.9117 58.2368 31.5617 58.2368 32.463V37H57.1058V32.515C57.1058 31.969 56.9888 31.5573 56.7548 31.28C56.5294 31.0027 56.1741 30.864 55.6888 30.864C55.0128 30.864 54.5274 31.059 54.2328 31.449C53.9468 31.839 53.8038 32.4067 53.8038 33.152V37H52.6728V32.515C52.6728 32.151 52.6208 31.8477 52.5168 31.605C52.4128 31.3537 52.2568 31.1673 52.0488 31.046C51.8408 30.9247 51.5721 30.864 51.2428 30.864C50.7748 30.864 50.4064 30.9637 50.1378 31.163C49.8691 31.3537 49.6741 31.6353 49.5528 32.008C49.4401 32.3807 49.3838 32.84 49.3838 33.386V37H48.2398V30.032H49.1628L49.3318 30.981H49.3968C49.5441 30.7383 49.7218 30.539 49.9298 30.383C50.1464 30.2183 50.3848 30.097 50.6448 30.019C50.9048 29.941 51.1734 29.902 51.4508 29.902C51.9881 29.902 52.4344 29.9973 52.7898 30.188C53.1538 30.3787 53.4181 30.6733 53.5828 31.072H53.6478C53.8818 30.6733 54.1981 30.3787 54.5968 30.188C55.0041 29.9973 55.4331 29.902 55.8838 29.902ZM63.0282 29.915C63.8775 29.915 64.5058 30.1013 64.9132 30.474C65.3205 30.8467 65.5242 31.4403 65.5242 32.255V37H64.6922L64.4712 36.012H64.4192C64.2198 36.2633 64.0118 36.4757 63.7952 36.649C63.5872 36.8137 63.3445 36.935 63.0672 37.013C62.7985 37.091 62.4692 37.13 62.0792 37.13C61.6632 37.13 61.2862 37.0563 60.9482 36.909C60.6188 36.7617 60.3588 36.5363 60.1682 36.233C59.9775 35.921 59.8822 35.531 59.8822 35.063C59.8822 34.3697 60.1552 33.8367 60.7012 33.464C61.2472 33.0827 62.0878 32.8747 63.2232 32.84L64.4062 32.801V32.385C64.4062 31.8043 64.2805 31.4013 64.0292 31.176C63.7778 30.9507 63.4225 30.838 62.9632 30.838C62.5992 30.838 62.2525 30.8943 61.9232 31.007C61.5938 31.111 61.2862 31.2323 61.0002 31.371L60.6492 30.513C60.9525 30.3483 61.3122 30.2097 61.7282 30.097C62.1442 29.9757 62.5775 29.915 63.0282 29.915ZM63.3662 33.633C62.4995 33.6677 61.8972 33.8063 61.5592 34.049C61.2298 34.2917 61.0652 34.634 61.0652 35.076C61.0652 35.466 61.1822 35.752 61.4162 35.934C61.6588 36.116 61.9665 36.207 62.3392 36.207C62.9285 36.207 63.4182 36.0467 63.8082 35.726C64.1982 35.3967 64.3932 34.894 64.3932 34.218V33.594L63.3662 33.633ZM68.8203 37H67.6763V27.12H68.8203V37ZM72.1719 37H71.0279V27.12H72.1719V37Z" fill="#161616"/>
<rect width="50" height="24" transform="translate(128 20)" fill="#465BC7"/>
<path d="M140.845 26.951H144.914V28.147H143.237C143.081 29.083 142.86 29.967 142.574 30.799H144.771V33.503C145.98 32.19 146.903 30.578 147.527 28.654H146.357V30.318H145.226V27.575H147.852C147.956 27.133 148.06 26.704 148.151 26.275L149.295 26.483C149.217 26.86 149.126 27.224 149.048 27.575H152.285V30.071H151.154V28.654H148.749C148.515 29.382 148.268 30.045 147.982 30.669H149.152C149.022 30.253 148.866 29.863 148.71 29.473L149.763 29.187C149.971 29.733 150.127 30.227 150.244 30.669H152.077V31.735H150.166V32.697H151.83V33.75H150.166V34.738H151.882V35.791H150.166V36.87H152.415V37.962H147.241V38.365H146.084V33.724C145.863 33.984 145.642 34.231 145.408 34.465L144.771 33.685V37.78H143.679V37.156H142.626V37.91H141.56V33.074C141.378 33.373 141.209 33.659 141.027 33.932L140.377 32.905C141.209 31.501 141.768 29.915 142.054 28.147H140.845V26.951ZM147.241 36.87H149.009V35.791H147.241V36.87ZM149.009 34.738V33.75H147.241V34.738H149.009ZM149.009 32.697V31.735H147.449C147.371 31.865 147.306 31.982 147.241 32.112V32.697H149.009ZM142.626 36.038H143.679V31.917H142.626V36.038ZM161.112 27.874H158.525V26.782H164.791C164.765 29.616 164.596 31.319 164.271 31.891C163.933 32.437 163.361 32.723 162.529 32.723C162.295 32.723 162.035 32.697 161.723 32.671L161.424 31.592C161.762 31.618 162.048 31.644 162.282 31.67C162.828 31.657 163.192 31.449 163.348 31.046C163.478 30.643 163.569 29.59 163.595 27.874H162.321C162.1 28.888 161.775 29.772 161.333 30.552C160.748 31.449 159.89 32.255 158.772 32.97L158.005 31.982C158.811 31.54 159.448 31.046 159.942 30.474C159.422 30.032 158.811 29.629 158.122 29.252L158.785 28.433C159.435 28.797 160.02 29.187 160.527 29.603C160.787 29.083 160.982 28.511 161.112 27.874ZM158.317 33.945L159.344 34.166C159.136 35.622 158.837 36.883 158.447 37.949L157.459 37.325C157.862 36.285 158.148 35.154 158.317 33.945ZM162.061 33.035C162.451 33.659 162.789 34.335 163.075 35.05L162.113 35.479C161.801 34.673 161.45 33.958 161.073 33.347L162.061 33.035ZM164.518 33.594C164.934 34.595 165.298 35.674 165.61 36.818L164.609 37.26C164.271 36.012 163.894 34.894 163.478 33.932L164.518 33.594ZM162.555 38.131H160.826C160.072 38.131 159.695 37.715 159.695 36.909V33.62H160.826V36.662C160.826 36.896 160.943 37.026 161.177 37.026H162.36C162.516 37.026 162.633 36.961 162.711 36.844C162.789 36.688 162.854 36.259 162.893 35.544L163.946 35.882C163.868 36.961 163.712 37.611 163.504 37.832C163.283 38.027 162.971 38.131 162.555 38.131ZM155.717 26.262C155.964 26.86 156.159 27.419 156.302 27.913H157.563V29.031H153.598V27.913H155.119C154.95 27.458 154.755 27.016 154.547 26.6L155.717 26.262ZM154.053 29.863H157.173V30.916H154.053V29.863ZM154.053 31.683H157.173V32.736H154.053V31.683ZM157.329 33.607V37.533H155.041V38.144H153.923V33.607H157.329ZM155.041 36.506H156.237V34.608H155.041V36.506Z" fill="white"/>
<rect width="76" height="24" transform="translate(186 20)" fill="#465BC7"/>
<path d="M198.845 26.951H202.914V28.147H201.237C201.081 29.083 200.86 29.967 200.574 30.799H202.771V33.503C203.98 32.19 204.903 30.578 205.527 28.654H204.357V30.318H203.226V27.575H205.852C205.956 27.133 206.06 26.704 206.151 26.275L207.295 26.483C207.217 26.86 207.126 27.224 207.048 27.575H210.285V30.071H209.154V28.654H206.749C206.515 29.382 206.268 30.045 205.982 30.669H207.152C207.022 30.253 206.866 29.863 206.71 29.473L207.763 29.187C207.971 29.733 208.127 30.227 208.244 30.669H210.077V31.735H208.166V32.697H209.83V33.75H208.166V34.738H209.882V35.791H208.166V36.87H210.415V37.962H205.241V38.365H204.084V33.724C203.863 33.984 203.642 34.231 203.408 34.465L202.771 33.685V37.78H201.679V37.156H200.626V37.91H199.56V33.074C199.378 33.373 199.209 33.659 199.027 33.932L198.377 32.905C199.209 31.501 199.768 29.915 200.054 28.147H198.845V26.951ZM205.241 36.87H207.009V35.791H205.241V36.87ZM207.009 34.738V33.75H205.241V34.738H207.009ZM207.009 32.697V31.735H205.449C205.371 31.865 205.306 31.982 205.241 32.112V32.697H207.009ZM200.626 36.038H201.679V31.917H200.626V36.038ZM219.112 27.874H216.525V26.782H222.791C222.765 29.616 222.596 31.319 222.271 31.891C221.933 32.437 221.361 32.723 220.529 32.723C220.295 32.723 220.035 32.697 219.723 32.671L219.424 31.592C219.762 31.618 220.048 31.644 220.282 31.67C220.828 31.657 221.192 31.449 221.348 31.046C221.478 30.643 221.569 29.59 221.595 27.874H220.321C220.1 28.888 219.775 29.772 219.333 30.552C218.748 31.449 217.89 32.255 216.772 32.97L216.005 31.982C216.811 31.54 217.448 31.046 217.942 30.474C217.422 30.032 216.811 29.629 216.122 29.252L216.785 28.433C217.435 28.797 218.02 29.187 218.527 29.603C218.787 29.083 218.982 28.511 219.112 27.874ZM216.317 33.945L217.344 34.166C217.136 35.622 216.837 36.883 216.447 37.949L215.459 37.325C215.862 36.285 216.148 35.154 216.317 33.945ZM220.061 33.035C220.451 33.659 220.789 34.335 221.075 35.05L220.113 35.479C219.801 34.673 219.45 33.958 219.073 33.347L220.061 33.035ZM222.518 33.594C222.934 34.595 223.298 35.674 223.61 36.818L222.609 37.26C222.271 36.012 221.894 34.894 221.478 33.932L222.518 33.594ZM220.555 38.131H218.826C218.072 38.131 217.695 37.715 217.695 36.909V33.62H218.826V36.662C218.826 36.896 218.943 37.026 219.177 37.026H220.36C220.516 37.026 220.633 36.961 220.711 36.844C220.789 36.688 220.854 36.259 220.893 35.544L221.946 35.882C221.868 36.961 221.712 37.611 221.504 37.832C221.283 38.027 220.971 38.131 220.555 38.131ZM213.717 26.262C213.964 26.86 214.159 27.419 214.302 27.913H215.563V29.031H211.598V27.913H213.119C212.95 27.458 212.755 27.016 212.547 26.6L213.717 26.262ZM212.053 29.863H215.173V30.916H212.053V29.863ZM212.053 31.683H215.173V32.736H212.053V31.683ZM215.329 33.607V37.533H213.041V38.144H211.923V33.607H215.329ZM213.041 36.506H214.237V34.608H213.041V36.506ZM228.589 31.501H231.683C231.735 30.981 231.774 30.396 231.8 29.772H229.031V28.667H230.591C230.253 28.017 229.889 27.419 229.499 26.899L230.591 26.379C230.968 26.951 231.332 27.588 231.683 28.29L230.903 28.667H232.944C233.334 27.9 233.672 27.094 233.958 26.249L235.102 26.652C234.816 27.406 234.517 28.069 234.179 28.667H235.674V29.772H232.983C232.957 30.422 232.931 30.994 232.879 31.501H236.116V32.645H232.697C232.346 34.27 231.293 35.635 229.551 36.727L228.784 35.765C230.201 34.959 231.098 33.919 231.462 32.645H228.589V31.501ZM233.347 33.308C234.439 34.062 235.427 34.868 236.311 35.752L235.466 36.701C234.556 35.713 233.607 34.855 232.619 34.127L233.347 33.308ZM225.846 26.405C226.626 27.029 227.276 27.64 227.822 28.264L227.016 29.07C226.535 28.485 225.872 27.861 225.014 27.185L225.846 26.405ZM224.689 29.512H227.822V30.474C227.419 31.15 226.951 31.826 226.405 32.489H228.004V33.308C227.809 34.283 227.575 35.089 227.289 35.726L227.562 35.96C227.991 36.35 228.394 36.636 228.771 36.805C229.161 36.961 229.707 37.039 230.422 37.052C231.124 37.065 231.943 37.078 232.853 37.078C233.789 37.078 235.011 37.039 236.506 36.987L236.233 38.144H233.009C232.099 38.144 231.215 38.131 230.37 38.105C229.486 38.079 228.81 37.975 228.355 37.793C227.809 37.572 227.315 37.234 226.873 36.792C226.795 36.688 226.691 36.649 226.574 36.649C226.327 36.649 225.937 37.208 225.391 38.326L224.494 37.507C225.079 36.363 225.638 35.687 226.184 35.505C226.47 34.907 226.691 34.244 226.847 33.529H224.949V32.593C225.547 31.917 226.054 31.254 226.47 30.63H224.689V29.512ZM246.854 30.76V27.315H248.102V31.956H244.137V36.441H247.504V32.996H248.739V38.248H247.504V37.624H239.496V38.248H238.261V32.996H239.496V36.441H242.863V31.956H238.898V27.315H240.146V30.76H242.863V26.327H244.137V30.76H246.854Z" fill="white"/>
<path d="M45.356 77L42.301 68.862H42.249C42.2663 69.0353 42.2793 69.2563 42.288 69.525C42.3053 69.7937 42.3183 70.0883 42.327 70.409C42.3357 70.721 42.34 71.0417 42.34 71.371V77H41.261V67.718H42.99L45.85 75.323H45.902L48.814 67.718H50.53V77H49.373V71.293C49.373 70.9897 49.3773 70.6907 49.386 70.396C49.3947 70.0927 49.4077 69.811 49.425 69.551C49.4423 69.2823 49.4553 69.057 49.464 68.875H49.412L46.318 77H45.356ZM55.5899 69.902C56.1879 69.902 56.6993 70.032 57.1239 70.292C57.5573 70.552 57.8866 70.9203 58.1119 71.397C58.3459 71.865 58.4629 72.4153 58.4629 73.048V73.737H53.6919C53.7093 74.5257 53.9086 75.128 54.2899 75.544C54.6799 75.9513 55.2216 76.155 55.9149 76.155C56.3569 76.155 56.7469 76.116 57.0849 76.038C57.4316 75.9513 57.7869 75.83 58.1509 75.674V76.675C57.7956 76.831 57.4446 76.9437 57.0979 77.013C56.7513 77.091 56.3396 77.13 55.8629 77.13C55.2043 77.13 54.6193 76.9957 54.1079 76.727C53.6053 76.4583 53.2109 76.0597 52.9249 75.531C52.6476 74.9937 52.5089 74.3393 52.5089 73.568C52.5089 72.8053 52.6346 72.151 52.8859 71.605C53.1459 71.059 53.5056 70.6387 53.9649 70.344C54.4329 70.0493 54.9746 69.902 55.5899 69.902ZM55.5769 70.838C55.0309 70.838 54.5976 71.0157 54.2769 71.371C53.9649 71.7177 53.7786 72.203 53.7179 72.827H57.2669C57.2669 72.4283 57.2063 72.0817 57.0849 71.787C56.9636 71.4923 56.7773 71.2627 56.5259 71.098C56.2833 70.9247 55.9669 70.838 55.5769 70.838ZM62.7068 77.13C61.8402 77.13 61.1468 76.831 60.6268 76.233C60.1068 75.6263 59.8468 74.725 59.8468 73.529C59.8468 72.333 60.1068 71.4317 60.6268 70.825C61.1555 70.2097 61.8532 69.902 62.7198 69.902C63.0838 69.902 63.4002 69.9497 63.6688 70.045C63.9375 70.1317 64.1715 70.253 64.3708 70.409C64.5702 70.565 64.7392 70.7383 64.8778 70.929H64.9558C64.9472 70.8163 64.9298 70.6517 64.9038 70.435C64.8865 70.2097 64.8778 70.032 64.8778 69.902V67.12H66.0218V77H65.0988L64.9298 76.064H64.8778C64.7392 76.2633 64.5702 76.4453 64.3708 76.61C64.1715 76.766 63.9332 76.8917 63.6558 76.987C63.3872 77.0823 63.0708 77.13 62.7068 77.13ZM62.8888 76.181C63.6255 76.181 64.1412 75.9817 64.4358 75.583C64.7392 75.1757 64.8908 74.5647 64.8908 73.75V73.542C64.8908 72.6753 64.7478 72.0123 64.4618 71.553C64.1758 71.085 63.6472 70.851 62.8758 70.851C62.2605 70.851 61.7968 71.098 61.4848 71.592C61.1815 72.0773 61.0298 72.7317 61.0298 73.555C61.0298 74.387 61.1815 75.0327 61.4848 75.492C61.7968 75.9513 62.2648 76.181 62.8888 76.181ZM69.3789 70.032V77H68.2349V70.032H69.3789ZM68.8199 67.419C68.9932 67.419 69.1449 67.4797 69.2749 67.601C69.4135 67.7137 69.4829 67.8957 69.4829 68.147C69.4829 68.3897 69.4135 68.5717 69.2749 68.693C69.1449 68.8143 68.9932 68.875 68.8199 68.875C68.6292 68.875 68.4689 68.8143 68.3389 68.693C68.2089 68.5717 68.1439 68.3897 68.1439 68.147C68.1439 67.8957 68.2089 67.7137 68.3389 67.601C68.4689 67.4797 68.6292 67.419 68.8199 67.419ZM77.4104 70.032V77H76.4744L76.3054 76.077H76.2534C76.1061 76.3197 75.9154 76.519 75.6814 76.675C75.4474 76.831 75.1918 76.9437 74.9144 77.013C74.6371 77.091 74.3468 77.13 74.0434 77.13C73.4888 77.13 73.0208 77.0433 72.6394 76.87C72.2668 76.688 71.9851 76.4107 71.7944 76.038C71.6038 75.6653 71.5084 75.1843 71.5084 74.595V70.032H72.6654V74.517C72.6654 75.0717 72.7911 75.4877 73.0424 75.765C73.2938 76.0423 73.6838 76.181 74.2124 76.181C74.7324 76.181 75.1398 76.0857 75.4344 75.895C75.7378 75.6957 75.9501 75.4097 76.0714 75.037C76.2014 74.6557 76.2664 74.1963 76.2664 73.659V70.032H77.4104ZM87.2666 69.902C88.0552 69.902 88.6446 70.1057 89.0346 70.513C89.4246 70.9117 89.6196 71.5617 89.6196 72.463V77H88.4886V72.515C88.4886 71.969 88.3716 71.5573 88.1376 71.28C87.9122 71.0027 87.5569 70.864 87.0716 70.864C86.3956 70.864 85.9102 71.059 85.6156 71.449C85.3296 71.839 85.1866 72.4067 85.1866 73.152V77H84.0556V72.515C84.0556 72.151 84.0036 71.8477 83.8996 71.605C83.7956 71.3537 83.6396 71.1673 83.4316 71.046C83.2236 70.9247 82.9549 70.864 82.6256 70.864C82.1576 70.864 81.7892 70.9637 81.5206 71.163C81.2519 71.3537 81.0569 71.6353 80.9356 72.008C80.8229 72.3807 80.7666 72.84 80.7666 73.386V77H79.6226V70.032H80.5456L80.7146 70.981H80.7796C80.9269 70.7383 81.1046 70.539 81.3126 70.383C81.5292 70.2183 81.7676 70.097 82.0276 70.019C82.2876 69.941 82.5562 69.902 82.8336 69.902C83.3709 69.902 83.8172 69.9973 84.1726 70.188C84.5366 70.3787 84.8009 70.6733 84.9656 71.072H85.0306C85.2646 70.6733 85.5809 70.3787 85.9796 70.188C86.3869 69.9973 86.8159 69.902 87.2666 69.902Z" fill="#161616"/>
<rect width="64" height="32" transform="translate(128 56)" fill="#465BC7"/>
<path d="M145.975 65.405H150.67V66.785H148.735C148.555 67.865 148.3 68.885 147.97 69.845H150.505V72.965C151.9 71.45 152.965 69.59 153.685 67.37H152.335V69.29H151.03V66.125H154.06C154.18 65.615 154.3 65.12 154.405 64.625L155.725 64.865C155.635 65.3 155.53 65.72 155.44 66.125H159.175V69.005H157.87V67.37H155.095C154.825 68.21 154.54 68.975 154.21 69.695H155.56C155.41 69.215 155.23 68.765 155.05 68.315L156.265 67.985C156.505 68.615 156.685 69.185 156.82 69.695H158.935V70.925H156.73V72.035H158.65V73.25H156.73V74.39H158.71V75.605H156.73V76.85H159.325V78.11H153.355V78.575H152.02V73.22C151.765 73.52 151.51 73.805 151.24 74.075L150.505 73.175V77.9H149.245V77.18H148.03V78.05H146.8V72.47C146.59 72.815 146.395 73.145 146.185 73.46L145.435 72.275C146.395 70.655 147.04 68.825 147.37 66.785H145.975V65.405ZM153.355 76.85H155.395V75.605H153.355V76.85ZM155.395 74.39V73.25H153.355V74.39H155.395ZM155.395 72.035V70.925H153.595C153.505 71.075 153.43 71.21 153.355 71.36V72.035H155.395ZM148.03 75.89H149.245V71.135H148.03V75.89ZM169.36 66.47H166.375V65.21H173.605C173.575 68.48 173.38 70.445 173.005 71.105C172.615 71.735 171.955 72.065 170.995 72.065C170.725 72.065 170.425 72.035 170.065 72.005L169.72 70.76C170.11 70.79 170.44 70.82 170.71 70.85C171.34 70.835 171.76 70.595 171.94 70.13C172.09 69.665 172.195 68.45 172.225 66.47H170.755C170.5 67.64 170.125 68.66 169.615 69.56C168.94 70.595 167.95 71.525 166.66 72.35L165.775 71.21C166.705 70.7 167.44 70.13 168.01 69.47C167.41 68.96 166.705 68.495 165.91 68.06L166.675 67.115C167.425 67.535 168.1 67.985 168.685 68.465C168.985 67.865 169.21 67.205 169.36 66.47ZM166.135 73.475L167.32 73.73C167.08 75.41 166.735 76.865 166.285 78.095L165.145 77.375C165.61 76.175 165.94 74.87 166.135 73.475ZM170.455 72.425C170.905 73.145 171.295 73.925 171.625 74.75L170.515 75.245C170.155 74.315 169.75 73.49 169.315 72.785L170.455 72.425ZM173.29 73.07C173.77 74.225 174.19 75.47 174.55 76.79L173.395 77.3C173.005 75.86 172.57 74.57 172.09 73.46L173.29 73.07ZM171.025 78.305H169.03C168.16 78.305 167.725 77.825 167.725 76.895V73.1H169.03V76.61C169.03 76.88 169.165 77.03 169.435 77.03H170.8C170.98 77.03 171.115 76.955 171.205 76.82C171.295 76.64 171.37 76.145 171.415 75.32L172.63 75.71C172.54 76.955 172.36 77.705 172.12 77.96C171.865 78.185 171.505 78.305 171.025 78.305ZM163.135 64.61C163.42 65.3 163.645 65.945 163.81 66.515H165.265V67.805H160.69V66.515H162.445C162.25 65.99 162.025 65.48 161.785 65L163.135 64.61ZM161.215 68.765H164.815V69.98H161.215V68.765ZM161.215 70.865H164.815V72.08H161.215V70.865ZM164.995 73.085V77.615H162.355V78.32H161.065V73.085H164.995ZM162.355 76.43H163.735V74.24H162.355V76.43Z" fill="white"/>
<rect width="92" height="32" transform="translate(200 56)" fill="#465BC7"/>
<path d="M216.975 65.405H221.67V66.785H219.735C219.555 67.865 219.3 68.885 218.97 69.845H221.505V72.965C222.9 71.45 223.965 69.59 224.685 67.37H223.335V69.29H222.03V66.125H225.06C225.18 65.615 225.3 65.12 225.405 64.625L226.725 64.865C226.635 65.3 226.53 65.72 226.44 66.125H230.175V69.005H228.87V67.37H226.095C225.825 68.21 225.54 68.975 225.21 69.695H226.56C226.41 69.215 226.23 68.765 226.05 68.315L227.265 67.985C227.505 68.615 227.685 69.185 227.82 69.695H229.935V70.925H227.73V72.035H229.65V73.25H227.73V74.39H229.71V75.605H227.73V76.85H230.325V78.11H224.355V78.575H223.02V73.22C222.765 73.52 222.51 73.805 222.24 74.075L221.505 73.175V77.9H220.245V77.18H219.03V78.05H217.8V72.47C217.59 72.815 217.395 73.145 217.185 73.46L216.435 72.275C217.395 70.655 218.04 68.825 218.37 66.785H216.975V65.405ZM224.355 76.85H226.395V75.605H224.355V76.85ZM226.395 74.39V73.25H224.355V74.39H226.395ZM226.395 72.035V70.925H224.595C224.505 71.075 224.43 71.21 224.355 71.36V72.035H226.395ZM219.03 75.89H220.245V71.135H219.03V75.89ZM240.36 66.47H237.375V65.21H244.605C244.575 68.48 244.38 70.445 244.005 71.105C243.615 71.735 242.955 72.065 241.995 72.065C241.725 72.065 241.425 72.035 241.065 72.005L240.72 70.76C241.11 70.79 241.44 70.82 241.71 70.85C242.34 70.835 242.76 70.595 242.94 70.13C243.09 69.665 243.195 68.45 243.225 66.47H241.755C241.5 67.64 241.125 68.66 240.615 69.56C239.94 70.595 238.95 71.525 237.66 72.35L236.775 71.21C237.705 70.7 238.44 70.13 239.01 69.47C238.41 68.96 237.705 68.495 236.91 68.06L237.675 67.115C238.425 67.535 239.1 67.985 239.685 68.465C239.985 67.865 240.21 67.205 240.36 66.47ZM237.135 73.475L238.32 73.73C238.08 75.41 237.735 76.865 237.285 78.095L236.145 77.375C236.61 76.175 236.94 74.87 237.135 73.475ZM241.455 72.425C241.905 73.145 242.295 73.925 242.625 74.75L241.515 75.245C241.155 74.315 240.75 73.49 240.315 72.785L241.455 72.425ZM244.29 73.07C244.77 74.225 245.19 75.47 245.55 76.79L244.395 77.3C244.005 75.86 243.57 74.57 243.09 73.46L244.29 73.07ZM242.025 78.305H240.03C239.16 78.305 238.725 77.825 238.725 76.895V73.1H240.03V76.61C240.03 76.88 240.165 77.03 240.435 77.03H241.8C241.98 77.03 242.115 76.955 242.205 76.82C242.295 76.64 242.37 76.145 242.415 75.32L243.63 75.71C243.54 76.955 243.36 77.705 243.12 77.96C242.865 78.185 242.505 78.305 242.025 78.305ZM234.135 64.61C234.42 65.3 234.645 65.945 234.81 66.515H236.265V67.805H231.69V66.515H233.445C233.25 65.99 233.025 65.48 232.785 65L234.135 64.61ZM232.215 68.765H235.815V69.98H232.215V68.765ZM232.215 70.865H235.815V72.08H232.215V70.865ZM235.995 73.085V77.615H233.355V78.32H232.065V73.085H235.995ZM233.355 76.43H234.735V74.24H233.355V76.43ZM251.295 70.655H254.865C254.925 70.055 254.97 69.38 255 68.66H251.805V67.385H253.605C253.215 66.635 252.795 65.945 252.345 65.345L253.605 64.745C254.04 65.405 254.46 66.14 254.865 66.95L253.965 67.385H256.32C256.77 66.5 257.16 65.57 257.49 64.595L258.81 65.06C258.48 65.93 258.135 66.695 257.745 67.385H259.47V68.66H256.365C256.335 69.41 256.305 70.07 256.245 70.655H259.98V71.975H256.035C255.63 73.85 254.415 75.425 252.405 76.685L251.52 75.575C253.155 74.645 254.19 73.445 254.61 71.975H251.295V70.655ZM256.785 72.74C258.045 73.61 259.185 74.54 260.205 75.56L259.23 76.655C258.18 75.515 257.085 74.525 255.945 73.685L256.785 72.74ZM248.13 64.775C249.03 65.495 249.78 66.2 250.41 66.92L249.48 67.85C248.925 67.175 248.16 66.455 247.17 65.675L248.13 64.775ZM246.795 68.36H250.41V69.47C249.945 70.25 249.405 71.03 248.775 71.795H250.62V72.74C250.395 73.865 250.125 74.795 249.795 75.53L250.11 75.8C250.605 76.25 251.07 76.58 251.505 76.775C251.955 76.955 252.585 77.045 253.41 77.06C254.22 77.075 255.165 77.09 256.215 77.09C257.295 77.09 258.705 77.045 260.43 76.985L260.115 78.32H256.395C255.345 78.32 254.325 78.305 253.35 78.275C252.33 78.245 251.55 78.125 251.025 77.915C250.395 77.66 249.825 77.27 249.315 76.76C249.225 76.64 249.105 76.595 248.97 76.595C248.685 76.595 248.235 77.24 247.605 78.53L246.57 77.585C247.245 76.265 247.89 75.485 248.52 75.275C248.85 74.585 249.105 73.82 249.285 72.995H247.095V71.915C247.785 71.135 248.37 70.37 248.85 69.65H246.795V68.36ZM272.37 69.8V65.825H273.81V71.18H269.235V76.355H273.12V72.38H274.545V78.44H273.12V77.72H263.88V78.44H262.455V72.38H263.88V76.355H267.765V71.18H263.19V65.825H264.63V69.8H267.765V64.685H269.235V69.8H272.37Z" fill="white"/>
<path d="M41.261 125V115.718H42.431V123.96H46.487V125H41.261ZM50.5614 117.915C51.4107 117.915 52.039 118.101 52.4464 118.474C52.8537 118.847 53.0574 119.44 53.0574 120.255V125H52.2254L52.0044 124.012H51.9524C51.753 124.263 51.545 124.476 51.3284 124.649C51.1204 124.814 50.8777 124.935 50.6004 125.013C50.3317 125.091 50.0024 125.13 49.6124 125.13C49.1964 125.13 48.8194 125.056 48.4814 124.909C48.152 124.762 47.892 124.536 47.7014 124.233C47.5107 123.921 47.4154 123.531 47.4154 123.063C47.4154 122.37 47.6884 121.837 48.2344 121.464C48.7804 121.083 49.621 120.875 50.7564 120.84L51.9394 120.801V120.385C51.9394 119.804 51.8137 119.401 51.5624 119.176C51.311 118.951 50.9557 118.838 50.4964 118.838C50.1324 118.838 49.7857 118.894 49.4564 119.007C49.127 119.111 48.8194 119.232 48.5334 119.371L48.1824 118.513C48.4857 118.348 48.8454 118.21 49.2614 118.097C49.6774 117.976 50.1107 117.915 50.5614 117.915ZM50.8994 121.633C50.0327 121.668 49.4304 121.806 49.0924 122.049C48.763 122.292 48.5984 122.634 48.5984 123.076C48.5984 123.466 48.7154 123.752 48.9494 123.934C49.192 124.116 49.4997 124.207 49.8724 124.207C50.4617 124.207 50.9514 124.047 51.3414 123.726C51.7314 123.397 51.9264 122.894 51.9264 122.218V121.594L50.8994 121.633ZM58.4595 117.902C58.5895 117.902 58.7282 117.911 58.8755 117.928C59.0315 117.937 59.1658 117.954 59.2785 117.98L59.1355 119.033C59.0228 119.007 58.8972 118.985 58.7585 118.968C58.6285 118.951 58.5028 118.942 58.3815 118.942C58.1128 118.942 57.8572 118.998 57.6145 119.111C57.3718 119.224 57.1552 119.384 56.9645 119.592C56.7738 119.791 56.6222 120.034 56.5095 120.32C56.4055 120.606 56.3535 120.927 56.3535 121.282V125H55.2095V118.032H56.1455L56.2755 119.306H56.3275C56.4748 119.046 56.6525 118.812 56.8605 118.604C57.0685 118.387 57.3068 118.218 57.5755 118.097C57.8442 117.967 58.1388 117.902 58.4595 117.902ZM62.9227 117.902C63.382 117.902 63.7937 117.989 64.1577 118.162C64.5303 118.335 64.8467 118.6 65.1067 118.955H65.1717L65.3277 118.032H66.2377V125.117C66.2377 125.776 66.125 126.326 65.8997 126.768C65.6743 127.219 65.332 127.557 64.8727 127.782C64.4133 128.007 63.8283 128.12 63.1177 128.12C62.615 128.12 62.1513 128.081 61.7267 128.003C61.3107 127.934 60.938 127.825 60.6087 127.678V126.625C60.834 126.738 61.081 126.833 61.3497 126.911C61.6183 126.998 61.9087 127.063 62.2207 127.106C62.5327 127.149 62.8533 127.171 63.1827 127.171C63.7807 127.171 64.2487 126.993 64.5867 126.638C64.9333 126.291 65.1067 125.815 65.1067 125.208V124.935C65.1067 124.831 65.111 124.684 65.1197 124.493C65.1283 124.294 65.137 124.155 65.1457 124.077H65.0937C64.851 124.432 64.5477 124.697 64.1837 124.87C63.8283 125.043 63.4123 125.13 62.9357 125.13C62.0343 125.13 61.328 124.814 60.8167 124.181C60.314 123.548 60.0627 122.664 60.0627 121.529C60.0627 120.784 60.1753 120.142 60.4007 119.605C60.6347 119.059 60.964 118.639 61.3887 118.344C61.8133 118.049 62.3247 117.902 62.9227 117.902ZM63.0787 118.864C62.6887 118.864 62.355 118.968 62.0777 119.176C61.809 119.384 61.601 119.687 61.4537 120.086C61.315 120.485 61.2457 120.97 61.2457 121.542C61.2457 122.4 61.4017 123.059 61.7137 123.518C62.0343 123.969 62.498 124.194 63.1047 124.194C63.46 124.194 63.7633 124.151 64.0147 124.064C64.266 123.969 64.474 123.826 64.6387 123.635C64.8033 123.436 64.9247 123.184 65.0027 122.881C65.0807 122.578 65.1197 122.218 65.1197 121.802V121.529C65.1197 120.896 65.046 120.385 64.8987 119.995C64.76 119.605 64.539 119.319 64.2357 119.137C63.9323 118.955 63.5467 118.864 63.0787 118.864ZM71.1417 117.902C71.7397 117.902 72.251 118.032 72.6757 118.292C73.109 118.552 73.4384 118.92 73.6637 119.397C73.8977 119.865 74.0147 120.415 74.0147 121.048V121.737H69.2437C69.261 122.526 69.4604 123.128 69.8417 123.544C70.2317 123.951 70.7734 124.155 71.4667 124.155C71.9087 124.155 72.2987 124.116 72.6367 124.038C72.9834 123.951 73.3387 123.83 73.7027 123.674V124.675C73.3474 124.831 72.9964 124.944 72.6497 125.013C72.303 125.091 71.8914 125.13 71.4147 125.13C70.756 125.13 70.171 124.996 69.6597 124.727C69.157 124.458 68.7627 124.06 68.4767 123.531C68.1994 122.994 68.0607 122.339 68.0607 121.568C68.0607 120.805 68.1864 120.151 68.4377 119.605C68.6977 119.059 69.0574 118.639 69.5167 118.344C69.9847 118.049 70.5264 117.902 71.1417 117.902ZM71.1287 118.838C70.5827 118.838 70.1494 119.016 69.8287 119.371C69.5167 119.718 69.3304 120.203 69.2697 120.827H72.8187C72.8187 120.428 72.758 120.082 72.6367 119.787C72.5154 119.492 72.329 119.263 72.0777 119.098C71.835 118.925 71.5187 118.838 71.1287 118.838Z" fill="#161616"/>
<rect width="64" height="40" transform="translate(128 100)" fill="#465BC7"/>
<path d="M145.975 113.405H150.67V114.785H148.735C148.555 115.865 148.3 116.885 147.97 117.845H150.505V120.965C151.9 119.45 152.965 117.59 153.685 115.37H152.335V117.29H151.03V114.125H154.06C154.18 113.615 154.3 113.12 154.405 112.625L155.725 112.865C155.635 113.3 155.53 113.72 155.44 114.125H159.175V117.005H157.87V115.37H155.095C154.825 116.21 154.54 116.975 154.21 117.695H155.56C155.41 117.215 155.23 116.765 155.05 116.315L156.265 115.985C156.505 116.615 156.685 117.185 156.82 117.695H158.935V118.925H156.73V120.035H158.65V121.25H156.73V122.39H158.71V123.605H156.73V124.85H159.325V126.11H153.355V126.575H152.02V121.22C151.765 121.52 151.51 121.805 151.24 122.075L150.505 121.175V125.9H149.245V125.18H148.03V126.05H146.8V120.47C146.59 120.815 146.395 121.145 146.185 121.46L145.435 120.275C146.395 118.655 147.04 116.825 147.37 114.785H145.975V113.405ZM153.355 124.85H155.395V123.605H153.355V124.85ZM155.395 122.39V121.25H153.355V122.39H155.395ZM155.395 120.035V118.925H153.595C153.505 119.075 153.43 119.21 153.355 119.36V120.035H155.395ZM148.03 123.89H149.245V119.135H148.03V123.89ZM169.36 114.47H166.375V113.21H173.605C173.575 116.48 173.38 118.445 173.005 119.105C172.615 119.735 171.955 120.065 170.995 120.065C170.725 120.065 170.425 120.035 170.065 120.005L169.72 118.76C170.11 118.79 170.44 118.82 170.71 118.85C171.34 118.835 171.76 118.595 171.94 118.13C172.09 117.665 172.195 116.45 172.225 114.47H170.755C170.5 115.64 170.125 116.66 169.615 117.56C168.94 118.595 167.95 119.525 166.66 120.35L165.775 119.21C166.705 118.7 167.44 118.13 168.01 117.47C167.41 116.96 166.705 116.495 165.91 116.06L166.675 115.115C167.425 115.535 168.1 115.985 168.685 116.465C168.985 115.865 169.21 115.205 169.36 114.47ZM166.135 121.475L167.32 121.73C167.08 123.41 166.735 124.865 166.285 126.095L165.145 125.375C165.61 124.175 165.94 122.87 166.135 121.475ZM170.455 120.425C170.905 121.145 171.295 121.925 171.625 122.75L170.515 123.245C170.155 122.315 169.75 121.49 169.315 120.785L170.455 120.425ZM173.29 121.07C173.77 122.225 174.19 123.47 174.55 124.79L173.395 125.3C173.005 123.86 172.57 122.57 172.09 121.46L173.29 121.07ZM171.025 126.305H169.03C168.16 126.305 167.725 125.825 167.725 124.895V121.1H169.03V124.61C169.03 124.88 169.165 125.03 169.435 125.03H170.8C170.98 125.03 171.115 124.955 171.205 124.82C171.295 124.64 171.37 124.145 171.415 123.32L172.63 123.71C172.54 124.955 172.36 125.705 172.12 125.96C171.865 126.185 171.505 126.305 171.025 126.305ZM163.135 112.61C163.42 113.3 163.645 113.945 163.81 114.515H165.265V115.805H160.69V114.515H162.445C162.25 113.99 162.025 113.48 161.785 113L163.135 112.61ZM161.215 116.765H164.815V117.98H161.215V116.765ZM161.215 118.865H164.815V120.08H161.215V118.865ZM164.995 121.085V125.615H162.355V126.32H161.065V121.085H164.995ZM162.355 124.43H163.735V122.24H162.355V124.43Z" fill="white"/>
<rect width="92" height="40" transform="translate(200 100)" fill="#465BC7"/>
<path d="M216.975 113.405H221.67V114.785H219.735C219.555 115.865 219.3 116.885 218.97 117.845H221.505V120.965C222.9 119.45 223.965 117.59 224.685 115.37H223.335V117.29H222.03V114.125H225.06C225.18 113.615 225.3 113.12 225.405 112.625L226.725 112.865C226.635 113.3 226.53 113.72 226.44 114.125H230.175V117.005H228.87V115.37H226.095C225.825 116.21 225.54 116.975 225.21 117.695H226.56C226.41 117.215 226.23 116.765 226.05 116.315L227.265 115.985C227.505 116.615 227.685 117.185 227.82 117.695H229.935V118.925H227.73V120.035H229.65V121.25H227.73V122.39H229.71V123.605H227.73V124.85H230.325V126.11H224.355V126.575H223.02V121.22C222.765 121.52 222.51 121.805 222.24 122.075L221.505 121.175V125.9H220.245V125.18H219.03V126.05H217.8V120.47C217.59 120.815 217.395 121.145 217.185 121.46L216.435 120.275C217.395 118.655 218.04 116.825 218.37 114.785H216.975V113.405ZM224.355 124.85H226.395V123.605H224.355V124.85ZM226.395 122.39V121.25H224.355V122.39H226.395ZM226.395 120.035V118.925H224.595C224.505 119.075 224.43 119.21 224.355 119.36V120.035H226.395ZM219.03 123.89H220.245V119.135H219.03V123.89ZM240.36 114.47H237.375V113.21H244.605C244.575 116.48 244.38 118.445 244.005 119.105C243.615 119.735 242.955 120.065 241.995 120.065C241.725 120.065 241.425 120.035 241.065 120.005L240.72 118.76C241.11 118.79 241.44 118.82 241.71 118.85C242.34 118.835 242.76 118.595 242.94 118.13C243.09 117.665 243.195 116.45 243.225 114.47H241.755C241.5 115.64 241.125 116.66 240.615 117.56C239.94 118.595 238.95 119.525 237.66 120.35L236.775 119.21C237.705 118.7 238.44 118.13 239.01 117.47C238.41 116.96 237.705 116.495 236.91 116.06L237.675 115.115C238.425 115.535 239.1 115.985 239.685 116.465C239.985 115.865 240.21 115.205 240.36 114.47ZM237.135 121.475L238.32 121.73C238.08 123.41 237.735 124.865 237.285 126.095L236.145 125.375C236.61 124.175 236.94 122.87 237.135 121.475ZM241.455 120.425C241.905 121.145 242.295 121.925 242.625 122.75L241.515 123.245C241.155 122.315 240.75 121.49 240.315 120.785L241.455 120.425ZM244.29 121.07C244.77 122.225 245.19 123.47 245.55 124.79L244.395 125.3C244.005 123.86 243.57 122.57 243.09 121.46L244.29 121.07ZM242.025 126.305H240.03C239.16 126.305 238.725 125.825 238.725 124.895V121.1H240.03V124.61C240.03 124.88 240.165 125.03 240.435 125.03H241.8C241.98 125.03 242.115 124.955 242.205 124.82C242.295 124.64 242.37 124.145 242.415 123.32L243.63 123.71C243.54 124.955 243.36 125.705 243.12 125.96C242.865 126.185 242.505 126.305 242.025 126.305ZM234.135 112.61C234.42 113.3 234.645 113.945 234.81 114.515H236.265V115.805H231.69V114.515H233.445C233.25 113.99 233.025 113.48 232.785 113L234.135 112.61ZM232.215 116.765H235.815V117.98H232.215V116.765ZM232.215 118.865H235.815V120.08H232.215V118.865ZM235.995 121.085V125.615H233.355V126.32H232.065V121.085H235.995ZM233.355 124.43H234.735V122.24H233.355V124.43ZM251.295 118.655H254.865C254.925 118.055 254.97 117.38 255 116.66H251.805V115.385H253.605C253.215 114.635 252.795 113.945 252.345 113.345L253.605 112.745C254.04 113.405 254.46 114.14 254.865 114.95L253.965 115.385H256.32C256.77 114.5 257.16 113.57 257.49 112.595L258.81 113.06C258.48 113.93 258.135 114.695 257.745 115.385H259.47V116.66H256.365C256.335 117.41 256.305 118.07 256.245 118.655H259.98V119.975H256.035C255.63 121.85 254.415 123.425 252.405 124.685L251.52 123.575C253.155 122.645 254.19 121.445 254.61 119.975H251.295V118.655ZM256.785 120.74C258.045 121.61 259.185 122.54 260.205 123.56L259.23 124.655C258.18 123.515 257.085 122.525 255.945 121.685L256.785 120.74ZM248.13 112.775C249.03 113.495 249.78 114.2 250.41 114.92L249.48 115.85C248.925 115.175 248.16 114.455 247.17 113.675L248.13 112.775ZM246.795 116.36H250.41V117.47C249.945 118.25 249.405 119.03 248.775 119.795H250.62V120.74C250.395 121.865 250.125 122.795 249.795 123.53L250.11 123.8C250.605 124.25 251.07 124.58 251.505 124.775C251.955 124.955 252.585 125.045 253.41 125.06C254.22 125.075 255.165 125.09 256.215 125.09C257.295 125.09 258.705 125.045 260.43 124.985L260.115 126.32H256.395C255.345 126.32 254.325 126.305 253.35 126.275C252.33 126.245 251.55 126.125 251.025 125.915C250.395 125.66 249.825 125.27 249.315 124.76C249.225 124.64 249.105 124.595 248.97 124.595C248.685 124.595 248.235 125.24 247.605 126.53L246.57 125.585C247.245 124.265 247.89 123.485 248.52 123.275C248.85 122.585 249.105 121.82 249.285 120.995H247.095V119.915C247.785 119.135 248.37 118.37 248.85 117.65H246.795V116.36ZM272.37 117.8V113.825H273.81V119.18H269.235V124.355H273.12V120.38H274.545V126.44H273.12V125.72H263.88V126.44H262.455V120.38H263.88V124.355H267.765V119.18H263.19V113.825H264.63V117.8H267.765V112.685H269.235V117.8H272.37Z" fill="white"/>
<mask id="path-13-inside-2_35_4942" fill="white">
<path d="M0 160H780V206C780 207.105 779.105 208 778 208H1.99998C0.895407 208 0 207.105 0 206V160Z"/>
</mask>
<path d="M0 160H780V206C780 207.105 779.105 208 778 208H1.99998C0.895407 208 0 207.105 0 206V160Z" fill="#E7E7E7"/>
<path d="M0 160H780H0ZM781 206C781 207.657 779.657 209 778 209H2C0.343146 209 -1 207.657 -1 206H1C1 206.552 1.44772 207 2 207H778C778.552 207 779 206.552 779 206H781ZM2 209C0.343146 209 -1 207.657 -1 206V160H1V206C1 206.552 1.44772 207 2 207V209ZM781 160V206C781 207.657 779.657 209 778 209V207C778.552 207 779 206.552 779 206V160H781Z" fill="#D9D9D9" mask="url(#path-13-inside-2_35_4942)"/>
<path fill-rule="evenodd" clip-rule="evenodd" d="M36.0005 188L29 180.98L29.9762 180H29.9781L36.0005 186.041L42.0238 180H42.0258L43 180.979V180.981L36.0005 188Z" fill="#4457CA"/>
<path d="M59.575 187.105C59.575 187.745 59.42 188.29 59.11 188.74C58.8 189.19 58.355 189.54 57.775 189.79C57.195 190.03 56.505 190.15 55.705 190.15C55.315 190.15 54.94 190.125 54.58 190.075C54.22 190.035 53.885 189.975 53.575 189.895C53.265 189.815 52.99 189.715 52.75 189.595V188.065C53.15 188.245 53.62 188.41 54.16 188.56C54.7 188.7 55.25 188.77 55.81 188.77C56.29 188.77 56.69 188.705 57.01 188.575C57.33 188.445 57.57 188.265 57.73 188.035C57.89 187.805 57.97 187.535 57.97 187.225C57.97 186.895 57.885 186.62 57.715 186.4C57.555 186.17 57.3 185.96 56.95 185.77C56.61 185.57 56.15 185.36 55.57 185.14C55.17 184.99 54.805 184.825 54.475 184.645C54.155 184.455 53.87 184.235 53.62 183.985C53.38 183.735 53.195 183.445 53.065 183.115C52.935 182.785 52.87 182.4 52.87 181.96C52.87 181.37 53.015 180.865 53.305 180.445C53.605 180.025 54.015 179.705 54.535 179.485C55.055 179.255 55.66 179.14 56.35 179.14C56.93 179.14 57.465 179.2 57.955 179.32C58.455 179.43 58.93 179.585 59.38 179.785L58.87 181.12C58.46 180.95 58.045 180.81 57.625 180.7C57.205 180.59 56.765 180.535 56.305 180.535C55.905 180.535 55.57 180.595 55.3 180.715C55.03 180.835 54.825 181 54.685 181.21C54.555 181.42 54.49 181.665 54.49 181.945C54.49 182.275 54.565 182.55 54.715 182.77C54.865 182.99 55.105 183.195 55.435 183.385C55.765 183.565 56.2 183.765 56.74 183.985C57.34 184.215 57.85 184.465 58.27 184.735C58.7 185.005 59.025 185.33 59.245 185.71C59.465 186.08 59.575 186.545 59.575 187.105ZM63.0821 181.645C63.0821 181.895 63.0721 182.145 63.0521 182.395C63.0321 182.645 63.0121 182.85 62.9921 183.01H63.0971C63.2671 182.73 63.4771 182.5 63.7271 182.32C63.9871 182.14 64.2721 182.005 64.5821 181.915C64.9021 181.825 65.2271 181.78 65.5571 181.78C66.1971 181.78 66.7321 181.885 67.1621 182.095C67.6021 182.295 67.9321 182.615 68.1521 183.055C68.3821 183.485 68.4971 184.045 68.4971 184.735V190H66.9221V184.96C66.9221 184.33 66.7871 183.86 66.5171 183.55C66.2571 183.23 65.8371 183.07 65.2571 183.07C64.7071 183.07 64.2721 183.18 63.9521 183.4C63.6421 183.62 63.4171 183.945 63.2771 184.375C63.1471 184.795 63.0821 185.315 63.0821 185.935V190H61.4921V178.6H63.0821V181.645ZM78.0653 185.95C78.0653 186.62 77.9753 187.215 77.7953 187.735C77.6153 188.255 77.3603 188.695 77.0303 189.055C76.7003 189.415 76.3003 189.69 75.8303 189.88C75.3603 190.06 74.8303 190.15 74.2403 190.15C73.7003 190.15 73.2003 190.06 72.7403 189.88C72.2803 189.69 71.8803 189.415 71.5403 189.055C71.2103 188.695 70.9503 188.255 70.7603 187.735C70.5703 187.215 70.4753 186.615 70.4753 185.935C70.4753 185.045 70.6253 184.29 70.9253 183.67C71.2353 183.05 71.6753 182.58 72.2453 182.26C72.8253 181.93 73.5053 181.765 74.2853 181.765C75.0253 181.765 75.6753 181.93 76.2353 182.26C76.8053 182.58 77.2503 183.05 77.5703 183.67C77.9003 184.29 78.0653 185.05 78.0653 185.95ZM72.1103 185.95C72.1103 186.55 72.1853 187.07 72.3353 187.51C72.4853 187.94 72.7203 188.27 73.0403 188.5C73.3603 188.73 73.7703 188.845 74.2703 188.845C74.7703 188.845 75.1803 188.73 75.5003 188.5C75.8203 188.27 76.0553 187.94 76.2053 187.51C76.3553 187.07 76.4303 186.55 76.4303 185.95C76.4303 185.33 76.3503 184.81 76.1903 184.39C76.0403 183.97 75.8053 183.65 75.4853 183.43C75.1753 183.2 74.7653 183.085 74.2553 183.085C73.5053 183.085 72.9603 183.335 72.6203 183.835C72.2803 184.335 72.1103 185.04 72.1103 185.95ZM85.248 185.95C85.198 185.75 85.138 185.53 85.068 185.29C85.008 185.05 84.948 184.81 84.888 184.57C84.828 184.32 84.773 184.09 84.723 183.88C84.673 183.67 84.633 183.505 84.603 183.385H84.543C84.523 183.505 84.488 183.67 84.438 183.88C84.398 184.09 84.348 184.32 84.288 184.57C84.228 184.81 84.168 185.055 84.108 185.305C84.048 185.545 83.983 185.765 83.913 185.965L82.713 189.985H80.943L78.708 181.9H80.328L81.378 185.995C81.458 186.275 81.528 186.57 81.588 186.88C81.658 187.19 81.718 187.49 81.768 187.78C81.828 188.06 81.868 188.295 81.888 188.485H81.948C81.968 188.355 81.998 188.195 82.038 188.005C82.078 187.805 82.118 187.6 82.158 187.39C82.208 187.17 82.253 186.96 82.293 186.76C82.343 186.56 82.393 186.395 82.443 186.265L83.733 181.9H85.473L86.733 186.265C86.793 186.465 86.858 186.705 86.928 186.985C86.998 187.255 87.058 187.525 87.108 187.795C87.168 188.055 87.208 188.28 87.228 188.47H87.288C87.308 188.3 87.343 188.08 87.393 187.81C87.443 187.53 87.503 187.23 87.573 186.91C87.653 186.59 87.728 186.285 87.798 185.995L88.878 181.9H90.483L88.218 189.985H86.403L85.248 185.95ZM100.539 180.535C100.009 180.535 99.5341 180.63 99.1141 180.82C98.6941 181 98.3341 181.27 98.0341 181.63C97.7441 181.99 97.5191 182.425 97.3591 182.935C97.2091 183.445 97.1341 184.02 97.1341 184.66C97.1341 185.5 97.2591 186.23 97.5091 186.85C97.7591 187.46 98.1341 187.93 98.6341 188.26C99.1341 188.59 99.7641 188.755 100.524 188.755C100.984 188.755 101.424 188.715 101.844 188.635C102.274 188.545 102.709 188.43 103.149 188.29V189.685C102.729 189.845 102.299 189.96 101.859 190.03C101.419 190.11 100.909 190.15 100.329 190.15C99.2391 190.15 98.3291 189.925 97.5991 189.475C96.8791 189.025 96.3391 188.385 95.9791 187.555C95.6191 186.725 95.4391 185.755 95.4391 184.645C95.4391 183.835 95.5491 183.095 95.7691 182.425C95.9991 181.745 96.3291 181.16 96.7591 180.67C97.1891 180.18 97.7191 179.805 98.3491 179.545C98.9891 179.275 99.7241 179.14 100.554 179.14C101.094 179.14 101.624 179.2 102.144 179.32C102.664 179.43 103.134 179.59 103.554 179.8L102.954 181.15C102.604 180.99 102.224 180.85 101.814 180.73C101.414 180.6 100.989 180.535 100.539 180.535ZM112.401 185.95C112.401 186.62 112.311 187.215 112.131 187.735C111.951 188.255 111.696 188.695 111.366 189.055C111.036 189.415 110.636 189.69 110.166 189.88C109.696 190.06 109.166 190.15 108.576 190.15C108.036 190.15 107.536 190.06 107.076 189.88C106.616 189.69 106.216 189.415 105.876 189.055C105.546 188.695 105.286 188.255 105.096 187.735C104.906 187.215 104.811 186.615 104.811 185.935C104.811 185.045 104.961 184.29 105.261 183.67C105.571 183.05 106.011 182.58 106.581 182.26C107.161 181.93 107.841 181.765 108.621 181.765C109.361 181.765 110.011 181.93 110.571 182.26C111.141 182.58 111.586 183.05 111.906 183.67C112.236 184.29 112.401 185.05 112.401 185.95ZM106.446 185.95C106.446 186.55 106.521 187.07 106.671 187.51C106.821 187.94 107.056 188.27 107.376 188.5C107.696 188.73 108.106 188.845 108.606 188.845C109.106 188.845 109.516 188.73 109.836 188.5C110.156 188.27 110.391 187.94 110.541 187.51C110.691 187.07 110.766 186.55 110.766 185.95C110.766 185.33 110.686 184.81 110.526 184.39C110.376 183.97 110.141 183.65 109.821 183.43C109.511 183.2 109.101 183.085 108.591 183.085C107.841 183.085 107.296 183.335 106.956 183.835C106.616 184.335 106.446 185.04 106.446 185.95ZM117.192 190.15C116.222 190.15 115.437 189.8 114.837 189.1C114.247 188.4 113.952 187.36 113.952 185.98C113.952 184.59 114.252 183.54 114.852 182.83C115.452 182.12 116.242 181.765 117.222 181.765C117.632 181.765 117.987 181.82 118.287 181.93C118.597 182.03 118.862 182.17 119.082 182.35C119.312 182.53 119.507 182.73 119.667 182.95H119.757C119.737 182.81 119.712 182.61 119.682 182.35C119.652 182.08 119.637 181.84 119.637 181.63V178.6H121.227V190H119.982L119.712 188.92H119.637C119.487 189.15 119.297 189.36 119.067 189.55C118.847 189.73 118.582 189.875 118.272 189.985C117.962 190.095 117.602 190.15 117.192 190.15ZM117.567 188.845C118.347 188.845 118.897 188.63 119.217 188.2C119.537 187.76 119.697 187.105 119.697 186.235V185.995C119.697 185.045 119.542 184.32 119.232 183.82C118.932 183.32 118.372 183.07 117.552 183.07C116.902 183.07 116.412 183.335 116.082 183.865C115.752 184.385 115.587 185.1 115.587 186.01C115.587 186.92 115.752 187.62 116.082 188.11C116.412 188.6 116.907 188.845 117.567 188.845ZM126.899 181.765C127.609 181.765 128.219 181.915 128.729 182.215C129.239 182.505 129.629 182.925 129.899 183.475C130.179 184.025 130.319 184.675 130.319 185.425V186.295H124.889C124.909 187.125 125.124 187.76 125.534 188.2C125.954 188.64 126.539 188.86 127.289 188.86C127.809 188.86 128.269 188.815 128.669 188.725C129.079 188.625 129.499 188.48 129.929 188.29V189.61C129.529 189.79 129.119 189.925 128.699 190.015C128.289 190.105 127.799 190.15 127.229 190.15C126.449 190.15 125.759 189.995 125.159 189.685C124.559 189.375 124.089 188.915 123.749 188.305C123.419 187.685 123.254 186.925 123.254 186.025C123.254 185.115 123.404 184.345 123.704 183.715C124.014 183.085 124.439 182.605 124.979 182.275C125.529 181.935 126.169 181.765 126.899 181.765ZM126.899 182.995C126.329 182.995 125.869 183.18 125.519 183.55C125.179 183.92 124.979 184.445 124.919 185.125H128.729C128.729 184.705 128.664 184.335 128.534 184.015C128.404 183.695 128.204 183.445 127.934 183.265C127.664 183.085 127.319 182.995 126.899 182.995Z" fill="#465BC7"/>
<path fill-rule="evenodd" clip-rule="evenodd" d="M700.2 184C700.2 179.546 703.97 176 708.539 176C709.46 176 710.343 176.151 711.168 176.413L711.296 177.816C709.717 178.659 708.675 180.254 708.675 182.056C708.675 184.704 710.934 186.917 713.804 186.917C714.205 186.917 714.599 186.869 714.98 186.783L715.8 187.917C714.368 190.362 711.645 192 708.535 192C703.97 192 700.2 188.454 700.2 184ZM708.539 177.528C704.735 177.528 701.72 180.463 701.72 184C701.72 187.537 704.735 190.472 708.535 190.472C710.496 190.472 712.254 189.686 713.492 188.438C709.998 188.282 707.155 185.518 707.155 182.056C707.155 180.29 707.901 178.701 709.093 177.55C708.91 177.536 708.726 177.528 708.539 177.528Z" fill="#4457CA"/>
<path d="M756 188.418H753.851V192H740V178.149H743.582V176H756V188.418ZM741.433 179.582V190.567H752.418V188.418H743.582V179.582H741.433ZM745.082 186.918H754.5V177.5H745.082V186.918Z" fill="#4457CA"/>
</svg>
