<svg width="780" height="232" viewBox="0 0 780 232" fill="none" xmlns="http://www.w3.org/2000/svg">
<mask id="path-2-inside-1_35_5016" fill="white">
<path d="M0 2C0 0.89543 0.895431 0 2 0H778C779.105 0 780 0.895431 780 2V184H0V2Z"/>
</mask>
<path d="M0 2C0 0.89543 0.895431 0 2 0H778C779.105 0 780 0.895431 780 2V184H0V2Z" fill="white"/>
<path d="M-1 2C-1 0.343146 0.343146 -1 2 -1H778C779.657 -1 781 0.343146 781 2H779C779 1.44772 778.552 1 778 1H2C1.44772 1 1 1.44772 1 2H-1ZM780 184H0H780ZM-1 184V2C-1 0.343146 0.343146 -1 2 -1V1C1.44772 1 1 1.44772 1 2V184H-1ZM778 -1C779.657 -1 781 0.343146 781 2V184H779V2C779 1.44772 778.552 1 778 1V-1Z" fill="#D9D9D9" mask="url(#path-2-inside-1_35_5016)"/>
<path d="M43.718 35.718C44.9313 35.718 45.8153 35.9563 46.37 36.433C46.9247 36.9097 47.202 37.5813 47.202 38.448C47.202 38.8293 47.137 39.1977 47.007 39.553C46.8857 39.8997 46.682 40.2117 46.396 40.489C46.11 40.7663 45.7287 40.9873 45.252 41.152C44.7753 41.308 44.1903 41.386 43.497 41.386H42.431V45H41.261V35.718H43.718ZM43.614 36.719H42.431V40.385H43.367C43.9563 40.385 44.446 40.3243 44.836 40.203C45.226 40.073 45.5163 39.8693 45.707 39.592C45.8977 39.3147 45.993 38.9507 45.993 38.5C45.993 37.902 45.8023 37.4557 45.421 37.161C45.0397 36.8663 44.4373 36.719 43.614 36.719ZM52.2261 37.902C52.3561 37.902 52.4948 37.9107 52.6421 37.928C52.7981 37.9367 52.9324 37.954 53.0451 37.98L52.9021 39.033C52.7894 39.007 52.6638 38.9853 52.5251 38.968C52.3951 38.9507 52.2694 38.942 52.1481 38.942C51.8794 38.942 51.6238 38.9983 51.3811 39.111C51.1384 39.2237 50.9218 39.384 50.7311 39.592C50.5404 39.7913 50.3888 40.034 50.2761 40.32C50.1721 40.606 50.1201 40.9267 50.1201 41.282V45H48.9761V38.032H49.9121L50.0421 39.306H50.0941C50.2414 39.046 50.4191 38.812 50.6271 38.604C50.8351 38.3873 51.0734 38.2183 51.3421 38.097C51.6108 37.967 51.9054 37.902 52.2261 37.902ZM55.4902 38.032V45H54.3462V38.032H55.4902ZM54.9312 35.419C55.1045 35.419 55.2562 35.4797 55.3862 35.601C55.5249 35.7137 55.5942 35.8957 55.5942 36.147C55.5942 36.3897 55.5249 36.5717 55.3862 36.693C55.2562 36.8143 55.1045 36.875 54.9312 36.875C54.7405 36.875 54.5802 36.8143 54.4502 36.693C54.3202 36.5717 54.2552 36.3897 54.2552 36.147C54.2552 35.8957 54.3202 35.7137 54.4502 35.601C54.5802 35.4797 54.7405 35.419 54.9312 35.419ZM65.3418 37.902C66.1304 37.902 66.7198 38.1057 67.1098 38.513C67.4998 38.9117 67.6948 39.5617 67.6948 40.463V45H66.5638V40.515C66.5638 39.969 66.4468 39.5573 66.2128 39.28C65.9874 39.0027 65.6321 38.864 65.1468 38.864C64.4708 38.864 63.9854 39.059 63.6908 39.449C63.4048 39.839 63.2618 40.4067 63.2618 41.152V45H62.1308V40.515C62.1308 40.151 62.0788 39.8477 61.9748 39.605C61.8708 39.3537 61.7148 39.1673 61.5068 39.046C61.2988 38.9247 61.0301 38.864 60.7008 38.864C60.2328 38.864 59.8644 38.9637 59.5958 39.163C59.3271 39.3537 59.1321 39.6353 59.0108 40.008C58.8981 40.3807 58.8418 40.84 58.8418 41.386V45H57.6978V38.032H58.6208L58.7898 38.981H58.8548C59.0021 38.7383 59.1798 38.539 59.3878 38.383C59.6044 38.2183 59.8428 38.097 60.1028 38.019C60.3628 37.941 60.6314 37.902 60.9088 37.902C61.4461 37.902 61.8924 37.9973 62.2478 38.188C62.6118 38.3787 62.8761 38.6733 63.0408 39.072H63.1058C63.3398 38.6733 63.6561 38.3787 64.0548 38.188C64.4621 37.9973 64.8911 37.902 65.3418 37.902ZM72.4862 37.915C73.3355 37.915 73.9639 38.1013 74.3712 38.474C74.7785 38.8467 74.9822 39.4403 74.9822 40.255V45H74.1502L73.9292 44.012H73.8772C73.6779 44.2633 73.4699 44.4757 73.2532 44.649C73.0452 44.8137 72.8025 44.935 72.5252 45.013C72.2565 45.091 71.9272 45.13 71.5372 45.13C71.1212 45.13 70.7442 45.0563 70.4062 44.909C70.0769 44.7617 69.8169 44.5363 69.6262 44.233C69.4355 43.921 69.3402 43.531 69.3402 43.063C69.3402 42.3697 69.6132 41.8367 70.1592 41.464C70.7052 41.0827 71.5459 40.8747 72.6812 40.84L73.8642 40.801V40.385C73.8642 39.8043 73.7385 39.4013 73.4872 39.176C73.2359 38.9507 72.8805 38.838 72.4212 38.838C72.0572 38.838 71.7105 38.8943 71.3812 39.007C71.0519 39.111 70.7442 39.2323 70.4582 39.371L70.1072 38.513C70.4105 38.3483 70.7702 38.2097 71.1862 38.097C71.6022 37.9757 72.0355 37.915 72.4862 37.915ZM72.8242 41.633C71.9575 41.6677 71.3552 41.8063 71.0172 42.049C70.6879 42.2917 70.5232 42.634 70.5232 43.076C70.5232 43.466 70.6402 43.752 70.8742 43.934C71.1169 44.116 71.4245 44.207 71.7972 44.207C72.3865 44.207 72.8762 44.0467 73.2662 43.726C73.6562 43.3967 73.8512 42.894 73.8512 42.218V41.594L72.8242 41.633ZM80.3843 37.902C80.5143 37.902 80.653 37.9107 80.8003 37.928C80.9563 37.9367 81.0906 37.954 81.2033 37.98L81.0603 39.033C80.9476 39.007 80.822 38.9853 80.6833 38.968C80.5533 38.9507 80.4276 38.942 80.3063 38.942C80.0376 38.942 79.782 38.9983 79.5393 39.111C79.2966 39.2237 79.08 39.384 78.8893 39.592C78.6986 39.7913 78.547 40.034 78.4343 40.32C78.3303 40.606 78.2783 40.9267 78.2783 41.282V45H77.1343V38.032H78.0703L78.2003 39.306H78.2523C78.3996 39.046 78.5773 38.812 78.7853 38.604C78.9933 38.3873 79.2316 38.2183 79.5003 38.097C79.769 37.967 80.0636 37.902 80.3843 37.902ZM81.4124 38.032H82.6344L84.1424 41.997C84.2291 42.231 84.3071 42.4563 84.3764 42.673C84.4544 42.8897 84.5237 43.102 84.5844 43.31C84.6451 43.5093 84.6927 43.7043 84.7274 43.895H84.7794C84.8314 43.6783 84.9137 43.3967 85.0264 43.05C85.1391 42.6947 85.2561 42.3393 85.3774 41.984L86.7944 38.032H88.0294L85.0264 45.962C84.8617 46.3953 84.6667 46.7723 84.4414 47.093C84.2247 47.4223 83.9561 47.6737 83.6354 47.847C83.3234 48.029 82.9421 48.12 82.4914 48.12C82.2834 48.12 82.1014 48.107 81.9454 48.081C81.7894 48.0637 81.6551 48.042 81.5424 48.016V47.106C81.6377 47.1233 81.7504 47.1407 81.8804 47.158C82.0191 47.1753 82.1621 47.184 82.3094 47.184C82.5781 47.184 82.8077 47.132 82.9984 47.028C83.1977 46.9327 83.3667 46.7897 83.5054 46.599C83.6441 46.417 83.7611 46.2003 83.8564 45.949L84.2204 45.026L81.4124 38.032Z" fill="#161616"/>
<rect width="64" height="40" transform="translate(128 20)" fill="#465BC7"/>
<path d="M158.95 34.29V37.41H157.585V35.595H152.155V37.47H150.805V34.29H154.09C153.91 33.75 153.715 33.24 153.49 32.79L154.945 32.55C155.14 33.075 155.335 33.66 155.515 34.29H158.95ZM153.46 36.36L154.87 36.48C154.675 37.26 154.48 37.98 154.285 38.625H159.385V39.99H157.69C157.45 41.385 156.97 42.555 156.25 43.515C157.57 44.235 158.635 44.895 159.46 45.465L158.5 46.59C157.66 45.96 156.595 45.27 155.32 44.52C154.27 45.405 152.62 46.11 150.4 46.65L149.83 45.3C151.6 44.91 152.98 44.385 153.955 43.725C153.13 43.245 152.26 42.765 151.33 42.27C151.705 41.55 152.05 40.785 152.365 39.99H150.49V38.625H152.845C153.07 37.89 153.28 37.14 153.46 36.36ZM156.325 39.99H153.82C153.55 40.695 153.28 41.31 153.01 41.82C153.715 42.165 154.375 42.495 154.99 42.825C155.635 42.075 156.085 41.13 156.325 39.99ZM147.4 46.41H146.125L145.81 45.03C146.185 45.075 146.545 45.105 146.905 45.105C147.235 45.105 147.4 44.925 147.4 44.58V41.4C146.86 41.595 146.335 41.775 145.81 41.94L145.45 40.515C146.11 40.365 146.755 40.185 147.4 39.96V36.825H145.765V35.46H147.4V32.745H148.84V35.46H150.13V36.825H148.84V39.375C149.26 39.18 149.665 38.97 150.085 38.76V40.2C149.665 40.41 149.245 40.62 148.84 40.8V44.94C148.84 45.915 148.36 46.41 147.4 46.41ZM162.94 37.485H161.755V36.93L161.305 37.47L160.54 36.405C161.455 35.385 162.295 34.17 163.06 32.76H164.02C164.935 33.72 165.805 34.725 166.645 35.745L165.73 36.72L165.52 36.435V37.485H164.32V38.835H166.135V40.17H164.32V44.25C164.95 44.115 165.58 43.965 166.195 43.8V45.165C164.62 45.585 162.925 45.96 161.125 46.26L160.78 44.835C161.515 44.745 162.235 44.64 162.94 44.52V40.17H161.11V38.835H162.94V37.485ZM162.1 40.695C162.295 41.565 162.46 42.555 162.61 43.665L161.53 43.935C161.38 42.93 161.2 41.97 160.99 41.055L162.1 40.695ZM165.145 40.65L166.24 40.95C166.075 41.94 165.865 42.825 165.625 43.605L164.59 43.215C164.8 42.54 164.98 41.685 165.145 40.65ZM162.325 36.21H165.355C164.695 35.31 164.125 34.62 163.66 34.125C163.255 34.845 162.805 35.55 162.325 36.21ZM172.09 34.59H169.885L169.585 38.73H171.805L172.09 34.59ZM168.25 38.73L168.55 34.59H166.96V33.24H173.5L173.155 38.73H174.37V40.05H173.065L172.765 44.79H174.205V46.125H166.555V44.79H167.815L168.16 40.05H166.45V38.73H168.25ZM169.135 44.79H171.4L171.715 40.05H169.495L169.135 44.79Z" fill="white"/>
<path d="M46.526 94.517C46.526 95.0717 46.3917 95.544 46.123 95.934C45.8543 96.3153 45.4687 96.61 44.966 96.818C44.472 97.026 43.887 97.13 43.211 97.13C42.8643 97.13 42.5307 97.1127 42.21 97.078C41.898 97.0433 41.612 96.9957 41.352 96.935C41.092 96.8657 40.8623 96.7833 40.663 96.688V95.57C40.975 95.7087 41.3607 95.8343 41.82 95.947C42.288 96.0597 42.769 96.116 43.263 96.116C43.7223 96.116 44.108 96.0553 44.42 95.934C44.732 95.8127 44.966 95.6393 45.122 95.414C45.278 95.1887 45.356 94.9243 45.356 94.621C45.356 94.3177 45.291 94.062 45.161 93.854C45.031 93.646 44.8057 93.4553 44.485 93.282C44.173 93.1 43.7353 92.9093 43.172 92.71C42.7733 92.5627 42.4223 92.4067 42.119 92.242C41.8243 92.0687 41.5773 91.8737 41.378 91.657C41.1787 91.4403 41.027 91.1933 40.923 90.916C40.8277 90.6387 40.78 90.318 40.78 89.954C40.78 89.46 40.9057 89.0397 41.157 88.693C41.4083 88.3377 41.755 88.0647 42.197 87.874C42.6477 87.6833 43.1633 87.588 43.744 87.588C44.2553 87.588 44.7233 87.6357 45.148 87.731C45.5727 87.8263 45.9583 87.952 46.305 88.108L45.941 89.109C45.6203 88.9703 45.2693 88.8533 44.888 88.758C44.5153 88.6627 44.1253 88.615 43.718 88.615C43.328 88.615 43.003 88.6713 42.743 88.784C42.483 88.8967 42.288 89.057 42.158 89.265C42.028 89.4643 41.963 89.6983 41.963 89.967C41.963 90.279 42.028 90.539 42.158 90.747C42.288 90.955 42.5003 91.1413 42.795 91.306C43.0897 91.4707 43.4883 91.6483 43.991 91.839C44.537 92.0383 44.9963 92.255 45.369 92.489C45.7503 92.7143 46.0363 92.9873 46.227 93.308C46.4263 93.6287 46.526 94.0317 46.526 94.517ZM50.9308 89.902C51.5288 89.902 52.0401 90.032 52.4648 90.292C52.8981 90.552 53.2274 90.9203 53.4528 91.397C53.6868 91.865 53.8038 92.4153 53.8038 93.048V93.737H49.0328C49.0501 94.5257 49.2494 95.128 49.6308 95.544C50.0208 95.9513 50.5624 96.155 51.2558 96.155C51.6978 96.155 52.0878 96.116 52.4258 96.038C52.7724 95.9513 53.1278 95.83 53.4918 95.674V96.675C53.1364 96.831 52.7854 96.9437 52.4388 97.013C52.0921 97.091 51.6804 97.13 51.2038 97.13C50.5451 97.13 49.9601 96.9957 49.4488 96.727C48.9461 96.4583 48.5518 96.0597 48.2658 95.531C47.9884 94.9937 47.8498 94.3393 47.8498 93.568C47.8498 92.8053 47.9754 92.151 48.2268 91.605C48.4868 91.059 48.8464 90.6387 49.3058 90.344C49.7738 90.0493 50.3154 89.902 50.9308 89.902ZM50.9178 90.838C50.3718 90.838 49.9384 91.0157 49.6178 91.371C49.3058 91.7177 49.1194 92.203 49.0588 92.827H52.6078C52.6078 92.4283 52.5471 92.0817 52.4258 91.787C52.3044 91.4923 52.1181 91.2627 51.8668 91.098C51.6241 90.9247 51.3078 90.838 50.9178 90.838ZM58.3727 97.13C57.7573 97.13 57.207 97.0043 56.7217 96.753C56.245 96.5017 55.868 96.1117 55.5907 95.583C55.322 95.0543 55.1877 94.3783 55.1877 93.555C55.1877 92.697 55.3307 91.9993 55.6167 91.462C55.9027 90.9247 56.2883 90.5303 56.7737 90.279C57.2677 90.0277 57.8267 89.902 58.4507 89.902C58.806 89.902 59.1483 89.941 59.4777 90.019C59.807 90.0883 60.0757 90.175 60.2837 90.279L59.9327 91.228C59.7247 91.15 59.482 91.0763 59.2047 91.007C58.9273 90.9377 58.6673 90.903 58.4247 90.903C57.9567 90.903 57.571 91.0027 57.2677 91.202C56.9643 91.4013 56.739 91.696 56.5917 92.086C56.4443 92.476 56.3707 92.9613 56.3707 93.542C56.3707 94.0967 56.4443 94.569 56.5917 94.959C56.739 95.349 56.96 95.6437 57.2547 95.843C57.5493 96.0423 57.9177 96.142 58.3597 96.142C58.741 96.142 59.0747 96.103 59.3607 96.025C59.6553 95.947 59.924 95.8517 60.1667 95.739V96.753C59.9327 96.8743 59.6727 96.9653 59.3867 97.026C59.1093 97.0953 58.7713 97.13 58.3727 97.13ZM67.8817 93.503C67.8817 94.0837 67.8038 94.5993 67.6478 95.05C67.5004 95.492 67.2838 95.869 66.9978 96.181C66.7204 96.493 66.3781 96.7313 65.9708 96.896C65.5721 97.052 65.1258 97.13 64.6318 97.13C64.1724 97.13 63.7478 97.052 63.3578 96.896C62.9678 96.7313 62.6298 96.493 62.3438 96.181C62.0578 95.869 61.8324 95.492 61.6678 95.05C61.5118 94.5993 61.4338 94.0837 61.4338 93.503C61.4338 92.7317 61.5638 92.0817 61.8238 91.553C62.0838 91.0157 62.4564 90.6083 62.9418 90.331C63.4271 90.045 64.0034 89.902 64.6708 89.902C65.3034 89.902 65.8581 90.045 66.3348 90.331C66.8201 90.6083 67.1971 91.0157 67.4658 91.553C67.7431 92.0817 67.8817 92.7317 67.8817 93.503ZM62.6168 93.503C62.6168 94.049 62.6861 94.5257 62.8248 94.933C62.9721 95.3317 63.1974 95.6393 63.5008 95.856C63.8041 96.0727 64.1898 96.181 64.6578 96.181C65.1258 96.181 65.5114 96.0727 65.8148 95.856C66.1181 95.6393 66.3391 95.3317 66.4778 94.933C66.6251 94.5257 66.6988 94.049 66.6988 93.503C66.6988 92.9483 66.6251 92.476 66.4778 92.086C66.3304 91.696 66.1051 91.397 65.8018 91.189C65.5071 90.9723 65.1214 90.864 64.6448 90.864C63.9341 90.864 63.4184 91.098 63.0978 91.566C62.7771 92.034 62.6168 92.6797 62.6168 93.503ZM73.0488 89.902C73.8808 89.902 74.5092 90.1057 74.9338 90.513C75.3585 90.9117 75.5708 91.5617 75.5708 92.463V97H74.4398V92.541C74.4398 91.9777 74.3142 91.5573 74.0628 91.28C73.8115 91.0027 73.4172 90.864 72.8798 90.864C72.1085 90.864 71.5755 91.0807 71.2808 91.514C70.9862 91.9473 70.8388 92.5713 70.8388 93.386V97H69.6948V90.032H70.6178L70.7868 90.981H70.8518C71.0078 90.7383 71.1985 90.539 71.4238 90.383C71.6578 90.2183 71.9135 90.097 72.1908 90.019C72.4682 89.941 72.7542 89.902 73.0488 89.902ZM80.201 97.13C79.3343 97.13 78.641 96.831 78.121 96.233C77.601 95.6263 77.341 94.725 77.341 93.529C77.341 92.333 77.601 91.4317 78.121 90.825C78.6496 90.2097 79.3473 89.902 80.214 89.902C80.578 89.902 80.8943 89.9497 81.163 90.045C81.4316 90.1317 81.6656 90.253 81.865 90.409C82.0643 90.565 82.2333 90.7383 82.372 90.929H82.45C82.4413 90.8163 82.424 90.6517 82.398 90.435C82.3806 90.2097 82.372 90.032 82.372 89.902V87.12H83.516V97H82.593L82.424 96.064H82.372C82.2333 96.2633 82.0643 96.4453 81.865 96.61C81.6656 96.766 81.4273 96.8917 81.15 96.987C80.8813 97.0823 80.565 97.13 80.201 97.13ZM80.383 96.181C81.1196 96.181 81.6353 95.9817 81.93 95.583C82.2333 95.1757 82.385 94.5647 82.385 93.75V93.542C82.385 92.6753 82.242 92.0123 81.956 91.553C81.67 91.085 81.1413 90.851 80.37 90.851C79.7546 90.851 79.291 91.098 78.979 91.592C78.6756 92.0773 78.524 92.7317 78.524 93.555C78.524 94.387 78.6756 95.0327 78.979 95.492C79.291 95.9513 79.759 96.181 80.383 96.181ZM88.368 89.915C89.2174 89.915 89.8457 90.1013 90.253 90.474C90.6604 90.8467 90.864 91.4403 90.864 92.255V97H90.032L89.811 96.012H89.759C89.5597 96.2633 89.3517 96.4757 89.135 96.649C88.927 96.8137 88.6844 96.935 88.407 97.013C88.1384 97.091 87.809 97.13 87.419 97.13C87.003 97.13 86.626 97.0563 86.288 96.909C85.9587 96.7617 85.6987 96.5363 85.508 96.233C85.3174 95.921 85.222 95.531 85.222 95.063C85.222 94.3697 85.495 93.8367 86.041 93.464C86.587 93.0827 87.4277 92.8747 88.563 92.84L89.746 92.801V92.385C89.746 91.8043 89.6204 91.4013 89.369 91.176C89.1177 90.9507 88.7624 90.838 88.303 90.838C87.939 90.838 87.5924 90.8943 87.263 91.007C86.9337 91.111 86.626 91.2323 86.34 91.371L85.989 90.513C86.2924 90.3483 86.652 90.2097 87.068 90.097C87.484 89.9757 87.9174 89.915 88.368 89.915ZM88.706 93.633C87.8394 93.6677 87.237 93.8063 86.899 94.049C86.5697 94.2917 86.405 94.634 86.405 95.076C86.405 95.466 86.522 95.752 86.756 95.934C86.9987 96.116 87.3064 96.207 87.679 96.207C88.2684 96.207 88.758 96.0467 89.148 95.726C89.538 95.3967 89.733 94.894 89.733 94.218V93.594L88.706 93.633ZM96.2661 89.902C96.3961 89.902 96.5348 89.9107 96.6821 89.928C96.8381 89.9367 96.9725 89.954 97.0851 89.98L96.9421 91.033C96.8295 91.007 96.7038 90.9853 96.5651 90.968C96.4351 90.9507 96.3095 90.942 96.1881 90.942C95.9195 90.942 95.6638 90.9983 95.4211 91.111C95.1785 91.2237 94.9618 91.384 94.7711 91.592C94.5805 91.7913 94.4288 92.034 94.3161 92.32C94.2121 92.606 94.1601 92.9267 94.1601 93.282V97H93.0161V90.032H93.9521L94.0821 91.306H94.1341C94.2815 91.046 94.4591 90.812 94.6671 90.604C94.8751 90.3873 95.1135 90.2183 95.3821 90.097C95.6508 89.967 95.9455 89.902 96.2661 89.902ZM97.2943 90.032H98.5163L100.024 93.997C100.111 94.231 100.189 94.4563 100.258 94.673C100.336 94.8897 100.406 95.102 100.466 95.31C100.527 95.5093 100.575 95.7043 100.609 95.895H100.661C100.713 95.6783 100.796 95.3967 100.908 95.05C101.021 94.6947 101.138 94.3393 101.259 93.984L102.676 90.032H103.911L100.908 97.962C100.744 98.3953 100.549 98.7723 100.323 99.093C100.107 99.4223 99.8379 99.6737 99.5173 99.847C99.2053 100.029 98.8239 100.12 98.3733 100.12C98.1653 100.12 97.9833 100.107 97.8273 100.081C97.6713 100.064 97.5369 100.042 97.4243 100.016V99.106C97.5196 99.1233 97.6323 99.1407 97.7623 99.158C97.9009 99.1753 98.0439 99.184 98.1913 99.184C98.4599 99.184 98.6896 99.132 98.8803 99.028C99.0796 98.9327 99.2486 98.7897 99.3873 98.599C99.5259 98.417 99.6429 98.2003 99.7383 97.949L100.102 97.026L97.2943 90.032Z" fill="#161616"/>
<path d="M191.5 72.5V111.5H128.5V72.5H191.5Z" stroke="#465BC7"/>
<path d="M158.95 86.29V89.41H157.585V87.595H152.155V89.47H150.805V86.29H154.09C153.91 85.75 153.715 85.24 153.49 84.79L154.945 84.55C155.14 85.075 155.335 85.66 155.515 86.29H158.95ZM153.46 88.36L154.87 88.48C154.675 89.26 154.48 89.98 154.285 90.625H159.385V91.99H157.69C157.45 93.385 156.97 94.555 156.25 95.515C157.57 96.235 158.635 96.895 159.46 97.465L158.5 98.59C157.66 97.96 156.595 97.27 155.32 96.52C154.27 97.405 152.62 98.11 150.4 98.65L149.83 97.3C151.6 96.91 152.98 96.385 153.955 95.725C153.13 95.245 152.26 94.765 151.33 94.27C151.705 93.55 152.05 92.785 152.365 91.99H150.49V90.625H152.845C153.07 89.89 153.28 89.14 153.46 88.36ZM156.325 91.99H153.82C153.55 92.695 153.28 93.31 153.01 93.82C153.715 94.165 154.375 94.495 154.99 94.825C155.635 94.075 156.085 93.13 156.325 91.99ZM147.4 98.41H146.125L145.81 97.03C146.185 97.075 146.545 97.105 146.905 97.105C147.235 97.105 147.4 96.925 147.4 96.58V93.4C146.86 93.595 146.335 93.775 145.81 93.94L145.45 92.515C146.11 92.365 146.755 92.185 147.4 91.96V88.825H145.765V87.46H147.4V84.745H148.84V87.46H150.13V88.825H148.84V91.375C149.26 91.18 149.665 90.97 150.085 90.76V92.2C149.665 92.41 149.245 92.62 148.84 92.8V96.94C148.84 97.915 148.36 98.41 147.4 98.41ZM162.94 89.485H161.755V88.93L161.305 89.47L160.54 88.405C161.455 87.385 162.295 86.17 163.06 84.76H164.02C164.935 85.72 165.805 86.725 166.645 87.745L165.73 88.72L165.52 88.435V89.485H164.32V90.835H166.135V92.17H164.32V96.25C164.95 96.115 165.58 95.965 166.195 95.8V97.165C164.62 97.585 162.925 97.96 161.125 98.26L160.78 96.835C161.515 96.745 162.235 96.64 162.94 96.52V92.17H161.11V90.835H162.94V89.485ZM162.1 92.695C162.295 93.565 162.46 94.555 162.61 95.665L161.53 95.935C161.38 94.93 161.2 93.97 160.99 93.055L162.1 92.695ZM165.145 92.65L166.24 92.95C166.075 93.94 165.865 94.825 165.625 95.605L164.59 95.215C164.8 94.54 164.98 93.685 165.145 92.65ZM162.325 88.21H165.355C164.695 87.31 164.125 86.62 163.66 86.125C163.255 86.845 162.805 87.55 162.325 88.21ZM172.09 86.59H169.885L169.585 90.73H171.805L172.09 86.59ZM168.25 90.73L168.55 86.59H166.96V85.24H173.5L173.155 90.73H174.37V92.05H173.065L172.765 96.79H174.205V98.125H166.555V96.79H167.815L168.16 92.05H166.45V90.73H168.25ZM169.135 96.79H171.4L171.715 92.05H169.495L169.135 96.79Z" fill="#465BC7"/>
<path d="M44.199 149H43.029V140.745H40.13V139.718H47.085V140.745H44.199V149ZM50.1056 141.902C50.7036 141.902 51.2149 142.032 51.6396 142.292C52.0729 142.552 52.4022 142.92 52.6276 143.397C52.8616 143.865 52.9786 144.415 52.9786 145.048V145.737H48.2076C48.2249 146.526 48.4242 147.128 48.8056 147.544C49.1956 147.951 49.7372 148.155 50.4306 148.155C50.8726 148.155 51.2626 148.116 51.6006 148.038C51.9472 147.951 52.3026 147.83 52.6666 147.674V148.675C52.3112 148.831 51.9602 148.944 51.6136 149.013C51.2669 149.091 50.8552 149.13 50.3786 149.13C49.7199 149.13 49.1349 148.996 48.6236 148.727C48.1209 148.458 47.7266 148.06 47.4406 147.531C47.1632 146.994 47.0246 146.339 47.0246 145.568C47.0246 144.805 47.1502 144.151 47.4016 143.605C47.6616 143.059 48.0212 142.639 48.4806 142.344C48.9486 142.049 49.4902 141.902 50.1056 141.902ZM50.0926 142.838C49.5466 142.838 49.1132 143.016 48.7926 143.371C48.4806 143.718 48.2942 144.203 48.2336 144.827H51.7826C51.7826 144.428 51.7219 144.082 51.6006 143.787C51.4792 143.492 51.2929 143.263 51.0416 143.098C50.7989 142.925 50.4826 142.838 50.0926 142.838ZM58.0025 141.902C58.1325 141.902 58.2711 141.911 58.4185 141.928C58.5745 141.937 58.7088 141.954 58.8215 141.98L58.6785 143.033C58.5658 143.007 58.4401 142.985 58.3015 142.968C58.1715 142.951 58.0458 142.942 57.9245 142.942C57.6558 142.942 57.4001 142.998 57.1575 143.111C56.9148 143.224 56.6981 143.384 56.5075 143.592C56.3168 143.791 56.1651 144.034 56.0525 144.32C55.9485 144.606 55.8965 144.927 55.8965 145.282V149H54.7525V142.032H55.6885L55.8185 143.306H55.8705C56.0178 143.046 56.1955 142.812 56.4035 142.604C56.6115 142.387 56.8498 142.218 57.1185 142.097C57.3871 141.967 57.6818 141.902 58.0025 141.902ZM62.4496 148.194C62.6229 148.194 62.8006 148.181 62.9826 148.155C63.1646 148.12 63.3119 148.086 63.4246 148.051V148.922C63.3032 148.983 63.1299 149.03 62.9046 149.065C62.6792 149.108 62.4626 149.13 62.2546 149.13C61.8906 149.13 61.5526 149.069 61.2406 148.948C60.9372 148.818 60.6902 148.597 60.4996 148.285C60.3089 147.973 60.2136 147.535 60.2136 146.972V142.916H59.2256V142.37L60.2266 141.915L60.6816 140.433H61.3576V142.032H63.3726V142.916H61.3576V146.946C61.3576 147.371 61.4572 147.687 61.6566 147.895C61.8646 148.094 62.1289 148.194 62.4496 148.194ZM65.9638 142.032V149H64.8198V142.032H65.9638ZM65.4048 139.419C65.5782 139.419 65.7298 139.48 65.8598 139.601C65.9985 139.714 66.0678 139.896 66.0678 140.147C66.0678 140.39 65.9985 140.572 65.8598 140.693C65.7298 140.814 65.5782 140.875 65.4048 140.875C65.2142 140.875 65.0538 140.814 64.9238 140.693C64.7938 140.572 64.7288 140.39 64.7288 140.147C64.7288 139.896 64.7938 139.714 64.9238 139.601C65.0538 139.48 65.2142 139.419 65.4048 139.419ZM70.8104 141.915C71.6597 141.915 72.2881 142.101 72.6954 142.474C73.1027 142.847 73.3064 143.44 73.3064 144.255V149H72.4744L72.2534 148.012H72.2014C72.0021 148.263 71.7941 148.476 71.5774 148.649C71.3694 148.814 71.1267 148.935 70.8494 149.013C70.5807 149.091 70.2514 149.13 69.8614 149.13C69.4454 149.13 69.0684 149.056 68.7304 148.909C68.4011 148.762 68.1411 148.536 67.9504 148.233C67.7597 147.921 67.6644 147.531 67.6644 147.063C67.6644 146.37 67.9374 145.837 68.4834 145.464C69.0294 145.083 69.8701 144.875 71.0054 144.84L72.1884 144.801V144.385C72.1884 143.804 72.0627 143.401 71.8114 143.176C71.5601 142.951 71.2047 142.838 70.7454 142.838C70.3814 142.838 70.0347 142.894 69.7054 143.007C69.3761 143.111 69.0684 143.232 68.7824 143.371L68.4314 142.513C68.7347 142.348 69.0944 142.21 69.5104 142.097C69.9264 141.976 70.3597 141.915 70.8104 141.915ZM71.1484 145.633C70.2817 145.668 69.6794 145.806 69.3414 146.049C69.0121 146.292 68.8474 146.634 68.8474 147.076C68.8474 147.466 68.9644 147.752 69.1984 147.934C69.4411 148.116 69.7487 148.207 70.1214 148.207C70.7107 148.207 71.2004 148.047 71.5904 147.726C71.9804 147.397 72.1754 146.894 72.1754 146.218V145.594L71.1484 145.633ZM78.7085 141.902C78.8385 141.902 78.9772 141.911 79.1245 141.928C79.2805 141.937 79.4148 141.954 79.5275 141.98L79.3845 143.033C79.2718 143.007 79.1462 142.985 79.0075 142.968C78.8775 142.951 78.7518 142.942 78.6305 142.942C78.3618 142.942 78.1062 142.998 77.8635 143.111C77.6208 143.224 77.4042 143.384 77.2135 143.592C77.0228 143.791 76.8712 144.034 76.7585 144.32C76.6545 144.606 76.6025 144.927 76.6025 145.282V149H75.4585V142.032H76.3945L76.5245 143.306H76.5765C76.7238 143.046 76.9015 142.812 77.1095 142.604C77.3175 142.387 77.5558 142.218 77.8245 142.097C78.0932 141.967 78.3878 141.902 78.7085 141.902ZM79.7366 142.032H80.9586L82.4666 145.997C82.5533 146.231 82.6313 146.456 82.7006 146.673C82.7786 146.89 82.848 147.102 82.9086 147.31C82.9693 147.509 83.017 147.704 83.0516 147.895H83.1036C83.1556 147.678 83.238 147.397 83.3506 147.05C83.4633 146.695 83.5803 146.339 83.7016 145.984L85.1186 142.032H86.3536L83.3506 149.962C83.186 150.395 82.991 150.772 82.7656 151.093C82.549 151.422 82.2803 151.674 81.9596 151.847C81.6476 152.029 81.2663 152.12 80.8156 152.12C80.6076 152.12 80.4256 152.107 80.2696 152.081C80.1136 152.064 79.9793 152.042 79.8666 152.016V151.106C79.962 151.123 80.0746 151.141 80.2046 151.158C80.3433 151.175 80.4863 151.184 80.6336 151.184C80.9023 151.184 81.132 151.132 81.3226 151.028C81.522 150.933 81.691 150.79 81.8296 150.599C81.9683 150.417 82.0853 150.2 82.1806 149.949L82.5446 149.026L79.7366 142.032Z" fill="#161616"/>
<path d="M158.95 138.29V141.41H157.585V139.595H152.155V141.47H150.805V138.29H154.09C153.91 137.75 153.715 137.24 153.49 136.79L154.945 136.55C155.14 137.075 155.335 137.66 155.515 138.29H158.95ZM153.46 140.36L154.87 140.48C154.675 141.26 154.48 141.98 154.285 142.625H159.385V143.99H157.69C157.45 145.385 156.97 146.555 156.25 147.515C157.57 148.235 158.635 148.895 159.46 149.465L158.5 150.59C157.66 149.96 156.595 149.27 155.32 148.52C154.27 149.405 152.62 150.11 150.4 150.65L149.83 149.3C151.6 148.91 152.98 148.385 153.955 147.725C153.13 147.245 152.26 146.765 151.33 146.27C151.705 145.55 152.05 144.785 152.365 143.99H150.49V142.625H152.845C153.07 141.89 153.28 141.14 153.46 140.36ZM156.325 143.99H153.82C153.55 144.695 153.28 145.31 153.01 145.82C153.715 146.165 154.375 146.495 154.99 146.825C155.635 146.075 156.085 145.13 156.325 143.99ZM147.4 150.41H146.125L145.81 149.03C146.185 149.075 146.545 149.105 146.905 149.105C147.235 149.105 147.4 148.925 147.4 148.58V145.4C146.86 145.595 146.335 145.775 145.81 145.94L145.45 144.515C146.11 144.365 146.755 144.185 147.4 143.96V140.825H145.765V139.46H147.4V136.745H148.84V139.46H150.13V140.825H148.84V143.375C149.26 143.18 149.665 142.97 150.085 142.76V144.2C149.665 144.41 149.245 144.62 148.84 144.8V148.94C148.84 149.915 148.36 150.41 147.4 150.41ZM162.94 141.485H161.755V140.93L161.305 141.47L160.54 140.405C161.455 139.385 162.295 138.17 163.06 136.76H164.02C164.935 137.72 165.805 138.725 166.645 139.745L165.73 140.72L165.52 140.435V141.485H164.32V142.835H166.135V144.17H164.32V148.25C164.95 148.115 165.58 147.965 166.195 147.8V149.165C164.62 149.585 162.925 149.96 161.125 150.26L160.78 148.835C161.515 148.745 162.235 148.64 162.94 148.52V144.17H161.11V142.835H162.94V141.485ZM162.1 144.695C162.295 145.565 162.46 146.555 162.61 147.665L161.53 147.935C161.38 146.93 161.2 145.97 160.99 145.055L162.1 144.695ZM165.145 144.65L166.24 144.95C166.075 145.94 165.865 146.825 165.625 147.605L164.59 147.215C164.8 146.54 164.98 145.685 165.145 144.65ZM162.325 140.21H165.355C164.695 139.31 164.125 138.62 163.66 138.125C163.255 138.845 162.805 139.55 162.325 140.21ZM172.09 138.59H169.885L169.585 142.73H171.805L172.09 138.59ZM168.25 142.73L168.55 138.59H166.96V137.24H173.5L173.155 142.73H174.37V144.05H173.065L172.765 148.79H174.205V150.125H166.555V148.79H167.815L168.16 144.05H166.45V142.73H168.25ZM169.135 148.79H171.4L171.715 144.05H169.495L169.135 148.79Z" fill="#465BC7"/>
<mask id="path-11-inside-2_35_5016" fill="white">
<path d="M0 184H780V230C780 231.105 779.105 232 778 232H1.99998C0.895407 232 0 231.105 0 230V184Z"/>
</mask>
<path d="M0 184H780V230C780 231.105 779.105 232 778 232H1.99998C0.895407 232 0 231.105 0 230V184Z" fill="#E7E7E7"/>
<path d="M0 184H780H0ZM781 230C781 231.657 779.657 233 778 233H2C0.343146 233 -1 231.657 -1 230H1C1 230.552 1.44772 231 2 231H778C778.552 231 779 230.552 779 230H781ZM2 233C0.343146 233 -1 231.657 -1 230V184H1V230C1 230.552 1.44772 231 2 231V233ZM781 184V230C781 231.657 779.657 233 778 233V231C778.552 231 779 230.552 779 230V184H781Z" fill="#D9D9D9" mask="url(#path-11-inside-2_35_5016)"/>
<path fill-rule="evenodd" clip-rule="evenodd" d="M36.0005 212L29 204.98L29.9762 204H29.9781L36.0005 210.041L42.0238 204H42.0258L43 204.979V204.981L36.0005 212Z" fill="#4457CA"/>
<path d="M59.575 211.105C59.575 211.745 59.42 212.29 59.11 212.74C58.8 213.19 58.355 213.54 57.775 213.79C57.195 214.03 56.505 214.15 55.705 214.15C55.315 214.15 54.94 214.125 54.58 214.075C54.22 214.035 53.885 213.975 53.575 213.895C53.265 213.815 52.99 213.715 52.75 213.595V212.065C53.15 212.245 53.62 212.41 54.16 212.56C54.7 212.7 55.25 212.77 55.81 212.77C56.29 212.77 56.69 212.705 57.01 212.575C57.33 212.445 57.57 212.265 57.73 212.035C57.89 211.805 57.97 211.535 57.97 211.225C57.97 210.895 57.885 210.62 57.715 210.4C57.555 210.17 57.3 209.96 56.95 209.77C56.61 209.57 56.15 209.36 55.57 209.14C55.17 208.99 54.805 208.825 54.475 208.645C54.155 208.455 53.87 208.235 53.62 207.985C53.38 207.735 53.195 207.445 53.065 207.115C52.935 206.785 52.87 206.4 52.87 205.96C52.87 205.37 53.015 204.865 53.305 204.445C53.605 204.025 54.015 203.705 54.535 203.485C55.055 203.255 55.66 203.14 56.35 203.14C56.93 203.14 57.465 203.2 57.955 203.32C58.455 203.43 58.93 203.585 59.38 203.785L58.87 205.12C58.46 204.95 58.045 204.81 57.625 204.7C57.205 204.59 56.765 204.535 56.305 204.535C55.905 204.535 55.57 204.595 55.3 204.715C55.03 204.835 54.825 205 54.685 205.21C54.555 205.42 54.49 205.665 54.49 205.945C54.49 206.275 54.565 206.55 54.715 206.77C54.865 206.99 55.105 207.195 55.435 207.385C55.765 207.565 56.2 207.765 56.74 207.985C57.34 208.215 57.85 208.465 58.27 208.735C58.7 209.005 59.025 209.33 59.245 209.71C59.465 210.08 59.575 210.545 59.575 211.105ZM63.0821 205.645C63.0821 205.895 63.0721 206.145 63.0521 206.395C63.0321 206.645 63.0121 206.85 62.9921 207.01H63.0971C63.2671 206.73 63.4771 206.5 63.7271 206.32C63.9871 206.14 64.2721 206.005 64.5821 205.915C64.9021 205.825 65.2271 205.78 65.5571 205.78C66.1971 205.78 66.7321 205.885 67.1621 206.095C67.6021 206.295 67.9321 206.615 68.1521 207.055C68.3821 207.485 68.4971 208.045 68.4971 208.735V214H66.9221V208.96C66.9221 208.33 66.7871 207.86 66.5171 207.55C66.2571 207.23 65.8371 207.07 65.2571 207.07C64.7071 207.07 64.2721 207.18 63.9521 207.4C63.6421 207.62 63.4171 207.945 63.2771 208.375C63.1471 208.795 63.0821 209.315 63.0821 209.935V214H61.4921V202.6H63.0821V205.645ZM78.0653 209.95C78.0653 210.62 77.9753 211.215 77.7953 211.735C77.6153 212.255 77.3603 212.695 77.0303 213.055C76.7003 213.415 76.3003 213.69 75.8303 213.88C75.3603 214.06 74.8303 214.15 74.2403 214.15C73.7003 214.15 73.2003 214.06 72.7403 213.88C72.2803 213.69 71.8803 213.415 71.5403 213.055C71.2103 212.695 70.9503 212.255 70.7603 211.735C70.5703 211.215 70.4753 210.615 70.4753 209.935C70.4753 209.045 70.6253 208.29 70.9253 207.67C71.2353 207.05 71.6753 206.58 72.2453 206.26C72.8253 205.93 73.5053 205.765 74.2853 205.765C75.0253 205.765 75.6753 205.93 76.2353 206.26C76.8053 206.58 77.2503 207.05 77.5703 207.67C77.9003 208.29 78.0653 209.05 78.0653 209.95ZM72.1103 209.95C72.1103 210.55 72.1853 211.07 72.3353 211.51C72.4853 211.94 72.7203 212.27 73.0403 212.5C73.3603 212.73 73.7703 212.845 74.2703 212.845C74.7703 212.845 75.1803 212.73 75.5003 212.5C75.8203 212.27 76.0553 211.94 76.2053 211.51C76.3553 211.07 76.4303 210.55 76.4303 209.95C76.4303 209.33 76.3503 208.81 76.1903 208.39C76.0403 207.97 75.8053 207.65 75.4853 207.43C75.1753 207.2 74.7653 207.085 74.2553 207.085C73.5053 207.085 72.9603 207.335 72.6203 207.835C72.2803 208.335 72.1103 209.04 72.1103 209.95ZM85.248 209.95C85.198 209.75 85.138 209.53 85.068 209.29C85.008 209.05 84.948 208.81 84.888 208.57C84.828 208.32 84.773 208.09 84.723 207.88C84.673 207.67 84.633 207.505 84.603 207.385H84.543C84.523 207.505 84.488 207.67 84.438 207.88C84.398 208.09 84.348 208.32 84.288 208.57C84.228 208.81 84.168 209.055 84.108 209.305C84.048 209.545 83.983 209.765 83.913 209.965L82.713 213.985H80.943L78.708 205.9H80.328L81.378 209.995C81.458 210.275 81.528 210.57 81.588 210.88C81.658 211.19 81.718 211.49 81.768 211.78C81.828 212.06 81.868 212.295 81.888 212.485H81.948C81.968 212.355 81.998 212.195 82.038 212.005C82.078 211.805 82.118 211.6 82.158 211.39C82.208 211.17 82.253 210.96 82.293 210.76C82.343 210.56 82.393 210.395 82.443 210.265L83.733 205.9H85.473L86.733 210.265C86.793 210.465 86.858 210.705 86.928 210.985C86.998 211.255 87.058 211.525 87.108 211.795C87.168 212.055 87.208 212.28 87.228 212.47H87.288C87.308 212.3 87.343 212.08 87.393 211.81C87.443 211.53 87.503 211.23 87.573 210.91C87.653 210.59 87.728 210.285 87.798 209.995L88.878 205.9H90.483L88.218 213.985H86.403L85.248 209.95ZM100.539 204.535C100.009 204.535 99.5341 204.63 99.1141 204.82C98.6941 205 98.3341 205.27 98.0341 205.63C97.7441 205.99 97.5191 206.425 97.3591 206.935C97.2091 207.445 97.1341 208.02 97.1341 208.66C97.1341 209.5 97.2591 210.23 97.5091 210.85C97.7591 211.46 98.1341 211.93 98.6341 212.26C99.1341 212.59 99.7641 212.755 100.524 212.755C100.984 212.755 101.424 212.715 101.844 212.635C102.274 212.545 102.709 212.43 103.149 212.29V213.685C102.729 213.845 102.299 213.96 101.859 214.03C101.419 214.11 100.909 214.15 100.329 214.15C99.2391 214.15 98.3291 213.925 97.5991 213.475C96.8791 213.025 96.3391 212.385 95.9791 211.555C95.6191 210.725 95.4391 209.755 95.4391 208.645C95.4391 207.835 95.5491 207.095 95.7691 206.425C95.9991 205.745 96.3291 205.16 96.7591 204.67C97.1891 204.18 97.7191 203.805 98.3491 203.545C98.9891 203.275 99.7241 203.14 100.554 203.14C101.094 203.14 101.624 203.2 102.144 203.32C102.664 203.43 103.134 203.59 103.554 203.8L102.954 205.15C102.604 204.99 102.224 204.85 101.814 204.73C101.414 204.6 100.989 204.535 100.539 204.535ZM112.401 209.95C112.401 210.62 112.311 211.215 112.131 211.735C111.951 212.255 111.696 212.695 111.366 213.055C111.036 213.415 110.636 213.69 110.166 213.88C109.696 214.06 109.166 214.15 108.576 214.15C108.036 214.15 107.536 214.06 107.076 213.88C106.616 213.69 106.216 213.415 105.876 213.055C105.546 212.695 105.286 212.255 105.096 211.735C104.906 211.215 104.811 210.615 104.811 209.935C104.811 209.045 104.961 208.29 105.261 207.67C105.571 207.05 106.011 206.58 106.581 206.26C107.161 205.93 107.841 205.765 108.621 205.765C109.361 205.765 110.011 205.93 110.571 206.26C111.141 206.58 111.586 207.05 111.906 207.67C112.236 208.29 112.401 209.05 112.401 209.95ZM106.446 209.95C106.446 210.55 106.521 211.07 106.671 211.51C106.821 211.94 107.056 212.27 107.376 212.5C107.696 212.73 108.106 212.845 108.606 212.845C109.106 212.845 109.516 212.73 109.836 212.5C110.156 212.27 110.391 211.94 110.541 211.51C110.691 211.07 110.766 210.55 110.766 209.95C110.766 209.33 110.686 208.81 110.526 208.39C110.376 207.97 110.141 207.65 109.821 207.43C109.511 207.2 109.101 207.085 108.591 207.085C107.841 207.085 107.296 207.335 106.956 207.835C106.616 208.335 106.446 209.04 106.446 209.95ZM117.192 214.15C116.222 214.15 115.437 213.8 114.837 213.1C114.247 212.4 113.952 211.36 113.952 209.98C113.952 208.59 114.252 207.54 114.852 206.83C115.452 206.12 116.242 205.765 117.222 205.765C117.632 205.765 117.987 205.82 118.287 205.93C118.597 206.03 118.862 206.17 119.082 206.35C119.312 206.53 119.507 206.73 119.667 206.95H119.757C119.737 206.81 119.712 206.61 119.682 206.35C119.652 206.08 119.637 205.84 119.637 205.63V202.6H121.227V214H119.982L119.712 212.92H119.637C119.487 213.15 119.297 213.36 119.067 213.55C118.847 213.73 118.582 213.875 118.272 213.985C117.962 214.095 117.602 214.15 117.192 214.15ZM117.567 212.845C118.347 212.845 118.897 212.63 119.217 212.2C119.537 211.76 119.697 211.105 119.697 210.235V209.995C119.697 209.045 119.542 208.32 119.232 207.82C118.932 207.32 118.372 207.07 117.552 207.07C116.902 207.07 116.412 207.335 116.082 207.865C115.752 208.385 115.587 209.1 115.587 210.01C115.587 210.92 115.752 211.62 116.082 212.11C116.412 212.6 116.907 212.845 117.567 212.845ZM126.899 205.765C127.609 205.765 128.219 205.915 128.729 206.215C129.239 206.505 129.629 206.925 129.899 207.475C130.179 208.025 130.319 208.675 130.319 209.425V210.295H124.889C124.909 211.125 125.124 211.76 125.534 212.2C125.954 212.64 126.539 212.86 127.289 212.86C127.809 212.86 128.269 212.815 128.669 212.725C129.079 212.625 129.499 212.48 129.929 212.29V213.61C129.529 213.79 129.119 213.925 128.699 214.015C128.289 214.105 127.799 214.15 127.229 214.15C126.449 214.15 125.759 213.995 125.159 213.685C124.559 213.375 124.089 212.915 123.749 212.305C123.419 211.685 123.254 210.925 123.254 210.025C123.254 209.115 123.404 208.345 123.704 207.715C124.014 207.085 124.439 206.605 124.979 206.275C125.529 205.935 126.169 205.765 126.899 205.765ZM126.899 206.995C126.329 206.995 125.869 207.18 125.519 207.55C125.179 207.92 124.979 208.445 124.919 209.125H128.729C128.729 208.705 128.664 208.335 128.534 208.015C128.404 207.695 128.204 207.445 127.934 207.265C127.664 207.085 127.319 206.995 126.899 206.995Z" fill="#465BC7"/>
<path fill-rule="evenodd" clip-rule="evenodd" d="M700.2 208C700.2 203.546 703.97 200 708.539 200C709.46 200 710.343 200.151 711.168 200.413L711.296 201.816C709.717 202.659 708.675 204.254 708.675 206.056C708.675 208.704 710.934 210.917 713.804 210.917C714.205 210.917 714.599 210.869 714.98 210.783L715.8 211.917C714.368 214.362 711.645 216 708.535 216C703.97 216 700.2 212.454 700.2 208ZM708.539 201.528C704.735 201.528 701.72 204.463 701.72 208C701.72 211.537 704.735 214.472 708.535 214.472C710.496 214.472 712.254 213.686 713.492 212.438C709.998 212.282 707.155 209.518 707.155 206.056C707.155 204.29 707.901 202.701 709.093 201.55C708.91 201.536 708.726 201.528 708.539 201.528Z" fill="#4457CA"/>
<path d="M756 212.418H753.851V216H740V202.149H743.582V200H756V212.418ZM741.433 203.582V214.567H752.418V212.418H743.582V203.582H741.433ZM745.082 210.918H754.5V201.5H745.082V210.918Z" fill="#4457CA"/>
</svg>
