<svg width="676" height="399" viewBox="0 0 676 399" fill="none" xmlns="http://www.w3.org/2000/svg">
<mask id="path-1-inside-1_27_2983" fill="white">
<path d="M0 1.99999C0 0.895423 0.895431 0 2 0H314V399H2C0.895426 399 0 398.105 0 397V1.99999Z"/>
</mask>
<path d="M0 1.99999C0 0.895423 0.895431 0 2 0H314V399H2C0.895426 399 0 398.105 0 397V1.99999Z" fill="white"/>
<path d="M-1 2C-1 0.343146 0.343146 -1 2 -1H314V1H2C1.44772 1 1 1.44772 1 2H-1ZM314 400H2C0.343146 400 -1 398.657 -1 397H1C1 397.552 1.44772 398 2 398H314V400ZM2 400C0.343146 400 -1 398.657 -1 397V2C-1 0.343146 0.343146 -1 2 -1V1C1.44772 1 1 1.44772 1 2V397C1 397.552 1.44772 398 2 398V400ZM314 0V399V0Z" fill="#D9D9D9" mask="url(#path-1-inside-1_27_2983)"/>
<rect width="64" height="40" transform="translate(125 179.5)" fill="#465BC7"/>
<path d="M155.95 193.79V196.91H154.585V195.095H149.155V196.97H147.805V193.79H151.09C150.91 193.25 150.715 192.74 150.49 192.29L151.945 192.05C152.14 192.575 152.335 193.16 152.515 193.79H155.95ZM150.46 195.86L151.87 195.98C151.675 196.76 151.48 197.48 151.285 198.125H156.385V199.49H154.69C154.45 200.885 153.97 202.055 153.25 203.015C154.57 203.735 155.635 204.395 156.46 204.965L155.5 206.09C154.66 205.46 153.595 204.77 152.32 204.02C151.27 204.905 149.62 205.61 147.4 206.15L146.83 204.8C148.6 204.41 149.98 203.885 150.955 203.225C150.13 202.745 149.26 202.265 148.33 201.77C148.705 201.05 149.05 200.285 149.365 199.49H147.49V198.125H149.845C150.07 197.39 150.28 196.64 150.46 195.86ZM153.325 199.49H150.82C150.55 200.195 150.28 200.81 150.01 201.32C150.715 201.665 151.375 201.995 151.99 202.325C152.635 201.575 153.085 200.63 153.325 199.49ZM144.4 205.91H143.125L142.81 204.53C143.185 204.575 143.545 204.605 143.905 204.605C144.235 204.605 144.4 204.425 144.4 204.08V200.9C143.86 201.095 143.335 201.275 142.81 201.44L142.45 200.015C143.11 199.865 143.755 199.685 144.4 199.46V196.325H142.765V194.96H144.4V192.245H145.84V194.96H147.13V196.325H145.84V198.875C146.26 198.68 146.665 198.47 147.085 198.26V199.7C146.665 199.91 146.245 200.12 145.84 200.3V204.44C145.84 205.415 145.36 205.91 144.4 205.91ZM159.94 196.985H158.755V196.43L158.305 196.97L157.54 195.905C158.455 194.885 159.295 193.67 160.06 192.26H161.02C161.935 193.22 162.805 194.225 163.645 195.245L162.73 196.22L162.52 195.935V196.985H161.32V198.335H163.135V199.67H161.32V203.75C161.95 203.615 162.58 203.465 163.195 203.3V204.665C161.62 205.085 159.925 205.46 158.125 205.76L157.78 204.335C158.515 204.245 159.235 204.14 159.94 204.02V199.67H158.11V198.335H159.94V196.985ZM159.1 200.195C159.295 201.065 159.46 202.055 159.61 203.165L158.53 203.435C158.38 202.43 158.2 201.47 157.99 200.555L159.1 200.195ZM162.145 200.15L163.24 200.45C163.075 201.44 162.865 202.325 162.625 203.105L161.59 202.715C161.8 202.04 161.98 201.185 162.145 200.15ZM159.325 195.71H162.355C161.695 194.81 161.125 194.12 160.66 193.625C160.255 194.345 159.805 195.05 159.325 195.71ZM169.09 194.09H166.885L166.585 198.23H168.805L169.09 194.09ZM165.25 198.23L165.55 194.09H163.96V192.74H170.5L170.155 198.23H171.37V199.55H170.065L169.765 204.29H171.205V205.625H163.555V204.29H164.815L165.16 199.55H163.45V198.23H165.25ZM166.135 204.29H168.4L168.715 199.55H166.495L166.135 204.29Z" fill="white"/>
<mask id="path-4-inside-2_27_2983" fill="white">
<path d="M314 0H674C675.105 0 676 0.895431 676 2V397C676 398.105 675.105 399 674 399H314V0Z"/>
</mask>
<path d="M314 0H674C675.105 0 676 0.895431 676 2V397C676 398.105 675.105 399 674 399H314V0Z" fill="#F5F5F5"/>
<path d="M314 0V-1H313V0H314ZM314 399H313V400H314V399ZM314 0V1H674V0V-1H314V0ZM676 2H675V397H676H677V2H676ZM674 399V398H314V399V400H674V399ZM314 399H315V0H314H313V399H314ZM676 397H675C675 397.552 674.552 398 674 398V399V400C675.657 400 677 398.657 677 397H676ZM674 0V1C674.552 1 675 1.44772 675 2H676H677C677 0.343143 675.657 -1 674 -1V0Z" fill="#D9D9D9" mask="url(#path-4-inside-2_27_2983)"/>
<path d="M343.856 35L340.801 26.862H340.749C340.766 27.0353 340.779 27.2563 340.788 27.525C340.805 27.7937 340.818 28.0883 340.827 28.409C340.835 28.721 340.84 29.0417 340.84 29.371V35H339.761V25.718H341.49L344.35 33.323H344.402L347.314 25.718H349.03V35H347.873V29.293C347.873 28.9897 347.877 28.6907 347.886 28.396C347.894 28.0927 347.907 27.811 347.925 27.551C347.942 27.2823 347.955 27.057 347.964 26.875H347.912L344.818 35H343.856ZM357.456 31.503C357.456 32.0837 357.378 32.5993 357.222 33.05C357.075 33.492 356.858 33.869 356.572 34.181C356.295 34.493 355.953 34.7313 355.545 34.896C355.147 35.052 354.7 35.13 354.206 35.13C353.747 35.13 353.322 35.052 352.932 34.896C352.542 34.7313 352.204 34.493 351.918 34.181C351.632 33.869 351.407 33.492 351.242 33.05C351.086 32.5993 351.008 32.0837 351.008 31.503C351.008 30.7317 351.138 30.0817 351.398 29.553C351.658 29.0157 352.031 28.6083 352.516 28.331C353.002 28.045 353.578 27.902 354.245 27.902C354.878 27.902 355.433 28.045 355.909 28.331C356.395 28.6083 356.772 29.0157 357.04 29.553C357.318 30.0817 357.456 30.7317 357.456 31.503ZM352.191 31.503C352.191 32.049 352.261 32.5257 352.399 32.933C352.547 33.3317 352.772 33.6393 353.075 33.856C353.379 34.0727 353.764 34.181 354.232 34.181C354.7 34.181 355.086 34.0727 355.389 33.856C355.693 33.6393 355.914 33.3317 356.052 32.933C356.2 32.5257 356.273 32.049 356.273 31.503C356.273 30.9483 356.2 30.476 356.052 30.086C355.905 29.696 355.68 29.397 355.376 29.189C355.082 28.9723 354.696 28.864 354.219 28.864C353.509 28.864 352.993 29.098 352.672 29.566C352.352 30.034 352.191 30.6797 352.191 31.503ZM361.74 35.13C360.873 35.13 360.18 34.831 359.66 34.233C359.14 33.6263 358.88 32.725 358.88 31.529C358.88 30.333 359.14 29.4317 359.66 28.825C360.188 28.2097 360.886 27.902 361.753 27.902C362.117 27.902 362.433 27.9497 362.702 28.045C362.97 28.1317 363.204 28.253 363.404 28.409C363.603 28.565 363.772 28.7383 363.911 28.929H363.989C363.98 28.8163 363.963 28.6517 363.937 28.435C363.919 28.2097 363.911 28.032 363.911 27.902V25.12H365.055V35H364.132L363.963 34.064H363.911C363.772 34.2633 363.603 34.4453 363.404 34.61C363.204 34.766 362.966 34.8917 362.689 34.987C362.42 35.0823 362.104 35.13 361.74 35.13ZM361.922 34.181C362.658 34.181 363.174 33.9817 363.469 33.583C363.772 33.1757 363.924 32.5647 363.924 31.75V31.542C363.924 30.6753 363.781 30.0123 363.495 29.553C363.209 29.085 362.68 28.851 361.909 28.851C361.293 28.851 360.83 29.098 360.518 29.592C360.214 30.0773 360.063 30.7317 360.063 31.555C360.063 32.387 360.214 33.0327 360.518 33.492C360.83 33.9513 361.298 34.181 361.922 34.181ZM369.959 27.902C370.557 27.902 371.068 28.032 371.493 28.292C371.926 28.552 372.255 28.9203 372.481 29.397C372.715 29.865 372.832 30.4153 372.832 31.048V31.737H368.061C368.078 32.5257 368.277 33.128 368.659 33.544C369.049 33.9513 369.59 34.155 370.284 34.155C370.726 34.155 371.116 34.116 371.454 34.038C371.8 33.9513 372.156 33.83 372.52 33.674V34.675C372.164 34.831 371.813 34.9437 371.467 35.013C371.12 35.091 370.708 35.13 370.232 35.13C369.573 35.13 368.988 34.9957 368.477 34.727C367.974 34.4583 367.58 34.0597 367.294 33.531C367.016 32.9937 366.878 32.3393 366.878 31.568C366.878 30.8053 367.003 30.151 367.255 29.605C367.515 29.059 367.874 28.6387 368.334 28.344C368.802 28.0493 369.343 27.902 369.959 27.902ZM369.946 28.838C369.4 28.838 368.966 29.0157 368.646 29.371C368.334 29.7177 368.147 30.203 368.087 30.827H371.636C371.636 30.4283 371.575 30.0817 371.454 29.787C371.332 29.4923 371.146 29.2627 370.895 29.098C370.652 28.9247 370.336 28.838 369.946 28.838Z" fill="#161616"/>
<path d="M420.5 48.5V71.5H338.5V48.5H420.5Z" fill="#465BC7" fill-opacity="0.2"/>
<path d="M420.5 48.5V71.5H338.5V48.5H420.5Z" stroke="#465BC7"/>
<path d="M350.299 55.718H357.904V56.927H354.81V65H353.406V56.927H350.299V55.718ZM361.742 58.097C362.834 58.097 363.679 58.461 364.251 59.215C364.771 59.891 365.044 60.827 365.057 62.023H359.961C360.013 62.673 360.182 63.18 360.494 63.531C360.806 63.869 361.235 64.051 361.781 64.051C362.262 64.051 362.652 63.934 362.951 63.713C363.185 63.531 363.38 63.232 363.562 62.842H364.94C364.784 63.466 364.485 63.999 364.017 64.415C363.432 64.922 362.691 65.182 361.794 65.182C360.806 65.182 360.013 64.87 359.441 64.259C358.817 63.609 358.505 62.738 358.505 61.633C358.505 60.632 358.791 59.8 359.389 59.124C359.961 58.435 360.754 58.097 361.742 58.097ZM361.781 59.228C361.261 59.228 360.858 59.371 360.546 59.683C360.26 59.982 360.065 60.411 359.987 60.983H363.614C363.484 59.813 362.873 59.228 361.781 59.228ZM365.817 58.279H367.429L368.911 60.411L370.38 58.279H371.992L369.665 61.425L372.278 65H370.666L368.911 62.439L367.143 65H365.518L368.144 61.425L365.817 58.279ZM375.167 56.108V58.279H376.701V59.423H375.167V63.323C375.167 63.505 375.206 63.635 375.284 63.726C375.362 63.804 375.479 63.856 375.648 63.856H376.532V65H375.427C374.855 65 374.426 64.844 374.166 64.545C373.906 64.259 373.789 63.856 373.789 63.323V59.423H372.541V58.279H373.789V56.68L375.167 56.108ZM386.378 55.536C387.782 55.536 388.9 55.991 389.719 56.914C390.499 57.785 390.889 58.942 390.889 60.372C390.889 61.789 390.499 62.933 389.719 63.817C388.9 64.727 387.782 65.182 386.378 65.182C384.961 65.182 383.843 64.714 383.037 63.804C382.257 62.92 381.88 61.776 381.88 60.372C381.88 58.955 382.257 57.811 383.037 56.927C383.843 55.991 384.961 55.536 386.378 55.536ZM386.378 56.784C385.39 56.784 384.623 57.109 384.077 57.785C383.557 58.422 383.297 59.28 383.297 60.372C383.297 61.451 383.557 62.309 384.077 62.946C384.623 63.596 385.39 63.934 386.378 63.934C387.366 63.934 388.133 63.609 388.666 62.972C389.186 62.348 389.459 61.477 389.459 60.372C389.459 59.254 389.186 58.383 388.666 57.746C388.133 57.096 387.366 56.784 386.378 56.784ZM395.601 58.097C397.265 58.097 398.11 59.007 398.11 60.853V65H396.732V60.97C396.732 59.826 396.199 59.254 395.159 59.254C394.769 59.254 394.418 59.384 394.132 59.67C393.82 59.982 393.625 60.411 393.573 60.957V65H392.195V58.279H393.573V59.111C393.833 58.773 394.132 58.526 394.47 58.357C394.808 58.175 395.185 58.097 395.601 58.097ZM399.841 55.536H401.219V65H399.841V55.536ZM402.22 58.279H403.715L405.561 63.18L407.329 58.279H408.837L405.184 67.574H403.715L404.885 64.844L402.22 58.279Z" fill="#465BC7"/>
<path d="M532.5 48.5V71.5H429.5V48.5H532.5Z" stroke="#465BC7"/>
<path d="M442.237 55.718H443.641V63.791H448.75V65H442.237V55.718ZM452.635 58.097C453.727 58.097 454.572 58.461 455.144 59.215C455.664 59.891 455.937 60.827 455.95 62.023H450.854C450.906 62.673 451.075 63.18 451.387 63.531C451.699 63.869 452.128 64.051 452.674 64.051C453.155 64.051 453.545 63.934 453.844 63.713C454.078 63.531 454.273 63.232 454.455 62.842H455.833C455.677 63.466 455.378 63.999 454.91 64.415C454.325 64.922 453.584 65.182 452.687 65.182C451.699 65.182 450.906 64.87 450.334 64.259C449.71 63.609 449.398 62.738 449.398 61.633C449.398 60.632 449.684 59.8 450.282 59.124C450.854 58.435 451.647 58.097 452.635 58.097ZM452.674 59.228C452.154 59.228 451.751 59.371 451.439 59.683C451.153 59.982 450.958 60.411 450.88 60.983H454.507C454.377 59.813 453.766 59.228 452.674 59.228ZM460.155 58.097C461.143 58.097 461.871 58.344 462.339 58.838C462.742 59.267 462.95 59.891 462.95 60.71V65H461.676V64.051C461.416 64.389 461.091 64.662 460.701 64.857C460.259 65.065 459.739 65.182 459.141 65.182C458.439 65.182 457.893 65 457.503 64.649C457.074 64.298 456.866 63.843 456.866 63.284C456.866 62.53 457.165 61.945 457.763 61.542C458.309 61.152 459.089 60.957 460.077 60.931L461.585 60.892V60.619C461.585 59.683 461.078 59.215 460.064 59.215C459.635 59.215 459.284 59.293 459.024 59.449C458.712 59.631 458.517 59.904 458.439 60.281L457.074 60.164C457.217 59.436 457.581 58.89 458.153 58.552C458.647 58.24 459.323 58.097 460.155 58.097ZM461.585 61.893L460.168 61.932C458.907 61.958 458.283 62.4 458.283 63.232C458.283 63.492 458.387 63.7 458.608 63.869C458.816 64.038 459.102 64.129 459.453 64.129C460.038 64.129 460.532 63.947 460.948 63.596C461.364 63.245 461.585 62.803 461.585 62.283V61.893ZM469.363 55.536H470.741V65H469.454V64.194C468.986 64.844 468.284 65.182 467.374 65.182C466.386 65.182 465.606 64.831 465.047 64.129C464.527 63.479 464.267 62.634 464.267 61.607C464.267 60.619 464.514 59.8 465.034 59.15C465.58 58.448 466.347 58.097 467.309 58.097C468.128 58.097 468.817 58.487 469.363 59.28V55.536ZM467.621 59.215C466.945 59.215 466.438 59.436 466.113 59.904C465.827 60.294 465.684 60.866 465.684 61.607C465.684 62.348 465.814 62.92 466.087 63.336C466.399 63.817 466.906 64.064 467.582 64.064C468.18 64.064 468.635 63.817 468.973 63.349C469.259 62.92 469.402 62.374 469.402 61.698V61.581C469.402 60.853 469.22 60.268 468.882 59.826C468.544 59.41 468.128 59.215 467.621 59.215ZM473.272 55.588C473.545 55.588 473.779 55.666 473.961 55.848C474.143 56.017 474.234 56.238 474.234 56.511C474.234 56.784 474.13 57.005 473.948 57.187C473.766 57.356 473.532 57.447 473.272 57.447C472.999 57.447 472.778 57.356 472.596 57.187C472.414 57.005 472.323 56.771 472.323 56.511C472.323 56.238 472.414 56.017 472.596 55.848C472.778 55.666 472.999 55.588 473.272 55.588ZM472.583 58.279H473.961V65H472.583V58.279ZM479.232 58.097C480.896 58.097 481.741 59.007 481.741 60.853V65H480.363V60.97C480.363 59.826 479.83 59.254 478.79 59.254C478.4 59.254 478.049 59.384 477.763 59.67C477.451 59.982 477.256 60.411 477.204 60.957V65H475.826V58.279H477.204V59.111C477.464 58.773 477.763 58.526 478.101 58.357C478.439 58.175 478.816 58.097 479.232 58.097ZM486.111 58.097C486.995 58.097 487.671 58.448 488.165 59.176V58.279H489.543V64.558C489.543 66.69 488.49 67.756 486.41 67.756C485.474 67.756 484.759 67.574 484.265 67.223C483.771 66.859 483.472 66.313 483.342 65.572H484.72C484.798 65.962 484.954 66.248 485.214 66.417C485.461 66.573 485.864 66.664 486.41 66.664C487.58 66.664 488.165 66.027 488.165 64.766V63.726C487.671 64.467 486.995 64.844 486.111 64.844C485.201 64.844 484.46 64.532 483.901 63.921C483.329 63.31 483.056 62.504 483.056 61.49C483.056 60.476 483.329 59.67 483.901 59.046C484.46 58.409 485.201 58.097 486.111 58.097ZM486.319 59.215C485.734 59.215 485.279 59.41 484.967 59.826C484.629 60.216 484.473 60.775 484.473 61.49C484.473 62.14 484.603 62.66 484.863 63.037C485.162 63.479 485.643 63.713 486.319 63.713C486.904 63.713 487.359 63.518 487.697 63.128C488.009 62.725 488.178 62.179 488.178 61.49C488.178 60.788 488.009 60.229 487.697 59.826C487.359 59.41 486.904 59.215 486.319 59.215ZM496.402 55.588C496.675 55.588 496.909 55.666 497.091 55.848C497.273 56.017 497.364 56.238 497.364 56.511C497.364 56.784 497.26 57.005 497.078 57.187C496.896 57.356 496.662 57.447 496.402 57.447C496.129 57.447 495.908 57.356 495.726 57.187C495.544 57.005 495.453 56.771 495.453 56.511C495.453 56.238 495.544 56.017 495.726 55.848C495.908 55.666 496.129 55.588 496.402 55.588ZM495.713 58.279H497.091V65H495.713V58.279ZM501.947 58.097C502.805 58.097 503.494 58.292 504.014 58.682C504.534 59.098 504.872 59.722 505.002 60.554H503.637C503.546 60.099 503.364 59.761 503.078 59.553C502.792 59.332 502.415 59.228 501.947 59.228C501.375 59.228 500.933 59.436 500.608 59.865C500.27 60.281 500.114 60.879 500.114 61.633C500.114 62.387 500.27 62.985 500.595 63.414C500.894 63.83 501.336 64.051 501.934 64.051C502.961 64.051 503.533 63.531 503.663 62.517H505.028C504.872 63.414 504.521 64.09 504.001 64.532C503.481 64.961 502.779 65.182 501.921 65.182C500.894 65.182 500.101 64.844 499.529 64.168C498.97 63.518 498.697 62.686 498.697 61.646C498.697 60.632 498.97 59.8 499.516 59.15C500.101 58.448 500.907 58.097 501.947 58.097ZM509.3 58.097C510.314 58.097 511.133 58.435 511.744 59.111C512.342 59.774 512.654 60.619 512.654 61.646C512.654 62.66 512.355 63.505 511.757 64.155C511.133 64.831 510.314 65.182 509.3 65.182C508.286 65.182 507.467 64.831 506.843 64.155C506.245 63.505 505.946 62.66 505.946 61.646C505.946 60.619 506.245 59.774 506.856 59.111C507.467 58.435 508.286 58.097 509.3 58.097ZM509.3 59.228C508.663 59.228 508.169 59.475 507.818 59.982C507.506 60.411 507.363 60.97 507.363 61.646C507.363 62.322 507.506 62.868 507.818 63.297C508.169 63.791 508.663 64.051 509.3 64.051C509.937 64.051 510.431 63.791 510.795 63.297C511.107 62.855 511.263 62.309 511.263 61.646C511.263 60.97 511.107 60.411 510.795 59.982C510.431 59.475 509.937 59.228 509.3 59.228ZM517.369 58.097C519.033 58.097 519.878 59.007 519.878 60.853V65H518.5V60.97C518.5 59.826 517.967 59.254 516.927 59.254C516.537 59.254 516.186 59.384 515.9 59.67C515.588 59.982 515.393 60.411 515.341 60.957V65H513.963V58.279H515.341V59.111C515.601 58.773 515.9 58.526 516.238 58.357C516.576 58.175 516.953 58.097 517.369 58.097Z" fill="#465BC7"/>
<path d="M641.5 48.5V71.5H541.5V48.5H641.5Z" stroke="#465BC7"/>
<path d="M553.603 55.718H561.208V56.927H558.114V65H556.71V56.927H553.603V55.718ZM565.318 58.097C565.656 58.097 565.955 58.149 566.189 58.266V59.644C565.851 59.54 565.526 59.501 565.214 59.501C564.798 59.501 564.421 59.67 564.096 60.008C563.745 60.372 563.576 60.853 563.576 61.438V65H562.198V58.279H563.576V59.293C563.745 58.929 563.966 58.656 564.226 58.474C564.538 58.214 564.902 58.097 565.318 58.097ZM570.064 58.097C571.052 58.097 571.78 58.344 572.248 58.838C572.651 59.267 572.859 59.891 572.859 60.71V65H571.585V64.051C571.325 64.389 571 64.662 570.61 64.857C570.168 65.065 569.648 65.182 569.05 65.182C568.348 65.182 567.802 65 567.412 64.649C566.983 64.298 566.775 63.843 566.775 63.284C566.775 62.53 567.074 61.945 567.672 61.542C568.218 61.152 568.998 60.957 569.986 60.931L571.494 60.892V60.619C571.494 59.683 570.987 59.215 569.973 59.215C569.544 59.215 569.193 59.293 568.933 59.449C568.621 59.631 568.426 59.904 568.348 60.281L566.983 60.164C567.126 59.436 567.49 58.89 568.062 58.552C568.556 58.24 569.232 58.097 570.064 58.097ZM571.494 61.893L570.077 61.932C568.816 61.958 568.192 62.4 568.192 63.232C568.192 63.492 568.296 63.7 568.517 63.869C568.725 64.038 569.011 64.129 569.362 64.129C569.947 64.129 570.441 63.947 570.857 63.596C571.273 63.245 571.494 62.803 571.494 62.283V61.893ZM575.412 55.588C575.685 55.588 575.919 55.666 576.101 55.848C576.283 56.017 576.374 56.238 576.374 56.511C576.374 56.784 576.27 57.005 576.088 57.187C575.906 57.356 575.672 57.447 575.412 57.447C575.139 57.447 574.918 57.356 574.736 57.187C574.554 57.005 574.463 56.771 574.463 56.511C574.463 56.238 574.554 56.017 574.736 55.848C574.918 55.666 575.139 55.588 575.412 55.588ZM574.723 58.279H576.101V65H574.723V58.279ZM578.122 55.536H579.5V65H578.122V55.536ZM582.191 55.588C582.464 55.588 582.698 55.666 582.88 55.848C583.062 56.017 583.153 56.238 583.153 56.511C583.153 56.784 583.049 57.005 582.867 57.187C582.685 57.356 582.451 57.447 582.191 57.447C581.918 57.447 581.697 57.356 581.515 57.187C581.333 57.005 581.242 56.771 581.242 56.511C581.242 56.238 581.333 56.017 581.515 55.848C581.697 55.666 581.918 55.588 582.191 55.588ZM581.502 58.279H582.88V65H581.502V58.279ZM588.151 58.097C589.815 58.097 590.66 59.007 590.66 60.853V65H589.282V60.97C589.282 59.826 588.749 59.254 587.709 59.254C587.319 59.254 586.968 59.384 586.682 59.67C586.37 59.982 586.175 60.411 586.123 60.957V65H584.745V58.279H586.123V59.111C586.383 58.773 586.682 58.526 587.02 58.357C587.358 58.175 587.735 58.097 588.151 58.097ZM595.031 58.097C595.915 58.097 596.591 58.448 597.085 59.176V58.279H598.463V64.558C598.463 66.69 597.41 67.756 595.33 67.756C594.394 67.756 593.679 67.574 593.185 67.223C592.691 66.859 592.392 66.313 592.262 65.572H593.64C593.718 65.962 593.874 66.248 594.134 66.417C594.381 66.573 594.784 66.664 595.33 66.664C596.5 66.664 597.085 66.027 597.085 64.766V63.726C596.591 64.467 595.915 64.844 595.031 64.844C594.121 64.844 593.38 64.532 592.821 63.921C592.249 63.31 591.976 62.504 591.976 61.49C591.976 60.476 592.249 59.67 592.821 59.046C593.38 58.409 594.121 58.097 595.031 58.097ZM595.239 59.215C594.654 59.215 594.199 59.41 593.887 59.826C593.549 60.216 593.393 60.775 593.393 61.49C593.393 62.14 593.523 62.66 593.783 63.037C594.082 63.479 594.563 63.713 595.239 63.713C595.824 63.713 596.279 63.518 596.617 63.128C596.929 62.725 597.098 62.179 597.098 61.49C597.098 60.788 596.929 60.229 596.617 59.826C596.279 59.41 595.824 59.215 595.239 59.215ZM605.322 55.588C605.595 55.588 605.829 55.666 606.011 55.848C606.193 56.017 606.284 56.238 606.284 56.511C606.284 56.784 606.18 57.005 605.998 57.187C605.816 57.356 605.582 57.447 605.322 57.447C605.049 57.447 604.828 57.356 604.646 57.187C604.464 57.005 604.373 56.771 604.373 56.511C604.373 56.238 604.464 56.017 604.646 55.848C604.828 55.666 605.049 55.588 605.322 55.588ZM604.633 58.279H606.011V65H604.633V58.279ZM610.866 58.097C611.724 58.097 612.413 58.292 612.933 58.682C613.453 59.098 613.791 59.722 613.921 60.554H612.556C612.465 60.099 612.283 59.761 611.997 59.553C611.711 59.332 611.334 59.228 610.866 59.228C610.294 59.228 609.852 59.436 609.527 59.865C609.189 60.281 609.033 60.879 609.033 61.633C609.033 62.387 609.189 62.985 609.514 63.414C609.813 63.83 610.255 64.051 610.853 64.051C611.88 64.051 612.452 63.531 612.582 62.517H613.947C613.791 63.414 613.44 64.09 612.92 64.532C612.4 64.961 611.698 65.182 610.84 65.182C609.813 65.182 609.02 64.844 608.448 64.168C607.889 63.518 607.616 62.686 607.616 61.646C607.616 60.632 607.889 59.8 608.435 59.15C609.02 58.448 609.826 58.097 610.866 58.097ZM618.219 58.097C619.233 58.097 620.052 58.435 620.663 59.111C621.261 59.774 621.573 60.619 621.573 61.646C621.573 62.66 621.274 63.505 620.676 64.155C620.052 64.831 619.233 65.182 618.219 65.182C617.205 65.182 616.386 64.831 615.762 64.155C615.164 63.505 614.865 62.66 614.865 61.646C614.865 60.619 615.164 59.774 615.775 59.111C616.386 58.435 617.205 58.097 618.219 58.097ZM618.219 59.228C617.582 59.228 617.088 59.475 616.737 59.982C616.425 60.411 616.282 60.97 616.282 61.646C616.282 62.322 616.425 62.868 616.737 63.297C617.088 63.791 617.582 64.051 618.219 64.051C618.856 64.051 619.35 63.791 619.714 63.297C620.026 62.855 620.182 62.309 620.182 61.646C620.182 60.97 620.026 60.411 619.714 59.982C619.35 59.475 618.856 59.228 618.219 59.228ZM626.288 58.097C627.952 58.097 628.797 59.007 628.797 60.853V65H627.419V60.97C627.419 59.826 626.886 59.254 625.846 59.254C625.456 59.254 625.105 59.384 624.819 59.67C624.507 59.982 624.312 60.411 624.26 60.957V65H622.882V58.279H624.26V59.111C624.52 58.773 624.819 58.526 625.157 58.357C625.495 58.175 625.872 58.097 626.288 58.097Z" fill="#465BC7"/>
<path d="M417.5 80.5V103.5H338.5V80.5H417.5Z" stroke="#465BC7"/>
<path d="M351.267 87.718H352.671V97H351.267V87.718ZM357.376 90.097C358.234 90.097 358.923 90.292 359.443 90.682C359.963 91.098 360.301 91.722 360.431 92.554H359.066C358.975 92.099 358.793 91.761 358.507 91.553C358.221 91.332 357.844 91.228 357.376 91.228C356.804 91.228 356.362 91.436 356.037 91.865C355.699 92.281 355.543 92.879 355.543 93.633C355.543 94.387 355.699 94.985 356.024 95.414C356.323 95.83 356.765 96.051 357.363 96.051C358.39 96.051 358.962 95.531 359.092 94.517H360.457C360.301 95.414 359.95 96.09 359.43 96.532C358.91 96.961 358.208 97.182 357.35 97.182C356.323 97.182 355.53 96.844 354.958 96.168C354.399 95.518 354.126 94.686 354.126 93.646C354.126 92.632 354.399 91.8 354.945 91.15C355.53 90.448 356.336 90.097 357.376 90.097ZM364.729 90.097C365.743 90.097 366.562 90.435 367.173 91.111C367.771 91.774 368.083 92.619 368.083 93.646C368.083 94.66 367.784 95.505 367.186 96.155C366.562 96.831 365.743 97.182 364.729 97.182C363.715 97.182 362.896 96.831 362.272 96.155C361.674 95.505 361.375 94.66 361.375 93.646C361.375 92.619 361.674 91.774 362.285 91.111C362.896 90.435 363.715 90.097 364.729 90.097ZM364.729 91.228C364.092 91.228 363.598 91.475 363.247 91.982C362.935 92.411 362.792 92.97 362.792 93.646C362.792 94.322 362.935 94.868 363.247 95.297C363.598 95.791 364.092 96.051 364.729 96.051C365.366 96.051 365.86 95.791 366.224 95.297C366.536 94.855 366.692 94.309 366.692 93.646C366.692 92.97 366.536 92.411 366.224 91.982C365.86 91.475 365.366 91.228 364.729 91.228ZM372.798 90.097C374.462 90.097 375.307 91.007 375.307 92.853V97H373.929V92.97C373.929 91.826 373.396 91.254 372.356 91.254C371.966 91.254 371.615 91.384 371.329 91.67C371.017 91.982 370.822 92.411 370.77 92.957V97H369.392V90.279H370.77V91.111C371.03 90.773 371.329 90.526 371.667 90.357C372.005 90.175 372.382 90.097 372.798 90.097ZM384.305 90.097C385.319 90.097 386.138 90.435 386.749 91.111C387.347 91.774 387.659 92.619 387.659 93.646C387.659 94.66 387.36 95.505 386.762 96.155C386.138 96.831 385.319 97.182 384.305 97.182C383.291 97.182 382.472 96.831 381.848 96.155C381.25 95.505 380.951 94.66 380.951 93.646C380.951 92.619 381.25 91.774 381.861 91.111C382.472 90.435 383.291 90.097 384.305 90.097ZM384.305 91.228C383.668 91.228 383.174 91.475 382.823 91.982C382.511 92.411 382.368 92.97 382.368 93.646C382.368 94.322 382.511 94.868 382.823 95.297C383.174 95.791 383.668 96.051 384.305 96.051C384.942 96.051 385.436 95.791 385.8 95.297C386.112 94.855 386.268 94.309 386.268 93.646C386.268 92.97 386.112 92.411 385.8 91.982C385.436 91.475 384.942 91.228 384.305 91.228ZM392.374 90.097C394.038 90.097 394.883 91.007 394.883 92.853V97H393.505V92.97C393.505 91.826 392.972 91.254 391.932 91.254C391.542 91.254 391.191 91.384 390.905 91.67C390.593 91.982 390.398 92.411 390.346 92.957V97H388.968V90.279H390.346V91.111C390.606 90.773 390.905 90.526 391.243 90.357C391.581 90.175 391.958 90.097 392.374 90.097ZM396.614 87.536H397.992V97H396.614V87.536ZM398.993 90.279H400.488L402.334 95.18L404.102 90.279H405.61L401.957 99.574H400.488L401.658 96.844L398.993 90.279Z" fill="#465BC7"/>
<path d="M503.5 80.5V103.5H426.5V80.5H503.5Z" stroke="#465BC7"/>
<path d="M442.62 87.536C443.699 87.536 444.544 87.757 445.155 88.225C445.805 88.706 446.169 89.447 446.26 90.461H444.856C444.726 89.863 444.492 89.421 444.128 89.161C443.764 88.888 443.244 88.758 442.542 88.758C441.931 88.758 441.463 88.849 441.138 89.031C440.735 89.239 440.54 89.577 440.54 90.045C440.54 90.461 440.761 90.786 441.229 91.033C441.437 91.15 441.97 91.345 442.841 91.605C444.089 91.995 444.908 92.294 445.272 92.515C446.065 92.996 446.468 93.659 446.468 94.517C446.468 95.349 446.143 95.999 445.493 96.48C444.843 96.948 443.933 97.182 442.763 97.182C441.632 97.182 440.748 96.948 440.111 96.506C439.344 95.96 438.928 95.102 438.85 93.932H440.254C440.358 94.66 440.618 95.193 441.034 95.505C441.411 95.791 441.983 95.934 442.763 95.934C443.465 95.934 444.024 95.804 444.44 95.57C444.856 95.336 445.064 95.011 445.064 94.595C445.064 94.075 444.765 93.672 444.18 93.373C443.972 93.269 443.361 93.061 442.334 92.749C441.19 92.385 440.488 92.138 440.202 91.982C439.487 91.553 439.136 90.929 439.136 90.123C439.136 89.304 439.474 88.667 440.163 88.199C440.813 87.757 441.632 87.536 442.62 87.536ZM451.024 90.097C452.012 90.097 452.779 90.448 453.351 91.15C453.871 91.8 454.131 92.632 454.131 93.672C454.131 94.66 453.871 95.479 453.364 96.129C452.818 96.831 452.051 97.182 451.089 97.182C450.257 97.182 449.581 96.792 449.035 96.012V99.574H447.657V90.279H448.944V91.085C449.412 90.422 450.114 90.097 451.024 90.097ZM450.816 91.215C450.218 91.215 449.75 91.449 449.425 91.93C449.139 92.346 448.996 92.905 448.996 93.594V93.711C448.996 94.426 449.165 95.011 449.529 95.453C449.841 95.856 450.257 96.064 450.777 96.064C451.453 96.064 451.947 95.843 452.272 95.401C452.558 94.985 452.714 94.413 452.714 93.672C452.714 92.931 452.571 92.359 452.311 91.943C451.986 91.449 451.492 91.215 450.816 91.215ZM455.583 87.536H456.961V97H455.583V87.536ZM459.652 87.588C459.925 87.588 460.159 87.666 460.341 87.848C460.523 88.017 460.614 88.238 460.614 88.511C460.614 88.784 460.51 89.005 460.328 89.187C460.146 89.356 459.912 89.447 459.652 89.447C459.379 89.447 459.158 89.356 458.976 89.187C458.794 89.005 458.703 88.771 458.703 88.511C458.703 88.238 458.794 88.017 458.976 87.848C459.158 87.666 459.379 87.588 459.652 87.588ZM458.963 90.279H460.341V97H458.963V90.279ZM464.247 88.108V90.279H465.781V91.423H464.247V95.323C464.247 95.505 464.286 95.635 464.364 95.726C464.442 95.804 464.559 95.856 464.728 95.856H465.612V97H464.507C463.935 97 463.506 96.844 463.246 96.545C462.986 96.259 462.869 95.856 462.869 95.323V91.423H461.621V90.279H462.869V88.68L464.247 88.108ZM471.35 87.718H475.588C476.498 87.718 477.2 87.926 477.72 88.368C478.214 88.784 478.461 89.343 478.461 90.058C478.461 90.578 478.331 91.02 478.071 91.384C477.811 91.722 477.46 91.982 476.992 92.151C477.603 92.268 478.071 92.515 478.383 92.892C478.695 93.269 478.851 93.776 478.851 94.4C478.851 95.336 478.526 96.012 477.889 96.454C477.343 96.818 476.576 97 475.588 97H471.35V87.718ZM472.767 88.888V91.657H475.211C475.861 91.657 476.329 91.54 476.615 91.319C476.901 91.085 477.044 90.721 477.044 90.227C477.044 89.759 476.901 89.421 476.615 89.213C476.329 88.992 475.861 88.888 475.237 88.888H472.767ZM472.767 92.814V95.83H475.393C475.991 95.83 476.459 95.726 476.797 95.544C477.213 95.297 477.434 94.907 477.434 94.374C477.434 93.828 477.265 93.425 476.94 93.178C476.615 92.931 476.108 92.814 475.432 92.814H472.767ZM482.186 88.108V90.279H483.72V91.423H482.186V95.323C482.186 95.505 482.225 95.635 482.303 95.726C482.381 95.804 482.498 95.856 482.667 95.856H483.551V97H482.446C481.874 97 481.445 96.844 481.185 96.545C480.925 96.259 480.808 95.856 480.808 95.323V91.423H479.56V90.279H480.808V88.68L482.186 88.108ZM488.235 90.097C489.899 90.097 490.744 91.007 490.744 92.853V97H489.366V92.97C489.366 91.826 488.833 91.254 487.793 91.254C487.403 91.254 487.052 91.384 486.766 91.67C486.454 91.982 486.259 92.411 486.207 92.957V97H484.829V90.279H486.207V91.111C486.467 90.773 486.766 90.526 487.104 90.357C487.442 90.175 487.819 90.097 488.235 90.097Z" fill="#465BC7"/>
<line x1="338" y1="111.5" x2="652" y2="111.5" stroke="black" stroke-opacity="0.1" stroke-dasharray="6 6"/>
<path d="M409.5 120.5V143.5H338.5V120.5H409.5Z" fill="#465BC7" fill-opacity="0.2"/>
<path d="M409.5 120.5V143.5H338.5V120.5H409.5Z" stroke="#465BC7"/>
<path d="M351.297 127.718H355.145C357.355 127.718 358.46 128.654 358.46 130.539C358.46 132.437 357.342 133.386 355.119 133.386H352.714V137H351.297V127.718ZM352.714 128.927V132.177H355.028C355.73 132.177 356.237 132.047 356.562 131.787C356.874 131.527 357.043 131.111 357.043 130.539C357.043 129.967 356.874 129.551 356.549 129.317C356.224 129.057 355.717 128.927 355.028 128.927H352.714ZM362.767 130.097C363.105 130.097 363.404 130.149 363.638 130.266V131.644C363.3 131.54 362.975 131.501 362.663 131.501C362.247 131.501 361.87 131.67 361.545 132.008C361.194 132.372 361.025 132.853 361.025 133.438V137H359.647V130.279H361.025V131.293C361.194 130.929 361.415 130.656 361.675 130.474C361.987 130.214 362.351 130.097 362.767 130.097ZM365.459 127.588C365.732 127.588 365.966 127.666 366.148 127.848C366.33 128.017 366.421 128.238 366.421 128.511C366.421 128.784 366.317 129.005 366.135 129.187C365.953 129.356 365.719 129.447 365.459 129.447C365.186 129.447 364.965 129.356 364.783 129.187C364.601 129.005 364.51 128.771 364.51 128.511C364.51 128.238 364.601 128.017 364.783 127.848C364.965 127.666 365.186 127.588 365.459 127.588ZM364.77 130.279H366.148V137H364.77V130.279ZM371.237 130.097C372.225 130.097 372.94 130.474 373.356 131.228C373.655 130.812 373.98 130.513 374.318 130.344C374.63 130.175 375.007 130.097 375.462 130.097C376.151 130.097 376.723 130.318 377.178 130.786C377.62 131.241 377.854 131.839 377.854 132.593V137H376.476V132.827C376.476 132.281 376.359 131.878 376.125 131.631C375.891 131.371 375.501 131.254 374.981 131.254C374.591 131.254 374.279 131.397 374.019 131.683C373.759 131.969 373.629 132.372 373.629 132.866V137H372.251V132.84C372.251 131.774 371.783 131.254 370.873 131.254C370.431 131.254 370.067 131.423 369.807 131.761C369.521 132.086 369.391 132.489 369.391 132.957V137H368.013V130.279H369.391V131.02C369.937 130.396 370.561 130.097 371.237 130.097ZM382.443 130.097C383.431 130.097 384.159 130.344 384.627 130.838C385.03 131.267 385.238 131.891 385.238 132.71V137H383.964V136.051C383.704 136.389 383.379 136.662 382.989 136.857C382.547 137.065 382.027 137.182 381.429 137.182C380.727 137.182 380.181 137 379.791 136.649C379.362 136.298 379.154 135.843 379.154 135.284C379.154 134.53 379.453 133.945 380.051 133.542C380.597 133.152 381.377 132.957 382.365 132.931L383.873 132.892V132.619C383.873 131.683 383.366 131.215 382.352 131.215C381.923 131.215 381.572 131.293 381.312 131.449C381 131.631 380.805 131.904 380.727 132.281L379.362 132.164C379.505 131.436 379.869 130.89 380.441 130.552C380.935 130.24 381.611 130.097 382.443 130.097ZM383.873 133.893L382.456 133.932C381.195 133.958 380.571 134.4 380.571 135.232C380.571 135.492 380.675 135.7 380.896 135.869C381.104 136.038 381.39 136.129 381.741 136.129C382.326 136.129 382.82 135.947 383.236 135.596C383.652 135.245 383.873 134.803 383.873 134.283V133.893ZM389.935 130.097C390.273 130.097 390.572 130.149 390.806 130.266V131.644C390.468 131.54 390.143 131.501 389.831 131.501C389.415 131.501 389.038 131.67 388.713 132.008C388.362 132.372 388.193 132.853 388.193 133.438V137H386.815V130.279H388.193V131.293C388.362 130.929 388.583 130.656 388.843 130.474C389.155 130.214 389.519 130.097 389.935 130.097ZM390.937 130.279H392.432L394.278 135.18L396.046 130.279H397.554L393.901 139.574H392.432L393.602 136.844L390.937 130.279Z" fill="#465BC7"/>
<path d="M506.5 120.5V143.5H418.5V120.5H506.5Z" stroke="#465BC7"/>
<path d="M434.16 127.536C435.239 127.536 436.084 127.757 436.695 128.225C437.345 128.706 437.709 129.447 437.8 130.461H436.396C436.266 129.863 436.032 129.421 435.668 129.161C435.304 128.888 434.784 128.758 434.082 128.758C433.471 128.758 433.003 128.849 432.678 129.031C432.275 129.239 432.08 129.577 432.08 130.045C432.08 130.461 432.301 130.786 432.769 131.033C432.977 131.15 433.51 131.345 434.381 131.605C435.629 131.995 436.448 132.294 436.812 132.515C437.605 132.996 438.008 133.659 438.008 134.517C438.008 135.349 437.683 135.999 437.033 136.48C436.383 136.948 435.473 137.182 434.303 137.182C433.172 137.182 432.288 136.948 431.651 136.506C430.884 135.96 430.468 135.102 430.39 133.932H431.794C431.898 134.66 432.158 135.193 432.574 135.505C432.951 135.791 433.523 135.934 434.303 135.934C435.005 135.934 435.564 135.804 435.98 135.57C436.396 135.336 436.604 135.011 436.604 134.595C436.604 134.075 436.305 133.672 435.72 133.373C435.512 133.269 434.901 133.061 433.874 132.749C432.73 132.385 432.028 132.138 431.742 131.982C431.027 131.553 430.676 130.929 430.676 130.123C430.676 129.304 431.014 128.667 431.703 128.199C432.353 127.757 433.172 127.536 434.16 127.536ZM442.044 130.097C443.136 130.097 443.981 130.461 444.553 131.215C445.073 131.891 445.346 132.827 445.359 134.023H440.263C440.315 134.673 440.484 135.18 440.796 135.531C441.108 135.869 441.537 136.051 442.083 136.051C442.564 136.051 442.954 135.934 443.253 135.713C443.487 135.531 443.682 135.232 443.864 134.842H445.242C445.086 135.466 444.787 135.999 444.319 136.415C443.734 136.922 442.993 137.182 442.096 137.182C441.108 137.182 440.315 136.87 439.743 136.259C439.119 135.609 438.807 134.738 438.807 133.633C438.807 132.632 439.093 131.8 439.691 131.124C440.263 130.435 441.056 130.097 442.044 130.097ZM442.083 131.228C441.563 131.228 441.16 131.371 440.848 131.683C440.562 131.982 440.367 132.411 440.289 132.983H443.916C443.786 131.813 443.175 131.228 442.083 131.228ZM449.525 130.097C450.383 130.097 451.072 130.292 451.592 130.682C452.112 131.098 452.45 131.722 452.58 132.554H451.215C451.124 132.099 450.942 131.761 450.656 131.553C450.37 131.332 449.993 131.228 449.525 131.228C448.953 131.228 448.511 131.436 448.186 131.865C447.848 132.281 447.692 132.879 447.692 133.633C447.692 134.387 447.848 134.985 448.173 135.414C448.472 135.83 448.914 136.051 449.512 136.051C450.539 136.051 451.111 135.531 451.241 134.517H452.606C452.45 135.414 452.099 136.09 451.579 136.532C451.059 136.961 450.357 137.182 449.499 137.182C448.472 137.182 447.679 136.844 447.107 136.168C446.548 135.518 446.275 134.686 446.275 133.646C446.275 132.632 446.548 131.8 447.094 131.15C447.679 130.448 448.485 130.097 449.525 130.097ZM456.878 130.097C457.892 130.097 458.711 130.435 459.322 131.111C459.92 131.774 460.232 132.619 460.232 133.646C460.232 134.66 459.933 135.505 459.335 136.155C458.711 136.831 457.892 137.182 456.878 137.182C455.864 137.182 455.045 136.831 454.421 136.155C453.823 135.505 453.524 134.66 453.524 133.646C453.524 132.619 453.823 131.774 454.434 131.111C455.045 130.435 455.864 130.097 456.878 130.097ZM456.878 131.228C456.241 131.228 455.747 131.475 455.396 131.982C455.084 132.411 454.941 132.97 454.941 133.646C454.941 134.322 455.084 134.868 455.396 135.297C455.747 135.791 456.241 136.051 456.878 136.051C457.515 136.051 458.009 135.791 458.373 135.297C458.685 134.855 458.841 134.309 458.841 133.646C458.841 132.97 458.685 132.411 458.373 131.982C458.009 131.475 457.515 131.228 456.878 131.228ZM464.947 130.097C466.611 130.097 467.456 131.007 467.456 132.853V137H466.078V132.97C466.078 131.826 465.545 131.254 464.505 131.254C464.115 131.254 463.764 131.384 463.478 131.67C463.166 131.982 462.971 132.411 462.919 132.957V137H461.541V130.279H462.919V131.111C463.179 130.773 463.478 130.526 463.816 130.357C464.154 130.175 464.531 130.097 464.947 130.097ZM473.867 127.536H475.245V137H473.958V136.194C473.49 136.844 472.788 137.182 471.878 137.182C470.89 137.182 470.11 136.831 469.551 136.129C469.031 135.479 468.771 134.634 468.771 133.607C468.771 132.619 469.018 131.8 469.538 131.15C470.084 130.448 470.851 130.097 471.813 130.097C472.632 130.097 473.321 130.487 473.867 131.28V127.536ZM472.125 131.215C471.449 131.215 470.942 131.436 470.617 131.904C470.331 132.294 470.188 132.866 470.188 133.607C470.188 134.348 470.318 134.92 470.591 135.336C470.903 135.817 471.41 136.064 472.086 136.064C472.684 136.064 473.139 135.817 473.477 135.349C473.763 134.92 473.906 134.374 473.906 133.698V133.581C473.906 132.853 473.724 132.268 473.386 131.826C473.048 131.41 472.632 131.215 472.125 131.215ZM479.83 130.097C480.818 130.097 481.546 130.344 482.014 130.838C482.417 131.267 482.625 131.891 482.625 132.71V137H481.351V136.051C481.091 136.389 480.766 136.662 480.376 136.857C479.934 137.065 479.414 137.182 478.816 137.182C478.114 137.182 477.568 137 477.178 136.649C476.749 136.298 476.541 135.843 476.541 135.284C476.541 134.53 476.84 133.945 477.438 133.542C477.984 133.152 478.764 132.957 479.752 132.931L481.26 132.892V132.619C481.26 131.683 480.753 131.215 479.739 131.215C479.31 131.215 478.959 131.293 478.699 131.449C478.387 131.631 478.192 131.904 478.114 132.281L476.749 132.164C476.892 131.436 477.256 130.89 477.828 130.552C478.322 130.24 478.998 130.097 479.83 130.097ZM481.26 133.893L479.843 133.932C478.582 133.958 477.958 134.4 477.958 135.232C477.958 135.492 478.062 135.7 478.283 135.869C478.491 136.038 478.777 136.129 479.128 136.129C479.713 136.129 480.207 135.947 480.623 135.596C481.039 135.245 481.26 134.803 481.26 134.283V133.893ZM487.322 130.097C487.66 130.097 487.959 130.149 488.193 130.266V131.644C487.855 131.54 487.53 131.501 487.218 131.501C486.802 131.501 486.425 131.67 486.1 132.008C485.749 132.372 485.58 132.853 485.58 133.438V137H484.202V130.279H485.58V131.293C485.749 130.929 485.97 130.656 486.23 130.474C486.542 130.214 486.906 130.097 487.322 130.097ZM488.324 130.279H489.819L491.665 135.18L493.433 130.279H494.941L491.288 139.574H489.819L490.989 136.844L488.324 130.279Z" fill="#465BC7"/>
<path d="M586.5 120.5V143.5H515.5V120.5H586.5Z" stroke="#465BC7"/>
<path d="M527.506 127.718H535.111V128.927H532.017V137H530.613V128.927H527.506V127.718ZM538.948 130.097C540.04 130.097 540.885 130.461 541.457 131.215C541.977 131.891 542.25 132.827 542.263 134.023H537.167C537.219 134.673 537.388 135.18 537.7 135.531C538.012 135.869 538.441 136.051 538.987 136.051C539.468 136.051 539.858 135.934 540.157 135.713C540.391 135.531 540.586 135.232 540.768 134.842H542.146C541.99 135.466 541.691 135.999 541.223 136.415C540.638 136.922 539.897 137.182 539 137.182C538.012 137.182 537.219 136.87 536.647 136.259C536.023 135.609 535.711 134.738 535.711 133.633C535.711 132.632 535.997 131.8 536.595 131.124C537.167 130.435 537.96 130.097 538.948 130.097ZM538.987 131.228C538.467 131.228 538.064 131.371 537.752 131.683C537.466 131.982 537.271 132.411 537.193 132.983H540.82C540.69 131.813 540.079 131.228 538.987 131.228ZM546.559 130.097C546.897 130.097 547.196 130.149 547.43 130.266V131.644C547.092 131.54 546.767 131.501 546.455 131.501C546.039 131.501 545.662 131.67 545.337 132.008C544.986 132.372 544.817 132.853 544.817 133.438V137H543.439V130.279H544.817V131.293C544.986 130.929 545.207 130.656 545.467 130.474C545.779 130.214 546.143 130.097 546.559 130.097ZM550.317 128.108V130.279H551.851V131.423H550.317V135.323C550.317 135.505 550.356 135.635 550.434 135.726C550.512 135.804 550.629 135.856 550.798 135.856H551.682V137H550.577C550.005 137 549.576 136.844 549.316 136.545C549.056 136.259 548.939 135.856 548.939 135.323V131.423H547.691V130.279H548.939V128.68L550.317 128.108ZM553.936 127.588C554.209 127.588 554.443 127.666 554.625 127.848C554.807 128.017 554.898 128.238 554.898 128.511C554.898 128.784 554.794 129.005 554.612 129.187C554.43 129.356 554.196 129.447 553.936 129.447C553.663 129.447 553.442 129.356 553.26 129.187C553.078 129.005 552.987 128.771 552.987 128.511C552.987 128.238 553.078 128.017 553.26 127.848C553.442 127.666 553.663 127.588 553.936 127.588ZM553.247 130.279H554.625V137H553.247V130.279ZM559.519 130.097C560.507 130.097 561.235 130.344 561.703 130.838C562.106 131.267 562.314 131.891 562.314 132.71V137H561.04V136.051C560.78 136.389 560.455 136.662 560.065 136.857C559.623 137.065 559.103 137.182 558.505 137.182C557.803 137.182 557.257 137 556.867 136.649C556.438 136.298 556.23 135.843 556.23 135.284C556.23 134.53 556.529 133.945 557.127 133.542C557.673 133.152 558.453 132.957 559.441 132.931L560.949 132.892V132.619C560.949 131.683 560.442 131.215 559.428 131.215C558.999 131.215 558.648 131.293 558.388 131.449C558.076 131.631 557.881 131.904 557.803 132.281L556.438 132.164C556.581 131.436 556.945 130.89 557.517 130.552C558.011 130.24 558.687 130.097 559.519 130.097ZM560.949 133.893L559.532 133.932C558.271 133.958 557.647 134.4 557.647 135.232C557.647 135.492 557.751 135.7 557.972 135.869C558.18 136.038 558.466 136.129 558.817 136.129C559.402 136.129 559.896 135.947 560.312 135.596C560.728 135.245 560.949 134.803 560.949 134.283V133.893ZM567.011 130.097C567.349 130.097 567.648 130.149 567.882 130.266V131.644C567.544 131.54 567.219 131.501 566.907 131.501C566.491 131.501 566.114 131.67 565.789 132.008C565.438 132.372 565.269 132.853 565.269 133.438V137H563.891V130.279H565.269V131.293C565.438 130.929 565.659 130.656 565.919 130.474C566.231 130.214 566.595 130.097 567.011 130.097ZM568.013 130.279H569.508L571.354 135.18L573.122 130.279H574.63L570.977 139.574H569.508L570.678 136.844L568.013 130.279Z" fill="#465BC7"/>
<path d="M344.526 168.517C344.526 169.072 344.392 169.544 344.123 169.934C343.854 170.315 343.469 170.61 342.966 170.818C342.472 171.026 341.887 171.13 341.211 171.13C340.864 171.13 340.531 171.113 340.21 171.078C339.898 171.043 339.612 170.996 339.352 170.935C339.092 170.866 338.862 170.783 338.663 170.688V169.57C338.975 169.709 339.361 169.834 339.82 169.947C340.288 170.06 340.769 170.116 341.263 170.116C341.722 170.116 342.108 170.055 342.42 169.934C342.732 169.813 342.966 169.639 343.122 169.414C343.278 169.189 343.356 168.924 343.356 168.621C343.356 168.318 343.291 168.062 343.161 167.854C343.031 167.646 342.806 167.455 342.485 167.282C342.173 167.1 341.735 166.909 341.172 166.71C340.773 166.563 340.422 166.407 340.119 166.242C339.824 166.069 339.577 165.874 339.378 165.657C339.179 165.44 339.027 165.193 338.923 164.916C338.828 164.639 338.78 164.318 338.78 163.954C338.78 163.46 338.906 163.04 339.157 162.693C339.408 162.338 339.755 162.065 340.197 161.874C340.648 161.683 341.163 161.588 341.744 161.588C342.255 161.588 342.723 161.636 343.148 161.731C343.573 161.826 343.958 161.952 344.305 162.108L343.941 163.109C343.62 162.97 343.269 162.853 342.888 162.758C342.515 162.663 342.125 162.615 341.718 162.615C341.328 162.615 341.003 162.671 340.743 162.784C340.483 162.897 340.288 163.057 340.158 163.265C340.028 163.464 339.963 163.698 339.963 163.967C339.963 164.279 340.028 164.539 340.158 164.747C340.288 164.955 340.5 165.141 340.795 165.306C341.09 165.471 341.488 165.648 341.991 165.839C342.537 166.038 342.996 166.255 343.369 166.489C343.75 166.714 344.036 166.987 344.227 167.308C344.426 167.629 344.526 168.032 344.526 168.517ZM347.384 164.032V171H346.24V164.032H347.384ZM346.825 161.419C346.998 161.419 347.15 161.48 347.28 161.601C347.418 161.714 347.488 161.896 347.488 162.147C347.488 162.39 347.418 162.572 347.28 162.693C347.15 162.814 346.998 162.875 346.825 162.875C346.634 162.875 346.474 162.814 346.344 162.693C346.214 162.572 346.149 162.39 346.149 162.147C346.149 161.896 346.214 161.714 346.344 161.601C346.474 161.48 346.634 161.419 346.825 161.419ZM354.089 171H348.993V170.246L352.737 164.916H349.214V164.032H353.998V164.89L350.306 170.116H354.089V171ZM358.389 163.902C358.987 163.902 359.498 164.032 359.923 164.292C360.356 164.552 360.685 164.92 360.911 165.397C361.145 165.865 361.262 166.415 361.262 167.048V167.737H356.491C356.508 168.526 356.707 169.128 357.089 169.544C357.479 169.951 358.02 170.155 358.714 170.155C359.156 170.155 359.546 170.116 359.884 170.038C360.23 169.951 360.586 169.83 360.95 169.674V170.675C360.594 170.831 360.243 170.944 359.897 171.013C359.55 171.091 359.138 171.13 358.662 171.13C358.003 171.13 357.418 170.996 356.907 170.727C356.404 170.458 356.01 170.06 355.724 169.531C355.446 168.994 355.308 168.339 355.308 167.568C355.308 166.805 355.433 166.151 355.685 165.605C355.945 165.059 356.304 164.639 356.764 164.344C357.232 164.049 357.773 163.902 358.389 163.902ZM358.376 164.838C357.83 164.838 357.396 165.016 357.076 165.371C356.764 165.718 356.577 166.203 356.517 166.827H360.066C360.066 166.428 360.005 166.082 359.884 165.787C359.762 165.492 359.576 165.263 359.325 165.098C359.082 164.925 358.766 164.838 358.376 164.838Z" fill="#161616"/>
<path d="M397.5 184.5V207.5H338.5V184.5H397.5Z" stroke="#465BC7"/>
<path d="M351.39 191.718H352.794V199.791H357.903V201H351.39V191.718ZM361.97 194.097C362.958 194.097 363.686 194.344 364.154 194.838C364.557 195.267 364.765 195.891 364.765 196.71V201H363.491V200.051C363.231 200.389 362.906 200.662 362.516 200.857C362.074 201.065 361.554 201.182 360.956 201.182C360.254 201.182 359.708 201 359.318 200.649C358.889 200.298 358.681 199.843 358.681 199.284C358.681 198.53 358.98 197.945 359.578 197.542C360.124 197.152 360.904 196.957 361.892 196.931L363.4 196.892V196.619C363.4 195.683 362.893 195.215 361.879 195.215C361.45 195.215 361.099 195.293 360.839 195.449C360.527 195.631 360.332 195.904 360.254 196.281L358.889 196.164C359.032 195.436 359.396 194.89 359.968 194.552C360.462 194.24 361.138 194.097 361.97 194.097ZM363.4 197.893L361.983 197.932C360.722 197.958 360.098 198.4 360.098 199.232C360.098 199.492 360.202 199.7 360.423 199.869C360.631 200.038 360.917 200.129 361.268 200.129C361.853 200.129 362.347 199.947 362.763 199.596C363.179 199.245 363.4 198.803 363.4 198.283V197.893ZM369.463 194.097C369.801 194.097 370.1 194.149 370.334 194.266V195.644C369.996 195.54 369.671 195.501 369.359 195.501C368.943 195.501 368.566 195.67 368.241 196.008C367.89 196.372 367.721 196.853 367.721 197.438V201H366.343V194.279H367.721V195.293C367.89 194.929 368.111 194.656 368.371 194.474C368.683 194.214 369.047 194.097 369.463 194.097ZM373.974 194.097C374.858 194.097 375.534 194.448 376.028 195.176V194.279H377.406V200.558C377.406 202.69 376.353 203.756 374.273 203.756C373.337 203.756 372.622 203.574 372.128 203.223C371.634 202.859 371.335 202.313 371.205 201.572H372.583C372.661 201.962 372.817 202.248 373.077 202.417C373.324 202.573 373.727 202.664 374.273 202.664C375.443 202.664 376.028 202.027 376.028 200.766V199.726C375.534 200.467 374.858 200.844 373.974 200.844C373.064 200.844 372.323 200.532 371.764 199.921C371.192 199.31 370.919 198.504 370.919 197.49C370.919 196.476 371.192 195.67 371.764 195.046C372.323 194.409 373.064 194.097 373.974 194.097ZM374.182 195.215C373.597 195.215 373.142 195.41 372.83 195.826C372.492 196.216 372.336 196.775 372.336 197.49C372.336 198.14 372.466 198.66 372.726 199.037C373.025 199.479 373.506 199.713 374.182 199.713C374.767 199.713 375.222 199.518 375.56 199.128C375.872 198.725 376.041 198.179 376.041 197.49C376.041 196.788 375.872 196.229 375.56 195.826C375.222 195.41 374.767 195.215 374.182 195.215ZM381.809 194.097C382.901 194.097 383.746 194.461 384.318 195.215C384.838 195.891 385.111 196.827 385.124 198.023H380.028C380.08 198.673 380.249 199.18 380.561 199.531C380.873 199.869 381.302 200.051 381.848 200.051C382.329 200.051 382.719 199.934 383.018 199.713C383.252 199.531 383.447 199.232 383.629 198.842H385.007C384.851 199.466 384.552 199.999 384.084 200.415C383.499 200.922 382.758 201.182 381.861 201.182C380.873 201.182 380.08 200.87 379.508 200.259C378.884 199.609 378.572 198.738 378.572 197.633C378.572 196.632 378.858 195.8 379.456 195.124C380.028 194.435 380.821 194.097 381.809 194.097ZM381.848 195.228C381.328 195.228 380.925 195.371 380.613 195.683C380.327 195.982 380.132 196.411 380.054 196.983H383.681C383.551 195.813 382.94 195.228 381.848 195.228Z" fill="#465BC7"/>
<path d="M479.5 184.5V207.5H406.5V184.5H479.5Z" fill="#465BC7" fill-opacity="0.2"/>
<path d="M479.5 184.5V207.5H406.5V184.5H479.5Z" stroke="#465BC7"/>
<path d="M419.3 191.718H420.977L424.214 199.154H424.253L427.477 191.718H429.154V201H427.737V194.37H427.685L424.838 201H423.616L420.769 194.37H420.717V201H419.3V191.718ZM433.697 194.097C434.789 194.097 435.634 194.461 436.206 195.215C436.726 195.891 436.999 196.827 437.012 198.023H431.916C431.968 198.673 432.137 199.18 432.449 199.531C432.761 199.869 433.19 200.051 433.736 200.051C434.217 200.051 434.607 199.934 434.906 199.713C435.14 199.531 435.335 199.232 435.517 198.842H436.895C436.739 199.466 436.44 199.999 435.972 200.415C435.387 200.922 434.646 201.182 433.749 201.182C432.761 201.182 431.968 200.87 431.396 200.259C430.772 199.609 430.46 198.738 430.46 197.633C430.46 196.632 430.746 195.8 431.344 195.124C431.916 194.435 432.709 194.097 433.697 194.097ZM433.736 195.228C433.216 195.228 432.813 195.371 432.501 195.683C432.215 195.982 432.02 196.411 431.942 196.983H435.569C435.439 195.813 434.828 195.228 433.736 195.228ZM443.024 191.536H444.402V201H443.115V200.194C442.647 200.844 441.945 201.182 441.035 201.182C440.047 201.182 439.267 200.831 438.708 200.129C438.188 199.479 437.928 198.634 437.928 197.607C437.928 196.619 438.175 195.8 438.695 195.15C439.241 194.448 440.008 194.097 440.97 194.097C441.789 194.097 442.478 194.487 443.024 195.28V191.536ZM441.282 195.215C440.606 195.215 440.099 195.436 439.774 195.904C439.488 196.294 439.345 196.866 439.345 197.607C439.345 198.348 439.475 198.92 439.748 199.336C440.06 199.817 440.567 200.064 441.243 200.064C441.841 200.064 442.296 199.817 442.634 199.349C442.92 198.92 443.063 198.374 443.063 197.698V197.581C443.063 196.853 442.881 196.268 442.543 195.826C442.205 195.41 441.789 195.215 441.282 195.215ZM446.932 191.588C447.205 191.588 447.439 191.666 447.621 191.848C447.803 192.017 447.894 192.238 447.894 192.511C447.894 192.784 447.79 193.005 447.608 193.187C447.426 193.356 447.192 193.447 446.932 193.447C446.659 193.447 446.438 193.356 446.256 193.187C446.074 193.005 445.983 192.771 445.983 192.511C445.983 192.238 446.074 192.017 446.256 191.848C446.438 191.666 446.659 191.588 446.932 191.588ZM446.243 194.279H447.621V201H446.243V194.279ZM449.487 194.279H450.865V198.374C450.865 198.946 450.982 199.362 451.229 199.622C451.463 199.882 451.853 200.025 452.386 200.025C452.75 200.025 453.075 199.869 453.387 199.583C453.699 199.284 453.92 198.881 454.037 198.387V194.279H455.415V201H454.037V200.09C453.465 200.818 452.763 201.182 451.918 201.182C450.293 201.182 449.487 200.272 449.487 198.465V194.279ZM460.213 194.097C461.201 194.097 461.916 194.474 462.332 195.228C462.631 194.812 462.956 194.513 463.294 194.344C463.606 194.175 463.983 194.097 464.438 194.097C465.127 194.097 465.699 194.318 466.154 194.786C466.596 195.241 466.83 195.839 466.83 196.593V201H465.452V196.827C465.452 196.281 465.335 195.878 465.101 195.631C464.867 195.371 464.477 195.254 463.957 195.254C463.567 195.254 463.255 195.397 462.995 195.683C462.735 195.969 462.605 196.372 462.605 196.866V201H461.227V196.84C461.227 195.774 460.759 195.254 459.849 195.254C459.407 195.254 459.043 195.423 458.783 195.761C458.497 196.086 458.367 196.489 458.367 196.957V201H456.989V194.279H458.367V195.02C458.913 194.396 459.537 194.097 460.213 194.097Z" fill="#465BC7"/>
<path d="M545.5 184.5V207.5H488.5V184.5H545.5Z" stroke="#465BC7"/>
<path d="M504.301 191.536C505.38 191.536 506.225 191.757 506.836 192.225C507.486 192.706 507.85 193.447 507.941 194.461H506.537C506.407 193.863 506.173 193.421 505.809 193.161C505.445 192.888 504.925 192.758 504.223 192.758C503.612 192.758 503.144 192.849 502.819 193.031C502.416 193.239 502.221 193.577 502.221 194.045C502.221 194.461 502.442 194.786 502.91 195.033C503.118 195.15 503.651 195.345 504.522 195.605C505.77 195.995 506.589 196.294 506.953 196.515C507.746 196.996 508.149 197.659 508.149 198.517C508.149 199.349 507.824 199.999 507.174 200.48C506.524 200.948 505.614 201.182 504.444 201.182C503.313 201.182 502.429 200.948 501.792 200.506C501.025 199.96 500.609 199.102 500.531 197.932H501.935C502.039 198.66 502.299 199.193 502.715 199.505C503.092 199.791 503.664 199.934 504.444 199.934C505.146 199.934 505.705 199.804 506.121 199.57C506.537 199.336 506.745 199.011 506.745 198.595C506.745 198.075 506.446 197.672 505.861 197.373C505.653 197.269 505.042 197.061 504.015 196.749C502.871 196.385 502.169 196.138 501.883 195.982C501.168 195.553 500.817 194.929 500.817 194.123C500.817 193.304 501.155 192.667 501.844 192.199C502.494 191.757 503.313 191.536 504.301 191.536ZM512.562 194.097C513.55 194.097 514.265 194.474 514.681 195.228C514.98 194.812 515.305 194.513 515.643 194.344C515.955 194.175 516.332 194.097 516.787 194.097C517.476 194.097 518.048 194.318 518.503 194.786C518.945 195.241 519.179 195.839 519.179 196.593V201H517.801V196.827C517.801 196.281 517.684 195.878 517.45 195.631C517.216 195.371 516.826 195.254 516.306 195.254C515.916 195.254 515.604 195.397 515.344 195.683C515.084 195.969 514.954 196.372 514.954 196.866V201H513.576V196.84C513.576 195.774 513.108 195.254 512.198 195.254C511.756 195.254 511.392 195.423 511.132 195.761C510.846 196.086 510.716 196.489 510.716 196.957V201H509.338V194.279H510.716V195.02C511.262 194.396 511.886 194.097 512.562 194.097ZM523.767 194.097C524.755 194.097 525.483 194.344 525.951 194.838C526.354 195.267 526.562 195.891 526.562 196.71V201H525.288V200.051C525.028 200.389 524.703 200.662 524.313 200.857C523.871 201.065 523.351 201.182 522.753 201.182C522.051 201.182 521.505 201 521.115 200.649C520.686 200.298 520.478 199.843 520.478 199.284C520.478 198.53 520.777 197.945 521.375 197.542C521.921 197.152 522.701 196.957 523.689 196.931L525.197 196.892V196.619C525.197 195.683 524.69 195.215 523.676 195.215C523.247 195.215 522.896 195.293 522.636 195.449C522.324 195.631 522.129 195.904 522.051 196.281L520.686 196.164C520.829 195.436 521.193 194.89 521.765 194.552C522.259 194.24 522.935 194.097 523.767 194.097ZM525.197 197.893L523.78 197.932C522.519 197.958 521.895 198.4 521.895 199.232C521.895 199.492 521.999 199.7 522.22 199.869C522.428 200.038 522.714 200.129 523.065 200.129C523.65 200.129 524.144 199.947 524.56 199.596C524.976 199.245 525.197 198.803 525.197 198.283V197.893ZM528.295 191.536H529.673V201H528.295V191.536ZM531.545 191.536H532.923V201H531.545V191.536Z" fill="#465BC7"/>
<path d="M344.526 232.517C344.526 233.072 344.392 233.544 344.123 233.934C343.854 234.315 343.469 234.61 342.966 234.818C342.472 235.026 341.887 235.13 341.211 235.13C340.864 235.13 340.531 235.113 340.21 235.078C339.898 235.043 339.612 234.996 339.352 234.935C339.092 234.866 338.862 234.783 338.663 234.688V233.57C338.975 233.709 339.361 233.834 339.82 233.947C340.288 234.06 340.769 234.116 341.263 234.116C341.722 234.116 342.108 234.055 342.42 233.934C342.732 233.813 342.966 233.639 343.122 233.414C343.278 233.189 343.356 232.924 343.356 232.621C343.356 232.318 343.291 232.062 343.161 231.854C343.031 231.646 342.806 231.455 342.485 231.282C342.173 231.1 341.735 230.909 341.172 230.71C340.773 230.563 340.422 230.407 340.119 230.242C339.824 230.069 339.577 229.874 339.378 229.657C339.179 229.44 339.027 229.193 338.923 228.916C338.828 228.639 338.78 228.318 338.78 227.954C338.78 227.46 338.906 227.04 339.157 226.693C339.408 226.338 339.755 226.065 340.197 225.874C340.648 225.683 341.163 225.588 341.744 225.588C342.255 225.588 342.723 225.636 343.148 225.731C343.573 225.826 343.958 225.952 344.305 226.108L343.941 227.109C343.62 226.97 343.269 226.853 342.888 226.758C342.515 226.663 342.125 226.615 341.718 226.615C341.328 226.615 341.003 226.671 340.743 226.784C340.483 226.897 340.288 227.057 340.158 227.265C340.028 227.464 339.963 227.698 339.963 227.967C339.963 228.279 340.028 228.539 340.158 228.747C340.288 228.955 340.5 229.141 340.795 229.306C341.09 229.471 341.488 229.648 341.991 229.839C342.537 230.038 342.996 230.255 343.369 230.489C343.75 230.714 344.036 230.987 344.227 231.308C344.426 231.629 344.526 232.032 344.526 232.517ZM348.567 234.194C348.74 234.194 348.918 234.181 349.1 234.155C349.282 234.12 349.429 234.086 349.542 234.051V234.922C349.42 234.983 349.247 235.03 349.022 235.065C348.796 235.108 348.58 235.13 348.372 235.13C348.008 235.13 347.67 235.069 347.358 234.948C347.054 234.818 346.807 234.597 346.617 234.285C346.426 233.973 346.331 233.535 346.331 232.972V228.916H345.343V228.37L346.344 227.915L346.799 226.433H347.475V228.032H349.49V228.916H347.475V232.946C347.475 233.371 347.574 233.687 347.774 233.895C347.982 234.094 348.246 234.194 348.567 234.194ZM353.576 227.915C354.425 227.915 355.054 228.101 355.461 228.474C355.868 228.847 356.072 229.44 356.072 230.255V235H355.24L355.019 234.012H354.967C354.768 234.263 354.56 234.476 354.343 234.649C354.135 234.814 353.892 234.935 353.615 235.013C353.346 235.091 353.017 235.13 352.627 235.13C352.211 235.13 351.834 235.056 351.496 234.909C351.167 234.762 350.907 234.536 350.716 234.233C350.525 233.921 350.43 233.531 350.43 233.063C350.43 232.37 350.703 231.837 351.249 231.464C351.795 231.083 352.636 230.875 353.771 230.84L354.954 230.801V230.385C354.954 229.804 354.828 229.401 354.577 229.176C354.326 228.951 353.97 228.838 353.511 228.838C353.147 228.838 352.8 228.894 352.471 229.007C352.142 229.111 351.834 229.232 351.548 229.371L351.197 228.513C351.5 228.348 351.86 228.21 352.276 228.097C352.692 227.976 353.125 227.915 353.576 227.915ZM353.914 231.633C353.047 231.668 352.445 231.806 352.107 232.049C351.778 232.292 351.613 232.634 351.613 233.076C351.613 233.466 351.73 233.752 351.964 233.934C352.207 234.116 352.514 234.207 352.887 234.207C353.476 234.207 353.966 234.047 354.356 233.726C354.746 233.397 354.941 232.894 354.941 232.218V231.594L353.914 231.633ZM360.551 234.194C360.724 234.194 360.902 234.181 361.084 234.155C361.266 234.12 361.413 234.086 361.526 234.051V234.922C361.405 234.983 361.231 235.03 361.006 235.065C360.781 235.108 360.564 235.13 360.356 235.13C359.992 235.13 359.654 235.069 359.342 234.948C359.039 234.818 358.792 234.597 358.601 234.285C358.41 233.973 358.315 233.535 358.315 232.972V228.916H357.327V228.37L358.328 227.915L358.783 226.433H359.459V228.032H361.474V228.916H359.459V232.946C359.459 233.371 359.559 233.687 359.758 233.895C359.966 234.094 360.23 234.194 360.551 234.194ZM365.612 227.902C366.21 227.902 366.722 228.032 367.146 228.292C367.58 228.552 367.909 228.92 368.134 229.397C368.368 229.865 368.485 230.415 368.485 231.048V231.737H363.714C363.732 232.526 363.931 233.128 364.312 233.544C364.702 233.951 365.244 234.155 365.937 234.155C366.379 234.155 366.769 234.116 367.107 234.038C367.454 233.951 367.809 233.83 368.173 233.674V234.675C367.818 234.831 367.467 234.944 367.12 235.013C366.774 235.091 366.362 235.13 365.885 235.13C365.227 235.13 364.642 234.996 364.13 234.727C363.628 234.458 363.233 234.06 362.947 233.531C362.67 232.994 362.531 232.339 362.531 231.568C362.531 230.805 362.657 230.151 362.908 229.605C363.168 229.059 363.528 228.639 363.987 228.344C364.455 228.049 364.997 227.902 365.612 227.902ZM365.599 228.838C365.053 228.838 364.62 229.016 364.299 229.371C363.987 229.718 363.801 230.203 363.74 230.827H367.289C367.289 230.428 367.229 230.082 367.107 229.787C366.986 229.492 366.8 229.263 366.548 229.098C366.306 228.925 365.989 228.838 365.599 228.838Z" fill="#161616"/>
<path d="M409.5 248.5V271.5H338.5V248.5H409.5Z" fill="#465BC7" fill-opacity="0.2"/>
<path d="M409.5 248.5V271.5H338.5V248.5H409.5Z" stroke="#465BC7"/>
<path d="M351.297 255.718H355.145C357.355 255.718 358.46 256.654 358.46 258.539C358.46 260.437 357.342 261.386 355.119 261.386H352.714V265H351.297V255.718ZM352.714 256.927V260.177H355.028C355.73 260.177 356.237 260.047 356.562 259.787C356.874 259.527 357.043 259.111 357.043 258.539C357.043 257.967 356.874 257.551 356.549 257.317C356.224 257.057 355.717 256.927 355.028 256.927H352.714ZM362.767 258.097C363.105 258.097 363.404 258.149 363.638 258.266V259.644C363.3 259.54 362.975 259.501 362.663 259.501C362.247 259.501 361.87 259.67 361.545 260.008C361.194 260.372 361.025 260.853 361.025 261.438V265H359.647V258.279H361.025V259.293C361.194 258.929 361.415 258.656 361.675 258.474C361.987 258.214 362.351 258.097 362.767 258.097ZM365.459 255.588C365.732 255.588 365.966 255.666 366.148 255.848C366.33 256.017 366.421 256.238 366.421 256.511C366.421 256.784 366.317 257.005 366.135 257.187C365.953 257.356 365.719 257.447 365.459 257.447C365.186 257.447 364.965 257.356 364.783 257.187C364.601 257.005 364.51 256.771 364.51 256.511C364.51 256.238 364.601 256.017 364.783 255.848C364.965 255.666 365.186 255.588 365.459 255.588ZM364.77 258.279H366.148V265H364.77V258.279ZM371.237 258.097C372.225 258.097 372.94 258.474 373.356 259.228C373.655 258.812 373.98 258.513 374.318 258.344C374.63 258.175 375.007 258.097 375.462 258.097C376.151 258.097 376.723 258.318 377.178 258.786C377.62 259.241 377.854 259.839 377.854 260.593V265H376.476V260.827C376.476 260.281 376.359 259.878 376.125 259.631C375.891 259.371 375.501 259.254 374.981 259.254C374.591 259.254 374.279 259.397 374.019 259.683C373.759 259.969 373.629 260.372 373.629 260.866V265H372.251V260.84C372.251 259.774 371.783 259.254 370.873 259.254C370.431 259.254 370.067 259.423 369.807 259.761C369.521 260.086 369.391 260.489 369.391 260.957V265H368.013V258.279H369.391V259.02C369.937 258.396 370.561 258.097 371.237 258.097ZM382.443 258.097C383.431 258.097 384.159 258.344 384.627 258.838C385.03 259.267 385.238 259.891 385.238 260.71V265H383.964V264.051C383.704 264.389 383.379 264.662 382.989 264.857C382.547 265.065 382.027 265.182 381.429 265.182C380.727 265.182 380.181 265 379.791 264.649C379.362 264.298 379.154 263.843 379.154 263.284C379.154 262.53 379.453 261.945 380.051 261.542C380.597 261.152 381.377 260.957 382.365 260.931L383.873 260.892V260.619C383.873 259.683 383.366 259.215 382.352 259.215C381.923 259.215 381.572 259.293 381.312 259.449C381 259.631 380.805 259.904 380.727 260.281L379.362 260.164C379.505 259.436 379.869 258.89 380.441 258.552C380.935 258.24 381.611 258.097 382.443 258.097ZM383.873 261.893L382.456 261.932C381.195 261.958 380.571 262.4 380.571 263.232C380.571 263.492 380.675 263.7 380.896 263.869C381.104 264.038 381.39 264.129 381.741 264.129C382.326 264.129 382.82 263.947 383.236 263.596C383.652 263.245 383.873 262.803 383.873 262.283V261.893ZM389.935 258.097C390.273 258.097 390.572 258.149 390.806 258.266V259.644C390.468 259.54 390.143 259.501 389.831 259.501C389.415 259.501 389.038 259.67 388.713 260.008C388.362 260.372 388.193 260.853 388.193 261.438V265H386.815V258.279H388.193V259.293C388.362 258.929 388.583 258.656 388.843 258.474C389.155 258.214 389.519 258.097 389.935 258.097ZM390.937 258.279H392.432L394.278 263.18L396.046 258.279H397.554L393.901 267.574H392.432L393.602 264.844L390.937 258.279Z" fill="#465BC7"/>
<path d="M506.5 248.5V271.5H418.5V248.5H506.5Z" stroke="#465BC7"/>
<path d="M434.16 255.536C435.239 255.536 436.084 255.757 436.695 256.225C437.345 256.706 437.709 257.447 437.8 258.461H436.396C436.266 257.863 436.032 257.421 435.668 257.161C435.304 256.888 434.784 256.758 434.082 256.758C433.471 256.758 433.003 256.849 432.678 257.031C432.275 257.239 432.08 257.577 432.08 258.045C432.08 258.461 432.301 258.786 432.769 259.033C432.977 259.15 433.51 259.345 434.381 259.605C435.629 259.995 436.448 260.294 436.812 260.515C437.605 260.996 438.008 261.659 438.008 262.517C438.008 263.349 437.683 263.999 437.033 264.48C436.383 264.948 435.473 265.182 434.303 265.182C433.172 265.182 432.288 264.948 431.651 264.506C430.884 263.96 430.468 263.102 430.39 261.932H431.794C431.898 262.66 432.158 263.193 432.574 263.505C432.951 263.791 433.523 263.934 434.303 263.934C435.005 263.934 435.564 263.804 435.98 263.57C436.396 263.336 436.604 263.011 436.604 262.595C436.604 262.075 436.305 261.672 435.72 261.373C435.512 261.269 434.901 261.061 433.874 260.749C432.73 260.385 432.028 260.138 431.742 259.982C431.027 259.553 430.676 258.929 430.676 258.123C430.676 257.304 431.014 256.667 431.703 256.199C432.353 255.757 433.172 255.536 434.16 255.536ZM442.044 258.097C443.136 258.097 443.981 258.461 444.553 259.215C445.073 259.891 445.346 260.827 445.359 262.023H440.263C440.315 262.673 440.484 263.18 440.796 263.531C441.108 263.869 441.537 264.051 442.083 264.051C442.564 264.051 442.954 263.934 443.253 263.713C443.487 263.531 443.682 263.232 443.864 262.842H445.242C445.086 263.466 444.787 263.999 444.319 264.415C443.734 264.922 442.993 265.182 442.096 265.182C441.108 265.182 440.315 264.87 439.743 264.259C439.119 263.609 438.807 262.738 438.807 261.633C438.807 260.632 439.093 259.8 439.691 259.124C440.263 258.435 441.056 258.097 442.044 258.097ZM442.083 259.228C441.563 259.228 441.16 259.371 440.848 259.683C440.562 259.982 440.367 260.411 440.289 260.983H443.916C443.786 259.813 443.175 259.228 442.083 259.228ZM449.525 258.097C450.383 258.097 451.072 258.292 451.592 258.682C452.112 259.098 452.45 259.722 452.58 260.554H451.215C451.124 260.099 450.942 259.761 450.656 259.553C450.37 259.332 449.993 259.228 449.525 259.228C448.953 259.228 448.511 259.436 448.186 259.865C447.848 260.281 447.692 260.879 447.692 261.633C447.692 262.387 447.848 262.985 448.173 263.414C448.472 263.83 448.914 264.051 449.512 264.051C450.539 264.051 451.111 263.531 451.241 262.517H452.606C452.45 263.414 452.099 264.09 451.579 264.532C451.059 264.961 450.357 265.182 449.499 265.182C448.472 265.182 447.679 264.844 447.107 264.168C446.548 263.518 446.275 262.686 446.275 261.646C446.275 260.632 446.548 259.8 447.094 259.15C447.679 258.448 448.485 258.097 449.525 258.097ZM456.878 258.097C457.892 258.097 458.711 258.435 459.322 259.111C459.92 259.774 460.232 260.619 460.232 261.646C460.232 262.66 459.933 263.505 459.335 264.155C458.711 264.831 457.892 265.182 456.878 265.182C455.864 265.182 455.045 264.831 454.421 264.155C453.823 263.505 453.524 262.66 453.524 261.646C453.524 260.619 453.823 259.774 454.434 259.111C455.045 258.435 455.864 258.097 456.878 258.097ZM456.878 259.228C456.241 259.228 455.747 259.475 455.396 259.982C455.084 260.411 454.941 260.97 454.941 261.646C454.941 262.322 455.084 262.868 455.396 263.297C455.747 263.791 456.241 264.051 456.878 264.051C457.515 264.051 458.009 263.791 458.373 263.297C458.685 262.855 458.841 262.309 458.841 261.646C458.841 260.97 458.685 260.411 458.373 259.982C458.009 259.475 457.515 259.228 456.878 259.228ZM464.947 258.097C466.611 258.097 467.456 259.007 467.456 260.853V265H466.078V260.97C466.078 259.826 465.545 259.254 464.505 259.254C464.115 259.254 463.764 259.384 463.478 259.67C463.166 259.982 462.971 260.411 462.919 260.957V265H461.541V258.279H462.919V259.111C463.179 258.773 463.478 258.526 463.816 258.357C464.154 258.175 464.531 258.097 464.947 258.097ZM473.867 255.536H475.245V265H473.958V264.194C473.49 264.844 472.788 265.182 471.878 265.182C470.89 265.182 470.11 264.831 469.551 264.129C469.031 263.479 468.771 262.634 468.771 261.607C468.771 260.619 469.018 259.8 469.538 259.15C470.084 258.448 470.851 258.097 471.813 258.097C472.632 258.097 473.321 258.487 473.867 259.28V255.536ZM472.125 259.215C471.449 259.215 470.942 259.436 470.617 259.904C470.331 260.294 470.188 260.866 470.188 261.607C470.188 262.348 470.318 262.92 470.591 263.336C470.903 263.817 471.41 264.064 472.086 264.064C472.684 264.064 473.139 263.817 473.477 263.349C473.763 262.92 473.906 262.374 473.906 261.698V261.581C473.906 260.853 473.724 260.268 473.386 259.826C473.048 259.41 472.632 259.215 472.125 259.215ZM479.83 258.097C480.818 258.097 481.546 258.344 482.014 258.838C482.417 259.267 482.625 259.891 482.625 260.71V265H481.351V264.051C481.091 264.389 480.766 264.662 480.376 264.857C479.934 265.065 479.414 265.182 478.816 265.182C478.114 265.182 477.568 265 477.178 264.649C476.749 264.298 476.541 263.843 476.541 263.284C476.541 262.53 476.84 261.945 477.438 261.542C477.984 261.152 478.764 260.957 479.752 260.931L481.26 260.892V260.619C481.26 259.683 480.753 259.215 479.739 259.215C479.31 259.215 478.959 259.293 478.699 259.449C478.387 259.631 478.192 259.904 478.114 260.281L476.749 260.164C476.892 259.436 477.256 258.89 477.828 258.552C478.322 258.24 478.998 258.097 479.83 258.097ZM481.26 261.893L479.843 261.932C478.582 261.958 477.958 262.4 477.958 263.232C477.958 263.492 478.062 263.7 478.283 263.869C478.491 264.038 478.777 264.129 479.128 264.129C479.713 264.129 480.207 263.947 480.623 263.596C481.039 263.245 481.26 262.803 481.26 262.283V261.893ZM487.322 258.097C487.66 258.097 487.959 258.149 488.193 258.266V259.644C487.855 259.54 487.53 259.501 487.218 259.501C486.802 259.501 486.425 259.67 486.1 260.008C485.749 260.372 485.58 260.853 485.58 261.438V265H484.202V258.279H485.58V259.293C485.749 258.929 485.97 258.656 486.23 258.474C486.542 258.214 486.906 258.097 487.322 258.097ZM488.324 258.279H489.819L491.665 263.18L493.433 258.279H494.941L491.288 267.574H489.819L490.989 264.844L488.324 258.279Z" fill="#465BC7"/>
<path d="M583.5 248.5V271.5H515.5V248.5H583.5Z" stroke="#465BC7"/>
<path d="M528.327 255.718H531.707C533.202 255.718 534.333 256.134 535.113 256.979C535.841 257.759 536.205 258.89 536.205 260.359C536.205 261.815 535.828 262.946 535.087 263.752C534.307 264.584 533.176 265 531.681 265H528.327V255.718ZM529.744 256.927V263.791H531.421C532.591 263.791 533.462 263.505 534.008 262.946C534.541 262.387 534.814 261.529 534.814 260.359C534.814 259.163 534.541 258.305 534.021 257.759C533.475 257.2 532.617 256.927 531.447 256.927H529.744ZM540.544 258.097C541.532 258.097 542.26 258.344 542.728 258.838C543.131 259.267 543.339 259.891 543.339 260.71V265H542.065V264.051C541.805 264.389 541.48 264.662 541.09 264.857C540.648 265.065 540.128 265.182 539.53 265.182C538.828 265.182 538.282 265 537.892 264.649C537.463 264.298 537.255 263.843 537.255 263.284C537.255 262.53 537.554 261.945 538.152 261.542C538.698 261.152 539.478 260.957 540.466 260.931L541.974 260.892V260.619C541.974 259.683 541.467 259.215 540.453 259.215C540.024 259.215 539.673 259.293 539.413 259.449C539.101 259.631 538.906 259.904 538.828 260.281L537.463 260.164C537.606 259.436 537.97 258.89 538.542 258.552C539.036 258.24 539.712 258.097 540.544 258.097ZM541.974 261.893L540.557 261.932C539.296 261.958 538.672 262.4 538.672 263.232C538.672 263.492 538.776 263.7 538.997 263.869C539.205 264.038 539.491 264.129 539.842 264.129C540.427 264.129 540.921 263.947 541.337 263.596C541.753 263.245 541.974 262.803 541.974 262.283V261.893ZM548.322 258.097C549.986 258.097 550.831 259.007 550.831 260.853V265H549.453V260.97C549.453 259.826 548.92 259.254 547.88 259.254C547.49 259.254 547.139 259.384 546.853 259.67C546.541 259.982 546.346 260.411 546.294 260.957V265H544.916V258.279H546.294V259.111C546.554 258.773 546.853 258.526 547.191 258.357C547.529 258.175 547.906 258.097 548.322 258.097ZM555.201 258.097C556.085 258.097 556.761 258.448 557.255 259.176V258.279H558.633V264.558C558.633 266.69 557.58 267.756 555.5 267.756C554.564 267.756 553.849 267.574 553.355 267.223C552.861 266.859 552.562 266.313 552.432 265.572H553.81C553.888 265.962 554.044 266.248 554.304 266.417C554.551 266.573 554.954 266.664 555.5 266.664C556.67 266.664 557.255 266.027 557.255 264.766V263.726C556.761 264.467 556.085 264.844 555.201 264.844C554.291 264.844 553.55 264.532 552.991 263.921C552.419 263.31 552.146 262.504 552.146 261.49C552.146 260.476 552.419 259.67 552.991 259.046C553.55 258.409 554.291 258.097 555.201 258.097ZM555.409 259.215C554.824 259.215 554.369 259.41 554.057 259.826C553.719 260.216 553.563 260.775 553.563 261.49C553.563 262.14 553.693 262.66 553.953 263.037C554.252 263.479 554.733 263.713 555.409 263.713C555.994 263.713 556.449 263.518 556.787 263.128C557.099 262.725 557.268 262.179 557.268 261.49C557.268 260.788 557.099 260.229 556.787 259.826C556.449 259.41 555.994 259.215 555.409 259.215ZM563.036 258.097C564.128 258.097 564.973 258.461 565.545 259.215C566.065 259.891 566.338 260.827 566.351 262.023H561.255C561.307 262.673 561.476 263.18 561.788 263.531C562.1 263.869 562.529 264.051 563.075 264.051C563.556 264.051 563.946 263.934 564.245 263.713C564.479 263.531 564.674 263.232 564.856 262.842H566.234C566.078 263.466 565.779 263.999 565.311 264.415C564.726 264.922 563.985 265.182 563.088 265.182C562.1 265.182 561.307 264.87 560.735 264.259C560.111 263.609 559.799 262.738 559.799 261.633C559.799 260.632 560.085 259.8 560.683 259.124C561.255 258.435 562.048 258.097 563.036 258.097ZM563.075 259.228C562.555 259.228 562.152 259.371 561.84 259.683C561.554 259.982 561.359 260.411 561.281 260.983H564.908C564.778 259.813 564.167 259.228 563.075 259.228ZM570.647 258.097C570.985 258.097 571.284 258.149 571.518 258.266V259.644C571.18 259.54 570.855 259.501 570.543 259.501C570.127 259.501 569.75 259.67 569.425 260.008C569.074 260.372 568.905 260.853 568.905 261.438V265H567.527V258.279H568.905V259.293C569.074 258.929 569.295 258.656 569.555 258.474C569.867 258.214 570.231 258.097 570.647 258.097Z" fill="#465BC7"/>
<line x1="338" y1="279.5" x2="652" y2="279.5" stroke="black" stroke-opacity="0.1" stroke-dasharray="6 6"/>
<path d="M411.5 288.5V311.5H338.5V288.5H411.5Z" fill="#465BC7" fill-opacity="0.2"/>
<path d="M411.5 288.5V311.5H338.5V288.5H411.5Z" stroke="#465BC7"/>
<path d="M351.237 295.718H357.906V296.927H352.654V299.631H357.594V300.84H352.654V303.791H358.127V305H351.237V295.718ZM362.841 298.097C364.505 298.097 365.35 299.007 365.35 300.853V305H363.972V300.97C363.972 299.826 363.439 299.254 362.399 299.254C362.009 299.254 361.658 299.384 361.372 299.67C361.06 299.982 360.865 300.411 360.813 300.957V305H359.435V298.279H360.813V299.111C361.073 298.773 361.372 298.526 361.71 298.357C362.048 298.175 362.425 298.097 362.841 298.097ZM369.954 298.097C370.942 298.097 371.67 298.344 372.138 298.838C372.541 299.267 372.749 299.891 372.749 300.71V305H371.475V304.051C371.215 304.389 370.89 304.662 370.5 304.857C370.058 305.065 369.538 305.182 368.94 305.182C368.238 305.182 367.692 305 367.302 304.649C366.873 304.298 366.665 303.843 366.665 303.284C366.665 302.53 366.964 301.945 367.562 301.542C368.108 301.152 368.888 300.957 369.876 300.931L371.384 300.892V300.619C371.384 299.683 370.877 299.215 369.863 299.215C369.434 299.215 369.083 299.293 368.823 299.449C368.511 299.631 368.316 299.904 368.238 300.281L366.873 300.164C367.016 299.436 367.38 298.89 367.952 298.552C368.446 298.24 369.122 298.097 369.954 298.097ZM371.384 301.893L369.967 301.932C368.706 301.958 368.082 302.4 368.082 303.232C368.082 303.492 368.186 303.7 368.407 303.869C368.615 304.038 368.901 304.129 369.252 304.129C369.837 304.129 370.331 303.947 370.747 303.596C371.163 303.245 371.384 302.803 371.384 302.283V301.893ZM374.326 295.536H375.704V299.28C376.25 298.487 376.926 298.097 377.758 298.097C378.72 298.097 379.474 298.448 380.033 299.15C380.54 299.8 380.8 300.619 380.8 301.607C380.8 302.634 380.54 303.479 380.02 304.129C379.448 304.831 378.681 305.182 377.693 305.182C376.77 305.182 376.081 304.844 375.613 304.194V305H374.326V295.536ZM377.446 299.215C376.926 299.215 376.51 299.41 376.198 299.826C375.834 300.268 375.665 300.853 375.665 301.581V301.698C375.665 302.374 375.808 302.92 376.094 303.349C376.419 303.817 376.887 304.064 377.485 304.064C378.161 304.064 378.655 303.817 378.98 303.336C379.24 302.92 379.383 302.348 379.383 301.607C379.383 300.866 379.24 300.294 378.954 299.904C378.629 299.436 378.122 299.215 377.446 299.215ZM382.252 295.536H383.63V305H382.252V295.536ZM388.193 298.097C389.285 298.097 390.13 298.461 390.702 299.215C391.222 299.891 391.495 300.827 391.508 302.023H386.412C386.464 302.673 386.633 303.18 386.945 303.531C387.257 303.869 387.686 304.051 388.232 304.051C388.713 304.051 389.103 303.934 389.402 303.713C389.636 303.531 389.831 303.232 390.013 302.842H391.391C391.235 303.466 390.936 303.999 390.468 304.415C389.883 304.922 389.142 305.182 388.245 305.182C387.257 305.182 386.464 304.87 385.892 304.259C385.268 303.609 384.956 302.738 384.956 301.633C384.956 300.632 385.242 299.8 385.84 299.124C386.412 298.435 387.205 298.097 388.193 298.097ZM388.232 299.228C387.712 299.228 387.309 299.371 386.997 299.683C386.711 299.982 386.516 300.411 386.438 300.983H390.065C389.935 299.813 389.324 299.228 388.232 299.228ZM397.52 295.536H398.898V305H397.611V304.194C397.143 304.844 396.441 305.182 395.531 305.182C394.543 305.182 393.763 304.831 393.204 304.129C392.684 303.479 392.424 302.634 392.424 301.607C392.424 300.619 392.671 299.8 393.191 299.15C393.737 298.448 394.504 298.097 395.466 298.097C396.285 298.097 396.974 298.487 397.52 299.28V295.536ZM395.778 299.215C395.102 299.215 394.595 299.436 394.27 299.904C393.984 300.294 393.841 300.866 393.841 301.607C393.841 302.348 393.971 302.92 394.244 303.336C394.556 303.817 395.063 304.064 395.739 304.064C396.337 304.064 396.792 303.817 397.13 303.349C397.416 302.92 397.559 302.374 397.559 301.698V301.581C397.559 300.853 397.377 300.268 397.039 299.826C396.701 299.41 396.285 299.215 395.778 299.215Z" fill="#465BC7"/>
<path d="M497.5 288.5V311.5H420.5V288.5H497.5Z" stroke="#465BC7"/>
<path d="M433.345 295.718H436.725C438.22 295.718 439.351 296.134 440.131 296.979C440.859 297.759 441.223 298.89 441.223 300.359C441.223 301.815 440.846 302.946 440.105 303.752C439.325 304.584 438.194 305 436.699 305H433.345V295.718ZM434.762 296.927V303.791H436.439C437.609 303.791 438.48 303.505 439.026 302.946C439.559 302.387 439.832 301.529 439.832 300.359C439.832 299.163 439.559 298.305 439.039 297.759C438.493 297.2 437.635 296.927 436.465 296.927H434.762ZM443.508 295.588C443.781 295.588 444.015 295.666 444.197 295.848C444.379 296.017 444.47 296.238 444.47 296.511C444.47 296.784 444.366 297.005 444.184 297.187C444.002 297.356 443.768 297.447 443.508 297.447C443.235 297.447 443.014 297.356 442.832 297.187C442.65 297.005 442.559 296.771 442.559 296.511C442.559 296.238 442.65 296.017 442.832 295.848C443.014 295.666 443.235 295.588 443.508 295.588ZM442.819 298.279H444.197V305H442.819V298.279ZM448.572 298.097C450.314 298.097 451.276 298.799 451.432 300.216H450.093C449.989 299.852 449.833 299.605 449.612 299.462C449.378 299.306 449.014 299.228 448.546 299.228C448.13 299.228 447.818 299.28 447.61 299.41C447.363 299.54 447.246 299.748 447.246 300.008C447.246 300.242 447.428 300.437 447.792 300.606C448.026 300.71 448.468 300.84 449.144 301.009C449.911 301.191 450.483 301.412 450.847 301.646C451.38 301.984 451.653 302.452 451.653 303.05C451.653 304.467 450.652 305.182 448.663 305.182C446.817 305.182 445.829 304.389 445.673 302.829H447.025C447.103 303.284 447.272 303.609 447.506 303.791C447.74 303.96 448.104 304.051 448.624 304.051C449.69 304.051 450.236 303.739 450.236 303.141C450.236 302.816 450.028 302.556 449.638 302.374C449.43 302.27 448.975 302.14 448.286 301.984C447.493 301.802 446.934 301.607 446.622 301.399C446.102 301.074 445.842 300.619 445.842 300.047C445.842 299.436 446.089 298.955 446.596 298.617C447.103 298.266 447.766 298.097 448.572 298.097ZM455.846 298.097C456.834 298.097 457.562 298.344 458.03 298.838C458.433 299.267 458.641 299.891 458.641 300.71V305H457.367V304.051C457.107 304.389 456.782 304.662 456.392 304.857C455.95 305.065 455.43 305.182 454.832 305.182C454.13 305.182 453.584 305 453.194 304.649C452.765 304.298 452.557 303.843 452.557 303.284C452.557 302.53 452.856 301.945 453.454 301.542C454 301.152 454.78 300.957 455.768 300.931L457.276 300.892V300.619C457.276 299.683 456.769 299.215 455.755 299.215C455.326 299.215 454.975 299.293 454.715 299.449C454.403 299.631 454.208 299.904 454.13 300.281L452.765 300.164C452.908 299.436 453.272 298.89 453.844 298.552C454.338 298.24 455.014 298.097 455.846 298.097ZM457.276 301.893L455.859 301.932C454.598 301.958 453.974 302.4 453.974 303.232C453.974 303.492 454.078 303.7 454.299 303.869C454.507 304.038 454.793 304.129 455.144 304.129C455.729 304.129 456.223 303.947 456.639 303.596C457.055 303.245 457.276 302.803 457.276 302.283V301.893ZM460.218 295.536H461.596V299.28C462.142 298.487 462.818 298.097 463.65 298.097C464.612 298.097 465.366 298.448 465.925 299.15C466.432 299.8 466.692 300.619 466.692 301.607C466.692 302.634 466.432 303.479 465.912 304.129C465.34 304.831 464.573 305.182 463.585 305.182C462.662 305.182 461.973 304.844 461.505 304.194V305H460.218V295.536ZM463.338 299.215C462.818 299.215 462.402 299.41 462.09 299.826C461.726 300.268 461.557 300.853 461.557 301.581V301.698C461.557 302.374 461.7 302.92 461.986 303.349C462.311 303.817 462.779 304.064 463.377 304.064C464.053 304.064 464.547 303.817 464.872 303.336C465.132 302.92 465.275 302.348 465.275 301.607C465.275 300.866 465.132 300.294 464.846 299.904C464.521 299.436 464.014 299.215 463.338 299.215ZM468.144 295.536H469.522V305H468.144V295.536ZM474.085 298.097C475.177 298.097 476.022 298.461 476.594 299.215C477.114 299.891 477.387 300.827 477.4 302.023H472.304C472.356 302.673 472.525 303.18 472.837 303.531C473.149 303.869 473.578 304.051 474.124 304.051C474.605 304.051 474.995 303.934 475.294 303.713C475.528 303.531 475.723 303.232 475.905 302.842H477.283C477.127 303.466 476.828 303.999 476.36 304.415C475.775 304.922 475.034 305.182 474.137 305.182C473.149 305.182 472.356 304.87 471.784 304.259C471.16 303.609 470.848 302.738 470.848 301.633C470.848 300.632 471.134 299.8 471.732 299.124C472.304 298.435 473.097 298.097 474.085 298.097ZM474.124 299.228C473.604 299.228 473.201 299.371 472.889 299.683C472.603 299.982 472.408 300.411 472.33 300.983H475.957C475.827 299.813 475.216 299.228 474.124 299.228ZM483.411 295.536H484.789V305H483.502V304.194C483.034 304.844 482.332 305.182 481.422 305.182C480.434 305.182 479.654 304.831 479.095 304.129C478.575 303.479 478.315 302.634 478.315 301.607C478.315 300.619 478.562 299.8 479.082 299.15C479.628 298.448 480.395 298.097 481.357 298.097C482.176 298.097 482.865 298.487 483.411 299.28V295.536ZM481.669 299.215C480.993 299.215 480.486 299.436 480.161 299.904C479.875 300.294 479.732 300.866 479.732 301.607C479.732 302.348 479.862 302.92 480.135 303.336C480.447 303.817 480.954 304.064 481.63 304.064C482.228 304.064 482.683 303.817 483.021 303.349C483.307 302.92 483.45 302.374 483.45 301.698V301.581C483.45 300.853 483.268 300.268 482.93 299.826C482.592 299.41 482.176 299.215 481.669 299.215Z" fill="#465BC7"/>
<path d="M565.5 288.5V311.5H506.5V288.5H565.5Z" stroke="#465BC7"/>
<path d="M518.933 295.718H520.35V299.631H525.212V295.718H526.629V305H525.212V300.84H520.35V305H518.933V295.718ZM531.419 298.097C532.433 298.097 533.252 298.435 533.863 299.111C534.461 299.774 534.773 300.619 534.773 301.646C534.773 302.66 534.474 303.505 533.876 304.155C533.252 304.831 532.433 305.182 531.419 305.182C530.405 305.182 529.586 304.831 528.962 304.155C528.364 303.505 528.065 302.66 528.065 301.646C528.065 300.619 528.364 299.774 528.975 299.111C529.586 298.435 530.405 298.097 531.419 298.097ZM531.419 299.228C530.782 299.228 530.288 299.475 529.937 299.982C529.625 300.411 529.482 300.97 529.482 301.646C529.482 302.322 529.625 302.868 529.937 303.297C530.288 303.791 530.782 304.051 531.419 304.051C532.056 304.051 532.55 303.791 532.914 303.297C533.226 302.855 533.382 302.309 533.382 301.646C533.382 300.97 533.226 300.411 532.914 299.982C532.55 299.475 532.056 299.228 531.419 299.228ZM535.367 298.279H536.862L538.552 303.284L540.242 298.279H541.737L539.241 305H537.863L535.367 298.279ZM545.429 298.097C546.521 298.097 547.366 298.461 547.938 299.215C548.458 299.891 548.731 300.827 548.744 302.023H543.648C543.7 302.673 543.869 303.18 544.181 303.531C544.493 303.869 544.922 304.051 545.468 304.051C545.949 304.051 546.339 303.934 546.638 303.713C546.872 303.531 547.067 303.232 547.249 302.842H548.627C548.471 303.466 548.172 303.999 547.704 304.415C547.119 304.922 546.378 305.182 545.481 305.182C544.493 305.182 543.7 304.87 543.128 304.259C542.504 303.609 542.192 302.738 542.192 301.633C542.192 300.632 542.478 299.8 543.076 299.124C543.648 298.435 544.441 298.097 545.429 298.097ZM545.468 299.228C544.948 299.228 544.545 299.371 544.233 299.683C543.947 299.982 543.752 300.411 543.674 300.983H547.301C547.171 299.813 546.56 299.228 545.468 299.228ZM553.04 298.097C553.378 298.097 553.677 298.149 553.911 298.266V299.644C553.573 299.54 553.248 299.501 552.936 299.501C552.52 299.501 552.143 299.67 551.818 300.008C551.467 300.372 551.298 300.853 551.298 301.438V305H549.92V298.279H551.298V299.293C551.467 298.929 551.688 298.656 551.948 298.474C552.26 298.214 552.624 298.097 553.04 298.097Z" fill="#465BC7"/>
<path d="M649.5 288.5V311.5H574.5V288.5H649.5Z" stroke="#465BC7"/>
<path d="M586.948 295.718H593.253V296.927H588.365V299.631H592.98V300.84H588.365V305H586.948V295.718ZM597.466 298.097C598.48 298.097 599.299 298.435 599.91 299.111C600.508 299.774 600.82 300.619 600.82 301.646C600.82 302.66 600.521 303.505 599.923 304.155C599.299 304.831 598.48 305.182 597.466 305.182C596.452 305.182 595.633 304.831 595.009 304.155C594.411 303.505 594.112 302.66 594.112 301.646C594.112 300.619 594.411 299.774 595.022 299.111C595.633 298.435 596.452 298.097 597.466 298.097ZM597.466 299.228C596.829 299.228 596.335 299.475 595.984 299.982C595.672 300.411 595.529 300.97 595.529 301.646C595.529 302.322 595.672 302.868 595.984 303.297C596.335 303.791 596.829 304.051 597.466 304.051C598.103 304.051 598.597 303.791 598.961 303.297C599.273 302.855 599.429 302.309 599.429 301.646C599.429 300.97 599.273 300.411 598.961 299.982C598.597 299.475 598.103 299.228 597.466 299.228ZM605.119 298.097C605.977 298.097 606.666 298.292 607.186 298.682C607.706 299.098 608.044 299.722 608.174 300.554H606.809C606.718 300.099 606.536 299.761 606.25 299.553C605.964 299.332 605.587 299.228 605.119 299.228C604.547 299.228 604.105 299.436 603.78 299.865C603.442 300.281 603.286 300.879 603.286 301.633C603.286 302.387 603.442 302.985 603.767 303.414C604.066 303.83 604.508 304.051 605.106 304.051C606.133 304.051 606.705 303.531 606.835 302.517H608.2C608.044 303.414 607.693 304.09 607.173 304.532C606.653 304.961 605.951 305.182 605.093 305.182C604.066 305.182 603.273 304.844 602.701 304.168C602.142 303.518 601.869 302.686 601.869 301.646C601.869 300.632 602.142 299.8 602.688 299.15C603.273 298.448 604.079 298.097 605.119 298.097ZM609.378 298.279H610.756V302.374C610.756 302.946 610.873 303.362 611.12 303.622C611.354 303.882 611.744 304.025 612.277 304.025C612.641 304.025 612.966 303.869 613.278 303.583C613.59 303.284 613.811 302.881 613.928 302.387V298.279H615.306V305H613.928V304.09C613.356 304.818 612.654 305.182 611.809 305.182C610.184 305.182 609.378 304.272 609.378 302.465V298.279ZM619.39 298.097C621.132 298.097 622.094 298.799 622.25 300.216H620.911C620.807 299.852 620.651 299.605 620.43 299.462C620.196 299.306 619.832 299.228 619.364 299.228C618.948 299.228 618.636 299.28 618.428 299.41C618.181 299.54 618.064 299.748 618.064 300.008C618.064 300.242 618.246 300.437 618.61 300.606C618.844 300.71 619.286 300.84 619.962 301.009C620.729 301.191 621.301 301.412 621.665 301.646C622.198 301.984 622.471 302.452 622.471 303.05C622.471 304.467 621.47 305.182 619.481 305.182C617.635 305.182 616.647 304.389 616.491 302.829H617.843C617.921 303.284 618.09 303.609 618.324 303.791C618.558 303.96 618.922 304.051 619.442 304.051C620.508 304.051 621.054 303.739 621.054 303.141C621.054 302.816 620.846 302.556 620.456 302.374C620.248 302.27 619.793 302.14 619.104 301.984C618.311 301.802 617.752 301.607 617.44 301.399C616.92 301.074 616.66 300.619 616.66 300.047C616.66 299.436 616.907 298.955 617.414 298.617C617.921 298.266 618.584 298.097 619.39 298.097ZM626.481 298.097C627.573 298.097 628.418 298.461 628.99 299.215C629.51 299.891 629.783 300.827 629.796 302.023H624.7C624.752 302.673 624.921 303.18 625.233 303.531C625.545 303.869 625.974 304.051 626.52 304.051C627.001 304.051 627.391 303.934 627.69 303.713C627.924 303.531 628.119 303.232 628.301 302.842H629.679C629.523 303.466 629.224 303.999 628.756 304.415C628.171 304.922 627.43 305.182 626.533 305.182C625.545 305.182 624.752 304.87 624.18 304.259C623.556 303.609 623.244 302.738 623.244 301.633C623.244 300.632 623.53 299.8 624.128 299.124C624.7 298.435 625.493 298.097 626.481 298.097ZM626.52 299.228C626 299.228 625.597 299.371 625.285 299.683C624.999 299.982 624.804 300.411 624.726 300.983H628.353C628.223 299.813 627.612 299.228 626.52 299.228ZM635.808 295.536H637.186V305H635.899V304.194C635.431 304.844 634.729 305.182 633.819 305.182C632.831 305.182 632.051 304.831 631.492 304.129C630.972 303.479 630.712 302.634 630.712 301.607C630.712 300.619 630.959 299.8 631.479 299.15C632.025 298.448 632.792 298.097 633.754 298.097C634.573 298.097 635.262 298.487 635.808 299.28V295.536ZM634.066 299.215C633.39 299.215 632.883 299.436 632.558 299.904C632.272 300.294 632.129 300.866 632.129 301.607C632.129 302.348 632.259 302.92 632.532 303.336C632.844 303.817 633.351 304.064 634.027 304.064C634.625 304.064 635.08 303.817 635.418 303.349C635.704 302.92 635.847 302.374 635.847 301.698V301.581C635.847 300.853 635.665 300.268 635.327 299.826C634.989 299.41 634.573 299.215 634.066 299.215Z" fill="#465BC7"/>
</svg>
