<svg width="780" height="232" viewBox="0 0 780 232" fill="none" xmlns="http://www.w3.org/2000/svg">
<mask id="path-2-inside-1_33_4584" fill="white">
<path d="M0 2C0 0.89543 0.895431 0 2 0H778C779.105 0 780 0.895431 780 2V184H0V2Z"/>
</mask>
<path d="M0 2C0 0.89543 0.895431 0 2 0H778C779.105 0 780 0.895431 780 2V184H0V2Z" fill="white"/>
<path d="M-1 2C-1 0.343146 0.343146 -1 2 -1H778C779.657 -1 781 0.343146 781 2H779C779 1.44772 778.552 1 778 1H2C1.44772 1 1 1.44772 1 2H-1ZM780 184H0H780ZM-1 184V2C-1 0.343146 0.343146 -1 2 -1V1C1.44772 1 1 1.44772 1 2V184H-1ZM778 -1C779.657 -1 781 0.343146 781 2V184H779V2C779 1.44772 778.552 1 778 1V-1Z" fill="#D9D9D9" mask="url(#path-2-inside-1_33_4584)"/>
<path d="M41.8801 45V35.718H43.0501V43.96H47.1061V45H41.8801ZM51.2325 37.902C51.8305 37.902 52.3419 38.032 52.7665 38.292C53.1999 38.552 53.5292 38.9203 53.7545 39.397C53.9885 39.865 54.1055 40.4153 54.1055 41.048V41.737H49.3345C49.3519 42.5257 49.5512 43.128 49.9325 43.544C50.3225 43.9513 50.8642 44.155 51.5575 44.155C51.9995 44.155 52.3895 44.116 52.7275 44.038C53.0742 43.9513 53.4295 43.83 53.7935 43.674V44.675C53.4382 44.831 53.0872 44.9437 52.7405 45.013C52.3939 45.091 51.9822 45.13 51.5055 45.13C50.8469 45.13 50.2619 44.9957 49.7505 44.727C49.2479 44.4583 48.8535 44.0597 48.5675 43.531C48.2902 42.9937 48.1515 42.3393 48.1515 41.568C48.1515 40.8053 48.2772 40.151 48.5285 39.605C48.7885 39.059 49.1482 38.6387 49.6075 38.344C50.0755 38.0493 50.6172 37.902 51.2325 37.902ZM51.2195 38.838C50.6735 38.838 50.2402 39.0157 49.9195 39.371C49.6075 39.7177 49.4212 40.203 49.3605 40.827H52.9095C52.9095 40.4283 52.8489 40.0817 52.7275 39.787C52.6062 39.4923 52.4199 39.2627 52.1685 39.098C51.9259 38.9247 51.6095 38.838 51.2195 38.838ZM58.5184 37.915C59.3677 37.915 59.9961 38.1013 60.4034 38.474C60.8107 38.8467 61.0144 39.4403 61.0144 40.255V45H60.1824L59.9614 44.012H59.9094C59.7101 44.2633 59.5021 44.4757 59.2854 44.649C59.0774 44.8137 58.8347 44.935 58.5574 45.013C58.2887 45.091 57.9594 45.13 57.5694 45.13C57.1534 45.13 56.7764 45.0563 56.4384 44.909C56.1091 44.7617 55.8491 44.5363 55.6584 44.233C55.4677 43.921 55.3724 43.531 55.3724 43.063C55.3724 42.3697 55.6454 41.8367 56.1914 41.464C56.7374 41.0827 57.5781 40.8747 58.7134 40.84L59.8964 40.801V40.385C59.8964 39.8043 59.7707 39.4013 59.5194 39.176C59.2681 38.9507 58.9127 38.838 58.4534 38.838C58.0894 38.838 57.7427 38.8943 57.4134 39.007C57.0841 39.111 56.7764 39.2323 56.4904 39.371L56.1394 38.513C56.4427 38.3483 56.8024 38.2097 57.2184 38.097C57.6344 37.9757 58.0677 37.915 58.5184 37.915ZM58.8564 41.633C57.9897 41.6677 57.3874 41.8063 57.0494 42.049C56.7201 42.2917 56.5554 42.634 56.5554 43.076C56.5554 43.466 56.6724 43.752 56.9064 43.934C57.1491 44.116 57.4567 44.207 57.8294 44.207C58.4187 44.207 58.9084 44.0467 59.2984 43.726C59.6884 43.3967 59.8834 42.894 59.8834 42.218V41.594L58.8564 41.633ZM65.6365 45.13C64.7699 45.13 64.0765 44.831 63.5565 44.233C63.0365 43.6263 62.7765 42.725 62.7765 41.529C62.7765 40.333 63.0365 39.4317 63.5565 38.825C64.0852 38.2097 64.7829 37.902 65.6495 37.902C66.0135 37.902 66.3299 37.9497 66.5985 38.045C66.8672 38.1317 67.1012 38.253 67.3005 38.409C67.4999 38.565 67.6689 38.7383 67.8075 38.929H67.8855C67.8769 38.8163 67.8595 38.6517 67.8335 38.435C67.8162 38.2097 67.8075 38.032 67.8075 37.902V35.12H68.9515V45H68.0285L67.8595 44.064H67.8075C67.6689 44.2633 67.4999 44.4453 67.3005 44.61C67.1012 44.766 66.8629 44.8917 66.5855 44.987C66.3169 45.0823 66.0005 45.13 65.6365 45.13ZM65.8185 44.181C66.5552 44.181 67.0709 43.9817 67.3655 43.583C67.6689 43.1757 67.8205 42.5647 67.8205 41.75V41.542C67.8205 40.6753 67.6775 40.0123 67.3915 39.553C67.1055 39.085 66.5769 38.851 65.8055 38.851C65.1902 38.851 64.7265 39.098 64.4145 39.592C64.1112 40.0773 63.9595 40.7317 63.9595 41.555C63.9595 42.387 64.1112 43.0327 64.4145 43.492C64.7265 43.9513 65.1945 44.181 65.8185 44.181ZM72.3086 38.032V45H71.1646V38.032H72.3086ZM71.7496 35.419C71.9229 35.419 72.0746 35.4797 72.2046 35.601C72.3432 35.7137 72.4126 35.8957 72.4126 36.147C72.4126 36.3897 72.3432 36.5717 72.2046 36.693C72.0746 36.8143 71.9229 36.875 71.7496 36.875C71.5589 36.875 71.3986 36.8143 71.2686 36.693C71.1386 36.5717 71.0736 36.3897 71.0736 36.147C71.0736 35.8957 71.1386 35.7137 71.2686 35.601C71.3986 35.4797 71.5589 35.419 71.7496 35.419ZM77.8701 37.902C78.7021 37.902 79.3305 38.1057 79.7551 38.513C80.1798 38.9117 80.3921 39.5617 80.3921 40.463V45H79.2611V40.541C79.2611 39.9777 79.1355 39.5573 78.8841 39.28C78.6328 39.0027 78.2385 38.864 77.7011 38.864C76.9298 38.864 76.3968 39.0807 76.1021 39.514C75.8075 39.9473 75.6601 40.5713 75.6601 41.386V45H74.5161V38.032H75.4391L75.6081 38.981H75.6731C75.8291 38.7383 76.0198 38.539 76.2451 38.383C76.4791 38.2183 76.7348 38.097 77.0121 38.019C77.2895 37.941 77.5755 37.902 77.8701 37.902ZM85.0223 37.902C85.4816 37.902 85.8933 37.9887 86.2573 38.162C86.6299 38.3353 86.9463 38.5997 87.2063 38.955H87.2713L87.4273 38.032H88.3373V45.117C88.3373 45.7757 88.2246 46.326 87.9993 46.768C87.7739 47.2187 87.4316 47.5567 86.9723 47.782C86.5129 48.0073 85.9279 48.12 85.2173 48.12C84.7146 48.12 84.2509 48.081 83.8263 48.003C83.4103 47.9337 83.0376 47.8253 82.7083 47.678V46.625C82.9336 46.7377 83.1806 46.833 83.4493 46.911C83.7179 46.9977 84.0083 47.0627 84.3203 47.106C84.6323 47.1493 84.9529 47.171 85.2823 47.171C85.8803 47.171 86.3483 46.9933 86.6863 46.638C87.0329 46.2913 87.2063 45.8147 87.2063 45.208V44.935C87.2063 44.831 87.2106 44.6837 87.2193 44.493C87.2279 44.2937 87.2366 44.155 87.2453 44.077H87.1933C86.9506 44.4323 86.6473 44.6967 86.2833 44.87C85.9279 45.0433 85.5119 45.13 85.0353 45.13C84.1339 45.13 83.4276 44.8137 82.9163 44.181C82.4136 43.5483 82.1623 42.6643 82.1623 41.529C82.1623 40.7837 82.2749 40.1423 82.5003 39.605C82.7343 39.059 83.0636 38.6387 83.4883 38.344C83.9129 38.0493 84.4243 37.902 85.0223 37.902ZM85.1783 38.864C84.7883 38.864 84.4546 38.968 84.1773 39.176C83.9086 39.384 83.7006 39.6873 83.5533 40.086C83.4146 40.4847 83.3453 40.97 83.3453 41.542C83.3453 42.4 83.5013 43.0587 83.8133 43.518C84.1339 43.9687 84.5976 44.194 85.2043 44.194C85.5596 44.194 85.8629 44.1507 86.1143 44.064C86.3656 43.9687 86.5736 43.8257 86.7383 43.635C86.9029 43.4357 87.0243 43.1843 87.1023 42.881C87.1803 42.5777 87.2193 42.218 87.2193 41.802V41.529C87.2193 40.8963 87.1456 40.385 86.9983 39.995C86.8596 39.605 86.6386 39.319 86.3353 39.137C86.0319 38.955 85.6463 38.864 85.1783 38.864ZM96.6963 45H93.3423V44.324L94.4343 44.077V36.654L93.3423 36.394V35.718H96.6963V36.394L95.6043 36.654V44.077L96.6963 44.324V45ZM101.128 45.13C100.512 45.13 99.9619 45.0043 99.4765 44.753C98.9999 44.5017 98.6229 44.1117 98.3455 43.583C98.0769 43.0543 97.9425 42.3783 97.9425 41.555C97.9425 40.697 98.0855 39.9993 98.3715 39.462C98.6575 38.9247 99.0432 38.5303 99.5285 38.279C100.023 38.0277 100.582 37.902 101.206 37.902C101.561 37.902 101.903 37.941 102.233 38.019C102.562 38.0883 102.831 38.175 103.039 38.279L102.688 39.228C102.48 39.15 102.237 39.0763 101.96 39.007C101.682 38.9377 101.422 38.903 101.18 38.903C100.712 38.903 100.326 39.0027 100.023 39.202C99.7192 39.4013 99.4939 39.696 99.3465 40.086C99.1992 40.476 99.1255 40.9613 99.1255 41.542C99.1255 42.0967 99.1992 42.569 99.3465 42.959C99.4939 43.349 99.7149 43.6437 100.01 43.843C100.304 44.0423 100.673 44.142 101.115 44.142C101.496 44.142 101.83 44.103 102.116 44.025C102.41 43.947 102.679 43.8517 102.922 43.739V44.753C102.688 44.8743 102.428 44.9653 102.142 45.026C101.864 45.0953 101.526 45.13 101.128 45.13ZM110.637 41.503C110.637 42.0837 110.559 42.5993 110.403 43.05C110.255 43.492 110.039 43.869 109.753 44.181C109.475 44.493 109.133 44.7313 108.726 44.896C108.327 45.052 107.881 45.13 107.387 45.13C106.927 45.13 106.503 45.052 106.113 44.896C105.723 44.7313 105.385 44.493 105.099 44.181C104.813 43.869 104.587 43.492 104.423 43.05C104.267 42.5993 104.189 42.0837 104.189 41.503C104.189 40.7317 104.319 40.0817 104.579 39.553C104.839 39.0157 105.211 38.6083 105.697 38.331C106.182 38.045 106.758 37.902 107.426 37.902C108.058 37.902 108.613 38.045 109.09 38.331C109.575 38.6083 109.952 39.0157 110.221 39.553C110.498 40.0817 110.637 40.7317 110.637 41.503ZM105.372 41.503C105.372 42.049 105.441 42.5257 105.58 42.933C105.727 43.3317 105.952 43.6393 106.256 43.856C106.559 44.0727 106.945 44.181 107.413 44.181C107.881 44.181 108.266 44.0727 108.57 43.856C108.873 43.6393 109.094 43.3317 109.233 42.933C109.38 42.5257 109.454 42.049 109.454 41.503C109.454 40.9483 109.38 40.476 109.233 40.086C109.085 39.696 108.86 39.397 108.557 39.189C108.262 38.9723 107.876 38.864 107.4 38.864C106.689 38.864 106.173 39.098 105.853 39.566C105.532 40.034 105.372 40.6797 105.372 41.503ZM115.804 37.902C116.636 37.902 117.264 38.1057 117.689 38.513C118.113 38.9117 118.326 39.5617 118.326 40.463V45H117.195V40.541C117.195 39.9777 117.069 39.5573 116.818 39.28C116.566 39.0027 116.172 38.864 115.635 38.864C114.863 38.864 114.33 39.0807 114.036 39.514C113.741 39.9473 113.594 40.5713 113.594 41.386V45H112.45V38.032H113.373L113.542 38.981H113.607C113.763 38.7383 113.953 38.539 114.179 38.383C114.413 38.2183 114.668 38.097 114.946 38.019C115.223 37.941 115.509 37.902 115.804 37.902Z" fill="#161616"/>
<rect width="88" height="40" transform="translate(128 20)" fill="#465BC7"/>
<path d="M152.75 39.25H159V40.75H152.75V47H151.25V40.75H145V39.25H151.25V33H152.75V39.25Z" fill="white"/>
<path d="M181.95 34.29V37.41H180.585V35.595H175.155V37.47H173.805V34.29H177.09C176.91 33.75 176.715 33.24 176.49 32.79L177.945 32.55C178.14 33.075 178.335 33.66 178.515 34.29H181.95ZM176.46 36.36L177.87 36.48C177.675 37.26 177.48 37.98 177.285 38.625H182.385V39.99H180.69C180.45 41.385 179.97 42.555 179.25 43.515C180.57 44.235 181.635 44.895 182.46 45.465L181.5 46.59C180.66 45.96 179.595 45.27 178.32 44.52C177.27 45.405 175.62 46.11 173.4 46.65L172.83 45.3C174.6 44.91 175.98 44.385 176.955 43.725C176.13 43.245 175.26 42.765 174.33 42.27C174.705 41.55 175.05 40.785 175.365 39.99H173.49V38.625H175.845C176.07 37.89 176.28 37.14 176.46 36.36ZM179.325 39.99H176.82C176.55 40.695 176.28 41.31 176.01 41.82C176.715 42.165 177.375 42.495 177.99 42.825C178.635 42.075 179.085 41.13 179.325 39.99ZM170.4 46.41H169.125L168.81 45.03C169.185 45.075 169.545 45.105 169.905 45.105C170.235 45.105 170.4 44.925 170.4 44.58V41.4C169.86 41.595 169.335 41.775 168.81 41.94L168.45 40.515C169.11 40.365 169.755 40.185 170.4 39.96V36.825H168.765V35.46H170.4V32.745H171.84V35.46H173.13V36.825H171.84V39.375C172.26 39.18 172.665 38.97 173.085 38.76V40.2C172.665 40.41 172.245 40.62 171.84 40.8V44.94C171.84 45.915 171.36 46.41 170.4 46.41ZM185.94 37.485H184.755V36.93L184.305 37.47L183.54 36.405C184.455 35.385 185.295 34.17 186.06 32.76H187.02C187.935 33.72 188.805 34.725 189.645 35.745L188.73 36.72L188.52 36.435V37.485H187.32V38.835H189.135V40.17H187.32V44.25C187.95 44.115 188.58 43.965 189.195 43.8V45.165C187.62 45.585 185.925 45.96 184.125 46.26L183.78 44.835C184.515 44.745 185.235 44.64 185.94 44.52V40.17H184.11V38.835H185.94V37.485ZM185.1 40.695C185.295 41.565 185.46 42.555 185.61 43.665L184.53 43.935C184.38 42.93 184.2 41.97 183.99 41.055L185.1 40.695ZM188.145 40.65L189.24 40.95C189.075 41.94 188.865 42.825 188.625 43.605L187.59 43.215C187.8 42.54 187.98 41.685 188.145 40.65ZM185.325 36.21H188.355C187.695 35.31 187.125 34.62 186.66 34.125C186.255 34.845 185.805 35.55 185.325 36.21ZM195.09 34.59H192.885L192.585 38.73H194.805L195.09 34.59ZM191.25 38.73L191.55 34.59H189.96V33.24H196.5L196.155 38.73H197.37V40.05H196.065L195.765 44.79H197.205V46.125H189.555V44.79H190.815L191.16 40.05H189.45V38.73H191.25ZM192.135 44.79H194.4L194.715 40.05H192.495L192.135 44.79Z" fill="white"/>
<path d="M44.199 97H43.029V88.745H40.13V87.718H47.085V88.745H44.199V97ZM50.9312 89.902C51.0612 89.902 51.1998 89.9107 51.3472 89.928C51.5032 89.9367 51.6375 89.954 51.7502 89.98L51.6072 91.033C51.4945 91.007 51.3688 90.9853 51.2302 90.968C51.1002 90.9507 50.9745 90.942 50.8532 90.942C50.5845 90.942 50.3288 90.9983 50.0862 91.111C49.8435 91.2237 49.6268 91.384 49.4362 91.592C49.2455 91.7913 49.0938 92.034 48.9812 92.32C48.8772 92.606 48.8252 92.9267 48.8252 93.282V97H47.6812V90.032H48.6172L48.7472 91.306H48.7992C48.9465 91.046 49.1242 90.812 49.3322 90.604C49.5402 90.3873 49.7785 90.2183 50.0472 90.097C50.3158 89.967 50.6105 89.902 50.9312 89.902ZM55.4364 89.915C56.2857 89.915 56.914 90.1013 57.3214 90.474C57.7287 90.8467 57.9324 91.4403 57.9324 92.255V97H57.1004L56.8794 96.012H56.8274C56.628 96.2633 56.42 96.4757 56.2034 96.649C55.9954 96.8137 55.7527 96.935 55.4754 97.013C55.2067 97.091 54.8774 97.13 54.4874 97.13C54.0714 97.13 53.6944 97.0563 53.3564 96.909C53.027 96.7617 52.767 96.5363 52.5764 96.233C52.3857 95.921 52.2904 95.531 52.2904 95.063C52.2904 94.3697 52.5634 93.8367 53.1094 93.464C53.6554 93.0827 54.496 92.8747 55.6314 92.84L56.8144 92.801V92.385C56.8144 91.8043 56.6887 91.4013 56.4374 91.176C56.186 90.9507 55.8307 90.838 55.3714 90.838C55.0074 90.838 54.6607 90.8943 54.3314 91.007C54.002 91.111 53.6944 91.2323 53.4084 91.371L53.0574 90.513C53.3607 90.3483 53.7204 90.2097 54.1364 90.097C54.5524 89.9757 54.9857 89.915 55.4364 89.915ZM55.7744 93.633C54.9077 93.6677 54.3054 93.8063 53.9674 94.049C53.638 94.2917 53.4734 94.634 53.4734 95.076C53.4734 95.466 53.5904 95.752 53.8244 95.934C54.067 96.116 54.3747 96.207 54.7474 96.207C55.3367 96.207 55.8264 96.0467 56.2164 95.726C56.6064 95.3967 56.8014 94.894 56.8014 94.218V93.594L55.7744 93.633ZM61.2285 90.032V97H60.0845V90.032H61.2285ZM60.6695 87.419C60.8428 87.419 60.9945 87.4797 61.1245 87.601C61.2632 87.7137 61.3325 87.8957 61.3325 88.147C61.3325 88.3897 61.2632 88.5717 61.1245 88.693C60.9945 88.8143 60.8428 88.875 60.6695 88.875C60.4788 88.875 60.3185 88.8143 60.1885 88.693C60.0585 88.5717 59.9935 88.3897 59.9935 88.147C59.9935 87.8957 60.0585 87.7137 60.1885 87.601C60.3185 87.4797 60.4788 87.419 60.6695 87.419ZM64.5801 97H63.4361V87.12H64.5801V97ZM67.9316 90.032V97H66.7876V90.032H67.9316ZM67.3726 87.419C67.546 87.419 67.6976 87.4797 67.8276 87.601C67.9663 87.7137 68.0356 87.8957 68.0356 88.147C68.0356 88.3897 67.9663 88.5717 67.8276 88.693C67.6976 88.8143 67.546 88.875 67.3726 88.875C67.182 88.875 67.0216 88.8143 66.8916 88.693C66.7616 88.5717 66.6966 88.3897 66.6966 88.147C66.6966 87.8957 66.7616 87.7137 66.8916 87.601C67.0216 87.4797 67.182 87.419 67.3726 87.419ZM73.4932 89.902C74.3252 89.902 74.9535 90.1057 75.3782 90.513C75.8028 90.9117 76.0152 91.5617 76.0152 92.463V97H74.8842V92.541C74.8842 91.9777 74.7585 91.5573 74.5072 91.28C74.2558 91.0027 73.8615 90.864 73.3242 90.864C72.5528 90.864 72.0198 91.0807 71.7252 91.514C71.4305 91.9473 71.2832 92.5713 71.2832 93.386V97H70.1392V90.032H71.0622L71.2312 90.981H71.2962C71.4522 90.7383 71.6428 90.539 71.8682 90.383C72.1022 90.2183 72.3578 90.097 72.6352 90.019C72.9125 89.941 73.1985 89.902 73.4932 89.902ZM80.6453 89.902C81.1046 89.902 81.5163 89.9887 81.8803 90.162C82.253 90.3353 82.5693 90.5997 82.8293 90.955H82.8943L83.0503 90.032H83.9603V97.117C83.9603 97.7757 83.8476 98.326 83.6223 98.768C83.397 99.2187 83.0546 99.5567 82.5953 99.782C82.136 100.007 81.551 100.12 80.8403 100.12C80.3376 100.12 79.874 100.081 79.4493 100.003C79.0333 99.9337 78.6606 99.8253 78.3313 99.678V98.625C78.5566 98.7377 78.8036 98.833 79.0723 98.911C79.341 98.9977 79.6313 99.0627 79.9433 99.106C80.2553 99.1493 80.576 99.171 80.9053 99.171C81.5033 99.171 81.9713 98.9933 82.3093 98.638C82.656 98.2913 82.8293 97.8147 82.8293 97.208V96.935C82.8293 96.831 82.8336 96.6837 82.8423 96.493C82.851 96.2937 82.8596 96.155 82.8683 96.077H82.8163C82.5736 96.4323 82.2703 96.6967 81.9063 96.87C81.551 97.0433 81.135 97.13 80.6583 97.13C79.757 97.13 79.0506 96.8137 78.5393 96.181C78.0366 95.5483 77.7853 94.6643 77.7853 93.529C77.7853 92.7837 77.898 92.1423 78.1233 91.605C78.3573 91.059 78.6866 90.6387 79.1113 90.344C79.536 90.0493 80.0473 89.902 80.6453 89.902ZM80.8013 90.864C80.4113 90.864 80.0776 90.968 79.8003 91.176C79.5316 91.384 79.3236 91.6873 79.1763 92.086C79.0376 92.4847 78.9683 92.97 78.9683 93.542C78.9683 94.4 79.1243 95.0587 79.4363 95.518C79.757 95.9687 80.2206 96.194 80.8273 96.194C81.1826 96.194 81.486 96.1507 81.7373 96.064C81.9886 95.9687 82.1966 95.8257 82.3613 95.635C82.526 95.4357 82.6473 95.1843 82.7253 94.881C82.8033 94.5777 82.8423 94.218 82.8423 93.802V93.529C82.8423 92.8963 82.7686 92.385 82.6213 91.995C82.4826 91.605 82.2616 91.319 81.9583 91.137C81.655 90.955 81.2693 90.864 80.8013 90.864ZM92.3193 97H88.9653V96.324L90.0573 96.077V88.654L88.9653 88.394V87.718H92.3193V88.394L91.2273 88.654V96.077L92.3193 96.324V97ZM96.7506 97.13C96.1353 97.13 95.5849 97.0043 95.0996 96.753C94.6229 96.5017 94.2459 96.1117 93.9686 95.583C93.6999 95.0543 93.5656 94.3783 93.5656 93.555C93.5656 92.697 93.7086 91.9993 93.9946 91.462C94.2806 90.9247 94.6663 90.5303 95.1516 90.279C95.6456 90.0277 96.2046 89.902 96.8286 89.902C97.1839 89.902 97.5263 89.941 97.8556 90.019C98.1849 90.0883 98.4536 90.175 98.6616 90.279L98.3106 91.228C98.1026 91.15 97.8599 91.0763 97.5826 91.007C97.3053 90.9377 97.0453 90.903 96.8026 90.903C96.3346 90.903 95.9489 91.0027 95.6456 91.202C95.3423 91.4013 95.1169 91.696 94.9696 92.086C94.8223 92.476 94.7486 92.9613 94.7486 93.542C94.7486 94.0967 94.8223 94.569 94.9696 94.959C95.1169 95.349 95.3379 95.6437 95.6326 95.843C95.9273 96.0423 96.2956 96.142 96.7376 96.142C97.1189 96.142 97.4526 96.103 97.7386 96.025C98.0333 95.947 98.3019 95.8517 98.5446 95.739V96.753C98.3106 96.8743 98.0506 96.9653 97.7646 97.026C97.4873 97.0953 97.1493 97.13 96.7506 97.13ZM106.26 93.503C106.26 94.0837 106.182 94.5993 106.026 95.05C105.878 95.492 105.662 95.869 105.376 96.181C105.098 96.493 104.756 96.7313 104.349 96.896C103.95 97.052 103.504 97.13 103.01 97.13C102.55 97.13 102.126 97.052 101.736 96.896C101.346 96.7313 101.008 96.493 100.722 96.181C100.436 95.869 100.21 95.492 100.046 95.05C99.8897 94.5993 99.8117 94.0837 99.8117 93.503C99.8117 92.7317 99.9417 92.0817 100.202 91.553C100.462 91.0157 100.834 90.6083 101.32 90.331C101.805 90.045 102.381 89.902 103.049 89.902C103.681 89.902 104.236 90.045 104.713 90.331C105.198 90.6083 105.575 91.0157 105.844 91.553C106.121 92.0817 106.26 92.7317 106.26 93.503ZM100.995 93.503C100.995 94.049 101.064 94.5257 101.203 94.933C101.35 95.3317 101.575 95.6393 101.879 95.856C102.182 96.0727 102.568 96.181 103.036 96.181C103.504 96.181 103.889 96.0727 104.193 95.856C104.496 95.6393 104.717 95.3317 104.856 94.933C105.003 94.5257 105.077 94.049 105.077 93.503C105.077 92.9483 105.003 92.476 104.856 92.086C104.708 91.696 104.483 91.397 104.18 91.189C103.885 90.9723 103.499 90.864 103.023 90.864C102.312 90.864 101.796 91.098 101.476 91.566C101.155 92.034 100.995 92.6797 100.995 93.503ZM111.427 89.902C112.259 89.902 112.887 90.1057 113.312 90.513C113.736 90.9117 113.949 91.5617 113.949 92.463V97H112.818V92.541C112.818 91.9777 112.692 91.5573 112.441 91.28C112.189 91.0027 111.795 90.864 111.258 90.864C110.486 90.864 109.953 91.0807 109.659 91.514C109.364 91.9473 109.217 92.5713 109.217 93.386V97H108.073V90.032H108.996L109.165 90.981H109.23C109.386 90.7383 109.576 90.539 109.802 90.383C110.036 90.2183 110.291 90.097 110.569 90.019C110.846 89.941 111.132 89.902 111.427 89.902Z" fill="#161616"/>
<rect width="88" height="40" transform="translate(128 72)" fill="#465BC7"/>
<path d="M157.95 86.29V89.41H156.585V87.595H151.155V89.47H149.805V86.29H153.09C152.91 85.75 152.715 85.24 152.49 84.79L153.945 84.55C154.14 85.075 154.335 85.66 154.515 86.29H157.95ZM152.46 88.36L153.87 88.48C153.675 89.26 153.48 89.98 153.285 90.625H158.385V91.99H156.69C156.45 93.385 155.97 94.555 155.25 95.515C156.57 96.235 157.635 96.895 158.46 97.465L157.5 98.59C156.66 97.96 155.595 97.27 154.32 96.52C153.27 97.405 151.62 98.11 149.4 98.65L148.83 97.3C150.6 96.91 151.98 96.385 152.955 95.725C152.13 95.245 151.26 94.765 150.33 94.27C150.705 93.55 151.05 92.785 151.365 91.99H149.49V90.625H151.845C152.07 89.89 152.28 89.14 152.46 88.36ZM155.325 91.99H152.82C152.55 92.695 152.28 93.31 152.01 93.82C152.715 94.165 153.375 94.495 153.99 94.825C154.635 94.075 155.085 93.13 155.325 91.99ZM146.4 98.41H145.125L144.81 97.03C145.185 97.075 145.545 97.105 145.905 97.105C146.235 97.105 146.4 96.925 146.4 96.58V93.4C145.86 93.595 145.335 93.775 144.81 93.94L144.45 92.515C145.11 92.365 145.755 92.185 146.4 91.96V88.825H144.765V87.46H146.4V84.745H147.84V87.46H149.13V88.825H147.84V91.375C148.26 91.18 148.665 90.97 149.085 90.76V92.2C148.665 92.41 148.245 92.62 147.84 92.8V96.94C147.84 97.915 147.36 98.41 146.4 98.41ZM161.94 89.485H160.755V88.93L160.305 89.47L159.54 88.405C160.455 87.385 161.295 86.17 162.06 84.76H163.02C163.935 85.72 164.805 86.725 165.645 87.745L164.73 88.72L164.52 88.435V89.485H163.32V90.835H165.135V92.17H163.32V96.25C163.95 96.115 164.58 95.965 165.195 95.8V97.165C163.62 97.585 161.925 97.96 160.125 98.26L159.78 96.835C160.515 96.745 161.235 96.64 161.94 96.52V92.17H160.11V90.835H161.94V89.485ZM161.1 92.695C161.295 93.565 161.46 94.555 161.61 95.665L160.53 95.935C160.38 94.93 160.2 93.97 159.99 93.055L161.1 92.695ZM164.145 92.65L165.24 92.95C165.075 93.94 164.865 94.825 164.625 95.605L163.59 95.215C163.8 94.54 163.98 93.685 164.145 92.65ZM161.325 88.21H164.355C163.695 87.31 163.125 86.62 162.66 86.125C162.255 86.845 161.805 87.55 161.325 88.21ZM171.09 86.59H168.885L168.585 90.73H170.805L171.09 86.59ZM167.25 90.73L167.55 86.59H165.96V85.24H172.5L172.155 90.73H173.37V92.05H172.065L171.765 96.79H173.205V98.125H165.555V96.79H166.815L167.16 92.05H165.45V90.73H167.25ZM168.135 96.79H170.4L170.715 92.05H168.495L168.135 96.79Z" fill="white"/>
<path d="M192.75 91.25H199V92.75H192.75V99H191.25V92.75H185V91.25H191.25V85H192.75V91.25Z" fill="white"/>
<path d="M43.874 149H40.52V148.324L41.612 148.077V140.654L40.52 140.394V139.718H43.874V140.394L42.782 140.654V148.077L43.874 148.324V149ZM48.3053 149.13C47.6899 149.13 47.1396 149.004 46.6543 148.753C46.1776 148.502 45.8006 148.112 45.5233 147.583C45.2546 147.054 45.1203 146.378 45.1203 145.555C45.1203 144.697 45.2633 143.999 45.5493 143.462C45.8353 142.925 46.2209 142.53 46.7063 142.279C47.2003 142.028 47.7593 141.902 48.3833 141.902C48.7386 141.902 49.0809 141.941 49.4103 142.019C49.7396 142.088 50.0083 142.175 50.2163 142.279L49.8653 143.228C49.6573 143.15 49.4146 143.076 49.1373 143.007C48.8599 142.938 48.5999 142.903 48.3573 142.903C47.8893 142.903 47.5036 143.003 47.2003 143.202C46.8969 143.401 46.6716 143.696 46.5243 144.086C46.3769 144.476 46.3033 144.961 46.3033 145.542C46.3033 146.097 46.3769 146.569 46.5243 146.959C46.6716 147.349 46.8926 147.644 47.1873 147.843C47.4819 148.042 47.8503 148.142 48.2923 148.142C48.6736 148.142 49.0073 148.103 49.2933 148.025C49.5879 147.947 49.8566 147.852 50.0993 147.739V148.753C49.8653 148.874 49.6053 148.965 49.3193 149.026C49.0419 149.095 48.7039 149.13 48.3053 149.13ZM57.8144 145.503C57.8144 146.084 57.7364 146.599 57.5804 147.05C57.433 147.492 57.2164 147.869 56.9304 148.181C56.653 148.493 56.3107 148.731 55.9034 148.896C55.5047 149.052 55.0584 149.13 54.5644 149.13C54.105 149.13 53.6804 149.052 53.2904 148.896C52.9004 148.731 52.5624 148.493 52.2764 148.181C51.9904 147.869 51.765 147.492 51.6004 147.05C51.4444 146.599 51.3664 146.084 51.3664 145.503C51.3664 144.732 51.4964 144.082 51.7564 143.553C52.0164 143.016 52.389 142.608 52.8744 142.331C53.3597 142.045 53.936 141.902 54.6034 141.902C55.236 141.902 55.7907 142.045 56.2674 142.331C56.7527 142.608 57.1297 143.016 57.3984 143.553C57.6757 144.082 57.8144 144.732 57.8144 145.503ZM52.5494 145.503C52.5494 146.049 52.6187 146.526 52.7574 146.933C52.9047 147.332 53.13 147.639 53.4334 147.856C53.7367 148.073 54.1224 148.181 54.5904 148.181C55.0584 148.181 55.444 148.073 55.7474 147.856C56.0507 147.639 56.2717 147.332 56.4104 146.933C56.5577 146.526 56.6314 146.049 56.6314 145.503C56.6314 144.948 56.5577 144.476 56.4104 144.086C56.263 143.696 56.0377 143.397 55.7344 143.189C55.4397 142.972 55.054 142.864 54.5774 142.864C53.8667 142.864 53.351 143.098 53.0304 143.566C52.7097 144.034 52.5494 144.68 52.5494 145.503ZM62.9815 141.902C63.8135 141.902 64.4418 142.106 64.8665 142.513C65.2911 142.912 65.5035 143.562 65.5035 144.463V149H64.3725V144.541C64.3725 143.978 64.2468 143.557 63.9955 143.28C63.7441 143.003 63.3498 142.864 62.8125 142.864C62.0411 142.864 61.5081 143.081 61.2135 143.514C60.9188 143.947 60.7715 144.571 60.7715 145.386V149H59.6275V142.032H60.5505L60.7195 142.981H60.7845C60.9405 142.738 61.1311 142.539 61.3565 142.383C61.5905 142.218 61.8461 142.097 62.1235 142.019C62.4008 141.941 62.6868 141.902 62.9815 141.902ZM79.2955 144.346C79.2955 145.065 79.2045 145.72 79.0225 146.309C78.8405 146.89 78.5675 147.392 78.2035 147.817C77.8482 148.242 77.4019 148.567 76.8645 148.792C76.3359 149.017 75.7205 149.13 75.0185 149.13C74.2905 149.13 73.6579 149.017 73.1205 148.792C72.5832 148.558 72.1369 148.233 71.7815 147.817C71.4262 147.392 71.1619 146.885 70.9885 146.296C70.8152 145.707 70.7285 145.052 70.7285 144.333C70.7285 143.38 70.8845 142.548 71.1965 141.837C71.5085 141.126 71.9809 140.572 72.6135 140.173C73.2549 139.774 74.0609 139.575 75.0315 139.575C75.9589 139.575 76.7389 139.774 77.3715 140.173C78.0042 140.563 78.4809 141.118 78.8015 141.837C79.1309 142.548 79.2955 143.384 79.2955 144.346ZM71.9635 144.346C71.9635 145.126 72.0719 145.798 72.2885 146.361C72.5052 146.924 72.8389 147.358 73.2895 147.661C73.7489 147.964 74.3252 148.116 75.0185 148.116C75.7205 148.116 76.2925 147.964 76.7345 147.661C77.1852 147.358 77.5189 146.924 77.7355 146.361C77.9522 145.798 78.0605 145.126 78.0605 144.346C78.0605 143.176 77.8179 142.262 77.3325 141.603C76.8472 140.936 76.0802 140.602 75.0315 140.602C74.3295 140.602 73.7489 140.754 73.2895 141.057C72.8389 141.352 72.5052 141.781 72.2885 142.344C72.0719 142.899 71.9635 143.566 71.9635 144.346ZM84.5508 141.902C85.3828 141.902 86.0111 142.106 86.4358 142.513C86.8605 142.912 87.0728 143.562 87.0728 144.463V149H85.9418V144.541C85.9418 143.978 85.8161 143.557 85.5648 143.28C85.3135 143.003 84.9191 142.864 84.3818 142.864C83.6105 142.864 83.0775 143.081 82.7828 143.514C82.4881 143.947 82.3408 144.571 82.3408 145.386V149H81.1968V142.032H82.1198L82.2888 142.981H82.3538C82.5098 142.738 82.7005 142.539 82.9258 142.383C83.1598 142.218 83.4155 142.097 83.6928 142.019C83.9701 141.941 84.2561 141.902 84.5508 141.902ZM90.3769 149H89.2329V139.12H90.3769V149ZM91.4925 142.032H92.7145L94.2225 145.997C94.3092 146.231 94.3872 146.456 94.4565 146.673C94.5345 146.89 94.6038 147.102 94.6645 147.31C94.7252 147.509 94.7728 147.704 94.8075 147.895H94.8595C94.9115 147.678 94.9938 147.397 95.1065 147.05C95.2192 146.695 95.3362 146.339 95.4575 145.984L96.8745 142.032H98.1095L95.1065 149.962C94.9418 150.395 94.7468 150.772 94.5215 151.093C94.3048 151.422 94.0362 151.674 93.7155 151.847C93.4035 152.029 93.0222 152.12 92.5715 152.12C92.3635 152.12 92.1815 152.107 92.0255 152.081C91.8695 152.064 91.7352 152.042 91.6225 152.016V151.106C91.7178 151.123 91.8305 151.141 91.9605 151.158C92.0992 151.175 92.2422 151.184 92.3895 151.184C92.6582 151.184 92.8878 151.132 93.0785 151.028C93.2778 150.933 93.4468 150.79 93.5855 150.599C93.7242 150.417 93.8412 150.2 93.9365 149.949L94.3005 149.026L91.4925 142.032Z" fill="#161616"/>
<rect width="40" height="40" transform="translate(128 124)" fill="#465BC7"/>
<path d="M148.75 143.25H155V144.75H148.75V151H147.25V144.75H141V143.25H147.25V137H148.75V143.25Z" fill="white"/>
<mask id="path-12-inside-2_33_4584" fill="white">
<path d="M0 184H780V230C780 231.105 779.105 232 778 232H1.99998C0.895407 232 0 231.105 0 230V184Z"/>
</mask>
<path d="M0 184H780V230C780 231.105 779.105 232 778 232H1.99998C0.895407 232 0 231.105 0 230V184Z" fill="#E7E7E7"/>
<path d="M0 184H780H0ZM781 230C781 231.657 779.657 233 778 233H2C0.343146 233 -1 231.657 -1 230H1C1 230.552 1.44772 231 2 231H778C778.552 231 779 230.552 779 230H781ZM2 233C0.343146 233 -1 231.657 -1 230V184H1V230C1 230.552 1.44772 231 2 231V233ZM781 184V230C781 231.657 779.657 233 778 233V231C778.552 231 779 230.552 779 230V184H781Z" fill="#D9D9D9" mask="url(#path-12-inside-2_33_4584)"/>
<path fill-rule="evenodd" clip-rule="evenodd" d="M36.0005 212L29 204.98L29.9762 204H29.9781L36.0005 210.041L42.0238 204H42.0258L43 204.979V204.981L36.0005 212Z" fill="#4457CA"/>
<path d="M59.575 211.105C59.575 211.745 59.42 212.29 59.11 212.74C58.8 213.19 58.355 213.54 57.775 213.79C57.195 214.03 56.505 214.15 55.705 214.15C55.315 214.15 54.94 214.125 54.58 214.075C54.22 214.035 53.885 213.975 53.575 213.895C53.265 213.815 52.99 213.715 52.75 213.595V212.065C53.15 212.245 53.62 212.41 54.16 212.56C54.7 212.7 55.25 212.77 55.81 212.77C56.29 212.77 56.69 212.705 57.01 212.575C57.33 212.445 57.57 212.265 57.73 212.035C57.89 211.805 57.97 211.535 57.97 211.225C57.97 210.895 57.885 210.62 57.715 210.4C57.555 210.17 57.3 209.96 56.95 209.77C56.61 209.57 56.15 209.36 55.57 209.14C55.17 208.99 54.805 208.825 54.475 208.645C54.155 208.455 53.87 208.235 53.62 207.985C53.38 207.735 53.195 207.445 53.065 207.115C52.935 206.785 52.87 206.4 52.87 205.96C52.87 205.37 53.015 204.865 53.305 204.445C53.605 204.025 54.015 203.705 54.535 203.485C55.055 203.255 55.66 203.14 56.35 203.14C56.93 203.14 57.465 203.2 57.955 203.32C58.455 203.43 58.93 203.585 59.38 203.785L58.87 205.12C58.46 204.95 58.045 204.81 57.625 204.7C57.205 204.59 56.765 204.535 56.305 204.535C55.905 204.535 55.57 204.595 55.3 204.715C55.03 204.835 54.825 205 54.685 205.21C54.555 205.42 54.49 205.665 54.49 205.945C54.49 206.275 54.565 206.55 54.715 206.77C54.865 206.99 55.105 207.195 55.435 207.385C55.765 207.565 56.2 207.765 56.74 207.985C57.34 208.215 57.85 208.465 58.27 208.735C58.7 209.005 59.025 209.33 59.245 209.71C59.465 210.08 59.575 210.545 59.575 211.105ZM63.0821 205.645C63.0821 205.895 63.0721 206.145 63.0521 206.395C63.0321 206.645 63.0121 206.85 62.9921 207.01H63.0971C63.2671 206.73 63.4771 206.5 63.7271 206.32C63.9871 206.14 64.2721 206.005 64.5821 205.915C64.9021 205.825 65.2271 205.78 65.5571 205.78C66.1971 205.78 66.7321 205.885 67.1621 206.095C67.6021 206.295 67.9321 206.615 68.1521 207.055C68.3821 207.485 68.4971 208.045 68.4971 208.735V214H66.9221V208.96C66.9221 208.33 66.7871 207.86 66.5171 207.55C66.2571 207.23 65.8371 207.07 65.2571 207.07C64.7071 207.07 64.2721 207.18 63.9521 207.4C63.6421 207.62 63.4171 207.945 63.2771 208.375C63.1471 208.795 63.0821 209.315 63.0821 209.935V214H61.4921V202.6H63.0821V205.645ZM78.0653 209.95C78.0653 210.62 77.9753 211.215 77.7953 211.735C77.6153 212.255 77.3603 212.695 77.0303 213.055C76.7003 213.415 76.3003 213.69 75.8303 213.88C75.3603 214.06 74.8303 214.15 74.2403 214.15C73.7003 214.15 73.2003 214.06 72.7403 213.88C72.2803 213.69 71.8803 213.415 71.5403 213.055C71.2103 212.695 70.9503 212.255 70.7603 211.735C70.5703 211.215 70.4753 210.615 70.4753 209.935C70.4753 209.045 70.6253 208.29 70.9253 207.67C71.2353 207.05 71.6753 206.58 72.2453 206.26C72.8253 205.93 73.5053 205.765 74.2853 205.765C75.0253 205.765 75.6753 205.93 76.2353 206.26C76.8053 206.58 77.2503 207.05 77.5703 207.67C77.9003 208.29 78.0653 209.05 78.0653 209.95ZM72.1103 209.95C72.1103 210.55 72.1853 211.07 72.3353 211.51C72.4853 211.94 72.7203 212.27 73.0403 212.5C73.3603 212.73 73.7703 212.845 74.2703 212.845C74.7703 212.845 75.1803 212.73 75.5003 212.5C75.8203 212.27 76.0553 211.94 76.2053 211.51C76.3553 211.07 76.4303 210.55 76.4303 209.95C76.4303 209.33 76.3503 208.81 76.1903 208.39C76.0403 207.97 75.8053 207.65 75.4853 207.43C75.1753 207.2 74.7653 207.085 74.2553 207.085C73.5053 207.085 72.9603 207.335 72.6203 207.835C72.2803 208.335 72.1103 209.04 72.1103 209.95ZM85.248 209.95C85.198 209.75 85.138 209.53 85.068 209.29C85.008 209.05 84.948 208.81 84.888 208.57C84.828 208.32 84.773 208.09 84.723 207.88C84.673 207.67 84.633 207.505 84.603 207.385H84.543C84.523 207.505 84.488 207.67 84.438 207.88C84.398 208.09 84.348 208.32 84.288 208.57C84.228 208.81 84.168 209.055 84.108 209.305C84.048 209.545 83.983 209.765 83.913 209.965L82.713 213.985H80.943L78.708 205.9H80.328L81.378 209.995C81.458 210.275 81.528 210.57 81.588 210.88C81.658 211.19 81.718 211.49 81.768 211.78C81.828 212.06 81.868 212.295 81.888 212.485H81.948C81.968 212.355 81.998 212.195 82.038 212.005C82.078 211.805 82.118 211.6 82.158 211.39C82.208 211.17 82.253 210.96 82.293 210.76C82.343 210.56 82.393 210.395 82.443 210.265L83.733 205.9H85.473L86.733 210.265C86.793 210.465 86.858 210.705 86.928 210.985C86.998 211.255 87.058 211.525 87.108 211.795C87.168 212.055 87.208 212.28 87.228 212.47H87.288C87.308 212.3 87.343 212.08 87.393 211.81C87.443 211.53 87.503 211.23 87.573 210.91C87.653 210.59 87.728 210.285 87.798 209.995L88.878 205.9H90.483L88.218 213.985H86.403L85.248 209.95ZM100.539 204.535C100.009 204.535 99.5341 204.63 99.1141 204.82C98.6941 205 98.3341 205.27 98.0341 205.63C97.7441 205.99 97.5191 206.425 97.3591 206.935C97.2091 207.445 97.1341 208.02 97.1341 208.66C97.1341 209.5 97.2591 210.23 97.5091 210.85C97.7591 211.46 98.1341 211.93 98.6341 212.26C99.1341 212.59 99.7641 212.755 100.524 212.755C100.984 212.755 101.424 212.715 101.844 212.635C102.274 212.545 102.709 212.43 103.149 212.29V213.685C102.729 213.845 102.299 213.96 101.859 214.03C101.419 214.11 100.909 214.15 100.329 214.15C99.2391 214.15 98.3291 213.925 97.5991 213.475C96.8791 213.025 96.3391 212.385 95.9791 211.555C95.6191 210.725 95.4391 209.755 95.4391 208.645C95.4391 207.835 95.5491 207.095 95.7691 206.425C95.9991 205.745 96.3291 205.16 96.7591 204.67C97.1891 204.18 97.7191 203.805 98.3491 203.545C98.9891 203.275 99.7241 203.14 100.554 203.14C101.094 203.14 101.624 203.2 102.144 203.32C102.664 203.43 103.134 203.59 103.554 203.8L102.954 205.15C102.604 204.99 102.224 204.85 101.814 204.73C101.414 204.6 100.989 204.535 100.539 204.535ZM112.401 209.95C112.401 210.62 112.311 211.215 112.131 211.735C111.951 212.255 111.696 212.695 111.366 213.055C111.036 213.415 110.636 213.69 110.166 213.88C109.696 214.06 109.166 214.15 108.576 214.15C108.036 214.15 107.536 214.06 107.076 213.88C106.616 213.69 106.216 213.415 105.876 213.055C105.546 212.695 105.286 212.255 105.096 211.735C104.906 211.215 104.811 210.615 104.811 209.935C104.811 209.045 104.961 208.29 105.261 207.67C105.571 207.05 106.011 206.58 106.581 206.26C107.161 205.93 107.841 205.765 108.621 205.765C109.361 205.765 110.011 205.93 110.571 206.26C111.141 206.58 111.586 207.05 111.906 207.67C112.236 208.29 112.401 209.05 112.401 209.95ZM106.446 209.95C106.446 210.55 106.521 211.07 106.671 211.51C106.821 211.94 107.056 212.27 107.376 212.5C107.696 212.73 108.106 212.845 108.606 212.845C109.106 212.845 109.516 212.73 109.836 212.5C110.156 212.27 110.391 211.94 110.541 211.51C110.691 211.07 110.766 210.55 110.766 209.95C110.766 209.33 110.686 208.81 110.526 208.39C110.376 207.97 110.141 207.65 109.821 207.43C109.511 207.2 109.101 207.085 108.591 207.085C107.841 207.085 107.296 207.335 106.956 207.835C106.616 208.335 106.446 209.04 106.446 209.95ZM117.192 214.15C116.222 214.15 115.437 213.8 114.837 213.1C114.247 212.4 113.952 211.36 113.952 209.98C113.952 208.59 114.252 207.54 114.852 206.83C115.452 206.12 116.242 205.765 117.222 205.765C117.632 205.765 117.987 205.82 118.287 205.93C118.597 206.03 118.862 206.17 119.082 206.35C119.312 206.53 119.507 206.73 119.667 206.95H119.757C119.737 206.81 119.712 206.61 119.682 206.35C119.652 206.08 119.637 205.84 119.637 205.63V202.6H121.227V214H119.982L119.712 212.92H119.637C119.487 213.15 119.297 213.36 119.067 213.55C118.847 213.73 118.582 213.875 118.272 213.985C117.962 214.095 117.602 214.15 117.192 214.15ZM117.567 212.845C118.347 212.845 118.897 212.63 119.217 212.2C119.537 211.76 119.697 211.105 119.697 210.235V209.995C119.697 209.045 119.542 208.32 119.232 207.82C118.932 207.32 118.372 207.07 117.552 207.07C116.902 207.07 116.412 207.335 116.082 207.865C115.752 208.385 115.587 209.1 115.587 210.01C115.587 210.92 115.752 211.62 116.082 212.11C116.412 212.6 116.907 212.845 117.567 212.845ZM126.899 205.765C127.609 205.765 128.219 205.915 128.729 206.215C129.239 206.505 129.629 206.925 129.899 207.475C130.179 208.025 130.319 208.675 130.319 209.425V210.295H124.889C124.909 211.125 125.124 211.76 125.534 212.2C125.954 212.64 126.539 212.86 127.289 212.86C127.809 212.86 128.269 212.815 128.669 212.725C129.079 212.625 129.499 212.48 129.929 212.29V213.61C129.529 213.79 129.119 213.925 128.699 214.015C128.289 214.105 127.799 214.15 127.229 214.15C126.449 214.15 125.759 213.995 125.159 213.685C124.559 213.375 124.089 212.915 123.749 212.305C123.419 211.685 123.254 210.925 123.254 210.025C123.254 209.115 123.404 208.345 123.704 207.715C124.014 207.085 124.439 206.605 124.979 206.275C125.529 205.935 126.169 205.765 126.899 205.765ZM126.899 206.995C126.329 206.995 125.869 207.18 125.519 207.55C125.179 207.92 124.979 208.445 124.919 209.125H128.729C128.729 208.705 128.664 208.335 128.534 208.015C128.404 207.695 128.204 207.445 127.934 207.265C127.664 207.085 127.319 206.995 126.899 206.995Z" fill="#465BC7"/>
<path fill-rule="evenodd" clip-rule="evenodd" d="M700.2 208C700.2 203.546 703.97 200 708.539 200C709.459 200 710.343 200.151 711.168 200.413L711.295 201.816C709.717 202.659 708.675 204.254 708.675 206.056C708.675 208.704 710.934 210.917 713.804 210.917C714.204 210.917 714.599 210.869 714.98 210.783L715.8 211.917C714.368 214.362 711.644 216 708.535 216C703.97 216 700.2 212.454 700.2 208ZM708.539 201.528C704.734 201.528 701.72 204.463 701.72 208C701.72 211.537 704.735 214.472 708.535 214.472C710.496 214.472 712.254 213.686 713.491 212.438C709.997 212.282 707.155 209.518 707.155 206.056C707.155 204.29 707.901 202.701 709.093 201.55C708.91 201.536 708.725 201.528 708.539 201.528Z" fill="#4457CA"/>
<path d="M756 212.418H753.851V216H740V202.149H743.582V200H756V212.418ZM741.433 203.582V214.567H752.418V212.418H743.582V203.582H741.433ZM745.082 210.918H754.5V201.5H745.082V210.918Z" fill="#4457CA"/>
</svg>
