<svg width="780" height="128" viewBox="0 0 780 128" fill="none" xmlns="http://www.w3.org/2000/svg">
<mask id="path-2-inside-1_3_360" fill="white">
<path d="M0 2C0 0.895429 0.895431 0 2 0H778C779.105 0 780 0.895431 780 2V80H0V2Z"/>
</mask>
<path d="M0 2C0 0.895429 0.895431 0 2 0H778C779.105 0 780 0.895431 780 2V80H0V2Z" fill="white"/>
<path d="M-1 2C-1 0.343146 0.343146 -1 2 -1H778C779.657 -1 781 0.343146 781 2H779C779 1.44772 778.552 1 778 1H2C1.44772 1 1 1.44772 1 2H-1ZM780 80H0H780ZM-1 80V2C-1 0.343146 0.343146 -1 2 -1V1C1.44772 1 1 1.44772 1 2V80H-1ZM778 -1C779.657 -1 781 0.343146 781 2V80H779V2C779 1.44772 778.552 1 778 1V-1Z" fill="#D9D9D9" mask="url(#path-2-inside-1_3_360)"/>
<path d="M199.5 20.5V59.5H40.5V20.5H199.5Z" fill="white"/>
<path d="M199.5 20.5V59.5H40.5V20.5H199.5Z" stroke="#D9D9D9"/>
<path d="M56.075 37.245H57.38L59.75 43.365L62.045 37.245H63.365L59.12 47.97H57.815L59.15 44.82L56.075 37.245ZM63.5164 37.245H64.8214L67.1914 43.365L69.4864 37.245H70.8064L66.5614 47.97H65.2564L66.5914 44.82L63.5164 37.245ZM70.9578 37.245H72.2628L74.6328 43.365L76.9278 37.245H78.2478L74.0028 47.97H72.6978L74.0328 44.82L70.9578 37.245ZM78.3992 37.245H79.7042L82.0742 43.365L84.3692 37.245H85.6892L81.4442 47.97H80.1392L81.4742 44.82L78.3992 37.245ZM86.5156 40.605H94.0906V41.625H86.5156V40.605ZM99.1677 37.035C100.353 37.035 101.163 37.515 101.598 38.505C101.898 37.995 102.258 37.62 102.678 37.395C103.053 37.155 103.503 37.035 104.043 37.035C104.853 37.035 105.498 37.29 106.008 37.8C106.488 38.325 106.743 39.03 106.743 39.915V45H105.543V40.11C105.543 39.42 105.393 38.91 105.108 38.58C104.808 38.22 104.328 38.055 103.668 38.055C103.158 38.055 102.723 38.235 102.393 38.625C102.033 39.015 101.868 39.51 101.868 40.14V45H100.668V40.11C100.668 38.73 100.068 38.055 98.8827 38.055C98.3277 38.055 97.8777 38.265 97.5177 38.715C97.1577 39.135 96.9777 39.66 96.9777 40.275V45H95.7777V37.245H96.9777V38.28C97.5627 37.44 98.2977 37.035 99.1677 37.035ZM112 37.035C113.185 37.035 113.995 37.515 114.43 38.505C114.73 37.995 115.09 37.62 115.51 37.395C115.885 37.155 116.335 37.035 116.875 37.035C117.685 37.035 118.33 37.29 118.84 37.8C119.32 38.325 119.575 39.03 119.575 39.915V45H118.375V40.11C118.375 39.42 118.225 38.91 117.94 38.58C117.64 38.22 117.16 38.055 116.5 38.055C115.99 38.055 115.555 38.235 115.225 38.625C114.865 39.015 114.7 39.51 114.7 40.14V45H113.5V40.11C113.5 38.73 112.9 38.055 111.715 38.055C111.16 38.055 110.71 38.265 110.35 38.715C109.99 39.135 109.81 39.66 109.81 40.275V45H108.61V37.245H109.81V38.28C110.395 37.44 111.13 37.035 112 37.035ZM121.262 40.605H128.837V41.625H121.262V40.605ZM136.254 34.08H137.454V45H136.329V43.725C135.789 44.715 134.919 45.21 133.749 45.21C132.609 45.21 131.724 44.79 131.094 43.98C130.509 43.23 130.224 42.27 130.224 41.1C130.224 39.96 130.509 39.03 131.094 38.28C131.724 37.44 132.579 37.035 133.689 37.035C134.799 37.035 135.654 37.575 136.254 38.67V34.08ZM133.944 38.025C133.089 38.025 132.444 38.325 132.024 38.925C131.634 39.45 131.454 40.17 131.454 41.1C131.454 42.03 131.634 42.765 132.009 43.305C132.429 43.905 133.059 44.22 133.899 44.22C134.679 44.22 135.279 43.92 135.714 43.32C136.089 42.78 136.284 42.075 136.284 41.205V41.055C136.284 40.155 136.059 39.42 135.639 38.865C135.204 38.295 134.634 38.025 133.944 38.025ZM145.043 34.08H146.243V45H145.118V43.725C144.578 44.715 143.708 45.21 142.538 45.21C141.398 45.21 140.513 44.79 139.883 43.98C139.298 43.23 139.013 42.27 139.013 41.1C139.013 39.96 139.298 39.03 139.883 38.28C140.513 37.44 141.368 37.035 142.478 37.035C143.588 37.035 144.443 37.575 145.043 38.67V34.08ZM142.733 38.025C141.878 38.025 141.233 38.325 140.813 38.925C140.423 39.45 140.243 40.17 140.243 41.1C140.243 42.03 140.423 42.765 140.798 43.305C141.218 43.905 141.848 44.22 142.688 44.22C143.468 44.22 144.068 43.92 144.503 43.32C144.878 42.78 145.073 42.075 145.073 41.205V41.055C145.073 40.155 144.848 39.42 144.428 38.865C143.993 38.295 143.423 38.025 142.733 38.025Z" fill="#8F8F8F"/>
<path d="M174 35H178V33H179.5V35H183V47H169V35H172.5V33H174V35ZM170.312 40.5V45.7139H181.688V40.5H170.312ZM170.312 39H181.688V36.2861H179.5V37.5H178V36.2861H174V37.5H172.5V36.2861H170.312V39Z" fill="#8F8F8F"/>
<rect width="160" height="40" transform="translate(220 20)" fill="#E5E5E5"/>
<path d="M236.075 37.245H237.38L239.75 43.365L242.045 37.245H243.365L239.12 47.97H237.815L239.15 44.82L236.075 37.245ZM243.516 37.245H244.821L247.191 43.365L249.486 37.245H250.806L246.561 47.97H245.256L246.591 44.82L243.516 37.245ZM250.958 37.245H252.263L254.633 43.365L256.928 37.245H258.248L254.003 47.97H252.698L254.033 44.82L250.958 37.245ZM258.399 37.245H259.704L262.074 43.365L264.369 37.245H265.689L261.444 47.97H260.139L261.474 44.82L258.399 37.245ZM266.516 40.605H274.091V41.625H266.516V40.605ZM279.168 37.035C280.353 37.035 281.163 37.515 281.598 38.505C281.898 37.995 282.258 37.62 282.678 37.395C283.053 37.155 283.503 37.035 284.043 37.035C284.853 37.035 285.498 37.29 286.008 37.8C286.488 38.325 286.743 39.03 286.743 39.915V45H285.543V40.11C285.543 39.42 285.393 38.91 285.108 38.58C284.808 38.22 284.328 38.055 283.668 38.055C283.158 38.055 282.723 38.235 282.393 38.625C282.033 39.015 281.868 39.51 281.868 40.14V45H280.668V40.11C280.668 38.73 280.068 38.055 278.883 38.055C278.328 38.055 277.878 38.265 277.518 38.715C277.158 39.135 276.978 39.66 276.978 40.275V45H275.778V37.245H276.978V38.28C277.563 37.44 278.298 37.035 279.168 37.035ZM292 37.035C293.185 37.035 293.995 37.515 294.43 38.505C294.73 37.995 295.09 37.62 295.51 37.395C295.885 37.155 296.335 37.035 296.875 37.035C297.685 37.035 298.33 37.29 298.84 37.8C299.32 38.325 299.575 39.03 299.575 39.915V45H298.375V40.11C298.375 39.42 298.225 38.91 297.94 38.58C297.64 38.22 297.16 38.055 296.5 38.055C295.99 38.055 295.555 38.235 295.225 38.625C294.865 39.015 294.7 39.51 294.7 40.14V45H293.5V40.11C293.5 38.73 292.9 38.055 291.715 38.055C291.16 38.055 290.71 38.265 290.35 38.715C289.99 39.135 289.81 39.66 289.81 40.275V45H288.61V37.245H289.81V38.28C290.395 37.44 291.13 37.035 292 37.035ZM301.262 40.605H308.837V41.625H301.262V40.605ZM316.254 34.08H317.454V45H316.329V43.725C315.789 44.715 314.919 45.21 313.749 45.21C312.609 45.21 311.724 44.79 311.094 43.98C310.509 43.23 310.224 42.27 310.224 41.1C310.224 39.96 310.509 39.03 311.094 38.28C311.724 37.44 312.579 37.035 313.689 37.035C314.799 37.035 315.654 37.575 316.254 38.67V34.08ZM313.944 38.025C313.089 38.025 312.444 38.325 312.024 38.925C311.634 39.45 311.454 40.17 311.454 41.1C311.454 42.03 311.634 42.765 312.009 43.305C312.429 43.905 313.059 44.22 313.899 44.22C314.679 44.22 315.279 43.92 315.714 43.32C316.089 42.78 316.284 42.075 316.284 41.205V41.055C316.284 40.155 316.059 39.42 315.639 38.865C315.204 38.295 314.634 38.025 313.944 38.025ZM325.043 34.08H326.243V45H325.118V43.725C324.578 44.715 323.708 45.21 322.538 45.21C321.398 45.21 320.513 44.79 319.883 43.98C319.298 43.23 319.013 42.27 319.013 41.1C319.013 39.96 319.298 39.03 319.883 38.28C320.513 37.44 321.368 37.035 322.478 37.035C323.588 37.035 324.443 37.575 325.043 38.67V34.08ZM322.733 38.025C321.878 38.025 321.233 38.325 320.813 38.925C320.423 39.45 320.243 40.17 320.243 41.1C320.243 42.03 320.423 42.765 320.798 43.305C321.218 43.905 321.848 44.22 322.688 44.22C323.468 44.22 324.068 43.92 324.503 43.32C324.878 42.78 325.073 42.075 325.073 41.205V41.055C325.073 40.155 324.848 39.42 324.428 38.865C323.993 38.295 323.423 38.025 322.733 38.025Z" fill="#BCBCBC"/>
<path d="M354 35H358V33H359.5V35H363V47H349V35H352.5V33H354V35ZM350.312 40.5V45.7139H361.688V40.5H350.312ZM350.312 39H361.688V36.2861H359.5V37.5H358V36.2861H354V37.5H352.5V36.2861H350.312V39Z" fill="#BCBCBC"/>
<path d="M559.5 20.5V59.5H400.5V20.5H559.5Z" fill="white"/>
<path d="M559.5 20.5V59.5H400.5V20.5H559.5Z" stroke="#FB414A"/>
<path d="M420.65 34.08C421.64 34.08 422.45 34.365 423.095 34.935C423.725 35.505 424.055 36.27 424.055 37.2C424.055 38.13 423.695 38.97 423.005 39.72C422.63 40.11 421.895 40.695 420.785 41.445C419.42 42.36 418.64 43.185 418.445 43.905H424.07V45H416.93C416.93 44.025 417.275 43.14 417.995 42.345C418.415 41.865 419.18 41.22 420.32 40.44C421.16 39.84 421.715 39.405 422 39.105C422.54 38.52 422.825 37.875 422.825 37.185C422.825 36.525 422.63 36.03 422.24 35.67C421.85 35.31 421.295 35.13 420.605 35.13C419.87 35.13 419.3 35.37 418.91 35.88C418.49 36.36 418.265 37.08 418.25 38.025H417.02C417.02 36.825 417.365 35.865 418.025 35.16C418.685 34.44 419.57 34.08 420.65 34.08ZM429.494 34.08C430.769 34.08 431.729 34.635 432.389 35.775C432.959 36.735 433.244 38.025 433.244 39.645C433.244 41.265 432.959 42.555 432.389 43.515C431.729 44.64 430.769 45.21 429.494 45.21C428.204 45.21 427.244 44.64 426.599 43.515C426.029 42.555 425.744 41.265 425.744 39.645C425.744 38.025 426.029 36.735 426.599 35.775C427.244 34.635 428.204 34.08 429.494 34.08ZM429.494 35.13C428.534 35.13 427.844 35.64 427.424 36.675C427.124 37.395 426.974 38.385 426.974 39.645C426.974 40.89 427.124 41.88 427.424 42.615C427.844 43.635 428.534 44.16 429.494 44.16C430.454 44.16 431.144 43.635 431.564 42.615C431.864 41.88 432.029 40.89 432.029 39.645C432.029 38.385 431.864 37.395 431.564 36.675C431.144 35.64 430.454 35.13 429.494 35.13ZM438.488 34.08C439.763 34.08 440.723 34.635 441.383 35.775C441.953 36.735 442.238 38.025 442.238 39.645C442.238 41.265 441.953 42.555 441.383 43.515C440.723 44.64 439.763 45.21 438.488 45.21C437.198 45.21 436.238 44.64 435.593 43.515C435.023 42.555 434.738 41.265 434.738 39.645C434.738 38.025 435.023 36.735 435.593 35.775C436.238 34.635 437.198 34.08 438.488 34.08ZM438.488 35.13C437.528 35.13 436.838 35.64 436.418 36.675C436.118 37.395 435.968 38.385 435.968 39.645C435.968 40.89 436.118 41.88 436.418 42.615C436.838 43.635 437.528 44.16 438.488 44.16C439.448 44.16 440.138 43.635 440.558 42.615C440.858 41.88 441.023 40.89 441.023 39.645C441.023 38.385 440.858 37.395 440.558 36.675C440.138 35.64 439.448 35.13 438.488 35.13ZM447.632 34.08C448.622 34.08 449.432 34.365 450.077 34.935C450.707 35.505 451.037 36.27 451.037 37.2C451.037 38.13 450.677 38.97 449.987 39.72C449.612 40.11 448.877 40.695 447.767 41.445C446.402 42.36 445.622 43.185 445.427 43.905H451.052V45H443.912C443.912 44.025 444.257 43.14 444.977 42.345C445.397 41.865 446.162 41.22 447.302 40.44C448.142 39.84 448.697 39.405 448.982 39.105C449.522 38.52 449.807 37.875 449.807 37.185C449.807 36.525 449.612 36.03 449.222 35.67C448.832 35.31 448.277 35.13 447.587 35.13C446.852 35.13 446.282 35.37 445.892 35.88C445.472 36.36 445.247 37.08 445.232 38.025H444.002C444.002 36.825 444.347 35.865 445.007 35.16C445.667 34.44 446.552 34.08 447.632 34.08ZM452.727 40.605H460.302V41.625H452.727V40.605ZM465.559 34.08C466.834 34.08 467.794 34.635 468.454 35.775C469.024 36.735 469.309 38.025 469.309 39.645C469.309 41.265 469.024 42.555 468.454 43.515C467.794 44.64 466.834 45.21 465.559 45.21C464.269 45.21 463.309 44.64 462.664 43.515C462.094 42.555 461.809 41.265 461.809 39.645C461.809 38.025 462.094 36.735 462.664 35.775C463.309 34.635 464.269 34.08 465.559 34.08ZM465.559 35.13C464.599 35.13 463.909 35.64 463.489 36.675C463.189 37.395 463.039 38.385 463.039 39.645C463.039 40.89 463.189 41.88 463.489 42.615C463.909 43.635 464.599 44.16 465.559 44.16C466.519 44.16 467.209 43.635 467.629 42.615C467.929 41.88 468.094 40.89 468.094 39.645C468.094 38.385 467.929 37.395 467.629 36.675C467.209 35.64 466.519 35.13 465.559 35.13ZM474.703 34.08C475.693 34.08 476.503 34.365 477.148 34.935C477.778 35.505 478.108 36.27 478.108 37.2C478.108 38.13 477.748 38.97 477.058 39.72C476.683 40.11 475.948 40.695 474.838 41.445C473.473 42.36 472.693 43.185 472.498 43.905H478.123V45H470.983C470.983 44.025 471.328 43.14 472.048 42.345C472.468 41.865 473.233 41.22 474.373 40.44C475.213 39.84 475.768 39.405 476.053 39.105C476.593 38.52 476.878 37.875 476.878 37.185C476.878 36.525 476.683 36.03 476.293 35.67C475.903 35.31 475.348 35.13 474.658 35.13C473.923 35.13 473.353 35.37 472.963 35.88C472.543 36.36 472.318 37.08 472.303 38.025H471.073C471.073 36.825 471.418 35.865 472.078 35.16C472.738 34.44 473.623 34.08 474.703 34.08ZM479.797 40.605H487.372V41.625H479.797V40.605ZM492.734 34.08C493.754 34.08 494.594 34.335 495.224 34.86C495.839 35.385 496.154 36.09 496.154 36.99C496.154 38.19 495.569 39 494.399 39.39C495.029 39.585 495.509 39.885 495.839 40.305C496.199 40.725 496.379 41.25 496.379 41.88C496.379 42.855 496.034 43.65 495.359 44.265C494.669 44.895 493.769 45.21 492.659 45.21C491.639 45.21 490.814 44.94 490.169 44.43C489.404 43.8 488.984 42.885 488.894 41.685H490.139C490.169 42.525 490.454 43.17 490.979 43.605C491.429 43.965 491.984 44.16 492.659 44.16C493.424 44.16 494.039 43.935 494.504 43.5C494.924 43.08 495.149 42.555 495.149 41.925C495.149 41.28 494.939 40.785 494.519 40.425C494.099 40.065 493.529 39.9 492.779 39.9H491.909V38.94H492.734C493.454 38.94 493.994 38.775 494.369 38.46C494.744 38.13 494.939 37.665 494.939 37.065C494.939 36.465 494.744 36 494.384 35.67C493.994 35.31 493.439 35.145 492.749 35.145C492.029 35.145 491.474 35.325 491.069 35.715C490.649 36.105 490.409 36.66 490.334 37.38H489.119C489.209 36.345 489.599 35.535 490.259 34.95C490.889 34.365 491.714 34.08 492.734 34.08ZM501.623 34.08C502.898 34.08 503.858 34.635 504.518 35.775C505.088 36.735 505.373 38.025 505.373 39.645C505.373 41.265 505.088 42.555 504.518 43.515C503.858 44.64 502.898 45.21 501.623 45.21C500.333 45.21 499.373 44.64 498.728 43.515C498.158 42.555 497.873 41.265 497.873 39.645C497.873 38.025 498.158 36.735 498.728 35.775C499.373 34.635 500.333 34.08 501.623 34.08ZM501.623 35.13C500.663 35.13 499.973 35.64 499.553 36.675C499.253 37.395 499.103 38.385 499.103 39.645C499.103 40.89 499.253 41.88 499.553 42.615C499.973 43.635 500.663 44.16 501.623 44.16C502.583 44.16 503.273 43.635 503.693 42.615C503.993 41.88 504.158 40.89 504.158 39.645C504.158 38.385 503.993 37.395 503.693 36.675C503.273 35.64 502.583 35.13 501.623 35.13Z" fill="#161616"/>
<path d="M534 35H538V33H539.5V35H543V47H529V35H532.5V33H534V35ZM530.312 40.5V45.7139H541.688V40.5H530.312ZM530.312 39H541.688V36.2861H539.5V37.5H538V36.2861H534V37.5H532.5V36.2861H530.312V39Z" fill="#8F8F8F"/>
<path d="M739.5 20.5V59.5H580.5V20.5H739.5Z" fill="white"/>
<path d="M739.5 20.5V59.5H580.5V20.5H739.5Z" stroke="#D9D9D9"/>
<path d="M600.65 34.08C601.64 34.08 602.45 34.365 603.095 34.935C603.725 35.505 604.055 36.27 604.055 37.2C604.055 38.13 603.695 38.97 603.005 39.72C602.63 40.11 601.895 40.695 600.785 41.445C599.42 42.36 598.64 43.185 598.445 43.905H604.07V45H596.93C596.93 44.025 597.275 43.14 597.995 42.345C598.415 41.865 599.18 41.22 600.32 40.44C601.16 39.84 601.715 39.405 602 39.105C602.54 38.52 602.825 37.875 602.825 37.185C602.825 36.525 602.63 36.03 602.24 35.67C601.85 35.31 601.295 35.13 600.605 35.13C599.87 35.13 599.3 35.37 598.91 35.88C598.49 36.36 598.265 37.08 598.25 38.025H597.02C597.02 36.825 597.365 35.865 598.025 35.16C598.685 34.44 599.57 34.08 600.65 34.08ZM609.494 34.08C610.769 34.08 611.729 34.635 612.389 35.775C612.959 36.735 613.244 38.025 613.244 39.645C613.244 41.265 612.959 42.555 612.389 43.515C611.729 44.64 610.769 45.21 609.494 45.21C608.204 45.21 607.244 44.64 606.599 43.515C606.029 42.555 605.744 41.265 605.744 39.645C605.744 38.025 606.029 36.735 606.599 35.775C607.244 34.635 608.204 34.08 609.494 34.08ZM609.494 35.13C608.534 35.13 607.844 35.64 607.424 36.675C607.124 37.395 606.974 38.385 606.974 39.645C606.974 40.89 607.124 41.88 607.424 42.615C607.844 43.635 608.534 44.16 609.494 44.16C610.454 44.16 611.144 43.635 611.564 42.615C611.864 41.88 612.029 40.89 612.029 39.645C612.029 38.385 611.864 37.395 611.564 36.675C611.144 35.64 610.454 35.13 609.494 35.13ZM618.638 34.08C619.628 34.08 620.438 34.365 621.083 34.935C621.713 35.505 622.043 36.27 622.043 37.2C622.043 38.13 621.683 38.97 620.993 39.72C620.618 40.11 619.883 40.695 618.773 41.445C617.408 42.36 616.628 43.185 616.433 43.905H622.058V45H614.918C614.918 44.025 615.263 43.14 615.983 42.345C616.403 41.865 617.168 41.22 618.308 40.44C619.148 39.84 619.703 39.405 619.988 39.105C620.528 38.52 620.813 37.875 620.813 37.185C620.813 36.525 620.618 36.03 620.228 35.67C619.838 35.31 619.283 35.13 618.593 35.13C617.858 35.13 617.288 35.37 616.898 35.88C616.478 36.36 616.253 37.08 616.238 38.025H615.008C615.008 36.825 615.353 35.865 616.013 35.16C616.673 34.44 617.558 34.08 618.638 34.08ZM624.557 34.29H630.782V35.385H625.562L625.202 38.97H625.262C625.562 38.61 625.952 38.34 626.417 38.16C626.837 37.98 627.287 37.905 627.782 37.905C628.802 37.905 629.627 38.22 630.257 38.865C630.887 39.525 631.217 40.425 631.217 41.58C631.217 42.66 630.827 43.545 630.062 44.235C629.342 44.88 628.442 45.21 627.392 45.21C626.447 45.21 625.637 44.955 624.977 44.445C624.227 43.875 623.822 43.095 623.747 42.12H624.962C625.022 42.795 625.292 43.32 625.772 43.68C626.192 43.995 626.747 44.16 627.407 44.16C628.157 44.16 628.772 43.92 629.267 43.44C629.747 42.96 630.002 42.345 630.002 41.595C630.002 40.74 629.762 40.08 629.312 39.615C628.877 39.135 628.262 38.91 627.482 38.91C626.972 38.91 626.522 39.015 626.117 39.24C625.697 39.45 625.367 39.78 625.157 40.2H623.987L624.557 34.29ZM632.727 40.605H640.302V41.625H632.727V40.605ZM645.559 34.08C646.834 34.08 647.794 34.635 648.454 35.775C649.024 36.735 649.309 38.025 649.309 39.645C649.309 41.265 649.024 42.555 648.454 43.515C647.794 44.64 646.834 45.21 645.559 45.21C644.269 45.21 643.309 44.64 642.664 43.515C642.094 42.555 641.809 41.265 641.809 39.645C641.809 38.025 642.094 36.735 642.664 35.775C643.309 34.635 644.269 34.08 645.559 34.08ZM645.559 35.13C644.599 35.13 643.909 35.64 643.489 36.675C643.189 37.395 643.039 38.385 643.039 39.645C643.039 40.89 643.189 41.88 643.489 42.615C643.909 43.635 644.599 44.16 645.559 44.16C646.519 44.16 647.209 43.635 647.629 42.615C647.929 41.88 648.094 40.89 648.094 39.645C648.094 38.385 647.929 37.395 647.629 36.675C647.209 35.64 646.519 35.13 645.559 35.13ZM655.813 34.29H656.968V41.565H658.708V42.57H656.968V45H655.798V42.57H650.413V41.4L655.813 34.29ZM655.753 35.895L651.448 41.565H655.798V35.895H655.753ZM659.797 40.605H667.372V41.625H659.797V40.605ZM672.779 34.08C673.769 34.08 674.579 34.365 675.224 34.935C675.854 35.505 676.184 36.27 676.184 37.2C676.184 38.13 675.824 38.97 675.134 39.72C674.759 40.11 674.024 40.695 672.914 41.445C671.549 42.36 670.769 43.185 670.574 43.905H676.199V45H669.059C669.059 44.025 669.404 43.14 670.124 42.345C670.544 41.865 671.309 41.22 672.449 40.44C673.289 39.84 673.844 39.405 674.129 39.105C674.669 38.52 674.954 37.875 674.954 37.185C674.954 36.525 674.759 36.03 674.369 35.67C673.979 35.31 673.424 35.13 672.734 35.13C671.999 35.13 671.429 35.37 671.039 35.88C670.619 36.36 670.394 37.08 670.379 38.025H669.149C669.149 36.825 669.494 35.865 670.154 35.16C670.814 34.44 671.699 34.08 672.779 34.08ZM682.883 34.29H684.038V41.565H685.778V42.57H684.038V45H682.868V42.57H677.483V41.4L682.883 34.29ZM682.823 35.895L678.518 41.565H682.868V35.895H682.823Z" fill="#161616"/>
<path d="M714 35H718V33H719.5V35H723V47H709V35H712.5V33H714V35ZM710.312 40.5V45.7139H721.688V40.5H710.312ZM710.312 39H721.688V36.2861H719.5V37.5H718V36.2861H714V37.5H712.5V36.2861H710.312V39Z" fill="#8F8F8F"/>
<mask id="path-15-inside-2_3_360" fill="white">
<path d="M0 80H780V126C780 127.105 779.105 128 778 128H1.99998C0.895407 128 0 127.105 0 126V80Z"/>
</mask>
<path d="M0 80H780V126C780 127.105 779.105 128 778 128H1.99998C0.895407 128 0 127.105 0 126V80Z" fill="#E7E7E7"/>
<path d="M0 80H780H0ZM781 126C781 127.657 779.657 129 778 129H2C0.343146 129 -1 127.657 -1 126H1C1 126.552 1.44772 127 2 127H778C778.552 127 779 126.552 779 126H781ZM2 129C0.343146 129 -1 127.657 -1 126V80H1V126C1 126.552 1.44772 127 2 127V129ZM781 80V126C781 127.657 779.657 129 778 129V127C778.552 127 779 126.552 779 126V80H781Z" fill="#D9D9D9" mask="url(#path-15-inside-2_3_360)"/>
<path fill-rule="evenodd" clip-rule="evenodd" d="M36.0005 108L29 100.98L29.9762 100H29.9781L36.0005 106.041L42.0238 100H42.0258L43 100.979V100.981L36.0005 108Z" fill="#4457CA"/>
<path d="M59.575 107.105C59.575 107.745 59.42 108.29 59.11 108.74C58.8 109.19 58.355 109.54 57.775 109.79C57.195 110.03 56.505 110.15 55.705 110.15C55.315 110.15 54.94 110.125 54.58 110.075C54.22 110.035 53.885 109.975 53.575 109.895C53.265 109.815 52.99 109.715 52.75 109.595V108.065C53.15 108.245 53.62 108.41 54.16 108.56C54.7 108.7 55.25 108.77 55.81 108.77C56.29 108.77 56.69 108.705 57.01 108.575C57.33 108.445 57.57 108.265 57.73 108.035C57.89 107.805 57.97 107.535 57.97 107.225C57.97 106.895 57.885 106.62 57.715 106.4C57.555 106.17 57.3 105.96 56.95 105.77C56.61 105.57 56.15 105.36 55.57 105.14C55.17 104.99 54.805 104.825 54.475 104.645C54.155 104.455 53.87 104.235 53.62 103.985C53.38 103.735 53.195 103.445 53.065 103.115C52.935 102.785 52.87 102.4 52.87 101.96C52.87 101.37 53.015 100.865 53.305 100.445C53.605 100.025 54.015 99.705 54.535 99.485C55.055 99.255 55.66 99.14 56.35 99.14C56.93 99.14 57.465 99.2 57.955 99.32C58.455 99.43 58.93 99.585 59.38 99.785L58.87 101.12C58.46 100.95 58.045 100.81 57.625 100.7C57.205 100.59 56.765 100.535 56.305 100.535C55.905 100.535 55.57 100.595 55.3 100.715C55.03 100.835 54.825 101 54.685 101.21C54.555 101.42 54.49 101.665 54.49 101.945C54.49 102.275 54.565 102.55 54.715 102.77C54.865 102.99 55.105 103.195 55.435 103.385C55.765 103.565 56.2 103.765 56.74 103.985C57.34 104.215 57.85 104.465 58.27 104.735C58.7 105.005 59.025 105.33 59.245 105.71C59.465 106.08 59.575 106.545 59.575 107.105ZM63.0821 101.645C63.0821 101.895 63.0721 102.145 63.0521 102.395C63.0321 102.645 63.0121 102.85 62.9921 103.01H63.0971C63.2671 102.73 63.4771 102.5 63.7271 102.32C63.9871 102.14 64.2721 102.005 64.5821 101.915C64.9021 101.825 65.2271 101.78 65.5571 101.78C66.1971 101.78 66.7321 101.885 67.1621 102.095C67.6021 102.295 67.9321 102.615 68.1521 103.055C68.3821 103.485 68.4971 104.045 68.4971 104.735V110H66.9221V104.96C66.9221 104.33 66.7871 103.86 66.5171 103.55C66.2571 103.23 65.8371 103.07 65.2571 103.07C64.7071 103.07 64.2721 103.18 63.9521 103.4C63.6421 103.62 63.4171 103.945 63.2771 104.375C63.1471 104.795 63.0821 105.315 63.0821 105.935V110H61.4921V98.6H63.0821V101.645ZM78.0653 105.95C78.0653 106.62 77.9753 107.215 77.7953 107.735C77.6153 108.255 77.3603 108.695 77.0303 109.055C76.7003 109.415 76.3003 109.69 75.8303 109.88C75.3603 110.06 74.8303 110.15 74.2403 110.15C73.7003 110.15 73.2003 110.06 72.7403 109.88C72.2803 109.69 71.8803 109.415 71.5403 109.055C71.2103 108.695 70.9503 108.255 70.7603 107.735C70.5703 107.215 70.4753 106.615 70.4753 105.935C70.4753 105.045 70.6253 104.29 70.9253 103.67C71.2353 103.05 71.6753 102.58 72.2453 102.26C72.8253 101.93 73.5053 101.765 74.2853 101.765C75.0253 101.765 75.6753 101.93 76.2353 102.26C76.8053 102.58 77.2503 103.05 77.5703 103.67C77.9003 104.29 78.0653 105.05 78.0653 105.95ZM72.1103 105.95C72.1103 106.55 72.1853 107.07 72.3353 107.51C72.4853 107.94 72.7203 108.27 73.0403 108.5C73.3603 108.73 73.7703 108.845 74.2703 108.845C74.7703 108.845 75.1803 108.73 75.5003 108.5C75.8203 108.27 76.0553 107.94 76.2053 107.51C76.3553 107.07 76.4303 106.55 76.4303 105.95C76.4303 105.33 76.3503 104.81 76.1903 104.39C76.0403 103.97 75.8053 103.65 75.4853 103.43C75.1753 103.2 74.7653 103.085 74.2553 103.085C73.5053 103.085 72.9603 103.335 72.6203 103.835C72.2803 104.335 72.1103 105.04 72.1103 105.95ZM85.248 105.95C85.198 105.75 85.138 105.53 85.068 105.29C85.008 105.05 84.948 104.81 84.888 104.57C84.828 104.32 84.773 104.09 84.723 103.88C84.673 103.67 84.633 103.505 84.603 103.385H84.543C84.523 103.505 84.488 103.67 84.438 103.88C84.398 104.09 84.348 104.32 84.288 104.57C84.228 104.81 84.168 105.055 84.108 105.305C84.048 105.545 83.983 105.765 83.913 105.965L82.713 109.985H80.943L78.708 101.9H80.328L81.378 105.995C81.458 106.275 81.528 106.57 81.588 106.88C81.658 107.19 81.718 107.49 81.768 107.78C81.828 108.06 81.868 108.295 81.888 108.485H81.948C81.968 108.355 81.998 108.195 82.038 108.005C82.078 107.805 82.118 107.6 82.158 107.39C82.208 107.17 82.253 106.96 82.293 106.76C82.343 106.56 82.393 106.395 82.443 106.265L83.733 101.9H85.473L86.733 106.265C86.793 106.465 86.858 106.705 86.928 106.985C86.998 107.255 87.058 107.525 87.108 107.795C87.168 108.055 87.208 108.28 87.228 108.47H87.288C87.308 108.3 87.343 108.08 87.393 107.81C87.443 107.53 87.503 107.23 87.573 106.91C87.653 106.59 87.728 106.285 87.798 105.995L88.878 101.9H90.483L88.218 109.985H86.403L85.248 105.95ZM100.539 100.535C100.009 100.535 99.5341 100.63 99.1141 100.82C98.6941 101 98.3341 101.27 98.0341 101.63C97.7441 101.99 97.5191 102.425 97.3591 102.935C97.2091 103.445 97.1341 104.02 97.1341 104.66C97.1341 105.5 97.2591 106.23 97.5091 106.85C97.7591 107.46 98.1341 107.93 98.6341 108.26C99.1341 108.59 99.7641 108.755 100.524 108.755C100.984 108.755 101.424 108.715 101.844 108.635C102.274 108.545 102.709 108.43 103.149 108.29V109.685C102.729 109.845 102.299 109.96 101.859 110.03C101.419 110.11 100.909 110.15 100.329 110.15C99.2391 110.15 98.3291 109.925 97.5991 109.475C96.8791 109.025 96.3391 108.385 95.9791 107.555C95.6191 106.725 95.4391 105.755 95.4391 104.645C95.4391 103.835 95.5491 103.095 95.7691 102.425C95.9991 101.745 96.3291 101.16 96.7591 100.67C97.1891 100.18 97.7191 99.805 98.3491 99.545C98.9891 99.275 99.7241 99.14 100.554 99.14C101.094 99.14 101.624 99.2 102.144 99.32C102.664 99.43 103.134 99.59 103.554 99.8L102.954 101.15C102.604 100.99 102.224 100.85 101.814 100.73C101.414 100.6 100.989 100.535 100.539 100.535ZM112.401 105.95C112.401 106.62 112.311 107.215 112.131 107.735C111.951 108.255 111.696 108.695 111.366 109.055C111.036 109.415 110.636 109.69 110.166 109.88C109.696 110.06 109.166 110.15 108.576 110.15C108.036 110.15 107.536 110.06 107.076 109.88C106.616 109.69 106.216 109.415 105.876 109.055C105.546 108.695 105.286 108.255 105.096 107.735C104.906 107.215 104.811 106.615 104.811 105.935C104.811 105.045 104.961 104.29 105.261 103.67C105.571 103.05 106.011 102.58 106.581 102.26C107.161 101.93 107.841 101.765 108.621 101.765C109.361 101.765 110.011 101.93 110.571 102.26C111.141 102.58 111.586 103.05 111.906 103.67C112.236 104.29 112.401 105.05 112.401 105.95ZM106.446 105.95C106.446 106.55 106.521 107.07 106.671 107.51C106.821 107.94 107.056 108.27 107.376 108.5C107.696 108.73 108.106 108.845 108.606 108.845C109.106 108.845 109.516 108.73 109.836 108.5C110.156 108.27 110.391 107.94 110.541 107.51C110.691 107.07 110.766 106.55 110.766 105.95C110.766 105.33 110.686 104.81 110.526 104.39C110.376 103.97 110.141 103.65 109.821 103.43C109.511 103.2 109.101 103.085 108.591 103.085C107.841 103.085 107.296 103.335 106.956 103.835C106.616 104.335 106.446 105.04 106.446 105.95ZM117.192 110.15C116.222 110.15 115.437 109.8 114.837 109.1C114.247 108.4 113.952 107.36 113.952 105.98C113.952 104.59 114.252 103.54 114.852 102.83C115.452 102.12 116.242 101.765 117.222 101.765C117.632 101.765 117.987 101.82 118.287 101.93C118.597 102.03 118.862 102.17 119.082 102.35C119.312 102.53 119.507 102.73 119.667 102.95H119.757C119.737 102.81 119.712 102.61 119.682 102.35C119.652 102.08 119.637 101.84 119.637 101.63V98.6H121.227V110H119.982L119.712 108.92H119.637C119.487 109.15 119.297 109.36 119.067 109.55C118.847 109.73 118.582 109.875 118.272 109.985C117.962 110.095 117.602 110.15 117.192 110.15ZM117.567 108.845C118.347 108.845 118.897 108.63 119.217 108.2C119.537 107.76 119.697 107.105 119.697 106.235V105.995C119.697 105.045 119.542 104.32 119.232 103.82C118.932 103.32 118.372 103.07 117.552 103.07C116.902 103.07 116.412 103.335 116.082 103.865C115.752 104.385 115.587 105.1 115.587 106.01C115.587 106.92 115.752 107.62 116.082 108.11C116.412 108.6 116.907 108.845 117.567 108.845ZM126.899 101.765C127.609 101.765 128.219 101.915 128.729 102.215C129.239 102.505 129.629 102.925 129.899 103.475C130.179 104.025 130.319 104.675 130.319 105.425V106.295H124.889C124.909 107.125 125.124 107.76 125.534 108.2C125.954 108.64 126.539 108.86 127.289 108.86C127.809 108.86 128.269 108.815 128.669 108.725C129.079 108.625 129.499 108.48 129.929 108.29V109.61C129.529 109.79 129.119 109.925 128.699 110.015C128.289 110.105 127.799 110.15 127.229 110.15C126.449 110.15 125.759 109.995 125.159 109.685C124.559 109.375 124.089 108.915 123.749 108.305C123.419 107.685 123.254 106.925 123.254 106.025C123.254 105.115 123.404 104.345 123.704 103.715C124.014 103.085 124.439 102.605 124.979 102.275C125.529 101.935 126.169 101.765 126.899 101.765ZM126.899 102.995C126.329 102.995 125.869 103.18 125.519 103.55C125.179 103.92 124.979 104.445 124.919 105.125H128.729C128.729 104.705 128.664 104.335 128.534 104.015C128.404 103.695 128.204 103.445 127.934 103.265C127.664 103.085 127.319 102.995 126.899 102.995Z" fill="#465BC7"/>
<path fill-rule="evenodd" clip-rule="evenodd" d="M700.2 104C700.2 99.5457 703.97 96 708.539 96C709.459 96 710.343 96.1506 711.168 96.4134L711.295 97.8164C709.717 98.6593 708.675 100.254 708.675 102.056C708.675 104.704 710.934 106.917 713.804 106.917C714.204 106.917 714.599 106.869 714.98 106.783L715.8 107.917C714.368 110.362 711.644 112 708.535 112C703.97 112 700.2 108.454 700.2 104ZM708.539 97.528C704.734 97.528 701.72 100.463 701.72 104C701.72 107.537 704.735 110.472 708.535 110.472C710.496 110.472 712.254 109.686 713.491 108.438C709.997 108.282 707.155 105.518 707.155 102.056C707.155 100.29 707.901 98.7006 709.093 97.5502C708.91 97.5355 708.725 97.528 708.539 97.528Z" fill="#4457CA"/>
<path d="M756 108.418H753.851V112H740V98.1494H743.582V96H756V108.418ZM741.433 99.582V110.567H752.418V108.418H743.582V99.582H741.433ZM745.082 106.918H754.5V97.5H745.082V106.918Z" fill="#4457CA"/>
</svg>
