<svg width="780" height="284" viewBox="0 0 780 284" fill="none" xmlns="http://www.w3.org/2000/svg">
<mask id="path-2-inside-1_3_360" fill="white">
<path d="M0 2C0 0.895433 0.895431 0 2 0H778C779.105 0 780 0.895431 780 2V236H0V2Z"/>
</mask>
<path d="M0 2C0 0.895433 0.895431 0 2 0H778C779.105 0 780 0.895431 780 2V236H0V2Z" fill="white"/>
<path d="M-1 2C-1 0.343146 0.343146 -1 2 -1H778C779.657 -1 781 0.343146 781 2H779C779 1.44772 778.552 1 778 1H2C1.44772 1 1 1.44772 1 2H-1ZM780 236H0H780ZM-1 236V2C-1 0.343146 0.343146 -1 2 -1V1C1.44772 1 1 1.44772 1 2V236H-1ZM778 -1C779.657 -1 781 0.343146 781 2V236H779V2C779 1.44772 778.552 1 778 1V-1Z" fill="#D9D9D9" mask="url(#path-2-inside-1_3_360)"/>
<path d="M46.448 45H41.261V35.718H46.448V36.745H42.431V39.644H46.214V40.658H42.431V43.973H46.448V45ZM51.6826 37.902C52.5146 37.902 53.143 38.1057 53.5676 38.513C53.9923 38.9117 54.2046 39.5617 54.2046 40.463V45H53.0736V40.541C53.0736 39.9777 52.948 39.5573 52.6966 39.28C52.4453 39.0027 52.051 38.864 51.5136 38.864C50.7423 38.864 50.2093 39.0807 49.9146 39.514C49.62 39.9473 49.4726 40.5713 49.4726 41.386V45H48.3286V38.032H49.2516L49.4206 38.981H49.4856C49.6416 38.7383 49.8323 38.539 50.0576 38.383C50.2916 38.2183 50.5473 38.097 50.8246 38.019C51.102 37.941 51.388 37.902 51.6826 37.902ZM59.0038 37.915C59.8531 37.915 60.4814 38.1013 60.8888 38.474C61.2961 38.8467 61.4998 39.4403 61.4998 40.255V45H60.6678L60.4468 44.012H60.3948C60.1954 44.2633 59.9874 44.4757 59.7708 44.649C59.5628 44.8137 59.3201 44.935 59.0428 45.013C58.7741 45.091 58.4448 45.13 58.0548 45.13C57.6388 45.13 57.2618 45.0563 56.9238 44.909C56.5944 44.7617 56.3344 44.5363 56.1438 44.233C55.9531 43.921 55.8578 43.531 55.8578 43.063C55.8578 42.3697 56.1308 41.8367 56.6768 41.464C57.2228 41.0827 58.0634 40.8747 59.1988 40.84L60.3818 40.801V40.385C60.3818 39.8043 60.2561 39.4013 60.0048 39.176C59.7534 38.9507 59.3981 38.838 58.9388 38.838C58.5748 38.838 58.2281 38.8943 57.8988 39.007C57.5694 39.111 57.2618 39.2323 56.9758 39.371L56.6248 38.513C56.9281 38.3483 57.2878 38.2097 57.7038 38.097C58.1198 37.9757 58.5531 37.915 59.0038 37.915ZM59.3418 41.633C58.4751 41.6677 57.8728 41.8063 57.5348 42.049C57.2054 42.2917 57.0408 42.634 57.0408 43.076C57.0408 43.466 57.1578 43.752 57.3918 43.934C57.6344 44.116 57.9421 44.207 58.3148 44.207C58.9041 44.207 59.3938 44.0467 59.7838 43.726C60.1738 43.3967 60.3688 42.894 60.3688 42.218V41.594L59.3418 41.633ZM64.7959 37.525C64.7959 37.8197 64.7872 38.097 64.7699 38.357C64.7612 38.6083 64.7482 38.8077 64.7309 38.955H64.7959C64.9952 38.6603 65.2682 38.4133 65.6149 38.214C65.9615 38.0147 66.4079 37.915 66.9539 37.915C67.8205 37.915 68.5139 38.2183 69.0339 38.825C69.5625 39.423 69.8269 40.32 69.8269 41.516C69.8269 42.3133 69.7055 42.9807 69.4629 43.518C69.2289 44.0553 68.8952 44.4583 68.4619 44.727C68.0285 44.9957 67.5259 45.13 66.9539 45.13C66.4079 45.13 65.9615 45.0303 65.6149 44.831C65.2682 44.6317 64.9952 44.3933 64.7959 44.116H64.7049L64.4709 45H63.6519V35.12H64.7959V37.525ZM66.7589 38.864C66.2649 38.864 65.8749 38.9593 65.5889 39.15C65.3029 39.332 65.0992 39.618 64.9779 40.008C64.8565 40.3893 64.7959 40.879 64.7959 41.477V41.529C64.7959 42.387 64.9345 43.0457 65.2119 43.505C65.4979 43.9557 66.0222 44.181 66.7849 44.181C67.4089 44.181 67.8725 43.9513 68.1759 43.492C68.4879 43.0327 68.6439 42.3697 68.6439 41.503C68.6439 40.6277 68.4879 39.969 68.1759 39.527C67.8725 39.085 67.4002 38.864 66.7589 38.864ZM72.7939 45H71.6499V35.12H72.7939V45ZM77.6925 37.902C78.2905 37.902 78.8018 38.032 79.2265 38.292C79.6598 38.552 79.9892 38.9203 80.2145 39.397C80.4485 39.865 80.5655 40.4153 80.5655 41.048V41.737H75.7945C75.8118 42.5257 76.0112 43.128 76.3925 43.544C76.7825 43.9513 77.3242 44.155 78.0175 44.155C78.4595 44.155 78.8495 44.116 79.1875 44.038C79.5342 43.9513 79.8895 43.83 80.2535 43.674V44.675C79.8982 44.831 79.5472 44.9437 79.2005 45.013C78.8538 45.091 78.4422 45.13 77.9655 45.13C77.3068 45.13 76.7218 44.9957 76.2105 44.727C75.7078 44.4583 75.3135 44.0597 75.0275 43.531C74.7502 42.9937 74.6115 42.3393 74.6115 41.568C74.6115 40.8053 74.7372 40.151 74.9885 39.605C75.2485 39.059 75.6082 38.6387 76.0675 38.344C76.5355 38.0493 77.0772 37.902 77.6925 37.902ZM77.6795 38.838C77.1335 38.838 76.7002 39.0157 76.3795 39.371C76.0675 39.7177 75.8812 40.203 75.8205 40.827H79.3695C79.3695 40.4283 79.3088 40.0817 79.1875 39.787C79.0662 39.4923 78.8798 39.2627 78.6285 39.098C78.3858 38.9247 78.0695 38.838 77.6795 38.838ZM84.8094 45.13C83.9427 45.13 83.2494 44.831 82.7294 44.233C82.2094 43.6263 81.9494 42.725 81.9494 41.529C81.9494 40.333 82.2094 39.4317 82.7294 38.825C83.258 38.2097 83.9557 37.902 84.8224 37.902C85.1864 37.902 85.5027 37.9497 85.7714 38.045C86.04 38.1317 86.274 38.253 86.4734 38.409C86.6727 38.565 86.8417 38.7383 86.9804 38.929H87.0584C87.0497 38.8163 87.0324 38.6517 87.0064 38.435C86.989 38.2097 86.9804 38.032 86.9804 37.902V35.12H88.1244V45H87.2014L87.0324 44.064H86.9804C86.8417 44.2633 86.6727 44.4453 86.4734 44.61C86.274 44.766 86.0357 44.8917 85.7584 44.987C85.4897 45.0823 85.1734 45.13 84.8094 45.13ZM84.9914 44.181C85.728 44.181 86.2437 43.9817 86.5384 43.583C86.8417 43.1757 86.9934 42.5647 86.9934 41.75V41.542C86.9934 40.6753 86.8504 40.0123 86.5644 39.553C86.2784 39.085 85.7497 38.851 84.9784 38.851C84.363 38.851 83.8994 39.098 83.5874 39.592C83.284 40.0773 83.1324 40.7317 83.1324 41.555C83.1324 42.387 83.284 43.0327 83.5874 43.492C83.8994 43.9513 84.3674 44.181 84.9914 44.181Z" fill="#161616"/>
<path d="M287.5 20.5V59.5H128.5V20.5H287.5Z" fill="white"/>
<path d="M287.5 20.5V59.5H128.5V20.5H287.5Z" stroke="#D9D9D9"/>
<path d="M144.075 37.245H145.38L147.75 43.365L150.045 37.245H151.365L147.12 47.97H145.815L147.15 44.82L144.075 37.245ZM151.516 37.245H152.821L155.191 43.365L157.486 37.245H158.806L154.561 47.97H153.256L154.591 44.82L151.516 37.245ZM158.958 37.245H160.263L162.633 43.365L164.928 37.245H166.248L162.003 47.97H160.698L162.033 44.82L158.958 37.245ZM166.399 37.245H167.704L170.074 43.365L172.369 37.245H173.689L169.444 47.97H168.139L169.474 44.82L166.399 37.245ZM174.516 40.605H182.091V41.625H174.516V40.605ZM187.168 37.035C188.353 37.035 189.163 37.515 189.598 38.505C189.898 37.995 190.258 37.62 190.678 37.395C191.053 37.155 191.503 37.035 192.043 37.035C192.853 37.035 193.498 37.29 194.008 37.8C194.488 38.325 194.743 39.03 194.743 39.915V45H193.543V40.11C193.543 39.42 193.393 38.91 193.108 38.58C192.808 38.22 192.328 38.055 191.668 38.055C191.158 38.055 190.723 38.235 190.393 38.625C190.033 39.015 189.868 39.51 189.868 40.14V45H188.668V40.11C188.668 38.73 188.068 38.055 186.883 38.055C186.328 38.055 185.878 38.265 185.518 38.715C185.158 39.135 184.978 39.66 184.978 40.275V45H183.778V37.245H184.978V38.28C185.563 37.44 186.298 37.035 187.168 37.035ZM200 37.035C201.185 37.035 201.995 37.515 202.43 38.505C202.73 37.995 203.09 37.62 203.51 37.395C203.885 37.155 204.335 37.035 204.875 37.035C205.685 37.035 206.33 37.29 206.84 37.8C207.32 38.325 207.575 39.03 207.575 39.915V45H206.375V40.11C206.375 39.42 206.225 38.91 205.94 38.58C205.64 38.22 205.16 38.055 204.5 38.055C203.99 38.055 203.555 38.235 203.225 38.625C202.865 39.015 202.7 39.51 202.7 40.14V45H201.5V40.11C201.5 38.73 200.9 38.055 199.715 38.055C199.16 38.055 198.71 38.265 198.35 38.715C197.99 39.135 197.81 39.66 197.81 40.275V45H196.61V37.245H197.81V38.28C198.395 37.44 199.13 37.035 200 37.035ZM209.262 40.605H216.837V41.625H209.262V40.605ZM224.254 34.08H225.454V45H224.329V43.725C223.789 44.715 222.919 45.21 221.749 45.21C220.609 45.21 219.724 44.79 219.094 43.98C218.509 43.23 218.224 42.27 218.224 41.1C218.224 39.96 218.509 39.03 219.094 38.28C219.724 37.44 220.579 37.035 221.689 37.035C222.799 37.035 223.654 37.575 224.254 38.67V34.08ZM221.944 38.025C221.089 38.025 220.444 38.325 220.024 38.925C219.634 39.45 219.454 40.17 219.454 41.1C219.454 42.03 219.634 42.765 220.009 43.305C220.429 43.905 221.059 44.22 221.899 44.22C222.679 44.22 223.279 43.92 223.714 43.32C224.089 42.78 224.284 42.075 224.284 41.205V41.055C224.284 40.155 224.059 39.42 223.639 38.865C223.204 38.295 222.634 38.025 221.944 38.025ZM233.043 34.08H234.243V45H233.118V43.725C232.578 44.715 231.708 45.21 230.538 45.21C229.398 45.21 228.513 44.79 227.883 43.98C227.298 43.23 227.013 42.27 227.013 41.1C227.013 39.96 227.298 39.03 227.883 38.28C228.513 37.44 229.368 37.035 230.478 37.035C231.588 37.035 232.443 37.575 233.043 38.67V34.08ZM230.733 38.025C229.878 38.025 229.233 38.325 228.813 38.925C228.423 39.45 228.243 40.17 228.243 41.1C228.243 42.03 228.423 42.765 228.798 43.305C229.218 43.905 229.848 44.22 230.688 44.22C231.468 44.22 232.068 43.92 232.503 43.32C232.878 42.78 233.073 42.075 233.073 41.205V41.055C233.073 40.155 232.848 39.42 232.428 38.865C231.993 38.295 231.423 38.025 230.733 38.025Z" fill="#8F8F8F"/>
<path d="M262 35H266V33H267.5V35H271V47H257V35H260.5V33H262V35ZM258.312 40.5V45.7139H269.688V40.5H258.312ZM258.312 39H269.688V36.2861H267.5V37.5H266V36.2861H262V37.5H260.5V36.2861H258.312V39Z" fill="#8F8F8F"/>
<path d="M48.697 92.268C48.697 93.308 48.502 94.179 48.112 94.881C47.7307 95.583 47.1803 96.1117 46.461 96.467C45.7417 96.8223 44.8707 97 43.848 97H41.261V87.718H44.121C45.057 87.718 45.8673 87.8913 46.552 88.238C47.2367 88.5847 47.7653 89.096 48.138 89.772C48.5107 90.4393 48.697 91.2713 48.697 92.268ZM47.462 92.307C47.462 91.4837 47.3233 90.8077 47.046 90.279C46.7773 89.7503 46.3787 89.3603 45.85 89.109C45.33 88.849 44.6973 88.719 43.952 88.719H42.431V95.999H43.692C44.9487 95.999 45.889 95.6913 46.513 95.076C47.1457 94.452 47.462 93.529 47.462 92.307ZM51.7451 90.032V97H50.6011V90.032H51.7451ZM51.1861 87.419C51.3594 87.419 51.5111 87.4797 51.6411 87.601C51.7798 87.7137 51.8491 87.8957 51.8491 88.147C51.8491 88.3897 51.7798 88.5717 51.6411 88.693C51.5111 88.8143 51.3594 88.875 51.1861 88.875C50.9954 88.875 50.8351 88.8143 50.7051 88.693C50.5751 88.5717 50.5101 88.3897 50.5101 88.147C50.5101 87.8957 50.5751 87.7137 50.7051 87.601C50.8351 87.4797 50.9954 87.419 51.1861 87.419ZM58.4897 95.076C58.4897 95.5267 58.377 95.9037 58.1517 96.207C57.9263 96.5103 57.6057 96.74 57.1897 96.896C56.7737 97.052 56.2797 97.13 55.7077 97.13C55.2223 97.13 54.802 97.091 54.4467 97.013C54.1 96.935 53.7923 96.8267 53.5237 96.688V95.648C53.801 95.7867 54.1347 95.9167 54.5247 96.038C54.9233 96.1507 55.3263 96.207 55.7337 96.207C56.3143 96.207 56.7347 96.116 56.9947 95.934C57.2547 95.7433 57.3847 95.492 57.3847 95.18C57.3847 95.0067 57.337 94.8507 57.2417 94.712C57.1463 94.5733 56.973 94.4347 56.7217 94.296C56.479 94.1573 56.128 94.0013 55.6687 93.828C55.218 93.6547 54.8323 93.4813 54.5117 93.308C54.191 93.1347 53.944 92.9267 53.7707 92.684C53.5973 92.4413 53.5107 92.1293 53.5107 91.748C53.5107 91.1587 53.749 90.7037 54.2257 90.383C54.711 90.0623 55.3437 89.902 56.1237 89.902C56.5483 89.902 56.9427 89.9453 57.3067 90.032C57.6793 90.11 58.026 90.2227 58.3467 90.37L57.9567 91.28C57.766 91.1933 57.5623 91.1197 57.3457 91.059C57.1377 90.9897 56.9253 90.9377 56.7087 90.903C56.492 90.8597 56.271 90.838 56.0457 90.838C55.5777 90.838 55.218 90.916 54.9667 91.072C54.724 91.2193 54.6027 91.423 54.6027 91.683C54.6027 91.8737 54.659 92.0383 54.7717 92.177C54.8843 92.307 55.0707 92.437 55.3307 92.567C55.5993 92.6883 55.9547 92.8357 56.3967 93.009C56.8387 93.1737 57.2157 93.3427 57.5277 93.516C57.8397 93.6893 58.078 93.9017 58.2427 94.153C58.4073 94.3957 58.4897 94.7033 58.4897 95.076ZM62.8124 89.915C63.6617 89.915 64.29 90.1013 64.6974 90.474C65.1047 90.8467 65.3084 91.4403 65.3084 92.255V97H64.4764L64.2554 96.012H64.2034C64.004 96.2633 63.796 96.4757 63.5794 96.649C63.3714 96.8137 63.1287 96.935 62.8514 97.013C62.5827 97.091 62.2534 97.13 61.8634 97.13C61.4474 97.13 61.0704 97.0563 60.7324 96.909C60.403 96.7617 60.143 96.5363 59.9524 96.233C59.7617 95.921 59.6664 95.531 59.6664 95.063C59.6664 94.3697 59.9394 93.8367 60.4854 93.464C61.0314 93.0827 61.872 92.8747 63.0074 92.84L64.1904 92.801V92.385C64.1904 91.8043 64.0647 91.4013 63.8134 91.176C63.562 90.9507 63.2067 90.838 62.7474 90.838C62.3834 90.838 62.0367 90.8943 61.7074 91.007C61.378 91.111 61.0704 91.2323 60.7844 91.371L60.4334 90.513C60.7367 90.3483 61.0964 90.2097 61.5124 90.097C61.9284 89.9757 62.3617 89.915 62.8124 89.915ZM63.1504 93.633C62.2837 93.6677 61.6814 93.8063 61.3434 94.049C61.014 94.2917 60.8494 94.634 60.8494 95.076C60.8494 95.466 60.9664 95.752 61.2004 95.934C61.443 96.116 61.7507 96.207 62.1234 96.207C62.7127 96.207 63.2024 96.0467 63.5924 95.726C63.9824 95.3967 64.1774 94.894 64.1774 94.218V93.594L63.1504 93.633ZM68.6045 89.525C68.6045 89.8197 68.5958 90.097 68.5785 90.357C68.5698 90.6083 68.5568 90.8077 68.5395 90.955H68.6045C68.8038 90.6603 69.0768 90.4133 69.4235 90.214C69.7701 90.0147 70.2165 89.915 70.7625 89.915C71.6291 89.915 72.3225 90.2183 72.8425 90.825C73.3711 91.423 73.6355 92.32 73.6355 93.516C73.6355 94.3133 73.5141 94.9807 73.2715 95.518C73.0375 96.0553 72.7038 96.4583 72.2705 96.727C71.8371 96.9957 71.3345 97.13 70.7625 97.13C70.2165 97.13 69.7701 97.0303 69.4235 96.831C69.0768 96.6317 68.8038 96.3933 68.6045 96.116H68.5135L68.2795 97H67.4605V87.12H68.6045V89.525ZM70.5675 90.864C70.0735 90.864 69.6835 90.9593 69.3975 91.15C69.1115 91.332 68.9078 91.618 68.7865 92.008C68.6651 92.3893 68.6045 92.879 68.6045 93.477V93.529C68.6045 94.387 68.7431 95.0457 69.0205 95.505C69.3065 95.9557 69.8308 96.181 70.5935 96.181C71.2175 96.181 71.6811 95.9513 71.9845 95.492C72.2965 95.0327 72.4525 94.3697 72.4525 93.503C72.4525 92.6277 72.2965 91.969 71.9845 91.527C71.6811 91.085 71.2088 90.864 70.5675 90.864ZM76.6025 97H75.4585V87.12H76.6025V97ZM81.5011 89.902C82.0991 89.902 82.6104 90.032 83.0351 90.292C83.4684 90.552 83.7977 90.9203 84.0231 91.397C84.2571 91.865 84.3741 92.4153 84.3741 93.048V93.737H79.6031C79.6204 94.5257 79.8197 95.128 80.2011 95.544C80.5911 95.9513 81.1327 96.155 81.8261 96.155C82.2681 96.155 82.6581 96.116 82.9961 96.038C83.3427 95.9513 83.6981 95.83 84.0621 95.674V96.675C83.7067 96.831 83.3557 96.9437 83.0091 97.013C82.6624 97.091 82.2507 97.13 81.7741 97.13C81.1154 97.13 80.5304 96.9957 80.0191 96.727C79.5164 96.4583 79.1221 96.0597 78.8361 95.531C78.5587 94.9937 78.4201 94.3393 78.4201 93.568C78.4201 92.8053 78.5457 92.151 78.7971 91.605C79.0571 91.059 79.4167 90.6387 79.8761 90.344C80.3441 90.0493 80.8857 89.902 81.5011 89.902ZM81.4881 90.838C80.9421 90.838 80.5087 91.0157 80.1881 91.371C79.8761 91.7177 79.6897 92.203 79.6291 92.827H83.1781C83.1781 92.4283 83.1174 92.0817 82.9961 91.787C82.8747 91.4923 82.6884 91.2627 82.4371 91.098C82.1944 90.9247 81.8781 90.838 81.4881 90.838ZM88.618 97.13C87.7513 97.13 87.058 96.831 86.538 96.233C86.018 95.6263 85.758 94.725 85.758 93.529C85.758 92.333 86.018 91.4317 86.538 90.825C87.0666 90.2097 87.7643 89.902 88.631 89.902C88.995 89.902 89.3113 89.9497 89.58 90.045C89.8486 90.1317 90.0826 90.253 90.282 90.409C90.4813 90.565 90.6503 90.7383 90.789 90.929H90.867C90.8583 90.8163 90.841 90.6517 90.815 90.435C90.7976 90.2097 90.789 90.032 90.789 89.902V87.12H91.933V97H91.01L90.841 96.064H90.789C90.6503 96.2633 90.4813 96.4453 90.282 96.61C90.0826 96.766 89.8443 96.8917 89.567 96.987C89.2983 97.0823 88.982 97.13 88.618 97.13ZM88.8 96.181C89.5366 96.181 90.0523 95.9817 90.347 95.583C90.6503 95.1757 90.802 94.5647 90.802 93.75V93.542C90.802 92.6753 90.659 92.0123 90.373 91.553C90.087 91.085 89.5583 90.851 88.787 90.851C88.1716 90.851 87.708 91.098 87.396 91.592C87.0926 92.0773 86.941 92.7317 86.941 93.555C86.941 94.387 87.0926 95.0327 87.396 95.492C87.708 95.9513 88.176 96.181 88.8 96.181Z" fill="#161616"/>
<rect width="160" height="40" transform="translate(128 72)" fill="#E5E5E5"/>
<path d="M144.075 89.245H145.38L147.75 95.365L150.045 89.245H151.365L147.12 99.97H145.815L147.15 96.82L144.075 89.245ZM151.516 89.245H152.821L155.191 95.365L157.486 89.245H158.806L154.561 99.97H153.256L154.591 96.82L151.516 89.245ZM158.958 89.245H160.263L162.633 95.365L164.928 89.245H166.248L162.003 99.97H160.698L162.033 96.82L158.958 89.245ZM166.399 89.245H167.704L170.074 95.365L172.369 89.245H173.689L169.444 99.97H168.139L169.474 96.82L166.399 89.245ZM174.516 92.605H182.091V93.625H174.516V92.605ZM187.168 89.035C188.353 89.035 189.163 89.515 189.598 90.505C189.898 89.995 190.258 89.62 190.678 89.395C191.053 89.155 191.503 89.035 192.043 89.035C192.853 89.035 193.498 89.29 194.008 89.8C194.488 90.325 194.743 91.03 194.743 91.915V97H193.543V92.11C193.543 91.42 193.393 90.91 193.108 90.58C192.808 90.22 192.328 90.055 191.668 90.055C191.158 90.055 190.723 90.235 190.393 90.625C190.033 91.015 189.868 91.51 189.868 92.14V97H188.668V92.11C188.668 90.73 188.068 90.055 186.883 90.055C186.328 90.055 185.878 90.265 185.518 90.715C185.158 91.135 184.978 91.66 184.978 92.275V97H183.778V89.245H184.978V90.28C185.563 89.44 186.298 89.035 187.168 89.035ZM200 89.035C201.185 89.035 201.995 89.515 202.43 90.505C202.73 89.995 203.09 89.62 203.51 89.395C203.885 89.155 204.335 89.035 204.875 89.035C205.685 89.035 206.33 89.29 206.84 89.8C207.32 90.325 207.575 91.03 207.575 91.915V97H206.375V92.11C206.375 91.42 206.225 90.91 205.94 90.58C205.64 90.22 205.16 90.055 204.5 90.055C203.99 90.055 203.555 90.235 203.225 90.625C202.865 91.015 202.7 91.51 202.7 92.14V97H201.5V92.11C201.5 90.73 200.9 90.055 199.715 90.055C199.16 90.055 198.71 90.265 198.35 90.715C197.99 91.135 197.81 91.66 197.81 92.275V97H196.61V89.245H197.81V90.28C198.395 89.44 199.13 89.035 200 89.035ZM209.262 92.605H216.837V93.625H209.262V92.605ZM224.254 86.08H225.454V97H224.329V95.725C223.789 96.715 222.919 97.21 221.749 97.21C220.609 97.21 219.724 96.79 219.094 95.98C218.509 95.23 218.224 94.27 218.224 93.1C218.224 91.96 218.509 91.03 219.094 90.28C219.724 89.44 220.579 89.035 221.689 89.035C222.799 89.035 223.654 89.575 224.254 90.67V86.08ZM221.944 90.025C221.089 90.025 220.444 90.325 220.024 90.925C219.634 91.45 219.454 92.17 219.454 93.1C219.454 94.03 219.634 94.765 220.009 95.305C220.429 95.905 221.059 96.22 221.899 96.22C222.679 96.22 223.279 95.92 223.714 95.32C224.089 94.78 224.284 94.075 224.284 93.205V93.055C224.284 92.155 224.059 91.42 223.639 90.865C223.204 90.295 222.634 90.025 221.944 90.025ZM233.043 86.08H234.243V97H233.118V95.725C232.578 96.715 231.708 97.21 230.538 97.21C229.398 97.21 228.513 96.79 227.883 95.98C227.298 95.23 227.013 94.27 227.013 93.1C227.013 91.96 227.298 91.03 227.883 90.28C228.513 89.44 229.368 89.035 230.478 89.035C231.588 89.035 232.443 89.575 233.043 90.67V86.08ZM230.733 90.025C229.878 90.025 229.233 90.325 228.813 90.925C228.423 91.45 228.243 92.17 228.243 93.1C228.243 94.03 228.423 94.765 228.798 95.305C229.218 95.905 229.848 96.22 230.688 96.22C231.468 96.22 232.068 95.92 232.503 95.32C232.878 94.78 233.073 94.075 233.073 93.205V93.055C233.073 92.155 232.848 91.42 232.428 90.865C231.993 90.295 231.423 90.025 230.733 90.025Z" fill="#BCBCBC"/>
<path d="M262 87H266V85H267.5V87H271V99H257V87H260.5V85H262V87ZM258.312 92.5V97.7139H269.688V92.5H258.312ZM258.312 91H269.688V88.2861H267.5V89.5H266V88.2861H262V89.5H260.5V88.2861H258.312V91Z" fill="#BCBCBC"/>
<path d="M46.448 149H41.261V139.718H46.448V140.745H42.431V143.644H46.214V144.658H42.431V147.973H46.448V149ZM51.5786 141.902C51.7086 141.902 51.8473 141.911 51.9946 141.928C52.1506 141.937 52.285 141.954 52.3976 141.98L52.2546 143.033C52.142 143.007 52.0163 142.985 51.8776 142.968C51.7476 142.951 51.622 142.942 51.5006 142.942C51.232 142.942 50.9763 142.998 50.7336 143.111C50.491 143.224 50.2743 143.384 50.0836 143.592C49.893 143.791 49.7413 144.034 49.6286 144.32C49.5246 144.606 49.4726 144.927 49.4726 145.282V149H48.3286V142.032H49.2646L49.3946 143.306H49.4466C49.594 143.046 49.7716 142.812 49.9796 142.604C50.1876 142.387 50.426 142.218 50.6946 142.097C50.9633 141.967 51.258 141.902 51.5786 141.902ZM56.9488 141.902C57.0788 141.902 57.2174 141.911 57.3648 141.928C57.5208 141.937 57.6551 141.954 57.7678 141.98L57.6248 143.033C57.5121 143.007 57.3864 142.985 57.2478 142.968C57.1178 142.951 56.9921 142.942 56.8708 142.942C56.6021 142.942 56.3464 142.998 56.1038 143.111C55.8611 143.224 55.6444 143.384 55.4538 143.592C55.2631 143.791 55.1114 144.034 54.9988 144.32C54.8948 144.606 54.8428 144.927 54.8428 145.282V149H53.6988V142.032H54.6348L54.7648 143.306H54.8168C54.9641 143.046 55.1418 142.812 55.3498 142.604C55.5578 142.387 55.7961 142.218 56.0648 142.097C56.3334 141.967 56.6281 141.902 56.9488 141.902ZM64.873 145.503C64.873 146.084 64.795 146.599 64.639 147.05C64.4916 147.492 64.275 147.869 63.989 148.181C63.7116 148.493 63.3693 148.731 62.962 148.896C62.5633 149.052 62.117 149.13 61.623 149.13C61.1636 149.13 60.739 149.052 60.349 148.896C59.959 148.731 59.621 148.493 59.335 148.181C59.049 147.869 58.8236 147.492 58.659 147.05C58.503 146.599 58.425 146.084 58.425 145.503C58.425 144.732 58.555 144.082 58.815 143.553C59.075 143.016 59.4476 142.608 59.933 142.331C60.4183 142.045 60.9946 141.902 61.662 141.902C62.2946 141.902 62.8493 142.045 63.326 142.331C63.8113 142.608 64.1883 143.016 64.457 143.553C64.7343 144.082 64.873 144.732 64.873 145.503ZM59.608 145.503C59.608 146.049 59.6773 146.526 59.816 146.933C59.9633 147.332 60.1886 147.639 60.492 147.856C60.7953 148.073 61.181 148.181 61.649 148.181C62.117 148.181 62.5026 148.073 62.806 147.856C63.1093 147.639 63.3303 147.332 63.469 146.933C63.6163 146.526 63.69 146.049 63.69 145.503C63.69 144.948 63.6163 144.476 63.469 144.086C63.3216 143.696 63.0963 143.397 62.793 143.189C62.4983 142.972 62.1126 142.864 61.636 142.864C60.9253 142.864 60.4096 143.098 60.089 143.566C59.7683 144.034 59.608 144.68 59.608 145.503ZM69.9361 141.902C70.0661 141.902 70.2047 141.911 70.3521 141.928C70.5081 141.937 70.6424 141.954 70.7551 141.98L70.6121 143.033C70.4994 143.007 70.3737 142.985 70.2351 142.968C70.1051 142.951 69.9794 142.942 69.8581 142.942C69.5894 142.942 69.3337 142.998 69.0911 143.111C68.8484 143.224 68.6317 143.384 68.4411 143.592C68.2504 143.791 68.0987 144.034 67.9861 144.32C67.8821 144.606 67.8301 144.927 67.8301 145.282V149H66.6861V142.032H67.6221L67.7521 143.306H67.8041C67.9514 143.046 68.1291 142.812 68.3371 142.604C68.5451 142.387 68.7834 142.218 69.0521 142.097C69.3207 141.967 69.6154 141.902 69.9361 141.902Z" fill="#161616"/>
<path d="M287.5 124.5V163.5H128.5V124.5H287.5Z" fill="white"/>
<path d="M287.5 124.5V163.5H128.5V124.5H287.5Z" stroke="#FB414A"/>
<path d="M148.65 138.08C149.64 138.08 150.45 138.365 151.095 138.935C151.725 139.505 152.055 140.27 152.055 141.2C152.055 142.13 151.695 142.97 151.005 143.72C150.63 144.11 149.895 144.695 148.785 145.445C147.42 146.36 146.64 147.185 146.445 147.905H152.07V149H144.93C144.93 148.025 145.275 147.14 145.995 146.345C146.415 145.865 147.18 145.22 148.32 144.44C149.16 143.84 149.715 143.405 150 143.105C150.54 142.52 150.825 141.875 150.825 141.185C150.825 140.525 150.63 140.03 150.24 139.67C149.85 139.31 149.295 139.13 148.605 139.13C147.87 139.13 147.3 139.37 146.91 139.88C146.49 140.36 146.265 141.08 146.25 142.025H145.02C145.02 140.825 145.365 139.865 146.025 139.16C146.685 138.44 147.57 138.08 148.65 138.08ZM157.494 138.08C158.769 138.08 159.729 138.635 160.389 139.775C160.959 140.735 161.244 142.025 161.244 143.645C161.244 145.265 160.959 146.555 160.389 147.515C159.729 148.64 158.769 149.21 157.494 149.21C156.204 149.21 155.244 148.64 154.599 147.515C154.029 146.555 153.744 145.265 153.744 143.645C153.744 142.025 154.029 140.735 154.599 139.775C155.244 138.635 156.204 138.08 157.494 138.08ZM157.494 139.13C156.534 139.13 155.844 139.64 155.424 140.675C155.124 141.395 154.974 142.385 154.974 143.645C154.974 144.89 155.124 145.88 155.424 146.615C155.844 147.635 156.534 148.16 157.494 148.16C158.454 148.16 159.144 147.635 159.564 146.615C159.864 145.88 160.029 144.89 160.029 143.645C160.029 142.385 159.864 141.395 159.564 140.675C159.144 139.64 158.454 139.13 157.494 139.13ZM166.488 138.08C167.763 138.08 168.723 138.635 169.383 139.775C169.953 140.735 170.238 142.025 170.238 143.645C170.238 145.265 169.953 146.555 169.383 147.515C168.723 148.64 167.763 149.21 166.488 149.21C165.198 149.21 164.238 148.64 163.593 147.515C163.023 146.555 162.738 145.265 162.738 143.645C162.738 142.025 163.023 140.735 163.593 139.775C164.238 138.635 165.198 138.08 166.488 138.08ZM166.488 139.13C165.528 139.13 164.838 139.64 164.418 140.675C164.118 141.395 163.968 142.385 163.968 143.645C163.968 144.89 164.118 145.88 164.418 146.615C164.838 147.635 165.528 148.16 166.488 148.16C167.448 148.16 168.138 147.635 168.558 146.615C168.858 145.88 169.023 144.89 169.023 143.645C169.023 142.385 168.858 141.395 168.558 140.675C168.138 139.64 167.448 139.13 166.488 139.13ZM175.632 138.08C176.622 138.08 177.432 138.365 178.077 138.935C178.707 139.505 179.037 140.27 179.037 141.2C179.037 142.13 178.677 142.97 177.987 143.72C177.612 144.11 176.877 144.695 175.767 145.445C174.402 146.36 173.622 147.185 173.427 147.905H179.052V149H171.912C171.912 148.025 172.257 147.14 172.977 146.345C173.397 145.865 174.162 145.22 175.302 144.44C176.142 143.84 176.697 143.405 176.982 143.105C177.522 142.52 177.807 141.875 177.807 141.185C177.807 140.525 177.612 140.03 177.222 139.67C176.832 139.31 176.277 139.13 175.587 139.13C174.852 139.13 174.282 139.37 173.892 139.88C173.472 140.36 173.247 141.08 173.232 142.025H172.002C172.002 140.825 172.347 139.865 173.007 139.16C173.667 138.44 174.552 138.08 175.632 138.08ZM180.727 144.605H188.302V145.625H180.727V144.605ZM193.559 138.08C194.834 138.08 195.794 138.635 196.454 139.775C197.024 140.735 197.309 142.025 197.309 143.645C197.309 145.265 197.024 146.555 196.454 147.515C195.794 148.64 194.834 149.21 193.559 149.21C192.269 149.21 191.309 148.64 190.664 147.515C190.094 146.555 189.809 145.265 189.809 143.645C189.809 142.025 190.094 140.735 190.664 139.775C191.309 138.635 192.269 138.08 193.559 138.08ZM193.559 139.13C192.599 139.13 191.909 139.64 191.489 140.675C191.189 141.395 191.039 142.385 191.039 143.645C191.039 144.89 191.189 145.88 191.489 146.615C191.909 147.635 192.599 148.16 193.559 148.16C194.519 148.16 195.209 147.635 195.629 146.615C195.929 145.88 196.094 144.89 196.094 143.645C196.094 142.385 195.929 141.395 195.629 140.675C195.209 139.64 194.519 139.13 193.559 139.13ZM202.703 138.08C203.693 138.08 204.503 138.365 205.148 138.935C205.778 139.505 206.108 140.27 206.108 141.2C206.108 142.13 205.748 142.97 205.058 143.72C204.683 144.11 203.948 144.695 202.838 145.445C201.473 146.36 200.693 147.185 200.498 147.905H206.123V149H198.983C198.983 148.025 199.328 147.14 200.048 146.345C200.468 145.865 201.233 145.22 202.373 144.44C203.213 143.84 203.768 143.405 204.053 143.105C204.593 142.52 204.878 141.875 204.878 141.185C204.878 140.525 204.683 140.03 204.293 139.67C203.903 139.31 203.348 139.13 202.658 139.13C201.923 139.13 201.353 139.37 200.963 139.88C200.543 140.36 200.318 141.08 200.303 142.025H199.073C199.073 140.825 199.418 139.865 200.078 139.16C200.738 138.44 201.623 138.08 202.703 138.08ZM207.797 144.605H215.372V145.625H207.797V144.605ZM220.734 138.08C221.754 138.08 222.594 138.335 223.224 138.86C223.839 139.385 224.154 140.09 224.154 140.99C224.154 142.19 223.569 143 222.399 143.39C223.029 143.585 223.509 143.885 223.839 144.305C224.199 144.725 224.379 145.25 224.379 145.88C224.379 146.855 224.034 147.65 223.359 148.265C222.669 148.895 221.769 149.21 220.659 149.21C219.639 149.21 218.814 148.94 218.169 148.43C217.404 147.8 216.984 146.885 216.894 145.685H218.139C218.169 146.525 218.454 147.17 218.979 147.605C219.429 147.965 219.984 148.16 220.659 148.16C221.424 148.16 222.039 147.935 222.504 147.5C222.924 147.08 223.149 146.555 223.149 145.925C223.149 145.28 222.939 144.785 222.519 144.425C222.099 144.065 221.529 143.9 220.779 143.9H219.909V142.94H220.734C221.454 142.94 221.994 142.775 222.369 142.46C222.744 142.13 222.939 141.665 222.939 141.065C222.939 140.465 222.744 140 222.384 139.67C221.994 139.31 221.439 139.145 220.749 139.145C220.029 139.145 219.474 139.325 219.069 139.715C218.649 140.105 218.409 140.66 218.334 141.38H217.119C217.209 140.345 217.599 139.535 218.259 138.95C218.889 138.365 219.714 138.08 220.734 138.08ZM229.623 138.08C230.898 138.08 231.858 138.635 232.518 139.775C233.088 140.735 233.373 142.025 233.373 143.645C233.373 145.265 233.088 146.555 232.518 147.515C231.858 148.64 230.898 149.21 229.623 149.21C228.333 149.21 227.373 148.64 226.728 147.515C226.158 146.555 225.873 145.265 225.873 143.645C225.873 142.025 226.158 140.735 226.728 139.775C227.373 138.635 228.333 138.08 229.623 138.08ZM229.623 139.13C228.663 139.13 227.973 139.64 227.553 140.675C227.253 141.395 227.103 142.385 227.103 143.645C227.103 144.89 227.253 145.88 227.553 146.615C227.973 147.635 228.663 148.16 229.623 148.16C230.583 148.16 231.273 147.635 231.693 146.615C231.993 145.88 232.158 144.89 232.158 143.645C232.158 142.385 231.993 141.395 231.693 140.675C231.273 139.64 230.583 139.13 229.623 139.13Z" fill="#161616"/>
<path d="M262 139H266V137H267.5V139H271V151H257V139H260.5V137H262V139ZM258.312 144.5V149.714H269.688V144.5H258.312ZM258.312 143H269.688V140.286H267.5V141.5H266V140.286H262V141.5H260.5V140.286H258.312V143Z" fill="#8F8F8F"/>
<path d="M43.822 191.718C44.5933 191.718 45.226 191.818 45.72 192.017C46.2227 192.208 46.5953 192.498 46.838 192.888C47.0807 193.278 47.202 193.768 47.202 194.357C47.202 194.851 47.111 195.263 46.929 195.592C46.747 195.921 46.513 196.186 46.227 196.385C45.9497 196.576 45.655 196.727 45.343 196.84L47.891 201H46.526L44.277 197.165H42.431V201H41.261V191.718H43.822ZM43.757 192.732H42.431V196.177H43.822C44.3247 196.177 44.7363 196.112 45.057 195.982C45.3777 195.843 45.6117 195.644 45.759 195.384C45.915 195.124 45.993 194.799 45.993 194.409C45.993 194.002 45.9107 193.677 45.746 193.434C45.59 193.191 45.3473 193.014 45.018 192.901C44.6887 192.788 44.2683 192.732 43.757 192.732ZM51.8829 193.902C52.4809 193.902 52.9922 194.032 53.4169 194.292C53.8502 194.552 54.1796 194.92 54.4049 195.397C54.6389 195.865 54.7559 196.415 54.7559 197.048V197.737H49.9849C50.0022 198.526 50.2016 199.128 50.5829 199.544C50.9729 199.951 51.5146 200.155 52.2079 200.155C52.6499 200.155 53.0399 200.116 53.3779 200.038C53.7246 199.951 54.0799 199.83 54.4439 199.674V200.675C54.0886 200.831 53.7376 200.944 53.3909 201.013C53.0442 201.091 52.6326 201.13 52.1559 201.13C51.4972 201.13 50.9122 200.996 50.4009 200.727C49.8982 200.458 49.5039 200.06 49.2179 199.531C48.9406 198.994 48.8019 198.339 48.8019 197.568C48.8019 196.805 48.9276 196.151 49.1789 195.605C49.4389 195.059 49.7986 194.639 50.2579 194.344C50.7259 194.049 51.2676 193.902 51.8829 193.902ZM51.8699 194.838C51.3239 194.838 50.8906 195.016 50.5699 195.371C50.2579 195.718 50.0716 196.203 50.0109 196.827H53.5599C53.5599 196.428 53.4992 196.082 53.3779 195.787C53.2566 195.492 53.0702 195.263 52.8189 195.098C52.5762 194.925 52.2599 194.838 51.8699 194.838ZM59.1688 193.915C60.0181 193.915 60.6465 194.101 61.0538 194.474C61.4611 194.847 61.6648 195.44 61.6648 196.255V201H60.8328L60.6118 200.012H60.5598C60.3605 200.263 60.1525 200.476 59.9358 200.649C59.7278 200.814 59.4851 200.935 59.2078 201.013C58.9391 201.091 58.6098 201.13 58.2198 201.13C57.8038 201.13 57.4268 201.056 57.0888 200.909C56.7595 200.762 56.4995 200.536 56.3088 200.233C56.1181 199.921 56.0228 199.531 56.0228 199.063C56.0228 198.37 56.2958 197.837 56.8418 197.464C57.3878 197.083 58.2285 196.875 59.3638 196.84L60.5468 196.801V196.385C60.5468 195.804 60.4211 195.401 60.1698 195.176C59.9185 194.951 59.5631 194.838 59.1038 194.838C58.7398 194.838 58.3931 194.894 58.0638 195.007C57.7345 195.111 57.4268 195.232 57.1408 195.371L56.7898 194.513C57.0931 194.348 57.4528 194.21 57.8688 194.097C58.2848 193.976 58.7181 193.915 59.1688 193.915ZM59.5068 197.633C58.6401 197.668 58.0378 197.806 57.6998 198.049C57.3705 198.292 57.2058 198.634 57.2058 199.076C57.2058 199.466 57.3228 199.752 57.5568 199.934C57.7995 200.116 58.1071 200.207 58.4798 200.207C59.0691 200.207 59.5588 200.047 59.9488 199.726C60.3388 199.397 60.5338 198.894 60.5338 198.218V197.594L59.5068 197.633ZM66.2869 201.13C65.4202 201.13 64.7269 200.831 64.2069 200.233C63.6869 199.626 63.4269 198.725 63.4269 197.529C63.4269 196.333 63.6869 195.432 64.2069 194.825C64.7356 194.21 65.4332 193.902 66.2999 193.902C66.6639 193.902 66.9802 193.95 67.2489 194.045C67.5176 194.132 67.7516 194.253 67.9509 194.409C68.1502 194.565 68.3192 194.738 68.4579 194.929H68.5359C68.5272 194.816 68.5099 194.652 68.4839 194.435C68.4666 194.21 68.4579 194.032 68.4579 193.902V191.12H69.6019V201H68.6789L68.5099 200.064H68.4579C68.3192 200.263 68.1502 200.445 67.9509 200.61C67.7516 200.766 67.5132 200.892 67.2359 200.987C66.9672 201.082 66.6509 201.13 66.2869 201.13ZM66.4689 200.181C67.2056 200.181 67.7212 199.982 68.0159 199.583C68.3192 199.176 68.4709 198.565 68.4709 197.75V197.542C68.4709 196.675 68.3279 196.012 68.0419 195.553C67.7559 195.085 67.2272 194.851 66.4559 194.851C65.8406 194.851 65.3769 195.098 65.0649 195.592C64.7616 196.077 64.6099 196.732 64.6099 197.555C64.6099 198.387 64.7616 199.033 65.0649 199.492C65.3769 199.951 65.8449 200.181 66.4689 200.181ZM77.873 197.503C77.873 198.084 77.795 198.599 77.639 199.05C77.4916 199.492 77.275 199.869 76.989 200.181C76.7116 200.493 76.3693 200.731 75.962 200.896C75.5633 201.052 75.117 201.13 74.623 201.13C74.1636 201.13 73.739 201.052 73.349 200.896C72.959 200.731 72.621 200.493 72.335 200.181C72.049 199.869 71.8236 199.492 71.659 199.05C71.503 198.599 71.425 198.084 71.425 197.503C71.425 196.732 71.555 196.082 71.815 195.553C72.075 195.016 72.4476 194.608 72.933 194.331C73.4183 194.045 73.9946 193.902 74.662 193.902C75.2946 193.902 75.8493 194.045 76.326 194.331C76.8113 194.608 77.1883 195.016 77.457 195.553C77.7343 196.082 77.873 196.732 77.873 197.503ZM72.608 197.503C72.608 198.049 72.6773 198.526 72.816 198.933C72.9633 199.332 73.1886 199.639 73.492 199.856C73.7953 200.073 74.181 200.181 74.649 200.181C75.117 200.181 75.5026 200.073 75.806 199.856C76.1093 199.639 76.3303 199.332 76.469 198.933C76.6163 198.526 76.69 198.049 76.69 197.503C76.69 196.948 76.6163 196.476 76.469 196.086C76.3216 195.696 76.0963 195.397 75.793 195.189C75.4983 194.972 75.1126 194.864 74.636 194.864C73.9253 194.864 73.4096 195.098 73.089 195.566C72.7683 196.034 72.608 196.68 72.608 197.503ZM83.0401 193.902C83.8721 193.902 84.5004 194.106 84.9251 194.513C85.3497 194.912 85.5621 195.562 85.5621 196.463V201H84.4311V196.541C84.4311 195.978 84.3054 195.557 84.0541 195.28C83.8027 195.003 83.4084 194.864 82.8711 194.864C82.0997 194.864 81.5667 195.081 81.2721 195.514C80.9774 195.947 80.8301 196.571 80.8301 197.386V201H79.6861V194.032H80.6091L80.7781 194.981H80.8431C80.9991 194.738 81.1897 194.539 81.4151 194.383C81.6491 194.218 81.9047 194.097 82.1821 194.019C82.4594 193.941 82.7454 193.902 83.0401 193.902ZM88.8662 201H87.7222V191.12H88.8662V201ZM89.9818 194.032H91.2038L92.7118 197.997C92.7984 198.231 92.8764 198.456 92.9458 198.673C93.0238 198.89 93.0931 199.102 93.1538 199.31C93.2144 199.509 93.2621 199.704 93.2968 199.895H93.3488C93.4008 199.678 93.4831 199.397 93.5958 199.05C93.7084 198.695 93.8254 198.339 93.9468 197.984L95.3638 194.032H96.5988L93.5958 201.962C93.4311 202.395 93.2361 202.772 93.0108 203.093C92.7941 203.422 92.5254 203.674 92.2048 203.847C91.8928 204.029 91.5114 204.12 91.0608 204.12C90.8528 204.12 90.6708 204.107 90.5148 204.081C90.3588 204.064 90.2244 204.042 90.1118 204.016V203.106C90.2071 203.123 90.3198 203.141 90.4498 203.158C90.5884 203.175 90.7314 203.184 90.8788 203.184C91.1474 203.184 91.3771 203.132 91.5678 203.028C91.7671 202.933 91.9361 202.79 92.0748 202.599C92.2134 202.417 92.3304 202.2 92.4258 201.949L92.7898 201.026L89.9818 194.032Z" fill="#161616"/>
<path d="M287.5 176.5V215.5H128.5V176.5H287.5Z" fill="white"/>
<path d="M287.5 176.5V215.5H128.5V176.5H287.5Z" stroke="#D9D9D9"/>
<path d="M148.65 190.08C149.64 190.08 150.45 190.365 151.095 190.935C151.725 191.505 152.055 192.27 152.055 193.2C152.055 194.13 151.695 194.97 151.005 195.72C150.63 196.11 149.895 196.695 148.785 197.445C147.42 198.36 146.64 199.185 146.445 199.905H152.07V201H144.93C144.93 200.025 145.275 199.14 145.995 198.345C146.415 197.865 147.18 197.22 148.32 196.44C149.16 195.84 149.715 195.405 150 195.105C150.54 194.52 150.825 193.875 150.825 193.185C150.825 192.525 150.63 192.03 150.24 191.67C149.85 191.31 149.295 191.13 148.605 191.13C147.87 191.13 147.3 191.37 146.91 191.88C146.49 192.36 146.265 193.08 146.25 194.025H145.02C145.02 192.825 145.365 191.865 146.025 191.16C146.685 190.44 147.57 190.08 148.65 190.08ZM157.494 190.08C158.769 190.08 159.729 190.635 160.389 191.775C160.959 192.735 161.244 194.025 161.244 195.645C161.244 197.265 160.959 198.555 160.389 199.515C159.729 200.64 158.769 201.21 157.494 201.21C156.204 201.21 155.244 200.64 154.599 199.515C154.029 198.555 153.744 197.265 153.744 195.645C153.744 194.025 154.029 192.735 154.599 191.775C155.244 190.635 156.204 190.08 157.494 190.08ZM157.494 191.13C156.534 191.13 155.844 191.64 155.424 192.675C155.124 193.395 154.974 194.385 154.974 195.645C154.974 196.89 155.124 197.88 155.424 198.615C155.844 199.635 156.534 200.16 157.494 200.16C158.454 200.16 159.144 199.635 159.564 198.615C159.864 197.88 160.029 196.89 160.029 195.645C160.029 194.385 159.864 193.395 159.564 192.675C159.144 191.64 158.454 191.13 157.494 191.13ZM166.638 190.08C167.628 190.08 168.438 190.365 169.083 190.935C169.713 191.505 170.043 192.27 170.043 193.2C170.043 194.13 169.683 194.97 168.993 195.72C168.618 196.11 167.883 196.695 166.773 197.445C165.408 198.36 164.628 199.185 164.433 199.905H170.058V201H162.918C162.918 200.025 163.263 199.14 163.983 198.345C164.403 197.865 165.168 197.22 166.308 196.44C167.148 195.84 167.703 195.405 167.988 195.105C168.528 194.52 168.813 193.875 168.813 193.185C168.813 192.525 168.618 192.03 168.228 191.67C167.838 191.31 167.283 191.13 166.593 191.13C165.858 191.13 165.288 191.37 164.898 191.88C164.478 192.36 164.253 193.08 164.238 194.025H163.008C163.008 192.825 163.353 191.865 164.013 191.16C164.673 190.44 165.558 190.08 166.638 190.08ZM172.557 190.29H178.782V191.385H173.562L173.202 194.97H173.262C173.562 194.61 173.952 194.34 174.417 194.16C174.837 193.98 175.287 193.905 175.782 193.905C176.802 193.905 177.627 194.22 178.257 194.865C178.887 195.525 179.217 196.425 179.217 197.58C179.217 198.66 178.827 199.545 178.062 200.235C177.342 200.88 176.442 201.21 175.392 201.21C174.447 201.21 173.637 200.955 172.977 200.445C172.227 199.875 171.822 199.095 171.747 198.12H172.962C173.022 198.795 173.292 199.32 173.772 199.68C174.192 199.995 174.747 200.16 175.407 200.16C176.157 200.16 176.772 199.92 177.267 199.44C177.747 198.96 178.002 198.345 178.002 197.595C178.002 196.74 177.762 196.08 177.312 195.615C176.877 195.135 176.262 194.91 175.482 194.91C174.972 194.91 174.522 195.015 174.117 195.24C173.697 195.45 173.367 195.78 173.157 196.2H171.987L172.557 190.29ZM180.727 196.605H188.302V197.625H180.727V196.605ZM193.559 190.08C194.834 190.08 195.794 190.635 196.454 191.775C197.024 192.735 197.309 194.025 197.309 195.645C197.309 197.265 197.024 198.555 196.454 199.515C195.794 200.64 194.834 201.21 193.559 201.21C192.269 201.21 191.309 200.64 190.664 199.515C190.094 198.555 189.809 197.265 189.809 195.645C189.809 194.025 190.094 192.735 190.664 191.775C191.309 190.635 192.269 190.08 193.559 190.08ZM193.559 191.13C192.599 191.13 191.909 191.64 191.489 192.675C191.189 193.395 191.039 194.385 191.039 195.645C191.039 196.89 191.189 197.88 191.489 198.615C191.909 199.635 192.599 200.16 193.559 200.16C194.519 200.16 195.209 199.635 195.629 198.615C195.929 197.88 196.094 196.89 196.094 195.645C196.094 194.385 195.929 193.395 195.629 192.675C195.209 191.64 194.519 191.13 193.559 191.13ZM203.813 190.29H204.968V197.565H206.708V198.57H204.968V201H203.798V198.57H198.413V197.4L203.813 190.29ZM203.753 191.895L199.448 197.565H203.798V191.895H203.753ZM207.797 196.605H215.372V197.625H207.797V196.605ZM220.779 190.08C221.769 190.08 222.579 190.365 223.224 190.935C223.854 191.505 224.184 192.27 224.184 193.2C224.184 194.13 223.824 194.97 223.134 195.72C222.759 196.11 222.024 196.695 220.914 197.445C219.549 198.36 218.769 199.185 218.574 199.905H224.199V201H217.059C217.059 200.025 217.404 199.14 218.124 198.345C218.544 197.865 219.309 197.22 220.449 196.44C221.289 195.84 221.844 195.405 222.129 195.105C222.669 194.52 222.954 193.875 222.954 193.185C222.954 192.525 222.759 192.03 222.369 191.67C221.979 191.31 221.424 191.13 220.734 191.13C219.999 191.13 219.429 191.37 219.039 191.88C218.619 192.36 218.394 193.08 218.379 194.025H217.149C217.149 192.825 217.494 191.865 218.154 191.16C218.814 190.44 219.699 190.08 220.779 190.08ZM230.883 190.29H232.038V197.565H233.778V198.57H232.038V201H230.868V198.57H225.483V197.4L230.883 190.29ZM230.823 191.895L226.518 197.565H230.868V191.895H230.823Z" fill="#161616"/>
<path d="M262 191H266V189H267.5V191H271V203H257V191H260.5V189H262V191ZM258.312 196.5V201.714H269.688V196.5H258.312ZM258.312 195H269.688V192.286H267.5V193.5H266V192.286H262V193.5H260.5V192.286H258.312V195Z" fill="#8F8F8F"/>
<mask id="path-19-inside-2_3_360" fill="white">
<path d="M0 236H780V282C780 283.105 779.105 284 778 284H1.99998C0.895407 284 0 283.105 0 282V236Z"/>
</mask>
<path d="M0 236H780V282C780 283.105 779.105 284 778 284H1.99998C0.895407 284 0 283.105 0 282V236Z" fill="#E7E7E7"/>
<path d="M0 236H780H0ZM781 282C781 283.657 779.657 285 778 285H2C0.343146 285 -1 283.657 -1 282H1C1 282.552 1.44772 283 2 283H778C778.552 283 779 282.552 779 282H781ZM2 285C0.343146 285 -1 283.657 -1 282V236H1V282C1 282.552 1.44772 283 2 283V285ZM781 236V282C781 283.657 779.657 285 778 285V283C778.552 283 779 282.552 779 282V236H781Z" fill="#D9D9D9" mask="url(#path-19-inside-2_3_360)"/>
<path fill-rule="evenodd" clip-rule="evenodd" d="M36.0005 264L29 256.98L29.9762 256H29.9781L36.0005 262.041L42.0238 256H42.0258L43 256.979V256.981L36.0005 264Z" fill="#4457CA"/>
<path d="M59.575 263.105C59.575 263.745 59.42 264.29 59.11 264.74C58.8 265.19 58.355 265.54 57.775 265.79C57.195 266.03 56.505 266.15 55.705 266.15C55.315 266.15 54.94 266.125 54.58 266.075C54.22 266.035 53.885 265.975 53.575 265.895C53.265 265.815 52.99 265.715 52.75 265.595V264.065C53.15 264.245 53.62 264.41 54.16 264.56C54.7 264.7 55.25 264.77 55.81 264.77C56.29 264.77 56.69 264.705 57.01 264.575C57.33 264.445 57.57 264.265 57.73 264.035C57.89 263.805 57.97 263.535 57.97 263.225C57.97 262.895 57.885 262.62 57.715 262.4C57.555 262.17 57.3 261.96 56.95 261.77C56.61 261.57 56.15 261.36 55.57 261.14C55.17 260.99 54.805 260.825 54.475 260.645C54.155 260.455 53.87 260.235 53.62 259.985C53.38 259.735 53.195 259.445 53.065 259.115C52.935 258.785 52.87 258.4 52.87 257.96C52.87 257.37 53.015 256.865 53.305 256.445C53.605 256.025 54.015 255.705 54.535 255.485C55.055 255.255 55.66 255.14 56.35 255.14C56.93 255.14 57.465 255.2 57.955 255.32C58.455 255.43 58.93 255.585 59.38 255.785L58.87 257.12C58.46 256.95 58.045 256.81 57.625 256.7C57.205 256.59 56.765 256.535 56.305 256.535C55.905 256.535 55.57 256.595 55.3 256.715C55.03 256.835 54.825 257 54.685 257.21C54.555 257.42 54.49 257.665 54.49 257.945C54.49 258.275 54.565 258.55 54.715 258.77C54.865 258.99 55.105 259.195 55.435 259.385C55.765 259.565 56.2 259.765 56.74 259.985C57.34 260.215 57.85 260.465 58.27 260.735C58.7 261.005 59.025 261.33 59.245 261.71C59.465 262.08 59.575 262.545 59.575 263.105ZM63.0821 257.645C63.0821 257.895 63.0721 258.145 63.0521 258.395C63.0321 258.645 63.0121 258.85 62.9921 259.01H63.0971C63.2671 258.73 63.4771 258.5 63.7271 258.32C63.9871 258.14 64.2721 258.005 64.5821 257.915C64.9021 257.825 65.2271 257.78 65.5571 257.78C66.1971 257.78 66.7321 257.885 67.1621 258.095C67.6021 258.295 67.9321 258.615 68.1521 259.055C68.3821 259.485 68.4971 260.045 68.4971 260.735V266H66.9221V260.96C66.9221 260.33 66.7871 259.86 66.5171 259.55C66.2571 259.23 65.8371 259.07 65.2571 259.07C64.7071 259.07 64.2721 259.18 63.9521 259.4C63.6421 259.62 63.4171 259.945 63.2771 260.375C63.1471 260.795 63.0821 261.315 63.0821 261.935V266H61.4921V254.6H63.0821V257.645ZM78.0653 261.95C78.0653 262.62 77.9753 263.215 77.7953 263.735C77.6153 264.255 77.3603 264.695 77.0303 265.055C76.7003 265.415 76.3003 265.69 75.8303 265.88C75.3603 266.06 74.8303 266.15 74.2403 266.15C73.7003 266.15 73.2003 266.06 72.7403 265.88C72.2803 265.69 71.8803 265.415 71.5403 265.055C71.2103 264.695 70.9503 264.255 70.7603 263.735C70.5703 263.215 70.4753 262.615 70.4753 261.935C70.4753 261.045 70.6253 260.29 70.9253 259.67C71.2353 259.05 71.6753 258.58 72.2453 258.26C72.8253 257.93 73.5053 257.765 74.2853 257.765C75.0253 257.765 75.6753 257.93 76.2353 258.26C76.8053 258.58 77.2503 259.05 77.5703 259.67C77.9003 260.29 78.0653 261.05 78.0653 261.95ZM72.1103 261.95C72.1103 262.55 72.1853 263.07 72.3353 263.51C72.4853 263.94 72.7203 264.27 73.0403 264.5C73.3603 264.73 73.7703 264.845 74.2703 264.845C74.7703 264.845 75.1803 264.73 75.5003 264.5C75.8203 264.27 76.0553 263.94 76.2053 263.51C76.3553 263.07 76.4303 262.55 76.4303 261.95C76.4303 261.33 76.3503 260.81 76.1903 260.39C76.0403 259.97 75.8053 259.65 75.4853 259.43C75.1753 259.2 74.7653 259.085 74.2553 259.085C73.5053 259.085 72.9603 259.335 72.6203 259.835C72.2803 260.335 72.1103 261.04 72.1103 261.95ZM85.248 261.95C85.198 261.75 85.138 261.53 85.068 261.29C85.008 261.05 84.948 260.81 84.888 260.57C84.828 260.32 84.773 260.09 84.723 259.88C84.673 259.67 84.633 259.505 84.603 259.385H84.543C84.523 259.505 84.488 259.67 84.438 259.88C84.398 260.09 84.348 260.32 84.288 260.57C84.228 260.81 84.168 261.055 84.108 261.305C84.048 261.545 83.983 261.765 83.913 261.965L82.713 265.985H80.943L78.708 257.9H80.328L81.378 261.995C81.458 262.275 81.528 262.57 81.588 262.88C81.658 263.19 81.718 263.49 81.768 263.78C81.828 264.06 81.868 264.295 81.888 264.485H81.948C81.968 264.355 81.998 264.195 82.038 264.005C82.078 263.805 82.118 263.6 82.158 263.39C82.208 263.17 82.253 262.96 82.293 262.76C82.343 262.56 82.393 262.395 82.443 262.265L83.733 257.9H85.473L86.733 262.265C86.793 262.465 86.858 262.705 86.928 262.985C86.998 263.255 87.058 263.525 87.108 263.795C87.168 264.055 87.208 264.28 87.228 264.47H87.288C87.308 264.3 87.343 264.08 87.393 263.81C87.443 263.53 87.503 263.23 87.573 262.91C87.653 262.59 87.728 262.285 87.798 261.995L88.878 257.9H90.483L88.218 265.985H86.403L85.248 261.95ZM100.539 256.535C100.009 256.535 99.5341 256.63 99.1141 256.82C98.6941 257 98.3341 257.27 98.0341 257.63C97.7441 257.99 97.5191 258.425 97.3591 258.935C97.2091 259.445 97.1341 260.02 97.1341 260.66C97.1341 261.5 97.2591 262.23 97.5091 262.85C97.7591 263.46 98.1341 263.93 98.6341 264.26C99.1341 264.59 99.7641 264.755 100.524 264.755C100.984 264.755 101.424 264.715 101.844 264.635C102.274 264.545 102.709 264.43 103.149 264.29V265.685C102.729 265.845 102.299 265.96 101.859 266.03C101.419 266.11 100.909 266.15 100.329 266.15C99.2391 266.15 98.3291 265.925 97.5991 265.475C96.8791 265.025 96.3391 264.385 95.9791 263.555C95.6191 262.725 95.4391 261.755 95.4391 260.645C95.4391 259.835 95.5491 259.095 95.7691 258.425C95.9991 257.745 96.3291 257.16 96.7591 256.67C97.1891 256.18 97.7191 255.805 98.3491 255.545C98.9891 255.275 99.7241 255.14 100.554 255.14C101.094 255.14 101.624 255.2 102.144 255.32C102.664 255.43 103.134 255.59 103.554 255.8L102.954 257.15C102.604 256.99 102.224 256.85 101.814 256.73C101.414 256.6 100.989 256.535 100.539 256.535ZM112.401 261.95C112.401 262.62 112.311 263.215 112.131 263.735C111.951 264.255 111.696 264.695 111.366 265.055C111.036 265.415 110.636 265.69 110.166 265.88C109.696 266.06 109.166 266.15 108.576 266.15C108.036 266.15 107.536 266.06 107.076 265.88C106.616 265.69 106.216 265.415 105.876 265.055C105.546 264.695 105.286 264.255 105.096 263.735C104.906 263.215 104.811 262.615 104.811 261.935C104.811 261.045 104.961 260.29 105.261 259.67C105.571 259.05 106.011 258.58 106.581 258.26C107.161 257.93 107.841 257.765 108.621 257.765C109.361 257.765 110.011 257.93 110.571 258.26C111.141 258.58 111.586 259.05 111.906 259.67C112.236 260.29 112.401 261.05 112.401 261.95ZM106.446 261.95C106.446 262.55 106.521 263.07 106.671 263.51C106.821 263.94 107.056 264.27 107.376 264.5C107.696 264.73 108.106 264.845 108.606 264.845C109.106 264.845 109.516 264.73 109.836 264.5C110.156 264.27 110.391 263.94 110.541 263.51C110.691 263.07 110.766 262.55 110.766 261.95C110.766 261.33 110.686 260.81 110.526 260.39C110.376 259.97 110.141 259.65 109.821 259.43C109.511 259.2 109.101 259.085 108.591 259.085C107.841 259.085 107.296 259.335 106.956 259.835C106.616 260.335 106.446 261.04 106.446 261.95ZM117.192 266.15C116.222 266.15 115.437 265.8 114.837 265.1C114.247 264.4 113.952 263.36 113.952 261.98C113.952 260.59 114.252 259.54 114.852 258.83C115.452 258.12 116.242 257.765 117.222 257.765C117.632 257.765 117.987 257.82 118.287 257.93C118.597 258.03 118.862 258.17 119.082 258.35C119.312 258.53 119.507 258.73 119.667 258.95H119.757C119.737 258.81 119.712 258.61 119.682 258.35C119.652 258.08 119.637 257.84 119.637 257.63V254.6H121.227V266H119.982L119.712 264.92H119.637C119.487 265.15 119.297 265.36 119.067 265.55C118.847 265.73 118.582 265.875 118.272 265.985C117.962 266.095 117.602 266.15 117.192 266.15ZM117.567 264.845C118.347 264.845 118.897 264.63 119.217 264.2C119.537 263.76 119.697 263.105 119.697 262.235V261.995C119.697 261.045 119.542 260.32 119.232 259.82C118.932 259.32 118.372 259.07 117.552 259.07C116.902 259.07 116.412 259.335 116.082 259.865C115.752 260.385 115.587 261.1 115.587 262.01C115.587 262.92 115.752 263.62 116.082 264.11C116.412 264.6 116.907 264.845 117.567 264.845ZM126.899 257.765C127.609 257.765 128.219 257.915 128.729 258.215C129.239 258.505 129.629 258.925 129.899 259.475C130.179 260.025 130.319 260.675 130.319 261.425V262.295H124.889C124.909 263.125 125.124 263.76 125.534 264.2C125.954 264.64 126.539 264.86 127.289 264.86C127.809 264.86 128.269 264.815 128.669 264.725C129.079 264.625 129.499 264.48 129.929 264.29V265.61C129.529 265.79 129.119 265.925 128.699 266.015C128.289 266.105 127.799 266.15 127.229 266.15C126.449 266.15 125.759 265.995 125.159 265.685C124.559 265.375 124.089 264.915 123.749 264.305C123.419 263.685 123.254 262.925 123.254 262.025C123.254 261.115 123.404 260.345 123.704 259.715C124.014 259.085 124.439 258.605 124.979 258.275C125.529 257.935 126.169 257.765 126.899 257.765ZM126.899 258.995C126.329 258.995 125.869 259.18 125.519 259.55C125.179 259.92 124.979 260.445 124.919 261.125H128.729C128.729 260.705 128.664 260.335 128.534 260.015C128.404 259.695 128.204 259.445 127.934 259.265C127.664 259.085 127.319 258.995 126.899 258.995Z" fill="#465BC7"/>
<path fill-rule="evenodd" clip-rule="evenodd" d="M700.2 260C700.2 255.546 703.97 252 708.539 252C709.46 252 710.343 252.151 711.168 252.413L711.296 253.816C709.717 254.659 708.675 256.254 708.675 258.056C708.675 260.704 710.934 262.917 713.804 262.917C714.205 262.917 714.599 262.869 714.98 262.783L715.8 263.917C714.368 266.362 711.645 268 708.535 268C703.97 268 700.2 264.454 700.2 260ZM708.539 253.528C704.735 253.528 701.72 256.463 701.72 260C701.72 263.537 704.735 266.472 708.535 266.472C710.496 266.472 712.254 265.686 713.492 264.438C709.998 264.282 707.155 261.518 707.155 258.056C707.155 256.29 707.901 254.701 709.093 253.55C708.91 253.536 708.726 253.528 708.539 253.528Z" fill="#4457CA"/>
<path d="M756 264.418H753.851V268H740V254.149H743.582V252H756V264.418ZM741.433 255.582V266.567H752.418V264.418H743.582V255.582H741.433ZM745.082 262.918H754.5V253.5H745.082V262.918Z" fill="#4457CA"/>
</svg>
