<svg width="676" height="399" viewBox="0 0 676 399" fill="none" xmlns="http://www.w3.org/2000/svg">
<mask id="path-1-inside-1_5_482" fill="white">
<path d="M0 1.99999C0 0.895423 0.895431 0 2 0H314V399H2C0.895426 399 0 398.105 0 397V1.99999Z"/>
</mask>
<path d="M0 1.99999C0 0.895423 0.895431 0 2 0H314V399H2C0.895426 399 0 398.105 0 397V1.99999Z" fill="white"/>
<path d="M-1 2C-1 0.343146 0.343146 -1 2 -1H314V1H2C1.44772 1 1 1.44772 1 2H-1ZM314 400H2C0.343146 400 -1 398.657 -1 397H1C1 397.552 1.44772 398 2 398H314V400ZM2 400C0.343146 400 -1 398.657 -1 397V2C-1 0.343146 0.343146 -1 2 -1V1C1.44772 1 1 1.44772 1 2V397C1 397.552 1.44772 398 2 398V400ZM314 0V399V0Z" fill="#D9D9D9" mask="url(#path-1-inside-1_5_482)"/>
<path d="M236.5 180V219H77.5V180H236.5Z" fill="white"/>
<path d="M236.5 180V219H77.5V180H236.5Z" stroke="#D9D9D9"/>
<path d="M93.075 196.745H94.38L96.75 202.865L99.045 196.745H100.365L96.12 207.47H94.815L96.15 204.32L93.075 196.745ZM100.516 196.745H101.821L104.191 202.865L106.486 196.745H107.806L103.561 207.47H102.256L103.591 204.32L100.516 196.745ZM107.958 196.745H109.263L111.633 202.865L113.928 196.745H115.248L111.003 207.47H109.698L111.033 204.32L107.958 196.745ZM115.399 196.745H116.704L119.074 202.865L121.369 196.745H122.689L118.444 207.47H117.139L118.474 204.32L115.399 196.745ZM123.516 200.105H131.091V201.125H123.516V200.105ZM136.168 196.535C137.353 196.535 138.163 197.015 138.598 198.005C138.898 197.495 139.258 197.12 139.678 196.895C140.053 196.655 140.503 196.535 141.043 196.535C141.853 196.535 142.498 196.79 143.008 197.3C143.488 197.825 143.743 198.53 143.743 199.415V204.5H142.543V199.61C142.543 198.92 142.393 198.41 142.108 198.08C141.808 197.72 141.328 197.555 140.668 197.555C140.158 197.555 139.723 197.735 139.393 198.125C139.033 198.515 138.868 199.01 138.868 199.64V204.5H137.668V199.61C137.668 198.23 137.068 197.555 135.883 197.555C135.328 197.555 134.878 197.765 134.518 198.215C134.158 198.635 133.978 199.16 133.978 199.775V204.5H132.778V196.745H133.978V197.78C134.563 196.94 135.298 196.535 136.168 196.535ZM149 196.535C150.185 196.535 150.995 197.015 151.43 198.005C151.73 197.495 152.09 197.12 152.51 196.895C152.885 196.655 153.335 196.535 153.875 196.535C154.685 196.535 155.33 196.79 155.84 197.3C156.32 197.825 156.575 198.53 156.575 199.415V204.5H155.375V199.61C155.375 198.92 155.225 198.41 154.94 198.08C154.64 197.72 154.16 197.555 153.5 197.555C152.99 197.555 152.555 197.735 152.225 198.125C151.865 198.515 151.7 199.01 151.7 199.64V204.5H150.5V199.61C150.5 198.23 149.9 197.555 148.715 197.555C148.16 197.555 147.71 197.765 147.35 198.215C146.99 198.635 146.81 199.16 146.81 199.775V204.5H145.61V196.745H146.81V197.78C147.395 196.94 148.13 196.535 149 196.535ZM158.262 200.105H165.837V201.125H158.262V200.105ZM173.254 193.58H174.454V204.5H173.329V203.225C172.789 204.215 171.919 204.71 170.749 204.71C169.609 204.71 168.724 204.29 168.094 203.48C167.509 202.73 167.224 201.77 167.224 200.6C167.224 199.46 167.509 198.53 168.094 197.78C168.724 196.94 169.579 196.535 170.689 196.535C171.799 196.535 172.654 197.075 173.254 198.17V193.58ZM170.944 197.525C170.089 197.525 169.444 197.825 169.024 198.425C168.634 198.95 168.454 199.67 168.454 200.6C168.454 201.53 168.634 202.265 169.009 202.805C169.429 203.405 170.059 203.72 170.899 203.72C171.679 203.72 172.279 203.42 172.714 202.82C173.089 202.28 173.284 201.575 173.284 200.705V200.555C173.284 199.655 173.059 198.92 172.639 198.365C172.204 197.795 171.634 197.525 170.944 197.525ZM182.043 193.58H183.243V204.5H182.118V203.225C181.578 204.215 180.708 204.71 179.538 204.71C178.398 204.71 177.513 204.29 176.883 203.48C176.298 202.73 176.013 201.77 176.013 200.6C176.013 199.46 176.298 198.53 176.883 197.78C177.513 196.94 178.368 196.535 179.478 196.535C180.588 196.535 181.443 197.075 182.043 198.17V193.58ZM179.733 197.525C178.878 197.525 178.233 197.825 177.813 198.425C177.423 198.95 177.243 199.67 177.243 200.6C177.243 201.53 177.423 202.265 177.798 202.805C178.218 203.405 178.848 203.72 179.688 203.72C180.468 203.72 181.068 203.42 181.503 202.82C181.878 202.28 182.073 201.575 182.073 200.705V200.555C182.073 199.655 181.848 198.92 181.428 198.365C180.993 197.795 180.423 197.525 179.733 197.525Z" fill="#8F8F8F"/>
<path d="M211 194.5H215V192.5H216.5V194.5H220V206.5H206V194.5H209.5V192.5H211V194.5ZM207.312 200V205.214H218.688V200H207.312ZM207.312 198.5H218.688V195.786H216.5V197H215V195.786H211V197H209.5V195.786H207.312V198.5Z" fill="#8F8F8F"/>
<mask id="path-6-inside-2_5_482" fill="white">
<path d="M314 0H674C675.105 0 676 0.895431 676 2V397C676 398.105 675.105 399 674 399H314V0Z"/>
</mask>
<path d="M314 0H674C675.105 0 676 0.895431 676 2V397C676 398.105 675.105 399 674 399H314V0Z" fill="#F5F5F5"/>
<path d="M314 0V-1H313V0H314ZM314 399H313V400H314V399ZM314 0V1H674V0V-1H314V0ZM676 2H675V397H676H677V2H676ZM674 399V398H314V399V400H674V399ZM314 399H315V0H314H313V399H314ZM676 397H675C675 397.552 674.552 398 674 398V399V400C675.657 400 677 398.657 677 397H676ZM674 0V1C674.552 1 675 1.44772 675 2H676H677C677 0.343143 675.657 -1 674 -1V0Z" fill="#D9D9D9" mask="url(#path-6-inside-2_5_482)"/>
<path d="M343.856 35L340.801 26.862H340.749C340.766 27.0353 340.779 27.2563 340.788 27.525C340.805 27.7937 340.818 28.0883 340.827 28.409C340.835 28.721 340.84 29.0417 340.84 29.371V35H339.761V25.718H341.49L344.35 33.323H344.402L347.314 25.718H349.03V35H347.873V29.293C347.873 28.9897 347.877 28.6907 347.886 28.396C347.894 28.0927 347.907 27.811 347.925 27.551C347.942 27.2823 347.955 27.057 347.964 26.875H347.912L344.818 35H343.856ZM357.456 31.503C357.456 32.0837 357.378 32.5993 357.222 33.05C357.075 33.492 356.858 33.869 356.572 34.181C356.295 34.493 355.953 34.7313 355.545 34.896C355.147 35.052 354.7 35.13 354.206 35.13C353.747 35.13 353.322 35.052 352.932 34.896C352.542 34.7313 352.204 34.493 351.918 34.181C351.632 33.869 351.407 33.492 351.242 33.05C351.086 32.5993 351.008 32.0837 351.008 31.503C351.008 30.7317 351.138 30.0817 351.398 29.553C351.658 29.0157 352.031 28.6083 352.516 28.331C353.002 28.045 353.578 27.902 354.245 27.902C354.878 27.902 355.433 28.045 355.909 28.331C356.395 28.6083 356.772 29.0157 357.04 29.553C357.318 30.0817 357.456 30.7317 357.456 31.503ZM352.191 31.503C352.191 32.049 352.261 32.5257 352.399 32.933C352.547 33.3317 352.772 33.6393 353.075 33.856C353.379 34.0727 353.764 34.181 354.232 34.181C354.7 34.181 355.086 34.0727 355.389 33.856C355.693 33.6393 355.914 33.3317 356.052 32.933C356.2 32.5257 356.273 32.049 356.273 31.503C356.273 30.9483 356.2 30.476 356.052 30.086C355.905 29.696 355.68 29.397 355.376 29.189C355.082 28.9723 354.696 28.864 354.219 28.864C353.509 28.864 352.993 29.098 352.672 29.566C352.352 30.034 352.191 30.6797 352.191 31.503ZM361.74 35.13C360.873 35.13 360.18 34.831 359.66 34.233C359.14 33.6263 358.88 32.725 358.88 31.529C358.88 30.333 359.14 29.4317 359.66 28.825C360.188 28.2097 360.886 27.902 361.753 27.902C362.117 27.902 362.433 27.9497 362.702 28.045C362.97 28.1317 363.204 28.253 363.404 28.409C363.603 28.565 363.772 28.7383 363.911 28.929H363.989C363.98 28.8163 363.963 28.6517 363.937 28.435C363.919 28.2097 363.911 28.032 363.911 27.902V25.12H365.055V35H364.132L363.963 34.064H363.911C363.772 34.2633 363.603 34.4453 363.404 34.61C363.204 34.766 362.966 34.8917 362.689 34.987C362.42 35.0823 362.104 35.13 361.74 35.13ZM361.922 34.181C362.658 34.181 363.174 33.9817 363.469 33.583C363.772 33.1757 363.924 32.5647 363.924 31.75V31.542C363.924 30.6753 363.781 30.0123 363.495 29.553C363.209 29.085 362.68 28.851 361.909 28.851C361.293 28.851 360.83 29.098 360.518 29.592C360.214 30.0773 360.063 30.7317 360.063 31.555C360.063 32.387 360.214 33.0327 360.518 33.492C360.83 33.9513 361.298 34.181 361.922 34.181ZM369.959 27.902C370.557 27.902 371.068 28.032 371.493 28.292C371.926 28.552 372.255 28.9203 372.481 29.397C372.715 29.865 372.832 30.4153 372.832 31.048V31.737H368.061C368.078 32.5257 368.277 33.128 368.659 33.544C369.049 33.9513 369.59 34.155 370.284 34.155C370.726 34.155 371.116 34.116 371.454 34.038C371.8 33.9513 372.156 33.83 372.52 33.674V34.675C372.164 34.831 371.813 34.9437 371.467 35.013C371.12 35.091 370.708 35.13 370.232 35.13C369.573 35.13 368.988 34.9957 368.477 34.727C367.974 34.4583 367.58 34.0597 367.294 33.531C367.016 32.9937 366.878 32.3393 366.878 31.568C366.878 30.8053 367.003 30.151 367.255 29.605C367.515 29.059 367.874 28.6387 368.334 28.344C368.802 28.0493 369.343 27.902 369.959 27.902ZM369.946 28.838C369.4 28.838 368.966 29.0157 368.646 29.371C368.334 29.7177 368.147 30.203 368.087 30.827H371.636C371.636 30.4283 371.575 30.0817 371.454 29.787C371.332 29.4923 371.146 29.2627 370.895 29.098C370.652 28.9247 370.336 28.838 369.946 28.838Z" fill="#161616"/>
<path d="M390.5 48.5V71.5H338.5V48.5H390.5Z" fill="#465BC7" fill-opacity="0.2"/>
<path d="M390.5 48.5V71.5H338.5V48.5H390.5Z" stroke="#465BC7"/>
<path d="M351.039 55.718H354.419C355.914 55.718 357.045 56.134 357.825 56.979C358.553 57.759 358.917 58.89 358.917 60.359C358.917 61.815 358.54 62.946 357.799 63.752C357.019 64.584 355.888 65 354.393 65H351.039V55.718ZM352.456 56.927V63.791H354.133C355.303 63.791 356.174 63.505 356.72 62.946C357.253 62.387 357.526 61.529 357.526 60.359C357.526 59.163 357.253 58.305 356.733 57.759C356.187 57.2 355.329 56.927 354.159 56.927H352.456ZM363.256 58.097C364.244 58.097 364.972 58.344 365.44 58.838C365.843 59.267 366.051 59.891 366.051 60.71V65H364.777V64.051C364.517 64.389 364.192 64.662 363.802 64.857C363.36 65.065 362.84 65.182 362.242 65.182C361.54 65.182 360.994 65 360.604 64.649C360.175 64.298 359.967 63.843 359.967 63.284C359.967 62.53 360.266 61.945 360.864 61.542C361.41 61.152 362.19 60.957 363.178 60.931L364.686 60.892V60.619C364.686 59.683 364.179 59.215 363.165 59.215C362.736 59.215 362.385 59.293 362.125 59.449C361.813 59.631 361.618 59.904 361.54 60.281L360.175 60.164C360.318 59.436 360.682 58.89 361.254 58.552C361.748 58.24 362.424 58.097 363.256 58.097ZM364.686 61.893L363.269 61.932C362.008 61.958 361.384 62.4 361.384 63.232C361.384 63.492 361.488 63.7 361.709 63.869C361.917 64.038 362.203 64.129 362.554 64.129C363.139 64.129 363.633 63.947 364.049 63.596C364.465 63.245 364.686 62.803 364.686 62.283V61.893ZM369.67 56.108V58.279H371.204V59.423H369.67V63.323C369.67 63.505 369.709 63.635 369.787 63.726C369.865 63.804 369.982 63.856 370.151 63.856H371.035V65H369.93C369.358 65 368.929 64.844 368.669 64.545C368.409 64.259 368.292 63.856 368.292 63.323V59.423H367.044V58.279H368.292V56.68L369.67 56.108ZM375.16 58.097C376.252 58.097 377.097 58.461 377.669 59.215C378.189 59.891 378.462 60.827 378.475 62.023H373.379C373.431 62.673 373.6 63.18 373.912 63.531C374.224 63.869 374.653 64.051 375.199 64.051C375.68 64.051 376.07 63.934 376.369 63.713C376.603 63.531 376.798 63.232 376.98 62.842H378.358C378.202 63.466 377.903 63.999 377.435 64.415C376.85 64.922 376.109 65.182 375.212 65.182C374.224 65.182 373.431 64.87 372.859 64.259C372.235 63.609 371.923 62.738 371.923 61.633C371.923 60.632 372.209 59.8 372.807 59.124C373.379 58.435 374.172 58.097 375.16 58.097ZM375.199 59.228C374.679 59.228 374.276 59.371 373.964 59.683C373.678 59.982 373.483 60.411 373.405 60.983H377.032C376.902 59.813 376.291 59.228 375.199 59.228Z" fill="#465BC7"/>
<path d="M462.5 48.5V71.5H399.5V48.5H462.5Z" stroke="#465BC7"/>
<path d="M412.404 55.718H416.512C417.448 55.718 418.202 55.926 418.748 56.355C419.32 56.823 419.606 57.486 419.606 58.37C419.606 58.864 419.476 59.293 419.216 59.67C418.917 60.086 418.514 60.359 418.007 60.489V60.515C418.839 60.697 419.294 61.243 419.398 62.153L419.554 63.635C419.606 64.207 419.788 64.662 420.1 65H418.566C418.345 64.714 418.215 64.298 418.163 63.778L418.046 62.621C417.994 62.101 417.825 61.737 417.552 61.503C417.266 61.269 416.863 61.165 416.33 61.165H413.821V65H412.404V55.718ZM413.821 56.927V59.956H416.33C416.954 59.956 417.422 59.813 417.734 59.553C418.033 59.293 418.189 58.916 418.189 58.422C418.189 57.902 418.033 57.525 417.747 57.291C417.435 57.044 416.967 56.927 416.317 56.927H413.821ZM424.304 58.097C425.292 58.097 426.02 58.344 426.488 58.838C426.891 59.267 427.099 59.891 427.099 60.71V65H425.825V64.051C425.565 64.389 425.24 64.662 424.85 64.857C424.408 65.065 423.888 65.182 423.29 65.182C422.588 65.182 422.042 65 421.652 64.649C421.223 64.298 421.015 63.843 421.015 63.284C421.015 62.53 421.314 61.945 421.912 61.542C422.458 61.152 423.238 60.957 424.226 60.931L425.734 60.892V60.619C425.734 59.683 425.227 59.215 424.213 59.215C423.784 59.215 423.433 59.293 423.173 59.449C422.861 59.631 422.666 59.904 422.588 60.281L421.223 60.164C421.366 59.436 421.73 58.89 422.302 58.552C422.796 58.24 423.472 58.097 424.304 58.097ZM425.734 61.893L424.317 61.932C423.056 61.958 422.432 62.4 422.432 63.232C422.432 63.492 422.536 63.7 422.757 63.869C422.965 64.038 423.251 64.129 423.602 64.129C424.187 64.129 424.681 63.947 425.097 63.596C425.513 63.245 425.734 62.803 425.734 62.283V61.893ZM432.082 58.097C433.746 58.097 434.591 59.007 434.591 60.853V65H433.213V60.97C433.213 59.826 432.68 59.254 431.64 59.254C431.25 59.254 430.899 59.384 430.613 59.67C430.301 59.982 430.106 60.411 430.054 60.957V65H428.676V58.279H430.054V59.111C430.314 58.773 430.613 58.526 430.951 58.357C431.289 58.175 431.666 58.097 432.082 58.097ZM438.961 58.097C439.845 58.097 440.521 58.448 441.015 59.176V58.279H442.393V64.558C442.393 66.69 441.34 67.756 439.26 67.756C438.324 67.756 437.609 67.574 437.115 67.223C436.621 66.859 436.322 66.313 436.192 65.572H437.57C437.648 65.962 437.804 66.248 438.064 66.417C438.311 66.573 438.714 66.664 439.26 66.664C440.43 66.664 441.015 66.027 441.015 64.766V63.726C440.521 64.467 439.845 64.844 438.961 64.844C438.051 64.844 437.31 64.532 436.751 63.921C436.179 63.31 435.906 62.504 435.906 61.49C435.906 60.476 436.179 59.67 436.751 59.046C437.31 58.409 438.051 58.097 438.961 58.097ZM439.169 59.215C438.584 59.215 438.129 59.41 437.817 59.826C437.479 60.216 437.323 60.775 437.323 61.49C437.323 62.14 437.453 62.66 437.713 63.037C438.012 63.479 438.493 63.713 439.169 63.713C439.754 63.713 440.209 63.518 440.547 63.128C440.859 62.725 441.028 62.179 441.028 61.49C441.028 60.788 440.859 60.229 440.547 59.826C440.209 59.41 439.754 59.215 439.169 59.215ZM446.795 58.097C447.887 58.097 448.732 58.461 449.304 59.215C449.824 59.891 450.097 60.827 450.11 62.023H445.014C445.066 62.673 445.235 63.18 445.547 63.531C445.859 63.869 446.288 64.051 446.834 64.051C447.315 64.051 447.705 63.934 448.004 63.713C448.238 63.531 448.433 63.232 448.615 62.842H449.993C449.837 63.466 449.538 63.999 449.07 64.415C448.485 64.922 447.744 65.182 446.847 65.182C445.859 65.182 445.066 64.87 444.494 64.259C443.87 63.609 443.558 62.738 443.558 61.633C443.558 60.632 443.844 59.8 444.442 59.124C445.014 58.435 445.807 58.097 446.795 58.097ZM446.834 59.228C446.314 59.228 445.911 59.371 445.599 59.683C445.313 59.982 445.118 60.411 445.04 60.983H448.667C448.537 59.813 447.926 59.228 446.834 59.228Z" fill="#465BC7"/>
<path d="M392.5 80.5V103.5H338.5V80.5H392.5Z" stroke="#465BC7"/>
<path d="M350.556 87.718H358.161V88.927H355.067V97H353.663V88.927H350.556V87.718ZM360.127 87.588C360.4 87.588 360.634 87.666 360.816 87.848C360.998 88.017 361.089 88.238 361.089 88.511C361.089 88.784 360.985 89.005 360.803 89.187C360.621 89.356 360.387 89.447 360.127 89.447C359.854 89.447 359.633 89.356 359.451 89.187C359.269 89.005 359.178 88.771 359.178 88.511C359.178 88.238 359.269 88.017 359.451 87.848C359.633 87.666 359.854 87.588 360.127 87.588ZM359.438 90.279H360.816V97H359.438V90.279ZM365.905 90.097C366.893 90.097 367.608 90.474 368.024 91.228C368.323 90.812 368.648 90.513 368.986 90.344C369.298 90.175 369.675 90.097 370.13 90.097C370.819 90.097 371.391 90.318 371.846 90.786C372.288 91.241 372.522 91.839 372.522 92.593V97H371.144V92.827C371.144 92.281 371.027 91.878 370.793 91.631C370.559 91.371 370.169 91.254 369.649 91.254C369.259 91.254 368.947 91.397 368.687 91.683C368.427 91.969 368.297 92.372 368.297 92.866V97H366.919V92.84C366.919 91.774 366.451 91.254 365.541 91.254C365.099 91.254 364.735 91.423 364.475 91.761C364.189 92.086 364.059 92.489 364.059 92.957V97H362.681V90.279H364.059V91.02C364.605 90.396 365.229 90.097 365.905 90.097ZM376.928 90.097C378.02 90.097 378.865 90.461 379.437 91.215C379.957 91.891 380.23 92.827 380.243 94.023H375.147C375.199 94.673 375.368 95.18 375.68 95.531C375.992 95.869 376.421 96.051 376.967 96.051C377.448 96.051 377.838 95.934 378.137 95.713C378.371 95.531 378.566 95.232 378.748 94.842H380.126C379.97 95.466 379.671 95.999 379.203 96.415C378.618 96.922 377.877 97.182 376.98 97.182C375.992 97.182 375.199 96.87 374.627 96.259C374.003 95.609 373.691 94.738 373.691 93.633C373.691 92.632 373.977 91.8 374.575 91.124C375.147 90.435 375.94 90.097 376.928 90.097ZM376.967 91.228C376.447 91.228 376.044 91.371 375.732 91.683C375.446 91.982 375.251 92.411 375.173 92.983H378.8C378.67 91.813 378.059 91.228 376.967 91.228Z" fill="#465BC7"/>
<path d="M448.5 80.5V103.5H401.5V80.5H448.5Z" fill="#465BC7" fill-opacity="0.2"/>
<path d="M448.5 80.5V103.5H401.5V80.5H448.5Z" stroke="#465BC7"/>
<path d="M414.18 87.718H417.56C419.055 87.718 420.186 88.134 420.966 88.979C421.694 89.759 422.058 90.89 422.058 92.359C422.058 93.815 421.681 94.946 420.94 95.752C420.16 96.584 419.029 97 417.534 97H414.18V87.718ZM415.597 88.927V95.791H417.274C418.444 95.791 419.315 95.505 419.861 94.946C420.394 94.387 420.667 93.529 420.667 92.359C420.667 91.163 420.394 90.305 419.874 89.759C419.328 89.2 418.47 88.927 417.3 88.927H415.597ZM426.397 90.097C427.385 90.097 428.113 90.344 428.581 90.838C428.984 91.267 429.192 91.891 429.192 92.71V97H427.918V96.051C427.658 96.389 427.333 96.662 426.943 96.857C426.501 97.065 425.981 97.182 425.383 97.182C424.681 97.182 424.135 97 423.745 96.649C423.316 96.298 423.108 95.843 423.108 95.284C423.108 94.53 423.407 93.945 424.005 93.542C424.551 93.152 425.331 92.957 426.319 92.931L427.827 92.892V92.619C427.827 91.683 427.32 91.215 426.306 91.215C425.877 91.215 425.526 91.293 425.266 91.449C424.954 91.631 424.759 91.904 424.681 92.281L423.316 92.164C423.459 91.436 423.823 90.89 424.395 90.552C424.889 90.24 425.565 90.097 426.397 90.097ZM427.827 93.893L426.41 93.932C425.149 93.958 424.525 94.4 424.525 95.232C424.525 95.492 424.629 95.7 424.85 95.869C425.058 96.038 425.344 96.129 425.695 96.129C426.28 96.129 426.774 95.947 427.19 95.596C427.606 95.245 427.827 94.803 427.827 94.283V93.893ZM430.054 90.279H431.549L433.395 95.18L435.163 90.279H436.671L433.018 99.574H431.549L432.719 96.844L430.054 90.279Z" fill="#465BC7"/>
<path d="M515.5 80.5V103.5H457.5V80.5H515.5Z" stroke="#465BC7"/>
<path d="M469.509 87.718H471.108L472.915 94.946H472.967L474.865 87.718H476.347L478.245 94.946H478.297L480.104 87.718H481.703L479.025 97H477.517L475.632 89.837H475.58L473.695 97H472.174L469.509 87.718ZM485.398 90.097C486.49 90.097 487.335 90.461 487.907 91.215C488.427 91.891 488.7 92.827 488.713 94.023H483.617C483.669 94.673 483.838 95.18 484.15 95.531C484.462 95.869 484.891 96.051 485.437 96.051C485.918 96.051 486.308 95.934 486.607 95.713C486.841 95.531 487.036 95.232 487.218 94.842H488.596C488.44 95.466 488.141 95.999 487.673 96.415C487.088 96.922 486.347 97.182 485.45 97.182C484.462 97.182 483.669 96.87 483.097 96.259C482.473 95.609 482.161 94.738 482.161 93.633C482.161 92.632 482.447 91.8 483.045 91.124C483.617 90.435 484.41 90.097 485.398 90.097ZM485.437 91.228C484.917 91.228 484.514 91.371 484.202 91.683C483.916 91.982 483.721 92.411 483.643 92.983H487.27C487.14 91.813 486.529 91.228 485.437 91.228ZM492.736 90.097C493.828 90.097 494.673 90.461 495.245 91.215C495.765 91.891 496.038 92.827 496.051 94.023H490.955C491.007 94.673 491.176 95.18 491.488 95.531C491.8 95.869 492.229 96.051 492.775 96.051C493.256 96.051 493.646 95.934 493.945 95.713C494.179 95.531 494.374 95.232 494.556 94.842H495.934C495.778 95.466 495.479 95.999 495.011 96.415C494.426 96.922 493.685 97.182 492.788 97.182C491.8 97.182 491.007 96.87 490.435 96.259C489.811 95.609 489.499 94.738 489.499 93.633C489.499 92.632 489.785 91.8 490.383 91.124C490.955 90.435 491.748 90.097 492.736 90.097ZM492.775 91.228C492.255 91.228 491.852 91.371 491.54 91.683C491.254 91.982 491.059 92.411 490.981 92.983H494.608C494.478 91.813 493.867 91.228 492.775 91.228ZM497.227 87.536H498.605V93.048L501.517 90.279H503.298L500.321 93.048L503.558 97H501.79L499.372 93.932L498.605 94.647V97H497.227V87.536Z" fill="#465BC7"/>
<path d="M587.5 80.5V103.5H524.5V80.5H587.5Z" stroke="#465BC7"/>
<path d="M537.385 87.718H539.062L542.299 95.154H542.338L545.562 87.718H547.239V97H545.822V90.37H545.77L542.923 97H541.701L538.854 90.37H538.802V97H537.385V87.718ZM552.028 90.097C553.042 90.097 553.861 90.435 554.472 91.111C555.07 91.774 555.382 92.619 555.382 93.646C555.382 94.66 555.083 95.505 554.485 96.155C553.861 96.831 553.042 97.182 552.028 97.182C551.014 97.182 550.195 96.831 549.571 96.155C548.973 95.505 548.674 94.66 548.674 93.646C548.674 92.619 548.973 91.774 549.584 91.111C550.195 90.435 551.014 90.097 552.028 90.097ZM552.028 91.228C551.391 91.228 550.897 91.475 550.546 91.982C550.234 92.411 550.091 92.97 550.091 93.646C550.091 94.322 550.234 94.868 550.546 95.297C550.897 95.791 551.391 96.051 552.028 96.051C552.665 96.051 553.159 95.791 553.523 95.297C553.835 94.855 553.991 94.309 553.991 93.646C553.991 92.97 553.835 92.411 553.523 91.982C553.159 91.475 552.665 91.228 552.028 91.228ZM560.097 90.097C561.761 90.097 562.606 91.007 562.606 92.853V97H561.228V92.97C561.228 91.826 560.695 91.254 559.655 91.254C559.265 91.254 558.914 91.384 558.628 91.67C558.316 91.982 558.121 92.411 558.069 92.957V97H556.691V90.279H558.069V91.111C558.329 90.773 558.628 90.526 558.966 90.357C559.304 90.175 559.681 90.097 560.097 90.097ZM566.222 88.108V90.279H567.756V91.423H566.222V95.323C566.222 95.505 566.261 95.635 566.339 95.726C566.417 95.804 566.534 95.856 566.703 95.856H567.587V97H566.482C565.91 97 565.481 96.844 565.221 96.545C564.961 96.259 564.844 95.856 564.844 95.323V91.423H563.596V90.279H564.844V88.68L566.222 88.108ZM568.866 87.536H570.244V91.228C570.491 90.838 570.803 90.539 571.18 90.357C571.518 90.175 571.895 90.097 572.324 90.097C573.13 90.097 573.741 90.331 574.157 90.812C574.547 91.267 574.742 91.943 574.742 92.827V97H573.364V93.061C573.364 92.463 573.234 92.021 573 91.709C572.74 91.384 572.337 91.228 571.817 91.228C571.349 91.228 570.972 91.41 570.686 91.787C570.387 92.164 570.244 92.645 570.244 93.23V97H568.866V87.536Z" fill="#465BC7"/>
<path d="M648.5 80.5V103.5H596.5V80.5H648.5Z" stroke="#465BC7"/>
<path d="M608.334 87.718H610.037L612.715 91.969L615.393 87.718H617.096L613.417 93.295V97H612.013V93.295L608.334 87.718ZM620.782 90.097C621.874 90.097 622.719 90.461 623.291 91.215C623.811 91.891 624.084 92.827 624.097 94.023H619.001C619.053 94.673 619.222 95.18 619.534 95.531C619.846 95.869 620.275 96.051 620.821 96.051C621.302 96.051 621.692 95.934 621.991 95.713C622.225 95.531 622.42 95.232 622.602 94.842H623.98C623.824 95.466 623.525 95.999 623.057 96.415C622.472 96.922 621.731 97.182 620.834 97.182C619.846 97.182 619.053 96.87 618.481 96.259C617.857 95.609 617.545 94.738 617.545 93.633C617.545 92.632 617.831 91.8 618.429 91.124C619.001 90.435 619.794 90.097 620.782 90.097ZM620.821 91.228C620.301 91.228 619.898 91.371 619.586 91.683C619.3 91.982 619.105 92.411 619.027 92.983H622.654C622.524 91.813 621.913 91.228 620.821 91.228ZM628.302 90.097C629.29 90.097 630.018 90.344 630.486 90.838C630.889 91.267 631.097 91.891 631.097 92.71V97H629.823V96.051C629.563 96.389 629.238 96.662 628.848 96.857C628.406 97.065 627.886 97.182 627.288 97.182C626.586 97.182 626.04 97 625.65 96.649C625.221 96.298 625.013 95.843 625.013 95.284C625.013 94.53 625.312 93.945 625.91 93.542C626.456 93.152 627.236 92.957 628.224 92.931L629.732 92.892V92.619C629.732 91.683 629.225 91.215 628.211 91.215C627.782 91.215 627.431 91.293 627.171 91.449C626.859 91.631 626.664 91.904 626.586 92.281L625.221 92.164C625.364 91.436 625.728 90.89 626.3 90.552C626.794 90.24 627.47 90.097 628.302 90.097ZM629.732 93.893L628.315 93.932C627.054 93.958 626.43 94.4 626.43 95.232C626.43 95.492 626.534 95.7 626.755 95.869C626.963 96.038 627.249 96.129 627.6 96.129C628.185 96.129 628.679 95.947 629.095 95.596C629.511 95.245 629.732 94.803 629.732 94.283V93.893ZM635.795 90.097C636.133 90.097 636.432 90.149 636.666 90.266V91.644C636.328 91.54 636.003 91.501 635.691 91.501C635.275 91.501 634.898 91.67 634.573 92.008C634.222 92.372 634.053 92.853 634.053 93.438V97H632.675V90.279H634.053V91.293C634.222 90.929 634.443 90.656 634.703 90.474C635.015 90.214 635.379 90.097 635.795 90.097Z" fill="#465BC7"/>
<path d="M344.526 128.517C344.526 129.072 344.392 129.544 344.123 129.934C343.854 130.315 343.469 130.61 342.966 130.818C342.472 131.026 341.887 131.13 341.211 131.13C340.864 131.13 340.531 131.113 340.21 131.078C339.898 131.043 339.612 130.996 339.352 130.935C339.092 130.866 338.862 130.783 338.663 130.688V129.57C338.975 129.709 339.361 129.834 339.82 129.947C340.288 130.06 340.769 130.116 341.263 130.116C341.722 130.116 342.108 130.055 342.42 129.934C342.732 129.813 342.966 129.639 343.122 129.414C343.278 129.189 343.356 128.924 343.356 128.621C343.356 128.318 343.291 128.062 343.161 127.854C343.031 127.646 342.806 127.455 342.485 127.282C342.173 127.1 341.735 126.909 341.172 126.71C340.773 126.563 340.422 126.407 340.119 126.242C339.824 126.069 339.577 125.874 339.378 125.657C339.179 125.44 339.027 125.193 338.923 124.916C338.828 124.639 338.78 124.318 338.78 123.954C338.78 123.46 338.906 123.04 339.157 122.693C339.408 122.338 339.755 122.065 340.197 121.874C340.648 121.683 341.163 121.588 341.744 121.588C342.255 121.588 342.723 121.636 343.148 121.731C343.573 121.826 343.958 121.952 344.305 122.108L343.941 123.109C343.62 122.97 343.269 122.853 342.888 122.758C342.515 122.663 342.125 122.615 341.718 122.615C341.328 122.615 341.003 122.671 340.743 122.784C340.483 122.897 340.288 123.057 340.158 123.265C340.028 123.464 339.963 123.698 339.963 123.967C339.963 124.279 340.028 124.539 340.158 124.747C340.288 124.955 340.5 125.141 340.795 125.306C341.09 125.471 341.488 125.648 341.991 125.839C342.537 126.038 342.996 126.255 343.369 126.489C343.75 126.714 344.036 126.987 344.227 127.308C344.426 127.629 344.526 128.032 344.526 128.517ZM347.384 124.032V131H346.24V124.032H347.384ZM346.825 121.419C346.998 121.419 347.15 121.48 347.28 121.601C347.418 121.714 347.488 121.896 347.488 122.147C347.488 122.39 347.418 122.572 347.28 122.693C347.15 122.814 346.998 122.875 346.825 122.875C346.634 122.875 346.474 122.814 346.344 122.693C346.214 122.572 346.149 122.39 346.149 122.147C346.149 121.896 346.214 121.714 346.344 121.601C346.474 121.48 346.634 121.419 346.825 121.419ZM354.089 131H348.993V130.246L352.737 124.916H349.214V124.032H353.998V124.89L350.306 130.116H354.089V131ZM358.389 123.902C358.987 123.902 359.498 124.032 359.923 124.292C360.356 124.552 360.685 124.92 360.911 125.397C361.145 125.865 361.262 126.415 361.262 127.048V127.737H356.491C356.508 128.526 356.707 129.128 357.089 129.544C357.479 129.951 358.02 130.155 358.714 130.155C359.156 130.155 359.546 130.116 359.884 130.038C360.23 129.951 360.586 129.83 360.95 129.674V130.675C360.594 130.831 360.243 130.944 359.897 131.013C359.55 131.091 359.138 131.13 358.662 131.13C358.003 131.13 357.418 130.996 356.907 130.727C356.404 130.458 356.01 130.06 355.724 129.531C355.446 128.994 355.308 128.339 355.308 127.568C355.308 126.805 355.433 126.151 355.685 125.605C355.945 125.059 356.304 124.639 356.764 124.344C357.232 124.049 357.773 123.902 358.389 123.902ZM358.376 124.838C357.83 124.838 357.396 125.016 357.076 125.371C356.764 125.718 356.577 126.203 356.517 126.827H360.066C360.066 126.428 360.005 126.082 359.884 125.787C359.762 125.492 359.576 125.263 359.325 125.098C359.082 124.925 358.766 124.838 358.376 124.838Z" fill="#161616"/>
<path d="M397.5 144.5V167.5H338.5V144.5H397.5Z" stroke="#465BC7"/>
<path d="M351.39 151.718H352.794V159.791H357.903V161H351.39V151.718ZM361.97 154.097C362.958 154.097 363.686 154.344 364.154 154.838C364.557 155.267 364.765 155.891 364.765 156.71V161H363.491V160.051C363.231 160.389 362.906 160.662 362.516 160.857C362.074 161.065 361.554 161.182 360.956 161.182C360.254 161.182 359.708 161 359.318 160.649C358.889 160.298 358.681 159.843 358.681 159.284C358.681 158.53 358.98 157.945 359.578 157.542C360.124 157.152 360.904 156.957 361.892 156.931L363.4 156.892V156.619C363.4 155.683 362.893 155.215 361.879 155.215C361.45 155.215 361.099 155.293 360.839 155.449C360.527 155.631 360.332 155.904 360.254 156.281L358.889 156.164C359.032 155.436 359.396 154.89 359.968 154.552C360.462 154.24 361.138 154.097 361.97 154.097ZM363.4 157.893L361.983 157.932C360.722 157.958 360.098 158.4 360.098 159.232C360.098 159.492 360.202 159.7 360.423 159.869C360.631 160.038 360.917 160.129 361.268 160.129C361.853 160.129 362.347 159.947 362.763 159.596C363.179 159.245 363.4 158.803 363.4 158.283V157.893ZM369.463 154.097C369.801 154.097 370.1 154.149 370.334 154.266V155.644C369.996 155.54 369.671 155.501 369.359 155.501C368.943 155.501 368.566 155.67 368.241 156.008C367.89 156.372 367.721 156.853 367.721 157.438V161H366.343V154.279H367.721V155.293C367.89 154.929 368.111 154.656 368.371 154.474C368.683 154.214 369.047 154.097 369.463 154.097ZM373.974 154.097C374.858 154.097 375.534 154.448 376.028 155.176V154.279H377.406V160.558C377.406 162.69 376.353 163.756 374.273 163.756C373.337 163.756 372.622 163.574 372.128 163.223C371.634 162.859 371.335 162.313 371.205 161.572H372.583C372.661 161.962 372.817 162.248 373.077 162.417C373.324 162.573 373.727 162.664 374.273 162.664C375.443 162.664 376.028 162.027 376.028 160.766V159.726C375.534 160.467 374.858 160.844 373.974 160.844C373.064 160.844 372.323 160.532 371.764 159.921C371.192 159.31 370.919 158.504 370.919 157.49C370.919 156.476 371.192 155.67 371.764 155.046C372.323 154.409 373.064 154.097 373.974 154.097ZM374.182 155.215C373.597 155.215 373.142 155.41 372.83 155.826C372.492 156.216 372.336 156.775 372.336 157.49C372.336 158.14 372.466 158.66 372.726 159.037C373.025 159.479 373.506 159.713 374.182 159.713C374.767 159.713 375.222 159.518 375.56 159.128C375.872 158.725 376.041 158.179 376.041 157.49C376.041 156.788 375.872 156.229 375.56 155.826C375.222 155.41 374.767 155.215 374.182 155.215ZM381.809 154.097C382.901 154.097 383.746 154.461 384.318 155.215C384.838 155.891 385.111 156.827 385.124 158.023H380.028C380.08 158.673 380.249 159.18 380.561 159.531C380.873 159.869 381.302 160.051 381.848 160.051C382.329 160.051 382.719 159.934 383.018 159.713C383.252 159.531 383.447 159.232 383.629 158.842H385.007C384.851 159.466 384.552 159.999 384.084 160.415C383.499 160.922 382.758 161.182 381.861 161.182C380.873 161.182 380.08 160.87 379.508 160.259C378.884 159.609 378.572 158.738 378.572 157.633C378.572 156.632 378.858 155.8 379.456 155.124C380.028 154.435 380.821 154.097 381.809 154.097ZM381.848 155.228C381.328 155.228 380.925 155.371 380.613 155.683C380.327 155.982 380.132 156.411 380.054 156.983H383.681C383.551 155.813 382.94 155.228 381.848 155.228Z" fill="#465BC7"/>
<path d="M479.5 144.5V167.5H406.5V144.5H479.5Z" fill="#465BC7" fill-opacity="0.2"/>
<path d="M479.5 144.5V167.5H406.5V144.5H479.5Z" stroke="#465BC7"/>
<path d="M419.3 151.718H420.977L424.214 159.154H424.253L427.477 151.718H429.154V161H427.737V154.37H427.685L424.838 161H423.616L420.769 154.37H420.717V161H419.3V151.718ZM433.697 154.097C434.789 154.097 435.634 154.461 436.206 155.215C436.726 155.891 436.999 156.827 437.012 158.023H431.916C431.968 158.673 432.137 159.18 432.449 159.531C432.761 159.869 433.19 160.051 433.736 160.051C434.217 160.051 434.607 159.934 434.906 159.713C435.14 159.531 435.335 159.232 435.517 158.842H436.895C436.739 159.466 436.44 159.999 435.972 160.415C435.387 160.922 434.646 161.182 433.749 161.182C432.761 161.182 431.968 160.87 431.396 160.259C430.772 159.609 430.46 158.738 430.46 157.633C430.46 156.632 430.746 155.8 431.344 155.124C431.916 154.435 432.709 154.097 433.697 154.097ZM433.736 155.228C433.216 155.228 432.813 155.371 432.501 155.683C432.215 155.982 432.02 156.411 431.942 156.983H435.569C435.439 155.813 434.828 155.228 433.736 155.228ZM443.024 151.536H444.402V161H443.115V160.194C442.647 160.844 441.945 161.182 441.035 161.182C440.047 161.182 439.267 160.831 438.708 160.129C438.188 159.479 437.928 158.634 437.928 157.607C437.928 156.619 438.175 155.8 438.695 155.15C439.241 154.448 440.008 154.097 440.97 154.097C441.789 154.097 442.478 154.487 443.024 155.28V151.536ZM441.282 155.215C440.606 155.215 440.099 155.436 439.774 155.904C439.488 156.294 439.345 156.866 439.345 157.607C439.345 158.348 439.475 158.92 439.748 159.336C440.06 159.817 440.567 160.064 441.243 160.064C441.841 160.064 442.296 159.817 442.634 159.349C442.92 158.92 443.063 158.374 443.063 157.698V157.581C443.063 156.853 442.881 156.268 442.543 155.826C442.205 155.41 441.789 155.215 441.282 155.215ZM446.932 151.588C447.205 151.588 447.439 151.666 447.621 151.848C447.803 152.017 447.894 152.238 447.894 152.511C447.894 152.784 447.79 153.005 447.608 153.187C447.426 153.356 447.192 153.447 446.932 153.447C446.659 153.447 446.438 153.356 446.256 153.187C446.074 153.005 445.983 152.771 445.983 152.511C445.983 152.238 446.074 152.017 446.256 151.848C446.438 151.666 446.659 151.588 446.932 151.588ZM446.243 154.279H447.621V161H446.243V154.279ZM449.487 154.279H450.865V158.374C450.865 158.946 450.982 159.362 451.229 159.622C451.463 159.882 451.853 160.025 452.386 160.025C452.75 160.025 453.075 159.869 453.387 159.583C453.699 159.284 453.92 158.881 454.037 158.387V154.279H455.415V161H454.037V160.09C453.465 160.818 452.763 161.182 451.918 161.182C450.293 161.182 449.487 160.272 449.487 158.465V154.279ZM460.213 154.097C461.201 154.097 461.916 154.474 462.332 155.228C462.631 154.812 462.956 154.513 463.294 154.344C463.606 154.175 463.983 154.097 464.438 154.097C465.127 154.097 465.699 154.318 466.154 154.786C466.596 155.241 466.83 155.839 466.83 156.593V161H465.452V156.827C465.452 156.281 465.335 155.878 465.101 155.631C464.867 155.371 464.477 155.254 463.957 155.254C463.567 155.254 463.255 155.397 462.995 155.683C462.735 155.969 462.605 156.372 462.605 156.866V161H461.227V156.84C461.227 155.774 460.759 155.254 459.849 155.254C459.407 155.254 459.043 155.423 458.783 155.761C458.497 156.086 458.367 156.489 458.367 156.957V161H456.989V154.279H458.367V155.02C458.913 154.396 459.537 154.097 460.213 154.097Z" fill="#465BC7"/>
<path d="M545.5 144.5V167.5H488.5V144.5H545.5Z" stroke="#465BC7"/>
<path d="M504.301 151.536C505.38 151.536 506.225 151.757 506.836 152.225C507.486 152.706 507.85 153.447 507.941 154.461H506.537C506.407 153.863 506.173 153.421 505.809 153.161C505.445 152.888 504.925 152.758 504.223 152.758C503.612 152.758 503.144 152.849 502.819 153.031C502.416 153.239 502.221 153.577 502.221 154.045C502.221 154.461 502.442 154.786 502.91 155.033C503.118 155.15 503.651 155.345 504.522 155.605C505.77 155.995 506.589 156.294 506.953 156.515C507.746 156.996 508.149 157.659 508.149 158.517C508.149 159.349 507.824 159.999 507.174 160.48C506.524 160.948 505.614 161.182 504.444 161.182C503.313 161.182 502.429 160.948 501.792 160.506C501.025 159.96 500.609 159.102 500.531 157.932H501.935C502.039 158.66 502.299 159.193 502.715 159.505C503.092 159.791 503.664 159.934 504.444 159.934C505.146 159.934 505.705 159.804 506.121 159.57C506.537 159.336 506.745 159.011 506.745 158.595C506.745 158.075 506.446 157.672 505.861 157.373C505.653 157.269 505.042 157.061 504.015 156.749C502.871 156.385 502.169 156.138 501.883 155.982C501.168 155.553 500.817 154.929 500.817 154.123C500.817 153.304 501.155 152.667 501.844 152.199C502.494 151.757 503.313 151.536 504.301 151.536ZM512.562 154.097C513.55 154.097 514.265 154.474 514.681 155.228C514.98 154.812 515.305 154.513 515.643 154.344C515.955 154.175 516.332 154.097 516.787 154.097C517.476 154.097 518.048 154.318 518.503 154.786C518.945 155.241 519.179 155.839 519.179 156.593V161H517.801V156.827C517.801 156.281 517.684 155.878 517.45 155.631C517.216 155.371 516.826 155.254 516.306 155.254C515.916 155.254 515.604 155.397 515.344 155.683C515.084 155.969 514.954 156.372 514.954 156.866V161H513.576V156.84C513.576 155.774 513.108 155.254 512.198 155.254C511.756 155.254 511.392 155.423 511.132 155.761C510.846 156.086 510.716 156.489 510.716 156.957V161H509.338V154.279H510.716V155.02C511.262 154.396 511.886 154.097 512.562 154.097ZM523.767 154.097C524.755 154.097 525.483 154.344 525.951 154.838C526.354 155.267 526.562 155.891 526.562 156.71V161H525.288V160.051C525.028 160.389 524.703 160.662 524.313 160.857C523.871 161.065 523.351 161.182 522.753 161.182C522.051 161.182 521.505 161 521.115 160.649C520.686 160.298 520.478 159.843 520.478 159.284C520.478 158.53 520.777 157.945 521.375 157.542C521.921 157.152 522.701 156.957 523.689 156.931L525.197 156.892V156.619C525.197 155.683 524.69 155.215 523.676 155.215C523.247 155.215 522.896 155.293 522.636 155.449C522.324 155.631 522.129 155.904 522.051 156.281L520.686 156.164C520.829 155.436 521.193 154.89 521.765 154.552C522.259 154.24 522.935 154.097 523.767 154.097ZM525.197 157.893L523.78 157.932C522.519 157.958 521.895 158.4 521.895 159.232C521.895 159.492 521.999 159.7 522.22 159.869C522.428 160.038 522.714 160.129 523.065 160.129C523.65 160.129 524.144 159.947 524.56 159.596C524.976 159.245 525.197 158.803 525.197 158.283V157.893ZM528.295 151.536H529.673V161H528.295V151.536ZM531.545 151.536H532.923V161H531.545V151.536Z" fill="#465BC7"/>
<path d="M344.526 192.517C344.526 193.072 344.392 193.544 344.123 193.934C343.854 194.315 343.469 194.61 342.966 194.818C342.472 195.026 341.887 195.13 341.211 195.13C340.864 195.13 340.531 195.113 340.21 195.078C339.898 195.043 339.612 194.996 339.352 194.935C339.092 194.866 338.862 194.783 338.663 194.688V193.57C338.975 193.709 339.361 193.834 339.82 193.947C340.288 194.06 340.769 194.116 341.263 194.116C341.722 194.116 342.108 194.055 342.42 193.934C342.732 193.813 342.966 193.639 343.122 193.414C343.278 193.189 343.356 192.924 343.356 192.621C343.356 192.318 343.291 192.062 343.161 191.854C343.031 191.646 342.806 191.455 342.485 191.282C342.173 191.1 341.735 190.909 341.172 190.71C340.773 190.563 340.422 190.407 340.119 190.242C339.824 190.069 339.577 189.874 339.378 189.657C339.179 189.44 339.027 189.193 338.923 188.916C338.828 188.639 338.78 188.318 338.78 187.954C338.78 187.46 338.906 187.04 339.157 186.693C339.408 186.338 339.755 186.065 340.197 185.874C340.648 185.683 341.163 185.588 341.744 185.588C342.255 185.588 342.723 185.636 343.148 185.731C343.573 185.826 343.958 185.952 344.305 186.108L343.941 187.109C343.62 186.97 343.269 186.853 342.888 186.758C342.515 186.663 342.125 186.615 341.718 186.615C341.328 186.615 341.003 186.671 340.743 186.784C340.483 186.897 340.288 187.057 340.158 187.265C340.028 187.464 339.963 187.698 339.963 187.967C339.963 188.279 340.028 188.539 340.158 188.747C340.288 188.955 340.5 189.141 340.795 189.306C341.09 189.471 341.488 189.648 341.991 189.839C342.537 190.038 342.996 190.255 343.369 190.489C343.75 190.714 344.036 190.987 344.227 191.308C344.426 191.629 344.526 192.032 344.526 192.517ZM348.567 194.194C348.74 194.194 348.918 194.181 349.1 194.155C349.282 194.12 349.429 194.086 349.542 194.051V194.922C349.42 194.983 349.247 195.03 349.022 195.065C348.796 195.108 348.58 195.13 348.372 195.13C348.008 195.13 347.67 195.069 347.358 194.948C347.054 194.818 346.807 194.597 346.617 194.285C346.426 193.973 346.331 193.535 346.331 192.972V188.916H345.343V188.37L346.344 187.915L346.799 186.433H347.475V188.032H349.49V188.916H347.475V192.946C347.475 193.371 347.574 193.687 347.774 193.895C347.982 194.094 348.246 194.194 348.567 194.194ZM353.576 187.915C354.425 187.915 355.054 188.101 355.461 188.474C355.868 188.847 356.072 189.44 356.072 190.255V195H355.24L355.019 194.012H354.967C354.768 194.263 354.56 194.476 354.343 194.649C354.135 194.814 353.892 194.935 353.615 195.013C353.346 195.091 353.017 195.13 352.627 195.13C352.211 195.13 351.834 195.056 351.496 194.909C351.167 194.762 350.907 194.536 350.716 194.233C350.525 193.921 350.43 193.531 350.43 193.063C350.43 192.37 350.703 191.837 351.249 191.464C351.795 191.083 352.636 190.875 353.771 190.84L354.954 190.801V190.385C354.954 189.804 354.828 189.401 354.577 189.176C354.326 188.951 353.97 188.838 353.511 188.838C353.147 188.838 352.8 188.894 352.471 189.007C352.142 189.111 351.834 189.232 351.548 189.371L351.197 188.513C351.5 188.348 351.86 188.21 352.276 188.097C352.692 187.976 353.125 187.915 353.576 187.915ZM353.914 191.633C353.047 191.668 352.445 191.806 352.107 192.049C351.778 192.292 351.613 192.634 351.613 193.076C351.613 193.466 351.73 193.752 351.964 193.934C352.207 194.116 352.514 194.207 352.887 194.207C353.476 194.207 353.966 194.047 354.356 193.726C354.746 193.397 354.941 192.894 354.941 192.218V191.594L353.914 191.633ZM360.551 194.194C360.724 194.194 360.902 194.181 361.084 194.155C361.266 194.12 361.413 194.086 361.526 194.051V194.922C361.405 194.983 361.231 195.03 361.006 195.065C360.781 195.108 360.564 195.13 360.356 195.13C359.992 195.13 359.654 195.069 359.342 194.948C359.039 194.818 358.792 194.597 358.601 194.285C358.41 193.973 358.315 193.535 358.315 192.972V188.916H357.327V188.37L358.328 187.915L358.783 186.433H359.459V188.032H361.474V188.916H359.459V192.946C359.459 193.371 359.559 193.687 359.758 193.895C359.966 194.094 360.23 194.194 360.551 194.194ZM365.612 187.902C366.21 187.902 366.722 188.032 367.146 188.292C367.58 188.552 367.909 188.92 368.134 189.397C368.368 189.865 368.485 190.415 368.485 191.048V191.737H363.714C363.732 192.526 363.931 193.128 364.312 193.544C364.702 193.951 365.244 194.155 365.937 194.155C366.379 194.155 366.769 194.116 367.107 194.038C367.454 193.951 367.809 193.83 368.173 193.674V194.675C367.818 194.831 367.467 194.944 367.12 195.013C366.774 195.091 366.362 195.13 365.885 195.13C365.227 195.13 364.642 194.996 364.13 194.727C363.628 194.458 363.233 194.06 362.947 193.531C362.67 192.994 362.531 192.339 362.531 191.568C362.531 190.805 362.657 190.151 362.908 189.605C363.168 189.059 363.528 188.639 363.987 188.344C364.455 188.049 364.997 187.902 365.612 187.902ZM365.599 188.838C365.053 188.838 364.62 189.016 364.299 189.371C363.987 189.718 363.801 190.203 363.74 190.827H367.289C367.289 190.428 367.229 190.082 367.107 189.787C366.986 189.492 366.8 189.263 366.548 189.098C366.306 188.925 365.989 188.838 365.599 188.838Z" fill="#161616"/>
<path d="M411.5 208.5V231.5H338.5V208.5H411.5Z" fill="#465BC7" fill-opacity="0.2"/>
<path d="M411.5 208.5V231.5H338.5V208.5H411.5Z" stroke="#465BC7"/>
<path d="M351.237 215.718H357.906V216.927H352.654V219.631H357.594V220.84H352.654V223.791H358.127V225H351.237V215.718ZM362.841 218.097C364.505 218.097 365.35 219.007 365.35 220.853V225H363.972V220.97C363.972 219.826 363.439 219.254 362.399 219.254C362.009 219.254 361.658 219.384 361.372 219.67C361.06 219.982 360.865 220.411 360.813 220.957V225H359.435V218.279H360.813V219.111C361.073 218.773 361.372 218.526 361.71 218.357C362.048 218.175 362.425 218.097 362.841 218.097ZM369.954 218.097C370.942 218.097 371.67 218.344 372.138 218.838C372.541 219.267 372.749 219.891 372.749 220.71V225H371.475V224.051C371.215 224.389 370.89 224.662 370.5 224.857C370.058 225.065 369.538 225.182 368.94 225.182C368.238 225.182 367.692 225 367.302 224.649C366.873 224.298 366.665 223.843 366.665 223.284C366.665 222.53 366.964 221.945 367.562 221.542C368.108 221.152 368.888 220.957 369.876 220.931L371.384 220.892V220.619C371.384 219.683 370.877 219.215 369.863 219.215C369.434 219.215 369.083 219.293 368.823 219.449C368.511 219.631 368.316 219.904 368.238 220.281L366.873 220.164C367.016 219.436 367.38 218.89 367.952 218.552C368.446 218.24 369.122 218.097 369.954 218.097ZM371.384 221.893L369.967 221.932C368.706 221.958 368.082 222.4 368.082 223.232C368.082 223.492 368.186 223.7 368.407 223.869C368.615 224.038 368.901 224.129 369.252 224.129C369.837 224.129 370.331 223.947 370.747 223.596C371.163 223.245 371.384 222.803 371.384 222.283V221.893ZM374.326 215.536H375.704V219.28C376.25 218.487 376.926 218.097 377.758 218.097C378.72 218.097 379.474 218.448 380.033 219.15C380.54 219.8 380.8 220.619 380.8 221.607C380.8 222.634 380.54 223.479 380.02 224.129C379.448 224.831 378.681 225.182 377.693 225.182C376.77 225.182 376.081 224.844 375.613 224.194V225H374.326V215.536ZM377.446 219.215C376.926 219.215 376.51 219.41 376.198 219.826C375.834 220.268 375.665 220.853 375.665 221.581V221.698C375.665 222.374 375.808 222.92 376.094 223.349C376.419 223.817 376.887 224.064 377.485 224.064C378.161 224.064 378.655 223.817 378.98 223.336C379.24 222.92 379.383 222.348 379.383 221.607C379.383 220.866 379.24 220.294 378.954 219.904C378.629 219.436 378.122 219.215 377.446 219.215ZM382.252 215.536H383.63V225H382.252V215.536ZM388.193 218.097C389.285 218.097 390.13 218.461 390.702 219.215C391.222 219.891 391.495 220.827 391.508 222.023H386.412C386.464 222.673 386.633 223.18 386.945 223.531C387.257 223.869 387.686 224.051 388.232 224.051C388.713 224.051 389.103 223.934 389.402 223.713C389.636 223.531 389.831 223.232 390.013 222.842H391.391C391.235 223.466 390.936 223.999 390.468 224.415C389.883 224.922 389.142 225.182 388.245 225.182C387.257 225.182 386.464 224.87 385.892 224.259C385.268 223.609 384.956 222.738 384.956 221.633C384.956 220.632 385.242 219.8 385.84 219.124C386.412 218.435 387.205 218.097 388.193 218.097ZM388.232 219.228C387.712 219.228 387.309 219.371 386.997 219.683C386.711 219.982 386.516 220.411 386.438 220.983H390.065C389.935 219.813 389.324 219.228 388.232 219.228ZM397.52 215.536H398.898V225H397.611V224.194C397.143 224.844 396.441 225.182 395.531 225.182C394.543 225.182 393.763 224.831 393.204 224.129C392.684 223.479 392.424 222.634 392.424 221.607C392.424 220.619 392.671 219.8 393.191 219.15C393.737 218.448 394.504 218.097 395.466 218.097C396.285 218.097 396.974 218.487 397.52 219.28V215.536ZM395.778 219.215C395.102 219.215 394.595 219.436 394.27 219.904C393.984 220.294 393.841 220.866 393.841 221.607C393.841 222.348 393.971 222.92 394.244 223.336C394.556 223.817 395.063 224.064 395.739 224.064C396.337 224.064 396.792 223.817 397.13 223.349C397.416 222.92 397.559 222.374 397.559 221.698V221.581C397.559 220.853 397.377 220.268 397.039 219.826C396.701 219.41 396.285 219.215 395.778 219.215Z" fill="#465BC7"/>
<path d="M497.5 208.5V231.5H420.5V208.5H497.5Z" stroke="#465BC7"/>
<path d="M433.345 215.718H436.725C438.22 215.718 439.351 216.134 440.131 216.979C440.859 217.759 441.223 218.89 441.223 220.359C441.223 221.815 440.846 222.946 440.105 223.752C439.325 224.584 438.194 225 436.699 225H433.345V215.718ZM434.762 216.927V223.791H436.439C437.609 223.791 438.48 223.505 439.026 222.946C439.559 222.387 439.832 221.529 439.832 220.359C439.832 219.163 439.559 218.305 439.039 217.759C438.493 217.2 437.635 216.927 436.465 216.927H434.762ZM443.508 215.588C443.781 215.588 444.015 215.666 444.197 215.848C444.379 216.017 444.47 216.238 444.47 216.511C444.47 216.784 444.366 217.005 444.184 217.187C444.002 217.356 443.768 217.447 443.508 217.447C443.235 217.447 443.014 217.356 442.832 217.187C442.65 217.005 442.559 216.771 442.559 216.511C442.559 216.238 442.65 216.017 442.832 215.848C443.014 215.666 443.235 215.588 443.508 215.588ZM442.819 218.279H444.197V225H442.819V218.279ZM448.572 218.097C450.314 218.097 451.276 218.799 451.432 220.216H450.093C449.989 219.852 449.833 219.605 449.612 219.462C449.378 219.306 449.014 219.228 448.546 219.228C448.13 219.228 447.818 219.28 447.61 219.41C447.363 219.54 447.246 219.748 447.246 220.008C447.246 220.242 447.428 220.437 447.792 220.606C448.026 220.71 448.468 220.84 449.144 221.009C449.911 221.191 450.483 221.412 450.847 221.646C451.38 221.984 451.653 222.452 451.653 223.05C451.653 224.467 450.652 225.182 448.663 225.182C446.817 225.182 445.829 224.389 445.673 222.829H447.025C447.103 223.284 447.272 223.609 447.506 223.791C447.74 223.96 448.104 224.051 448.624 224.051C449.69 224.051 450.236 223.739 450.236 223.141C450.236 222.816 450.028 222.556 449.638 222.374C449.43 222.27 448.975 222.14 448.286 221.984C447.493 221.802 446.934 221.607 446.622 221.399C446.102 221.074 445.842 220.619 445.842 220.047C445.842 219.436 446.089 218.955 446.596 218.617C447.103 218.266 447.766 218.097 448.572 218.097ZM455.846 218.097C456.834 218.097 457.562 218.344 458.03 218.838C458.433 219.267 458.641 219.891 458.641 220.71V225H457.367V224.051C457.107 224.389 456.782 224.662 456.392 224.857C455.95 225.065 455.43 225.182 454.832 225.182C454.13 225.182 453.584 225 453.194 224.649C452.765 224.298 452.557 223.843 452.557 223.284C452.557 222.53 452.856 221.945 453.454 221.542C454 221.152 454.78 220.957 455.768 220.931L457.276 220.892V220.619C457.276 219.683 456.769 219.215 455.755 219.215C455.326 219.215 454.975 219.293 454.715 219.449C454.403 219.631 454.208 219.904 454.13 220.281L452.765 220.164C452.908 219.436 453.272 218.89 453.844 218.552C454.338 218.24 455.014 218.097 455.846 218.097ZM457.276 221.893L455.859 221.932C454.598 221.958 453.974 222.4 453.974 223.232C453.974 223.492 454.078 223.7 454.299 223.869C454.507 224.038 454.793 224.129 455.144 224.129C455.729 224.129 456.223 223.947 456.639 223.596C457.055 223.245 457.276 222.803 457.276 222.283V221.893ZM460.218 215.536H461.596V219.28C462.142 218.487 462.818 218.097 463.65 218.097C464.612 218.097 465.366 218.448 465.925 219.15C466.432 219.8 466.692 220.619 466.692 221.607C466.692 222.634 466.432 223.479 465.912 224.129C465.34 224.831 464.573 225.182 463.585 225.182C462.662 225.182 461.973 224.844 461.505 224.194V225H460.218V215.536ZM463.338 219.215C462.818 219.215 462.402 219.41 462.09 219.826C461.726 220.268 461.557 220.853 461.557 221.581V221.698C461.557 222.374 461.7 222.92 461.986 223.349C462.311 223.817 462.779 224.064 463.377 224.064C464.053 224.064 464.547 223.817 464.872 223.336C465.132 222.92 465.275 222.348 465.275 221.607C465.275 220.866 465.132 220.294 464.846 219.904C464.521 219.436 464.014 219.215 463.338 219.215ZM468.144 215.536H469.522V225H468.144V215.536ZM474.085 218.097C475.177 218.097 476.022 218.461 476.594 219.215C477.114 219.891 477.387 220.827 477.4 222.023H472.304C472.356 222.673 472.525 223.18 472.837 223.531C473.149 223.869 473.578 224.051 474.124 224.051C474.605 224.051 474.995 223.934 475.294 223.713C475.528 223.531 475.723 223.232 475.905 222.842H477.283C477.127 223.466 476.828 223.999 476.36 224.415C475.775 224.922 475.034 225.182 474.137 225.182C473.149 225.182 472.356 224.87 471.784 224.259C471.16 223.609 470.848 222.738 470.848 221.633C470.848 220.632 471.134 219.8 471.732 219.124C472.304 218.435 473.097 218.097 474.085 218.097ZM474.124 219.228C473.604 219.228 473.201 219.371 472.889 219.683C472.603 219.982 472.408 220.411 472.33 220.983H475.957C475.827 219.813 475.216 219.228 474.124 219.228ZM483.411 215.536H484.789V225H483.502V224.194C483.034 224.844 482.332 225.182 481.422 225.182C480.434 225.182 479.654 224.831 479.095 224.129C478.575 223.479 478.315 222.634 478.315 221.607C478.315 220.619 478.562 219.8 479.082 219.15C479.628 218.448 480.395 218.097 481.357 218.097C482.176 218.097 482.865 218.487 483.411 219.28V215.536ZM481.669 219.215C480.993 219.215 480.486 219.436 480.161 219.904C479.875 220.294 479.732 220.866 479.732 221.607C479.732 222.348 479.862 222.92 480.135 223.336C480.447 223.817 480.954 224.064 481.63 224.064C482.228 224.064 482.683 223.817 483.021 223.349C483.307 222.92 483.45 222.374 483.45 221.698V221.581C483.45 220.853 483.268 220.268 482.93 219.826C482.592 219.41 482.176 219.215 481.669 219.215Z" fill="#465BC7"/>
<path d="M560.5 208.5V231.5H506.5V208.5H560.5Z" stroke="#465BC7"/>
<path d="M519.112 215.718H525.781V216.927H520.529V219.631H525.469V220.84H520.529V223.791H526.002V225H519.112V215.718ZM530.43 218.097C530.768 218.097 531.067 218.149 531.301 218.266V219.644C530.963 219.54 530.638 219.501 530.326 219.501C529.91 219.501 529.533 219.67 529.208 220.008C528.857 220.372 528.688 220.853 528.688 221.438V225H527.31V218.279H528.688V219.293C528.857 218.929 529.078 218.656 529.338 218.474C529.65 218.214 530.014 218.097 530.43 218.097ZM535.267 218.097C535.605 218.097 535.904 218.149 536.138 218.266V219.644C535.8 219.54 535.475 219.501 535.163 219.501C534.747 219.501 534.37 219.67 534.045 220.008C533.694 220.372 533.525 220.853 533.525 221.438V225H532.147V218.279H533.525V219.293C533.694 218.929 533.915 218.656 534.175 218.474C534.487 218.214 534.851 218.097 535.267 218.097ZM540.078 218.097C541.092 218.097 541.911 218.435 542.522 219.111C543.12 219.774 543.432 220.619 543.432 221.646C543.432 222.66 543.133 223.505 542.535 224.155C541.911 224.831 541.092 225.182 540.078 225.182C539.064 225.182 538.245 224.831 537.621 224.155C537.023 223.505 536.724 222.66 536.724 221.646C536.724 220.619 537.023 219.774 537.634 219.111C538.245 218.435 539.064 218.097 540.078 218.097ZM540.078 219.228C539.441 219.228 538.947 219.475 538.596 219.982C538.284 220.411 538.141 220.97 538.141 221.646C538.141 222.322 538.284 222.868 538.596 223.297C538.947 223.791 539.441 224.051 540.078 224.051C540.715 224.051 541.209 223.791 541.573 223.297C541.885 222.855 542.041 222.309 542.041 221.646C542.041 220.97 541.885 220.411 541.573 219.982C541.209 219.475 540.715 219.228 540.078 219.228ZM547.861 218.097C548.199 218.097 548.498 218.149 548.732 218.266V219.644C548.394 219.54 548.069 219.501 547.757 219.501C547.341 219.501 546.964 219.67 546.639 220.008C546.288 220.372 546.119 220.853 546.119 221.438V225H544.741V218.279H546.119V219.293C546.288 218.929 546.509 218.656 546.769 218.474C547.081 218.214 547.445 218.097 547.861 218.097Z" fill="#465BC7"/>
<path d="M656.5 208.5V231.5H569.5V208.5H656.5Z" stroke="#465BC7"/>
<path d="M582.223 215.718H586.331C587.267 215.718 588.021 215.926 588.567 216.355C589.139 216.823 589.425 217.486 589.425 218.37C589.425 218.864 589.295 219.293 589.035 219.67C588.736 220.086 588.333 220.359 587.826 220.489V220.515C588.657 220.697 589.113 221.243 589.217 222.153L589.373 223.635C589.425 224.207 589.607 224.662 589.919 225H588.385C588.164 224.714 588.034 224.298 587.982 223.778L587.865 222.621C587.812 222.101 587.644 221.737 587.371 221.503C587.085 221.269 586.682 221.165 586.149 221.165H583.64V225H582.223V215.718ZM583.64 216.927V219.956H586.149C586.773 219.956 587.241 219.813 587.553 219.553C587.852 219.293 588.008 218.916 588.008 218.422C588.008 217.902 587.852 217.525 587.566 217.291C587.254 217.044 586.786 216.927 586.136 216.927H583.64ZM593.94 218.097C595.032 218.097 595.877 218.461 596.449 219.215C596.969 219.891 597.242 220.827 597.255 222.023H592.159C592.211 222.673 592.38 223.18 592.692 223.531C593.004 223.869 593.433 224.051 593.979 224.051C594.46 224.051 594.85 223.934 595.149 223.713C595.383 223.531 595.578 223.232 595.76 222.842H597.138C596.982 223.466 596.683 223.999 596.215 224.415C595.63 224.922 594.889 225.182 593.992 225.182C593.004 225.182 592.211 224.87 591.639 224.259C591.015 223.609 590.703 222.738 590.703 221.633C590.703 220.632 590.989 219.8 591.587 219.124C592.159 218.435 592.952 218.097 593.94 218.097ZM593.979 219.228C593.459 219.228 593.056 219.371 592.744 219.683C592.458 219.982 592.263 220.411 592.185 220.983H595.812C595.682 219.813 595.071 219.228 593.979 219.228ZM601.46 218.097C602.448 218.097 603.176 218.344 603.644 218.838C604.047 219.267 604.255 219.891 604.255 220.71V225H602.981V224.051C602.721 224.389 602.396 224.662 602.006 224.857C601.564 225.065 601.044 225.182 600.446 225.182C599.744 225.182 599.198 225 598.808 224.649C598.379 224.298 598.171 223.843 598.171 223.284C598.171 222.53 598.47 221.945 599.068 221.542C599.614 221.152 600.394 220.957 601.382 220.931L602.89 220.892V220.619C602.89 219.683 602.383 219.215 601.369 219.215C600.94 219.215 600.589 219.293 600.329 219.449C600.017 219.631 599.822 219.904 599.744 220.281L598.379 220.164C598.522 219.436 598.886 218.89 599.458 218.552C599.952 218.24 600.628 218.097 601.46 218.097ZM602.89 221.893L601.473 221.932C600.212 221.958 599.588 222.4 599.588 223.232C599.588 223.492 599.692 223.7 599.913 223.869C600.121 224.038 600.407 224.129 600.758 224.129C601.343 224.129 601.837 223.947 602.253 223.596C602.669 223.245 602.89 222.803 602.89 222.283V221.893ZM610.669 215.536H612.047V225H610.76V224.194C610.292 224.844 609.59 225.182 608.68 225.182C607.692 225.182 606.912 224.831 606.353 224.129C605.833 223.479 605.573 222.634 605.573 221.607C605.573 220.619 605.82 219.8 606.34 219.15C606.886 218.448 607.653 218.097 608.615 218.097C609.434 218.097 610.123 218.487 610.669 219.28V215.536ZM608.927 219.215C608.251 219.215 607.744 219.436 607.419 219.904C607.133 220.294 606.99 220.866 606.99 221.607C606.99 222.348 607.12 222.92 607.393 223.336C607.705 223.817 608.212 224.064 608.888 224.064C609.486 224.064 609.941 223.817 610.279 223.349C610.565 222.92 610.708 222.374 610.708 221.698V221.581C610.708 220.853 610.526 220.268 610.188 219.826C609.85 219.41 609.434 219.215 608.927 219.215ZM622.169 215.536C623.573 215.536 624.691 215.991 625.51 216.914C626.29 217.785 626.68 218.942 626.68 220.372C626.68 221.789 626.29 222.933 625.51 223.817C624.691 224.727 623.573 225.182 622.169 225.182C620.752 225.182 619.634 224.714 618.828 223.804C618.048 222.92 617.671 221.776 617.671 220.372C617.671 218.955 618.048 217.811 618.828 216.927C619.634 215.991 620.752 215.536 622.169 215.536ZM622.169 216.784C621.181 216.784 620.414 217.109 619.868 217.785C619.348 218.422 619.088 219.28 619.088 220.372C619.088 221.451 619.348 222.309 619.868 222.946C620.414 223.596 621.181 223.934 622.169 223.934C623.157 223.934 623.924 223.609 624.457 222.972C624.977 222.348 625.25 221.477 625.25 220.372C625.25 219.254 624.977 218.383 624.457 217.746C623.924 217.096 623.157 216.784 622.169 216.784ZM631.392 218.097C633.056 218.097 633.901 219.007 633.901 220.853V225H632.523V220.97C632.523 219.826 631.99 219.254 630.95 219.254C630.56 219.254 630.209 219.384 629.923 219.67C629.611 219.982 629.416 220.411 629.364 220.957V225H627.986V218.279H629.364V219.111C629.624 218.773 629.923 218.526 630.261 218.357C630.599 218.175 630.976 218.097 631.392 218.097ZM635.632 215.536H637.01V225H635.632V215.536ZM638.011 218.279H639.506L641.352 223.18L643.12 218.279H644.628L640.975 227.574H639.506L640.676 224.844L638.011 218.279Z" fill="#465BC7"/>
</svg>
