<svg width="780" height="284" viewBox="0 0 780 284" fill="none" xmlns="http://www.w3.org/2000/svg">
<mask id="path-2-inside-1_8_2157" fill="white">
<path d="M0 2C0 0.895433 0.895431 0 2 0H778C779.105 0 780 0.895431 780 2V236H0V2Z"/>
</mask>
<path d="M0 2C0 0.895433 0.895431 0 2 0H778C779.105 0 780 0.895431 780 2V236H0V2Z" fill="white"/>
<path d="M-1 2C-1 0.343146 0.343146 -1 2 -1H778C779.657 -1 781 0.343146 781 2H779C779 1.44772 778.552 1 778 1H2C1.44772 1 1 1.44772 1 2H-1ZM780 236H0H780ZM-1 236V2C-1 0.343146 0.343146 -1 2 -1V1C1.44772 1 1 1.44772 1 2V236H-1ZM778 -1C779.657 -1 781 0.343146 781 2V236H779V2C779 1.44772 778.552 1 778 1V-1Z" fill="#D9D9D9" mask="url(#path-2-inside-1_8_2157)"/>
<path d="M48.697 40.268C48.697 41.308 48.502 42.179 48.112 42.881C47.7307 43.583 47.1803 44.1117 46.461 44.467C45.7417 44.8223 44.8707 45 43.848 45H41.261V35.718H44.121C45.057 35.718 45.8673 35.8913 46.552 36.238C47.2367 36.5847 47.7653 37.096 48.138 37.772C48.5107 38.4393 48.697 39.2713 48.697 40.268ZM47.462 40.307C47.462 39.4837 47.3233 38.8077 47.046 38.279C46.7773 37.7503 46.3787 37.3603 45.85 37.109C45.33 36.849 44.6973 36.719 43.952 36.719H42.431V43.999H43.692C44.9487 43.999 45.889 43.6913 46.513 43.076C47.1457 42.452 47.462 41.529 47.462 40.307ZM53.2401 37.915C54.0894 37.915 54.7178 38.1013 55.1251 38.474C55.5324 38.8467 55.7361 39.4403 55.7361 40.255V45H54.9041L54.6831 44.012H54.6311C54.4318 44.2633 54.2238 44.4757 54.0071 44.649C53.7991 44.8137 53.5564 44.935 53.2791 45.013C53.0104 45.091 52.6811 45.13 52.2911 45.13C51.8751 45.13 51.4981 45.0563 51.1601 44.909C50.8308 44.7617 50.5708 44.5363 50.3801 44.233C50.1894 43.921 50.0941 43.531 50.0941 43.063C50.0941 42.3697 50.3671 41.8367 50.9131 41.464C51.4591 41.0827 52.2998 40.8747 53.4351 40.84L54.6181 40.801V40.385C54.6181 39.8043 54.4924 39.4013 54.2411 39.176C53.9898 38.9507 53.6344 38.838 53.1751 38.838C52.8111 38.838 52.4644 38.8943 52.1351 39.007C51.8058 39.111 51.4981 39.2323 51.2121 39.371L50.8611 38.513C51.1644 38.3483 51.5241 38.2097 51.9401 38.097C52.3561 37.9757 52.7894 37.915 53.2401 37.915ZM53.5781 41.633C52.7114 41.6677 52.1091 41.8063 51.7711 42.049C51.4418 42.2917 51.2771 42.634 51.2771 43.076C51.2771 43.466 51.3941 43.752 51.6281 43.934C51.8708 44.116 52.1784 44.207 52.5511 44.207C53.1404 44.207 53.6301 44.0467 54.0201 43.726C54.4101 43.3967 54.6051 42.894 54.6051 42.218V41.594L53.5781 41.633ZM60.2152 44.194C60.3885 44.194 60.5662 44.181 60.7482 44.155C60.9302 44.1203 61.0775 44.0857 61.1902 44.051V44.922C61.0689 44.9827 60.8955 45.0303 60.6702 45.065C60.4449 45.1083 60.2282 45.13 60.0202 45.13C59.6562 45.13 59.3182 45.0693 59.0062 44.948C58.7029 44.818 58.4559 44.597 58.2652 44.285C58.0745 43.973 57.9792 43.5353 57.9792 42.972V38.916H56.9912V38.37L57.9922 37.915L58.4472 36.433H59.1232V38.032H61.1382V38.916H59.1232V42.946C59.1232 43.3707 59.2229 43.687 59.4222 43.895C59.6302 44.0943 59.8945 44.194 60.2152 44.194ZM65.2765 37.902C65.8745 37.902 66.3858 38.032 66.8105 38.292C67.2438 38.552 67.5731 38.9203 67.7985 39.397C68.0325 39.865 68.1495 40.4153 68.1495 41.048V41.737H63.3785C63.3958 42.5257 63.5951 43.128 63.9765 43.544C64.3665 43.9513 64.9081 44.155 65.6015 44.155C66.0435 44.155 66.4335 44.116 66.7715 44.038C67.1181 43.9513 67.4735 43.83 67.8375 43.674V44.675C67.4821 44.831 67.1311 44.9437 66.7845 45.013C66.4378 45.091 66.0261 45.13 65.5495 45.13C64.8908 45.13 64.3058 44.9957 63.7945 44.727C63.2918 44.4583 62.8975 44.0597 62.6115 43.531C62.3341 42.9937 62.1955 42.3393 62.1955 41.568C62.1955 40.8053 62.3211 40.151 62.5725 39.605C62.8325 39.059 63.1921 38.6387 63.6515 38.344C64.1195 38.0493 64.6611 37.902 65.2765 37.902ZM65.2635 38.838C64.7175 38.838 64.2841 39.0157 63.9635 39.371C63.6515 39.7177 63.4651 40.203 63.4045 40.827H66.9535C66.9535 40.4283 66.8928 40.0817 66.7715 39.787C66.6501 39.4923 66.4638 39.2627 66.2125 39.098C65.9698 38.9247 65.6535 38.838 65.2635 38.838Z" fill="#161616"/>
<path d="M287.5 20.5V59.5H128.5V20.5H287.5Z" fill="white"/>
<path d="M287.5 20.5V59.5H128.5V20.5H287.5Z" stroke="#D9D9D9"/>
<path d="M144.075 37.245H145.38L147.75 43.365L150.045 37.245H151.365L147.12 47.97H145.815L147.15 44.82L144.075 37.245ZM151.516 37.245H152.821L155.191 43.365L157.486 37.245H158.806L154.561 47.97H153.256L154.591 44.82L151.516 37.245ZM158.958 37.245H160.263L162.633 43.365L164.928 37.245H166.248L162.003 47.97H160.698L162.033 44.82L158.958 37.245ZM166.399 37.245H167.704L170.074 43.365L172.369 37.245H173.689L169.444 47.97H168.139L169.474 44.82L166.399 37.245ZM174.516 40.605H182.091V41.625H174.516V40.605ZM187.168 37.035C188.353 37.035 189.163 37.515 189.598 38.505C189.898 37.995 190.258 37.62 190.678 37.395C191.053 37.155 191.503 37.035 192.043 37.035C192.853 37.035 193.498 37.29 194.008 37.8C194.488 38.325 194.743 39.03 194.743 39.915V45H193.543V40.11C193.543 39.42 193.393 38.91 193.108 38.58C192.808 38.22 192.328 38.055 191.668 38.055C191.158 38.055 190.723 38.235 190.393 38.625C190.033 39.015 189.868 39.51 189.868 40.14V45H188.668V40.11C188.668 38.73 188.068 38.055 186.883 38.055C186.328 38.055 185.878 38.265 185.518 38.715C185.158 39.135 184.978 39.66 184.978 40.275V45H183.778V37.245H184.978V38.28C185.563 37.44 186.298 37.035 187.168 37.035ZM200 37.035C201.185 37.035 201.995 37.515 202.43 38.505C202.73 37.995 203.09 37.62 203.51 37.395C203.885 37.155 204.335 37.035 204.875 37.035C205.685 37.035 206.33 37.29 206.84 37.8C207.32 38.325 207.575 39.03 207.575 39.915V45H206.375V40.11C206.375 39.42 206.225 38.91 205.94 38.58C205.64 38.22 205.16 38.055 204.5 38.055C203.99 38.055 203.555 38.235 203.225 38.625C202.865 39.015 202.7 39.51 202.7 40.14V45H201.5V40.11C201.5 38.73 200.9 38.055 199.715 38.055C199.16 38.055 198.71 38.265 198.35 38.715C197.99 39.135 197.81 39.66 197.81 40.275V45H196.61V37.245H197.81V38.28C198.395 37.44 199.13 37.035 200 37.035ZM209.262 40.605H216.837V41.625H209.262V40.605ZM224.254 34.08H225.454V45H224.329V43.725C223.789 44.715 222.919 45.21 221.749 45.21C220.609 45.21 219.724 44.79 219.094 43.98C218.509 43.23 218.224 42.27 218.224 41.1C218.224 39.96 218.509 39.03 219.094 38.28C219.724 37.44 220.579 37.035 221.689 37.035C222.799 37.035 223.654 37.575 224.254 38.67V34.08ZM221.944 38.025C221.089 38.025 220.444 38.325 220.024 38.925C219.634 39.45 219.454 40.17 219.454 41.1C219.454 42.03 219.634 42.765 220.009 43.305C220.429 43.905 221.059 44.22 221.899 44.22C222.679 44.22 223.279 43.92 223.714 43.32C224.089 42.78 224.284 42.075 224.284 41.205V41.055C224.284 40.155 224.059 39.42 223.639 38.865C223.204 38.295 222.634 38.025 221.944 38.025ZM233.043 34.08H234.243V45H233.118V43.725C232.578 44.715 231.708 45.21 230.538 45.21C229.398 45.21 228.513 44.79 227.883 43.98C227.298 43.23 227.013 42.27 227.013 41.1C227.013 39.96 227.298 39.03 227.883 38.28C228.513 37.44 229.368 37.035 230.478 37.035C231.588 37.035 232.443 37.575 233.043 38.67V34.08ZM230.733 38.025C229.878 38.025 229.233 38.325 228.813 38.925C228.423 39.45 228.243 40.17 228.243 41.1C228.243 42.03 228.423 42.765 228.798 43.305C229.218 43.905 229.848 44.22 230.688 44.22C231.468 44.22 232.068 43.92 232.503 43.32C232.878 42.78 233.073 42.075 233.073 41.205V41.055C233.073 40.155 232.848 39.42 232.428 38.865C231.993 38.295 231.423 38.025 230.733 38.025Z" fill="#8F8F8F"/>
<path d="M262 35H266V33H267.5V35H271V47H257V35H260.5V33H262V35ZM258.312 40.5V45.7139H269.688V40.5H258.312ZM258.312 39H269.688V36.2861H267.5V37.5H266V36.2861H262V37.5H260.5V36.2861H258.312V39Z" fill="#8F8F8F"/>
<path d="M51.921 87.718L49.451 97H48.268L46.461 90.916C46.409 90.734 46.357 90.5477 46.305 90.357C46.253 90.1663 46.2053 89.9843 46.162 89.811C46.1187 89.6377 46.0797 89.4903 46.045 89.369C46.019 89.239 46.0017 89.1437 45.993 89.083C45.9843 89.1437 45.967 89.239 45.941 89.369C45.9237 89.4903 45.8933 89.6377 45.85 89.811C45.8067 89.9843 45.759 90.1707 45.707 90.37C45.6637 90.5607 45.6117 90.7557 45.551 90.955L43.796 97H42.613L40.156 87.718H41.378L42.821 93.386C42.873 93.5853 42.9207 93.7847 42.964 93.984C43.0073 94.1747 43.0463 94.3653 43.081 94.556C43.1243 94.738 43.159 94.9157 43.185 95.089C43.211 95.2623 43.237 95.4313 43.263 95.596C43.289 95.4227 43.315 95.245 43.341 95.063C43.3757 94.881 43.4147 94.6947 43.458 94.504C43.5013 94.3047 43.549 94.1053 43.601 93.906C43.653 93.7067 43.705 93.5117 43.757 93.321L45.395 87.718H46.604L48.307 93.36C48.3677 93.5593 48.424 93.763 48.476 93.971C48.528 94.1703 48.5757 94.3653 48.619 94.556C48.6623 94.7467 48.697 94.933 48.723 95.115C48.7577 95.2883 48.788 95.4487 48.814 95.596C48.84 95.3793 48.8747 95.154 48.918 94.92C48.9613 94.6773 49.0133 94.426 49.074 94.166C49.1347 93.906 49.1997 93.6417 49.269 93.373L50.699 87.718H51.921ZM55.628 89.902C56.226 89.902 56.7374 90.032 57.162 90.292C57.5954 90.552 57.9247 90.9203 58.15 91.397C58.384 91.865 58.501 92.4153 58.501 93.048V93.737H53.73C53.7474 94.5257 53.9467 95.128 54.328 95.544C54.718 95.9513 55.2597 96.155 55.953 96.155C56.395 96.155 56.785 96.116 57.123 96.038C57.4697 95.9513 57.825 95.83 58.189 95.674V96.675C57.8337 96.831 57.4827 96.9437 57.136 97.013C56.7894 97.091 56.3777 97.13 55.901 97.13C55.2424 97.13 54.6574 96.9957 54.146 96.727C53.6434 96.4583 53.249 96.0597 52.963 95.531C52.6857 94.9937 52.547 94.3393 52.547 93.568C52.547 92.8053 52.6727 92.151 52.924 91.605C53.184 91.059 53.5437 90.6387 54.003 90.344C54.471 90.0493 55.0127 89.902 55.628 89.902ZM55.615 90.838C55.069 90.838 54.6357 91.0157 54.315 91.371C54.003 91.7177 53.8167 92.203 53.756 92.827H57.305C57.305 92.4283 57.2444 92.0817 57.123 91.787C57.0017 91.4923 56.8154 91.2627 56.564 91.098C56.3214 90.9247 56.005 90.838 55.615 90.838ZM62.9659 89.902C63.5639 89.902 64.0753 90.032 64.4999 90.292C64.9333 90.552 65.2626 90.9203 65.4879 91.397C65.7219 91.865 65.8389 92.4153 65.8389 93.048V93.737H61.0679C61.0853 94.5257 61.2846 95.128 61.6659 95.544C62.0559 95.9513 62.5976 96.155 63.2909 96.155C63.7329 96.155 64.1229 96.116 64.4609 96.038C64.8076 95.9513 65.1629 95.83 65.5269 95.674V96.675C65.1716 96.831 64.8206 96.9437 64.4739 97.013C64.1273 97.091 63.7156 97.13 63.2389 97.13C62.5803 97.13 61.9953 96.9957 61.4839 96.727C60.9813 96.4583 60.5869 96.0597 60.3009 95.531C60.0236 94.9937 59.8849 94.3393 59.8849 93.568C59.8849 92.8053 60.0106 92.151 60.2619 91.605C60.5219 91.059 60.8816 90.6387 61.3409 90.344C61.8089 90.0493 62.3506 89.902 62.9659 89.902ZM62.9529 90.838C62.4069 90.838 61.9736 91.0157 61.6529 91.371C61.3409 91.7177 61.1546 92.203 61.0939 92.827H64.6429C64.6429 92.4283 64.5823 92.0817 64.4609 91.787C64.3396 91.4923 64.1533 91.2627 63.9019 91.098C63.6593 90.9247 63.3429 90.838 62.9529 90.838ZM68.7438 92.281C68.7438 92.4197 68.7351 92.6017 68.7178 92.827C68.7091 93.0523 68.7005 93.2473 68.6918 93.412H68.7438C68.7958 93.3427 68.8738 93.243 68.9778 93.113C69.0818 92.983 69.1858 92.853 69.2898 92.723C69.4025 92.5843 69.4978 92.4717 69.5758 92.385L71.7988 90.032H73.1378L70.3168 93.009L73.3328 97H71.9548L69.5368 93.75L68.7438 94.439V97H67.6128V87.12H68.7438V92.281Z" fill="#161616"/>
<path d="M287.5 72.5V111.5H128.5V72.5H287.5Z" fill="white"/>
<path d="M287.5 72.5V111.5H128.5V72.5H287.5Z" stroke="#D9D9D9"/>
<path d="M144.075 89.245H145.38L147.75 95.365L150.045 89.245H151.365L147.12 99.97H145.815L147.15 96.82L144.075 89.245ZM151.516 89.245H152.821L155.191 95.365L157.486 89.245H158.806L154.561 99.97H153.256L154.591 96.82L151.516 89.245ZM158.958 89.245H160.263L162.633 95.365L164.928 89.245H166.248L162.003 99.97H160.698L162.033 96.82L158.958 89.245ZM166.399 89.245H167.704L170.074 95.365L172.369 89.245H173.689L169.444 99.97H168.139L169.474 96.82L166.399 89.245ZM174.516 92.605H182.091V93.625H174.516V92.605ZM187.168 89.035C188.353 89.035 189.163 89.515 189.598 90.505C189.898 89.995 190.258 89.62 190.678 89.395C191.053 89.155 191.503 89.035 192.043 89.035C192.853 89.035 193.498 89.29 194.008 89.8C194.488 90.325 194.743 91.03 194.743 91.915V97H193.543V92.11C193.543 91.42 193.393 90.91 193.108 90.58C192.808 90.22 192.328 90.055 191.668 90.055C191.158 90.055 190.723 90.235 190.393 90.625C190.033 91.015 189.868 91.51 189.868 92.14V97H188.668V92.11C188.668 90.73 188.068 90.055 186.883 90.055C186.328 90.055 185.878 90.265 185.518 90.715C185.158 91.135 184.978 91.66 184.978 92.275V97H183.778V89.245H184.978V90.28C185.563 89.44 186.298 89.035 187.168 89.035ZM198.68 86.74V89.245H200.6V90.25H198.68V95.185C198.68 95.47 198.725 95.68 198.845 95.8C198.95 95.92 199.145 95.995 199.415 95.995H200.405V97H199.235C198.605 97 198.14 96.835 197.87 96.505C197.615 96.205 197.495 95.77 197.495 95.185V90.25H195.935V89.245H197.495V87.235L198.68 86.74ZM201.942 86.08H203.142V90.52C203.412 90.025 203.772 89.65 204.222 89.395C204.642 89.155 205.107 89.035 205.632 89.035C206.532 89.035 207.237 89.29 207.717 89.83C208.197 90.355 208.437 91.12 208.437 92.11V97H207.237V92.29C207.237 91.57 207.057 91.015 206.727 90.625C206.367 90.235 205.872 90.04 205.227 90.04C204.627 90.04 204.132 90.28 203.742 90.76C203.337 91.24 203.142 91.855 203.142 92.575V97H201.942V86.08Z" fill="#8F8F8F"/>
<path d="M262 87H266V85H267.5V87H271V99H257V87H260.5V85H262V87ZM258.312 92.5V97.7139H269.688V92.5H258.312ZM258.312 91H269.688V88.2861H267.5V89.5H266V88.2861H262V89.5H260.5V88.2861H258.312V91Z" fill="#8F8F8F"/>
<path d="M45.356 149L42.301 140.862H42.249C42.2663 141.035 42.2793 141.256 42.288 141.525C42.3053 141.794 42.3183 142.088 42.327 142.409C42.3357 142.721 42.34 143.042 42.34 143.371V149H41.261V139.718H42.99L45.85 147.323H45.902L48.814 139.718H50.53V149H49.373V143.293C49.373 142.99 49.3773 142.691 49.386 142.396C49.3947 142.093 49.4077 141.811 49.425 141.551C49.4423 141.282 49.4553 141.057 49.464 140.875H49.412L46.318 149H45.356ZM58.9569 145.503C58.9569 146.084 58.8789 146.599 58.7229 147.05C58.5756 147.492 58.3589 147.869 58.0729 148.181C57.7956 148.493 57.4533 148.731 57.0459 148.896C56.6473 149.052 56.2009 149.13 55.7069 149.13C55.2476 149.13 54.8229 149.052 54.4329 148.896C54.0429 148.731 53.7049 148.493 53.4189 148.181C53.1329 147.869 52.9076 147.492 52.7429 147.05C52.5869 146.599 52.5089 146.084 52.5089 145.503C52.5089 144.732 52.6389 144.082 52.8989 143.553C53.1589 143.016 53.5316 142.608 54.0169 142.331C54.5023 142.045 55.0786 141.902 55.7459 141.902C56.3786 141.902 56.9333 142.045 57.4099 142.331C57.8953 142.608 58.2723 143.016 58.5409 143.553C58.8183 144.082 58.9569 144.732 58.9569 145.503ZM53.6919 145.503C53.6919 146.049 53.7613 146.526 53.8999 146.933C54.0473 147.332 54.2726 147.639 54.5759 147.856C54.8793 148.073 55.2649 148.181 55.7329 148.181C56.2009 148.181 56.5866 148.073 56.8899 147.856C57.1933 147.639 57.4143 147.332 57.5529 146.933C57.7003 146.526 57.7739 146.049 57.7739 145.503C57.7739 144.948 57.7003 144.476 57.5529 144.086C57.4056 143.696 57.1803 143.397 56.8769 143.189C56.5823 142.972 56.1966 142.864 55.7199 142.864C55.0093 142.864 54.4936 143.098 54.1729 143.566C53.8523 144.034 53.6919 144.68 53.6919 145.503ZM64.124 141.902C64.956 141.902 65.5844 142.106 66.009 142.513C66.4337 142.912 66.646 143.562 66.646 144.463V149H65.515V144.541C65.515 143.978 65.3894 143.557 65.138 143.28C64.8867 143.003 64.4924 142.864 63.955 142.864C63.1837 142.864 62.6507 143.081 62.356 143.514C62.0614 143.947 61.914 144.571 61.914 145.386V149H60.77V142.032H61.693L61.862 142.981H61.927C62.083 142.738 62.2737 142.539 62.499 142.383C62.733 142.218 62.9887 142.097 63.266 142.019C63.5434 141.941 63.8294 141.902 64.124 141.902ZM71.1332 148.194C71.3065 148.194 71.4842 148.181 71.6662 148.155C71.8482 148.12 71.9955 148.086 72.1082 148.051V148.922C71.9868 148.983 71.8135 149.03 71.5882 149.065C71.3628 149.108 71.1462 149.13 70.9382 149.13C70.5742 149.13 70.2362 149.069 69.9242 148.948C69.6208 148.818 69.3738 148.597 69.1832 148.285C68.9925 147.973 68.8972 147.535 68.8972 146.972V142.916H67.9092V142.37L68.9102 141.915L69.3652 140.433H70.0412V142.032H72.0562V142.916H70.0412V146.946C70.0412 147.371 70.1408 147.687 70.3402 147.895C70.5482 148.094 70.8125 148.194 71.1332 148.194ZM74.6474 142.019C74.6474 142.184 74.6388 142.353 74.6214 142.526C74.6128 142.699 74.5998 142.855 74.5824 142.994H74.6604C74.8078 142.751 74.9941 142.552 75.2194 142.396C75.4448 142.24 75.6961 142.123 75.9734 142.045C76.2508 141.958 76.5368 141.915 76.8314 141.915C77.3948 141.915 77.8628 142.006 78.2354 142.188C78.6168 142.361 78.9028 142.634 79.0934 143.007C79.2841 143.38 79.3794 143.865 79.3794 144.463V149H78.2484V144.541C78.2484 143.978 78.1228 143.557 77.8714 143.28C77.6201 143.003 77.2258 142.864 76.6884 142.864C76.1684 142.864 75.7611 142.964 75.4664 143.163C75.1718 143.354 74.9594 143.64 74.8294 144.021C74.7081 144.394 74.6474 144.853 74.6474 145.399V149H73.5034V139.12H74.6474V142.019Z" fill="#161616"/>
<path d="M287.5 124.5V163.5H128.5V124.5H287.5Z" fill="white"/>
<path d="M287.5 124.5V163.5H128.5V124.5H287.5Z" stroke="#D9D9D9"/>
<path d="M144.075 141.245H145.38L147.75 147.365L150.045 141.245H151.365L147.12 151.97H145.815L147.15 148.82L144.075 141.245ZM151.516 141.245H152.821L155.191 147.365L157.486 141.245H158.806L154.561 151.97H153.256L154.591 148.82L151.516 141.245ZM158.958 141.245H160.263L162.633 147.365L164.928 141.245H166.248L162.003 151.97H160.698L162.033 148.82L158.958 141.245ZM166.399 141.245H167.704L170.074 147.365L172.369 141.245H173.689L169.444 151.97H168.139L169.474 148.82L166.399 141.245ZM174.516 144.605H182.091V145.625H174.516V144.605ZM187.168 141.035C188.353 141.035 189.163 141.515 189.598 142.505C189.898 141.995 190.258 141.62 190.678 141.395C191.053 141.155 191.503 141.035 192.043 141.035C192.853 141.035 193.498 141.29 194.008 141.8C194.488 142.325 194.743 143.03 194.743 143.915V149H193.543V144.11C193.543 143.42 193.393 142.91 193.108 142.58C192.808 142.22 192.328 142.055 191.668 142.055C191.158 142.055 190.723 142.235 190.393 142.625C190.033 143.015 189.868 143.51 189.868 144.14V149H188.668V144.11C188.668 142.73 188.068 142.055 186.883 142.055C186.328 142.055 185.878 142.265 185.518 142.715C185.158 143.135 184.978 143.66 184.978 144.275V149H183.778V141.245H184.978V142.28C185.563 141.44 186.298 141.035 187.168 141.035ZM200 141.035C201.185 141.035 201.995 141.515 202.43 142.505C202.73 141.995 203.09 141.62 203.51 141.395C203.885 141.155 204.335 141.035 204.875 141.035C205.685 141.035 206.33 141.29 206.84 141.8C207.32 142.325 207.575 143.03 207.575 143.915V149H206.375V144.11C206.375 143.42 206.225 142.91 205.94 142.58C205.64 142.22 205.16 142.055 204.5 142.055C203.99 142.055 203.555 142.235 203.225 142.625C202.865 143.015 202.7 143.51 202.7 144.14V149H201.5V144.11C201.5 142.73 200.9 142.055 199.715 142.055C199.16 142.055 198.71 142.265 198.35 142.715C197.99 143.135 197.81 143.66 197.81 144.275V149H196.61V141.245H197.81V142.28C198.395 141.44 199.13 141.035 200 141.035Z" fill="#8F8F8F"/>
<path d="M262 139H266V137H267.5V139H271V151H257V139H260.5V137H262V139ZM258.312 144.5V149.714H269.688V144.5H258.312ZM258.312 143H269.688V140.286H267.5V141.5H266V140.286H262V141.5H260.5V140.286H258.312V143Z" fill="#8F8F8F"/>
<path d="M43.679 196.281L46.097 191.718H47.358L44.264 197.399V201H43.094V197.451L40 191.718H41.274L43.679 196.281ZM50.5118 193.902C51.1098 193.902 51.6212 194.032 52.0458 194.292C52.4792 194.552 52.8085 194.92 53.0338 195.397C53.2678 195.865 53.3848 196.415 53.3848 197.048V197.737H48.6138C48.6312 198.526 48.8305 199.128 49.2118 199.544C49.6018 199.951 50.1435 200.155 50.8368 200.155C51.2788 200.155 51.6688 200.116 52.0068 200.038C52.3535 199.951 52.7088 199.83 53.0728 199.674V200.675C52.7175 200.831 52.3665 200.944 52.0198 201.013C51.6732 201.091 51.2615 201.13 50.7848 201.13C50.1262 201.13 49.5412 200.996 49.0298 200.727C48.5272 200.458 48.1328 200.06 47.8468 199.531C47.5695 198.994 47.4308 198.339 47.4308 197.568C47.4308 196.805 47.5565 196.151 47.8078 195.605C48.0678 195.059 48.4275 194.639 48.8868 194.344C49.3548 194.049 49.8965 193.902 50.5118 193.902ZM50.4988 194.838C49.9528 194.838 49.5195 195.016 49.1988 195.371C48.8868 195.718 48.7005 196.203 48.6398 196.827H52.1888C52.1888 196.428 52.1282 196.082 52.0068 195.787C51.8855 195.492 51.6992 195.263 51.4478 195.098C51.2052 194.925 50.8888 194.838 50.4988 194.838ZM57.7977 193.915C58.647 193.915 59.2754 194.101 59.6827 194.474C60.09 194.847 60.2937 195.44 60.2937 196.255V201H59.4617L59.2407 200.012H59.1887C58.9894 200.263 58.7814 200.476 58.5647 200.649C58.3567 200.814 58.114 200.935 57.8367 201.013C57.568 201.091 57.2387 201.13 56.8487 201.13C56.4327 201.13 56.0557 201.056 55.7177 200.909C55.3884 200.762 55.1284 200.536 54.9377 200.233C54.747 199.921 54.6517 199.531 54.6517 199.063C54.6517 198.37 54.9247 197.837 55.4707 197.464C56.0167 197.083 56.8574 196.875 57.9927 196.84L59.1757 196.801V196.385C59.1757 195.804 59.05 195.401 58.7987 195.176C58.5474 194.951 58.192 194.838 57.7327 194.838C57.3687 194.838 57.022 194.894 56.6927 195.007C56.3634 195.111 56.0557 195.232 55.7697 195.371L55.4187 194.513C55.722 194.348 56.0817 194.21 56.4977 194.097C56.9137 193.976 57.347 193.915 57.7977 193.915ZM58.1357 197.633C57.269 197.668 56.6667 197.806 56.3287 198.049C55.9994 198.292 55.8347 198.634 55.8347 199.076C55.8347 199.466 55.9517 199.752 56.1857 199.934C56.4284 200.116 56.736 200.207 57.1087 200.207C57.698 200.207 58.1877 200.047 58.5777 199.726C58.9677 199.397 59.1627 198.894 59.1627 198.218V197.594L58.1357 197.633ZM65.6958 193.902C65.8258 193.902 65.9645 193.911 66.1118 193.928C66.2678 193.937 66.4022 193.954 66.5148 193.98L66.3718 195.033C66.2592 195.007 66.1335 194.985 65.9948 194.968C65.8648 194.951 65.7392 194.942 65.6178 194.942C65.3492 194.942 65.0935 194.998 64.8508 195.111C64.6082 195.224 64.3915 195.384 64.2008 195.592C64.0102 195.791 63.8585 196.034 63.7458 196.32C63.6418 196.606 63.5898 196.927 63.5898 197.282V201H62.4458V194.032H63.3818L63.5118 195.306H63.5638C63.7112 195.046 63.8888 194.812 64.0968 194.604C64.3048 194.387 64.5432 194.218 64.8118 194.097C65.0805 193.967 65.3752 193.902 65.6958 193.902Z" fill="#161616"/>
<path d="M287.5 176.5V215.5H128.5V176.5H287.5Z" fill="white"/>
<path d="M287.5 176.5V215.5H128.5V176.5H287.5Z" stroke="#D9D9D9"/>
<path d="M144.075 193.245H145.38L147.75 199.365L150.045 193.245H151.365L147.12 203.97H145.815L147.15 200.82L144.075 193.245ZM151.516 193.245H152.821L155.191 199.365L157.486 193.245H158.806L154.561 203.97H153.256L154.591 200.82L151.516 193.245ZM158.958 193.245H160.263L162.633 199.365L164.928 193.245H166.248L162.003 203.97H160.698L162.033 200.82L158.958 193.245ZM166.399 193.245H167.704L170.074 199.365L172.369 193.245H173.689L169.444 203.97H168.139L169.474 200.82L166.399 193.245Z" fill="#8F8F8F"/>
<path d="M262 191H266V189H267.5V191H271V203H257V191H260.5V189H262V191ZM258.312 196.5V201.714H269.688V196.5H258.312ZM258.312 195H269.688V192.286H267.5V193.5H266V192.286H262V193.5H260.5V192.286H258.312V195Z" fill="#8F8F8F"/>
<mask id="path-20-inside-2_8_2157" fill="white">
<path d="M0 236H780V282C780 283.105 779.105 284 778 284H1.99998C0.895407 284 0 283.105 0 282V236Z"/>
</mask>
<path d="M0 236H780V282C780 283.105 779.105 284 778 284H1.99998C0.895407 284 0 283.105 0 282V236Z" fill="#E7E7E7"/>
<path d="M0 236H780H0ZM781 282C781 283.657 779.657 285 778 285H2C0.343146 285 -1 283.657 -1 282H1C1 282.552 1.44772 283 2 283H778C778.552 283 779 282.552 779 282H781ZM2 285C0.343146 285 -1 283.657 -1 282V236H1V282C1 282.552 1.44772 283 2 283V285ZM781 236V282C781 283.657 779.657 285 778 285V283C778.552 283 779 282.552 779 282V236H781Z" fill="#D9D9D9" mask="url(#path-20-inside-2_8_2157)"/>
<path fill-rule="evenodd" clip-rule="evenodd" d="M36.0005 264L29 256.98L29.9762 256H29.9781L36.0005 262.041L42.0238 256H42.0258L43 256.979V256.981L36.0005 264Z" fill="#4457CA"/>
<path d="M59.575 263.105C59.575 263.745 59.42 264.29 59.11 264.74C58.8 265.19 58.355 265.54 57.775 265.79C57.195 266.03 56.505 266.15 55.705 266.15C55.315 266.15 54.94 266.125 54.58 266.075C54.22 266.035 53.885 265.975 53.575 265.895C53.265 265.815 52.99 265.715 52.75 265.595V264.065C53.15 264.245 53.62 264.41 54.16 264.56C54.7 264.7 55.25 264.77 55.81 264.77C56.29 264.77 56.69 264.705 57.01 264.575C57.33 264.445 57.57 264.265 57.73 264.035C57.89 263.805 57.97 263.535 57.97 263.225C57.97 262.895 57.885 262.62 57.715 262.4C57.555 262.17 57.3 261.96 56.95 261.77C56.61 261.57 56.15 261.36 55.57 261.14C55.17 260.99 54.805 260.825 54.475 260.645C54.155 260.455 53.87 260.235 53.62 259.985C53.38 259.735 53.195 259.445 53.065 259.115C52.935 258.785 52.87 258.4 52.87 257.96C52.87 257.37 53.015 256.865 53.305 256.445C53.605 256.025 54.015 255.705 54.535 255.485C55.055 255.255 55.66 255.14 56.35 255.14C56.93 255.14 57.465 255.2 57.955 255.32C58.455 255.43 58.93 255.585 59.38 255.785L58.87 257.12C58.46 256.95 58.045 256.81 57.625 256.7C57.205 256.59 56.765 256.535 56.305 256.535C55.905 256.535 55.57 256.595 55.3 256.715C55.03 256.835 54.825 257 54.685 257.21C54.555 257.42 54.49 257.665 54.49 257.945C54.49 258.275 54.565 258.55 54.715 258.77C54.865 258.99 55.105 259.195 55.435 259.385C55.765 259.565 56.2 259.765 56.74 259.985C57.34 260.215 57.85 260.465 58.27 260.735C58.7 261.005 59.025 261.33 59.245 261.71C59.465 262.08 59.575 262.545 59.575 263.105ZM63.0821 257.645C63.0821 257.895 63.0721 258.145 63.0521 258.395C63.0321 258.645 63.0121 258.85 62.9921 259.01H63.0971C63.2671 258.73 63.4771 258.5 63.7271 258.32C63.9871 258.14 64.2721 258.005 64.5821 257.915C64.9021 257.825 65.2271 257.78 65.5571 257.78C66.1971 257.78 66.7321 257.885 67.1621 258.095C67.6021 258.295 67.9321 258.615 68.1521 259.055C68.3821 259.485 68.4971 260.045 68.4971 260.735V266H66.9221V260.96C66.9221 260.33 66.7871 259.86 66.5171 259.55C66.2571 259.23 65.8371 259.07 65.2571 259.07C64.7071 259.07 64.2721 259.18 63.9521 259.4C63.6421 259.62 63.4171 259.945 63.2771 260.375C63.1471 260.795 63.0821 261.315 63.0821 261.935V266H61.4921V254.6H63.0821V257.645ZM78.0653 261.95C78.0653 262.62 77.9753 263.215 77.7953 263.735C77.6153 264.255 77.3603 264.695 77.0303 265.055C76.7003 265.415 76.3003 265.69 75.8303 265.88C75.3603 266.06 74.8303 266.15 74.2403 266.15C73.7003 266.15 73.2003 266.06 72.7403 265.88C72.2803 265.69 71.8803 265.415 71.5403 265.055C71.2103 264.695 70.9503 264.255 70.7603 263.735C70.5703 263.215 70.4753 262.615 70.4753 261.935C70.4753 261.045 70.6253 260.29 70.9253 259.67C71.2353 259.05 71.6753 258.58 72.2453 258.26C72.8253 257.93 73.5053 257.765 74.2853 257.765C75.0253 257.765 75.6753 257.93 76.2353 258.26C76.8053 258.58 77.2503 259.05 77.5703 259.67C77.9003 260.29 78.0653 261.05 78.0653 261.95ZM72.1103 261.95C72.1103 262.55 72.1853 263.07 72.3353 263.51C72.4853 263.94 72.7203 264.27 73.0403 264.5C73.3603 264.73 73.7703 264.845 74.2703 264.845C74.7703 264.845 75.1803 264.73 75.5003 264.5C75.8203 264.27 76.0553 263.94 76.2053 263.51C76.3553 263.07 76.4303 262.55 76.4303 261.95C76.4303 261.33 76.3503 260.81 76.1903 260.39C76.0403 259.97 75.8053 259.65 75.4853 259.43C75.1753 259.2 74.7653 259.085 74.2553 259.085C73.5053 259.085 72.9603 259.335 72.6203 259.835C72.2803 260.335 72.1103 261.04 72.1103 261.95ZM85.248 261.95C85.198 261.75 85.138 261.53 85.068 261.29C85.008 261.05 84.948 260.81 84.888 260.57C84.828 260.32 84.773 260.09 84.723 259.88C84.673 259.67 84.633 259.505 84.603 259.385H84.543C84.523 259.505 84.488 259.67 84.438 259.88C84.398 260.09 84.348 260.32 84.288 260.57C84.228 260.81 84.168 261.055 84.108 261.305C84.048 261.545 83.983 261.765 83.913 261.965L82.713 265.985H80.943L78.708 257.9H80.328L81.378 261.995C81.458 262.275 81.528 262.57 81.588 262.88C81.658 263.19 81.718 263.49 81.768 263.78C81.828 264.06 81.868 264.295 81.888 264.485H81.948C81.968 264.355 81.998 264.195 82.038 264.005C82.078 263.805 82.118 263.6 82.158 263.39C82.208 263.17 82.253 262.96 82.293 262.76C82.343 262.56 82.393 262.395 82.443 262.265L83.733 257.9H85.473L86.733 262.265C86.793 262.465 86.858 262.705 86.928 262.985C86.998 263.255 87.058 263.525 87.108 263.795C87.168 264.055 87.208 264.28 87.228 264.47H87.288C87.308 264.3 87.343 264.08 87.393 263.81C87.443 263.53 87.503 263.23 87.573 262.91C87.653 262.59 87.728 262.285 87.798 261.995L88.878 257.9H90.483L88.218 265.985H86.403L85.248 261.95ZM100.539 256.535C100.009 256.535 99.5341 256.63 99.1141 256.82C98.6941 257 98.3341 257.27 98.0341 257.63C97.7441 257.99 97.5191 258.425 97.3591 258.935C97.2091 259.445 97.1341 260.02 97.1341 260.66C97.1341 261.5 97.2591 262.23 97.5091 262.85C97.7591 263.46 98.1341 263.93 98.6341 264.26C99.1341 264.59 99.7641 264.755 100.524 264.755C100.984 264.755 101.424 264.715 101.844 264.635C102.274 264.545 102.709 264.43 103.149 264.29V265.685C102.729 265.845 102.299 265.96 101.859 266.03C101.419 266.11 100.909 266.15 100.329 266.15C99.2391 266.15 98.3291 265.925 97.5991 265.475C96.8791 265.025 96.3391 264.385 95.9791 263.555C95.6191 262.725 95.4391 261.755 95.4391 260.645C95.4391 259.835 95.5491 259.095 95.7691 258.425C95.9991 257.745 96.3291 257.16 96.7591 256.67C97.1891 256.18 97.7191 255.805 98.3491 255.545C98.9891 255.275 99.7241 255.14 100.554 255.14C101.094 255.14 101.624 255.2 102.144 255.32C102.664 255.43 103.134 255.59 103.554 255.8L102.954 257.15C102.604 256.99 102.224 256.85 101.814 256.73C101.414 256.6 100.989 256.535 100.539 256.535ZM112.401 261.95C112.401 262.62 112.311 263.215 112.131 263.735C111.951 264.255 111.696 264.695 111.366 265.055C111.036 265.415 110.636 265.69 110.166 265.88C109.696 266.06 109.166 266.15 108.576 266.15C108.036 266.15 107.536 266.06 107.076 265.88C106.616 265.69 106.216 265.415 105.876 265.055C105.546 264.695 105.286 264.255 105.096 263.735C104.906 263.215 104.811 262.615 104.811 261.935C104.811 261.045 104.961 260.29 105.261 259.67C105.571 259.05 106.011 258.58 106.581 258.26C107.161 257.93 107.841 257.765 108.621 257.765C109.361 257.765 110.011 257.93 110.571 258.26C111.141 258.58 111.586 259.05 111.906 259.67C112.236 260.29 112.401 261.05 112.401 261.95ZM106.446 261.95C106.446 262.55 106.521 263.07 106.671 263.51C106.821 263.94 107.056 264.27 107.376 264.5C107.696 264.73 108.106 264.845 108.606 264.845C109.106 264.845 109.516 264.73 109.836 264.5C110.156 264.27 110.391 263.94 110.541 263.51C110.691 263.07 110.766 262.55 110.766 261.95C110.766 261.33 110.686 260.81 110.526 260.39C110.376 259.97 110.141 259.65 109.821 259.43C109.511 259.2 109.101 259.085 108.591 259.085C107.841 259.085 107.296 259.335 106.956 259.835C106.616 260.335 106.446 261.04 106.446 261.95ZM117.192 266.15C116.222 266.15 115.437 265.8 114.837 265.1C114.247 264.4 113.952 263.36 113.952 261.98C113.952 260.59 114.252 259.54 114.852 258.83C115.452 258.12 116.242 257.765 117.222 257.765C117.632 257.765 117.987 257.82 118.287 257.93C118.597 258.03 118.862 258.17 119.082 258.35C119.312 258.53 119.507 258.73 119.667 258.95H119.757C119.737 258.81 119.712 258.61 119.682 258.35C119.652 258.08 119.637 257.84 119.637 257.63V254.6H121.227V266H119.982L119.712 264.92H119.637C119.487 265.15 119.297 265.36 119.067 265.55C118.847 265.73 118.582 265.875 118.272 265.985C117.962 266.095 117.602 266.15 117.192 266.15ZM117.567 264.845C118.347 264.845 118.897 264.63 119.217 264.2C119.537 263.76 119.697 263.105 119.697 262.235V261.995C119.697 261.045 119.542 260.32 119.232 259.82C118.932 259.32 118.372 259.07 117.552 259.07C116.902 259.07 116.412 259.335 116.082 259.865C115.752 260.385 115.587 261.1 115.587 262.01C115.587 262.92 115.752 263.62 116.082 264.11C116.412 264.6 116.907 264.845 117.567 264.845ZM126.899 257.765C127.609 257.765 128.219 257.915 128.729 258.215C129.239 258.505 129.629 258.925 129.899 259.475C130.179 260.025 130.319 260.675 130.319 261.425V262.295H124.889C124.909 263.125 125.124 263.76 125.534 264.2C125.954 264.64 126.539 264.86 127.289 264.86C127.809 264.86 128.269 264.815 128.669 264.725C129.079 264.625 129.499 264.48 129.929 264.29V265.61C129.529 265.79 129.119 265.925 128.699 266.015C128.289 266.105 127.799 266.15 127.229 266.15C126.449 266.15 125.759 265.995 125.159 265.685C124.559 265.375 124.089 264.915 123.749 264.305C123.419 263.685 123.254 262.925 123.254 262.025C123.254 261.115 123.404 260.345 123.704 259.715C124.014 259.085 124.439 258.605 124.979 258.275C125.529 257.935 126.169 257.765 126.899 257.765ZM126.899 258.995C126.329 258.995 125.869 259.18 125.519 259.55C125.179 259.92 124.979 260.445 124.919 261.125H128.729C128.729 260.705 128.664 260.335 128.534 260.015C128.404 259.695 128.204 259.445 127.934 259.265C127.664 259.085 127.319 258.995 126.899 258.995Z" fill="#465BC7"/>
<path fill-rule="evenodd" clip-rule="evenodd" d="M700.2 260C700.2 255.546 703.97 252 708.539 252C709.459 252 710.343 252.151 711.168 252.413L711.295 253.816C709.717 254.659 708.675 256.254 708.675 258.056C708.675 260.704 710.934 262.917 713.804 262.917C714.204 262.917 714.599 262.869 714.98 262.783L715.8 263.917C714.368 266.362 711.644 268 708.535 268C703.97 268 700.2 264.454 700.2 260ZM708.539 253.528C704.734 253.528 701.72 256.463 701.72 260C701.72 263.537 704.735 266.472 708.535 266.472C710.496 266.472 712.254 265.686 713.491 264.438C709.997 264.282 707.155 261.518 707.155 258.056C707.155 256.29 707.901 254.701 709.093 253.55C708.91 253.536 708.725 253.528 708.539 253.528Z" fill="#4457CA"/>
<path d="M756 264.418H753.851V268H740V254.149H743.582V252H756V264.418ZM741.433 255.582V266.567H752.418V264.418H743.582V255.582H741.433ZM745.082 262.918H754.5V253.5H745.082V262.918Z" fill="#4457CA"/>
</svg>
