<svg width="780" height="128" viewBox="0 0 780 128" fill="none" xmlns="http://www.w3.org/2000/svg">
<mask id="path-2-inside-1_138_3312" fill="white">
<path d="M0 2C0 0.895429 0.895431 0 2 0H778C779.105 0 780 0.895431 780 2V80H0V2Z"/>
</mask>
<path d="M0 2C0 0.895429 0.895431 0 2 0H778C779.105 0 780 0.895431 780 2V80H0V2Z" fill="white"/>
<path d="M-1 2C-1 0.343146 0.343146 -1 2 -1H778C779.657 -1 781 0.343146 781 2H779C779 1.44772 778.552 1 778 1H2C1.44772 1 1 1.44772 1 2H-1ZM780 80H0H780ZM-1 80V2C-1 0.343146 0.343146 -1 2 -1V1C1.44772 1 1 1.44772 1 2V80H-1ZM778 -1C779.657 -1 781 0.343146 781 2V80H779V2C779 1.44772 778.552 1 778 1V-1Z" fill="#D9D9D9" mask="url(#path-2-inside-1_138_3312)"/>
<path d="M155.5 20.5V59.5H40.5V20.5H155.5Z" stroke="#465BC7"/>
<path d="M63.305 35.475H65.435C65.555 35.145 65.66 34.815 65.75 34.47H62.75V33.21H70.235V34.47H67.16C67.07 34.815 66.965 35.145 66.845 35.475H69.695V43.665H67.97C68.975 44.28 69.83 44.91 70.52 45.54L69.605 46.44C69.005 45.825 68.18 45.165 67.1 44.46L67.925 43.665H65.105L66.005 44.445C65.225 45.24 64.25 45.93 63.095 46.53L62.3 45.525C63.41 44.985 64.325 44.37 65.075 43.665H63.305V35.475ZM68.36 42.51V41.235H64.64V42.51H68.36ZM64.64 40.125H68.36V38.91H64.64V40.125ZM64.64 37.8H68.36V36.63H64.64V37.8ZM58.175 35.16C58.565 35.55 58.925 35.91 59.255 36.255C59.735 35.715 60.185 35.13 60.59 34.47H57.035V33.21H62.045V34.29C61.415 35.4 60.755 36.345 60.035 37.125C60.26 37.395 60.455 37.635 60.62 37.845H62.63V38.715C62.405 39.885 62.135 40.8 61.835 41.46L60.71 41.025C60.935 40.5 61.145 39.885 61.325 39.165H60.02V45.105C60.02 46.005 59.585 46.47 58.745 46.47H57.29L57.005 45.18C57.455 45.24 57.875 45.27 58.28 45.27C58.52 45.27 58.655 45.105 58.655 44.775V39.165H56.54V37.845H59.09C58.55 37.215 57.89 36.54 57.125 35.82L58.175 35.16ZM76.895 41.085V45.405C78.29 44.94 79.475 44.34 80.45 43.62C79.565 42.63 78.965 41.55 78.65 40.38H77.795V39H84.38V40.305C84.005 41.61 83.375 42.75 82.49 43.71C83.33 44.34 84.35 44.91 85.565 45.405L84.8 46.635C83.495 46.035 82.4 45.375 81.5 44.625C80.45 45.45 79.145 46.11 77.615 46.62L76.895 45.51V45.645H73.46V46.32H72.125V41.085H76.895ZM80 40.38C80.285 41.25 80.765 42.03 81.425 42.75C82.1 42.03 82.625 41.25 82.985 40.38H80ZM73.46 44.385H75.59V42.315H73.46V44.385ZM71.69 34.515H74.015C73.805 34.005 73.55 33.51 73.265 33.03L74.615 32.655C74.945 33.33 75.2 33.945 75.395 34.515H77.375V35.805H71.69V34.515ZM72.245 36.75H76.775V37.98H72.245V36.75ZM72.26 38.82H76.775V40.065H72.26V38.82ZM78.77 33.195H83.585V36.345C83.585 36.675 83.78 36.855 84.185 36.855H85.13V38.16H83.795C82.7 38.16 82.16 37.65 82.16 36.66V34.53H80.18V35.025C80.18 36.555 79.475 37.725 78.08 38.565L77.135 37.53C78.215 36.975 78.77 36.195 78.77 35.175V33.195ZM86.885 35.115H92.93C92.54 34.395 92.06 33.72 91.49 33.075L92.915 32.55C93.455 33.27 93.965 34.125 94.43 35.115H100.115V36.525H97.82C97.1 38.805 96.035 40.71 94.625 42.255C96.185 43.53 98.135 44.595 100.445 45.435L99.65 46.635C97.235 45.735 95.225 44.61 93.635 43.26C91.94 44.76 89.855 45.87 87.38 46.59L86.615 45.33C89.045 44.7 91.04 43.71 92.63 42.345C90.98 40.695 89.825 38.745 89.18 36.525H86.885V35.115ZM90.545 36.525C91.175 38.37 92.195 39.99 93.62 41.37C94.835 40.035 95.75 38.415 96.35 36.525H90.545ZM114.95 34.155V37.665H113.51V35.505H103.49V37.665H102.05V34.155H107.78C107.57 33.675 107.36 33.225 107.12 32.82L108.755 32.55C108.965 33.03 109.175 33.555 109.37 34.155H114.95ZM104.405 36.84H112.565V38.16C111.62 38.82 110.57 39.48 109.4 40.125V40.86H115.19V42.24H109.4V45.06C109.4 46.005 108.905 46.485 107.915 46.485H106.07L105.725 45.195C106.25 45.21 106.82 45.225 107.435 45.225C107.795 45.225 107.975 45 107.975 44.565V42.24H101.825V40.86H107.975V39.54C109.025 38.985 109.85 38.52 110.45 38.16H104.405V36.84Z" fill="#465BC7"/>
<path d="M126.25 38.75C126.94 38.75 127.5 39.3096 127.5 40C127.5 40.6904 126.94 41.25 126.25 41.25C125.56 41.25 125 40.6904 125 40C125 39.3096 125.56 38.75 126.25 38.75ZM132 38.75C132.69 38.75 133.25 39.3096 133.25 40C133.25 40.6904 132.69 41.25 132 41.25C131.31 41.25 130.75 40.6904 130.75 40C130.75 39.3096 131.31 38.75 132 38.75ZM137.75 38.75C138.44 38.75 139 39.3096 139 40C139 40.6904 138.44 41.25 137.75 41.25C137.06 41.25 136.5 40.6904 136.5 40C136.5 39.3096 137.06 38.75 137.75 38.75Z" fill="#465BC7"/>
<mask id="path-7-inside-2_138_3312" fill="white">
<path d="M0 80H780V126C780 127.105 779.105 128 778 128H1.99998C0.895407 128 0 127.105 0 126V80Z"/>
</mask>
<path d="M0 80H780V126C780 127.105 779.105 128 778 128H1.99998C0.895407 128 0 127.105 0 126V80Z" fill="#E7E7E7"/>
<path d="M0 80H780H0ZM781 126C781 127.657 779.657 129 778 129H2C0.343146 129 -1 127.657 -1 126H1C1 126.552 1.44772 127 2 127H778C778.552 127 779 126.552 779 126H781ZM2 129C0.343146 129 -1 127.657 -1 126V80H1V126C1 126.552 1.44772 127 2 127V129ZM781 80V126C781 127.657 779.657 129 778 129V127C778.552 127 779 126.552 779 126V80H781Z" fill="#D9D9D9" mask="url(#path-7-inside-2_138_3312)"/>
<path fill-rule="evenodd" clip-rule="evenodd" d="M36.0005 108L29 100.98L29.9762 100H29.9781L36.0005 106.041L42.0238 100H42.0258L43 100.979V100.981L36.0005 108Z" fill="#4457CA"/>
<path d="M59.575 107.105C59.575 107.745 59.42 108.29 59.11 108.74C58.8 109.19 58.355 109.54 57.775 109.79C57.195 110.03 56.505 110.15 55.705 110.15C55.315 110.15 54.94 110.125 54.58 110.075C54.22 110.035 53.885 109.975 53.575 109.895C53.265 109.815 52.99 109.715 52.75 109.595V108.065C53.15 108.245 53.62 108.41 54.16 108.56C54.7 108.7 55.25 108.77 55.81 108.77C56.29 108.77 56.69 108.705 57.01 108.575C57.33 108.445 57.57 108.265 57.73 108.035C57.89 107.805 57.97 107.535 57.97 107.225C57.97 106.895 57.885 106.62 57.715 106.4C57.555 106.17 57.3 105.96 56.95 105.77C56.61 105.57 56.15 105.36 55.57 105.14C55.17 104.99 54.805 104.825 54.475 104.645C54.155 104.455 53.87 104.235 53.62 103.985C53.38 103.735 53.195 103.445 53.065 103.115C52.935 102.785 52.87 102.4 52.87 101.96C52.87 101.37 53.015 100.865 53.305 100.445C53.605 100.025 54.015 99.705 54.535 99.485C55.055 99.255 55.66 99.14 56.35 99.14C56.93 99.14 57.465 99.2 57.955 99.32C58.455 99.43 58.93 99.585 59.38 99.785L58.87 101.12C58.46 100.95 58.045 100.81 57.625 100.7C57.205 100.59 56.765 100.535 56.305 100.535C55.905 100.535 55.57 100.595 55.3 100.715C55.03 100.835 54.825 101 54.685 101.21C54.555 101.42 54.49 101.665 54.49 101.945C54.49 102.275 54.565 102.55 54.715 102.77C54.865 102.99 55.105 103.195 55.435 103.385C55.765 103.565 56.2 103.765 56.74 103.985C57.34 104.215 57.85 104.465 58.27 104.735C58.7 105.005 59.025 105.33 59.245 105.71C59.465 106.08 59.575 106.545 59.575 107.105ZM63.0821 101.645C63.0821 101.895 63.0721 102.145 63.0521 102.395C63.0321 102.645 63.0121 102.85 62.9921 103.01H63.0971C63.2671 102.73 63.4771 102.5 63.7271 102.32C63.9871 102.14 64.2721 102.005 64.5821 101.915C64.9021 101.825 65.2271 101.78 65.5571 101.78C66.1971 101.78 66.7321 101.885 67.1621 102.095C67.6021 102.295 67.9321 102.615 68.1521 103.055C68.3821 103.485 68.4971 104.045 68.4971 104.735V110H66.9221V104.96C66.9221 104.33 66.7871 103.86 66.5171 103.55C66.2571 103.23 65.8371 103.07 65.2571 103.07C64.7071 103.07 64.2721 103.18 63.9521 103.4C63.6421 103.62 63.4171 103.945 63.2771 104.375C63.1471 104.795 63.0821 105.315 63.0821 105.935V110H61.4921V98.6H63.0821V101.645ZM78.0653 105.95C78.0653 106.62 77.9753 107.215 77.7953 107.735C77.6153 108.255 77.3603 108.695 77.0303 109.055C76.7003 109.415 76.3003 109.69 75.8303 109.88C75.3603 110.06 74.8303 110.15 74.2403 110.15C73.7003 110.15 73.2003 110.06 72.7403 109.88C72.2803 109.69 71.8803 109.415 71.5403 109.055C71.2103 108.695 70.9503 108.255 70.7603 107.735C70.5703 107.215 70.4753 106.615 70.4753 105.935C70.4753 105.045 70.6253 104.29 70.9253 103.67C71.2353 103.05 71.6753 102.58 72.2453 102.26C72.8253 101.93 73.5053 101.765 74.2853 101.765C75.0253 101.765 75.6753 101.93 76.2353 102.26C76.8053 102.58 77.2503 103.05 77.5703 103.67C77.9003 104.29 78.0653 105.05 78.0653 105.95ZM72.1103 105.95C72.1103 106.55 72.1853 107.07 72.3353 107.51C72.4853 107.94 72.7203 108.27 73.0403 108.5C73.3603 108.73 73.7703 108.845 74.2703 108.845C74.7703 108.845 75.1803 108.73 75.5003 108.5C75.8203 108.27 76.0553 107.94 76.2053 107.51C76.3553 107.07 76.4303 106.55 76.4303 105.95C76.4303 105.33 76.3503 104.81 76.1903 104.39C76.0403 103.97 75.8053 103.65 75.4853 103.43C75.1753 103.2 74.7653 103.085 74.2553 103.085C73.5053 103.085 72.9603 103.335 72.6203 103.835C72.2803 104.335 72.1103 105.04 72.1103 105.95ZM85.248 105.95C85.198 105.75 85.138 105.53 85.068 105.29C85.008 105.05 84.948 104.81 84.888 104.57C84.828 104.32 84.773 104.09 84.723 103.88C84.673 103.67 84.633 103.505 84.603 103.385H84.543C84.523 103.505 84.488 103.67 84.438 103.88C84.398 104.09 84.348 104.32 84.288 104.57C84.228 104.81 84.168 105.055 84.108 105.305C84.048 105.545 83.983 105.765 83.913 105.965L82.713 109.985H80.943L78.708 101.9H80.328L81.378 105.995C81.458 106.275 81.528 106.57 81.588 106.88C81.658 107.19 81.718 107.49 81.768 107.78C81.828 108.06 81.868 108.295 81.888 108.485H81.948C81.968 108.355 81.998 108.195 82.038 108.005C82.078 107.805 82.118 107.6 82.158 107.39C82.208 107.17 82.253 106.96 82.293 106.76C82.343 106.56 82.393 106.395 82.443 106.265L83.733 101.9H85.473L86.733 106.265C86.793 106.465 86.858 106.705 86.928 106.985C86.998 107.255 87.058 107.525 87.108 107.795C87.168 108.055 87.208 108.28 87.228 108.47H87.288C87.308 108.3 87.343 108.08 87.393 107.81C87.443 107.53 87.503 107.23 87.573 106.91C87.653 106.59 87.728 106.285 87.798 105.995L88.878 101.9H90.483L88.218 109.985H86.403L85.248 105.95ZM100.539 100.535C100.009 100.535 99.5341 100.63 99.1141 100.82C98.6941 101 98.3341 101.27 98.0341 101.63C97.7441 101.99 97.5191 102.425 97.3591 102.935C97.2091 103.445 97.1341 104.02 97.1341 104.66C97.1341 105.5 97.2591 106.23 97.5091 106.85C97.7591 107.46 98.1341 107.93 98.6341 108.26C99.1341 108.59 99.7641 108.755 100.524 108.755C100.984 108.755 101.424 108.715 101.844 108.635C102.274 108.545 102.709 108.43 103.149 108.29V109.685C102.729 109.845 102.299 109.96 101.859 110.03C101.419 110.11 100.909 110.15 100.329 110.15C99.2391 110.15 98.3291 109.925 97.5991 109.475C96.8791 109.025 96.3391 108.385 95.9791 107.555C95.6191 106.725 95.4391 105.755 95.4391 104.645C95.4391 103.835 95.5491 103.095 95.7691 102.425C95.9991 101.745 96.3291 101.16 96.7591 100.67C97.1891 100.18 97.7191 99.805 98.3491 99.545C98.9891 99.275 99.7241 99.14 100.554 99.14C101.094 99.14 101.624 99.2 102.144 99.32C102.664 99.43 103.134 99.59 103.554 99.8L102.954 101.15C102.604 100.99 102.224 100.85 101.814 100.73C101.414 100.6 100.989 100.535 100.539 100.535ZM112.401 105.95C112.401 106.62 112.311 107.215 112.131 107.735C111.951 108.255 111.696 108.695 111.366 109.055C111.036 109.415 110.636 109.69 110.166 109.88C109.696 110.06 109.166 110.15 108.576 110.15C108.036 110.15 107.536 110.06 107.076 109.88C106.616 109.69 106.216 109.415 105.876 109.055C105.546 108.695 105.286 108.255 105.096 107.735C104.906 107.215 104.811 106.615 104.811 105.935C104.811 105.045 104.961 104.29 105.261 103.67C105.571 103.05 106.011 102.58 106.581 102.26C107.161 101.93 107.841 101.765 108.621 101.765C109.361 101.765 110.011 101.93 110.571 102.26C111.141 102.58 111.586 103.05 111.906 103.67C112.236 104.29 112.401 105.05 112.401 105.95ZM106.446 105.95C106.446 106.55 106.521 107.07 106.671 107.51C106.821 107.94 107.056 108.27 107.376 108.5C107.696 108.73 108.106 108.845 108.606 108.845C109.106 108.845 109.516 108.73 109.836 108.5C110.156 108.27 110.391 107.94 110.541 107.51C110.691 107.07 110.766 106.55 110.766 105.95C110.766 105.33 110.686 104.81 110.526 104.39C110.376 103.97 110.141 103.65 109.821 103.43C109.511 103.2 109.101 103.085 108.591 103.085C107.841 103.085 107.296 103.335 106.956 103.835C106.616 104.335 106.446 105.04 106.446 105.95ZM117.192 110.15C116.222 110.15 115.437 109.8 114.837 109.1C114.247 108.4 113.952 107.36 113.952 105.98C113.952 104.59 114.252 103.54 114.852 102.83C115.452 102.12 116.242 101.765 117.222 101.765C117.632 101.765 117.987 101.82 118.287 101.93C118.597 102.03 118.862 102.17 119.082 102.35C119.312 102.53 119.507 102.73 119.667 102.95H119.757C119.737 102.81 119.712 102.61 119.682 102.35C119.652 102.08 119.637 101.84 119.637 101.63V98.6H121.227V110H119.982L119.712 108.92H119.637C119.487 109.15 119.297 109.36 119.067 109.55C118.847 109.73 118.582 109.875 118.272 109.985C117.962 110.095 117.602 110.15 117.192 110.15ZM117.567 108.845C118.347 108.845 118.897 108.63 119.217 108.2C119.537 107.76 119.697 107.105 119.697 106.235V105.995C119.697 105.045 119.542 104.32 119.232 103.82C118.932 103.32 118.372 103.07 117.552 103.07C116.902 103.07 116.412 103.335 116.082 103.865C115.752 104.385 115.587 105.1 115.587 106.01C115.587 106.92 115.752 107.62 116.082 108.11C116.412 108.6 116.907 108.845 117.567 108.845ZM126.899 101.765C127.609 101.765 128.219 101.915 128.729 102.215C129.239 102.505 129.629 102.925 129.899 103.475C130.179 104.025 130.319 104.675 130.319 105.425V106.295H124.889C124.909 107.125 125.124 107.76 125.534 108.2C125.954 108.64 126.539 108.86 127.289 108.86C127.809 108.86 128.269 108.815 128.669 108.725C129.079 108.625 129.499 108.48 129.929 108.29V109.61C129.529 109.79 129.119 109.925 128.699 110.015C128.289 110.105 127.799 110.15 127.229 110.15C126.449 110.15 125.759 109.995 125.159 109.685C124.559 109.375 124.089 108.915 123.749 108.305C123.419 107.685 123.254 106.925 123.254 106.025C123.254 105.115 123.404 104.345 123.704 103.715C124.014 103.085 124.439 102.605 124.979 102.275C125.529 101.935 126.169 101.765 126.899 101.765ZM126.899 102.995C126.329 102.995 125.869 103.18 125.519 103.55C125.179 103.92 124.979 104.445 124.919 105.125H128.729C128.729 104.705 128.664 104.335 128.534 104.015C128.404 103.695 128.204 103.445 127.934 103.265C127.664 103.085 127.319 102.995 126.899 102.995Z" fill="#465BC7"/>
<path fill-rule="evenodd" clip-rule="evenodd" d="M700.2 104C700.2 99.5457 703.97 96 708.539 96C709.459 96 710.343 96.1506 711.168 96.4134L711.295 97.8164C709.717 98.6593 708.675 100.254 708.675 102.056C708.675 104.704 710.934 106.917 713.804 106.917C714.204 106.917 714.599 106.869 714.98 106.783L715.8 107.917C714.368 110.362 711.644 112 708.535 112C703.97 112 700.2 108.454 700.2 104ZM708.539 97.528C704.734 97.528 701.72 100.463 701.72 104C701.72 107.537 704.735 110.472 708.535 110.472C710.496 110.472 712.254 109.686 713.491 108.438C709.997 108.282 707.155 105.518 707.155 102.056C707.155 100.29 707.901 98.7006 709.093 97.5502C708.91 97.5355 708.725 97.528 708.539 97.528Z" fill="#4457CA"/>
<path d="M756 108.418H753.851V112H740V98.1494H743.582V96H756V108.418ZM741.433 99.582V110.567H752.418V108.418H743.582V99.582H741.433ZM745.082 106.918H754.5V97.5H745.082V106.918Z" fill="#4457CA"/>
</svg>
