<svg width="724" height="380" viewBox="0 0 724 380" fill="none" xmlns="http://www.w3.org/2000/svg">
<mask id="path-1-inside-1_135_2685" fill="white">
<path d="M0 2C0 0.895427 0.895431 0 2 0H362V380H2C0.895435 380 0 379.105 0 378V2Z"/>
</mask>
<path d="M0 2C0 0.895427 0.895431 0 2 0H362V380H2C0.895435 380 0 379.105 0 378V2Z" fill="white"/>
<path d="M-1 2C-1 0.343146 0.343146 -1 2 -1H362V1H2C1.44772 1 1 1.44772 1 2H-1ZM362 381H2C0.343146 381 -1 379.657 -1 378H1C1 378.552 1.44772 379 2 379H362V381ZM2 381C0.343146 381 -1 379.657 -1 378V2C-1 0.343146 0.343146 -1 2 -1V1C1.44772 1 1 1.44772 1 2V378C1 378.552 1.44772 379 2 379V381ZM362 0V380V0Z" fill="#D9D9D9" mask="url(#path-1-inside-1_135_2685)"/>
<path d="M39.305 185.475H41.435C41.555 185.145 41.66 184.815 41.75 184.47H38.75V183.21H46.235V184.47H43.16C43.07 184.815 42.965 185.145 42.845 185.475H45.695V193.665H43.97C44.975 194.28 45.83 194.91 46.52 195.54L45.605 196.44C45.005 195.825 44.18 195.165 43.1 194.46L43.925 193.665H41.105L42.005 194.445C41.225 195.24 40.25 195.93 39.095 196.53L38.3 195.525C39.41 194.985 40.325 194.37 41.075 193.665H39.305V185.475ZM44.36 192.51V191.235H40.64V192.51H44.36ZM40.64 190.125H44.36V188.91H40.64V190.125ZM40.64 187.8H44.36V186.63H40.64V187.8ZM34.175 185.16C34.565 185.55 34.925 185.91 35.255 186.255C35.735 185.715 36.185 185.13 36.59 184.47H33.035V183.21H38.045V184.29C37.415 185.4 36.755 186.345 36.035 187.125C36.26 187.395 36.455 187.635 36.62 187.845H38.63V188.715C38.405 189.885 38.135 190.8 37.835 191.46L36.71 191.025C36.935 190.5 37.145 189.885 37.325 189.165H36.02V195.105C36.02 196.005 35.585 196.47 34.745 196.47H33.29L33.005 195.18C33.455 195.24 33.875 195.27 34.28 195.27C34.52 195.27 34.655 195.105 34.655 194.775V189.165H32.54V187.845H35.09C34.55 187.215 33.89 186.54 33.125 185.82L34.175 185.16ZM52.895 191.085V195.405C54.29 194.94 55.475 194.34 56.45 193.62C55.565 192.63 54.965 191.55 54.65 190.38H53.795V189H60.38V190.305C60.005 191.61 59.375 192.75 58.49 193.71C59.33 194.34 60.35 194.91 61.565 195.405L60.8 196.635C59.495 196.035 58.4 195.375 57.5 194.625C56.45 195.45 55.145 196.11 53.615 196.62L52.895 195.51V195.645H49.46V196.32H48.125V191.085H52.895ZM56 190.38C56.285 191.25 56.765 192.03 57.425 192.75C58.1 192.03 58.625 191.25 58.985 190.38H56ZM49.46 194.385H51.59V192.315H49.46V194.385ZM47.69 184.515H50.015C49.805 184.005 49.55 183.51 49.265 183.03L50.615 182.655C50.945 183.33 51.2 183.945 51.395 184.515H53.375V185.805H47.69V184.515ZM48.245 186.75H52.775V187.98H48.245V186.75ZM48.26 188.82H52.775V190.065H48.26V188.82ZM54.77 183.195H59.585V186.345C59.585 186.675 59.78 186.855 60.185 186.855H61.13V188.16H59.795C58.7 188.16 58.16 187.65 58.16 186.66V184.53H56.18V185.025C56.18 186.555 55.475 187.725 54.08 188.565L53.135 187.53C54.215 186.975 54.77 186.195 54.77 185.175V183.195ZM62.885 185.115H68.93C68.54 184.395 68.06 183.72 67.49 183.075L68.915 182.55C69.455 183.27 69.965 184.125 70.43 185.115H76.115V186.525H73.82C73.1 188.805 72.035 190.71 70.625 192.255C72.185 193.53 74.135 194.595 76.445 195.435L75.65 196.635C73.235 195.735 71.225 194.61 69.635 193.26C67.94 194.76 65.855 195.87 63.38 196.59L62.615 195.33C65.045 194.7 67.04 193.71 68.63 192.345C66.98 190.695 65.825 188.745 65.18 186.525H62.885V185.115ZM66.545 186.525C67.175 188.37 68.195 189.99 69.62 191.37C70.835 190.035 71.75 188.415 72.35 186.525H66.545ZM90.95 184.155V187.665H89.51V185.505H79.49V187.665H78.05V184.155H83.78C83.57 183.675 83.36 183.225 83.12 182.82L84.755 182.55C84.965 183.03 85.175 183.555 85.37 184.155H90.95ZM80.405 186.84H88.565V188.16C87.62 188.82 86.57 189.48 85.4 190.125V190.86H91.19V192.24H85.4V195.06C85.4 196.005 84.905 196.485 83.915 196.485H82.07L81.725 195.195C82.25 195.21 82.82 195.225 83.435 195.225C83.795 195.225 83.975 195 83.975 194.565V192.24H77.825V190.86H83.975V189.54C85.025 188.985 85.85 188.52 86.45 188.16H80.405V186.84Z" fill="#465BC7"/>
<path fill-rule="evenodd" clip-rule="evenodd" d="M108 194L101 186.98L101.976 186H101.978L108 192.041L114.024 186H114.026L115 186.979V186.981L108 194Z" fill="#465BC7"/>
<mask id="path-5-inside-2_135_2685" fill="white">
<path d="M362 0H722C723.105 0 724 0.895431 724 2V378C724 379.105 723.105 380 722 380H362V0Z"/>
</mask>
<path d="M362 0H722C723.105 0 724 0.895431 724 2V378C724 379.105 723.105 380 722 380H362V0Z" fill="#F5F5F5"/>
<path d="M362 0V-1H361V0H362ZM362 380H361V381H362V380ZM362 0V1H722V0V-1H362V0ZM724 2H723V378H724H725V2H724ZM722 380V379H362V380V381H722V380ZM362 380H363V0H362H361V380H362ZM724 378H723C723 378.552 722.552 379 722 379V380V381C723.657 381 725 379.657 725 378H724ZM722 0V1C722.552 1 723 1.44772 723 2H724H725C725 0.343143 723.657 -1 722 -1V0Z" fill="#D9D9D9" mask="url(#path-5-inside-2_135_2685)"/>
<path d="M393.8 25.718L390.485 35H389.315L386 25.718H387.222L389.315 31.672C389.41 31.9233 389.493 32.166 389.562 32.4C389.631 32.634 389.692 32.8593 389.744 33.076C389.805 33.284 389.857 33.492 389.9 33.7C389.943 33.492 389.991 33.2797 390.043 33.063C390.104 32.8463 390.169 32.621 390.238 32.387C390.316 32.153 390.398 31.906 390.485 31.646L392.565 25.718H393.8ZM397.285 27.915C398.134 27.915 398.763 28.1013 399.17 28.474C399.577 28.8467 399.781 29.4403 399.781 30.255V35H398.949L398.728 34.012H398.676C398.477 34.2633 398.269 34.4757 398.052 34.649C397.844 34.8137 397.601 34.935 397.324 35.013C397.055 35.091 396.726 35.13 396.336 35.13C395.92 35.13 395.543 35.0563 395.205 34.909C394.876 34.7617 394.616 34.5363 394.425 34.233C394.234 33.921 394.139 33.531 394.139 33.063C394.139 32.3697 394.412 31.8367 394.958 31.464C395.504 31.0827 396.345 30.8747 397.48 30.84L398.663 30.801V30.385C398.663 29.8043 398.537 29.4013 398.286 29.176C398.035 28.9507 397.679 28.838 397.22 28.838C396.856 28.838 396.509 28.8943 396.18 29.007C395.851 29.111 395.543 29.2323 395.257 29.371L394.906 28.513C395.209 28.3483 395.569 28.2097 395.985 28.097C396.401 27.9757 396.834 27.915 397.285 27.915ZM397.623 31.633C396.756 31.6677 396.154 31.8063 395.816 32.049C395.487 32.2917 395.322 32.634 395.322 33.076C395.322 33.466 395.439 33.752 395.673 33.934C395.916 34.116 396.223 34.207 396.596 34.207C397.185 34.207 397.675 34.0467 398.065 33.726C398.455 33.3967 398.65 32.894 398.65 32.218V31.594L397.623 31.633ZM405.183 27.902C405.313 27.902 405.452 27.9107 405.599 27.928C405.755 27.9367 405.889 27.954 406.002 27.98L405.859 29.033C405.746 29.007 405.621 28.9853 405.482 28.968C405.352 28.9507 405.226 28.942 405.105 28.942C404.836 28.942 404.581 28.9983 404.338 29.111C404.095 29.2237 403.879 29.384 403.688 29.592C403.497 29.7913 403.346 30.034 403.233 30.32C403.129 30.606 403.077 30.9267 403.077 31.282V35H401.933V28.032H402.869L402.999 29.306H403.051C403.198 29.046 403.376 28.812 403.584 28.604C403.792 28.3873 404.03 28.2183 404.299 28.097C404.568 27.967 404.862 27.902 405.183 27.902ZM408.447 28.032V35H407.303V28.032H408.447ZM407.888 25.419C408.062 25.419 408.213 25.4797 408.343 25.601C408.482 25.7137 408.551 25.8957 408.551 26.147C408.551 26.3897 408.482 26.5717 408.343 26.693C408.213 26.8143 408.062 26.875 407.888 26.875C407.698 26.875 407.537 26.8143 407.407 26.693C407.277 26.5717 407.212 26.3897 407.212 26.147C407.212 25.8957 407.277 25.7137 407.407 25.601C407.537 25.4797 407.698 25.419 407.888 25.419ZM413.294 27.915C414.143 27.915 414.771 28.1013 415.179 28.474C415.586 28.8467 415.79 29.4403 415.79 30.255V35H414.958L414.737 34.012H414.685C414.485 34.2633 414.277 34.4757 414.061 34.649C413.853 34.8137 413.61 34.935 413.333 35.013C413.064 35.091 412.735 35.13 412.345 35.13C411.929 35.13 411.552 35.0563 411.214 34.909C410.884 34.7617 410.624 34.5363 410.434 34.233C410.243 33.921 410.148 33.531 410.148 33.063C410.148 32.3697 410.421 31.8367 410.967 31.464C411.513 31.0827 412.353 30.8747 413.489 30.84L414.672 30.801V30.385C414.672 29.8043 414.546 29.4013 414.295 29.176C414.043 28.9507 413.688 28.838 413.229 28.838C412.865 28.838 412.518 28.8943 412.189 29.007C411.859 29.111 411.552 29.2323 411.266 29.371L410.915 28.513C411.218 28.3483 411.578 28.2097 411.994 28.097C412.41 27.9757 412.843 27.915 413.294 27.915ZM413.632 31.633C412.765 31.6677 412.163 31.8063 411.825 32.049C411.495 32.2917 411.331 32.634 411.331 33.076C411.331 33.466 411.448 33.752 411.682 33.934C411.924 34.116 412.232 34.207 412.605 34.207C413.194 34.207 413.684 34.0467 414.074 33.726C414.464 33.3967 414.659 32.894 414.659 32.218V31.594L413.632 31.633ZM421.296 27.902C422.128 27.902 422.756 28.1057 423.181 28.513C423.606 28.9117 423.818 29.5617 423.818 30.463V35H422.687V30.541C422.687 29.9777 422.561 29.5573 422.31 29.28C422.059 29.0027 421.664 28.864 421.127 28.864C420.356 28.864 419.823 29.0807 419.528 29.514C419.233 29.9473 419.086 30.5713 419.086 31.386V35H417.942V28.032H418.865L419.034 28.981H419.099C419.255 28.7383 419.446 28.539 419.671 28.383C419.905 28.2183 420.161 28.097 420.438 28.019C420.715 27.941 421.001 27.902 421.296 27.902ZM428.305 34.194C428.478 34.194 428.656 34.181 428.838 34.155C429.02 34.1203 429.167 34.0857 429.28 34.051V34.922C429.159 34.9827 428.985 35.0303 428.76 35.065C428.535 35.1083 428.318 35.13 428.11 35.13C427.746 35.13 427.408 35.0693 427.096 34.948C426.793 34.818 426.546 34.597 426.355 34.285C426.164 33.973 426.069 33.5353 426.069 32.972V28.916H425.081V28.37L426.082 27.915L426.537 26.433H427.213V28.032H429.228V28.916H427.213V32.946C427.213 33.3707 427.313 33.687 427.512 33.895C427.72 34.0943 427.984 34.194 428.305 34.194Z" fill="#161616"/>
<circle cx="398" cy="56" r="5.5" stroke="#465BC7"/>
<circle cx="398" cy="56" r="3" fill="#465BC7"/>
<path d="M410.936 51.718H417.15V52.641H412.002V55.761H416.877V56.684H412.002V61H410.936V51.718ZM421.234 54.097C422.196 54.097 422.898 54.344 423.366 54.851C423.756 55.293 423.964 55.904 423.964 56.684V61H422.989V59.869C422.729 60.233 422.378 60.532 421.962 60.766C421.468 61.039 420.909 61.182 420.285 61.182C419.609 61.182 419.076 61.013 418.673 60.675C418.257 60.324 418.049 59.869 418.049 59.323C418.049 58.556 418.348 57.984 418.972 57.594C419.518 57.23 420.298 57.035 421.312 57.022L422.924 56.996V56.645C422.924 55.514 422.339 54.955 421.169 54.955C420.675 54.955 420.272 55.046 419.96 55.254C419.609 55.462 419.388 55.787 419.284 56.216L418.257 56.138C418.4 55.436 418.751 54.903 419.297 54.565C419.791 54.253 420.428 54.097 421.234 54.097ZM422.924 57.776L421.377 57.802C419.869 57.828 419.115 58.322 419.115 59.297C419.115 59.609 419.232 59.856 419.492 60.064C419.752 60.259 420.09 60.363 420.506 60.363C421.143 60.363 421.702 60.155 422.196 59.739C422.677 59.336 422.924 58.868 422.924 58.348V57.776ZM425.779 51.536H426.806V61H425.779V51.536ZM431.009 54.097C432.673 54.097 433.583 54.786 433.765 56.19H432.751C432.66 55.774 432.491 55.462 432.231 55.28C431.945 55.072 431.529 54.968 430.996 54.968C430.528 54.968 430.164 55.046 429.904 55.228C429.618 55.397 429.475 55.631 429.475 55.93C429.475 56.216 429.657 56.463 430.047 56.658C430.294 56.775 430.762 56.918 431.438 57.1C432.244 57.295 432.816 57.503 433.167 57.724C433.7 58.062 433.973 58.517 433.973 59.102C433.973 60.48 433.024 61.182 431.126 61.182C429.358 61.182 428.396 60.402 428.24 58.855H429.254C429.332 59.388 429.527 59.765 429.813 59.999C430.099 60.207 430.528 60.311 431.1 60.311C432.296 60.311 432.907 59.921 432.907 59.167C432.907 58.79 432.686 58.504 432.27 58.296C432.049 58.192 431.568 58.049 430.84 57.867C430.047 57.672 429.488 57.477 429.176 57.269C428.656 56.957 428.409 56.528 428.409 55.956C428.409 55.384 428.656 54.942 429.163 54.604C429.631 54.266 430.255 54.097 431.009 54.097ZM437.963 54.097C439.042 54.097 439.861 54.461 440.407 55.189C440.901 55.839 441.161 56.762 441.187 57.932H435.883C435.935 58.686 436.13 59.271 436.494 59.687C436.858 60.103 437.365 60.311 438.002 60.311C438.548 60.311 439.003 60.168 439.341 59.895C439.627 59.661 439.848 59.31 440.017 58.842H441.057C440.901 59.492 440.602 60.012 440.147 60.428C439.588 60.922 438.873 61.182 438.002 61.182C437.04 61.182 436.26 60.857 435.688 60.233C435.09 59.583 434.804 58.725 434.804 57.633C434.804 56.645 435.077 55.813 435.649 55.15C436.221 54.448 436.988 54.097 437.963 54.097ZM437.989 54.968C437.391 54.968 436.91 55.163 436.546 55.553C436.182 55.943 435.974 56.463 435.909 57.126H440.108C439.978 55.683 439.263 54.968 437.989 54.968Z" fill="#161616"/>
<circle cx="466" cy="56" r="5.5" stroke="#8F8F8F"/>
<path d="M478.221 51.718H485.826V52.641H482.55V61H481.497V52.641H478.221V51.718ZM489.806 54.097C490.17 54.097 490.482 54.149 490.729 54.253V55.293C490.391 55.189 490.053 55.15 489.728 55.15C489.208 55.15 488.766 55.371 488.415 55.839C488.051 56.281 487.882 56.814 487.882 57.438V61H486.855V54.279H487.882V55.449C488.064 55.059 488.298 54.747 488.584 54.526C488.935 54.24 489.338 54.097 489.806 54.097ZM491.603 54.279H492.643V58.387C492.643 59.024 492.773 59.505 493.046 59.817C493.319 60.129 493.761 60.298 494.372 60.298C494.814 60.298 495.217 60.116 495.568 59.778C495.932 59.414 496.153 58.946 496.231 58.374V54.279H497.271V61H496.231V59.96C495.685 60.766 494.957 61.182 494.047 61.182C492.409 61.182 491.603 60.259 491.603 58.439V54.279ZM501.646 54.097C502.725 54.097 503.544 54.461 504.09 55.189C504.584 55.839 504.844 56.762 504.87 57.932H499.566C499.618 58.686 499.813 59.271 500.177 59.687C500.541 60.103 501.048 60.311 501.685 60.311C502.231 60.311 502.686 60.168 503.024 59.895C503.31 59.661 503.531 59.31 503.7 58.842H504.74C504.584 59.492 504.285 60.012 503.83 60.428C503.271 60.922 502.556 61.182 501.685 61.182C500.723 61.182 499.943 60.857 499.371 60.233C498.773 59.583 498.487 58.725 498.487 57.633C498.487 56.645 498.76 55.813 499.332 55.15C499.904 54.448 500.671 54.097 501.646 54.097ZM501.672 54.968C501.074 54.968 500.593 55.163 500.229 55.553C499.865 55.943 499.657 56.463 499.592 57.126H503.791C503.661 55.683 502.946 54.968 501.672 54.968Z" fill="#161616"/>
<path d="M391.856 95L388.801 86.862H388.749C388.766 87.0353 388.779 87.2563 388.788 87.525C388.805 87.7937 388.818 88.0883 388.827 88.409C388.835 88.721 388.84 89.0417 388.84 89.371V95H387.761V85.718H389.49L392.35 93.323H392.402L395.314 85.718H397.03V95H395.873V89.293C395.873 88.9897 395.877 88.6907 395.886 88.396C395.894 88.0927 395.907 87.811 395.925 87.551C395.942 87.2823 395.955 87.057 395.964 86.875H395.912L392.818 95H391.856ZM405.456 91.503C405.456 92.0837 405.378 92.5993 405.222 93.05C405.075 93.492 404.858 93.869 404.572 94.181C404.295 94.493 403.953 94.7313 403.545 94.896C403.147 95.052 402.7 95.13 402.206 95.13C401.747 95.13 401.322 95.052 400.932 94.896C400.542 94.7313 400.204 94.493 399.918 94.181C399.632 93.869 399.407 93.492 399.242 93.05C399.086 92.5993 399.008 92.0837 399.008 91.503C399.008 90.7317 399.138 90.0817 399.398 89.553C399.658 89.0157 400.031 88.6083 400.516 88.331C401.002 88.045 401.578 87.902 402.245 87.902C402.878 87.902 403.433 88.045 403.909 88.331C404.395 88.6083 404.772 89.0157 405.04 89.553C405.318 90.0817 405.456 90.7317 405.456 91.503ZM400.191 91.503C400.191 92.049 400.261 92.5257 400.399 92.933C400.547 93.3317 400.772 93.6393 401.075 93.856C401.379 94.0727 401.764 94.181 402.232 94.181C402.7 94.181 403.086 94.0727 403.389 93.856C403.693 93.6393 403.914 93.3317 404.052 92.933C404.2 92.5257 404.273 92.049 404.273 91.503C404.273 90.9483 404.2 90.476 404.052 90.086C403.905 89.696 403.68 89.397 403.376 89.189C403.082 88.9723 402.696 88.864 402.219 88.864C401.509 88.864 400.993 89.098 400.672 89.566C400.352 90.034 400.191 90.6797 400.191 91.503ZM409.74 95.13C408.873 95.13 408.18 94.831 407.66 94.233C407.14 93.6263 406.88 92.725 406.88 91.529C406.88 90.333 407.14 89.4317 407.66 88.825C408.188 88.2097 408.886 87.902 409.753 87.902C410.117 87.902 410.433 87.9497 410.702 88.045C410.97 88.1317 411.204 88.253 411.404 88.409C411.603 88.565 411.772 88.7383 411.911 88.929H411.989C411.98 88.8163 411.963 88.6517 411.937 88.435C411.919 88.2097 411.911 88.032 411.911 87.902V85.12H413.055V95H412.132L411.963 94.064H411.911C411.772 94.2633 411.603 94.4453 411.404 94.61C411.204 94.766 410.966 94.8917 410.689 94.987C410.42 95.0823 410.104 95.13 409.74 95.13ZM409.922 94.181C410.658 94.181 411.174 93.9817 411.469 93.583C411.772 93.1757 411.924 92.5647 411.924 91.75V91.542C411.924 90.6753 411.781 90.0123 411.495 89.553C411.209 89.085 410.68 88.851 409.909 88.851C409.293 88.851 408.83 89.098 408.518 89.592C408.214 90.0773 408.063 90.7317 408.063 91.555C408.063 92.387 408.214 93.0327 408.518 93.492C408.83 93.9513 409.298 94.181 409.922 94.181ZM417.959 87.902C418.557 87.902 419.068 88.032 419.493 88.292C419.926 88.552 420.255 88.9203 420.481 89.397C420.715 89.865 420.832 90.4153 420.832 91.048V91.737H416.061C416.078 92.5257 416.277 93.128 416.659 93.544C417.049 93.9513 417.59 94.155 418.284 94.155C418.726 94.155 419.116 94.116 419.454 94.038C419.8 93.9513 420.156 93.83 420.52 93.674V94.675C420.164 94.831 419.813 94.9437 419.467 95.013C419.12 95.091 418.708 95.13 418.232 95.13C417.573 95.13 416.988 94.9957 416.477 94.727C415.974 94.4583 415.58 94.0597 415.294 93.531C415.016 92.9937 414.878 92.3393 414.878 91.568C414.878 90.8053 415.003 90.151 415.255 89.605C415.515 89.059 415.874 88.6387 416.334 88.344C416.802 88.0493 417.343 87.902 417.959 87.902ZM417.946 88.838C417.4 88.838 416.966 89.0157 416.646 89.371C416.334 89.7177 416.147 90.203 416.087 90.827H419.636C419.636 90.4283 419.575 90.0817 419.454 89.787C419.332 89.4923 419.146 89.2627 418.895 89.098C418.652 88.9247 418.336 88.838 417.946 88.838Z" fill="#161616"/>
<path d="M465.5 108.5V131.5H386.5V108.5H465.5Z" fill="#465BC7" fill-opacity="0.2"/>
<path d="M465.5 108.5V131.5H386.5V108.5H465.5Z" stroke="#465BC7"/>
<path d="M398.246 115.718H405.851V116.927H402.757V125H401.353V116.927H398.246V115.718ZM409.689 118.097C410.781 118.097 411.626 118.461 412.198 119.215C412.718 119.891 412.991 120.827 413.004 122.023H407.908C407.96 122.673 408.129 123.18 408.441 123.531C408.753 123.869 409.182 124.051 409.728 124.051C410.209 124.051 410.599 123.934 410.898 123.713C411.132 123.531 411.327 123.232 411.509 122.842H412.887C412.731 123.466 412.432 123.999 411.964 124.415C411.379 124.922 410.638 125.182 409.741 125.182C408.753 125.182 407.96 124.87 407.388 124.259C406.764 123.609 406.452 122.738 406.452 121.633C406.452 120.632 406.738 119.8 407.336 119.124C407.908 118.435 408.701 118.097 409.689 118.097ZM409.728 119.228C409.208 119.228 408.805 119.371 408.493 119.683C408.207 119.982 408.012 120.411 407.934 120.983H411.561C411.431 119.813 410.82 119.228 409.728 119.228ZM413.764 118.279H415.376L416.858 120.411L418.327 118.279H419.939L417.612 121.425L420.225 125H418.613L416.858 122.439L415.09 125H413.465L416.091 121.425L413.764 118.279ZM423.114 116.108V118.279H424.648V119.423H423.114V123.323C423.114 123.505 423.153 123.635 423.231 123.726C423.309 123.804 423.426 123.856 423.595 123.856H424.479V125H423.374C422.802 125 422.373 124.844 422.113 124.545C421.853 124.259 421.736 123.856 421.736 123.323V119.423H420.488V118.279H421.736V116.68L423.114 116.108ZM428.345 118.357H429.489V121.061H432.193V122.205H429.489V124.922H428.345V122.205H425.628V121.061H428.345V118.357ZM433.759 115.718H437.997C438.907 115.718 439.609 115.926 440.129 116.368C440.623 116.784 440.87 117.343 440.87 118.058C440.87 118.578 440.74 119.02 440.48 119.384C440.22 119.722 439.869 119.982 439.401 120.151C440.012 120.268 440.48 120.515 440.792 120.892C441.104 121.269 441.26 121.776 441.26 122.4C441.26 123.336 440.935 124.012 440.298 124.454C439.752 124.818 438.985 125 437.997 125H433.759V115.718ZM435.176 116.888V119.657H437.62C438.27 119.657 438.738 119.54 439.024 119.319C439.31 119.085 439.453 118.721 439.453 118.227C439.453 117.759 439.31 117.421 439.024 117.213C438.738 116.992 438.27 116.888 437.646 116.888H435.176ZM435.176 120.814V123.83H437.802C438.4 123.83 438.868 123.726 439.206 123.544C439.622 123.297 439.843 122.907 439.843 122.374C439.843 121.828 439.674 121.425 439.349 121.178C439.024 120.931 438.517 120.814 437.841 120.814H435.176ZM444.595 116.108V118.279H446.129V119.423H444.595V123.323C444.595 123.505 444.634 123.635 444.712 123.726C444.79 123.804 444.907 123.856 445.076 123.856H445.96V125H444.855C444.283 125 443.854 124.844 443.594 124.545C443.334 124.259 443.217 123.856 443.217 123.323V119.423H441.969V118.279H443.217V116.68L444.595 116.108ZM450.644 118.097C452.308 118.097 453.153 119.007 453.153 120.853V125H451.775V120.97C451.775 119.826 451.242 119.254 450.202 119.254C449.812 119.254 449.461 119.384 449.175 119.67C448.863 119.982 448.668 120.411 448.616 120.957V125H447.238V118.279H448.616V119.111C448.876 118.773 449.175 118.526 449.513 118.357C449.851 118.175 450.228 118.097 450.644 118.097Z" fill="#465BC7"/>
<path d="M579.5 108.5V131.5H474.5V108.5H579.5Z" stroke="#465BC7"/>
<path d="M486.653 115.718H494.258V116.927H491.164V125H489.76V116.927H486.653V115.718ZM498.108 118.097C499.213 118.097 500.058 118.461 500.643 119.215C501.176 119.891 501.449 120.84 501.449 122.049H496.418C496.47 122.673 496.639 123.154 496.925 123.479C497.211 123.804 497.627 123.973 498.16 123.973C498.615 123.973 498.979 123.869 499.265 123.661C499.486 123.492 499.681 123.219 499.863 122.842H501.345C501.189 123.466 500.877 123.999 500.409 124.415C499.811 124.922 499.07 125.182 498.173 125.182C497.172 125.182 496.379 124.87 495.794 124.259C495.17 123.622 494.858 122.751 494.858 121.633C494.858 120.632 495.144 119.8 495.742 119.124C496.314 118.435 497.107 118.097 498.108 118.097ZM498.147 119.306C497.653 119.306 497.276 119.436 496.99 119.722C496.717 119.995 496.535 120.398 496.444 120.931H499.902C499.772 119.839 499.187 119.306 498.147 119.306ZM502.208 118.279H503.937L505.341 120.333L506.732 118.279H508.461L506.147 121.425L508.76 125H507.018L505.341 122.517L503.651 125H501.909L504.522 121.425L502.208 118.279ZM511.713 116.108V118.279H513.208V119.501H511.713V123.297C511.713 123.453 511.739 123.57 511.817 123.661C511.895 123.739 511.999 123.778 512.155 123.778H513.039V125H511.908C511.323 125 510.894 124.844 510.621 124.532C510.361 124.246 510.231 123.843 510.231 123.297V119.501H509.022V118.279H510.231V116.719L511.713 116.108ZM516.865 118.357H518.087V121.022H520.752V122.244H518.087V124.922H516.865V122.244H514.187V121.022H516.865V118.357ZM521.603 115.718H529.208V117.018H526.166V125H524.645V117.018H521.603V115.718ZM533.358 118.097C533.683 118.097 533.969 118.149 534.203 118.266V119.748C533.865 119.644 533.553 119.605 533.241 119.605C532.851 119.605 532.5 119.748 532.188 120.06C531.824 120.411 531.655 120.866 531.655 121.438V125H530.186V118.279H531.655V119.241C531.837 118.903 532.045 118.643 532.292 118.461C532.591 118.214 532.942 118.097 533.358 118.097ZM538.103 118.097C539.091 118.097 539.832 118.344 540.3 118.838C540.716 119.267 540.924 119.891 540.924 120.71V125H539.546V124.116C539.286 124.454 538.961 124.701 538.584 124.883C538.155 125.078 537.648 125.182 537.063 125.182C536.361 125.182 535.815 125 535.412 124.649C534.996 124.285 534.788 123.83 534.788 123.271C534.788 122.517 535.074 121.932 535.672 121.529C536.218 121.139 536.985 120.931 537.973 120.905L539.442 120.866V120.606C539.442 119.722 538.961 119.293 537.999 119.293C537.583 119.293 537.258 119.358 537.011 119.514C536.725 119.683 536.53 119.943 536.452 120.294L534.983 120.177C535.126 119.436 535.49 118.89 536.075 118.552C536.569 118.24 537.245 118.097 538.103 118.097ZM539.442 121.932L538.077 121.971C536.894 121.997 536.309 122.413 536.309 123.219C536.309 123.453 536.4 123.648 536.608 123.804C536.816 123.96 537.076 124.051 537.401 124.051C537.973 124.051 538.454 123.882 538.844 123.557C539.234 123.219 539.442 122.79 539.442 122.27V121.932ZM543.489 115.536C543.775 115.536 544.022 115.627 544.217 115.809C544.399 115.991 544.503 116.225 544.503 116.511C544.503 116.797 544.399 117.044 544.204 117.226C544.009 117.408 543.775 117.499 543.489 117.499C543.203 117.499 542.969 117.408 542.774 117.226C542.579 117.031 542.488 116.797 542.488 116.511C542.488 116.225 542.579 115.991 542.774 115.809C542.969 115.627 543.203 115.536 543.489 115.536ZM542.748 118.279H544.23V125H542.748V118.279ZM546.198 115.536H547.68V125H546.198V115.536ZM550.369 115.536C550.655 115.536 550.902 115.627 551.097 115.809C551.279 115.991 551.383 116.225 551.383 116.511C551.383 116.797 551.279 117.044 551.084 117.226C550.889 117.408 550.655 117.499 550.369 117.499C550.083 117.499 549.849 117.408 549.654 117.226C549.459 117.031 549.368 116.797 549.368 116.511C549.368 116.225 549.459 115.991 549.654 115.809C549.849 115.627 550.083 115.536 550.369 115.536ZM549.628 118.279H551.11V125H549.628V118.279ZM556.419 118.097C558.096 118.097 558.941 119.007 558.941 120.853V125H557.459V120.983C557.459 119.878 556.952 119.332 555.938 119.332C555.574 119.332 555.249 119.462 554.976 119.722C554.664 120.008 554.482 120.424 554.43 120.957V125H552.948V118.279H554.43V119.059C554.69 118.747 554.989 118.5 555.314 118.344C555.652 118.175 556.016 118.097 556.419 118.097ZM563.297 118.097C564.129 118.097 564.792 118.422 565.286 119.098V118.279H566.768V124.571C566.768 126.69 565.715 127.756 563.609 127.756C562.66 127.756 561.945 127.574 561.451 127.236C560.957 126.872 560.645 126.326 560.515 125.572H561.997C562.075 125.949 562.231 126.209 562.478 126.365C562.712 126.508 563.089 126.586 563.609 126.586C564.727 126.586 565.286 125.988 565.286 124.792V123.804C564.792 124.493 564.129 124.844 563.297 124.844C562.387 124.844 561.646 124.532 561.087 123.934C560.515 123.323 560.242 122.504 560.242 121.49C560.242 120.476 560.515 119.657 561.087 119.033C561.646 118.409 562.387 118.097 563.297 118.097ZM563.531 119.293C562.972 119.293 562.543 119.488 562.231 119.878C561.919 120.255 561.763 120.788 561.763 121.49C561.763 122.127 561.88 122.621 562.127 122.985C562.413 123.414 562.868 123.635 563.518 123.635C564.09 123.635 564.532 123.44 564.844 123.076C565.143 122.686 565.299 122.166 565.299 121.49C565.299 120.801 565.143 120.268 564.844 119.878C564.532 119.488 564.09 119.293 563.531 119.293Z" fill="#465BC7"/>
<path d="M685.5 108.5V131.5H588.5V108.5H685.5Z" stroke="#465BC7"/>
<path d="M601.151 115.718H607.82V116.927H602.568V119.631H607.508V120.84H602.568V123.791H608.041V125H601.151V115.718ZM609.505 115.536H610.883V125H609.505V115.536ZM612.755 115.536H614.133V125H612.755V115.536ZM616.824 115.588C617.097 115.588 617.331 115.666 617.513 115.848C617.695 116.017 617.786 116.238 617.786 116.511C617.786 116.784 617.682 117.005 617.5 117.187C617.318 117.356 617.084 117.447 616.824 117.447C616.551 117.447 616.33 117.356 616.148 117.187C615.966 117.005 615.875 116.771 615.875 116.511C615.875 116.238 615.966 116.017 616.148 115.848C616.33 115.666 616.551 115.588 616.824 115.588ZM616.135 118.279H617.513V125H616.135V118.279ZM622.745 118.097C623.733 118.097 624.5 118.448 625.072 119.15C625.592 119.8 625.852 120.632 625.852 121.672C625.852 122.66 625.592 123.479 625.085 124.129C624.539 124.831 623.772 125.182 622.81 125.182C621.978 125.182 621.302 124.792 620.756 124.012V127.574H619.378V118.279H620.665V119.085C621.133 118.422 621.835 118.097 622.745 118.097ZM622.537 119.215C621.939 119.215 621.471 119.449 621.146 119.93C620.86 120.346 620.717 120.905 620.717 121.594V121.711C620.717 122.426 620.886 123.011 621.25 123.453C621.562 123.856 621.978 124.064 622.498 124.064C623.174 124.064 623.668 123.843 623.993 123.401C624.279 122.985 624.435 122.413 624.435 121.672C624.435 120.931 624.292 120.359 624.032 119.943C623.707 119.449 623.213 119.215 622.537 119.215ZM629.657 118.097C631.399 118.097 632.361 118.799 632.517 120.216H631.178C631.074 119.852 630.918 119.605 630.697 119.462C630.463 119.306 630.099 119.228 629.631 119.228C629.215 119.228 628.903 119.28 628.695 119.41C628.448 119.54 628.331 119.748 628.331 120.008C628.331 120.242 628.513 120.437 628.877 120.606C629.111 120.71 629.553 120.84 630.229 121.009C630.996 121.191 631.568 121.412 631.932 121.646C632.465 121.984 632.738 122.452 632.738 123.05C632.738 124.467 631.737 125.182 629.748 125.182C627.902 125.182 626.914 124.389 626.758 122.829H628.11C628.188 123.284 628.357 123.609 628.591 123.791C628.825 123.96 629.189 124.051 629.709 124.051C630.775 124.051 631.321 123.739 631.321 123.141C631.321 122.816 631.113 122.556 630.723 122.374C630.515 122.27 630.06 122.14 629.371 121.984C628.578 121.802 628.019 121.607 627.707 121.399C627.187 121.074 626.927 120.619 626.927 120.047C626.927 119.436 627.174 118.955 627.681 118.617C628.188 118.266 628.851 118.097 629.657 118.097ZM634.877 115.588C635.15 115.588 635.384 115.666 635.566 115.848C635.748 116.017 635.839 116.238 635.839 116.511C635.839 116.784 635.735 117.005 635.553 117.187C635.371 117.356 635.137 117.447 634.877 117.447C634.604 117.447 634.383 117.356 634.201 117.187C634.019 117.005 633.928 116.771 633.928 116.511C633.928 116.238 634.019 116.017 634.201 115.848C634.383 115.666 634.604 115.588 634.877 115.588ZM634.188 118.279H635.566V125H634.188V118.279ZM639.94 118.097C641.682 118.097 642.644 118.799 642.8 120.216H641.461C641.357 119.852 641.201 119.605 640.98 119.462C640.746 119.306 640.382 119.228 639.914 119.228C639.498 119.228 639.186 119.28 638.978 119.41C638.731 119.54 638.614 119.748 638.614 120.008C638.614 120.242 638.796 120.437 639.16 120.606C639.394 120.71 639.836 120.84 640.512 121.009C641.279 121.191 641.851 121.412 642.215 121.646C642.748 121.984 643.021 122.452 643.021 123.05C643.021 124.467 642.02 125.182 640.031 125.182C638.185 125.182 637.197 124.389 637.041 122.829H638.393C638.471 123.284 638.64 123.609 638.874 123.791C639.108 123.96 639.472 124.051 639.992 124.051C641.058 124.051 641.604 123.739 641.604 123.141C641.604 122.816 641.396 122.556 641.006 122.374C640.798 122.27 640.343 122.14 639.654 121.984C638.861 121.802 638.302 121.607 637.99 121.399C637.47 121.074 637.21 120.619 637.21 120.047C637.21 119.436 637.457 118.955 637.964 118.617C638.471 118.266 639.134 118.097 639.94 118.097ZM649.489 115.588C649.762 115.588 649.996 115.666 650.178 115.848C650.36 116.017 650.451 116.238 650.451 116.511C650.451 116.784 650.347 117.005 650.165 117.187C649.983 117.356 649.749 117.447 649.489 117.447C649.216 117.447 648.995 117.356 648.813 117.187C648.631 117.005 648.54 116.771 648.54 116.511C648.54 116.238 648.631 116.017 648.813 115.848C648.995 115.666 649.216 115.588 649.489 115.588ZM648.8 118.279H650.178V125H648.8V118.279ZM655.033 118.097C655.891 118.097 656.58 118.292 657.1 118.682C657.62 119.098 657.958 119.722 658.088 120.554H656.723C656.632 120.099 656.45 119.761 656.164 119.553C655.878 119.332 655.501 119.228 655.033 119.228C654.461 119.228 654.019 119.436 653.694 119.865C653.356 120.281 653.2 120.879 653.2 121.633C653.2 122.387 653.356 122.985 653.681 123.414C653.98 123.83 654.422 124.051 655.02 124.051C656.047 124.051 656.619 123.531 656.749 122.517H658.114C657.958 123.414 657.607 124.09 657.087 124.532C656.567 124.961 655.865 125.182 655.007 125.182C653.98 125.182 653.187 124.844 652.615 124.168C652.056 123.518 651.783 122.686 651.783 121.646C651.783 120.632 652.056 119.8 652.602 119.15C653.187 118.448 653.993 118.097 655.033 118.097ZM662.386 118.097C663.4 118.097 664.219 118.435 664.83 119.111C665.428 119.774 665.74 120.619 665.74 121.646C665.74 122.66 665.441 123.505 664.843 124.155C664.219 124.831 663.4 125.182 662.386 125.182C661.372 125.182 660.553 124.831 659.929 124.155C659.331 123.505 659.032 122.66 659.032 121.646C659.032 120.619 659.331 119.774 659.942 119.111C660.553 118.435 661.372 118.097 662.386 118.097ZM662.386 119.228C661.749 119.228 661.255 119.475 660.904 119.982C660.592 120.411 660.449 120.97 660.449 121.646C660.449 122.322 660.592 122.868 660.904 123.297C661.255 123.791 661.749 124.051 662.386 124.051C663.023 124.051 663.517 123.791 663.881 123.297C664.193 122.855 664.349 122.309 664.349 121.646C664.349 120.97 664.193 120.411 663.881 119.982C663.517 119.475 663.023 119.228 662.386 119.228ZM670.455 118.097C672.119 118.097 672.964 119.007 672.964 120.853V125H671.586V120.97C671.586 119.826 671.053 119.254 670.013 119.254C669.623 119.254 669.272 119.384 668.986 119.67C668.674 119.982 668.479 120.411 668.427 120.957V125H667.049V118.279H668.427V119.111C668.687 118.773 668.986 118.526 669.324 118.357C669.662 118.175 670.039 118.097 670.455 118.097Z" fill="#465BC7"/>
<path d="M477.5 140.5V163.5H386.5V140.5H477.5Z" stroke="#465BC7"/>
<path d="M399.052 147.718H400.456V157H399.052V147.718ZM405.162 150.097C406.02 150.097 406.709 150.292 407.229 150.682C407.749 151.098 408.087 151.722 408.217 152.554H406.852C406.761 152.099 406.579 151.761 406.293 151.553C406.007 151.332 405.63 151.228 405.162 151.228C404.59 151.228 404.148 151.436 403.823 151.865C403.485 152.281 403.329 152.879 403.329 153.633C403.329 154.387 403.485 154.985 403.81 155.414C404.109 155.83 404.551 156.051 405.149 156.051C406.176 156.051 406.748 155.531 406.878 154.517H408.243C408.087 155.414 407.736 156.09 407.216 156.532C406.696 156.961 405.994 157.182 405.136 157.182C404.109 157.182 403.316 156.844 402.744 156.168C402.185 155.518 401.912 154.686 401.912 153.646C401.912 152.632 402.185 151.8 402.731 151.15C403.316 150.448 404.122 150.097 405.162 150.097ZM412.515 150.097C413.529 150.097 414.348 150.435 414.959 151.111C415.557 151.774 415.869 152.619 415.869 153.646C415.869 154.66 415.57 155.505 414.972 156.155C414.348 156.831 413.529 157.182 412.515 157.182C411.501 157.182 410.682 156.831 410.058 156.155C409.46 155.505 409.161 154.66 409.161 153.646C409.161 152.619 409.46 151.774 410.071 151.111C410.682 150.435 411.501 150.097 412.515 150.097ZM412.515 151.228C411.878 151.228 411.384 151.475 411.033 151.982C410.721 152.411 410.578 152.97 410.578 153.646C410.578 154.322 410.721 154.868 411.033 155.297C411.384 155.791 411.878 156.051 412.515 156.051C413.152 156.051 413.646 155.791 414.01 155.297C414.322 154.855 414.478 154.309 414.478 153.646C414.478 152.97 414.322 152.411 414.01 151.982C413.646 151.475 413.152 151.228 412.515 151.228ZM420.583 150.097C422.247 150.097 423.092 151.007 423.092 152.853V157H421.714V152.97C421.714 151.826 421.181 151.254 420.141 151.254C419.751 151.254 419.4 151.384 419.114 151.67C418.802 151.982 418.607 152.411 418.555 152.957V157H417.177V150.279H418.555V151.111C418.815 150.773 419.114 150.526 419.452 150.357C419.79 150.175 420.167 150.097 420.583 150.097ZM433.144 147.536C434.327 147.536 435.263 147.796 435.952 148.342C436.615 148.862 437.031 149.629 437.2 150.669H435.77C435.64 150.045 435.354 149.577 434.912 149.265C434.47 148.94 433.872 148.784 433.144 148.784C432.247 148.784 431.532 149.083 430.999 149.707C430.427 150.357 430.154 151.254 430.154 152.398C430.154 153.516 430.401 154.374 430.921 154.972C431.467 155.622 432.325 155.947 433.482 155.947C433.937 155.947 434.366 155.882 434.769 155.778C435.159 155.674 435.497 155.518 435.809 155.323V153.308H433.248V152.099H437.226V155.999C436.745 156.376 436.186 156.662 435.549 156.87C434.873 157.078 434.132 157.182 433.326 157.182C431.844 157.182 430.7 156.714 429.881 155.778C429.114 154.907 428.737 153.776 428.737 152.398C428.737 151.007 429.114 149.863 429.881 148.966C430.687 148.004 431.779 147.536 433.144 147.536ZM441.918 150.097C442.256 150.097 442.555 150.149 442.789 150.266V151.644C442.451 151.54 442.126 151.501 441.814 151.501C441.398 151.501 441.021 151.67 440.696 152.008C440.345 152.372 440.176 152.853 440.176 153.438V157H438.798V150.279H440.176V151.293C440.345 150.929 440.566 150.656 440.826 150.474C441.138 150.214 441.502 150.097 441.918 150.097ZM446.728 150.097C447.742 150.097 448.561 150.435 449.172 151.111C449.77 151.774 450.082 152.619 450.082 153.646C450.082 154.66 449.783 155.505 449.185 156.155C448.561 156.831 447.742 157.182 446.728 157.182C445.714 157.182 444.895 156.831 444.271 156.155C443.673 155.505 443.374 154.66 443.374 153.646C443.374 152.619 443.673 151.774 444.284 151.111C444.895 150.435 445.714 150.097 446.728 150.097ZM446.728 151.228C446.091 151.228 445.597 151.475 445.246 151.982C444.934 152.411 444.791 152.97 444.791 153.646C444.791 154.322 444.934 154.868 445.246 155.297C445.597 155.791 446.091 156.051 446.728 156.051C447.365 156.051 447.859 155.791 448.223 155.297C448.535 154.855 448.691 154.309 448.691 153.646C448.691 152.97 448.535 152.411 448.223 151.982C447.859 151.475 447.365 151.228 446.728 151.228ZM451.391 150.279H452.769V154.374C452.769 154.946 452.886 155.362 453.133 155.622C453.367 155.882 453.757 156.025 454.29 156.025C454.654 156.025 454.979 155.869 455.291 155.583C455.603 155.284 455.824 154.881 455.941 154.387V150.279H457.319V157H455.941V156.09C455.369 156.818 454.667 157.182 453.822 157.182C452.197 157.182 451.391 156.272 451.391 154.465V150.279ZM462.261 150.097C463.249 150.097 464.016 150.448 464.588 151.15C465.108 151.8 465.368 152.632 465.368 153.672C465.368 154.66 465.108 155.479 464.601 156.129C464.055 156.831 463.288 157.182 462.326 157.182C461.494 157.182 460.818 156.792 460.272 156.012V159.574H458.894V150.279H460.181V151.085C460.649 150.422 461.351 150.097 462.261 150.097ZM462.053 151.215C461.455 151.215 460.987 151.449 460.662 151.93C460.376 152.346 460.233 152.905 460.233 153.594V153.711C460.233 154.426 460.402 155.011 460.766 155.453C461.078 155.856 461.494 156.064 462.014 156.064C462.69 156.064 463.184 155.843 463.509 155.401C463.795 154.985 463.951 154.413 463.951 153.672C463.951 152.931 463.808 152.359 463.548 151.943C463.223 151.449 462.729 151.215 462.053 151.215Z" fill="#465BC7"/>
<path d="M392.526 188.517C392.526 189.072 392.392 189.544 392.123 189.934C391.854 190.315 391.469 190.61 390.966 190.818C390.472 191.026 389.887 191.13 389.211 191.13C388.864 191.13 388.531 191.113 388.21 191.078C387.898 191.043 387.612 190.996 387.352 190.935C387.092 190.866 386.862 190.783 386.663 190.688V189.57C386.975 189.709 387.361 189.834 387.82 189.947C388.288 190.06 388.769 190.116 389.263 190.116C389.722 190.116 390.108 190.055 390.42 189.934C390.732 189.813 390.966 189.639 391.122 189.414C391.278 189.189 391.356 188.924 391.356 188.621C391.356 188.318 391.291 188.062 391.161 187.854C391.031 187.646 390.806 187.455 390.485 187.282C390.173 187.1 389.735 186.909 389.172 186.71C388.773 186.563 388.422 186.407 388.119 186.242C387.824 186.069 387.577 185.874 387.378 185.657C387.179 185.44 387.027 185.193 386.923 184.916C386.828 184.639 386.78 184.318 386.78 183.954C386.78 183.46 386.906 183.04 387.157 182.693C387.408 182.338 387.755 182.065 388.197 181.874C388.648 181.683 389.163 181.588 389.744 181.588C390.255 181.588 390.723 181.636 391.148 181.731C391.573 181.826 391.958 181.952 392.305 182.108L391.941 183.109C391.62 182.97 391.269 182.853 390.888 182.758C390.515 182.663 390.125 182.615 389.718 182.615C389.328 182.615 389.003 182.671 388.743 182.784C388.483 182.897 388.288 183.057 388.158 183.265C388.028 183.464 387.963 183.698 387.963 183.967C387.963 184.279 388.028 184.539 388.158 184.747C388.288 184.955 388.5 185.141 388.795 185.306C389.09 185.471 389.488 185.648 389.991 185.839C390.537 186.038 390.996 186.255 391.369 186.489C391.75 186.714 392.036 186.987 392.227 187.308C392.426 187.629 392.526 188.032 392.526 188.517ZM395.384 184.032V191H394.24V184.032H395.384ZM394.825 181.419C394.998 181.419 395.15 181.48 395.28 181.601C395.418 181.714 395.488 181.896 395.488 182.147C395.488 182.39 395.418 182.572 395.28 182.693C395.15 182.814 394.998 182.875 394.825 182.875C394.634 182.875 394.474 182.814 394.344 182.693C394.214 182.572 394.149 182.39 394.149 182.147C394.149 181.896 394.214 181.714 394.344 181.601C394.474 181.48 394.634 181.419 394.825 181.419ZM402.089 191H396.993V190.246L400.737 184.916H397.214V184.032H401.998V184.89L398.306 190.116H402.089V191ZM406.389 183.902C406.987 183.902 407.498 184.032 407.923 184.292C408.356 184.552 408.685 184.92 408.911 185.397C409.145 185.865 409.262 186.415 409.262 187.048V187.737H404.491C404.508 188.526 404.707 189.128 405.089 189.544C405.479 189.951 406.02 190.155 406.714 190.155C407.156 190.155 407.546 190.116 407.884 190.038C408.23 189.951 408.586 189.83 408.95 189.674V190.675C408.594 190.831 408.243 190.944 407.897 191.013C407.55 191.091 407.138 191.13 406.662 191.13C406.003 191.13 405.418 190.996 404.907 190.727C404.404 190.458 404.01 190.06 403.724 189.531C403.446 188.994 403.308 188.339 403.308 187.568C403.308 186.805 403.433 186.151 403.685 185.605C403.945 185.059 404.304 184.639 404.764 184.344C405.232 184.049 405.773 183.902 406.389 183.902ZM406.376 184.838C405.83 184.838 405.396 185.016 405.076 185.371C404.764 185.718 404.577 186.203 404.517 186.827H408.066C408.066 186.428 408.005 186.082 407.884 185.787C407.762 185.492 407.576 185.263 407.325 185.098C407.082 184.925 406.766 184.838 406.376 184.838Z" fill="#161616"/>
<path d="M445.5 204.5V227.5H386.5V204.5H445.5Z" stroke="#465BC7"/>
<path d="M399.39 211.718H400.794V219.791H405.903V221H399.39V211.718ZM409.97 214.097C410.958 214.097 411.686 214.344 412.154 214.838C412.557 215.267 412.765 215.891 412.765 216.71V221H411.491V220.051C411.231 220.389 410.906 220.662 410.516 220.857C410.074 221.065 409.554 221.182 408.956 221.182C408.254 221.182 407.708 221 407.318 220.649C406.889 220.298 406.681 219.843 406.681 219.284C406.681 218.53 406.98 217.945 407.578 217.542C408.124 217.152 408.904 216.957 409.892 216.931L411.4 216.892V216.619C411.4 215.683 410.893 215.215 409.879 215.215C409.45 215.215 409.099 215.293 408.839 215.449C408.527 215.631 408.332 215.904 408.254 216.281L406.889 216.164C407.032 215.436 407.396 214.89 407.968 214.552C408.462 214.24 409.138 214.097 409.97 214.097ZM411.4 217.893L409.983 217.932C408.722 217.958 408.098 218.4 408.098 219.232C408.098 219.492 408.202 219.7 408.423 219.869C408.631 220.038 408.917 220.129 409.268 220.129C409.853 220.129 410.347 219.947 410.763 219.596C411.179 219.245 411.4 218.803 411.4 218.283V217.893ZM417.463 214.097C417.801 214.097 418.1 214.149 418.334 214.266V215.644C417.996 215.54 417.671 215.501 417.359 215.501C416.943 215.501 416.566 215.67 416.241 216.008C415.89 216.372 415.721 216.853 415.721 217.438V221H414.343V214.279H415.721V215.293C415.89 214.929 416.111 214.656 416.371 214.474C416.683 214.214 417.047 214.097 417.463 214.097ZM421.974 214.097C422.858 214.097 423.534 214.448 424.028 215.176V214.279H425.406V220.558C425.406 222.69 424.353 223.756 422.273 223.756C421.337 223.756 420.622 223.574 420.128 223.223C419.634 222.859 419.335 222.313 419.205 221.572H420.583C420.661 221.962 420.817 222.248 421.077 222.417C421.324 222.573 421.727 222.664 422.273 222.664C423.443 222.664 424.028 222.027 424.028 220.766V219.726C423.534 220.467 422.858 220.844 421.974 220.844C421.064 220.844 420.323 220.532 419.764 219.921C419.192 219.31 418.919 218.504 418.919 217.49C418.919 216.476 419.192 215.67 419.764 215.046C420.323 214.409 421.064 214.097 421.974 214.097ZM422.182 215.215C421.597 215.215 421.142 215.41 420.83 215.826C420.492 216.216 420.336 216.775 420.336 217.49C420.336 218.14 420.466 218.66 420.726 219.037C421.025 219.479 421.506 219.713 422.182 219.713C422.767 219.713 423.222 219.518 423.56 219.128C423.872 218.725 424.041 218.179 424.041 217.49C424.041 216.788 423.872 216.229 423.56 215.826C423.222 215.41 422.767 215.215 422.182 215.215ZM429.809 214.097C430.901 214.097 431.746 214.461 432.318 215.215C432.838 215.891 433.111 216.827 433.124 218.023H428.028C428.08 218.673 428.249 219.18 428.561 219.531C428.873 219.869 429.302 220.051 429.848 220.051C430.329 220.051 430.719 219.934 431.018 219.713C431.252 219.531 431.447 219.232 431.629 218.842H433.007C432.851 219.466 432.552 219.999 432.084 220.415C431.499 220.922 430.758 221.182 429.861 221.182C428.873 221.182 428.08 220.87 427.508 220.259C426.884 219.609 426.572 218.738 426.572 217.633C426.572 216.632 426.858 215.8 427.456 215.124C428.028 214.435 428.821 214.097 429.809 214.097ZM429.848 215.228C429.328 215.228 428.925 215.371 428.613 215.683C428.327 215.982 428.132 216.411 428.054 216.983H431.681C431.551 215.813 430.94 215.228 429.848 215.228Z" fill="#465BC7"/>
<path d="M527.5 204.5V227.5H454.5V204.5H527.5Z" fill="#465BC7" fill-opacity="0.2"/>
<path d="M527.5 204.5V227.5H454.5V204.5H527.5Z" stroke="#465BC7"/>
<path d="M467.3 211.718H468.977L472.214 219.154H472.253L475.477 211.718H477.154V221H475.737V214.37H475.685L472.838 221H471.616L468.769 214.37H468.717V221H467.3V211.718ZM481.697 214.097C482.789 214.097 483.634 214.461 484.206 215.215C484.726 215.891 484.999 216.827 485.012 218.023H479.916C479.968 218.673 480.137 219.18 480.449 219.531C480.761 219.869 481.19 220.051 481.736 220.051C482.217 220.051 482.607 219.934 482.906 219.713C483.14 219.531 483.335 219.232 483.517 218.842H484.895C484.739 219.466 484.44 219.999 483.972 220.415C483.387 220.922 482.646 221.182 481.749 221.182C480.761 221.182 479.968 220.87 479.396 220.259C478.772 219.609 478.46 218.738 478.46 217.633C478.46 216.632 478.746 215.8 479.344 215.124C479.916 214.435 480.709 214.097 481.697 214.097ZM481.736 215.228C481.216 215.228 480.813 215.371 480.501 215.683C480.215 215.982 480.02 216.411 479.942 216.983H483.569C483.439 215.813 482.828 215.228 481.736 215.228ZM491.024 211.536H492.402V221H491.115V220.194C490.647 220.844 489.945 221.182 489.035 221.182C488.047 221.182 487.267 220.831 486.708 220.129C486.188 219.479 485.928 218.634 485.928 217.607C485.928 216.619 486.175 215.8 486.695 215.15C487.241 214.448 488.008 214.097 488.97 214.097C489.789 214.097 490.478 214.487 491.024 215.28V211.536ZM489.282 215.215C488.606 215.215 488.099 215.436 487.774 215.904C487.488 216.294 487.345 216.866 487.345 217.607C487.345 218.348 487.475 218.92 487.748 219.336C488.06 219.817 488.567 220.064 489.243 220.064C489.841 220.064 490.296 219.817 490.634 219.349C490.92 218.92 491.063 218.374 491.063 217.698V217.581C491.063 216.853 490.881 216.268 490.543 215.826C490.205 215.41 489.789 215.215 489.282 215.215ZM494.932 211.588C495.205 211.588 495.439 211.666 495.621 211.848C495.803 212.017 495.894 212.238 495.894 212.511C495.894 212.784 495.79 213.005 495.608 213.187C495.426 213.356 495.192 213.447 494.932 213.447C494.659 213.447 494.438 213.356 494.256 213.187C494.074 213.005 493.983 212.771 493.983 212.511C493.983 212.238 494.074 212.017 494.256 211.848C494.438 211.666 494.659 211.588 494.932 211.588ZM494.243 214.279H495.621V221H494.243V214.279ZM497.487 214.279H498.865V218.374C498.865 218.946 498.982 219.362 499.229 219.622C499.463 219.882 499.853 220.025 500.386 220.025C500.75 220.025 501.075 219.869 501.387 219.583C501.699 219.284 501.92 218.881 502.037 218.387V214.279H503.415V221H502.037V220.09C501.465 220.818 500.763 221.182 499.918 221.182C498.293 221.182 497.487 220.272 497.487 218.465V214.279ZM508.213 214.097C509.201 214.097 509.916 214.474 510.332 215.228C510.631 214.812 510.956 214.513 511.294 214.344C511.606 214.175 511.983 214.097 512.438 214.097C513.127 214.097 513.699 214.318 514.154 214.786C514.596 215.241 514.83 215.839 514.83 216.593V221H513.452V216.827C513.452 216.281 513.335 215.878 513.101 215.631C512.867 215.371 512.477 215.254 511.957 215.254C511.567 215.254 511.255 215.397 510.995 215.683C510.735 215.969 510.605 216.372 510.605 216.866V221H509.227V216.84C509.227 215.774 508.759 215.254 507.849 215.254C507.407 215.254 507.043 215.423 506.783 215.761C506.497 216.086 506.367 216.489 506.367 216.957V221H504.989V214.279H506.367V215.02C506.913 214.396 507.537 214.097 508.213 214.097Z" fill="#465BC7"/>
<path d="M593.5 204.5V227.5H536.5V204.5H593.5Z" stroke="#465BC7"/>
<path d="M552.301 211.536C553.38 211.536 554.225 211.757 554.836 212.225C555.486 212.706 555.85 213.447 555.941 214.461H554.537C554.407 213.863 554.173 213.421 553.809 213.161C553.445 212.888 552.925 212.758 552.223 212.758C551.612 212.758 551.144 212.849 550.819 213.031C550.416 213.239 550.221 213.577 550.221 214.045C550.221 214.461 550.442 214.786 550.91 215.033C551.118 215.15 551.651 215.345 552.522 215.605C553.77 215.995 554.589 216.294 554.953 216.515C555.746 216.996 556.149 217.659 556.149 218.517C556.149 219.349 555.824 219.999 555.174 220.48C554.524 220.948 553.614 221.182 552.444 221.182C551.313 221.182 550.429 220.948 549.792 220.506C549.025 219.96 548.609 219.102 548.531 217.932H549.935C550.039 218.66 550.299 219.193 550.715 219.505C551.092 219.791 551.664 219.934 552.444 219.934C553.146 219.934 553.705 219.804 554.121 219.57C554.537 219.336 554.745 219.011 554.745 218.595C554.745 218.075 554.446 217.672 553.861 217.373C553.653 217.269 553.042 217.061 552.015 216.749C550.871 216.385 550.169 216.138 549.883 215.982C549.168 215.553 548.817 214.929 548.817 214.123C548.817 213.304 549.155 212.667 549.844 212.199C550.494 211.757 551.313 211.536 552.301 211.536ZM560.562 214.097C561.55 214.097 562.265 214.474 562.681 215.228C562.98 214.812 563.305 214.513 563.643 214.344C563.955 214.175 564.332 214.097 564.787 214.097C565.476 214.097 566.048 214.318 566.503 214.786C566.945 215.241 567.179 215.839 567.179 216.593V221H565.801V216.827C565.801 216.281 565.684 215.878 565.45 215.631C565.216 215.371 564.826 215.254 564.306 215.254C563.916 215.254 563.604 215.397 563.344 215.683C563.084 215.969 562.954 216.372 562.954 216.866V221H561.576V216.84C561.576 215.774 561.108 215.254 560.198 215.254C559.756 215.254 559.392 215.423 559.132 215.761C558.846 216.086 558.716 216.489 558.716 216.957V221H557.338V214.279H558.716V215.02C559.262 214.396 559.886 214.097 560.562 214.097ZM571.767 214.097C572.755 214.097 573.483 214.344 573.951 214.838C574.354 215.267 574.562 215.891 574.562 216.71V221H573.288V220.051C573.028 220.389 572.703 220.662 572.313 220.857C571.871 221.065 571.351 221.182 570.753 221.182C570.051 221.182 569.505 221 569.115 220.649C568.686 220.298 568.478 219.843 568.478 219.284C568.478 218.53 568.777 217.945 569.375 217.542C569.921 217.152 570.701 216.957 571.689 216.931L573.197 216.892V216.619C573.197 215.683 572.69 215.215 571.676 215.215C571.247 215.215 570.896 215.293 570.636 215.449C570.324 215.631 570.129 215.904 570.051 216.281L568.686 216.164C568.829 215.436 569.193 214.89 569.765 214.552C570.259 214.24 570.935 214.097 571.767 214.097ZM573.197 217.893L571.78 217.932C570.519 217.958 569.895 218.4 569.895 219.232C569.895 219.492 569.999 219.7 570.22 219.869C570.428 220.038 570.714 220.129 571.065 220.129C571.65 220.129 572.144 219.947 572.56 219.596C572.976 219.245 573.197 218.803 573.197 218.283V217.893ZM576.295 211.536H577.673V221H576.295V211.536ZM579.545 211.536H580.923V221H579.545V211.536Z" fill="#465BC7"/>
</svg>
