<svg width="676" height="399" viewBox="0 0 676 399" fill="none" xmlns="http://www.w3.org/2000/svg">
<mask id="path-1-inside-1_43_6168" fill="white">
<path d="M0 1.99999C0 0.895423 0.895431 0 2 0H314V399H2C0.895426 399 0 398.105 0 397V1.99999Z"/>
</mask>
<path d="M0 1.99999C0 0.895423 0.895431 0 2 0H314V399H2C0.895426 399 0 398.105 0 397V1.99999Z" fill="white"/>
<path d="M-1 2C-1 0.343146 0.343146 -1 2 -1H314V1H2C1.44772 1 1 1.44772 1 2H-1ZM314 400H2C0.343146 400 -1 398.657 -1 397H1C1 397.552 1.44772 398 2 398H314V400ZM2 400C0.343146 400 -1 398.657 -1 397V2C-1 0.343146 0.343146 -1 2 -1V1C1.44772 1 1 1.44772 1 2V397C1 397.552 1.44772 398 2 398V400ZM314 0V399V0Z" fill="#D9D9D9" mask="url(#path-1-inside-1_43_6168)"/>
<path d="M157.75 198.75H164V200.25H157.75V206.5H156.25V200.25H150V198.75H156.25V192.5H157.75V198.75Z" fill="#8F8F8F"/>
<mask id="path-4-inside-2_43_6168" fill="white">
<path d="M314 0H674C675.105 0 676 0.895431 676 2V397C676 398.105 675.105 399 674 399H314V0Z"/>
</mask>
<path d="M314 0H674C675.105 0 676 0.895431 676 2V397C676 398.105 675.105 399 674 399H314V0Z" fill="#F5F5F5"/>
<path d="M314 0V-1H313V0H314ZM314 399H313V400H314V399ZM314 0V1H674V0V-1H314V0ZM676 2H675V397H676H677V2H676ZM674 399V398H314V399V400H674V399ZM314 399H315V0H314H313V399H314ZM676 397H675C675 397.552 674.552 398 674 398V399V400C675.657 400 677 398.657 677 397H676ZM674 0V1C674.552 1 675 1.44772 675 2H676H677C677 0.343143 675.657 -1 674 -1V0Z" fill="#D9D9D9" mask="url(#path-4-inside-2_43_6168)"/>
<path d="M345.8 25.718L342.485 35H341.315L338 25.718H339.222L341.315 31.672C341.41 31.9233 341.493 32.166 341.562 32.4C341.631 32.634 341.692 32.8593 341.744 33.076C341.805 33.284 341.857 33.492 341.9 33.7C341.943 33.492 341.991 33.2797 342.043 33.063C342.104 32.8463 342.169 32.621 342.238 32.387C342.316 32.153 342.398 31.906 342.485 31.646L344.565 25.718H345.8ZM349.285 27.915C350.134 27.915 350.763 28.1013 351.17 28.474C351.577 28.8467 351.781 29.4403 351.781 30.255V35H350.949L350.728 34.012H350.676C350.477 34.2633 350.269 34.4757 350.052 34.649C349.844 34.8137 349.601 34.935 349.324 35.013C349.055 35.091 348.726 35.13 348.336 35.13C347.92 35.13 347.543 35.0563 347.205 34.909C346.876 34.7617 346.616 34.5363 346.425 34.233C346.234 33.921 346.139 33.531 346.139 33.063C346.139 32.3697 346.412 31.8367 346.958 31.464C347.504 31.0827 348.345 30.8747 349.48 30.84L350.663 30.801V30.385C350.663 29.8043 350.537 29.4013 350.286 29.176C350.035 28.9507 349.679 28.838 349.22 28.838C348.856 28.838 348.509 28.8943 348.18 29.007C347.851 29.111 347.543 29.2323 347.257 29.371L346.906 28.513C347.209 28.3483 347.569 28.2097 347.985 28.097C348.401 27.9757 348.834 27.915 349.285 27.915ZM349.623 31.633C348.756 31.6677 348.154 31.8063 347.816 32.049C347.487 32.2917 347.322 32.634 347.322 33.076C347.322 33.466 347.439 33.752 347.673 33.934C347.916 34.116 348.223 34.207 348.596 34.207C349.185 34.207 349.675 34.0467 350.065 33.726C350.455 33.3967 350.65 32.894 350.65 32.218V31.594L349.623 31.633ZM357.183 27.902C357.313 27.902 357.452 27.9107 357.599 27.928C357.755 27.9367 357.889 27.954 358.002 27.98L357.859 29.033C357.746 29.007 357.621 28.9853 357.482 28.968C357.352 28.9507 357.226 28.942 357.105 28.942C356.836 28.942 356.581 28.9983 356.338 29.111C356.095 29.2237 355.879 29.384 355.688 29.592C355.497 29.7913 355.346 30.034 355.233 30.32C355.129 30.606 355.077 30.9267 355.077 31.282V35H353.933V28.032H354.869L354.999 29.306H355.051C355.198 29.046 355.376 28.812 355.584 28.604C355.792 28.3873 356.03 28.2183 356.299 28.097C356.568 27.967 356.862 27.902 357.183 27.902ZM360.447 28.032V35H359.303V28.032H360.447ZM359.888 25.419C360.062 25.419 360.213 25.4797 360.343 25.601C360.482 25.7137 360.551 25.8957 360.551 26.147C360.551 26.3897 360.482 26.5717 360.343 26.693C360.213 26.8143 360.062 26.875 359.888 26.875C359.698 26.875 359.537 26.8143 359.407 26.693C359.277 26.5717 359.212 26.3897 359.212 26.147C359.212 25.8957 359.277 25.7137 359.407 25.601C359.537 25.4797 359.698 25.419 359.888 25.419ZM365.294 27.915C366.143 27.915 366.771 28.1013 367.179 28.474C367.586 28.8467 367.79 29.4403 367.79 30.255V35H366.958L366.737 34.012H366.685C366.485 34.2633 366.277 34.4757 366.061 34.649C365.853 34.8137 365.61 34.935 365.333 35.013C365.064 35.091 364.735 35.13 364.345 35.13C363.929 35.13 363.552 35.0563 363.214 34.909C362.884 34.7617 362.624 34.5363 362.434 34.233C362.243 33.921 362.148 33.531 362.148 33.063C362.148 32.3697 362.421 31.8367 362.967 31.464C363.513 31.0827 364.353 30.8747 365.489 30.84L366.672 30.801V30.385C366.672 29.8043 366.546 29.4013 366.295 29.176C366.043 28.9507 365.688 28.838 365.229 28.838C364.865 28.838 364.518 28.8943 364.189 29.007C363.859 29.111 363.552 29.2323 363.266 29.371L362.915 28.513C363.218 28.3483 363.578 28.2097 363.994 28.097C364.41 27.9757 364.843 27.915 365.294 27.915ZM365.632 31.633C364.765 31.6677 364.163 31.8063 363.825 32.049C363.495 32.2917 363.331 32.634 363.331 33.076C363.331 33.466 363.448 33.752 363.682 33.934C363.924 34.116 364.232 34.207 364.605 34.207C365.194 34.207 365.684 34.0467 366.074 33.726C366.464 33.3967 366.659 32.894 366.659 32.218V31.594L365.632 31.633ZM373.296 27.902C374.128 27.902 374.756 28.1057 375.181 28.513C375.606 28.9117 375.818 29.5617 375.818 30.463V35H374.687V30.541C374.687 29.9777 374.561 29.5573 374.31 29.28C374.059 29.0027 373.664 28.864 373.127 28.864C372.356 28.864 371.823 29.0807 371.528 29.514C371.233 29.9473 371.086 30.5713 371.086 31.386V35H369.942V28.032H370.865L371.034 28.981H371.099C371.255 28.7383 371.446 28.539 371.671 28.383C371.905 28.2183 372.161 28.097 372.438 28.019C372.715 27.941 373.001 27.902 373.296 27.902ZM380.305 34.194C380.478 34.194 380.656 34.181 380.838 34.155C381.02 34.1203 381.167 34.0857 381.28 34.051V34.922C381.159 34.9827 380.985 35.0303 380.76 35.065C380.535 35.1083 380.318 35.13 380.11 35.13C379.746 35.13 379.408 35.0693 379.096 34.948C378.793 34.818 378.546 34.597 378.355 34.285C378.164 33.973 378.069 33.5353 378.069 32.972V28.916H377.081V28.37L378.082 27.915L378.537 26.433H379.213V28.032H381.228V28.916H379.213V32.946C379.213 33.3707 379.313 33.687 379.512 33.895C379.72 34.0943 379.984 34.194 380.305 34.194ZM387.212 33.076C387.212 33.5267 387.1 33.9037 386.874 34.207C386.649 34.5103 386.328 34.74 385.912 34.896C385.496 35.052 385.002 35.13 384.43 35.13C383.945 35.13 383.525 35.091 383.169 35.013C382.823 34.935 382.515 34.8267 382.246 34.688V33.648C382.524 33.7867 382.857 33.9167 383.247 34.038C383.646 34.1507 384.049 34.207 384.456 34.207C385.037 34.207 385.457 34.116 385.717 33.934C385.977 33.7433 386.107 33.492 386.107 33.18C386.107 33.0067 386.06 32.8507 385.964 32.712C385.869 32.5733 385.696 32.4347 385.444 32.296C385.202 32.1573 384.851 32.0013 384.391 31.828C383.941 31.6547 383.555 31.4813 383.234 31.308C382.914 31.1347 382.667 30.9267 382.493 30.684C382.32 30.4413 382.233 30.1293 382.233 29.748C382.233 29.1587 382.472 28.7037 382.948 28.383C383.434 28.0623 384.066 27.902 384.846 27.902C385.271 27.902 385.665 27.9453 386.029 28.032C386.402 28.11 386.749 28.2227 387.069 28.37L386.679 29.28C386.489 29.1933 386.285 29.1197 386.068 29.059C385.86 28.9897 385.648 28.9377 385.431 28.903C385.215 28.8597 384.994 28.838 384.768 28.838C384.3 28.838 383.941 28.916 383.689 29.072C383.447 29.2193 383.325 29.423 383.325 29.683C383.325 29.8737 383.382 30.0383 383.494 30.177C383.607 30.307 383.793 30.437 384.053 30.567C384.322 30.6883 384.677 30.8357 385.119 31.009C385.561 31.1737 385.938 31.3427 386.25 31.516C386.562 31.6893 386.801 31.9017 386.965 32.153C387.13 32.3957 387.212 32.7033 387.212 33.076Z" fill="#161616"/>
<path d="M395.5 48.5V71.5H338.5V48.5H395.5Z" fill="#465BC7" fill-opacity="0.2"/>
<path d="M395.5 48.5V71.5H338.5V48.5H395.5Z" stroke="#465BC7"/>
<path d="M350.981 55.718H355.219C356.129 55.718 356.831 55.926 357.351 56.368C357.845 56.784 358.092 57.343 358.092 58.058C358.092 58.578 357.962 59.02 357.702 59.384C357.442 59.722 357.091 59.982 356.623 60.151C357.234 60.268 357.702 60.515 358.014 60.892C358.326 61.269 358.482 61.776 358.482 62.4C358.482 63.336 358.157 64.012 357.52 64.454C356.974 64.818 356.207 65 355.219 65H350.981V55.718ZM352.398 56.888V59.657H354.842C355.492 59.657 355.96 59.54 356.246 59.319C356.532 59.085 356.675 58.721 356.675 58.227C356.675 57.759 356.532 57.421 356.246 57.213C355.96 56.992 355.492 56.888 354.868 56.888H352.398ZM352.398 60.814V63.83H355.024C355.622 63.83 356.09 63.726 356.428 63.544C356.844 63.297 357.065 62.907 357.065 62.374C357.065 61.828 356.896 61.425 356.571 61.178C356.246 60.931 355.739 60.814 355.063 60.814H352.398ZM362.805 58.097C363.793 58.097 364.521 58.344 364.989 58.838C365.392 59.267 365.6 59.891 365.6 60.71V65H364.326V64.051C364.066 64.389 363.741 64.662 363.351 64.857C362.909 65.065 362.389 65.182 361.791 65.182C361.089 65.182 360.543 65 360.153 64.649C359.724 64.298 359.516 63.843 359.516 63.284C359.516 62.53 359.815 61.945 360.413 61.542C360.959 61.152 361.739 60.957 362.727 60.931L364.235 60.892V60.619C364.235 59.683 363.728 59.215 362.714 59.215C362.285 59.215 361.934 59.293 361.674 59.449C361.362 59.631 361.167 59.904 361.089 60.281L359.724 60.164C359.867 59.436 360.231 58.89 360.803 58.552C361.297 58.24 361.973 58.097 362.805 58.097ZM364.235 61.893L362.818 61.932C361.557 61.958 360.933 62.4 360.933 63.232C360.933 63.492 361.037 63.7 361.258 63.869C361.466 64.038 361.752 64.129 362.103 64.129C362.688 64.129 363.182 63.947 363.598 63.596C364.014 63.245 364.235 62.803 364.235 62.283V61.893ZM369.686 58.097C371.428 58.097 372.39 58.799 372.546 60.216H371.207C371.103 59.852 370.947 59.605 370.726 59.462C370.492 59.306 370.128 59.228 369.66 59.228C369.244 59.228 368.932 59.28 368.724 59.41C368.477 59.54 368.36 59.748 368.36 60.008C368.36 60.242 368.542 60.437 368.906 60.606C369.14 60.71 369.582 60.84 370.258 61.009C371.025 61.191 371.597 61.412 371.961 61.646C372.494 61.984 372.767 62.452 372.767 63.05C372.767 64.467 371.766 65.182 369.777 65.182C367.931 65.182 366.943 64.389 366.787 62.829H368.139C368.217 63.284 368.386 63.609 368.62 63.791C368.854 63.96 369.218 64.051 369.738 64.051C370.804 64.051 371.35 63.739 371.35 63.141C371.35 62.816 371.142 62.556 370.752 62.374C370.544 62.27 370.089 62.14 369.4 61.984C368.607 61.802 368.048 61.607 367.736 61.399C367.216 61.074 366.956 60.619 366.956 60.047C366.956 59.436 367.203 58.955 367.71 58.617C368.217 58.266 368.88 58.097 369.686 58.097ZM374.906 55.588C375.179 55.588 375.413 55.666 375.595 55.848C375.777 56.017 375.868 56.238 375.868 56.511C375.868 56.784 375.764 57.005 375.582 57.187C375.4 57.356 375.166 57.447 374.906 57.447C374.633 57.447 374.412 57.356 374.23 57.187C374.048 57.005 373.957 56.771 373.957 56.511C373.957 56.238 374.048 56.017 374.23 55.848C374.412 55.666 374.633 55.588 374.906 55.588ZM374.217 58.279H375.595V65H374.217V58.279ZM380.45 58.097C381.308 58.097 381.997 58.292 382.517 58.682C383.037 59.098 383.375 59.722 383.505 60.554H382.14C382.049 60.099 381.867 59.761 381.581 59.553C381.295 59.332 380.918 59.228 380.45 59.228C379.878 59.228 379.436 59.436 379.111 59.865C378.773 60.281 378.617 60.879 378.617 61.633C378.617 62.387 378.773 62.985 379.098 63.414C379.397 63.83 379.839 64.051 380.437 64.051C381.464 64.051 382.036 63.531 382.166 62.517H383.531C383.375 63.414 383.024 64.09 382.504 64.532C381.984 64.961 381.282 65.182 380.424 65.182C379.397 65.182 378.604 64.844 378.032 64.168C377.473 63.518 377.2 62.686 377.2 61.646C377.2 60.632 377.473 59.8 378.019 59.15C378.604 58.448 379.41 58.097 380.45 58.097Z" fill="#465BC7"/>
<path d="M489.5 48.5V71.5H404.5V48.5H489.5Z" stroke="#465BC7"/>
<path d="M416.406 55.718H417.94L420.579 63.414H420.618L423.244 55.718H424.778L421.45 65H419.734L416.406 55.718ZM428.656 58.097C429.644 58.097 430.372 58.344 430.84 58.838C431.243 59.267 431.451 59.891 431.451 60.71V65H430.177V64.051C429.917 64.389 429.592 64.662 429.202 64.857C428.76 65.065 428.24 65.182 427.642 65.182C426.94 65.182 426.394 65 426.004 64.649C425.575 64.298 425.367 63.843 425.367 63.284C425.367 62.53 425.666 61.945 426.264 61.542C426.81 61.152 427.59 60.957 428.578 60.931L430.086 60.892V60.619C430.086 59.683 429.579 59.215 428.565 59.215C428.136 59.215 427.785 59.293 427.525 59.449C427.213 59.631 427.018 59.904 426.94 60.281L425.575 60.164C425.718 59.436 426.082 58.89 426.654 58.552C427.148 58.24 427.824 58.097 428.656 58.097ZM430.086 61.893L428.669 61.932C427.408 61.958 426.784 62.4 426.784 63.232C426.784 63.492 426.888 63.7 427.109 63.869C427.317 64.038 427.603 64.129 427.954 64.129C428.539 64.129 429.033 63.947 429.449 63.596C429.865 63.245 430.086 62.803 430.086 62.283V61.893ZM433.184 55.536H434.562V65H433.184V55.536ZM437.253 55.588C437.526 55.588 437.76 55.666 437.942 55.848C438.124 56.017 438.215 56.238 438.215 56.511C438.215 56.784 438.111 57.005 437.929 57.187C437.747 57.356 437.513 57.447 437.253 57.447C436.98 57.447 436.759 57.356 436.577 57.187C436.395 57.005 436.304 56.771 436.304 56.511C436.304 56.238 436.395 56.017 436.577 55.848C436.759 55.666 436.98 55.588 437.253 55.588ZM436.564 58.279H437.942V65H436.564V58.279ZM444.643 55.536H446.021V65H444.734V64.194C444.266 64.844 443.564 65.182 442.654 65.182C441.666 65.182 440.886 64.831 440.327 64.129C439.807 63.479 439.547 62.634 439.547 61.607C439.547 60.619 439.794 59.8 440.314 59.15C440.86 58.448 441.627 58.097 442.589 58.097C443.408 58.097 444.097 58.487 444.643 59.28V55.536ZM442.901 59.215C442.225 59.215 441.718 59.436 441.393 59.904C441.107 60.294 440.964 60.866 440.964 61.607C440.964 62.348 441.094 62.92 441.367 63.336C441.679 63.817 442.186 64.064 442.862 64.064C443.46 64.064 443.915 63.817 444.253 63.349C444.539 62.92 444.682 62.374 444.682 61.698V61.581C444.682 60.853 444.5 60.268 444.162 59.826C443.824 59.41 443.408 59.215 442.901 59.215ZM450.606 58.097C451.594 58.097 452.322 58.344 452.79 58.838C453.193 59.267 453.401 59.891 453.401 60.71V65H452.127V64.051C451.867 64.389 451.542 64.662 451.152 64.857C450.71 65.065 450.19 65.182 449.592 65.182C448.89 65.182 448.344 65 447.954 64.649C447.525 64.298 447.317 63.843 447.317 63.284C447.317 62.53 447.616 61.945 448.214 61.542C448.76 61.152 449.54 60.957 450.528 60.931L452.036 60.892V60.619C452.036 59.683 451.529 59.215 450.515 59.215C450.086 59.215 449.735 59.293 449.475 59.449C449.163 59.631 448.968 59.904 448.89 60.281L447.525 60.164C447.668 59.436 448.032 58.89 448.604 58.552C449.098 58.24 449.774 58.097 450.606 58.097ZM452.036 61.893L450.619 61.932C449.358 61.958 448.734 62.4 448.734 63.232C448.734 63.492 448.838 63.7 449.059 63.869C449.267 64.038 449.553 64.129 449.904 64.129C450.489 64.129 450.983 63.947 451.399 63.596C451.815 63.245 452.036 62.803 452.036 62.283V61.893ZM457.019 56.108V58.279H458.553V59.423H457.019V63.323C457.019 63.505 457.058 63.635 457.136 63.726C457.214 63.804 457.331 63.856 457.5 63.856H458.384V65H457.279C456.707 65 456.278 64.844 456.018 64.545C455.758 64.259 455.641 63.856 455.641 63.323V59.423H454.393V58.279H455.641V56.68L457.019 56.108ZM460.638 55.588C460.911 55.588 461.145 55.666 461.327 55.848C461.509 56.017 461.6 56.238 461.6 56.511C461.6 56.784 461.496 57.005 461.314 57.187C461.132 57.356 460.898 57.447 460.638 57.447C460.365 57.447 460.144 57.356 459.962 57.187C459.78 57.005 459.689 56.771 459.689 56.511C459.689 56.238 459.78 56.017 459.962 55.848C460.144 55.666 460.365 55.588 460.638 55.588ZM459.949 58.279H461.327V65H459.949V58.279ZM466.286 58.097C467.3 58.097 468.119 58.435 468.73 59.111C469.328 59.774 469.64 60.619 469.64 61.646C469.64 62.66 469.341 63.505 468.743 64.155C468.119 64.831 467.3 65.182 466.286 65.182C465.272 65.182 464.453 64.831 463.829 64.155C463.231 63.505 462.932 62.66 462.932 61.646C462.932 60.619 463.231 59.774 463.842 59.111C464.453 58.435 465.272 58.097 466.286 58.097ZM466.286 59.228C465.649 59.228 465.155 59.475 464.804 59.982C464.492 60.411 464.349 60.97 464.349 61.646C464.349 62.322 464.492 62.868 464.804 63.297C465.155 63.791 465.649 64.051 466.286 64.051C466.923 64.051 467.417 63.791 467.781 63.297C468.093 62.855 468.249 62.309 468.249 61.646C468.249 60.97 468.093 60.411 467.781 59.982C467.417 59.475 466.923 59.228 466.286 59.228ZM474.355 58.097C476.019 58.097 476.864 59.007 476.864 60.853V65H475.486V60.97C475.486 59.826 474.953 59.254 473.913 59.254C473.523 59.254 473.172 59.384 472.886 59.67C472.574 59.982 472.379 60.411 472.327 60.957V65H470.949V58.279H472.327V59.111C472.587 58.773 472.886 58.526 473.224 58.357C473.562 58.175 473.939 58.097 474.355 58.097Z" fill="#465BC7"/>
<path d="M571.5 48.5V71.5H498.5V48.5H571.5Z" stroke="#465BC7"/>
<path d="M511.205 55.718H512.609V63.791H517.718V65H511.205V55.718ZM521.85 58.097C522.864 58.097 523.683 58.435 524.294 59.111C524.892 59.774 525.204 60.619 525.204 61.646C525.204 62.66 524.905 63.505 524.307 64.155C523.683 64.831 522.864 65.182 521.85 65.182C520.836 65.182 520.017 64.831 519.393 64.155C518.795 63.505 518.496 62.66 518.496 61.646C518.496 60.619 518.795 59.774 519.406 59.111C520.017 58.435 520.836 58.097 521.85 58.097ZM521.85 59.228C521.213 59.228 520.719 59.475 520.368 59.982C520.056 60.411 519.913 60.97 519.913 61.646C519.913 62.322 520.056 62.868 520.368 63.297C520.719 63.791 521.213 64.051 521.85 64.051C522.487 64.051 522.981 63.791 523.345 63.297C523.657 62.855 523.813 62.309 523.813 61.646C523.813 60.97 523.657 60.411 523.345 59.982C522.981 59.475 522.487 59.228 521.85 59.228ZM529.541 58.097C530.529 58.097 531.257 58.344 531.725 58.838C532.128 59.267 532.336 59.891 532.336 60.71V65H531.062V64.051C530.802 64.389 530.477 64.662 530.087 64.857C529.645 65.065 529.125 65.182 528.527 65.182C527.825 65.182 527.279 65 526.889 64.649C526.46 64.298 526.252 63.843 526.252 63.284C526.252 62.53 526.551 61.945 527.149 61.542C527.695 61.152 528.475 60.957 529.463 60.931L530.971 60.892V60.619C530.971 59.683 530.464 59.215 529.45 59.215C529.021 59.215 528.67 59.293 528.41 59.449C528.098 59.631 527.903 59.904 527.825 60.281L526.46 60.164C526.603 59.436 526.967 58.89 527.539 58.552C528.033 58.24 528.709 58.097 529.541 58.097ZM530.971 61.893L529.554 61.932C528.293 61.958 527.669 62.4 527.669 63.232C527.669 63.492 527.773 63.7 527.994 63.869C528.202 64.038 528.488 64.129 528.839 64.129C529.424 64.129 529.918 63.947 530.334 63.596C530.75 63.245 530.971 62.803 530.971 62.283V61.893ZM538.75 55.536H540.128V65H538.841V64.194C538.373 64.844 537.671 65.182 536.761 65.182C535.773 65.182 534.993 64.831 534.434 64.129C533.914 63.479 533.654 62.634 533.654 61.607C533.654 60.619 533.901 59.8 534.421 59.15C534.967 58.448 535.734 58.097 536.696 58.097C537.515 58.097 538.204 58.487 538.75 59.28V55.536ZM537.008 59.215C536.332 59.215 535.825 59.436 535.5 59.904C535.214 60.294 535.071 60.866 535.071 61.607C535.071 62.348 535.201 62.92 535.474 63.336C535.786 63.817 536.293 64.064 536.969 64.064C537.567 64.064 538.022 63.817 538.36 63.349C538.646 62.92 538.789 62.374 538.789 61.698V61.581C538.789 60.853 538.607 60.268 538.269 59.826C537.931 59.41 537.515 59.215 537.008 59.215ZM542.658 55.588C542.931 55.588 543.165 55.666 543.347 55.848C543.529 56.017 543.62 56.238 543.62 56.511C543.62 56.784 543.516 57.005 543.334 57.187C543.152 57.356 542.918 57.447 542.658 57.447C542.385 57.447 542.164 57.356 541.982 57.187C541.8 57.005 541.709 56.771 541.709 56.511C541.709 56.238 541.8 56.017 541.982 55.848C542.164 55.666 542.385 55.588 542.658 55.588ZM541.969 58.279H543.347V65H541.969V58.279ZM548.619 58.097C550.283 58.097 551.128 59.007 551.128 60.853V65H549.75V60.97C549.75 59.826 549.217 59.254 548.177 59.254C547.787 59.254 547.436 59.384 547.15 59.67C546.838 59.982 546.643 60.411 546.591 60.957V65H545.213V58.279H546.591V59.111C546.851 58.773 547.15 58.526 547.488 58.357C547.826 58.175 548.203 58.097 548.619 58.097ZM555.498 58.097C556.382 58.097 557.058 58.448 557.552 59.176V58.279H558.93V64.558C558.93 66.69 557.877 67.756 555.797 67.756C554.861 67.756 554.146 67.574 553.652 67.223C553.158 66.859 552.859 66.313 552.729 65.572H554.107C554.185 65.962 554.341 66.248 554.601 66.417C554.848 66.573 555.251 66.664 555.797 66.664C556.967 66.664 557.552 66.027 557.552 64.766V63.726C557.058 64.467 556.382 64.844 555.498 64.844C554.588 64.844 553.847 64.532 553.288 63.921C552.716 63.31 552.443 62.504 552.443 61.49C552.443 60.476 552.716 59.67 553.288 59.046C553.847 58.409 554.588 58.097 555.498 58.097ZM555.706 59.215C555.121 59.215 554.666 59.41 554.354 59.826C554.016 60.216 553.86 60.775 553.86 61.49C553.86 62.14 553.99 62.66 554.25 63.037C554.549 63.479 555.03 63.713 555.706 63.713C556.291 63.713 556.746 63.518 557.084 63.128C557.396 62.725 557.565 62.179 557.565 61.49C557.565 60.788 557.396 60.229 557.084 59.826C556.746 59.41 556.291 59.215 555.706 59.215Z" fill="#465BC7"/>
<path d="M341.874 99H338.52V98.324L339.612 98.077V90.654L338.52 90.394V89.718H341.874V90.394L340.782 90.654V98.077L341.874 98.324V99ZM346.305 99.13C345.69 99.13 345.14 99.0043 344.654 98.753C344.178 98.5017 343.801 98.1117 343.523 97.583C343.255 97.0543 343.12 96.3783 343.12 95.555C343.12 94.697 343.263 93.9993 343.549 93.462C343.835 92.9247 344.221 92.5303 344.706 92.279C345.2 92.0277 345.759 91.902 346.383 91.902C346.739 91.902 347.081 91.941 347.41 92.019C347.74 92.0883 348.008 92.175 348.216 92.279L347.865 93.228C347.657 93.15 347.415 93.0763 347.137 93.007C346.86 92.9377 346.6 92.903 346.357 92.903C345.889 92.903 345.504 93.0027 345.2 93.202C344.897 93.4013 344.672 93.696 344.524 94.086C344.377 94.476 344.303 94.9613 344.303 95.542C344.303 96.0967 344.377 96.569 344.524 96.959C344.672 97.349 344.893 97.6437 345.187 97.843C345.482 98.0423 345.85 98.142 346.292 98.142C346.674 98.142 347.007 98.103 347.293 98.025C347.588 97.947 347.857 97.8517 348.099 97.739V98.753C347.865 98.8743 347.605 98.9653 347.319 99.026C347.042 99.0953 346.704 99.13 346.305 99.13ZM355.814 95.503C355.814 96.0837 355.736 96.5993 355.58 97.05C355.433 97.492 355.216 97.869 354.93 98.181C354.653 98.493 354.311 98.7313 353.903 98.896C353.505 99.052 353.058 99.13 352.564 99.13C352.105 99.13 351.68 99.052 351.29 98.896C350.9 98.7313 350.562 98.493 350.276 98.181C349.99 97.869 349.765 97.492 349.6 97.05C349.444 96.5993 349.366 96.0837 349.366 95.503C349.366 94.7317 349.496 94.0817 349.756 93.553C350.016 93.0157 350.389 92.6083 350.874 92.331C351.36 92.045 351.936 91.902 352.603 91.902C353.236 91.902 353.791 92.045 354.267 92.331C354.753 92.6083 355.13 93.0157 355.398 93.553C355.676 94.0817 355.814 94.7317 355.814 95.503ZM350.549 95.503C350.549 96.049 350.619 96.5257 350.757 96.933C350.905 97.3317 351.13 97.6393 351.433 97.856C351.737 98.0727 352.122 98.181 352.59 98.181C353.058 98.181 353.444 98.0727 353.747 97.856C354.051 97.6393 354.272 97.3317 354.41 96.933C354.558 96.5257 354.631 96.049 354.631 95.503C354.631 94.9483 354.558 94.476 354.41 94.086C354.263 93.696 354.038 93.397 353.734 93.189C353.44 92.9723 353.054 92.864 352.577 92.864C351.867 92.864 351.351 93.098 351.03 93.566C350.71 94.034 350.549 94.6797 350.549 95.503ZM360.981 91.902C361.813 91.902 362.442 92.1057 362.866 92.513C363.291 92.9117 363.503 93.5617 363.503 94.463V99H362.372V94.541C362.372 93.9777 362.247 93.5573 361.995 93.28C361.744 93.0027 361.35 92.864 360.812 92.864C360.041 92.864 359.508 93.0807 359.213 93.514C358.919 93.9473 358.771 94.5713 358.771 95.386V99H357.627V92.032H358.55L358.719 92.981H358.784C358.94 92.7383 359.131 92.539 359.356 92.383C359.59 92.2183 359.846 92.097 360.123 92.019C360.401 91.941 360.687 91.902 360.981 91.902Z" fill="#161616"/>
<path d="M469.5 112.5V135.5H338.5V112.5H469.5Z" fill="white"/>
<path d="M469.5 112.5V135.5H338.5V112.5H469.5Z" stroke="#D9D9D9"/>
<path d="M350.936 119.718H354.732C356.864 119.718 357.93 120.628 357.93 122.448C357.93 124.281 356.851 125.204 354.719 125.204H352.002V129H350.936V119.718ZM352.002 120.641V124.281H354.667C355.421 124.281 355.967 124.125 356.331 123.826C356.682 123.527 356.864 123.072 356.864 122.448C356.864 121.824 356.682 121.369 356.318 121.096C355.954 120.784 355.408 120.641 354.667 120.641H352.002ZM359.355 119.536H360.382V129H359.355V119.536ZM362.206 122.279H363.246V126.387C363.246 127.024 363.376 127.505 363.649 127.817C363.922 128.129 364.364 128.298 364.975 128.298C365.417 128.298 365.82 128.116 366.171 127.778C366.535 127.414 366.756 126.946 366.834 126.374V122.279H367.874V129H366.834V127.96C366.288 128.766 365.56 129.182 364.65 129.182C363.012 129.182 362.206 128.259 362.206 126.439V122.279ZM371.86 122.097C373.524 122.097 374.434 122.786 374.616 124.19H373.602C373.511 123.774 373.342 123.462 373.082 123.28C372.796 123.072 372.38 122.968 371.847 122.968C371.379 122.968 371.015 123.046 370.755 123.228C370.469 123.397 370.326 123.631 370.326 123.93C370.326 124.216 370.508 124.463 370.898 124.658C371.145 124.775 371.613 124.918 372.289 125.1C373.095 125.295 373.667 125.503 374.018 125.724C374.551 126.062 374.824 126.517 374.824 127.102C374.824 128.48 373.875 129.182 371.977 129.182C370.209 129.182 369.247 128.402 369.091 126.855H370.105C370.183 127.388 370.378 127.765 370.664 127.999C370.95 128.207 371.379 128.311 371.951 128.311C373.147 128.311 373.758 127.921 373.758 127.167C373.758 126.79 373.537 126.504 373.121 126.296C372.9 126.192 372.419 126.049 371.691 125.867C370.898 125.672 370.339 125.477 370.027 125.269C369.507 124.957 369.26 124.528 369.26 123.956C369.26 123.384 369.507 122.942 370.014 122.604C370.482 122.266 371.106 122.097 371.86 122.097Z" fill="#161616"/>
<path fill-rule="evenodd" clip-rule="evenodd" d="M454 126.667L449.333 121.987L449.984 121.333H449.985L454 125.361L458.016 121.333H458.017L458.667 121.986V121.987L454 126.667Z" fill="#8F8F8F"/>
<path d="M344.526 160.517C344.526 161.072 344.392 161.544 344.123 161.934C343.854 162.315 343.469 162.61 342.966 162.818C342.472 163.026 341.887 163.13 341.211 163.13C340.864 163.13 340.531 163.113 340.21 163.078C339.898 163.043 339.612 162.996 339.352 162.935C339.092 162.866 338.862 162.783 338.663 162.688V161.57C338.975 161.709 339.361 161.834 339.82 161.947C340.288 162.06 340.769 162.116 341.263 162.116C341.722 162.116 342.108 162.055 342.42 161.934C342.732 161.813 342.966 161.639 343.122 161.414C343.278 161.189 343.356 160.924 343.356 160.621C343.356 160.318 343.291 160.062 343.161 159.854C343.031 159.646 342.806 159.455 342.485 159.282C342.173 159.1 341.735 158.909 341.172 158.71C340.773 158.563 340.422 158.407 340.119 158.242C339.824 158.069 339.577 157.874 339.378 157.657C339.179 157.44 339.027 157.193 338.923 156.916C338.828 156.639 338.78 156.318 338.78 155.954C338.78 155.46 338.906 155.04 339.157 154.693C339.408 154.338 339.755 154.065 340.197 153.874C340.648 153.683 341.163 153.588 341.744 153.588C342.255 153.588 342.723 153.636 343.148 153.731C343.573 153.826 343.958 153.952 344.305 154.108L343.941 155.109C343.62 154.97 343.269 154.853 342.888 154.758C342.515 154.663 342.125 154.615 341.718 154.615C341.328 154.615 341.003 154.671 340.743 154.784C340.483 154.897 340.288 155.057 340.158 155.265C340.028 155.464 339.963 155.698 339.963 155.967C339.963 156.279 340.028 156.539 340.158 156.747C340.288 156.955 340.5 157.141 340.795 157.306C341.09 157.471 341.488 157.648 341.991 157.839C342.537 158.038 342.996 158.255 343.369 158.489C343.75 158.714 344.036 158.987 344.227 159.308C344.426 159.629 344.526 160.032 344.526 160.517ZM347.384 156.032V163H346.24V156.032H347.384ZM346.825 153.419C346.998 153.419 347.15 153.48 347.28 153.601C347.418 153.714 347.488 153.896 347.488 154.147C347.488 154.39 347.418 154.572 347.28 154.693C347.15 154.814 346.998 154.875 346.825 154.875C346.634 154.875 346.474 154.814 346.344 154.693C346.214 154.572 346.149 154.39 346.149 154.147C346.149 153.896 346.214 153.714 346.344 153.601C346.474 153.48 346.634 153.419 346.825 153.419ZM354.089 163H348.993V162.246L352.737 156.916H349.214V156.032H353.998V156.89L350.306 162.116H354.089V163ZM358.389 155.902C358.987 155.902 359.498 156.032 359.923 156.292C360.356 156.552 360.685 156.92 360.911 157.397C361.145 157.865 361.262 158.415 361.262 159.048V159.737H356.491C356.508 160.526 356.707 161.128 357.089 161.544C357.479 161.951 358.02 162.155 358.714 162.155C359.156 162.155 359.546 162.116 359.884 162.038C360.23 161.951 360.586 161.83 360.95 161.674V162.675C360.594 162.831 360.243 162.944 359.897 163.013C359.55 163.091 359.138 163.13 358.662 163.13C358.003 163.13 357.418 162.996 356.907 162.727C356.404 162.458 356.01 162.06 355.724 161.531C355.446 160.994 355.308 160.339 355.308 159.568C355.308 158.805 355.433 158.151 355.685 157.605C355.945 157.059 356.304 156.639 356.764 156.344C357.232 156.049 357.773 155.902 358.389 155.902ZM358.376 156.838C357.83 156.838 357.396 157.016 357.076 157.371C356.764 157.718 356.577 158.203 356.517 158.827H360.066C360.066 158.428 360.005 158.082 359.884 157.787C359.762 157.492 359.576 157.263 359.325 157.098C359.082 156.925 358.766 156.838 358.376 156.838Z" fill="#161616"/>
<path d="M469.5 176.5V199.5H338.5V176.5H469.5Z" fill="white"/>
<path d="M469.5 176.5V199.5H338.5V176.5H469.5Z" stroke="#D9D9D9"/>
<rect x="345.333" y="187.5" width="9.33333" height="1" fill="#8F8F8F"/>
<path d="M400.484 183.718H401.316V193H400.25V185.018C399.665 185.616 398.937 186.032 398.066 186.292V185.226C398.482 185.109 398.924 184.927 399.366 184.667C399.808 184.381 400.172 184.069 400.484 183.718ZM406.741 183.536C408.457 183.536 409.445 184.355 409.705 186.019H408.652C408.444 184.953 407.807 184.433 406.728 184.433C406 184.433 405.428 184.784 405.012 185.512C404.596 186.188 404.401 187.059 404.401 188.112C404.401 188.164 404.401 188.281 404.414 188.45H404.466C404.7 187.969 405.025 187.592 405.467 187.332C405.883 187.059 406.364 186.929 406.91 186.929C407.794 186.929 408.509 187.215 409.055 187.787C409.588 188.359 409.861 189.087 409.861 189.997C409.861 190.907 409.562 191.674 408.977 192.272C408.379 192.87 407.638 193.182 406.728 193.182C405.597 193.182 404.752 192.753 404.18 191.921C403.634 191.128 403.374 190.023 403.374 188.606C403.374 187.124 403.66 185.915 404.245 184.992C404.856 184.017 405.688 183.536 406.741 183.536ZM406.702 187.813C406.091 187.813 405.584 188.021 405.181 188.437C404.778 188.853 404.583 189.373 404.583 190.023C404.583 190.673 404.765 191.206 405.155 191.622C405.545 192.064 406.052 192.285 406.702 192.285C407.326 192.285 407.833 192.064 408.223 191.648C408.613 191.206 408.808 190.66 408.808 189.997C408.808 189.334 408.613 188.814 408.236 188.424C407.846 188.008 407.339 187.813 406.702 187.813Z" fill="#161616"/>
<path d="M458.5 187.5H462.666V188.5H458.5V192.666H457.5V188.5H453.333V187.5H457.5V183.333H458.5V187.5Z" fill="#8F8F8F"/>
<path d="M343.239 218.615C342.745 218.615 342.299 218.702 341.9 218.875C341.501 219.04 341.163 219.287 340.886 219.616C340.609 219.937 340.396 220.331 340.249 220.799C340.102 221.258 340.028 221.778 340.028 222.359C340.028 223.122 340.145 223.785 340.379 224.348C340.622 224.911 340.977 225.345 341.445 225.648C341.922 225.951 342.515 226.103 343.226 226.103C343.633 226.103 344.019 226.068 344.383 225.999C344.747 225.93 345.102 225.843 345.449 225.739V226.753C345.102 226.883 344.743 226.978 344.37 227.039C344.006 227.1 343.568 227.13 343.057 227.13C342.112 227.13 341.324 226.935 340.691 226.545C340.058 226.155 339.582 225.6 339.261 224.881C338.949 224.162 338.793 223.317 338.793 222.346C338.793 221.644 338.888 221.003 339.079 220.422C339.278 219.841 339.564 219.339 339.937 218.914C340.318 218.489 340.786 218.164 341.341 217.939C341.896 217.705 342.533 217.588 343.252 217.588C343.729 217.588 344.188 217.636 344.63 217.731C345.072 217.826 345.466 217.961 345.813 218.134L345.345 219.122C345.059 218.992 344.738 218.875 344.383 218.771C344.036 218.667 343.655 218.615 343.239 218.615ZM353.377 223.503C353.377 224.084 353.299 224.599 353.143 225.05C352.996 225.492 352.779 225.869 352.493 226.181C352.216 226.493 351.873 226.731 351.466 226.896C351.067 227.052 350.621 227.13 350.127 227.13C349.668 227.13 349.243 227.052 348.853 226.896C348.463 226.731 348.125 226.493 347.839 226.181C347.553 225.869 347.328 225.492 347.163 225.05C347.007 224.599 346.929 224.084 346.929 223.503C346.929 222.732 347.059 222.082 347.319 221.553C347.579 221.016 347.952 220.608 348.437 220.331C348.922 220.045 349.499 219.902 350.166 219.902C350.799 219.902 351.353 220.045 351.83 220.331C352.315 220.608 352.692 221.016 352.961 221.553C353.238 222.082 353.377 222.732 353.377 223.503ZM348.112 223.503C348.112 224.049 348.181 224.526 348.32 224.933C348.467 225.332 348.693 225.639 348.996 225.856C349.299 226.073 349.685 226.181 350.153 226.181C350.621 226.181 351.007 226.073 351.31 225.856C351.613 225.639 351.834 225.332 351.973 224.933C352.12 224.526 352.194 224.049 352.194 223.503C352.194 222.948 352.12 222.476 351.973 222.086C351.826 221.696 351.6 221.397 351.297 221.189C351.002 220.972 350.617 220.864 350.14 220.864C349.429 220.864 348.914 221.098 348.593 221.566C348.272 222.034 348.112 222.68 348.112 223.503ZM356.334 227H355.19V217.12H356.334V227ZM364.6 223.503C364.6 224.084 364.522 224.599 364.366 225.05C364.218 225.492 364.002 225.869 363.716 226.181C363.438 226.493 363.096 226.731 362.689 226.896C362.29 227.052 361.844 227.13 361.35 227.13C360.89 227.13 360.466 227.052 360.076 226.896C359.686 226.731 359.348 226.493 359.062 226.181C358.776 225.869 358.55 225.492 358.386 225.05C358.23 224.599 358.152 224.084 358.152 223.503C358.152 222.732 358.282 222.082 358.542 221.553C358.802 221.016 359.174 220.608 359.66 220.331C360.145 220.045 360.721 219.902 361.389 219.902C362.021 219.902 362.576 220.045 363.053 220.331C363.538 220.608 363.915 221.016 364.184 221.553C364.461 222.082 364.6 222.732 364.6 223.503ZM359.335 223.503C359.335 224.049 359.404 224.526 359.543 224.933C359.69 225.332 359.915 225.639 360.219 225.856C360.522 226.073 360.908 226.181 361.376 226.181C361.844 226.181 362.229 226.073 362.533 225.856C362.836 225.639 363.057 225.332 363.196 224.933C363.343 224.526 363.417 224.049 363.417 223.503C363.417 222.948 363.343 222.476 363.196 222.086C363.048 221.696 362.823 221.397 362.52 221.189C362.225 220.972 361.839 220.864 361.363 220.864C360.652 220.864 360.136 221.098 359.816 221.566C359.495 222.034 359.335 222.68 359.335 223.503ZM369.663 219.902C369.793 219.902 369.931 219.911 370.079 219.928C370.235 219.937 370.369 219.954 370.482 219.98L370.339 221.033C370.226 221.007 370.1 220.985 369.962 220.968C369.832 220.951 369.706 220.942 369.585 220.942C369.316 220.942 369.06 220.998 368.818 221.111C368.575 221.224 368.358 221.384 368.168 221.592C367.977 221.791 367.825 222.034 367.713 222.32C367.609 222.606 367.557 222.927 367.557 223.282V227H366.413V220.032H367.349L367.479 221.306H367.531C367.678 221.046 367.856 220.812 368.064 220.604C368.272 220.387 368.51 220.218 368.779 220.097C369.047 219.967 369.342 219.902 369.663 219.902Z" fill="#161616"/>
<path d="M469.5 240.5V263.5H338.5V240.5H469.5Z" fill="white"/>
<path d="M469.5 240.5V263.5H338.5V240.5H469.5Z" stroke="#D9D9D9"/>
<path d="M350.936 247.718H354.732C356.864 247.718 357.93 248.628 357.93 250.448C357.93 252.281 356.851 253.204 354.719 253.204H352.002V257H350.936V247.718ZM352.002 248.641V252.281H354.667C355.421 252.281 355.967 252.125 356.331 251.826C356.682 251.527 356.864 251.072 356.864 250.448C356.864 249.824 356.682 249.369 356.318 249.096C355.954 248.784 355.408 248.641 354.667 248.641H352.002ZM362.098 250.097C362.462 250.097 362.774 250.149 363.021 250.253V251.293C362.683 251.189 362.345 251.15 362.02 251.15C361.5 251.15 361.058 251.371 360.707 251.839C360.343 252.281 360.174 252.814 360.174 253.438V257H359.147V250.279H360.174V251.449C360.356 251.059 360.59 250.747 360.876 250.526C361.227 250.24 361.63 250.097 362.098 250.097ZM364.753 247.744C364.974 247.744 365.156 247.809 365.312 247.965C365.468 248.095 365.546 248.277 365.546 248.511C365.546 248.732 365.468 248.914 365.312 249.07C365.156 249.213 364.974 249.291 364.753 249.291C364.532 249.291 364.35 249.213 364.194 249.07C364.038 248.914 363.973 248.732 363.973 248.511C363.973 248.277 364.038 248.095 364.194 247.965C364.35 247.809 364.532 247.744 364.753 247.744ZM364.233 250.279H365.273V257H364.233V250.279ZM370.159 250.097C371.186 250.097 371.888 250.513 372.265 251.371C372.525 250.929 372.837 250.604 373.201 250.409C373.526 250.201 373.916 250.097 374.384 250.097C375.086 250.097 375.645 250.318 376.087 250.76C376.503 251.215 376.724 251.826 376.724 252.593V257H375.684V252.762C375.684 252.164 375.554 251.722 375.307 251.436C375.047 251.124 374.631 250.981 374.059 250.981C373.617 250.981 373.24 251.137 372.954 251.475C372.642 251.813 372.499 252.242 372.499 252.788V257H371.459V252.762C371.459 251.566 370.939 250.981 369.912 250.981C369.431 250.981 369.041 251.163 368.729 251.553C368.417 251.917 368.261 252.372 368.261 252.905V257H367.221V250.279H368.261V251.176C368.768 250.448 369.405 250.097 370.159 250.097ZM381.267 250.097C382.229 250.097 382.931 250.344 383.399 250.851C383.789 251.293 383.997 251.904 383.997 252.684V257H383.022V255.869C382.762 256.233 382.411 256.532 381.995 256.766C381.501 257.039 380.942 257.182 380.318 257.182C379.642 257.182 379.109 257.013 378.706 256.675C378.29 256.324 378.082 255.869 378.082 255.323C378.082 254.556 378.381 253.984 379.005 253.594C379.551 253.23 380.331 253.035 381.345 253.022L382.957 252.996V252.645C382.957 251.514 382.372 250.955 381.202 250.955C380.708 250.955 380.305 251.046 379.993 251.254C379.642 251.462 379.421 251.787 379.317 252.216L378.29 252.138C378.433 251.436 378.784 250.903 379.33 250.565C379.824 250.253 380.461 250.097 381.267 250.097ZM382.957 253.776L381.41 253.802C379.902 253.828 379.148 254.322 379.148 255.297C379.148 255.609 379.265 255.856 379.525 256.064C379.785 256.259 380.123 256.363 380.539 256.363C381.176 256.363 381.735 256.155 382.229 255.739C382.71 255.336 382.957 254.868 382.957 254.348V253.776ZM388.555 250.097C388.919 250.097 389.231 250.149 389.478 250.253V251.293C389.14 251.189 388.802 251.15 388.477 251.15C387.957 251.15 387.515 251.371 387.164 251.839C386.8 252.281 386.631 252.814 386.631 253.438V257H385.604V250.279H386.631V251.449C386.813 251.059 387.047 250.747 387.333 250.526C387.684 250.24 388.087 250.097 388.555 250.097ZM389.611 250.279H390.742L392.796 255.583L394.785 250.279H395.929L392.25 259.574H391.119L392.276 256.844L389.611 250.279Z" fill="#161616"/>
<path fill-rule="evenodd" clip-rule="evenodd" d="M454 254.667L449.333 249.987L449.984 249.333H449.985L454 253.361L458.016 249.333H458.017L458.667 249.986V249.987L454 254.667Z" fill="#8F8F8F"/>
</svg>
