<svg width="780" height="120" viewBox="0 0 780 120" fill="none" xmlns="http://www.w3.org/2000/svg">
<mask id="path-2-inside-1_88_3863" fill="white">
<path d="M0 2C0 0.895431 0.895431 0 2 0H778C779.105 0 780 0.895431 780 2V72H0V2Z"/>
</mask>
<path d="M0 2C0 0.895431 0.895431 0 2 0H778C779.105 0 780 0.895431 780 2V72H0V2Z" fill="white"/>
<path d="M-1 2C-1 0.343146 0.343146 -1 2 -1H778C779.657 -1 781 0.343146 781 2H779C779 1.44772 778.552 1 778 1H2C1.44772 1 1 1.44772 1 2H-1ZM780 72H0H780ZM-1 72V2C-1 0.343146 0.343146 -1 2 -1V1C1.44772 1 1 1.44772 1 2V72H-1ZM778 -1C779.657 -1 781 0.343146 781 2V72H779V2C779 1.44772 778.552 1 778 1V-1Z" fill="#D9D9D9" mask="url(#path-2-inside-1_88_3863)"/>
<path d="M43.9 31.07C43.195 32.21 42.385 33.215 41.455 34.055L40.765 33.215C42.055 32.045 43.105 30.53 43.93 28.64L45.025 28.895C44.845 29.285 44.665 29.675 44.485 30.035H53.725V31.07H43.9ZM46.315 37.085C47.425 37.475 48.43 37.94 49.345 38.495L48.835 39.275C47.845 38.645 46.84 38.15 45.82 37.79L46.315 37.085ZM42.49 40.355C42.715 39.185 42.895 37.985 43.03 36.785H40.6V35.765H43.135C43.24 34.625 43.3 33.47 43.33 32.315H52.645L52.54 35.765H54.43V36.785H52.495C52.45 37.835 52.405 38.69 52.375 39.35H54.025V40.355H52.3C52.27 40.745 52.225 41 52.195 41.12C52.06 41.585 51.805 41.93 51.415 42.17C51.055 42.38 50.5 42.485 49.78 42.485C49.27 42.485 48.67 42.5 48.01 42.5L47.68 41.495C48.4 41.525 49.045 41.555 49.615 41.555C49.975 41.555 50.29 41.51 50.56 41.435C50.83 41.33 51.04 41.105 51.175 40.775C51.205 40.715 51.22 40.565 51.25 40.355H42.49ZM51.34 39.35C51.37 38.69 51.415 37.835 51.46 36.785H44.11C44.005 37.715 43.885 38.57 43.735 39.35H51.34ZM44.215 35.765H48.88C47.92 35.165 46.93 34.685 45.94 34.325L46.435 33.605C47.53 33.995 48.535 34.46 49.435 35.015L48.94 35.765H51.49C51.52 35.015 51.535 34.205 51.565 33.32H44.35C44.32 34.19 44.275 35 44.215 35.765ZM57.64 31.67H61.54C61.675 31.22 61.78 30.77 61.84 30.305H56.065V29.315H68.935V30.305H62.92C62.845 30.785 62.755 31.235 62.635 31.67H67.6V39.86H57.64V31.67ZM66.535 38.855V37.34H58.69V38.855H66.535ZM58.69 36.41H66.535V34.97H58.69V36.41ZM58.69 34.04H66.535V32.66H58.69V34.04ZM64.36 40.025C66.145 40.46 67.78 41 69.25 41.63L68.68 42.5C67.105 41.765 65.5 41.195 63.85 40.775L64.36 40.025ZM60.55 40.055L61.12 40.79C59.965 41.51 58.315 42.08 56.17 42.53L55.66 41.645C57.805 41.24 59.44 40.715 60.55 40.055ZM71.41 29.285H77.17V33.53H71.41V29.285ZM76.21 32.705V31.775H72.37V32.705H76.21ZM72.37 31.04H76.21V30.11H72.37V31.04ZM71.425 39.635L72.295 39.725C72.19 40.805 71.95 41.75 71.575 42.575L70.66 42.275C71.065 41.51 71.32 40.625 71.425 39.635ZM73.825 39.65C74.005 40.43 74.155 41.285 74.305 42.2L73.435 42.395C73.315 41.42 73.18 40.565 73 39.815L73.825 39.65ZM75.46 39.545C75.745 40.295 76 41.105 76.225 42.005L75.385 42.185C75.19 41.255 74.95 40.415 74.68 39.695L75.46 39.545ZM77.035 39.275C77.38 39.86 77.68 40.49 77.935 41.165L77.185 41.51C76.9 40.76 76.6 40.1 76.285 39.53L77.035 39.275ZM73.705 36.785C73.945 37.475 74.17 38.21 74.365 38.99L73.66 39.305C73.6 39.065 73.555 38.825 73.495 38.6C72.595 38.795 71.77 38.945 71.02 39.05L70.855 38.3C71.275 38.045 71.8 37.415 72.445 36.425C71.95 36.5 71.44 36.56 70.9 36.62L70.735 35.99C71.305 35.555 71.74 34.82 72.07 33.77L72.895 33.875C72.565 34.73 72.205 35.39 71.785 35.87C72.175 35.825 72.535 35.78 72.88 35.72C73.09 35.36 73.3 35 73.51 34.625L74.275 34.925C73.3 36.575 72.52 37.67 71.92 38.225C72.325 38.15 72.79 38.06 73.33 37.97C73.24 37.61 73.135 37.295 73.03 37.01L73.705 36.785ZM77.305 36.59C77.575 37.25 77.815 37.97 78.025 38.72L77.35 39.02C77.29 38.81 77.245 38.615 77.2 38.45C76.3 38.675 75.49 38.855 74.77 38.99L74.605 38.24C74.965 37.985 75.415 37.37 75.97 36.38C75.46 36.47 74.935 36.545 74.38 36.605L74.215 35.975C74.74 35.54 75.145 34.805 75.445 33.785L76.27 33.89C75.97 34.7 75.61 35.36 75.22 35.855C75.61 35.795 76 35.735 76.36 35.675C76.54 35.315 76.72 34.94 76.93 34.535L77.695 34.82C76.825 36.47 76.135 37.595 75.61 38.165C76.015 38.075 76.48 37.955 77.005 37.835C76.885 37.445 76.75 37.1 76.63 36.8L77.305 36.59ZM78.49 31.55H80.35C80.47 31.13 80.56 30.695 80.62 30.275H77.92V29.315H84.31V30.275H81.7C81.625 30.71 81.535 31.13 81.415 31.55H83.815V39.305H78.49V31.55ZM82.81 38.405V36.935H79.48V38.405H82.81ZM79.48 36.065H82.81V34.685H79.48V36.065ZM79.48 33.815H82.81V32.45H79.48V33.815ZM79.975 39.71L80.68 40.325C80.05 41.165 79.285 41.885 78.37 42.515L77.785 41.765C78.655 41.165 79.375 40.49 79.975 39.71ZM82.225 39.725C83.065 40.4 83.77 41.09 84.34 41.78L83.665 42.455C83.155 41.78 82.465 41.075 81.595 40.325L82.225 39.725ZM88.45 36.095L89.515 36.32C88.87 38.39 87.955 40.175 86.755 41.675L85.81 41.09C87.025 39.59 87.91 37.925 88.45 36.095ZM96.325 35.885C97.405 37.52 98.335 39.26 99.13 41.105L98.14 41.555C97.285 39.545 96.355 37.76 95.335 36.215L96.325 35.885ZM87.49 29.57H97.555V30.62H87.49V29.57ZM86.11 33.35H98.89V34.415H93.085V42.5H91.975V34.415H86.11V33.35ZM107.5 31.865C107.755 31.865 107.98 31.955 108.16 32.15C108.34 32.315 108.43 32.525 108.43 32.795C108.43 33.05 108.34 33.26 108.16 33.44C107.98 33.62 107.755 33.71 107.5 33.71C107.23 33.71 107.02 33.62 106.84 33.44C106.66 33.26 106.585 33.05 106.585 32.795C106.585 32.525 106.66 32.315 106.84 32.15C107.02 31.955 107.23 31.865 107.5 31.865ZM107.5 37.355C107.755 37.355 107.98 37.445 108.16 37.64C108.34 37.805 108.43 38.015 108.43 38.285C108.43 38.54 108.34 38.75 108.16 38.93C107.98 39.11 107.755 39.2 107.5 39.2C107.23 39.2 107.02 39.11 106.84 38.93C106.66 38.75 106.585 38.54 106.585 38.285C106.585 38.015 106.66 37.805 106.84 37.64C107.02 37.445 107.23 37.355 107.5 37.355Z" fill="#161616"/>
<path d="M222.5 20.5V51.5H123.5V20.5H222.5Z" fill="white"/>
<path d="M222.5 20.5V51.5H123.5V20.5H222.5Z" stroke="#D9D9D9"/>
<path d="M142.45 30.29H143.41V41H142.18V31.79C141.505 32.48 140.665 32.96 139.66 33.26V32.03C140.14 31.895 140.65 31.685 141.16 31.385C141.67 31.055 142.09 30.695 142.45 30.29ZM149.521 30.08C150.796 30.08 151.756 30.635 152.416 31.775C152.986 32.735 153.271 34.025 153.271 35.645C153.271 37.265 152.986 38.555 152.416 39.515C151.756 40.64 150.796 41.21 149.521 41.21C148.231 41.21 147.271 40.64 146.626 39.515C146.056 38.555 145.771 37.265 145.771 35.645C145.771 34.025 146.056 32.735 146.626 31.775C147.271 30.635 148.231 30.08 149.521 30.08ZM149.521 31.13C148.561 31.13 147.871 31.64 147.451 32.675C147.151 33.395 147.001 34.385 147.001 35.645C147.001 36.89 147.151 37.88 147.451 38.615C147.871 39.635 148.561 40.16 149.521 40.16C150.481 40.16 151.171 39.635 151.591 38.615C151.891 37.88 152.056 36.89 152.056 35.645C152.056 34.385 151.891 33.395 151.591 32.675C151.171 31.64 150.481 31.13 149.521 31.13Z" fill="#8F8F8F"/>
<path fill-rule="evenodd" clip-rule="evenodd" d="M199 40L192 32.9799L192.976 32H192.978L199 38.0412L205.024 32H205.026L206 32.9789V32.9809L199 40Z" fill="#8F8F8F"/>
<path d="M234.03 30.665C233.67 31.175 233.28 31.655 232.86 32.075L231.96 31.52C232.86 30.65 233.52 29.705 233.94 28.685L234.96 28.895C234.84 29.195 234.705 29.465 234.57 29.735H238.23V30.665H236.415C236.7 31.055 236.94 31.4 237.12 31.73L236.205 32.075C235.95 31.58 235.65 31.115 235.305 30.665H234.03ZM240.195 30.665C239.925 31.115 239.61 31.535 239.28 31.925L238.395 31.37C239.13 30.56 239.655 29.675 239.985 28.715L241.005 28.925C240.9 29.21 240.795 29.48 240.675 29.735H245.055V30.665H242.34C242.61 31.055 242.85 31.415 243.03 31.745L242.13 32.09C241.875 31.595 241.575 31.115 241.245 30.665H240.195ZM243.285 37.13H238.74V38.135H243.975V39.035H238.74V40.055H244.8V41.015H238.74V42.425H237.705V41.015H232.185V40.055H237.705V39.035H232.965V38.135H237.705V37.13H233.415V36.26H237.705V35.255H231.855V34.325H237.705V33.335H233.4V32.45H237.705V31.73H238.74V32.45H243.285V34.325H245.13V35.255H243.285V37.13ZM238.74 33.335V34.325H242.265V33.335H238.74ZM238.74 35.255V36.26H242.265V35.255H238.74Z" fill="#161616"/>
<path fill-rule="evenodd" clip-rule="evenodd" d="M282 36.0005L289.02 29L290 29.9762V29.9781L283.959 36.0005L290 42.0238V42.0258L289.021 43H289.019L282 36.0005Z" fill="#BCBCBC"/>
<rect width="32" height="32" transform="translate(310 20)" fill="#465BC7"/>
<path d="M326.381 31.718H327.213V41H326.147V33.018C325.562 33.616 324.834 34.032 323.963 34.292V33.226C324.379 33.109 324.821 32.927 325.263 32.667C325.705 32.381 326.069 32.069 326.381 31.718Z" fill="white"/>
<path d="M366.133 31.536C366.991 31.536 367.693 31.783 368.252 32.277C368.798 32.771 369.084 33.434 369.084 34.24C369.084 35.046 368.772 35.774 368.174 36.424C367.849 36.762 367.212 37.269 366.25 37.919C365.067 38.712 364.391 39.427 364.222 40.051H369.097V41H362.909C362.909 40.155 363.208 39.388 363.832 38.699C364.196 38.283 364.859 37.724 365.847 37.048C366.575 36.528 367.056 36.151 367.303 35.891C367.771 35.384 368.018 34.825 368.018 34.227C368.018 33.655 367.849 33.226 367.511 32.914C367.173 32.602 366.692 32.446 366.094 32.446C365.457 32.446 364.963 32.654 364.625 33.096C364.261 33.512 364.066 34.136 364.053 34.955H362.987C362.987 33.915 363.286 33.083 363.858 32.472C364.43 31.848 365.197 31.536 366.133 31.536Z" fill="#161616"/>
<path d="M406.094 31.536C406.978 31.536 407.706 31.757 408.252 32.212C408.785 32.667 409.058 33.278 409.058 34.058C409.058 35.098 408.551 35.8 407.537 36.138C408.083 36.307 408.499 36.567 408.785 36.931C409.097 37.295 409.253 37.75 409.253 38.296C409.253 39.141 408.954 39.83 408.369 40.363C407.771 40.909 406.991 41.182 406.029 41.182C405.145 41.182 404.43 40.948 403.871 40.506C403.208 39.96 402.844 39.167 402.766 38.127H403.845C403.871 38.855 404.118 39.414 404.573 39.791C404.963 40.103 405.444 40.272 406.029 40.272C406.692 40.272 407.225 40.077 407.628 39.7C407.992 39.336 408.187 38.881 408.187 38.335C408.187 37.776 408.005 37.347 407.641 37.035C407.277 36.723 406.783 36.58 406.133 36.58H405.379V35.748H406.094C406.718 35.748 407.186 35.605 407.511 35.332C407.836 35.046 408.005 34.643 408.005 34.123C408.005 33.603 407.836 33.2 407.524 32.914C407.186 32.602 406.705 32.459 406.107 32.459C405.483 32.459 405.002 32.615 404.651 32.953C404.287 33.291 404.079 33.772 404.014 34.396H402.961C403.039 33.499 403.377 32.797 403.949 32.29C404.495 31.783 405.21 31.536 406.094 31.536Z" fill="#161616"/>
<path d="M447.095 31.718H448.096V38.023H449.604V38.894H448.096V41H447.082V38.894H442.415V37.88L447.095 31.718ZM447.043 33.109L443.312 38.023H447.082V33.109H447.043Z" fill="#161616"/>
<path d="M483.468 31.718H488.863V32.667H484.339L484.027 35.774H484.079C484.339 35.462 484.677 35.228 485.08 35.072C485.444 34.916 485.834 34.851 486.263 34.851C487.147 34.851 487.862 35.124 488.408 35.683C488.954 36.255 489.24 37.035 489.24 38.036C489.24 38.972 488.902 39.739 488.239 40.337C487.615 40.896 486.835 41.182 485.925 41.182C485.106 41.182 484.404 40.961 483.832 40.519C483.182 40.025 482.831 39.349 482.766 38.504H483.819C483.871 39.089 484.105 39.544 484.521 39.856C484.885 40.129 485.366 40.272 485.938 40.272C486.588 40.272 487.121 40.064 487.55 39.648C487.966 39.232 488.187 38.699 488.187 38.049C488.187 37.308 487.979 36.736 487.589 36.333C487.212 35.917 486.679 35.722 486.003 35.722C485.561 35.722 485.171 35.813 484.82 36.008C484.456 36.19 484.17 36.476 483.988 36.84H482.974L483.468 31.718Z" fill="#161616"/>
<path d="M521.658 39.453C521.892 39.453 522.074 39.518 522.23 39.674C522.373 39.817 522.451 39.999 522.451 40.22C522.451 40.454 522.373 40.636 522.23 40.779C522.074 40.922 521.879 41 521.658 41C521.437 41 521.255 40.922 521.112 40.779C520.956 40.623 520.878 40.441 520.878 40.22C520.878 39.999 520.956 39.817 521.112 39.674C521.255 39.518 521.437 39.453 521.658 39.453ZM526 39.453C526.221 39.453 526.416 39.518 526.572 39.674C526.715 39.817 526.793 39.999 526.793 40.22C526.793 40.454 526.715 40.636 526.572 40.779C526.416 40.922 526.221 41 526 41C525.779 41 525.597 40.922 525.441 40.779C525.285 40.623 525.22 40.441 525.22 40.22C525.22 39.999 525.285 39.817 525.441 39.674C525.597 39.518 525.779 39.453 526 39.453ZM530.329 39.453C530.55 39.453 530.732 39.518 530.888 39.674C531.044 39.817 531.122 39.999 531.122 40.22C531.122 40.454 531.044 40.636 530.888 40.779C530.732 40.922 530.55 41 530.329 41C530.108 41 529.926 40.922 529.77 40.779C529.614 40.623 529.549 40.441 529.549 40.22C529.549 39.999 529.614 39.817 529.77 39.674C529.926 39.518 530.108 39.453 530.329 39.453Z" fill="#161616"/>
<path d="M562.235 31.536C563.093 31.536 563.795 31.783 564.354 32.277C564.9 32.771 565.186 33.434 565.186 34.24C565.186 35.046 564.874 35.774 564.276 36.424C563.951 36.762 563.314 37.269 562.352 37.919C561.169 38.712 560.493 39.427 560.324 40.051H565.199V41H559.011C559.011 40.155 559.31 39.388 559.934 38.699C560.298 38.283 560.961 37.724 561.949 37.048C562.677 36.528 563.158 36.151 563.405 35.891C563.873 35.384 564.12 34.825 564.12 34.227C564.12 33.655 563.951 33.226 563.613 32.914C563.275 32.602 562.794 32.446 562.196 32.446C561.559 32.446 561.065 32.654 560.727 33.096C560.363 33.512 560.168 34.136 560.155 34.955H559.089C559.089 33.915 559.388 33.083 559.96 32.472C560.532 31.848 561.299 31.536 562.235 31.536ZM569.9 31.536C571.005 31.536 571.837 32.017 572.409 33.005C572.903 33.837 573.15 34.955 573.15 36.359C573.15 37.763 572.903 38.881 572.409 39.713C571.837 40.688 571.005 41.182 569.9 41.182C568.782 41.182 567.95 40.688 567.391 39.713C566.897 38.881 566.65 37.763 566.65 36.359C566.65 34.955 566.897 33.837 567.391 33.005C567.95 32.017 568.782 31.536 569.9 31.536ZM569.9 32.446C569.068 32.446 568.47 32.888 568.106 33.785C567.846 34.409 567.716 35.267 567.716 36.359C567.716 37.438 567.846 38.296 568.106 38.933C568.47 39.817 569.068 40.272 569.9 40.272C570.732 40.272 571.33 39.817 571.694 38.933C571.954 38.296 572.097 37.438 572.097 36.359C572.097 35.267 571.954 34.409 571.694 33.785C571.33 32.888 570.732 32.446 569.9 32.446Z" fill="#161616"/>
<path fill-rule="evenodd" clip-rule="evenodd" d="M610 36.0005L602.98 29L602 29.9762V29.9781L608.041 36.0005L602 42.0238V42.0258L602.979 43H602.981L610 36.0005Z" fill="#8F8F8F"/>
<mask id="path-18-inside-2_88_3863" fill="white">
<path d="M0 72H780V118C780 119.105 779.105 120 778 120H1.99998C0.895407 120 0 119.105 0 118V72Z"/>
</mask>
<path d="M0 72H780V118C780 119.105 779.105 120 778 120H1.99998C0.895407 120 0 119.105 0 118V72Z" fill="#E7E7E7"/>
<path d="M0 72H780H0ZM781 118C781 119.657 779.657 121 778 121H2C0.343146 121 -1 119.657 -1 118H1C1 118.552 1.44772 119 2 119H778C778.552 119 779 118.552 779 118H781ZM2 121C0.343146 121 -1 119.657 -1 118V72H1V118C1 118.552 1.44772 119 2 119V121ZM781 72V118C781 119.657 779.657 121 778 121V119C778.552 119 779 118.552 779 118V72H781Z" fill="#D9D9D9" mask="url(#path-18-inside-2_88_3863)"/>
<path fill-rule="evenodd" clip-rule="evenodd" d="M36.0005 100L29 92.9799L29.9762 92H29.9781L36.0005 98.0412L42.0238 92H42.0258L43 92.9789V92.9809L36.0005 100Z" fill="#4457CA"/>
<path d="M59.575 99.105C59.575 99.745 59.42 100.29 59.11 100.74C58.8 101.19 58.355 101.54 57.775 101.79C57.195 102.03 56.505 102.15 55.705 102.15C55.315 102.15 54.94 102.125 54.58 102.075C54.22 102.035 53.885 101.975 53.575 101.895C53.265 101.815 52.99 101.715 52.75 101.595V100.065C53.15 100.245 53.62 100.41 54.16 100.56C54.7 100.7 55.25 100.77 55.81 100.77C56.29 100.77 56.69 100.705 57.01 100.575C57.33 100.445 57.57 100.265 57.73 100.035C57.89 99.805 57.97 99.535 57.97 99.225C57.97 98.895 57.885 98.62 57.715 98.4C57.555 98.17 57.3 97.96 56.95 97.77C56.61 97.57 56.15 97.36 55.57 97.14C55.17 96.99 54.805 96.825 54.475 96.645C54.155 96.455 53.87 96.235 53.62 95.985C53.38 95.735 53.195 95.445 53.065 95.115C52.935 94.785 52.87 94.4 52.87 93.96C52.87 93.37 53.015 92.865 53.305 92.445C53.605 92.025 54.015 91.705 54.535 91.485C55.055 91.255 55.66 91.14 56.35 91.14C56.93 91.14 57.465 91.2 57.955 91.32C58.455 91.43 58.93 91.585 59.38 91.785L58.87 93.12C58.46 92.95 58.045 92.81 57.625 92.7C57.205 92.59 56.765 92.535 56.305 92.535C55.905 92.535 55.57 92.595 55.3 92.715C55.03 92.835 54.825 93 54.685 93.21C54.555 93.42 54.49 93.665 54.49 93.945C54.49 94.275 54.565 94.55 54.715 94.77C54.865 94.99 55.105 95.195 55.435 95.385C55.765 95.565 56.2 95.765 56.74 95.985C57.34 96.215 57.85 96.465 58.27 96.735C58.7 97.005 59.025 97.33 59.245 97.71C59.465 98.08 59.575 98.545 59.575 99.105ZM63.0821 93.645C63.0821 93.895 63.0721 94.145 63.0521 94.395C63.0321 94.645 63.0121 94.85 62.9921 95.01H63.0971C63.2671 94.73 63.4771 94.5 63.7271 94.32C63.9871 94.14 64.2721 94.005 64.5821 93.915C64.9021 93.825 65.2271 93.78 65.5571 93.78C66.1971 93.78 66.7321 93.885 67.1621 94.095C67.6021 94.295 67.9321 94.615 68.1521 95.055C68.3821 95.485 68.4971 96.045 68.4971 96.735V102H66.9221V96.96C66.9221 96.33 66.7871 95.86 66.5171 95.55C66.2571 95.23 65.8371 95.07 65.2571 95.07C64.7071 95.07 64.2721 95.18 63.9521 95.4C63.6421 95.62 63.4171 95.945 63.2771 96.375C63.1471 96.795 63.0821 97.315 63.0821 97.935V102H61.4921V90.6H63.0821V93.645ZM78.0653 97.95C78.0653 98.62 77.9753 99.215 77.7953 99.735C77.6153 100.255 77.3603 100.695 77.0303 101.055C76.7003 101.415 76.3003 101.69 75.8303 101.88C75.3603 102.06 74.8303 102.15 74.2403 102.15C73.7003 102.15 73.2003 102.06 72.7403 101.88C72.2803 101.69 71.8803 101.415 71.5403 101.055C71.2103 100.695 70.9503 100.255 70.7603 99.735C70.5703 99.215 70.4753 98.615 70.4753 97.935C70.4753 97.045 70.6253 96.29 70.9253 95.67C71.2353 95.05 71.6753 94.58 72.2453 94.26C72.8253 93.93 73.5053 93.765 74.2853 93.765C75.0253 93.765 75.6753 93.93 76.2353 94.26C76.8053 94.58 77.2503 95.05 77.5703 95.67C77.9003 96.29 78.0653 97.05 78.0653 97.95ZM72.1103 97.95C72.1103 98.55 72.1853 99.07 72.3353 99.51C72.4853 99.94 72.7203 100.27 73.0403 100.5C73.3603 100.73 73.7703 100.845 74.2703 100.845C74.7703 100.845 75.1803 100.73 75.5003 100.5C75.8203 100.27 76.0553 99.94 76.2053 99.51C76.3553 99.07 76.4303 98.55 76.4303 97.95C76.4303 97.33 76.3503 96.81 76.1903 96.39C76.0403 95.97 75.8053 95.65 75.4853 95.43C75.1753 95.2 74.7653 95.085 74.2553 95.085C73.5053 95.085 72.9603 95.335 72.6203 95.835C72.2803 96.335 72.1103 97.04 72.1103 97.95ZM85.248 97.95C85.198 97.75 85.138 97.53 85.068 97.29C85.008 97.05 84.948 96.81 84.888 96.57C84.828 96.32 84.773 96.09 84.723 95.88C84.673 95.67 84.633 95.505 84.603 95.385H84.543C84.523 95.505 84.488 95.67 84.438 95.88C84.398 96.09 84.348 96.32 84.288 96.57C84.228 96.81 84.168 97.055 84.108 97.305C84.048 97.545 83.983 97.765 83.913 97.965L82.713 101.985H80.943L78.708 93.9H80.328L81.378 97.995C81.458 98.275 81.528 98.57 81.588 98.88C81.658 99.19 81.718 99.49 81.768 99.78C81.828 100.06 81.868 100.295 81.888 100.485H81.948C81.968 100.355 81.998 100.195 82.038 100.005C82.078 99.805 82.118 99.6 82.158 99.39C82.208 99.17 82.253 98.96 82.293 98.76C82.343 98.56 82.393 98.395 82.443 98.265L83.733 93.9H85.473L86.733 98.265C86.793 98.465 86.858 98.705 86.928 98.985C86.998 99.255 87.058 99.525 87.108 99.795C87.168 100.055 87.208 100.28 87.228 100.47H87.288C87.308 100.3 87.343 100.08 87.393 99.81C87.443 99.53 87.503 99.23 87.573 98.91C87.653 98.59 87.728 98.285 87.798 97.995L88.878 93.9H90.483L88.218 101.985H86.403L85.248 97.95ZM100.539 92.535C100.009 92.535 99.5341 92.63 99.1141 92.82C98.6941 93 98.3341 93.27 98.0341 93.63C97.7441 93.99 97.5191 94.425 97.3591 94.935C97.2091 95.445 97.1341 96.02 97.1341 96.66C97.1341 97.5 97.2591 98.23 97.5091 98.85C97.7591 99.46 98.1341 99.93 98.6341 100.26C99.1341 100.59 99.7641 100.755 100.524 100.755C100.984 100.755 101.424 100.715 101.844 100.635C102.274 100.545 102.709 100.43 103.149 100.29V101.685C102.729 101.845 102.299 101.96 101.859 102.03C101.419 102.11 100.909 102.15 100.329 102.15C99.2391 102.15 98.3291 101.925 97.5991 101.475C96.8791 101.025 96.3391 100.385 95.9791 99.555C95.6191 98.725 95.4391 97.755 95.4391 96.645C95.4391 95.835 95.5491 95.095 95.7691 94.425C95.9991 93.745 96.3291 93.16 96.7591 92.67C97.1891 92.18 97.7191 91.805 98.3491 91.545C98.9891 91.275 99.7241 91.14 100.554 91.14C101.094 91.14 101.624 91.2 102.144 91.32C102.664 91.43 103.134 91.59 103.554 91.8L102.954 93.15C102.604 92.99 102.224 92.85 101.814 92.73C101.414 92.6 100.989 92.535 100.539 92.535ZM112.401 97.95C112.401 98.62 112.311 99.215 112.131 99.735C111.951 100.255 111.696 100.695 111.366 101.055C111.036 101.415 110.636 101.69 110.166 101.88C109.696 102.06 109.166 102.15 108.576 102.15C108.036 102.15 107.536 102.06 107.076 101.88C106.616 101.69 106.216 101.415 105.876 101.055C105.546 100.695 105.286 100.255 105.096 99.735C104.906 99.215 104.811 98.615 104.811 97.935C104.811 97.045 104.961 96.29 105.261 95.67C105.571 95.05 106.011 94.58 106.581 94.26C107.161 93.93 107.841 93.765 108.621 93.765C109.361 93.765 110.011 93.93 110.571 94.26C111.141 94.58 111.586 95.05 111.906 95.67C112.236 96.29 112.401 97.05 112.401 97.95ZM106.446 97.95C106.446 98.55 106.521 99.07 106.671 99.51C106.821 99.94 107.056 100.27 107.376 100.5C107.696 100.73 108.106 100.845 108.606 100.845C109.106 100.845 109.516 100.73 109.836 100.5C110.156 100.27 110.391 99.94 110.541 99.51C110.691 99.07 110.766 98.55 110.766 97.95C110.766 97.33 110.686 96.81 110.526 96.39C110.376 95.97 110.141 95.65 109.821 95.43C109.511 95.2 109.101 95.085 108.591 95.085C107.841 95.085 107.296 95.335 106.956 95.835C106.616 96.335 106.446 97.04 106.446 97.95ZM117.192 102.15C116.222 102.15 115.437 101.8 114.837 101.1C114.247 100.4 113.952 99.36 113.952 97.98C113.952 96.59 114.252 95.54 114.852 94.83C115.452 94.12 116.242 93.765 117.222 93.765C117.632 93.765 117.987 93.82 118.287 93.93C118.597 94.03 118.862 94.17 119.082 94.35C119.312 94.53 119.507 94.73 119.667 94.95H119.757C119.737 94.81 119.712 94.61 119.682 94.35C119.652 94.08 119.637 93.84 119.637 93.63V90.6H121.227V102H119.982L119.712 100.92H119.637C119.487 101.15 119.297 101.36 119.067 101.55C118.847 101.73 118.582 101.875 118.272 101.985C117.962 102.095 117.602 102.15 117.192 102.15ZM117.567 100.845C118.347 100.845 118.897 100.63 119.217 100.2C119.537 99.76 119.697 99.105 119.697 98.235V97.995C119.697 97.045 119.542 96.32 119.232 95.82C118.932 95.32 118.372 95.07 117.552 95.07C116.902 95.07 116.412 95.335 116.082 95.865C115.752 96.385 115.587 97.1 115.587 98.01C115.587 98.92 115.752 99.62 116.082 100.11C116.412 100.6 116.907 100.845 117.567 100.845ZM126.899 93.765C127.609 93.765 128.219 93.915 128.729 94.215C129.239 94.505 129.629 94.925 129.899 95.475C130.179 96.025 130.319 96.675 130.319 97.425V98.295H124.889C124.909 99.125 125.124 99.76 125.534 100.2C125.954 100.64 126.539 100.86 127.289 100.86C127.809 100.86 128.269 100.815 128.669 100.725C129.079 100.625 129.499 100.48 129.929 100.29V101.61C129.529 101.79 129.119 101.925 128.699 102.015C128.289 102.105 127.799 102.15 127.229 102.15C126.449 102.15 125.759 101.995 125.159 101.685C124.559 101.375 124.089 100.915 123.749 100.305C123.419 99.685 123.254 98.925 123.254 98.025C123.254 97.115 123.404 96.345 123.704 95.715C124.014 95.085 124.439 94.605 124.979 94.275C125.529 93.935 126.169 93.765 126.899 93.765ZM126.899 94.995C126.329 94.995 125.869 95.18 125.519 95.55C125.179 95.92 124.979 96.445 124.919 97.125H128.729C128.729 96.705 128.664 96.335 128.534 96.015C128.404 95.695 128.204 95.445 127.934 95.265C127.664 95.085 127.319 94.995 126.899 94.995Z" fill="#465BC7"/>
<path fill-rule="evenodd" clip-rule="evenodd" d="M700.2 96C700.2 91.5457 703.97 88 708.539 88C709.459 88 710.343 88.1506 711.168 88.4134L711.295 89.8164C709.717 90.6593 708.675 92.2536 708.675 94.0558C708.675 96.7045 710.934 98.9169 713.804 98.9169C714.204 98.9169 714.599 98.8687 714.98 98.7834L715.8 99.9168C714.368 102.362 711.644 104 708.535 104C703.97 104 700.2 100.454 700.2 96ZM708.539 89.528C704.734 89.528 701.72 92.4629 701.72 96C701.72 99.5374 704.735 102.472 708.535 102.472C710.496 102.472 712.254 101.686 713.491 100.438C709.997 100.282 707.155 97.5185 707.155 94.0558C707.155 92.2896 707.901 90.7006 709.093 89.5502C708.91 89.5355 708.725 89.528 708.539 89.528Z" fill="#4457CA"/>
<path d="M756 100.418H753.851V104H740V90.1494H743.582V88H756V100.418ZM741.433 91.582V102.567H752.418V100.418H743.582V91.582H741.433ZM745.082 98.918H754.5V89.5H745.082V98.918Z" fill="#4457CA"/>
</svg>
