<svg width="780" height="120" viewBox="0 0 780 120" fill="none" xmlns="http://www.w3.org/2000/svg">
<mask id="path-2-inside-1_88_3700" fill="white">
<path d="M0 2C0 0.895431 0.895431 0 2 0H778C779.105 0 780 0.895431 780 2V72H0V2Z"/>
</mask>
<path d="M0 2C0 0.895431 0.895431 0 2 0H778C779.105 0 780 0.895431 780 2V72H0V2Z" fill="white"/>
<path d="M-1 2C-1 0.343146 0.343146 -1 2 -1H778C779.657 -1 781 0.343146 781 2H779C779 1.44772 778.552 1 778 1H2C1.44772 1 1 1.44772 1 2H-1ZM780 72H0H780ZM-1 72V2C-1 0.343146 0.343146 -1 2 -1V1C1.44772 1 1 1.44772 1 2V72H-1ZM778 -1C779.657 -1 781 0.343146 781 2V72H779V2C779 1.44772 778.552 1 778 1V-1Z" fill="#D9D9D9" mask="url(#path-2-inside-1_88_3700)"/>
<path fill-rule="evenodd" clip-rule="evenodd" d="M52 36.0005L59.0201 29L60 29.9762V29.9781L53.9588 36.0005L60 42.0238V42.0258L59.0211 43H59.0191L52 36.0005Z" fill="#BCBCBC"/>
<rect width="32" height="32" transform="translate(80 20)" fill="#465BC7"/>
<path d="M96.3811 31.718H97.2131V41H96.1471V33.018C95.5621 33.616 94.8341 34.032 93.9631 34.292V33.226C94.3791 33.109 94.8211 32.927 95.2631 32.667C95.7051 32.381 96.0691 32.069 96.3811 31.718Z" fill="white"/>
<path d="M136.133 31.536C136.991 31.536 137.693 31.783 138.252 32.277C138.798 32.771 139.084 33.434 139.084 34.24C139.084 35.046 138.772 35.774 138.174 36.424C137.849 36.762 137.212 37.269 136.25 37.919C135.067 38.712 134.391 39.427 134.222 40.051H139.097V41H132.909C132.909 40.155 133.208 39.388 133.832 38.699C134.196 38.283 134.859 37.724 135.847 37.048C136.575 36.528 137.056 36.151 137.303 35.891C137.771 35.384 138.018 34.825 138.018 34.227C138.018 33.655 137.849 33.226 137.511 32.914C137.173 32.602 136.692 32.446 136.094 32.446C135.457 32.446 134.963 32.654 134.625 33.096C134.261 33.512 134.066 34.136 134.053 34.955H132.987C132.987 33.915 133.286 33.083 133.858 32.472C134.43 31.848 135.197 31.536 136.133 31.536Z" fill="#161616"/>
<path d="M176.094 31.536C176.978 31.536 177.706 31.757 178.252 32.212C178.785 32.667 179.058 33.278 179.058 34.058C179.058 35.098 178.551 35.8 177.537 36.138C178.083 36.307 178.499 36.567 178.785 36.931C179.097 37.295 179.253 37.75 179.253 38.296C179.253 39.141 178.954 39.83 178.369 40.363C177.771 40.909 176.991 41.182 176.029 41.182C175.145 41.182 174.43 40.948 173.871 40.506C173.208 39.96 172.844 39.167 172.766 38.127H173.845C173.871 38.855 174.118 39.414 174.573 39.791C174.963 40.103 175.444 40.272 176.029 40.272C176.692 40.272 177.225 40.077 177.628 39.7C177.992 39.336 178.187 38.881 178.187 38.335C178.187 37.776 178.005 37.347 177.641 37.035C177.277 36.723 176.783 36.58 176.133 36.58H175.379V35.748H176.094C176.718 35.748 177.186 35.605 177.511 35.332C177.836 35.046 178.005 34.643 178.005 34.123C178.005 33.603 177.836 33.2 177.524 32.914C177.186 32.602 176.705 32.459 176.107 32.459C175.483 32.459 175.002 32.615 174.651 32.953C174.287 33.291 174.079 33.772 174.014 34.396H172.961C173.039 33.499 173.377 32.797 173.949 32.29C174.495 31.783 175.21 31.536 176.094 31.536Z" fill="#161616"/>
<path d="M217.095 31.718H218.096V38.023H219.604V38.894H218.096V41H217.082V38.894H212.415V37.88L217.095 31.718ZM217.043 33.109L213.312 38.023H217.082V33.109H217.043Z" fill="#161616"/>
<path d="M253.468 31.718H258.863V32.667H254.339L254.027 35.774H254.079C254.339 35.462 254.677 35.228 255.08 35.072C255.444 34.916 255.834 34.851 256.263 34.851C257.147 34.851 257.862 35.124 258.408 35.683C258.954 36.255 259.24 37.035 259.24 38.036C259.24 38.972 258.902 39.739 258.239 40.337C257.615 40.896 256.835 41.182 255.925 41.182C255.106 41.182 254.404 40.961 253.832 40.519C253.182 40.025 252.831 39.349 252.766 38.504H253.819C253.871 39.089 254.105 39.544 254.521 39.856C254.885 40.129 255.366 40.272 255.938 40.272C256.588 40.272 257.121 40.064 257.55 39.648C257.966 39.232 258.187 38.699 258.187 38.049C258.187 37.308 257.979 36.736 257.589 36.333C257.212 35.917 256.679 35.722 256.003 35.722C255.561 35.722 255.171 35.813 254.82 36.008C254.456 36.19 254.17 36.476 253.988 36.84H252.974L253.468 31.718Z" fill="#161616"/>
<path d="M291.658 39.453C291.892 39.453 292.074 39.518 292.23 39.674C292.373 39.817 292.451 39.999 292.451 40.22C292.451 40.454 292.373 40.636 292.23 40.779C292.074 40.922 291.879 41 291.658 41C291.437 41 291.255 40.922 291.112 40.779C290.956 40.623 290.878 40.441 290.878 40.22C290.878 39.999 290.956 39.817 291.112 39.674C291.255 39.518 291.437 39.453 291.658 39.453ZM296 39.453C296.221 39.453 296.416 39.518 296.572 39.674C296.715 39.817 296.793 39.999 296.793 40.22C296.793 40.454 296.715 40.636 296.572 40.779C296.416 40.922 296.221 41 296 41C295.779 41 295.597 40.922 295.441 40.779C295.285 40.623 295.22 40.441 295.22 40.22C295.22 39.999 295.285 39.817 295.441 39.674C295.597 39.518 295.779 39.453 296 39.453ZM300.329 39.453C300.55 39.453 300.732 39.518 300.888 39.674C301.044 39.817 301.122 39.999 301.122 40.22C301.122 40.454 301.044 40.636 300.888 40.779C300.732 40.922 300.55 41 300.329 41C300.108 41 299.926 40.922 299.77 40.779C299.614 40.623 299.549 40.441 299.549 40.22C299.549 39.999 299.614 39.817 299.77 39.674C299.926 39.518 300.108 39.453 300.329 39.453Z" fill="#161616"/>
<path d="M332.235 31.536C333.093 31.536 333.795 31.783 334.354 32.277C334.9 32.771 335.186 33.434 335.186 34.24C335.186 35.046 334.874 35.774 334.276 36.424C333.951 36.762 333.314 37.269 332.352 37.919C331.169 38.712 330.493 39.427 330.324 40.051H335.199V41H329.011C329.011 40.155 329.31 39.388 329.934 38.699C330.298 38.283 330.961 37.724 331.949 37.048C332.677 36.528 333.158 36.151 333.405 35.891C333.873 35.384 334.12 34.825 334.12 34.227C334.12 33.655 333.951 33.226 333.613 32.914C333.275 32.602 332.794 32.446 332.196 32.446C331.559 32.446 331.065 32.654 330.727 33.096C330.363 33.512 330.168 34.136 330.155 34.955H329.089C329.089 33.915 329.388 33.083 329.96 32.472C330.532 31.848 331.299 31.536 332.235 31.536ZM339.9 31.536C341.005 31.536 341.837 32.017 342.409 33.005C342.903 33.837 343.15 34.955 343.15 36.359C343.15 37.763 342.903 38.881 342.409 39.713C341.837 40.688 341.005 41.182 339.9 41.182C338.782 41.182 337.95 40.688 337.391 39.713C336.897 38.881 336.65 37.763 336.65 36.359C336.65 34.955 336.897 33.837 337.391 33.005C337.95 32.017 338.782 31.536 339.9 31.536ZM339.9 32.446C339.068 32.446 338.47 32.888 338.106 33.785C337.846 34.409 337.716 35.267 337.716 36.359C337.716 37.438 337.846 38.296 338.106 38.933C338.47 39.817 339.068 40.272 339.9 40.272C340.732 40.272 341.33 39.817 341.694 38.933C341.954 38.296 342.097 37.438 342.097 36.359C342.097 35.267 341.954 34.409 341.694 33.785C341.33 32.888 340.732 32.446 339.9 32.446Z" fill="#161616"/>
<path fill-rule="evenodd" clip-rule="evenodd" d="M380 36.0005L372.98 29L372 29.9762V29.9781L378.041 36.0005L372 42.0238V42.0258L372.979 43H372.981L380 36.0005Z" fill="#8F8F8F"/>
<mask id="path-13-inside-2_88_3700" fill="white">
<path d="M0 72H780V118C780 119.105 779.105 120 778 120H1.99998C0.895407 120 0 119.105 0 118V72Z"/>
</mask>
<path d="M0 72H780V118C780 119.105 779.105 120 778 120H1.99998C0.895407 120 0 119.105 0 118V72Z" fill="#E7E7E7"/>
<path d="M0 72H780H0ZM781 118C781 119.657 779.657 121 778 121H2C0.343146 121 -1 119.657 -1 118H1C1 118.552 1.44772 119 2 119H778C778.552 119 779 118.552 779 118H781ZM2 121C0.343146 121 -1 119.657 -1 118V72H1V118C1 118.552 1.44772 119 2 119V121ZM781 72V118C781 119.657 779.657 121 778 121V119C778.552 119 779 118.552 779 118V72H781Z" fill="#D9D9D9" mask="url(#path-13-inside-2_88_3700)"/>
<path fill-rule="evenodd" clip-rule="evenodd" d="M36.0005 100L29 92.9799L29.9762 92H29.9781L36.0005 98.0412L42.0238 92H42.0258L43 92.9789V92.9809L36.0005 100Z" fill="#4457CA"/>
<path d="M59.575 99.105C59.575 99.745 59.42 100.29 59.11 100.74C58.8 101.19 58.355 101.54 57.775 101.79C57.195 102.03 56.505 102.15 55.705 102.15C55.315 102.15 54.94 102.125 54.58 102.075C54.22 102.035 53.885 101.975 53.575 101.895C53.265 101.815 52.99 101.715 52.75 101.595V100.065C53.15 100.245 53.62 100.41 54.16 100.56C54.7 100.7 55.25 100.77 55.81 100.77C56.29 100.77 56.69 100.705 57.01 100.575C57.33 100.445 57.57 100.265 57.73 100.035C57.89 99.805 57.97 99.535 57.97 99.225C57.97 98.895 57.885 98.62 57.715 98.4C57.555 98.17 57.3 97.96 56.95 97.77C56.61 97.57 56.15 97.36 55.57 97.14C55.17 96.99 54.805 96.825 54.475 96.645C54.155 96.455 53.87 96.235 53.62 95.985C53.38 95.735 53.195 95.445 53.065 95.115C52.935 94.785 52.87 94.4 52.87 93.96C52.87 93.37 53.015 92.865 53.305 92.445C53.605 92.025 54.015 91.705 54.535 91.485C55.055 91.255 55.66 91.14 56.35 91.14C56.93 91.14 57.465 91.2 57.955 91.32C58.455 91.43 58.93 91.585 59.38 91.785L58.87 93.12C58.46 92.95 58.045 92.81 57.625 92.7C57.205 92.59 56.765 92.535 56.305 92.535C55.905 92.535 55.57 92.595 55.3 92.715C55.03 92.835 54.825 93 54.685 93.21C54.555 93.42 54.49 93.665 54.49 93.945C54.49 94.275 54.565 94.55 54.715 94.77C54.865 94.99 55.105 95.195 55.435 95.385C55.765 95.565 56.2 95.765 56.74 95.985C57.34 96.215 57.85 96.465 58.27 96.735C58.7 97.005 59.025 97.33 59.245 97.71C59.465 98.08 59.575 98.545 59.575 99.105ZM63.0821 93.645C63.0821 93.895 63.0721 94.145 63.0521 94.395C63.0321 94.645 63.0121 94.85 62.9921 95.01H63.0971C63.2671 94.73 63.4771 94.5 63.7271 94.32C63.9871 94.14 64.2721 94.005 64.5821 93.915C64.9021 93.825 65.2271 93.78 65.5571 93.78C66.1971 93.78 66.7321 93.885 67.1621 94.095C67.6021 94.295 67.9321 94.615 68.1521 95.055C68.3821 95.485 68.4971 96.045 68.4971 96.735V102H66.9221V96.96C66.9221 96.33 66.7871 95.86 66.5171 95.55C66.2571 95.23 65.8371 95.07 65.2571 95.07C64.7071 95.07 64.2721 95.18 63.9521 95.4C63.6421 95.62 63.4171 95.945 63.2771 96.375C63.1471 96.795 63.0821 97.315 63.0821 97.935V102H61.4921V90.6H63.0821V93.645ZM78.0653 97.95C78.0653 98.62 77.9753 99.215 77.7953 99.735C77.6153 100.255 77.3603 100.695 77.0303 101.055C76.7003 101.415 76.3003 101.69 75.8303 101.88C75.3603 102.06 74.8303 102.15 74.2403 102.15C73.7003 102.15 73.2003 102.06 72.7403 101.88C72.2803 101.69 71.8803 101.415 71.5403 101.055C71.2103 100.695 70.9503 100.255 70.7603 99.735C70.5703 99.215 70.4753 98.615 70.4753 97.935C70.4753 97.045 70.6253 96.29 70.9253 95.67C71.2353 95.05 71.6753 94.58 72.2453 94.26C72.8253 93.93 73.5053 93.765 74.2853 93.765C75.0253 93.765 75.6753 93.93 76.2353 94.26C76.8053 94.58 77.2503 95.05 77.5703 95.67C77.9003 96.29 78.0653 97.05 78.0653 97.95ZM72.1103 97.95C72.1103 98.55 72.1853 99.07 72.3353 99.51C72.4853 99.94 72.7203 100.27 73.0403 100.5C73.3603 100.73 73.7703 100.845 74.2703 100.845C74.7703 100.845 75.1803 100.73 75.5003 100.5C75.8203 100.27 76.0553 99.94 76.2053 99.51C76.3553 99.07 76.4303 98.55 76.4303 97.95C76.4303 97.33 76.3503 96.81 76.1903 96.39C76.0403 95.97 75.8053 95.65 75.4853 95.43C75.1753 95.2 74.7653 95.085 74.2553 95.085C73.5053 95.085 72.9603 95.335 72.6203 95.835C72.2803 96.335 72.1103 97.04 72.1103 97.95ZM85.248 97.95C85.198 97.75 85.138 97.53 85.068 97.29C85.008 97.05 84.948 96.81 84.888 96.57C84.828 96.32 84.773 96.09 84.723 95.88C84.673 95.67 84.633 95.505 84.603 95.385H84.543C84.523 95.505 84.488 95.67 84.438 95.88C84.398 96.09 84.348 96.32 84.288 96.57C84.228 96.81 84.168 97.055 84.108 97.305C84.048 97.545 83.983 97.765 83.913 97.965L82.713 101.985H80.943L78.708 93.9H80.328L81.378 97.995C81.458 98.275 81.528 98.57 81.588 98.88C81.658 99.19 81.718 99.49 81.768 99.78C81.828 100.06 81.868 100.295 81.888 100.485H81.948C81.968 100.355 81.998 100.195 82.038 100.005C82.078 99.805 82.118 99.6 82.158 99.39C82.208 99.17 82.253 98.96 82.293 98.76C82.343 98.56 82.393 98.395 82.443 98.265L83.733 93.9H85.473L86.733 98.265C86.793 98.465 86.858 98.705 86.928 98.985C86.998 99.255 87.058 99.525 87.108 99.795C87.168 100.055 87.208 100.28 87.228 100.47H87.288C87.308 100.3 87.343 100.08 87.393 99.81C87.443 99.53 87.503 99.23 87.573 98.91C87.653 98.59 87.728 98.285 87.798 97.995L88.878 93.9H90.483L88.218 101.985H86.403L85.248 97.95ZM100.539 92.535C100.009 92.535 99.5341 92.63 99.1141 92.82C98.6941 93 98.3341 93.27 98.0341 93.63C97.7441 93.99 97.5191 94.425 97.3591 94.935C97.2091 95.445 97.1341 96.02 97.1341 96.66C97.1341 97.5 97.2591 98.23 97.5091 98.85C97.7591 99.46 98.1341 99.93 98.6341 100.26C99.1341 100.59 99.7641 100.755 100.524 100.755C100.984 100.755 101.424 100.715 101.844 100.635C102.274 100.545 102.709 100.43 103.149 100.29V101.685C102.729 101.845 102.299 101.96 101.859 102.03C101.419 102.11 100.909 102.15 100.329 102.15C99.2391 102.15 98.3291 101.925 97.5991 101.475C96.8791 101.025 96.3391 100.385 95.9791 99.555C95.6191 98.725 95.4391 97.755 95.4391 96.645C95.4391 95.835 95.5491 95.095 95.7691 94.425C95.9991 93.745 96.3291 93.16 96.7591 92.67C97.1891 92.18 97.7191 91.805 98.3491 91.545C98.9891 91.275 99.7241 91.14 100.554 91.14C101.094 91.14 101.624 91.2 102.144 91.32C102.664 91.43 103.134 91.59 103.554 91.8L102.954 93.15C102.604 92.99 102.224 92.85 101.814 92.73C101.414 92.6 100.989 92.535 100.539 92.535ZM112.401 97.95C112.401 98.62 112.311 99.215 112.131 99.735C111.951 100.255 111.696 100.695 111.366 101.055C111.036 101.415 110.636 101.69 110.166 101.88C109.696 102.06 109.166 102.15 108.576 102.15C108.036 102.15 107.536 102.06 107.076 101.88C106.616 101.69 106.216 101.415 105.876 101.055C105.546 100.695 105.286 100.255 105.096 99.735C104.906 99.215 104.811 98.615 104.811 97.935C104.811 97.045 104.961 96.29 105.261 95.67C105.571 95.05 106.011 94.58 106.581 94.26C107.161 93.93 107.841 93.765 108.621 93.765C109.361 93.765 110.011 93.93 110.571 94.26C111.141 94.58 111.586 95.05 111.906 95.67C112.236 96.29 112.401 97.05 112.401 97.95ZM106.446 97.95C106.446 98.55 106.521 99.07 106.671 99.51C106.821 99.94 107.056 100.27 107.376 100.5C107.696 100.73 108.106 100.845 108.606 100.845C109.106 100.845 109.516 100.73 109.836 100.5C110.156 100.27 110.391 99.94 110.541 99.51C110.691 99.07 110.766 98.55 110.766 97.95C110.766 97.33 110.686 96.81 110.526 96.39C110.376 95.97 110.141 95.65 109.821 95.43C109.511 95.2 109.101 95.085 108.591 95.085C107.841 95.085 107.296 95.335 106.956 95.835C106.616 96.335 106.446 97.04 106.446 97.95ZM117.192 102.15C116.222 102.15 115.437 101.8 114.837 101.1C114.247 100.4 113.952 99.36 113.952 97.98C113.952 96.59 114.252 95.54 114.852 94.83C115.452 94.12 116.242 93.765 117.222 93.765C117.632 93.765 117.987 93.82 118.287 93.93C118.597 94.03 118.862 94.17 119.082 94.35C119.312 94.53 119.507 94.73 119.667 94.95H119.757C119.737 94.81 119.712 94.61 119.682 94.35C119.652 94.08 119.637 93.84 119.637 93.63V90.6H121.227V102H119.982L119.712 100.92H119.637C119.487 101.15 119.297 101.36 119.067 101.55C118.847 101.73 118.582 101.875 118.272 101.985C117.962 102.095 117.602 102.15 117.192 102.15ZM117.567 100.845C118.347 100.845 118.897 100.63 119.217 100.2C119.537 99.76 119.697 99.105 119.697 98.235V97.995C119.697 97.045 119.542 96.32 119.232 95.82C118.932 95.32 118.372 95.07 117.552 95.07C116.902 95.07 116.412 95.335 116.082 95.865C115.752 96.385 115.587 97.1 115.587 98.01C115.587 98.92 115.752 99.62 116.082 100.11C116.412 100.6 116.907 100.845 117.567 100.845ZM126.899 93.765C127.609 93.765 128.219 93.915 128.729 94.215C129.239 94.505 129.629 94.925 129.899 95.475C130.179 96.025 130.319 96.675 130.319 97.425V98.295H124.889C124.909 99.125 125.124 99.76 125.534 100.2C125.954 100.64 126.539 100.86 127.289 100.86C127.809 100.86 128.269 100.815 128.669 100.725C129.079 100.625 129.499 100.48 129.929 100.29V101.61C129.529 101.79 129.119 101.925 128.699 102.015C128.289 102.105 127.799 102.15 127.229 102.15C126.449 102.15 125.759 101.995 125.159 101.685C124.559 101.375 124.089 100.915 123.749 100.305C123.419 99.685 123.254 98.925 123.254 98.025C123.254 97.115 123.404 96.345 123.704 95.715C124.014 95.085 124.439 94.605 124.979 94.275C125.529 93.935 126.169 93.765 126.899 93.765ZM126.899 94.995C126.329 94.995 125.869 95.18 125.519 95.55C125.179 95.92 124.979 96.445 124.919 97.125H128.729C128.729 96.705 128.664 96.335 128.534 96.015C128.404 95.695 128.204 95.445 127.934 95.265C127.664 95.085 127.319 94.995 126.899 94.995Z" fill="#465BC7"/>
<path fill-rule="evenodd" clip-rule="evenodd" d="M700.2 96C700.2 91.5457 703.97 88 708.539 88C709.459 88 710.343 88.1506 711.168 88.4134L711.295 89.8164C709.717 90.6593 708.675 92.2536 708.675 94.0558C708.675 96.7045 710.934 98.9169 713.804 98.9169C714.204 98.9169 714.599 98.8687 714.98 98.7834L715.8 99.9168C714.368 102.362 711.644 104 708.535 104C703.97 104 700.2 100.454 700.2 96ZM708.539 89.528C704.734 89.528 701.72 92.4629 701.72 96C701.72 99.5374 704.735 102.472 708.535 102.472C710.496 102.472 712.254 101.686 713.491 100.438C709.997 100.282 707.155 97.5185 707.155 94.0558C707.155 92.2896 707.901 90.7006 709.093 89.5502C708.91 89.5355 708.725 89.528 708.539 89.528Z" fill="#4457CA"/>
<path d="M756 100.418H753.851V104H740V90.1494H743.582V88H756V100.418ZM741.433 91.582V102.567H752.418V100.418H743.582V91.582H741.433ZM745.082 98.918H754.5V89.5H745.082V98.918Z" fill="#4457CA"/>
</svg>
