<svg width="723" height="380" viewBox="0 0 723 380" fill="none" xmlns="http://www.w3.org/2000/svg">
<mask id="path-1-inside-1_154_3109" fill="white">
<path d="M0 2C0 0.895427 0.895431 0 2 0H362V380H2C0.895435 380 0 379.105 0 378V2Z"/>
</mask>
<path d="M0 2C0 0.895427 0.895431 0 2 0H362V380H2C0.895435 380 0 379.105 0 378V2Z" fill="white"/>
<path d="M-1 2C-1 0.343146 0.343146 -1 2 -1H362V1H2C1.44772 1 1 1.44772 1 2H-1ZM362 381H2C0.343146 381 -1 379.657 -1 378H1C1 378.552 1.44772 379 2 379H362V381ZM2 381C0.343146 381 -1 379.657 -1 378V2C-1 0.343146 0.343146 -1 2 -1V1C1.44772 1 1 1.44772 1 2V378C1 378.552 1.44772 379 2 379V381ZM362 0V380V0Z" fill="#D9D9D9" mask="url(#path-1-inside-1_154_3109)"/>
<path d="M260.5 174.5V205.5H101.5V174.5H260.5Z" fill="white"/>
<path d="M260.5 174.5V205.5H101.5V174.5H260.5Z" stroke="#D9D9D9"/>
<path d="M124.38 185.58H126.555C126.72 185.175 126.84 184.755 126.93 184.335H123.795V183.36H131.19V184.335H127.995C127.905 184.755 127.77 185.175 127.605 185.58H130.62V193.56H124.38V185.58ZM129.6 192.675V191.115H125.4V192.675H129.6ZM125.4 190.26H129.6V188.775H125.4V190.26ZM125.4 187.92H129.6V186.48H125.4V187.92ZM126.21 193.725L126.915 194.34C126.12 195.15 125.145 195.87 123.99 196.485L123.375 195.72C124.5 195.15 125.445 194.475 126.21 193.725ZM128.835 193.71C129.855 194.37 130.725 195.045 131.43 195.705L130.74 196.395C130.125 195.75 129.27 195.06 128.19 194.34L128.835 193.71ZM119.07 185.25C119.505 185.67 119.895 186.06 120.24 186.435C120.825 185.805 121.35 185.1 121.83 184.32H118.08V183.36H122.94V184.185C122.31 185.31 121.605 186.285 120.855 187.11C121.125 187.41 121.35 187.695 121.56 187.965H123.495V188.625C123.255 189.81 122.985 190.725 122.67 191.385L121.815 191.07C122.085 190.485 122.31 189.78 122.49 188.97H120.855V195.24C120.855 196.02 120.465 196.425 119.715 196.425H118.305L118.08 195.45C118.53 195.495 118.95 195.525 119.355 195.525C119.655 195.525 119.82 195.345 119.82 194.985V188.97H117.585V187.965H120.39C119.805 187.275 119.1 186.525 118.275 185.745L119.07 185.25ZM137.775 191.22V195.54H134.265V196.275H133.245V191.22H137.775ZM134.265 194.565H136.785V192.165H134.265V194.565ZM132.735 184.725H135.315C135.06 184.125 134.76 183.54 134.4 182.985L135.435 182.7C135.795 183.36 136.065 183.96 136.275 184.515L135.69 184.725H138.33V185.715H132.735V184.725ZM133.365 186.915H137.67V187.86H133.365V186.915ZM133.365 188.985H137.67V189.93H133.365V188.985ZM138.81 189.165H145.275V190.155C144.855 191.535 144.18 192.72 143.22 193.71C144.12 194.43 145.215 195.075 146.535 195.615L145.95 196.545C144.57 195.915 143.415 195.195 142.485 194.4C141.405 195.3 140.055 196.005 138.465 196.545L137.88 195.63C139.41 195.12 140.67 194.46 141.69 193.65C140.745 192.63 140.1 191.475 139.755 190.215H138.81V189.165ZM140.79 190.215C141.105 191.235 141.66 192.165 142.44 192.975C143.22 192.165 143.82 191.235 144.225 190.215H140.79ZM139.935 183.33H144.42V186.57C144.42 186.945 144.615 187.14 145.035 187.14H146.1V188.13H144.765C143.805 188.13 143.34 187.68 143.34 186.795V184.35H141V185.025C141 186.525 140.295 187.68 138.915 188.49L138.195 187.695C139.35 187.095 139.935 186.24 139.935 185.13V183.33ZM147.96 185.28H154.17C153.765 184.485 153.27 183.735 152.67 183.03L153.75 182.64C154.32 183.36 154.83 184.245 155.31 185.28H161.04V186.36H158.7C157.965 188.73 156.855 190.725 155.385 192.315C156.975 193.665 158.97 194.775 161.37 195.66L160.785 196.56C158.295 195.63 156.255 194.475 154.635 193.08C152.925 194.655 150.795 195.81 148.245 196.545L147.675 195.6C150.195 194.925 152.265 193.86 153.885 192.39C152.145 190.68 150.945 188.67 150.27 186.36H147.96V185.28ZM151.335 186.36C151.98 188.385 153.075 190.14 154.635 191.64C155.97 190.185 156.945 188.43 157.575 186.36H151.335ZM175.86 184.29V187.635H174.78V185.325H164.22V187.635H163.14V184.29H169.035C168.825 183.75 168.6 183.27 168.36 182.835L169.59 182.625C169.8 183.12 170.01 183.675 170.205 184.29H175.86ZM165.45 186.945H173.505V187.95C172.53 188.64 171.435 189.3 170.235 189.96V190.965H176.145V192.015H170.235V195.195C170.235 196.02 169.8 196.44 168.93 196.44H167.085L166.83 195.45C167.355 195.465 167.925 195.48 168.555 195.48C168.945 195.48 169.14 195.255 169.14 194.82V192.015H162.87V190.965H169.14V189.495C170.355 188.865 171.27 188.34 171.885 187.95H165.45V186.945Z" fill="#8F8F8F"/>
<path fill-rule="evenodd" clip-rule="evenodd" d="M237 194L230 186.98L230.976 186H230.978L237 192.041L243.024 186H243.026L244 186.979V186.981L237 194Z" fill="#8F8F8F"/>
<mask id="path-6-inside-2_154_3109" fill="white">
<path d="M362 0H721C722.105 0 723 0.895431 723 2V378C723 379.105 722.105 380 721 380H362V0Z"/>
</mask>
<path d="M362 0H721C722.105 0 723 0.895431 723 2V378C723 379.105 722.105 380 721 380H362V0Z" fill="#F5F5F5"/>
<path d="M362 0V-1H361V0H362ZM362 380H361V381H362V380ZM362 0V1H721V0V-1H362V0ZM723 2H722V378H723H724V2H723ZM721 380V379H362V380V381H721V380ZM362 380H363V0H362H361V380H362ZM723 378H722C722 378.552 721.552 379 721 379V380V381C722.657 381 724 379.657 724 378H723ZM721 0V1C721.552 1 722 1.44772 722 2H723H724C724 0.34314 722.657 -1 721 -1V0Z" fill="#D9D9D9" mask="url(#path-6-inside-2_154_3109)"/>
<path d="M391.856 35L388.801 26.862H388.749C388.766 27.0353 388.779 27.2563 388.788 27.525C388.805 27.7937 388.818 28.0883 388.827 28.409C388.835 28.721 388.84 29.0417 388.84 29.371V35H387.761V25.718H389.49L392.35 33.323H392.402L395.314 25.718H397.03V35H395.873V29.293C395.873 28.9897 395.877 28.6907 395.886 28.396C395.894 28.0927 395.907 27.811 395.925 27.551C395.942 27.2823 395.955 27.057 395.964 26.875H395.912L392.818 35H391.856ZM405.456 31.503C405.456 32.0837 405.378 32.5993 405.222 33.05C405.075 33.492 404.858 33.869 404.572 34.181C404.295 34.493 403.953 34.7313 403.545 34.896C403.147 35.052 402.7 35.13 402.206 35.13C401.747 35.13 401.322 35.052 400.932 34.896C400.542 34.7313 400.204 34.493 399.918 34.181C399.632 33.869 399.407 33.492 399.242 33.05C399.086 32.5993 399.008 32.0837 399.008 31.503C399.008 30.7317 399.138 30.0817 399.398 29.553C399.658 29.0157 400.031 28.6083 400.516 28.331C401.002 28.045 401.578 27.902 402.245 27.902C402.878 27.902 403.433 28.045 403.909 28.331C404.395 28.6083 404.772 29.0157 405.04 29.553C405.318 30.0817 405.456 30.7317 405.456 31.503ZM400.191 31.503C400.191 32.049 400.261 32.5257 400.399 32.933C400.547 33.3317 400.772 33.6393 401.075 33.856C401.379 34.0727 401.764 34.181 402.232 34.181C402.7 34.181 403.086 34.0727 403.389 33.856C403.693 33.6393 403.914 33.3317 404.052 32.933C404.2 32.5257 404.273 32.049 404.273 31.503C404.273 30.9483 404.2 30.476 404.052 30.086C403.905 29.696 403.68 29.397 403.376 29.189C403.082 28.9723 402.696 28.864 402.219 28.864C401.509 28.864 400.993 29.098 400.672 29.566C400.352 30.034 400.191 30.6797 400.191 31.503ZM409.74 35.13C408.873 35.13 408.18 34.831 407.66 34.233C407.14 33.6263 406.88 32.725 406.88 31.529C406.88 30.333 407.14 29.4317 407.66 28.825C408.188 28.2097 408.886 27.902 409.753 27.902C410.117 27.902 410.433 27.9497 410.702 28.045C410.97 28.1317 411.204 28.253 411.404 28.409C411.603 28.565 411.772 28.7383 411.911 28.929H411.989C411.98 28.8163 411.963 28.6517 411.937 28.435C411.919 28.2097 411.911 28.032 411.911 27.902V25.12H413.055V35H412.132L411.963 34.064H411.911C411.772 34.2633 411.603 34.4453 411.404 34.61C411.204 34.766 410.966 34.8917 410.689 34.987C410.42 35.0823 410.104 35.13 409.74 35.13ZM409.922 34.181C410.658 34.181 411.174 33.9817 411.469 33.583C411.772 33.1757 411.924 32.5647 411.924 31.75V31.542C411.924 30.6753 411.781 30.0123 411.495 29.553C411.209 29.085 410.68 28.851 409.909 28.851C409.293 28.851 408.83 29.098 408.518 29.592C408.214 30.0773 408.063 30.7317 408.063 31.555C408.063 32.387 408.214 33.0327 408.518 33.492C408.83 33.9513 409.298 34.181 409.922 34.181ZM417.959 27.902C418.557 27.902 419.068 28.032 419.493 28.292C419.926 28.552 420.255 28.9203 420.481 29.397C420.715 29.865 420.832 30.4153 420.832 31.048V31.737H416.061C416.078 32.5257 416.277 33.128 416.659 33.544C417.049 33.9513 417.59 34.155 418.284 34.155C418.726 34.155 419.116 34.116 419.454 34.038C419.8 33.9513 420.156 33.83 420.52 33.674V34.675C420.164 34.831 419.813 34.9437 419.467 35.013C419.12 35.091 418.708 35.13 418.232 35.13C417.573 35.13 416.988 34.9957 416.477 34.727C415.974 34.4583 415.58 34.0597 415.294 33.531C415.016 32.9937 414.878 32.3393 414.878 31.568C414.878 30.8053 415.003 30.151 415.255 29.605C415.515 29.059 415.874 28.6387 416.334 28.344C416.802 28.0493 417.343 27.902 417.959 27.902ZM417.946 28.838C417.4 28.838 416.966 29.0157 416.646 29.371C416.334 29.7177 416.147 30.203 416.087 30.827H419.636C419.636 30.4283 419.575 30.0817 419.454 29.787C419.332 29.4923 419.146 29.2627 418.895 29.098C418.652 28.9247 418.336 28.838 417.946 28.838Z" fill="#161616"/>
<path d="M443.5 48.5V71.5H386.5V48.5H443.5Z" fill="#465BC7" fill-opacity="0.2"/>
<path d="M443.5 48.5V71.5H386.5V48.5H443.5Z" stroke="#465BC7"/>
<path d="M398.981 55.718H403.219C404.129 55.718 404.831 55.926 405.351 56.368C405.845 56.784 406.092 57.343 406.092 58.058C406.092 58.578 405.962 59.02 405.702 59.384C405.442 59.722 405.091 59.982 404.623 60.151C405.234 60.268 405.702 60.515 406.014 60.892C406.326 61.269 406.482 61.776 406.482 62.4C406.482 63.336 406.157 64.012 405.52 64.454C404.974 64.818 404.207 65 403.219 65H398.981V55.718ZM400.398 56.888V59.657H402.842C403.492 59.657 403.96 59.54 404.246 59.319C404.532 59.085 404.675 58.721 404.675 58.227C404.675 57.759 404.532 57.421 404.246 57.213C403.96 56.992 403.492 56.888 402.868 56.888H400.398ZM400.398 60.814V63.83H403.024C403.622 63.83 404.09 63.726 404.428 63.544C404.844 63.297 405.065 62.907 405.065 62.374C405.065 61.828 404.896 61.425 404.571 61.178C404.246 60.931 403.739 60.814 403.063 60.814H400.398ZM410.805 58.097C411.793 58.097 412.521 58.344 412.989 58.838C413.392 59.267 413.6 59.891 413.6 60.71V65H412.326V64.051C412.066 64.389 411.741 64.662 411.351 64.857C410.909 65.065 410.389 65.182 409.791 65.182C409.089 65.182 408.543 65 408.153 64.649C407.724 64.298 407.516 63.843 407.516 63.284C407.516 62.53 407.815 61.945 408.413 61.542C408.959 61.152 409.739 60.957 410.727 60.931L412.235 60.892V60.619C412.235 59.683 411.728 59.215 410.714 59.215C410.285 59.215 409.934 59.293 409.674 59.449C409.362 59.631 409.167 59.904 409.089 60.281L407.724 60.164C407.867 59.436 408.231 58.89 408.803 58.552C409.297 58.24 409.973 58.097 410.805 58.097ZM412.235 61.893L410.818 61.932C409.557 61.958 408.933 62.4 408.933 63.232C408.933 63.492 409.037 63.7 409.258 63.869C409.466 64.038 409.752 64.129 410.103 64.129C410.688 64.129 411.182 63.947 411.598 63.596C412.014 63.245 412.235 62.803 412.235 62.283V61.893ZM417.686 58.097C419.428 58.097 420.39 58.799 420.546 60.216H419.207C419.103 59.852 418.947 59.605 418.726 59.462C418.492 59.306 418.128 59.228 417.66 59.228C417.244 59.228 416.932 59.28 416.724 59.41C416.477 59.54 416.36 59.748 416.36 60.008C416.36 60.242 416.542 60.437 416.906 60.606C417.14 60.71 417.582 60.84 418.258 61.009C419.025 61.191 419.597 61.412 419.961 61.646C420.494 61.984 420.767 62.452 420.767 63.05C420.767 64.467 419.766 65.182 417.777 65.182C415.931 65.182 414.943 64.389 414.787 62.829H416.139C416.217 63.284 416.386 63.609 416.62 63.791C416.854 63.96 417.218 64.051 417.738 64.051C418.804 64.051 419.35 63.739 419.35 63.141C419.35 62.816 419.142 62.556 418.752 62.374C418.544 62.27 418.089 62.14 417.4 61.984C416.607 61.802 416.048 61.607 415.736 61.399C415.216 61.074 414.956 60.619 414.956 60.047C414.956 59.436 415.203 58.955 415.71 58.617C416.217 58.266 416.88 58.097 417.686 58.097ZM422.906 55.588C423.179 55.588 423.413 55.666 423.595 55.848C423.777 56.017 423.868 56.238 423.868 56.511C423.868 56.784 423.764 57.005 423.582 57.187C423.4 57.356 423.166 57.447 422.906 57.447C422.633 57.447 422.412 57.356 422.23 57.187C422.048 57.005 421.957 56.771 421.957 56.511C421.957 56.238 422.048 56.017 422.23 55.848C422.412 55.666 422.633 55.588 422.906 55.588ZM422.217 58.279H423.595V65H422.217V58.279ZM428.45 58.097C429.308 58.097 429.997 58.292 430.517 58.682C431.037 59.098 431.375 59.722 431.505 60.554H430.14C430.049 60.099 429.867 59.761 429.581 59.553C429.295 59.332 428.918 59.228 428.45 59.228C427.878 59.228 427.436 59.436 427.111 59.865C426.773 60.281 426.617 60.879 426.617 61.633C426.617 62.387 426.773 62.985 427.098 63.414C427.397 63.83 427.839 64.051 428.437 64.051C429.464 64.051 430.036 63.531 430.166 62.517H431.531C431.375 63.414 431.024 64.09 430.504 64.532C429.984 64.961 429.282 65.182 428.424 65.182C427.397 65.182 426.604 64.844 426.032 64.168C425.473 63.518 425.2 62.686 425.2 61.646C425.2 60.632 425.473 59.8 426.019 59.15C426.604 58.448 427.41 58.097 428.45 58.097Z" fill="#465BC7"/>
<path d="M525.5 48.5V71.5H452.5V48.5H525.5Z" stroke="#465BC7"/>
<path d="M465.408 55.718H467.085L470.322 63.154H470.361L473.585 55.718H475.262V65H473.845V58.37H473.793L470.946 65H469.724L466.877 58.37H466.825V65H465.408V55.718ZM476.958 58.279H478.336V62.374C478.336 62.946 478.453 63.362 478.7 63.622C478.934 63.882 479.324 64.025 479.857 64.025C480.221 64.025 480.546 63.869 480.858 63.583C481.17 63.284 481.391 62.881 481.508 62.387V58.279H482.886V65H481.508V64.09C480.936 64.818 480.234 65.182 479.389 65.182C477.764 65.182 476.958 64.272 476.958 62.465V58.279ZM484.617 55.536H485.995V65H484.617V55.536ZM489.752 56.108V58.279H491.286V59.423H489.752V63.323C489.752 63.505 489.791 63.635 489.869 63.726C489.947 63.804 490.064 63.856 490.233 63.856H491.117V65H490.012C489.44 65 489.011 64.844 488.751 64.545C488.491 64.259 488.374 63.856 488.374 63.323V59.423H487.126V58.279H488.374V56.68L489.752 56.108ZM493.37 55.588C493.643 55.588 493.877 55.666 494.059 55.848C494.241 56.017 494.332 56.238 494.332 56.511C494.332 56.784 494.228 57.005 494.046 57.187C493.864 57.356 493.63 57.447 493.37 57.447C493.097 57.447 492.876 57.356 492.694 57.187C492.512 57.005 492.421 56.771 492.421 56.511C492.421 56.238 492.512 56.017 492.694 55.848C492.876 55.666 493.097 55.588 493.37 55.588ZM492.681 58.279H494.059V65H492.681V58.279ZM499.292 58.097C500.28 58.097 501.047 58.448 501.619 59.15C502.139 59.8 502.399 60.632 502.399 61.672C502.399 62.66 502.139 63.479 501.632 64.129C501.086 64.831 500.319 65.182 499.357 65.182C498.525 65.182 497.849 64.792 497.303 64.012V67.574H495.925V58.279H497.212V59.085C497.68 58.422 498.382 58.097 499.292 58.097ZM499.084 59.215C498.486 59.215 498.018 59.449 497.693 59.93C497.407 60.346 497.264 60.905 497.264 61.594V61.711C497.264 62.426 497.433 63.011 497.797 63.453C498.109 63.856 498.525 64.064 499.045 64.064C499.721 64.064 500.215 63.843 500.54 63.401C500.826 62.985 500.982 62.413 500.982 61.672C500.982 60.931 500.839 60.359 500.579 59.943C500.254 59.449 499.76 59.215 499.084 59.215ZM503.85 55.536H505.228V65H503.85V55.536ZM509.791 58.097C510.883 58.097 511.728 58.461 512.3 59.215C512.82 59.891 513.093 60.827 513.106 62.023H508.01C508.062 62.673 508.231 63.18 508.543 63.531C508.855 63.869 509.284 64.051 509.83 64.051C510.311 64.051 510.701 63.934 511 63.713C511.234 63.531 511.429 63.232 511.611 62.842H512.989C512.833 63.466 512.534 63.999 512.066 64.415C511.481 64.922 510.74 65.182 509.843 65.182C508.855 65.182 508.062 64.87 507.49 64.259C506.866 63.609 506.554 62.738 506.554 61.633C506.554 60.632 506.84 59.8 507.438 59.124C508.01 58.435 508.803 58.097 509.791 58.097ZM509.83 59.228C509.31 59.228 508.907 59.371 508.595 59.683C508.309 59.982 508.114 60.411 508.036 60.983H511.663C511.533 59.813 510.922 59.228 509.83 59.228Z" fill="#465BC7"/>
<path d="M595.5 48.5V71.5H534.5V48.5H595.5Z" stroke="#465BC7"/>
<path d="M551.094 55.536C552.277 55.536 553.213 55.796 553.902 56.342C554.565 56.862 554.981 57.629 555.15 58.669H553.72C553.59 58.045 553.304 57.577 552.862 57.265C552.42 56.94 551.822 56.784 551.094 56.784C550.197 56.784 549.482 57.083 548.949 57.707C548.377 58.357 548.104 59.254 548.104 60.398C548.104 61.516 548.351 62.374 548.871 62.972C549.417 63.622 550.275 63.947 551.432 63.947C551.887 63.947 552.316 63.882 552.719 63.778C553.109 63.674 553.447 63.518 553.759 63.323V61.308H551.198V60.099H555.176V63.999C554.695 64.376 554.136 64.662 553.499 64.87C552.823 65.078 552.082 65.182 551.276 65.182C549.794 65.182 548.65 64.714 547.831 63.778C547.064 62.907 546.687 61.776 546.687 60.398C546.687 59.007 547.064 57.863 547.831 56.966C548.637 56.004 549.729 55.536 551.094 55.536ZM559.867 58.097C560.205 58.097 560.504 58.149 560.738 58.266V59.644C560.4 59.54 560.075 59.501 559.763 59.501C559.347 59.501 558.97 59.67 558.645 60.008C558.294 60.372 558.125 60.853 558.125 61.438V65H556.747V58.279H558.125V59.293C558.294 58.929 558.515 58.656 558.775 58.474C559.087 58.214 559.451 58.097 559.867 58.097ZM564.678 58.097C565.692 58.097 566.511 58.435 567.122 59.111C567.72 59.774 568.032 60.619 568.032 61.646C568.032 62.66 567.733 63.505 567.135 64.155C566.511 64.831 565.692 65.182 564.678 65.182C563.664 65.182 562.845 64.831 562.221 64.155C561.623 63.505 561.324 62.66 561.324 61.646C561.324 60.619 561.623 59.774 562.234 59.111C562.845 58.435 563.664 58.097 564.678 58.097ZM564.678 59.228C564.041 59.228 563.547 59.475 563.196 59.982C562.884 60.411 562.741 60.97 562.741 61.646C562.741 62.322 562.884 62.868 563.196 63.297C563.547 63.791 564.041 64.051 564.678 64.051C565.315 64.051 565.809 63.791 566.173 63.297C566.485 62.855 566.641 62.309 566.641 61.646C566.641 60.97 566.485 60.411 566.173 59.982C565.809 59.475 565.315 59.228 564.678 59.228ZM569.341 58.279H570.719V62.374C570.719 62.946 570.836 63.362 571.083 63.622C571.317 63.882 571.707 64.025 572.24 64.025C572.604 64.025 572.929 63.869 573.241 63.583C573.553 63.284 573.774 62.881 573.891 62.387V58.279H575.269V65H573.891V64.09C573.319 64.818 572.617 65.182 571.772 65.182C570.147 65.182 569.341 64.272 569.341 62.465V58.279ZM580.211 58.097C581.199 58.097 581.966 58.448 582.538 59.15C583.058 59.8 583.318 60.632 583.318 61.672C583.318 62.66 583.058 63.479 582.551 64.129C582.005 64.831 581.238 65.182 580.276 65.182C579.444 65.182 578.768 64.792 578.222 64.012V67.574H576.844V58.279H578.131V59.085C578.599 58.422 579.301 58.097 580.211 58.097ZM580.003 59.215C579.405 59.215 578.937 59.449 578.612 59.93C578.326 60.346 578.183 60.905 578.183 61.594V61.711C578.183 62.426 578.352 63.011 578.716 63.453C579.028 63.856 579.444 64.064 579.964 64.064C580.64 64.064 581.134 63.843 581.459 63.401C581.745 62.985 581.901 62.413 581.901 61.672C581.901 60.931 581.758 60.359 581.498 59.943C581.173 59.449 580.679 59.215 580.003 59.215Z" fill="#465BC7"/>
<path d="M698.5 48.5V71.5H604.5V48.5H698.5Z" stroke="#465BC7"/>
<path d="M616.631 55.718H624.236V56.927H621.142V65H619.738V56.927H616.631V55.718ZM628.346 58.097C628.684 58.097 628.983 58.149 629.217 58.266V59.644C628.879 59.54 628.554 59.501 628.242 59.501C627.826 59.501 627.449 59.67 627.124 60.008C626.773 60.372 626.604 60.853 626.604 61.438V65H625.226V58.279H626.604V59.293C626.773 58.929 626.994 58.656 627.254 58.474C627.566 58.214 627.93 58.097 628.346 58.097ZM632.91 58.097C634.002 58.097 634.847 58.461 635.419 59.215C635.939 59.891 636.212 60.827 636.225 62.023H631.129C631.181 62.673 631.35 63.18 631.662 63.531C631.974 63.869 632.403 64.051 632.949 64.051C633.43 64.051 633.82 63.934 634.119 63.713C634.353 63.531 634.548 63.232 634.73 62.842H636.108C635.952 63.466 635.653 63.999 635.185 64.415C634.6 64.922 633.859 65.182 632.962 65.182C631.974 65.182 631.181 64.87 630.609 64.259C629.985 63.609 629.673 62.738 629.673 61.633C629.673 60.632 629.959 59.8 630.557 59.124C631.129 58.435 631.922 58.097 632.91 58.097ZM632.949 59.228C632.429 59.228 632.026 59.371 631.714 59.683C631.428 59.982 631.233 60.411 631.155 60.983H634.782C634.652 59.813 634.041 59.228 632.949 59.228ZM640.248 58.097C641.34 58.097 642.185 58.461 642.757 59.215C643.277 59.891 643.55 60.827 643.563 62.023H638.467C638.519 62.673 638.688 63.18 639 63.531C639.312 63.869 639.741 64.051 640.287 64.051C640.768 64.051 641.158 63.934 641.457 63.713C641.691 63.531 641.886 63.232 642.068 62.842H643.446C643.29 63.466 642.991 63.999 642.523 64.415C641.938 64.922 641.197 65.182 640.3 65.182C639.312 65.182 638.519 64.87 637.947 64.259C637.323 63.609 637.011 62.738 637.011 61.633C637.011 60.632 637.297 59.8 637.895 59.124C638.467 58.435 639.26 58.097 640.248 58.097ZM640.287 59.228C639.767 59.228 639.364 59.371 639.052 59.683C638.766 59.982 638.571 60.411 638.493 60.983H642.12C641.99 59.813 641.379 59.228 640.287 59.228ZM652.448 55.536C653.527 55.536 654.372 55.757 654.983 56.225C655.633 56.706 655.997 57.447 656.088 58.461H654.684C654.554 57.863 654.32 57.421 653.956 57.161C653.592 56.888 653.072 56.758 652.37 56.758C651.759 56.758 651.291 56.849 650.966 57.031C650.563 57.239 650.368 57.577 650.368 58.045C650.368 58.461 650.589 58.786 651.057 59.033C651.265 59.15 651.798 59.345 652.669 59.605C653.917 59.995 654.736 60.294 655.1 60.515C655.893 60.996 656.296 61.659 656.296 62.517C656.296 63.349 655.971 63.999 655.321 64.48C654.671 64.948 653.761 65.182 652.591 65.182C651.46 65.182 650.576 64.948 649.939 64.506C649.172 63.96 648.756 63.102 648.678 61.932H650.082C650.186 62.66 650.446 63.193 650.862 63.505C651.239 63.791 651.811 63.934 652.591 63.934C653.293 63.934 653.852 63.804 654.268 63.57C654.684 63.336 654.892 63.011 654.892 62.595C654.892 62.075 654.593 61.672 654.008 61.373C653.8 61.269 653.189 61.061 652.162 60.749C651.018 60.385 650.316 60.138 650.03 59.982C649.315 59.553 648.964 58.929 648.964 58.123C648.964 57.304 649.302 56.667 649.991 56.199C650.641 55.757 651.46 55.536 652.448 55.536ZM660.332 58.097C661.424 58.097 662.269 58.461 662.841 59.215C663.361 59.891 663.634 60.827 663.647 62.023H658.551C658.603 62.673 658.772 63.18 659.084 63.531C659.396 63.869 659.825 64.051 660.371 64.051C660.852 64.051 661.242 63.934 661.541 63.713C661.775 63.531 661.97 63.232 662.152 62.842H663.53C663.374 63.466 663.075 63.999 662.607 64.415C662.022 64.922 661.281 65.182 660.384 65.182C659.396 65.182 658.603 64.87 658.031 64.259C657.407 63.609 657.095 62.738 657.095 61.633C657.095 60.632 657.381 59.8 657.979 59.124C658.551 58.435 659.344 58.097 660.332 58.097ZM660.371 59.228C659.851 59.228 659.448 59.371 659.136 59.683C658.85 59.982 658.655 60.411 658.577 60.983H662.204C662.074 59.813 661.463 59.228 660.371 59.228ZM664.979 55.536H666.357V65H664.979V55.536ZM670.92 58.097C672.012 58.097 672.857 58.461 673.429 59.215C673.949 59.891 674.222 60.827 674.235 62.023H669.139C669.191 62.673 669.36 63.18 669.672 63.531C669.984 63.869 670.413 64.051 670.959 64.051C671.44 64.051 671.83 63.934 672.129 63.713C672.363 63.531 672.558 63.232 672.74 62.842H674.118C673.962 63.466 673.663 63.999 673.195 64.415C672.61 64.922 671.869 65.182 670.972 65.182C669.984 65.182 669.191 64.87 668.619 64.259C667.995 63.609 667.683 62.738 667.683 61.633C667.683 60.632 667.969 59.8 668.567 59.124C669.139 58.435 669.932 58.097 670.92 58.097ZM670.959 59.228C670.439 59.228 670.036 59.371 669.724 59.683C669.438 59.982 669.243 60.411 669.165 60.983H672.792C672.662 59.813 672.051 59.228 670.959 59.228ZM678.401 58.097C679.259 58.097 679.948 58.292 680.468 58.682C680.988 59.098 681.326 59.722 681.456 60.554H680.091C680 60.099 679.818 59.761 679.532 59.553C679.246 59.332 678.869 59.228 678.401 59.228C677.829 59.228 677.387 59.436 677.062 59.865C676.724 60.281 676.568 60.879 676.568 61.633C676.568 62.387 676.724 62.985 677.049 63.414C677.348 63.83 677.79 64.051 678.388 64.051C679.415 64.051 679.987 63.531 680.117 62.517H681.482C681.326 63.414 680.975 64.09 680.455 64.532C679.935 64.961 679.233 65.182 678.375 65.182C677.348 65.182 676.555 64.844 675.983 64.168C675.424 63.518 675.151 62.686 675.151 61.646C675.151 60.632 675.424 59.8 675.97 59.15C676.555 58.448 677.361 58.097 678.401 58.097ZM684.701 56.108V58.279H686.235V59.423H684.701V63.323C684.701 63.505 684.74 63.635 684.818 63.726C684.896 63.804 685.013 63.856 685.182 63.856H686.066V65H684.961C684.389 65 683.96 64.844 683.7 64.545C683.44 64.259 683.323 63.856 683.323 63.323V59.423H682.075V58.279H683.323V56.68L684.701 56.108Z" fill="#465BC7"/>
<path d="M520.5 80.5V103.5H386.5V80.5H520.5Z" stroke="#465BC7"/>
<path d="M399.147 87.718H402.527C404.022 87.718 405.153 88.134 405.933 88.979C406.661 89.759 407.025 90.89 407.025 92.359C407.025 93.815 406.648 94.946 405.907 95.752C405.127 96.584 403.996 97 402.501 97H399.147V87.718ZM400.564 88.927V95.791H402.241C403.411 95.791 404.282 95.505 404.828 94.946C405.361 94.387 405.634 93.529 405.634 92.359C405.634 91.163 405.361 90.305 404.841 89.759C404.295 89.2 403.437 88.927 402.267 88.927H400.564ZM407.621 90.279H409.116L410.962 95.18L412.73 90.279H414.238L410.585 99.574H409.116L410.286 96.844L407.621 90.279ZM418.483 90.097C420.147 90.097 420.992 91.007 420.992 92.853V97H419.614V92.97C419.614 91.826 419.081 91.254 418.041 91.254C417.651 91.254 417.3 91.384 417.014 91.67C416.702 91.982 416.507 92.411 416.455 92.957V97H415.077V90.279H416.455V91.111C416.715 90.773 417.014 90.526 417.352 90.357C417.69 90.175 418.067 90.097 418.483 90.097ZM425.596 90.097C426.584 90.097 427.312 90.344 427.78 90.838C428.183 91.267 428.391 91.891 428.391 92.71V97H427.117V96.051C426.857 96.389 426.532 96.662 426.142 96.857C425.7 97.065 425.18 97.182 424.582 97.182C423.88 97.182 423.334 97 422.944 96.649C422.515 96.298 422.307 95.843 422.307 95.284C422.307 94.53 422.606 93.945 423.204 93.542C423.75 93.152 424.53 92.957 425.518 92.931L427.026 92.892V92.619C427.026 91.683 426.519 91.215 425.505 91.215C425.076 91.215 424.725 91.293 424.465 91.449C424.153 91.631 423.958 91.904 423.88 92.281L422.515 92.164C422.658 91.436 423.022 90.89 423.594 90.552C424.088 90.24 424.764 90.097 425.596 90.097ZM427.026 93.893L425.609 93.932C424.348 93.958 423.724 94.4 423.724 95.232C423.724 95.492 423.828 95.7 424.049 95.869C424.257 96.038 424.543 96.129 424.894 96.129C425.479 96.129 425.973 95.947 426.389 95.596C426.805 95.245 427.026 94.803 427.026 94.283V93.893ZM433.192 90.097C434.18 90.097 434.895 90.474 435.311 91.228C435.61 90.812 435.935 90.513 436.273 90.344C436.585 90.175 436.962 90.097 437.417 90.097C438.106 90.097 438.678 90.318 439.133 90.786C439.575 91.241 439.809 91.839 439.809 92.593V97H438.431V92.827C438.431 92.281 438.314 91.878 438.08 91.631C437.846 91.371 437.456 91.254 436.936 91.254C436.546 91.254 436.234 91.397 435.974 91.683C435.714 91.969 435.584 92.372 435.584 92.866V97H434.206V92.84C434.206 91.774 433.738 91.254 432.828 91.254C432.386 91.254 432.022 91.423 431.762 91.761C431.476 92.086 431.346 92.489 431.346 92.957V97H429.968V90.279H431.346V91.02C431.892 90.396 432.516 90.097 433.192 90.097ZM442.344 87.588C442.617 87.588 442.851 87.666 443.033 87.848C443.215 88.017 443.306 88.238 443.306 88.511C443.306 88.784 443.202 89.005 443.02 89.187C442.838 89.356 442.604 89.447 442.344 89.447C442.071 89.447 441.85 89.356 441.668 89.187C441.486 89.005 441.395 88.771 441.395 88.511C441.395 88.238 441.486 88.017 441.668 87.848C441.85 87.666 442.071 87.588 442.344 87.588ZM441.655 90.279H443.033V97H441.655V90.279ZM447.888 90.097C448.746 90.097 449.435 90.292 449.955 90.682C450.475 91.098 450.813 91.722 450.943 92.554H449.578C449.487 92.099 449.305 91.761 449.019 91.553C448.733 91.332 448.356 91.228 447.888 91.228C447.316 91.228 446.874 91.436 446.549 91.865C446.211 92.281 446.055 92.879 446.055 93.633C446.055 94.387 446.211 94.985 446.536 95.414C446.835 95.83 447.277 96.051 447.875 96.051C448.902 96.051 449.474 95.531 449.604 94.517H450.969C450.813 95.414 450.462 96.09 449.942 96.532C449.422 96.961 448.72 97.182 447.862 97.182C446.835 97.182 446.042 96.844 445.47 96.168C444.911 95.518 444.638 94.686 444.638 93.646C444.638 92.632 444.911 91.8 445.457 91.15C446.042 90.448 446.848 90.097 447.888 90.097ZM456.606 87.718H462.911V88.927H458.023V91.631H462.638V92.84H458.023V97H456.606V87.718ZM466.877 90.097C467.969 90.097 468.814 90.461 469.386 91.215C469.906 91.891 470.179 92.827 470.192 94.023H465.096C465.148 94.673 465.317 95.18 465.629 95.531C465.941 95.869 466.37 96.051 466.916 96.051C467.397 96.051 467.787 95.934 468.086 95.713C468.32 95.531 468.515 95.232 468.697 94.842H470.075C469.919 95.466 469.62 95.999 469.152 96.415C468.567 96.922 467.826 97.182 466.929 97.182C465.941 97.182 465.148 96.87 464.576 96.259C463.952 95.609 463.64 94.738 463.64 93.633C463.64 92.632 463.926 91.8 464.524 91.124C465.096 90.435 465.889 90.097 466.877 90.097ZM466.916 91.228C466.396 91.228 465.993 91.371 465.681 91.683C465.395 91.982 465.2 92.411 465.122 92.983H468.749C468.619 91.813 468.008 91.228 466.916 91.228ZM473.409 88.108V90.279H474.943V91.423H473.409V95.323C473.409 95.505 473.448 95.635 473.526 95.726C473.604 95.804 473.721 95.856 473.89 95.856H474.774V97H473.669C473.097 97 472.668 96.844 472.408 96.545C472.148 96.259 472.031 95.856 472.031 95.323V91.423H470.783V90.279H472.031V88.68L473.409 88.108ZM479.042 90.097C479.9 90.097 480.589 90.292 481.109 90.682C481.629 91.098 481.967 91.722 482.097 92.554H480.732C480.641 92.099 480.459 91.761 480.173 91.553C479.887 91.332 479.51 91.228 479.042 91.228C478.47 91.228 478.028 91.436 477.703 91.865C477.365 92.281 477.209 92.879 477.209 93.633C477.209 94.387 477.365 94.985 477.69 95.414C477.989 95.83 478.431 96.051 479.029 96.051C480.056 96.051 480.628 95.531 480.758 94.517H482.123C481.967 95.414 481.616 96.09 481.096 96.532C480.576 96.961 479.874 97.182 479.016 97.182C477.989 97.182 477.196 96.844 476.624 96.168C476.065 95.518 475.792 94.686 475.792 93.646C475.792 92.632 476.065 91.8 476.611 91.15C477.196 90.448 478.002 90.097 479.042 90.097ZM483.301 87.536H484.679V91.228C484.926 90.838 485.238 90.539 485.615 90.357C485.953 90.175 486.33 90.097 486.759 90.097C487.565 90.097 488.176 90.331 488.592 90.812C488.982 91.267 489.177 91.943 489.177 92.827V97H487.799V93.061C487.799 92.463 487.669 92.021 487.435 91.709C487.175 91.384 486.772 91.228 486.252 91.228C485.784 91.228 485.407 91.41 485.121 91.787C484.822 92.164 484.679 92.645 484.679 93.23V97H483.301V87.536ZM491.716 87.588C491.989 87.588 492.223 87.666 492.405 87.848C492.587 88.017 492.678 88.238 492.678 88.511C492.678 88.784 492.574 89.005 492.392 89.187C492.21 89.356 491.976 89.447 491.716 89.447C491.443 89.447 491.222 89.356 491.04 89.187C490.858 89.005 490.767 88.771 490.767 88.511C490.767 88.238 490.858 88.017 491.04 87.848C491.222 87.666 491.443 87.588 491.716 87.588ZM491.027 90.279H492.405V97H491.027V90.279ZM497.676 90.097C499.34 90.097 500.185 91.007 500.185 92.853V97H498.807V92.97C498.807 91.826 498.274 91.254 497.234 91.254C496.844 91.254 496.493 91.384 496.207 91.67C495.895 91.982 495.7 92.411 495.648 92.957V97H494.27V90.279H495.648V91.111C495.908 90.773 496.207 90.526 496.545 90.357C496.883 90.175 497.26 90.097 497.676 90.097ZM504.555 90.097C505.439 90.097 506.115 90.448 506.609 91.176V90.279H507.987V96.558C507.987 98.69 506.934 99.756 504.854 99.756C503.918 99.756 503.203 99.574 502.709 99.223C502.215 98.859 501.916 98.313 501.786 97.572H503.164C503.242 97.962 503.398 98.248 503.658 98.417C503.905 98.573 504.308 98.664 504.854 98.664C506.024 98.664 506.609 98.027 506.609 96.766V95.726C506.115 96.467 505.439 96.844 504.555 96.844C503.645 96.844 502.904 96.532 502.345 95.921C501.773 95.31 501.5 94.504 501.5 93.49C501.5 92.476 501.773 91.67 502.345 91.046C502.904 90.409 503.645 90.097 504.555 90.097ZM504.763 91.215C504.178 91.215 503.723 91.41 503.411 91.826C503.073 92.216 502.917 92.775 502.917 93.49C502.917 94.14 503.047 94.66 503.307 95.037C503.606 95.479 504.087 95.713 504.763 95.713C505.348 95.713 505.803 95.518 506.141 95.128C506.453 94.725 506.622 94.179 506.622 93.49C506.622 92.788 506.453 92.229 506.141 91.826C505.803 91.41 505.348 91.215 504.763 91.215Z" fill="#465BC7"/>
<path d="M392.526 128.517C392.526 129.072 392.392 129.544 392.123 129.934C391.854 130.315 391.469 130.61 390.966 130.818C390.472 131.026 389.887 131.13 389.211 131.13C388.864 131.13 388.531 131.113 388.21 131.078C387.898 131.043 387.612 130.996 387.352 130.935C387.092 130.866 386.862 130.783 386.663 130.688V129.57C386.975 129.709 387.361 129.834 387.82 129.947C388.288 130.06 388.769 130.116 389.263 130.116C389.722 130.116 390.108 130.055 390.42 129.934C390.732 129.813 390.966 129.639 391.122 129.414C391.278 129.189 391.356 128.924 391.356 128.621C391.356 128.318 391.291 128.062 391.161 127.854C391.031 127.646 390.806 127.455 390.485 127.282C390.173 127.1 389.735 126.909 389.172 126.71C388.773 126.563 388.422 126.407 388.119 126.242C387.824 126.069 387.577 125.874 387.378 125.657C387.179 125.44 387.027 125.193 386.923 124.916C386.828 124.639 386.78 124.318 386.78 123.954C386.78 123.46 386.906 123.04 387.157 122.693C387.408 122.338 387.755 122.065 388.197 121.874C388.648 121.683 389.163 121.588 389.744 121.588C390.255 121.588 390.723 121.636 391.148 121.731C391.573 121.826 391.958 121.952 392.305 122.108L391.941 123.109C391.62 122.97 391.269 122.853 390.888 122.758C390.515 122.663 390.125 122.615 389.718 122.615C389.328 122.615 389.003 122.671 388.743 122.784C388.483 122.897 388.288 123.057 388.158 123.265C388.028 123.464 387.963 123.698 387.963 123.967C387.963 124.279 388.028 124.539 388.158 124.747C388.288 124.955 388.5 125.141 388.795 125.306C389.09 125.471 389.488 125.648 389.991 125.839C390.537 126.038 390.996 126.255 391.369 126.489C391.75 126.714 392.036 126.987 392.227 127.308C392.426 127.629 392.526 128.032 392.526 128.517ZM396.567 130.194C396.74 130.194 396.918 130.181 397.1 130.155C397.282 130.12 397.429 130.086 397.542 130.051V130.922C397.42 130.983 397.247 131.03 397.022 131.065C396.796 131.108 396.58 131.13 396.372 131.13C396.008 131.13 395.67 131.069 395.358 130.948C395.054 130.818 394.807 130.597 394.617 130.285C394.426 129.973 394.331 129.535 394.331 128.972V124.916H393.343V124.37L394.344 123.915L394.799 122.433H395.475V124.032H397.49V124.916H395.475V128.946C395.475 129.371 395.574 129.687 395.774 129.895C395.982 130.094 396.246 130.194 396.567 130.194ZM401.576 123.915C402.425 123.915 403.054 124.101 403.461 124.474C403.868 124.847 404.072 125.44 404.072 126.255V131H403.24L403.019 130.012H402.967C402.768 130.263 402.56 130.476 402.343 130.649C402.135 130.814 401.892 130.935 401.615 131.013C401.346 131.091 401.017 131.13 400.627 131.13C400.211 131.13 399.834 131.056 399.496 130.909C399.167 130.762 398.907 130.536 398.716 130.233C398.525 129.921 398.43 129.531 398.43 129.063C398.43 128.37 398.703 127.837 399.249 127.464C399.795 127.083 400.636 126.875 401.771 126.84L402.954 126.801V126.385C402.954 125.804 402.828 125.401 402.577 125.176C402.326 124.951 401.97 124.838 401.511 124.838C401.147 124.838 400.8 124.894 400.471 125.007C400.142 125.111 399.834 125.232 399.548 125.371L399.197 124.513C399.5 124.348 399.86 124.21 400.276 124.097C400.692 123.976 401.125 123.915 401.576 123.915ZM401.914 127.633C401.047 127.668 400.445 127.806 400.107 128.049C399.778 128.292 399.613 128.634 399.613 129.076C399.613 129.466 399.73 129.752 399.964 129.934C400.207 130.116 400.514 130.207 400.887 130.207C401.476 130.207 401.966 130.047 402.356 129.726C402.746 129.397 402.941 128.894 402.941 128.218V127.594L401.914 127.633ZM408.551 130.194C408.724 130.194 408.902 130.181 409.084 130.155C409.266 130.12 409.413 130.086 409.526 130.051V130.922C409.405 130.983 409.231 131.03 409.006 131.065C408.781 131.108 408.564 131.13 408.356 131.13C407.992 131.13 407.654 131.069 407.342 130.948C407.039 130.818 406.792 130.597 406.601 130.285C406.41 129.973 406.315 129.535 406.315 128.972V124.916H405.327V124.37L406.328 123.915L406.783 122.433H407.459V124.032H409.474V124.916H407.459V128.946C407.459 129.371 407.559 129.687 407.758 129.895C407.966 130.094 408.23 130.194 408.551 130.194ZM413.612 123.902C414.21 123.902 414.722 124.032 415.146 124.292C415.58 124.552 415.909 124.92 416.134 125.397C416.368 125.865 416.485 126.415 416.485 127.048V127.737H411.714C411.732 128.526 411.931 129.128 412.312 129.544C412.702 129.951 413.244 130.155 413.937 130.155C414.379 130.155 414.769 130.116 415.107 130.038C415.454 129.951 415.809 129.83 416.173 129.674V130.675C415.818 130.831 415.467 130.944 415.12 131.013C414.774 131.091 414.362 131.13 413.885 131.13C413.227 131.13 412.642 130.996 412.13 130.727C411.628 130.458 411.233 130.06 410.947 129.531C410.67 128.994 410.531 128.339 410.531 127.568C410.531 126.805 410.657 126.151 410.908 125.605C411.168 125.059 411.528 124.639 411.987 124.344C412.455 124.049 412.997 123.902 413.612 123.902ZM413.599 124.838C413.053 124.838 412.62 125.016 412.299 125.371C411.987 125.718 411.801 126.203 411.74 126.827H415.289C415.289 126.428 415.229 126.082 415.107 125.787C414.986 125.492 414.8 125.263 414.548 125.098C414.306 124.925 413.989 124.838 413.599 124.838Z" fill="#161616"/>
<path d="M457.5 144.5V167.5H386.5V144.5H457.5Z" fill="#465BC7" fill-opacity="0.2"/>
<path d="M457.5 144.5V167.5H386.5V144.5H457.5Z" stroke="#465BC7"/>
<path d="M399.202 151.718H400.606V161H399.202V151.718ZM405.728 154.097C407.392 154.097 408.237 155.007 408.237 156.853V161H406.859V156.97C406.859 155.826 406.326 155.254 405.286 155.254C404.896 155.254 404.545 155.384 404.259 155.67C403.947 155.982 403.752 156.411 403.7 156.957V161H402.322V154.279H403.7V155.111C403.96 154.773 404.259 154.526 404.597 154.357C404.935 154.175 405.312 154.097 405.728 154.097ZM412.841 154.097C413.829 154.097 414.557 154.344 415.025 154.838C415.428 155.267 415.636 155.891 415.636 156.71V161H414.362V160.051C414.102 160.389 413.777 160.662 413.387 160.857C412.945 161.065 412.425 161.182 411.827 161.182C411.125 161.182 410.579 161 410.189 160.649C409.76 160.298 409.552 159.843 409.552 159.284C409.552 158.53 409.851 157.945 410.449 157.542C410.995 157.152 411.775 156.957 412.763 156.931L414.271 156.892V156.619C414.271 155.683 413.764 155.215 412.75 155.215C412.321 155.215 411.97 155.293 411.71 155.449C411.398 155.631 411.203 155.904 411.125 156.281L409.76 156.164C409.903 155.436 410.267 154.89 410.839 154.552C411.333 154.24 412.009 154.097 412.841 154.097ZM414.271 157.893L412.854 157.932C411.593 157.958 410.969 158.4 410.969 159.232C410.969 159.492 411.073 159.7 411.294 159.869C411.502 160.038 411.788 160.129 412.139 160.129C412.724 160.129 413.218 159.947 413.634 159.596C414.05 159.245 414.271 158.803 414.271 158.283V157.893ZM420.203 154.097C421.061 154.097 421.75 154.292 422.27 154.682C422.79 155.098 423.128 155.722 423.258 156.554H421.893C421.802 156.099 421.62 155.761 421.334 155.553C421.048 155.332 420.671 155.228 420.203 155.228C419.631 155.228 419.189 155.436 418.864 155.865C418.526 156.281 418.37 156.879 418.37 157.633C418.37 158.387 418.526 158.985 418.851 159.414C419.15 159.83 419.592 160.051 420.19 160.051C421.217 160.051 421.789 159.531 421.919 158.517H423.284C423.128 159.414 422.777 160.09 422.257 160.532C421.737 160.961 421.035 161.182 420.177 161.182C419.15 161.182 418.357 160.844 417.785 160.168C417.226 159.518 416.953 158.686 416.953 157.646C416.953 156.632 417.226 155.8 417.772 155.15C418.357 154.448 419.163 154.097 420.203 154.097ZM426.503 152.108V154.279H428.037V155.423H426.503V159.323C426.503 159.505 426.542 159.635 426.62 159.726C426.698 159.804 426.815 159.856 426.984 159.856H427.868V161H426.763C426.191 161 425.762 160.844 425.502 160.545C425.242 160.259 425.125 159.856 425.125 159.323V155.423H423.877V154.279H425.125V152.68L426.503 152.108ZM430.122 151.588C430.395 151.588 430.629 151.666 430.811 151.848C430.993 152.017 431.084 152.238 431.084 152.511C431.084 152.784 430.98 153.005 430.798 153.187C430.616 153.356 430.382 153.447 430.122 153.447C429.849 153.447 429.628 153.356 429.446 153.187C429.264 153.005 429.173 152.771 429.173 152.511C429.173 152.238 429.264 152.017 429.446 151.848C429.628 151.666 429.849 151.588 430.122 151.588ZM429.433 154.279H430.811V161H429.433V154.279ZM431.961 154.279H433.456L435.146 159.284L436.836 154.279H438.331L435.835 161H434.457L431.961 154.279ZM442.023 154.097C443.115 154.097 443.96 154.461 444.532 155.215C445.052 155.891 445.325 156.827 445.338 158.023H440.242C440.294 158.673 440.463 159.18 440.775 159.531C441.087 159.869 441.516 160.051 442.062 160.051C442.543 160.051 442.933 159.934 443.232 159.713C443.466 159.531 443.661 159.232 443.843 158.842H445.221C445.065 159.466 444.766 159.999 444.298 160.415C443.713 160.922 442.972 161.182 442.075 161.182C441.087 161.182 440.294 160.87 439.722 160.259C439.098 159.609 438.786 158.738 438.786 157.633C438.786 156.632 439.072 155.8 439.67 155.124C440.242 154.435 441.035 154.097 442.023 154.097ZM442.062 155.228C441.542 155.228 441.139 155.371 440.827 155.683C440.541 155.982 440.346 156.411 440.268 156.983H443.895C443.765 155.813 443.154 155.228 442.062 155.228Z" fill="#465BC7"/>
<path d="M525.5 144.5V167.5H466.5V144.5H525.5Z" stroke="#465BC7"/>
<path d="M478.933 151.718H480.35V155.631H485.212V151.718H486.629V161H485.212V156.84H480.35V161H478.933V151.718ZM491.419 154.097C492.433 154.097 493.252 154.435 493.863 155.111C494.461 155.774 494.773 156.619 494.773 157.646C494.773 158.66 494.474 159.505 493.876 160.155C493.252 160.831 492.433 161.182 491.419 161.182C490.405 161.182 489.586 160.831 488.962 160.155C488.364 159.505 488.065 158.66 488.065 157.646C488.065 156.619 488.364 155.774 488.975 155.111C489.586 154.435 490.405 154.097 491.419 154.097ZM491.419 155.228C490.782 155.228 490.288 155.475 489.937 155.982C489.625 156.411 489.482 156.97 489.482 157.646C489.482 158.322 489.625 158.868 489.937 159.297C490.288 159.791 490.782 160.051 491.419 160.051C492.056 160.051 492.55 159.791 492.914 159.297C493.226 158.855 493.382 158.309 493.382 157.646C493.382 156.97 493.226 156.411 492.914 155.982C492.55 155.475 492.056 155.228 491.419 155.228ZM495.367 154.279H496.862L498.552 159.284L500.242 154.279H501.737L499.241 161H497.863L495.367 154.279ZM505.429 154.097C506.521 154.097 507.366 154.461 507.938 155.215C508.458 155.891 508.731 156.827 508.744 158.023H503.648C503.7 158.673 503.869 159.18 504.181 159.531C504.493 159.869 504.922 160.051 505.468 160.051C505.949 160.051 506.339 159.934 506.638 159.713C506.872 159.531 507.067 159.232 507.249 158.842H508.627C508.471 159.466 508.172 159.999 507.704 160.415C507.119 160.922 506.378 161.182 505.481 161.182C504.493 161.182 503.7 160.87 503.128 160.259C502.504 159.609 502.192 158.738 502.192 157.633C502.192 156.632 502.478 155.8 503.076 155.124C503.648 154.435 504.441 154.097 505.429 154.097ZM505.468 155.228C504.948 155.228 504.545 155.371 504.233 155.683C503.947 155.982 503.752 156.411 503.674 156.983H507.301C507.171 155.813 506.56 155.228 505.468 155.228ZM513.04 154.097C513.378 154.097 513.677 154.149 513.911 154.266V155.644C513.573 155.54 513.248 155.501 512.936 155.501C512.52 155.501 512.143 155.67 511.818 156.008C511.467 156.372 511.298 156.853 511.298 157.438V161H509.92V154.279H511.298V155.293C511.467 154.929 511.688 154.656 511.948 154.474C512.26 154.214 512.624 154.097 513.04 154.097Z" fill="#465BC7"/>
<path d="M611.5 144.5V167.5H534.5V144.5H611.5Z" stroke="#465BC7"/>
<path d="M547.345 151.718H550.725C552.22 151.718 553.351 152.134 554.131 152.979C554.859 153.759 555.223 154.89 555.223 156.359C555.223 157.815 554.846 158.946 554.105 159.752C553.325 160.584 552.194 161 550.699 161H547.345V151.718ZM548.762 152.927V159.791H550.439C551.609 159.791 552.48 159.505 553.026 158.946C553.559 158.387 553.832 157.529 553.832 156.359C553.832 155.163 553.559 154.305 553.039 153.759C552.493 153.2 551.635 152.927 550.465 152.927H548.762ZM557.508 151.588C557.781 151.588 558.015 151.666 558.197 151.848C558.379 152.017 558.47 152.238 558.47 152.511C558.47 152.784 558.366 153.005 558.184 153.187C558.002 153.356 557.768 153.447 557.508 153.447C557.235 153.447 557.014 153.356 556.832 153.187C556.65 153.005 556.559 152.771 556.559 152.511C556.559 152.238 556.65 152.017 556.832 151.848C557.014 151.666 557.235 151.588 557.508 151.588ZM556.819 154.279H558.197V161H556.819V154.279ZM562.572 154.097C564.314 154.097 565.276 154.799 565.432 156.216H564.093C563.989 155.852 563.833 155.605 563.612 155.462C563.378 155.306 563.014 155.228 562.546 155.228C562.13 155.228 561.818 155.28 561.61 155.41C561.363 155.54 561.246 155.748 561.246 156.008C561.246 156.242 561.428 156.437 561.792 156.606C562.026 156.71 562.468 156.84 563.144 157.009C563.911 157.191 564.483 157.412 564.847 157.646C565.38 157.984 565.653 158.452 565.653 159.05C565.653 160.467 564.652 161.182 562.663 161.182C560.817 161.182 559.829 160.389 559.673 158.829H561.025C561.103 159.284 561.272 159.609 561.506 159.791C561.74 159.96 562.104 160.051 562.624 160.051C563.69 160.051 564.236 159.739 564.236 159.141C564.236 158.816 564.028 158.556 563.638 158.374C563.43 158.27 562.975 158.14 562.286 157.984C561.493 157.802 560.934 157.607 560.622 157.399C560.102 157.074 559.842 156.619 559.842 156.047C559.842 155.436 560.089 154.955 560.596 154.617C561.103 154.266 561.766 154.097 562.572 154.097ZM569.846 154.097C570.834 154.097 571.562 154.344 572.03 154.838C572.433 155.267 572.641 155.891 572.641 156.71V161H571.367V160.051C571.107 160.389 570.782 160.662 570.392 160.857C569.95 161.065 569.43 161.182 568.832 161.182C568.13 161.182 567.584 161 567.194 160.649C566.765 160.298 566.557 159.843 566.557 159.284C566.557 158.53 566.856 157.945 567.454 157.542C568 157.152 568.78 156.957 569.768 156.931L571.276 156.892V156.619C571.276 155.683 570.769 155.215 569.755 155.215C569.326 155.215 568.975 155.293 568.715 155.449C568.403 155.631 568.208 155.904 568.13 156.281L566.765 156.164C566.908 155.436 567.272 154.89 567.844 154.552C568.338 154.24 569.014 154.097 569.846 154.097ZM571.276 157.893L569.859 157.932C568.598 157.958 567.974 158.4 567.974 159.232C567.974 159.492 568.078 159.7 568.299 159.869C568.507 160.038 568.793 160.129 569.144 160.129C569.729 160.129 570.223 159.947 570.639 159.596C571.055 159.245 571.276 158.803 571.276 158.283V157.893ZM574.218 151.536H575.596V155.28C576.142 154.487 576.818 154.097 577.65 154.097C578.612 154.097 579.366 154.448 579.925 155.15C580.432 155.8 580.692 156.619 580.692 157.607C580.692 158.634 580.432 159.479 579.912 160.129C579.34 160.831 578.573 161.182 577.585 161.182C576.662 161.182 575.973 160.844 575.505 160.194V161H574.218V151.536ZM577.338 155.215C576.818 155.215 576.402 155.41 576.09 155.826C575.726 156.268 575.557 156.853 575.557 157.581V157.698C575.557 158.374 575.7 158.92 575.986 159.349C576.311 159.817 576.779 160.064 577.377 160.064C578.053 160.064 578.547 159.817 578.872 159.336C579.132 158.92 579.275 158.348 579.275 157.607C579.275 156.866 579.132 156.294 578.846 155.904C578.521 155.436 578.014 155.215 577.338 155.215ZM582.144 151.536H583.522V161H582.144V151.536ZM588.085 154.097C589.177 154.097 590.022 154.461 590.594 155.215C591.114 155.891 591.387 156.827 591.4 158.023H586.304C586.356 158.673 586.525 159.18 586.837 159.531C587.149 159.869 587.578 160.051 588.124 160.051C588.605 160.051 588.995 159.934 589.294 159.713C589.528 159.531 589.723 159.232 589.905 158.842H591.283C591.127 159.466 590.828 159.999 590.36 160.415C589.775 160.922 589.034 161.182 588.137 161.182C587.149 161.182 586.356 160.87 585.784 160.259C585.16 159.609 584.848 158.738 584.848 157.633C584.848 156.632 585.134 155.8 585.732 155.124C586.304 154.435 587.097 154.097 588.085 154.097ZM588.124 155.228C587.604 155.228 587.201 155.371 586.889 155.683C586.603 155.982 586.408 156.411 586.33 156.983H589.957C589.827 155.813 589.216 155.228 588.124 155.228ZM597.411 151.536H598.789V161H597.502V160.194C597.034 160.844 596.332 161.182 595.422 161.182C594.434 161.182 593.654 160.831 593.095 160.129C592.575 159.479 592.315 158.634 592.315 157.607C592.315 156.619 592.562 155.8 593.082 155.15C593.628 154.448 594.395 154.097 595.357 154.097C596.176 154.097 596.865 154.487 597.411 155.28V151.536ZM595.669 155.215C594.993 155.215 594.486 155.436 594.161 155.904C593.875 156.294 593.732 156.866 593.732 157.607C593.732 158.348 593.862 158.92 594.135 159.336C594.447 159.817 594.954 160.064 595.63 160.064C596.228 160.064 596.683 159.817 597.021 159.349C597.307 158.92 597.45 158.374 597.45 157.698V157.581C597.45 156.853 597.268 156.268 596.93 155.826C596.592 155.41 596.176 155.215 595.669 155.215Z" fill="#465BC7"/>
<path d="M674.5 144.5V167.5H620.5V144.5H674.5Z" stroke="#465BC7"/>
<path d="M633.112 151.718H639.781V152.927H634.529V155.631H639.469V156.84H634.529V159.791H640.002V161H633.112V151.718ZM644.43 154.097C644.768 154.097 645.067 154.149 645.301 154.266V155.644C644.963 155.54 644.638 155.501 644.326 155.501C643.91 155.501 643.533 155.67 643.208 156.008C642.857 156.372 642.688 156.853 642.688 157.438V161H641.31V154.279H642.688V155.293C642.857 154.929 643.078 154.656 643.338 154.474C643.65 154.214 644.014 154.097 644.43 154.097ZM649.267 154.097C649.605 154.097 649.904 154.149 650.138 154.266V155.644C649.8 155.54 649.475 155.501 649.163 155.501C648.747 155.501 648.37 155.67 648.045 156.008C647.694 156.372 647.525 156.853 647.525 157.438V161H646.147V154.279H647.525V155.293C647.694 154.929 647.915 154.656 648.175 154.474C648.487 154.214 648.851 154.097 649.267 154.097ZM654.078 154.097C655.092 154.097 655.911 154.435 656.522 155.111C657.12 155.774 657.432 156.619 657.432 157.646C657.432 158.66 657.133 159.505 656.535 160.155C655.911 160.831 655.092 161.182 654.078 161.182C653.064 161.182 652.245 160.831 651.621 160.155C651.023 159.505 650.724 158.66 650.724 157.646C650.724 156.619 651.023 155.774 651.634 155.111C652.245 154.435 653.064 154.097 654.078 154.097ZM654.078 155.228C653.441 155.228 652.947 155.475 652.596 155.982C652.284 156.411 652.141 156.97 652.141 157.646C652.141 158.322 652.284 158.868 652.596 159.297C652.947 159.791 653.441 160.051 654.078 160.051C654.715 160.051 655.209 159.791 655.573 159.297C655.885 158.855 656.041 158.309 656.041 157.646C656.041 156.97 655.885 156.411 655.573 155.982C655.209 155.475 654.715 155.228 654.078 155.228ZM661.861 154.097C662.199 154.097 662.498 154.149 662.732 154.266V155.644C662.394 155.54 662.069 155.501 661.757 155.501C661.341 155.501 660.964 155.67 660.639 156.008C660.288 156.372 660.119 156.853 660.119 157.438V161H658.741V154.279H660.119V155.293C660.288 154.929 660.509 154.656 660.769 154.474C661.081 154.214 661.445 154.097 661.861 154.097Z" fill="#465BC7"/>
<path d="M392.526 192.517C392.526 193.072 392.392 193.544 392.123 193.934C391.854 194.315 391.469 194.61 390.966 194.818C390.472 195.026 389.887 195.13 389.211 195.13C388.864 195.13 388.531 195.113 388.21 195.078C387.898 195.043 387.612 194.996 387.352 194.935C387.092 194.866 386.862 194.783 386.663 194.688V193.57C386.975 193.709 387.361 193.834 387.82 193.947C388.288 194.06 388.769 194.116 389.263 194.116C389.722 194.116 390.108 194.055 390.42 193.934C390.732 193.813 390.966 193.639 391.122 193.414C391.278 193.189 391.356 192.924 391.356 192.621C391.356 192.318 391.291 192.062 391.161 191.854C391.031 191.646 390.806 191.455 390.485 191.282C390.173 191.1 389.735 190.909 389.172 190.71C388.773 190.563 388.422 190.407 388.119 190.242C387.824 190.069 387.577 189.874 387.378 189.657C387.179 189.44 387.027 189.193 386.923 188.916C386.828 188.639 386.78 188.318 386.78 187.954C386.78 187.46 386.906 187.04 387.157 186.693C387.408 186.338 387.755 186.065 388.197 185.874C388.648 185.683 389.163 185.588 389.744 185.588C390.255 185.588 390.723 185.636 391.148 185.731C391.573 185.826 391.958 185.952 392.305 186.108L391.941 187.109C391.62 186.97 391.269 186.853 390.888 186.758C390.515 186.663 390.125 186.615 389.718 186.615C389.328 186.615 389.003 186.671 388.743 186.784C388.483 186.897 388.288 187.057 388.158 187.265C388.028 187.464 387.963 187.698 387.963 187.967C387.963 188.279 388.028 188.539 388.158 188.747C388.288 188.955 388.5 189.141 388.795 189.306C389.09 189.471 389.488 189.648 389.991 189.839C390.537 190.038 390.996 190.255 391.369 190.489C391.75 190.714 392.036 190.987 392.227 191.308C392.426 191.629 392.526 192.032 392.526 192.517ZM395.384 188.032V195H394.24V188.032H395.384ZM394.825 185.419C394.998 185.419 395.15 185.48 395.28 185.601C395.418 185.714 395.488 185.896 395.488 186.147C395.488 186.39 395.418 186.572 395.28 186.693C395.15 186.814 394.998 186.875 394.825 186.875C394.634 186.875 394.474 186.814 394.344 186.693C394.214 186.572 394.149 186.39 394.149 186.147C394.149 185.896 394.214 185.714 394.344 185.601C394.474 185.48 394.634 185.419 394.825 185.419ZM402.089 195H396.993V194.246L400.737 188.916H397.214V188.032H401.998V188.89L398.306 194.116H402.089V195ZM406.389 187.902C406.987 187.902 407.498 188.032 407.923 188.292C408.356 188.552 408.685 188.92 408.911 189.397C409.145 189.865 409.262 190.415 409.262 191.048V191.737H404.491C404.508 192.526 404.707 193.128 405.089 193.544C405.479 193.951 406.02 194.155 406.714 194.155C407.156 194.155 407.546 194.116 407.884 194.038C408.23 193.951 408.586 193.83 408.95 193.674V194.675C408.594 194.831 408.243 194.944 407.897 195.013C407.55 195.091 407.138 195.13 406.662 195.13C406.003 195.13 405.418 194.996 404.907 194.727C404.404 194.458 404.01 194.06 403.724 193.531C403.446 192.994 403.308 192.339 403.308 191.568C403.308 190.805 403.433 190.151 403.685 189.605C403.945 189.059 404.304 188.639 404.764 188.344C405.232 188.049 405.773 187.902 406.389 187.902ZM406.376 188.838C405.83 188.838 405.396 189.016 405.076 189.371C404.764 189.718 404.577 190.203 404.517 190.827H408.066C408.066 190.428 408.005 190.082 407.884 189.787C407.762 189.492 407.576 189.263 407.325 189.098C407.082 188.925 406.766 188.838 406.376 188.838Z" fill="#161616"/>
<path d="M445.5 208.5V231.5H386.5V208.5H445.5Z" stroke="#465BC7"/>
<path d="M399.39 215.718H400.794V223.791H405.903V225H399.39V215.718ZM409.97 218.097C410.958 218.097 411.686 218.344 412.154 218.838C412.557 219.267 412.765 219.891 412.765 220.71V225H411.491V224.051C411.231 224.389 410.906 224.662 410.516 224.857C410.074 225.065 409.554 225.182 408.956 225.182C408.254 225.182 407.708 225 407.318 224.649C406.889 224.298 406.681 223.843 406.681 223.284C406.681 222.53 406.98 221.945 407.578 221.542C408.124 221.152 408.904 220.957 409.892 220.931L411.4 220.892V220.619C411.4 219.683 410.893 219.215 409.879 219.215C409.45 219.215 409.099 219.293 408.839 219.449C408.527 219.631 408.332 219.904 408.254 220.281L406.889 220.164C407.032 219.436 407.396 218.89 407.968 218.552C408.462 218.24 409.138 218.097 409.97 218.097ZM411.4 221.893L409.983 221.932C408.722 221.958 408.098 222.4 408.098 223.232C408.098 223.492 408.202 223.7 408.423 223.869C408.631 224.038 408.917 224.129 409.268 224.129C409.853 224.129 410.347 223.947 410.763 223.596C411.179 223.245 411.4 222.803 411.4 222.283V221.893ZM417.463 218.097C417.801 218.097 418.1 218.149 418.334 218.266V219.644C417.996 219.54 417.671 219.501 417.359 219.501C416.943 219.501 416.566 219.67 416.241 220.008C415.89 220.372 415.721 220.853 415.721 221.438V225H414.343V218.279H415.721V219.293C415.89 218.929 416.111 218.656 416.371 218.474C416.683 218.214 417.047 218.097 417.463 218.097ZM421.974 218.097C422.858 218.097 423.534 218.448 424.028 219.176V218.279H425.406V224.558C425.406 226.69 424.353 227.756 422.273 227.756C421.337 227.756 420.622 227.574 420.128 227.223C419.634 226.859 419.335 226.313 419.205 225.572H420.583C420.661 225.962 420.817 226.248 421.077 226.417C421.324 226.573 421.727 226.664 422.273 226.664C423.443 226.664 424.028 226.027 424.028 224.766V223.726C423.534 224.467 422.858 224.844 421.974 224.844C421.064 224.844 420.323 224.532 419.764 223.921C419.192 223.31 418.919 222.504 418.919 221.49C418.919 220.476 419.192 219.67 419.764 219.046C420.323 218.409 421.064 218.097 421.974 218.097ZM422.182 219.215C421.597 219.215 421.142 219.41 420.83 219.826C420.492 220.216 420.336 220.775 420.336 221.49C420.336 222.14 420.466 222.66 420.726 223.037C421.025 223.479 421.506 223.713 422.182 223.713C422.767 223.713 423.222 223.518 423.56 223.128C423.872 222.725 424.041 222.179 424.041 221.49C424.041 220.788 423.872 220.229 423.56 219.826C423.222 219.41 422.767 219.215 422.182 219.215ZM429.809 218.097C430.901 218.097 431.746 218.461 432.318 219.215C432.838 219.891 433.111 220.827 433.124 222.023H428.028C428.08 222.673 428.249 223.18 428.561 223.531C428.873 223.869 429.302 224.051 429.848 224.051C430.329 224.051 430.719 223.934 431.018 223.713C431.252 223.531 431.447 223.232 431.629 222.842H433.007C432.851 223.466 432.552 223.999 432.084 224.415C431.499 224.922 430.758 225.182 429.861 225.182C428.873 225.182 428.08 224.87 427.508 224.259C426.884 223.609 426.572 222.738 426.572 221.633C426.572 220.632 426.858 219.8 427.456 219.124C428.028 218.435 428.821 218.097 429.809 218.097ZM429.848 219.228C429.328 219.228 428.925 219.371 428.613 219.683C428.327 219.982 428.132 220.411 428.054 220.983H431.681C431.551 219.813 430.94 219.228 429.848 219.228Z" fill="#465BC7"/>
<path d="M527.5 208.5V231.5H454.5V208.5H527.5Z" fill="#465BC7" fill-opacity="0.2"/>
<path d="M527.5 208.5V231.5H454.5V208.5H527.5Z" stroke="#465BC7"/>
<path d="M467.3 215.718H468.977L472.214 223.154H472.253L475.477 215.718H477.154V225H475.737V218.37H475.685L472.838 225H471.616L468.769 218.37H468.717V225H467.3V215.718ZM481.697 218.097C482.789 218.097 483.634 218.461 484.206 219.215C484.726 219.891 484.999 220.827 485.012 222.023H479.916C479.968 222.673 480.137 223.18 480.449 223.531C480.761 223.869 481.19 224.051 481.736 224.051C482.217 224.051 482.607 223.934 482.906 223.713C483.14 223.531 483.335 223.232 483.517 222.842H484.895C484.739 223.466 484.44 223.999 483.972 224.415C483.387 224.922 482.646 225.182 481.749 225.182C480.761 225.182 479.968 224.87 479.396 224.259C478.772 223.609 478.46 222.738 478.46 221.633C478.46 220.632 478.746 219.8 479.344 219.124C479.916 218.435 480.709 218.097 481.697 218.097ZM481.736 219.228C481.216 219.228 480.813 219.371 480.501 219.683C480.215 219.982 480.02 220.411 479.942 220.983H483.569C483.439 219.813 482.828 219.228 481.736 219.228ZM491.024 215.536H492.402V225H491.115V224.194C490.647 224.844 489.945 225.182 489.035 225.182C488.047 225.182 487.267 224.831 486.708 224.129C486.188 223.479 485.928 222.634 485.928 221.607C485.928 220.619 486.175 219.8 486.695 219.15C487.241 218.448 488.008 218.097 488.97 218.097C489.789 218.097 490.478 218.487 491.024 219.28V215.536ZM489.282 219.215C488.606 219.215 488.099 219.436 487.774 219.904C487.488 220.294 487.345 220.866 487.345 221.607C487.345 222.348 487.475 222.92 487.748 223.336C488.06 223.817 488.567 224.064 489.243 224.064C489.841 224.064 490.296 223.817 490.634 223.349C490.92 222.92 491.063 222.374 491.063 221.698V221.581C491.063 220.853 490.881 220.268 490.543 219.826C490.205 219.41 489.789 219.215 489.282 219.215ZM494.932 215.588C495.205 215.588 495.439 215.666 495.621 215.848C495.803 216.017 495.894 216.238 495.894 216.511C495.894 216.784 495.79 217.005 495.608 217.187C495.426 217.356 495.192 217.447 494.932 217.447C494.659 217.447 494.438 217.356 494.256 217.187C494.074 217.005 493.983 216.771 493.983 216.511C493.983 216.238 494.074 216.017 494.256 215.848C494.438 215.666 494.659 215.588 494.932 215.588ZM494.243 218.279H495.621V225H494.243V218.279ZM497.487 218.279H498.865V222.374C498.865 222.946 498.982 223.362 499.229 223.622C499.463 223.882 499.853 224.025 500.386 224.025C500.75 224.025 501.075 223.869 501.387 223.583C501.699 223.284 501.92 222.881 502.037 222.387V218.279H503.415V225H502.037V224.09C501.465 224.818 500.763 225.182 499.918 225.182C498.293 225.182 497.487 224.272 497.487 222.465V218.279ZM508.213 218.097C509.201 218.097 509.916 218.474 510.332 219.228C510.631 218.812 510.956 218.513 511.294 218.344C511.606 218.175 511.983 218.097 512.438 218.097C513.127 218.097 513.699 218.318 514.154 218.786C514.596 219.241 514.83 219.839 514.83 220.593V225H513.452V220.827C513.452 220.281 513.335 219.878 513.101 219.631C512.867 219.371 512.477 219.254 511.957 219.254C511.567 219.254 511.255 219.397 510.995 219.683C510.735 219.969 510.605 220.372 510.605 220.866V225H509.227V220.84C509.227 219.774 508.759 219.254 507.849 219.254C507.407 219.254 507.043 219.423 506.783 219.761C506.497 220.086 506.367 220.489 506.367 220.957V225H504.989V218.279H506.367V219.02C506.913 218.396 507.537 218.097 508.213 218.097Z" fill="#465BC7"/>
<path d="M593.5 208.5V231.5H536.5V208.5H593.5Z" stroke="#465BC7"/>
<path d="M552.301 215.536C553.38 215.536 554.225 215.757 554.836 216.225C555.486 216.706 555.85 217.447 555.941 218.461H554.537C554.407 217.863 554.173 217.421 553.809 217.161C553.445 216.888 552.925 216.758 552.223 216.758C551.612 216.758 551.144 216.849 550.819 217.031C550.416 217.239 550.221 217.577 550.221 218.045C550.221 218.461 550.442 218.786 550.91 219.033C551.118 219.15 551.651 219.345 552.522 219.605C553.77 219.995 554.589 220.294 554.953 220.515C555.746 220.996 556.149 221.659 556.149 222.517C556.149 223.349 555.824 223.999 555.174 224.48C554.524 224.948 553.614 225.182 552.444 225.182C551.313 225.182 550.429 224.948 549.792 224.506C549.025 223.96 548.609 223.102 548.531 221.932H549.935C550.039 222.66 550.299 223.193 550.715 223.505C551.092 223.791 551.664 223.934 552.444 223.934C553.146 223.934 553.705 223.804 554.121 223.57C554.537 223.336 554.745 223.011 554.745 222.595C554.745 222.075 554.446 221.672 553.861 221.373C553.653 221.269 553.042 221.061 552.015 220.749C550.871 220.385 550.169 220.138 549.883 219.982C549.168 219.553 548.817 218.929 548.817 218.123C548.817 217.304 549.155 216.667 549.844 216.199C550.494 215.757 551.313 215.536 552.301 215.536ZM560.562 218.097C561.55 218.097 562.265 218.474 562.681 219.228C562.98 218.812 563.305 218.513 563.643 218.344C563.955 218.175 564.332 218.097 564.787 218.097C565.476 218.097 566.048 218.318 566.503 218.786C566.945 219.241 567.179 219.839 567.179 220.593V225H565.801V220.827C565.801 220.281 565.684 219.878 565.45 219.631C565.216 219.371 564.826 219.254 564.306 219.254C563.916 219.254 563.604 219.397 563.344 219.683C563.084 219.969 562.954 220.372 562.954 220.866V225H561.576V220.84C561.576 219.774 561.108 219.254 560.198 219.254C559.756 219.254 559.392 219.423 559.132 219.761C558.846 220.086 558.716 220.489 558.716 220.957V225H557.338V218.279H558.716V219.02C559.262 218.396 559.886 218.097 560.562 218.097ZM571.767 218.097C572.755 218.097 573.483 218.344 573.951 218.838C574.354 219.267 574.562 219.891 574.562 220.71V225H573.288V224.051C573.028 224.389 572.703 224.662 572.313 224.857C571.871 225.065 571.351 225.182 570.753 225.182C570.051 225.182 569.505 225 569.115 224.649C568.686 224.298 568.478 223.843 568.478 223.284C568.478 222.53 568.777 221.945 569.375 221.542C569.921 221.152 570.701 220.957 571.689 220.931L573.197 220.892V220.619C573.197 219.683 572.69 219.215 571.676 219.215C571.247 219.215 570.896 219.293 570.636 219.449C570.324 219.631 570.129 219.904 570.051 220.281L568.686 220.164C568.829 219.436 569.193 218.89 569.765 218.552C570.259 218.24 570.935 218.097 571.767 218.097ZM573.197 221.893L571.78 221.932C570.519 221.958 569.895 222.4 569.895 223.232C569.895 223.492 569.999 223.7 570.22 223.869C570.428 224.038 570.714 224.129 571.065 224.129C571.65 224.129 572.144 223.947 572.56 223.596C572.976 223.245 573.197 222.803 573.197 222.283V221.893ZM576.295 215.536H577.673V225H576.295V215.536ZM579.545 215.536H580.923V225H579.545V215.536Z" fill="#465BC7"/>
</svg>
