<svg width="652" height="276" viewBox="0 0 652 276" fill="none" xmlns="http://www.w3.org/2000/svg">
<mask id="path-2-inside-1_154_6360" fill="white">
<path d="M0 2C0 0.89543 0.89543 0 2 0H650C651.105 0 652 0.895431 652 2V276H0V2Z"/>
</mask>
<path d="M0 2C0 0.89543 0.89543 0 2 0H650C651.105 0 652 0.895431 652 2V276H0V2Z" fill="white"/>
<path d="M652 276V277H653V276H652ZM0 276H-1V277H0V276ZM2 0V1H650V0V-1H2V0ZM652 2H651V276H652H653V2H652ZM652 276V275H0V276V277H652V276ZM0 276H1V2H0H-1V276H0ZM650 0V1C650.552 1 651 1.44772 651 2H652H653C653 0.343142 651.657 -1 650 -1V0ZM2 0V-1C0.343146 -1 -1 0.343145 -1 2H0H1C1 1.44772 1.44771 1 2 1V0Z" fill="#D9D9D9" mask="url(#path-2-inside-1_154_6360)"/>
<path d="M46.942 33L46.097 30.543H42.6L41.768 33H40L43.406 23.679H45.304L48.71 33H46.942ZM44.862 26.721C44.8273 26.5997 44.7753 26.435 44.706 26.227C44.6367 26.019 44.5673 25.8067 44.498 25.59C44.4373 25.3647 44.3897 25.1783 44.355 25.031C44.3117 25.2043 44.2553 25.4037 44.186 25.629C44.1253 25.8543 44.0647 26.0667 44.004 26.266C43.952 26.4653 43.9087 26.617 43.874 26.721L43.055 29.113H45.668L44.862 26.721ZM52.6217 33.13C51.9543 33.13 51.3737 33.0043 50.8797 32.753C50.3943 32.493 50.0173 32.0987 49.7487 31.57C49.4887 31.0327 49.3587 30.348 49.3587 29.516C49.3587 28.6493 49.5017 27.9473 49.7877 27.41C50.0823 26.864 50.4853 26.4653 50.9967 26.214C51.508 25.954 52.093 25.824 52.7517 25.824C53.1937 25.824 53.588 25.8673 53.9347 25.954C54.2813 26.0407 54.576 26.1447 54.8187 26.266L54.3377 27.553C54.069 27.449 53.8003 27.3623 53.5317 27.293C53.263 27.215 53.003 27.176 52.7517 27.176C52.3617 27.176 52.0367 27.2627 51.7767 27.436C51.5253 27.6093 51.339 27.8693 51.2177 28.216C51.0963 28.554 51.0357 28.983 51.0357 29.503C51.0357 30.0057 51.0963 30.426 51.2177 30.764C51.3477 31.102 51.5383 31.3577 51.7897 31.531C52.041 31.6957 52.353 31.778 52.7257 31.778C53.1243 31.778 53.4753 31.7303 53.7787 31.635C54.082 31.5397 54.368 31.4097 54.6367 31.245V32.662C54.368 32.8267 54.0777 32.9437 53.7657 33.013C53.4623 33.091 53.081 33.13 52.6217 33.13ZM59.0174 31.817C59.2254 31.817 59.4247 31.7997 59.6154 31.765C59.806 31.7217 59.9837 31.674 60.1484 31.622V32.844C59.975 32.922 59.7497 32.987 59.4724 33.039C59.195 33.0997 58.9047 33.13 58.6014 33.13C58.2027 33.13 57.8387 33.065 57.5094 32.935C57.1887 32.7963 56.9287 32.5623 56.7294 32.233C56.5387 31.9037 56.4434 31.4443 56.4434 30.855V27.189H55.4944V26.474L56.5344 25.902L57.0544 24.407H58.0814V25.954H60.0834V27.189H58.0814V30.842C58.0814 31.1713 58.168 31.4183 58.3414 31.583C58.5147 31.739 58.74 31.817 59.0174 31.817ZM63.2066 25.954V33H61.5686V25.954H63.2066ZM62.3876 23.237C62.6303 23.237 62.8426 23.302 63.0246 23.432C63.2066 23.5533 63.2976 23.7743 63.2976 24.095C63.2976 24.407 63.2066 24.6323 63.0246 24.771C62.8426 24.901 62.6303 24.966 62.3876 24.966C62.1363 24.966 61.9196 24.901 61.7376 24.771C61.5643 24.6323 61.4776 24.407 61.4776 24.095C61.4776 23.7743 61.5643 23.5533 61.7376 23.432C61.9196 23.302 62.1363 23.237 62.3876 23.237ZM66.926 33L64.248 25.954H65.977L67.381 30.023C67.4417 30.1877 67.498 30.3697 67.55 30.569C67.602 30.7597 67.6454 30.9503 67.68 31.141C67.7234 31.323 67.7494 31.4833 67.758 31.622H67.81C67.8274 31.4747 67.8577 31.31 67.901 31.128C67.9444 30.9373 67.992 30.7467 68.044 30.556C68.1047 30.3653 68.161 30.1877 68.213 30.023L69.617 25.954H71.346L68.668 33H66.926ZM75.2057 25.824C76.1157 25.824 76.8047 26.0233 77.2727 26.422C77.7494 26.812 77.9877 27.4273 77.9877 28.268V33H76.8307L76.5057 32.025H76.4537C76.2544 32.2763 76.0464 32.4887 75.8297 32.662C75.6217 32.8267 75.3791 32.9437 75.1017 33.013C74.8331 33.091 74.5037 33.13 74.1137 33.13C73.6977 33.13 73.3207 33.052 72.9827 32.896C72.6534 32.74 72.3934 32.5017 72.2027 32.181C72.0121 31.8517 71.9167 31.44 71.9167 30.946C71.9167 30.218 72.1811 29.672 72.7097 29.308C73.2471 28.9353 74.0574 28.7317 75.1407 28.697L76.3627 28.658V28.307C76.3627 27.8563 76.2544 27.5357 76.0377 27.345C75.8211 27.1543 75.5177 27.059 75.1277 27.059C74.7724 27.059 74.4301 27.111 74.1007 27.215C73.7714 27.319 73.4507 27.4403 73.1387 27.579L72.6187 26.435C72.9654 26.253 73.3597 26.1057 73.8017 25.993C74.2524 25.8803 74.7204 25.824 75.2057 25.824ZM75.5047 29.698C74.7854 29.724 74.2871 29.8497 74.0097 30.075C73.7324 30.2917 73.5937 30.5863 73.5937 30.959C73.5937 31.2883 73.6934 31.5267 73.8927 31.674C74.0921 31.8213 74.3477 31.895 74.6597 31.895C75.1364 31.895 75.5394 31.7607 75.8687 31.492C76.1981 31.2147 76.3627 30.8073 76.3627 30.27V29.672L75.5047 29.698ZM82.7703 31.817C82.9783 31.817 83.1776 31.7997 83.3683 31.765C83.559 31.7217 83.7366 31.674 83.9013 31.622V32.844C83.728 32.922 83.5026 32.987 83.2253 33.039C82.948 33.0997 82.6576 33.13 82.3543 33.13C81.9556 33.13 81.5916 33.065 81.2623 32.935C80.9416 32.7963 80.6816 32.5623 80.4823 32.233C80.2916 31.9037 80.1963 31.4443 80.1963 30.855V27.189H79.2473V26.474L80.2873 25.902L80.8073 24.407H81.8343V25.954H83.8363V27.189H81.8343V30.842C81.8343 31.1713 81.921 31.4183 82.0943 31.583C82.2676 31.739 82.493 31.817 82.7703 31.817ZM88.1556 25.824C88.7882 25.824 89.3299 25.954 89.7806 26.214C90.2399 26.4653 90.5952 26.8293 90.8466 27.306C91.0979 27.774 91.2236 28.346 91.2236 29.022V29.854H86.5696C86.5869 30.4953 86.7646 30.9937 87.1026 31.349C87.4406 31.6957 87.9086 31.869 88.5066 31.869C88.9659 31.869 89.3732 31.8257 89.7286 31.739C90.0926 31.6437 90.4652 31.5093 90.8466 31.336V32.649C90.4999 32.8137 90.1402 32.935 89.7676 33.013C89.3949 33.091 88.9486 33.13 88.4286 33.13C87.7439 33.13 87.1329 33 86.5956 32.74C86.0669 32.4713 85.6509 32.0683 85.3476 31.531C85.0529 30.9937 84.9056 30.3263 84.9056 29.529C84.9056 28.723 85.0399 28.047 85.3086 27.501C85.5859 26.9463 85.9672 26.5303 86.4526 26.253C86.9379 25.967 87.5056 25.824 88.1556 25.824ZM88.1556 27.033C87.7222 27.033 87.3669 27.176 87.0896 27.462C86.8209 27.7393 86.6606 28.1553 86.6086 28.71H89.6376C89.6376 28.3807 89.5812 28.0903 89.4686 27.839C89.3646 27.5877 89.2042 27.3927 88.9876 27.254C88.7709 27.1067 88.4936 27.033 88.1556 27.033ZM95.2023 33.13C94.3876 33.13 93.7246 32.8267 93.2133 32.22C92.7106 31.6047 92.4593 30.6947 92.4593 29.49C92.4593 28.2853 92.7149 27.3753 93.2263 26.76C93.7376 26.136 94.4093 25.824 95.2413 25.824C95.5879 25.824 95.8913 25.8717 96.1513 25.967C96.4199 26.0537 96.6496 26.175 96.8403 26.331C97.0309 26.487 97.1913 26.6603 97.3213 26.851H97.3993C97.3733 26.7297 97.3473 26.5433 97.3213 26.292C97.2953 26.0407 97.2823 25.8067 97.2823 25.59V23.12H98.9203V33H97.6463L97.3473 32.077H97.2823C97.1523 32.2677 96.9919 32.4453 96.8013 32.61C96.6106 32.766 96.3853 32.8917 96.1253 32.987C95.8653 33.0823 95.5576 33.13 95.2023 33.13ZM95.6963 31.804C96.3029 31.804 96.7319 31.6307 96.9833 31.284C97.2346 30.9373 97.3603 30.413 97.3603 29.711V29.503C97.3603 28.7403 97.2389 28.1597 96.9963 27.761C96.7623 27.3623 96.3203 27.163 95.6703 27.163C95.1763 27.163 94.7949 27.371 94.5263 27.787C94.2576 28.1943 94.1233 28.7707 94.1233 29.516C94.1233 30.2613 94.2576 30.829 94.5263 31.219C94.7949 31.609 95.1849 31.804 95.6963 31.804ZM104.546 33V23.718H106.21V31.596H110.084V33H104.546Z" fill="#BCBCBC"/>
<path d="M199.5 44.5V83.5H40.5V44.5H199.5Z" fill="white"/>
<path d="M199.5 44.5V83.5H40.5V44.5H199.5Z" stroke="#465BC7"/>
<path d="M63.38 59.58H65.555C65.72 59.175 65.84 58.755 65.93 58.335H62.795V57.36H70.19V58.335H66.995C66.905 58.755 66.77 59.175 66.605 59.58H69.62V67.56H63.38V59.58ZM68.6 66.675V65.115H64.4V66.675H68.6ZM64.4 64.26H68.6V62.775H64.4V64.26ZM64.4 61.92H68.6V60.48H64.4V61.92ZM65.21 67.725L65.915 68.34C65.12 69.15 64.145 69.87 62.99 70.485L62.375 69.72C63.5 69.15 64.445 68.475 65.21 67.725ZM67.835 67.71C68.855 68.37 69.725 69.045 70.43 69.705L69.74 70.395C69.125 69.75 68.27 69.06 67.19 68.34L67.835 67.71ZM58.07 59.25C58.505 59.67 58.895 60.06 59.24 60.435C59.825 59.805 60.35 59.1 60.83 58.32H57.08V57.36H61.94V58.185C61.31 59.31 60.605 60.285 59.855 61.11C60.125 61.41 60.35 61.695 60.56 61.965H62.495V62.625C62.255 63.81 61.985 64.725 61.67 65.385L60.815 65.07C61.085 64.485 61.31 63.78 61.49 62.97H59.855V69.24C59.855 70.02 59.465 70.425 58.715 70.425H57.305L57.08 69.45C57.53 69.495 57.95 69.525 58.355 69.525C58.655 69.525 58.82 69.345 58.82 68.985V62.97H56.585V61.965H59.39C58.805 61.275 58.1 60.525 57.275 59.745L58.07 59.25ZM76.775 65.22V69.54H73.265V70.275H72.245V65.22H76.775ZM73.265 68.565H75.785V66.165H73.265V68.565ZM71.735 58.725H74.315C74.06 58.125 73.76 57.54 73.4 56.985L74.435 56.7C74.795 57.36 75.065 57.96 75.275 58.515L74.69 58.725H77.33V59.715H71.735V58.725ZM72.365 60.915H76.67V61.86H72.365V60.915ZM72.365 62.985H76.67V63.93H72.365V62.985ZM77.81 63.165H84.275V64.155C83.855 65.535 83.18 66.72 82.22 67.71C83.12 68.43 84.215 69.075 85.535 69.615L84.95 70.545C83.57 69.915 82.415 69.195 81.485 68.4C80.405 69.3 79.055 70.005 77.465 70.545L76.88 69.63C78.41 69.12 79.67 68.46 80.69 67.65C79.745 66.63 79.1 65.475 78.755 64.215H77.81V63.165ZM79.79 64.215C80.105 65.235 80.66 66.165 81.44 66.975C82.22 66.165 82.82 65.235 83.225 64.215H79.79ZM78.935 57.33H83.42V60.57C83.42 60.945 83.615 61.14 84.035 61.14H85.1V62.13H83.765C82.805 62.13 82.34 61.68 82.34 60.795V58.35H80V59.025C80 60.525 79.295 61.68 77.915 62.49L77.195 61.695C78.35 61.095 78.935 60.24 78.935 59.13V57.33ZM86.96 59.28H93.17C92.765 58.485 92.27 57.735 91.67 57.03L92.75 56.64C93.32 57.36 93.83 58.245 94.31 59.28H100.04V60.36H97.7C96.965 62.73 95.855 64.725 94.385 66.315C95.975 67.665 97.97 68.775 100.37 69.66L99.785 70.56C97.295 69.63 95.255 68.475 93.635 67.08C91.925 68.655 89.795 69.81 87.245 70.545L86.675 69.6C89.195 68.925 91.265 67.86 92.885 66.39C91.145 64.68 89.945 62.67 89.27 60.36H86.96V59.28ZM90.335 60.36C90.98 62.385 92.075 64.14 93.635 65.64C94.97 64.185 95.945 62.43 96.575 60.36H90.335ZM114.86 58.29V61.635H113.78V59.325H103.22V61.635H102.14V58.29H108.035C107.825 57.75 107.6 57.27 107.36 56.835L108.59 56.625C108.8 57.12 109.01 57.675 109.205 58.29H114.86ZM104.45 60.945H112.505V61.95C111.53 62.64 110.435 63.3 109.235 63.96V64.965H115.145V66.015H109.235V69.195C109.235 70.02 108.8 70.44 107.93 70.44H106.085L105.83 69.45C106.355 69.465 106.925 69.48 107.555 69.48C107.945 69.48 108.14 69.255 108.14 68.82V66.015H101.87V64.965H108.14V63.495C109.355 62.865 110.27 62.34 110.885 61.95H104.45V60.945Z" fill="#8F8F8F"/>
<path fill-rule="evenodd" clip-rule="evenodd" d="M176 60L169 67.0201L169.976 68H169.978L176 61.9588L182.024 68H182.026L183 67.0211V67.0191L176 60Z" fill="#465BC7"/>
<g clip-path="url(#clip0_154_6360)">
<path d="M40 88H200V256H40V88Z" fill="white"/>
<rect width="160" height="40" transform="translate(40 92)" fill="white"/>
<path d="M63.35 110.07H64.31V111.03H66.74V110.07H67.715V111.03H69.65V111.945H67.715V113.295H70.1V114.225H60.965V113.295H63.35V111.945H61.355V111.03H63.35V110.07ZM64.31 113.295H66.74V111.945H64.31V113.295ZM66.755 114.375C67.865 114.825 68.9 115.365 69.845 116.025L69.32 116.835C68.33 116.085 67.31 115.515 66.26 115.095L66.755 114.375ZM64.055 114.375L64.715 114.96C63.935 115.635 62.975 116.235 61.835 116.745L61.25 115.98C62.36 115.515 63.305 114.975 64.055 114.375ZM57.845 104.955C58.775 105.63 59.555 106.32 60.185 107.01L59.48 107.715C58.91 107.055 58.115 106.365 57.125 105.63L57.845 104.955ZM56.84 108.54H60.215V109.365C59.705 110.25 59.105 111.105 58.415 111.945H60.365V112.65C60.155 113.85 59.915 114.855 59.615 115.65C59.735 115.725 59.87 115.83 60.02 115.965C60.485 116.415 60.965 116.745 61.46 116.97C61.94 117.165 62.615 117.27 63.47 117.285C64.28 117.285 65.225 117.3 66.275 117.3C67.325 117.3 68.69 117.27 70.37 117.225L70.13 118.26H66.41C65.285 118.26 64.28 118.245 63.41 118.215C62.39 118.185 61.61 118.05 61.07 117.81C60.44 117.555 59.885 117.165 59.375 116.625C59.255 116.505 59.12 116.46 59 116.46C58.625 116.46 58.1 117.105 57.41 118.41L56.66 117.72C57.35 116.445 57.995 115.71 58.625 115.515C58.94 114.72 59.18 113.835 59.36 112.845H57.185V112.035C57.92 111.18 58.535 110.34 59.045 109.5H56.84V108.54ZM68.705 106.005H66.77V107.055H68.705V106.005ZM66.77 107.805V108.525C66.77 108.78 66.92 108.915 67.25 108.915H69.875V109.725H66.785C66.155 109.725 65.855 109.455 65.855 108.93V105.225H69.62V107.805H66.77ZM61.385 110.01L61.07 109.32C61.25 109.23 61.355 109.065 61.355 108.84V105.225H65.09V107.82H62.285V109.08C63.245 108.99 64.19 108.87 65.09 108.72L65.3 109.485C64.16 109.665 62.855 109.845 61.385 110.01ZM62.285 107.07H64.175V106.02H62.285V107.07ZM71.84 106.215H76.46V107.265H74.75V114.495C75.395 114.255 76.025 113.97 76.625 113.67V114.705C75.185 115.395 73.64 115.98 71.99 116.43L71.75 115.41C72.41 115.26 73.04 115.095 73.67 114.885V107.265H71.84V106.215ZM77.72 107.52H80.15C80.315 107.115 80.45 106.695 80.54 106.275H77.015V105.315H85.16V106.275H81.59C81.5 106.71 81.38 107.13 81.23 107.52H84.41V115.56H77.72V107.52ZM83.375 114.675V113.1H78.755V114.675H83.375ZM78.755 112.26H83.375V110.73H78.755V112.26ZM78.755 109.875H83.375V108.42H78.755V109.875ZM79.61 115.74L80.33 116.37C79.43 117.195 78.335 117.915 77.045 118.545L76.46 117.78C77.705 117.21 78.755 116.52 79.61 115.74ZM82.37 115.755C83.54 116.43 84.53 117.105 85.34 117.795L84.65 118.5C83.93 117.825 82.955 117.12 81.725 116.37L82.37 115.755ZM87.785 111.105H99.215V112.11H87.785V111.105Z" fill="#161616"/>
<rect width="160" height="40" transform="translate(40 132)" fill="white"/>
<path d="M63.35 150.07H64.31V151.03H66.74V150.07H67.715V151.03H69.65V151.945H67.715V153.295H70.1V154.225H60.965V153.295H63.35V151.945H61.355V151.03H63.35V150.07ZM64.31 153.295H66.74V151.945H64.31V153.295ZM66.755 154.375C67.865 154.825 68.9 155.365 69.845 156.025L69.32 156.835C68.33 156.085 67.31 155.515 66.26 155.095L66.755 154.375ZM64.055 154.375L64.715 154.96C63.935 155.635 62.975 156.235 61.835 156.745L61.25 155.98C62.36 155.515 63.305 154.975 64.055 154.375ZM57.845 144.955C58.775 145.63 59.555 146.32 60.185 147.01L59.48 147.715C58.91 147.055 58.115 146.365 57.125 145.63L57.845 144.955ZM56.84 148.54H60.215V149.365C59.705 150.25 59.105 151.105 58.415 151.945H60.365V152.65C60.155 153.85 59.915 154.855 59.615 155.65C59.735 155.725 59.87 155.83 60.02 155.965C60.485 156.415 60.965 156.745 61.46 156.97C61.94 157.165 62.615 157.27 63.47 157.285C64.28 157.285 65.225 157.3 66.275 157.3C67.325 157.3 68.69 157.27 70.37 157.225L70.13 158.26H66.41C65.285 158.26 64.28 158.245 63.41 158.215C62.39 158.185 61.61 158.05 61.07 157.81C60.44 157.555 59.885 157.165 59.375 156.625C59.255 156.505 59.12 156.46 59 156.46C58.625 156.46 58.1 157.105 57.41 158.41L56.66 157.72C57.35 156.445 57.995 155.71 58.625 155.515C58.94 154.72 59.18 153.835 59.36 152.845H57.185V152.035C57.92 151.18 58.535 150.34 59.045 149.5H56.84V148.54ZM68.705 146.005H66.77V147.055H68.705V146.005ZM66.77 147.805V148.525C66.77 148.78 66.92 148.915 67.25 148.915H69.875V149.725H66.785C66.155 149.725 65.855 149.455 65.855 148.93V145.225H69.62V147.805H66.77ZM61.385 150.01L61.07 149.32C61.25 149.23 61.355 149.065 61.355 148.84V145.225H65.09V147.82H62.285V149.08C63.245 148.99 64.19 148.87 65.09 148.72L65.3 149.485C64.16 149.665 62.855 149.845 61.385 150.01ZM62.285 147.07H64.175V146.02H62.285V147.07ZM71.84 146.215H76.46V147.265H74.75V154.495C75.395 154.255 76.025 153.97 76.625 153.67V154.705C75.185 155.395 73.64 155.98 71.99 156.43L71.75 155.41C72.41 155.26 73.04 155.095 73.67 154.885V147.265H71.84V146.215ZM77.72 147.52H80.15C80.315 147.115 80.45 146.695 80.54 146.275H77.015V145.315H85.16V146.275H81.59C81.5 146.71 81.38 147.13 81.23 147.52H84.41V155.56H77.72V147.52ZM83.375 154.675V153.1H78.755V154.675H83.375ZM78.755 152.26H83.375V150.73H78.755V152.26ZM78.755 149.875H83.375V148.42H78.755V149.875ZM79.61 155.74L80.33 156.37C79.43 157.195 78.335 157.915 77.045 158.545L76.46 157.78C77.705 157.21 78.755 156.52 79.61 155.74ZM82.37 155.755C83.54 156.43 84.53 157.105 85.34 157.795L84.65 158.5C83.93 157.825 82.955 157.12 81.725 156.37L82.37 155.755ZM88.175 146.41H98.825V147.475H88.175V146.41ZM86.795 155.845H100.19V156.94H86.795V155.845Z" fill="#161616"/>
<rect width="160" height="40" transform="translate(40 172)" fill="white"/>
<path d="M63.35 190.07H64.31V191.03H66.74V190.07H67.715V191.03H69.65V191.945H67.715V193.295H70.1V194.225H60.965V193.295H63.35V191.945H61.355V191.03H63.35V190.07ZM64.31 193.295H66.74V191.945H64.31V193.295ZM66.755 194.375C67.865 194.825 68.9 195.365 69.845 196.025L69.32 196.835C68.33 196.085 67.31 195.515 66.26 195.095L66.755 194.375ZM64.055 194.375L64.715 194.96C63.935 195.635 62.975 196.235 61.835 196.745L61.25 195.98C62.36 195.515 63.305 194.975 64.055 194.375ZM57.845 184.955C58.775 185.63 59.555 186.32 60.185 187.01L59.48 187.715C58.91 187.055 58.115 186.365 57.125 185.63L57.845 184.955ZM56.84 188.54H60.215V189.365C59.705 190.25 59.105 191.105 58.415 191.945H60.365V192.65C60.155 193.85 59.915 194.855 59.615 195.65C59.735 195.725 59.87 195.83 60.02 195.965C60.485 196.415 60.965 196.745 61.46 196.97C61.94 197.165 62.615 197.27 63.47 197.285C64.28 197.285 65.225 197.3 66.275 197.3C67.325 197.3 68.69 197.27 70.37 197.225L70.13 198.26H66.41C65.285 198.26 64.28 198.245 63.41 198.215C62.39 198.185 61.61 198.05 61.07 197.81C60.44 197.555 59.885 197.165 59.375 196.625C59.255 196.505 59.12 196.46 59 196.46C58.625 196.46 58.1 197.105 57.41 198.41L56.66 197.72C57.35 196.445 57.995 195.71 58.625 195.515C58.94 194.72 59.18 193.835 59.36 192.845H57.185V192.035C57.92 191.18 58.535 190.34 59.045 189.5H56.84V188.54ZM68.705 186.005H66.77V187.055H68.705V186.005ZM66.77 187.805V188.525C66.77 188.78 66.92 188.915 67.25 188.915H69.875V189.725H66.785C66.155 189.725 65.855 189.455 65.855 188.93V185.225H69.62V187.805H66.77ZM61.385 190.01L61.07 189.32C61.25 189.23 61.355 189.065 61.355 188.84V185.225H65.09V187.82H62.285V189.08C63.245 188.99 64.19 188.87 65.09 188.72L65.3 189.485C64.16 189.665 62.855 189.845 61.385 190.01ZM62.285 187.07H64.175V186.02H62.285V187.07ZM71.84 186.215H76.46V187.265H74.75V194.495C75.395 194.255 76.025 193.97 76.625 193.67V194.705C75.185 195.395 73.64 195.98 71.99 196.43L71.75 195.41C72.41 195.26 73.04 195.095 73.67 194.885V187.265H71.84V186.215ZM77.72 187.52H80.15C80.315 187.115 80.45 186.695 80.54 186.275H77.015V185.315H85.16V186.275H81.59C81.5 186.71 81.38 187.13 81.23 187.52H84.41V195.56H77.72V187.52ZM83.375 194.675V193.1H78.755V194.675H83.375ZM78.755 192.26H83.375V190.73H78.755V192.26ZM78.755 189.875H83.375V188.42H78.755V189.875ZM79.61 195.74L80.33 196.37C79.43 197.195 78.335 197.915 77.045 198.545L76.46 197.78C77.705 197.21 78.755 196.52 79.61 195.74ZM82.37 195.755C83.54 196.43 84.53 197.105 85.34 197.795L84.65 198.5C83.93 197.825 82.955 197.12 81.725 196.37L82.37 195.755ZM87.845 185.885H99.185V186.935H87.845V185.885ZM88.85 191.075H98.165V192.125H88.85V191.075ZM86.735 196.625H100.265V197.705H86.735V196.625Z" fill="#161616"/>
<rect width="160" height="40" transform="translate(40 212)" fill="white"/>
<path d="M63.35 230.07H64.31V231.03H66.74V230.07H67.715V231.03H69.65V231.945H67.715V233.295H70.1V234.225H60.965V233.295H63.35V231.945H61.355V231.03H63.35V230.07ZM64.31 233.295H66.74V231.945H64.31V233.295ZM66.755 234.375C67.865 234.825 68.9 235.365 69.845 236.025L69.32 236.835C68.33 236.085 67.31 235.515 66.26 235.095L66.755 234.375ZM64.055 234.375L64.715 234.96C63.935 235.635 62.975 236.235 61.835 236.745L61.25 235.98C62.36 235.515 63.305 234.975 64.055 234.375ZM57.845 224.955C58.775 225.63 59.555 226.32 60.185 227.01L59.48 227.715C58.91 227.055 58.115 226.365 57.125 225.63L57.845 224.955ZM56.84 228.54H60.215V229.365C59.705 230.25 59.105 231.105 58.415 231.945H60.365V232.65C60.155 233.85 59.915 234.855 59.615 235.65C59.735 235.725 59.87 235.83 60.02 235.965C60.485 236.415 60.965 236.745 61.46 236.97C61.94 237.165 62.615 237.27 63.47 237.285C64.28 237.285 65.225 237.3 66.275 237.3C67.325 237.3 68.69 237.27 70.37 237.225L70.13 238.26H66.41C65.285 238.26 64.28 238.245 63.41 238.215C62.39 238.185 61.61 238.05 61.07 237.81C60.44 237.555 59.885 237.165 59.375 236.625C59.255 236.505 59.12 236.46 59 236.46C58.625 236.46 58.1 237.105 57.41 238.41L56.66 237.72C57.35 236.445 57.995 235.71 58.625 235.515C58.94 234.72 59.18 233.835 59.36 232.845H57.185V232.035C57.92 231.18 58.535 230.34 59.045 229.5H56.84V228.54ZM68.705 226.005H66.77V227.055H68.705V226.005ZM66.77 227.805V228.525C66.77 228.78 66.92 228.915 67.25 228.915H69.875V229.725H66.785C66.155 229.725 65.855 229.455 65.855 228.93V225.225H69.62V227.805H66.77ZM61.385 230.01L61.07 229.32C61.25 229.23 61.355 229.065 61.355 228.84V225.225H65.09V227.82H62.285V229.08C63.245 228.99 64.19 228.87 65.09 228.72L65.3 229.485C64.16 229.665 62.855 229.845 61.385 230.01ZM62.285 227.07H64.175V226.02H62.285V227.07ZM71.84 226.215H76.46V227.265H74.75V234.495C75.395 234.255 76.025 233.97 76.625 233.67V234.705C75.185 235.395 73.64 235.98 71.99 236.43L71.75 235.41C72.41 235.26 73.04 235.095 73.67 234.885V227.265H71.84V226.215ZM77.72 227.52H80.15C80.315 227.115 80.45 226.695 80.54 226.275H77.015V225.315H85.16V226.275H81.59C81.5 226.71 81.38 227.13 81.23 227.52H84.41V235.56H77.72V227.52ZM83.375 234.675V233.1H78.755V234.675H83.375ZM78.755 232.26H83.375V230.73H78.755V232.26ZM78.755 229.875H83.375V228.42H78.755V229.875ZM79.61 235.74L80.33 236.37C79.43 237.195 78.335 237.915 77.045 238.545L76.46 237.78C77.705 237.21 78.755 236.52 79.61 235.74ZM82.37 235.755C83.54 236.43 84.53 237.105 85.34 237.795L84.65 238.5C83.93 237.825 82.955 237.12 81.725 236.37L82.37 235.755ZM99.665 225.705V238.275H98.57V237.405H88.43V238.275H87.335V225.705H99.665ZM88.43 236.43H98.57V226.68H95.615V232.41C95.615 232.71 95.81 232.875 96.2 232.875H98.045V233.865H95.915C95.015 233.865 94.58 233.445 94.58 232.635V226.68H92.345V229.935C92.315 232.02 91.46 233.55 89.78 234.51L88.955 233.79C90.485 232.98 91.265 231.705 91.295 229.935V226.68H88.43V236.43Z" fill="#161616"/>
<rect x="192" y="90" width="6" height="27.3333" rx="3" fill="#E5E5E5"/>
</g>
<path d="M199.5 88.5V255.5H40.5V88.5H199.5Z" stroke="#D9D9D9"/>
<path d="M266.942 33L266.097 30.543H262.6L261.768 33H260L263.406 23.679H265.304L268.71 33H266.942ZM264.862 26.721C264.827 26.5997 264.775 26.435 264.706 26.227C264.637 26.019 264.567 25.8067 264.498 25.59C264.437 25.3647 264.39 25.1783 264.355 25.031C264.312 25.2043 264.255 25.4037 264.186 25.629C264.125 25.8543 264.065 26.0667 264.004 26.266C263.952 26.4653 263.909 26.617 263.874 26.721L263.055 29.113H265.668L264.862 26.721ZM272.622 33.13C271.954 33.13 271.374 33.0043 270.88 32.753C270.394 32.493 270.017 32.0987 269.749 31.57C269.489 31.0327 269.359 30.348 269.359 29.516C269.359 28.6493 269.502 27.9473 269.788 27.41C270.082 26.864 270.485 26.4653 270.997 26.214C271.508 25.954 272.093 25.824 272.752 25.824C273.194 25.824 273.588 25.8673 273.935 25.954C274.281 26.0407 274.576 26.1447 274.819 26.266L274.338 27.553C274.069 27.449 273.8 27.3623 273.532 27.293C273.263 27.215 273.003 27.176 272.752 27.176C272.362 27.176 272.037 27.2627 271.777 27.436C271.525 27.6093 271.339 27.8693 271.218 28.216C271.096 28.554 271.036 28.983 271.036 29.503C271.036 30.0057 271.096 30.426 271.218 30.764C271.348 31.102 271.538 31.3577 271.79 31.531C272.041 31.6957 272.353 31.778 272.726 31.778C273.124 31.778 273.475 31.7303 273.779 31.635C274.082 31.5397 274.368 31.4097 274.637 31.245V32.662C274.368 32.8267 274.078 32.9437 273.766 33.013C273.462 33.091 273.081 33.13 272.622 33.13ZM279.017 31.817C279.225 31.817 279.425 31.7997 279.615 31.765C279.806 31.7217 279.984 31.674 280.148 31.622V32.844C279.975 32.922 279.75 32.987 279.472 33.039C279.195 33.0997 278.905 33.13 278.601 33.13C278.203 33.13 277.839 33.065 277.509 32.935C277.189 32.7963 276.929 32.5623 276.729 32.233C276.539 31.9037 276.443 31.4443 276.443 30.855V27.189H275.494V26.474L276.534 25.902L277.054 24.407H278.081V25.954H280.083V27.189H278.081V30.842C278.081 31.1713 278.168 31.4183 278.341 31.583C278.515 31.739 278.74 31.817 279.017 31.817ZM283.207 25.954V33H281.569V25.954H283.207ZM282.388 23.237C282.63 23.237 282.843 23.302 283.025 23.432C283.207 23.5533 283.298 23.7743 283.298 24.095C283.298 24.407 283.207 24.6323 283.025 24.771C282.843 24.901 282.63 24.966 282.388 24.966C282.136 24.966 281.92 24.901 281.738 24.771C281.564 24.6323 281.478 24.407 281.478 24.095C281.478 23.7743 281.564 23.5533 281.738 23.432C281.92 23.302 282.136 23.237 282.388 23.237ZM286.926 33L284.248 25.954H285.977L287.381 30.023C287.442 30.1877 287.498 30.3697 287.55 30.569C287.602 30.7597 287.645 30.9503 287.68 31.141C287.723 31.323 287.749 31.4833 287.758 31.622H287.81C287.827 31.4747 287.858 31.31 287.901 31.128C287.944 30.9373 287.992 30.7467 288.044 30.556C288.105 30.3653 288.161 30.1877 288.213 30.023L289.617 25.954H291.346L288.668 33H286.926ZM295.206 25.824C296.116 25.824 296.805 26.0233 297.273 26.422C297.749 26.812 297.988 27.4273 297.988 28.268V33H296.831L296.506 32.025H296.454C296.254 32.2763 296.046 32.4887 295.83 32.662C295.622 32.8267 295.379 32.9437 295.102 33.013C294.833 33.091 294.504 33.13 294.114 33.13C293.698 33.13 293.321 33.052 292.983 32.896C292.653 32.74 292.393 32.5017 292.203 32.181C292.012 31.8517 291.917 31.44 291.917 30.946C291.917 30.218 292.181 29.672 292.71 29.308C293.247 28.9353 294.057 28.7317 295.141 28.697L296.363 28.658V28.307C296.363 27.8563 296.254 27.5357 296.038 27.345C295.821 27.1543 295.518 27.059 295.128 27.059C294.772 27.059 294.43 27.111 294.101 27.215C293.771 27.319 293.451 27.4403 293.139 27.579L292.619 26.435C292.965 26.253 293.36 26.1057 293.802 25.993C294.252 25.8803 294.72 25.824 295.206 25.824ZM295.505 29.698C294.785 29.724 294.287 29.8497 294.01 30.075C293.732 30.2917 293.594 30.5863 293.594 30.959C293.594 31.2883 293.693 31.5267 293.893 31.674C294.092 31.8213 294.348 31.895 294.66 31.895C295.136 31.895 295.539 31.7607 295.869 31.492C296.198 31.2147 296.363 30.8073 296.363 30.27V29.672L295.505 29.698ZM302.77 31.817C302.978 31.817 303.178 31.7997 303.368 31.765C303.559 31.7217 303.737 31.674 303.901 31.622V32.844C303.728 32.922 303.503 32.987 303.225 33.039C302.948 33.0997 302.658 33.13 302.354 33.13C301.956 33.13 301.592 33.065 301.262 32.935C300.942 32.7963 300.682 32.5623 300.482 32.233C300.292 31.9037 300.196 31.4443 300.196 30.855V27.189H299.247V26.474L300.287 25.902L300.807 24.407H301.834V25.954H303.836V27.189H301.834V30.842C301.834 31.1713 301.921 31.4183 302.094 31.583C302.268 31.739 302.493 31.817 302.77 31.817ZM308.156 25.824C308.788 25.824 309.33 25.954 309.781 26.214C310.24 26.4653 310.595 26.8293 310.847 27.306C311.098 27.774 311.224 28.346 311.224 29.022V29.854H306.57C306.587 30.4953 306.765 30.9937 307.103 31.349C307.441 31.6957 307.909 31.869 308.507 31.869C308.966 31.869 309.373 31.8257 309.729 31.739C310.093 31.6437 310.465 31.5093 310.847 31.336V32.649C310.5 32.8137 310.14 32.935 309.768 33.013C309.395 33.091 308.949 33.13 308.429 33.13C307.744 33.13 307.133 33 306.596 32.74C306.067 32.4713 305.651 32.0683 305.348 31.531C305.053 30.9937 304.906 30.3263 304.906 29.529C304.906 28.723 305.04 28.047 305.309 27.501C305.586 26.9463 305.967 26.5303 306.453 26.253C306.938 25.967 307.506 25.824 308.156 25.824ZM308.156 27.033C307.722 27.033 307.367 27.176 307.09 27.462C306.821 27.7393 306.661 28.1553 306.609 28.71H309.638C309.638 28.3807 309.581 28.0903 309.469 27.839C309.365 27.5877 309.204 27.3927 308.988 27.254C308.771 27.1067 308.494 27.033 308.156 27.033ZM315.202 33.13C314.388 33.13 313.725 32.8267 313.213 32.22C312.711 31.6047 312.459 30.6947 312.459 29.49C312.459 28.2853 312.715 27.3753 313.226 26.76C313.738 26.136 314.409 25.824 315.241 25.824C315.588 25.824 315.891 25.8717 316.151 25.967C316.42 26.0537 316.65 26.175 316.84 26.331C317.031 26.487 317.191 26.6603 317.321 26.851H317.399C317.373 26.7297 317.347 26.5433 317.321 26.292C317.295 26.0407 317.282 25.8067 317.282 25.59V23.12H318.92V33H317.646L317.347 32.077H317.282C317.152 32.2677 316.992 32.4453 316.801 32.61C316.611 32.766 316.385 32.8917 316.125 32.987C315.865 33.0823 315.558 33.13 315.202 33.13ZM315.696 31.804C316.303 31.804 316.732 31.6307 316.983 31.284C317.235 30.9373 317.36 30.413 317.36 29.711V29.503C317.36 28.7403 317.239 28.1597 316.996 27.761C316.762 27.3623 316.32 27.163 315.67 27.163C315.176 27.163 314.795 27.371 314.526 27.787C314.258 28.1943 314.123 28.7707 314.123 29.516C314.123 30.2613 314.258 30.829 314.526 31.219C314.795 31.609 315.185 31.804 315.696 31.804ZM328.537 33L325.989 25.395H325.937C325.946 25.5683 325.959 25.8153 325.976 26.136C325.993 26.448 326.006 26.7903 326.015 27.163C326.032 27.527 326.041 27.8693 326.041 28.19V33H324.546V23.718H326.86L329.304 31.011H329.356L331.904 23.718H334.218V33H332.632V28.112C332.632 27.8173 332.636 27.4967 332.645 27.15C332.662 26.7947 332.675 26.461 332.684 26.149C332.701 25.8283 332.714 25.5813 332.723 25.408H332.671L330.019 33H328.537Z" fill="#BCBCBC"/>
<path d="M419.5 44.5V75.5H260.5V44.5H419.5Z" fill="white"/>
<path d="M419.5 44.5V75.5H260.5V44.5H419.5Z" stroke="#465BC7"/>
<path d="M283.38 55.58H285.555C285.72 55.175 285.84 54.755 285.93 54.335H282.795V53.36H290.19V54.335H286.995C286.905 54.755 286.77 55.175 286.605 55.58H289.62V63.56H283.38V55.58ZM288.6 62.675V61.115H284.4V62.675H288.6ZM284.4 60.26H288.6V58.775H284.4V60.26ZM284.4 57.92H288.6V56.48H284.4V57.92ZM285.21 63.725L285.915 64.34C285.12 65.15 284.145 65.87 282.99 66.485L282.375 65.72C283.5 65.15 284.445 64.475 285.21 63.725ZM287.835 63.71C288.855 64.37 289.725 65.045 290.43 65.705L289.74 66.395C289.125 65.75 288.27 65.06 287.19 64.34L287.835 63.71ZM278.07 55.25C278.505 55.67 278.895 56.06 279.24 56.435C279.825 55.805 280.35 55.1 280.83 54.32H277.08V53.36H281.94V54.185C281.31 55.31 280.605 56.285 279.855 57.11C280.125 57.41 280.35 57.695 280.56 57.965H282.495V58.625C282.255 59.81 281.985 60.725 281.67 61.385L280.815 61.07C281.085 60.485 281.31 59.78 281.49 58.97H279.855V65.24C279.855 66.02 279.465 66.425 278.715 66.425H277.305L277.08 65.45C277.53 65.495 277.95 65.525 278.355 65.525C278.655 65.525 278.82 65.345 278.82 64.985V58.97H276.585V57.965H279.39C278.805 57.275 278.1 56.525 277.275 55.745L278.07 55.25ZM296.775 61.22V65.54H293.265V66.275H292.245V61.22H296.775ZM293.265 64.565H295.785V62.165H293.265V64.565ZM291.735 54.725H294.315C294.06 54.125 293.76 53.54 293.4 52.985L294.435 52.7C294.795 53.36 295.065 53.96 295.275 54.515L294.69 54.725H297.33V55.715H291.735V54.725ZM292.365 56.915H296.67V57.86H292.365V56.915ZM292.365 58.985H296.67V59.93H292.365V58.985ZM297.81 59.165H304.275V60.155C303.855 61.535 303.18 62.72 302.22 63.71C303.12 64.43 304.215 65.075 305.535 65.615L304.95 66.545C303.57 65.915 302.415 65.195 301.485 64.4C300.405 65.3 299.055 66.005 297.465 66.545L296.88 65.63C298.41 65.12 299.67 64.46 300.69 63.65C299.745 62.63 299.1 61.475 298.755 60.215H297.81V59.165ZM299.79 60.215C300.105 61.235 300.66 62.165 301.44 62.975C302.22 62.165 302.82 61.235 303.225 60.215H299.79ZM298.935 53.33H303.42V56.57C303.42 56.945 303.615 57.14 304.035 57.14H305.1V58.13H303.765C302.805 58.13 302.34 57.68 302.34 56.795V54.35H300V55.025C300 56.525 299.295 57.68 297.915 58.49L297.195 57.695C298.35 57.095 298.935 56.24 298.935 55.13V53.33ZM306.96 55.28H313.17C312.765 54.485 312.27 53.735 311.67 53.03L312.75 52.64C313.32 53.36 313.83 54.245 314.31 55.28H320.04V56.36H317.7C316.965 58.73 315.855 60.725 314.385 62.315C315.975 63.665 317.97 64.775 320.37 65.66L319.785 66.56C317.295 65.63 315.255 64.475 313.635 63.08C311.925 64.655 309.795 65.81 307.245 66.545L306.675 65.6C309.195 64.925 311.265 63.86 312.885 62.39C311.145 60.68 309.945 58.67 309.27 56.36H306.96V55.28ZM310.335 56.36C310.98 58.385 312.075 60.14 313.635 61.64C314.97 60.185 315.945 58.43 316.575 56.36H310.335ZM334.86 54.29V57.635H333.78V55.325H323.22V57.635H322.14V54.29H328.035C327.825 53.75 327.6 53.27 327.36 52.835L328.59 52.625C328.8 53.12 329.01 53.675 329.205 54.29H334.86ZM324.45 56.945H332.505V57.95C331.53 58.64 330.435 59.3 329.235 59.96V60.965H335.145V62.015H329.235V65.195C329.235 66.02 328.8 66.44 327.93 66.44H326.085L325.83 65.45C326.355 65.465 326.925 65.48 327.555 65.48C327.945 65.48 328.14 65.255 328.14 64.82V62.015H321.87V60.965H328.14V59.495C329.355 58.865 330.27 58.34 330.885 57.95H324.45V56.945Z" fill="#8F8F8F"/>
<path fill-rule="evenodd" clip-rule="evenodd" d="M396 56L389 63.0201L389.976 64H389.978L396 57.9588L402.024 64H402.026L403 63.0211V63.0191L396 56Z" fill="#465BC7"/>
<g clip-path="url(#clip1_154_6360)">
<path d="M260 80H420V216H260V80Z" fill="white"/>
<rect width="160" height="32" transform="translate(260 84)" fill="white"/>
<path d="M283.35 98.07H284.31V99.03H286.74V98.07H287.715V99.03H289.65V99.945H287.715V101.295H290.1V102.225H280.965V101.295H283.35V99.945H281.355V99.03H283.35V98.07ZM284.31 101.295H286.74V99.945H284.31V101.295ZM286.755 102.375C287.865 102.825 288.9 103.365 289.845 104.025L289.32 104.835C288.33 104.085 287.31 103.515 286.26 103.095L286.755 102.375ZM284.055 102.375L284.715 102.96C283.935 103.635 282.975 104.235 281.835 104.745L281.25 103.98C282.36 103.515 283.305 102.975 284.055 102.375ZM277.845 92.955C278.775 93.63 279.555 94.32 280.185 95.01L279.48 95.715C278.91 95.055 278.115 94.365 277.125 93.63L277.845 92.955ZM276.84 96.54H280.215V97.365C279.705 98.25 279.105 99.105 278.415 99.945H280.365V100.65C280.155 101.85 279.915 102.855 279.615 103.65C279.735 103.725 279.87 103.83 280.02 103.965C280.485 104.415 280.965 104.745 281.46 104.97C281.94 105.165 282.615 105.27 283.47 105.285C284.28 105.285 285.225 105.3 286.275 105.3C287.325 105.3 288.69 105.27 290.37 105.225L290.13 106.26H286.41C285.285 106.26 284.28 106.245 283.41 106.215C282.39 106.185 281.61 106.05 281.07 105.81C280.44 105.555 279.885 105.165 279.375 104.625C279.255 104.505 279.12 104.46 279 104.46C278.625 104.46 278.1 105.105 277.41 106.41L276.66 105.72C277.35 104.445 277.995 103.71 278.625 103.515C278.94 102.72 279.18 101.835 279.36 100.845H277.185V100.035C277.92 99.18 278.535 98.34 279.045 97.5H276.84V96.54ZM288.705 94.005H286.77V95.055H288.705V94.005ZM286.77 95.805V96.525C286.77 96.78 286.92 96.915 287.25 96.915H289.875V97.725H286.785C286.155 97.725 285.855 97.455 285.855 96.93V93.225H289.62V95.805H286.77ZM281.385 98.01L281.07 97.32C281.25 97.23 281.355 97.065 281.355 96.84V93.225H285.09V95.82H282.285V97.08C283.245 96.99 284.19 96.87 285.09 96.72L285.3 97.485C284.16 97.665 282.855 97.845 281.385 98.01ZM282.285 95.07H284.175V94.02H282.285V95.07ZM291.84 94.215H296.46V95.265H294.75V102.495C295.395 102.255 296.025 101.97 296.625 101.67V102.705C295.185 103.395 293.64 103.98 291.99 104.43L291.75 103.41C292.41 103.26 293.04 103.095 293.67 102.885V95.265H291.84V94.215ZM297.72 95.52H300.15C300.315 95.115 300.45 94.695 300.54 94.275H297.015V93.315H305.16V94.275H301.59C301.5 94.71 301.38 95.13 301.23 95.52H304.41V103.56H297.72V95.52ZM303.375 102.675V101.1H298.755V102.675H303.375ZM298.755 100.26H303.375V98.73H298.755V100.26ZM298.755 97.875H303.375V96.42H298.755V97.875ZM299.61 103.74L300.33 104.37C299.43 105.195 298.335 105.915 297.045 106.545L296.46 105.78C297.705 105.21 298.755 104.52 299.61 103.74ZM302.37 103.755C303.54 104.43 304.53 105.105 305.34 105.795L304.65 106.5C303.93 105.825 302.955 105.12 301.725 104.37L302.37 103.755ZM307.785 99.105H319.215V100.11H307.785V99.105Z" fill="#161616"/>
<rect width="160" height="32" transform="translate(260 116)" fill="white"/>
<path d="M283.35 130.07H284.31V131.03H286.74V130.07H287.715V131.03H289.65V131.945H287.715V133.295H290.1V134.225H280.965V133.295H283.35V131.945H281.355V131.03H283.35V130.07ZM284.31 133.295H286.74V131.945H284.31V133.295ZM286.755 134.375C287.865 134.825 288.9 135.365 289.845 136.025L289.32 136.835C288.33 136.085 287.31 135.515 286.26 135.095L286.755 134.375ZM284.055 134.375L284.715 134.96C283.935 135.635 282.975 136.235 281.835 136.745L281.25 135.98C282.36 135.515 283.305 134.975 284.055 134.375ZM277.845 124.955C278.775 125.63 279.555 126.32 280.185 127.01L279.48 127.715C278.91 127.055 278.115 126.365 277.125 125.63L277.845 124.955ZM276.84 128.54H280.215V129.365C279.705 130.25 279.105 131.105 278.415 131.945H280.365V132.65C280.155 133.85 279.915 134.855 279.615 135.65C279.735 135.725 279.87 135.83 280.02 135.965C280.485 136.415 280.965 136.745 281.46 136.97C281.94 137.165 282.615 137.27 283.47 137.285C284.28 137.285 285.225 137.3 286.275 137.3C287.325 137.3 288.69 137.27 290.37 137.225L290.13 138.26H286.41C285.285 138.26 284.28 138.245 283.41 138.215C282.39 138.185 281.61 138.05 281.07 137.81C280.44 137.555 279.885 137.165 279.375 136.625C279.255 136.505 279.12 136.46 279 136.46C278.625 136.46 278.1 137.105 277.41 138.41L276.66 137.72C277.35 136.445 277.995 135.71 278.625 135.515C278.94 134.72 279.18 133.835 279.36 132.845H277.185V132.035C277.92 131.18 278.535 130.34 279.045 129.5H276.84V128.54ZM288.705 126.005H286.77V127.055H288.705V126.005ZM286.77 127.805V128.525C286.77 128.78 286.92 128.915 287.25 128.915H289.875V129.725H286.785C286.155 129.725 285.855 129.455 285.855 128.93V125.225H289.62V127.805H286.77ZM281.385 130.01L281.07 129.32C281.25 129.23 281.355 129.065 281.355 128.84V125.225H285.09V127.82H282.285V129.08C283.245 128.99 284.19 128.87 285.09 128.72L285.3 129.485C284.16 129.665 282.855 129.845 281.385 130.01ZM282.285 127.07H284.175V126.02H282.285V127.07ZM291.84 126.215H296.46V127.265H294.75V134.495C295.395 134.255 296.025 133.97 296.625 133.67V134.705C295.185 135.395 293.64 135.98 291.99 136.43L291.75 135.41C292.41 135.26 293.04 135.095 293.67 134.885V127.265H291.84V126.215ZM297.72 127.52H300.15C300.315 127.115 300.45 126.695 300.54 126.275H297.015V125.315H305.16V126.275H301.59C301.5 126.71 301.38 127.13 301.23 127.52H304.41V135.56H297.72V127.52ZM303.375 134.675V133.1H298.755V134.675H303.375ZM298.755 132.26H303.375V130.73H298.755V132.26ZM298.755 129.875H303.375V128.42H298.755V129.875ZM299.61 135.74L300.33 136.37C299.43 137.195 298.335 137.915 297.045 138.545L296.46 137.78C297.705 137.21 298.755 136.52 299.61 135.74ZM302.37 135.755C303.54 136.43 304.53 137.105 305.34 137.795L304.65 138.5C303.93 137.825 302.955 137.12 301.725 136.37L302.37 135.755ZM308.175 126.41H318.825V127.475H308.175V126.41ZM306.795 135.845H320.19V136.94H306.795V135.845Z" fill="#161616"/>
<rect width="160" height="32" transform="translate(260 148)" fill="white"/>
<path d="M283.35 162.07H284.31V163.03H286.74V162.07H287.715V163.03H289.65V163.945H287.715V165.295H290.1V166.225H280.965V165.295H283.35V163.945H281.355V163.03H283.35V162.07ZM284.31 165.295H286.74V163.945H284.31V165.295ZM286.755 166.375C287.865 166.825 288.9 167.365 289.845 168.025L289.32 168.835C288.33 168.085 287.31 167.515 286.26 167.095L286.755 166.375ZM284.055 166.375L284.715 166.96C283.935 167.635 282.975 168.235 281.835 168.745L281.25 167.98C282.36 167.515 283.305 166.975 284.055 166.375ZM277.845 156.955C278.775 157.63 279.555 158.32 280.185 159.01L279.48 159.715C278.91 159.055 278.115 158.365 277.125 157.63L277.845 156.955ZM276.84 160.54H280.215V161.365C279.705 162.25 279.105 163.105 278.415 163.945H280.365V164.65C280.155 165.85 279.915 166.855 279.615 167.65C279.735 167.725 279.87 167.83 280.02 167.965C280.485 168.415 280.965 168.745 281.46 168.97C281.94 169.165 282.615 169.27 283.47 169.285C284.28 169.285 285.225 169.3 286.275 169.3C287.325 169.3 288.69 169.27 290.37 169.225L290.13 170.26H286.41C285.285 170.26 284.28 170.245 283.41 170.215C282.39 170.185 281.61 170.05 281.07 169.81C280.44 169.555 279.885 169.165 279.375 168.625C279.255 168.505 279.12 168.46 279 168.46C278.625 168.46 278.1 169.105 277.41 170.41L276.66 169.72C277.35 168.445 277.995 167.71 278.625 167.515C278.94 166.72 279.18 165.835 279.36 164.845H277.185V164.035C277.92 163.18 278.535 162.34 279.045 161.5H276.84V160.54ZM288.705 158.005H286.77V159.055H288.705V158.005ZM286.77 159.805V160.525C286.77 160.78 286.92 160.915 287.25 160.915H289.875V161.725H286.785C286.155 161.725 285.855 161.455 285.855 160.93V157.225H289.62V159.805H286.77ZM281.385 162.01L281.07 161.32C281.25 161.23 281.355 161.065 281.355 160.84V157.225H285.09V159.82H282.285V161.08C283.245 160.99 284.19 160.87 285.09 160.72L285.3 161.485C284.16 161.665 282.855 161.845 281.385 162.01ZM282.285 159.07H284.175V158.02H282.285V159.07ZM291.84 158.215H296.46V159.265H294.75V166.495C295.395 166.255 296.025 165.97 296.625 165.67V166.705C295.185 167.395 293.64 167.98 291.99 168.43L291.75 167.41C292.41 167.26 293.04 167.095 293.67 166.885V159.265H291.84V158.215ZM297.72 159.52H300.15C300.315 159.115 300.45 158.695 300.54 158.275H297.015V157.315H305.16V158.275H301.59C301.5 158.71 301.38 159.13 301.23 159.52H304.41V167.56H297.72V159.52ZM303.375 166.675V165.1H298.755V166.675H303.375ZM298.755 164.26H303.375V162.73H298.755V164.26ZM298.755 161.875H303.375V160.42H298.755V161.875ZM299.61 167.74L300.33 168.37C299.43 169.195 298.335 169.915 297.045 170.545L296.46 169.78C297.705 169.21 298.755 168.52 299.61 167.74ZM302.37 167.755C303.54 168.43 304.53 169.105 305.34 169.795L304.65 170.5C303.93 169.825 302.955 169.12 301.725 168.37L302.37 167.755ZM307.845 157.885H319.185V158.935H307.845V157.885ZM308.85 163.075H318.165V164.125H308.85V163.075ZM306.735 168.625H320.265V169.705H306.735V168.625Z" fill="#161616"/>
<rect width="160" height="32" transform="translate(260 180)" fill="white"/>
<path d="M283.35 194.07H284.31V195.03H286.74V194.07H287.715V195.03H289.65V195.945H287.715V197.295H290.1V198.225H280.965V197.295H283.35V195.945H281.355V195.03H283.35V194.07ZM284.31 197.295H286.74V195.945H284.31V197.295ZM286.755 198.375C287.865 198.825 288.9 199.365 289.845 200.025L289.32 200.835C288.33 200.085 287.31 199.515 286.26 199.095L286.755 198.375ZM284.055 198.375L284.715 198.96C283.935 199.635 282.975 200.235 281.835 200.745L281.25 199.98C282.36 199.515 283.305 198.975 284.055 198.375ZM277.845 188.955C278.775 189.63 279.555 190.32 280.185 191.01L279.48 191.715C278.91 191.055 278.115 190.365 277.125 189.63L277.845 188.955ZM276.84 192.54H280.215V193.365C279.705 194.25 279.105 195.105 278.415 195.945H280.365V196.65C280.155 197.85 279.915 198.855 279.615 199.65C279.735 199.725 279.87 199.83 280.02 199.965C280.485 200.415 280.965 200.745 281.46 200.97C281.94 201.165 282.615 201.27 283.47 201.285C284.28 201.285 285.225 201.3 286.275 201.3C287.325 201.3 288.69 201.27 290.37 201.225L290.13 202.26H286.41C285.285 202.26 284.28 202.245 283.41 202.215C282.39 202.185 281.61 202.05 281.07 201.81C280.44 201.555 279.885 201.165 279.375 200.625C279.255 200.505 279.12 200.46 279 200.46C278.625 200.46 278.1 201.105 277.41 202.41L276.66 201.72C277.35 200.445 277.995 199.71 278.625 199.515C278.94 198.72 279.18 197.835 279.36 196.845H277.185V196.035C277.92 195.18 278.535 194.34 279.045 193.5H276.84V192.54ZM288.705 190.005H286.77V191.055H288.705V190.005ZM286.77 191.805V192.525C286.77 192.78 286.92 192.915 287.25 192.915H289.875V193.725H286.785C286.155 193.725 285.855 193.455 285.855 192.93V189.225H289.62V191.805H286.77ZM281.385 194.01L281.07 193.32C281.25 193.23 281.355 193.065 281.355 192.84V189.225H285.09V191.82H282.285V193.08C283.245 192.99 284.19 192.87 285.09 192.72L285.3 193.485C284.16 193.665 282.855 193.845 281.385 194.01ZM282.285 191.07H284.175V190.02H282.285V191.07ZM291.84 190.215H296.46V191.265H294.75V198.495C295.395 198.255 296.025 197.97 296.625 197.67V198.705C295.185 199.395 293.64 199.98 291.99 200.43L291.75 199.41C292.41 199.26 293.04 199.095 293.67 198.885V191.265H291.84V190.215ZM297.72 191.52H300.15C300.315 191.115 300.45 190.695 300.54 190.275H297.015V189.315H305.16V190.275H301.59C301.5 190.71 301.38 191.13 301.23 191.52H304.41V199.56H297.72V191.52ZM303.375 198.675V197.1H298.755V198.675H303.375ZM298.755 196.26H303.375V194.73H298.755V196.26ZM298.755 193.875H303.375V192.42H298.755V193.875ZM299.61 199.74L300.33 200.37C299.43 201.195 298.335 201.915 297.045 202.545L296.46 201.78C297.705 201.21 298.755 200.52 299.61 199.74ZM302.37 199.755C303.54 200.43 304.53 201.105 305.34 201.795L304.65 202.5C303.93 201.825 302.955 201.12 301.725 200.37L302.37 199.755ZM319.665 189.705V202.275H318.57V201.405H308.43V202.275H307.335V189.705H319.665ZM308.43 200.43H318.57V190.68H315.615V196.41C315.615 196.71 315.81 196.875 316.2 196.875H318.045V197.865H315.915C315.015 197.865 314.58 197.445 314.58 196.635V190.68H312.345V193.935C312.315 196.02 311.46 197.55 309.78 198.51L308.955 197.79C310.485 196.98 311.265 195.705 311.295 193.935V190.68H308.43V200.43Z" fill="#161616"/>
<rect x="412" y="82" width="6" height="22" rx="3" fill="#E5E5E5"/>
</g>
<path d="M419.5 80.5V215.5H260.5V80.5H419.5Z" stroke="#D9D9D9"/>
<path d="M486.942 33L486.097 30.543H482.6L481.768 33H480L483.406 23.679H485.304L488.71 33H486.942ZM484.862 26.721C484.827 26.5997 484.775 26.435 484.706 26.227C484.637 26.019 484.567 25.8067 484.498 25.59C484.437 25.3647 484.39 25.1783 484.355 25.031C484.312 25.2043 484.255 25.4037 484.186 25.629C484.125 25.8543 484.065 26.0667 484.004 26.266C483.952 26.4653 483.909 26.617 483.874 26.721L483.055 29.113H485.668L484.862 26.721ZM492.622 33.13C491.954 33.13 491.374 33.0043 490.88 32.753C490.394 32.493 490.017 32.0987 489.749 31.57C489.489 31.0327 489.359 30.348 489.359 29.516C489.359 28.6493 489.502 27.9473 489.788 27.41C490.082 26.864 490.485 26.4653 490.997 26.214C491.508 25.954 492.093 25.824 492.752 25.824C493.194 25.824 493.588 25.8673 493.935 25.954C494.281 26.0407 494.576 26.1447 494.819 26.266L494.338 27.553C494.069 27.449 493.8 27.3623 493.532 27.293C493.263 27.215 493.003 27.176 492.752 27.176C492.362 27.176 492.037 27.2627 491.777 27.436C491.525 27.6093 491.339 27.8693 491.218 28.216C491.096 28.554 491.036 28.983 491.036 29.503C491.036 30.0057 491.096 30.426 491.218 30.764C491.348 31.102 491.538 31.3577 491.79 31.531C492.041 31.6957 492.353 31.778 492.726 31.778C493.124 31.778 493.475 31.7303 493.779 31.635C494.082 31.5397 494.368 31.4097 494.637 31.245V32.662C494.368 32.8267 494.078 32.9437 493.766 33.013C493.462 33.091 493.081 33.13 492.622 33.13ZM499.017 31.817C499.225 31.817 499.425 31.7997 499.615 31.765C499.806 31.7217 499.984 31.674 500.148 31.622V32.844C499.975 32.922 499.75 32.987 499.472 33.039C499.195 33.0997 498.905 33.13 498.601 33.13C498.203 33.13 497.839 33.065 497.509 32.935C497.189 32.7963 496.929 32.5623 496.729 32.233C496.539 31.9037 496.443 31.4443 496.443 30.855V27.189H495.494V26.474L496.534 25.902L497.054 24.407H498.081V25.954H500.083V27.189H498.081V30.842C498.081 31.1713 498.168 31.4183 498.341 31.583C498.515 31.739 498.74 31.817 499.017 31.817ZM503.207 25.954V33H501.569V25.954H503.207ZM502.388 23.237C502.63 23.237 502.843 23.302 503.025 23.432C503.207 23.5533 503.298 23.7743 503.298 24.095C503.298 24.407 503.207 24.6323 503.025 24.771C502.843 24.901 502.63 24.966 502.388 24.966C502.136 24.966 501.92 24.901 501.738 24.771C501.564 24.6323 501.478 24.407 501.478 24.095C501.478 23.7743 501.564 23.5533 501.738 23.432C501.92 23.302 502.136 23.237 502.388 23.237ZM506.926 33L504.248 25.954H505.977L507.381 30.023C507.442 30.1877 507.498 30.3697 507.55 30.569C507.602 30.7597 507.645 30.9503 507.68 31.141C507.723 31.323 507.749 31.4833 507.758 31.622H507.81C507.827 31.4747 507.858 31.31 507.901 31.128C507.944 30.9373 507.992 30.7467 508.044 30.556C508.105 30.3653 508.161 30.1877 508.213 30.023L509.617 25.954H511.346L508.668 33H506.926ZM515.206 25.824C516.116 25.824 516.805 26.0233 517.273 26.422C517.749 26.812 517.988 27.4273 517.988 28.268V33H516.831L516.506 32.025H516.454C516.254 32.2763 516.046 32.4887 515.83 32.662C515.622 32.8267 515.379 32.9437 515.102 33.013C514.833 33.091 514.504 33.13 514.114 33.13C513.698 33.13 513.321 33.052 512.983 32.896C512.653 32.74 512.393 32.5017 512.203 32.181C512.012 31.8517 511.917 31.44 511.917 30.946C511.917 30.218 512.181 29.672 512.71 29.308C513.247 28.9353 514.057 28.7317 515.141 28.697L516.363 28.658V28.307C516.363 27.8563 516.254 27.5357 516.038 27.345C515.821 27.1543 515.518 27.059 515.128 27.059C514.772 27.059 514.43 27.111 514.101 27.215C513.771 27.319 513.451 27.4403 513.139 27.579L512.619 26.435C512.965 26.253 513.36 26.1057 513.802 25.993C514.252 25.8803 514.72 25.824 515.206 25.824ZM515.505 29.698C514.785 29.724 514.287 29.8497 514.01 30.075C513.732 30.2917 513.594 30.5863 513.594 30.959C513.594 31.2883 513.693 31.5267 513.893 31.674C514.092 31.8213 514.348 31.895 514.66 31.895C515.136 31.895 515.539 31.7607 515.869 31.492C516.198 31.2147 516.363 30.8073 516.363 30.27V29.672L515.505 29.698ZM522.77 31.817C522.978 31.817 523.178 31.7997 523.368 31.765C523.559 31.7217 523.737 31.674 523.901 31.622V32.844C523.728 32.922 523.503 32.987 523.225 33.039C522.948 33.0997 522.658 33.13 522.354 33.13C521.956 33.13 521.592 33.065 521.262 32.935C520.942 32.7963 520.682 32.5623 520.482 32.233C520.292 31.9037 520.196 31.4443 520.196 30.855V27.189H519.247V26.474L520.287 25.902L520.807 24.407H521.834V25.954H523.836V27.189H521.834V30.842C521.834 31.1713 521.921 31.4183 522.094 31.583C522.268 31.739 522.493 31.817 522.77 31.817ZM528.156 25.824C528.788 25.824 529.33 25.954 529.781 26.214C530.24 26.4653 530.595 26.8293 530.847 27.306C531.098 27.774 531.224 28.346 531.224 29.022V29.854H526.57C526.587 30.4953 526.765 30.9937 527.103 31.349C527.441 31.6957 527.909 31.869 528.507 31.869C528.966 31.869 529.373 31.8257 529.729 31.739C530.093 31.6437 530.465 31.5093 530.847 31.336V32.649C530.5 32.8137 530.14 32.935 529.768 33.013C529.395 33.091 528.949 33.13 528.429 33.13C527.744 33.13 527.133 33 526.596 32.74C526.067 32.4713 525.651 32.0683 525.348 31.531C525.053 30.9937 524.906 30.3263 524.906 29.529C524.906 28.723 525.04 28.047 525.309 27.501C525.586 26.9463 525.967 26.5303 526.453 26.253C526.938 25.967 527.506 25.824 528.156 25.824ZM528.156 27.033C527.722 27.033 527.367 27.176 527.09 27.462C526.821 27.7393 526.661 28.1553 526.609 28.71H529.638C529.638 28.3807 529.581 28.0903 529.469 27.839C529.365 27.5877 529.204 27.3927 528.988 27.254C528.771 27.1067 528.494 27.033 528.156 27.033ZM535.202 33.13C534.388 33.13 533.725 32.8267 533.213 32.22C532.711 31.6047 532.459 30.6947 532.459 29.49C532.459 28.2853 532.715 27.3753 533.226 26.76C533.738 26.136 534.409 25.824 535.241 25.824C535.588 25.824 535.891 25.8717 536.151 25.967C536.42 26.0537 536.65 26.175 536.84 26.331C537.031 26.487 537.191 26.6603 537.321 26.851H537.399C537.373 26.7297 537.347 26.5433 537.321 26.292C537.295 26.0407 537.282 25.8067 537.282 25.59V23.12H538.92V33H537.646L537.347 32.077H537.282C537.152 32.2677 536.992 32.4453 536.801 32.61C536.611 32.766 536.385 32.8917 536.125 32.987C535.865 33.0823 535.558 33.13 535.202 33.13ZM535.696 31.804C536.303 31.804 536.732 31.6307 536.983 31.284C537.235 30.9373 537.36 30.413 537.36 29.711V29.503C537.36 28.7403 537.239 28.1597 536.996 27.761C536.762 27.3623 536.32 27.163 535.67 27.163C535.176 27.163 534.795 27.371 534.526 27.787C534.258 28.1943 534.123 28.7707 534.123 29.516C534.123 30.2613 534.258 30.829 534.526 31.219C534.795 31.609 535.185 31.804 535.696 31.804ZM549.941 30.465C549.941 31.011 549.807 31.4833 549.538 31.882C549.269 32.2807 548.879 32.5883 548.368 32.805C547.865 33.0217 547.263 33.13 546.561 33.13C546.223 33.13 545.898 33.1083 545.586 33.065C545.283 33.0303 544.992 32.974 544.715 32.896C544.446 32.818 544.195 32.7227 543.961 32.61V31.05C544.351 31.2233 544.78 31.3837 545.248 31.531C545.716 31.6697 546.193 31.739 546.678 31.739C547.051 31.739 547.354 31.6913 547.588 31.596C547.831 31.492 548.008 31.3533 548.121 31.18C548.234 30.998 548.29 30.79 548.29 30.556C548.29 30.296 548.216 30.075 548.069 29.893C547.922 29.711 547.705 29.542 547.419 29.386C547.133 29.23 546.778 29.0653 546.353 28.892C546.067 28.7707 545.785 28.6363 545.508 28.489C545.239 28.333 544.997 28.1467 544.78 27.93C544.563 27.7133 544.39 27.4577 544.26 27.163C544.13 26.8683 544.065 26.5217 544.065 26.123C544.065 25.5943 544.191 25.1393 544.442 24.758C544.702 24.3767 545.062 24.0863 545.521 23.887C545.989 23.6877 546.531 23.588 547.146 23.588C547.64 23.588 548.104 23.64 548.537 23.744C548.97 23.848 549.399 23.9953 549.824 24.186L549.291 25.525C548.91 25.3603 548.541 25.2303 548.186 25.135C547.831 25.0397 547.467 24.992 547.094 24.992C546.799 24.992 546.548 25.0397 546.34 25.135C546.132 25.2217 545.976 25.3473 545.872 25.512C545.768 25.6767 545.716 25.8673 545.716 26.084C545.716 26.3353 545.781 26.5477 545.911 26.721C546.041 26.8943 546.24 27.059 546.509 27.215C546.786 27.3623 547.142 27.5313 547.575 27.722C548.078 27.9387 548.502 28.164 548.849 28.398C549.196 28.632 549.464 28.9137 549.655 29.243C549.846 29.5723 549.941 29.9797 549.941 30.465Z" fill="#BCBCBC"/>
<path d="M611.5 44.5V67.5H480.5V44.5H611.5Z" fill="white"/>
<path d="M611.5 44.5V67.5H480.5V44.5H611.5Z" stroke="#465BC7"/>
<path d="M498.396 52.836H500.281C500.424 52.485 500.528 52.121 500.606 51.757H497.889V50.912H504.298V51.757H501.529C501.451 52.121 501.334 52.485 501.191 52.836H503.804V59.752H498.396V52.836ZM502.92 58.985V57.633H499.28V58.985H502.92ZM499.28 56.892H502.92V55.605H499.28V56.892ZM499.28 54.864H502.92V53.616H499.28V54.864ZM499.982 59.895L500.593 60.428C499.904 61.13 499.059 61.754 498.058 62.287L497.525 61.624C498.5 61.13 499.319 60.545 499.982 59.895ZM502.257 59.882C503.141 60.454 503.895 61.039 504.506 61.611L503.908 62.209C503.375 61.65 502.634 61.052 501.698 60.428L502.257 59.882ZM493.794 52.55C494.171 52.914 494.509 53.252 494.808 53.577C495.315 53.031 495.77 52.42 496.186 51.744H492.936V50.912H497.148V51.627C496.602 52.602 495.991 53.447 495.341 54.162C495.575 54.422 495.77 54.669 495.952 54.903H497.629V55.475C497.421 56.502 497.187 57.295 496.914 57.867L496.173 57.594C496.407 57.087 496.602 56.476 496.758 55.774H495.341V61.208C495.341 61.884 495.003 62.235 494.353 62.235H493.131L492.936 61.39C493.326 61.429 493.69 61.455 494.041 61.455C494.301 61.455 494.444 61.299 494.444 60.987V55.774H492.507V54.903H494.938C494.431 54.305 493.82 53.655 493.105 52.979L493.794 52.55ZM510.005 57.724V61.468H506.963V62.105H506.079V57.724H510.005ZM506.963 60.623H509.147V58.543H506.963V60.623ZM505.637 52.095H507.873C507.652 51.575 507.392 51.068 507.08 50.587L507.977 50.34C508.289 50.912 508.523 51.432 508.705 51.913L508.198 52.095H510.486V52.953H505.637V52.095ZM506.183 53.993H509.914V54.812H506.183V53.993ZM506.183 55.787H509.914V56.606H506.183V55.787ZM510.902 55.943H516.505V56.801C516.141 57.997 515.556 59.024 514.724 59.882C515.504 60.506 516.453 61.065 517.597 61.533L517.09 62.339C515.894 61.793 514.893 61.169 514.087 60.48C513.151 61.26 511.981 61.871 510.603 62.339L510.096 61.546C511.422 61.104 512.514 60.532 513.398 59.83C512.579 58.946 512.02 57.945 511.721 56.853H510.902V55.943ZM512.618 56.853C512.891 57.737 513.372 58.543 514.048 59.245C514.724 58.543 515.244 57.737 515.595 56.853H512.618ZM511.877 50.886H515.764V53.694C515.764 54.019 515.933 54.188 516.297 54.188H517.22V55.046H516.063C515.231 55.046 514.828 54.656 514.828 53.889V51.77H512.8V52.355C512.8 53.655 512.189 54.656 510.993 55.358L510.369 54.669C511.37 54.149 511.877 53.408 511.877 52.446V50.886ZM518.832 52.576H524.214C523.863 51.887 523.434 51.237 522.914 50.626L523.85 50.288C524.344 50.912 524.786 51.679 525.202 52.576H530.168V53.512H528.14C527.503 55.566 526.541 57.295 525.267 58.673C526.645 59.843 528.374 60.805 530.454 61.572L529.947 62.352C527.789 61.546 526.021 60.545 524.617 59.336C523.135 60.701 521.289 61.702 519.079 62.339L518.585 61.52C520.769 60.935 522.563 60.012 523.967 58.738C522.459 57.256 521.419 55.514 520.834 53.512H518.832V52.576ZM521.757 53.512C522.316 55.267 523.265 56.788 524.617 58.088C525.774 56.827 526.619 55.306 527.165 53.512H521.757ZM543.012 51.718V54.617H542.076V52.615H532.924V54.617H531.988V51.718H537.097C536.915 51.25 536.72 50.834 536.512 50.457L537.578 50.275C537.76 50.704 537.942 51.185 538.111 51.718H543.012ZM533.99 54.019H540.971V54.89C540.126 55.488 539.177 56.06 538.137 56.632V57.503H543.259V58.413H538.137V61.169C538.137 61.884 537.76 62.248 537.006 62.248H535.407L535.186 61.39C535.641 61.403 536.135 61.416 536.681 61.416C537.019 61.416 537.188 61.221 537.188 60.844V58.413H531.754V57.503H537.188V56.229C538.241 55.683 539.034 55.228 539.567 54.89H533.99V54.019Z" fill="#8F8F8F"/>
<path fill-rule="evenodd" clip-rule="evenodd" d="M596 53.333L591.333 58.0131L591.984 58.6663H591.986L596 54.6389L600.016 58.6663H600.017L600.667 58.0137V58.0124L596 53.333Z" fill="#465BC7"/>
<g clip-path="url(#clip2_154_6360)">
<path d="M480 72H612V176H480V72Z" fill="white"/>
<rect width="132" height="24" transform="translate(480 76)" fill="white"/>
<path d="M498.37 86.994H499.202V87.826H501.308V86.994H502.153V87.826H503.83V88.619H502.153V89.789H504.22V90.595H496.303V89.789H498.37V88.619H496.641V87.826H498.37V86.994ZM499.202 89.789H501.308V88.619H499.202V89.789ZM501.321 90.725C502.283 91.115 503.18 91.583 503.999 92.155L503.544 92.857C502.686 92.207 501.802 91.713 500.892 91.349L501.321 90.725ZM498.981 90.725L499.553 91.232C498.877 91.817 498.045 92.337 497.057 92.779L496.55 92.116C497.512 91.713 498.331 91.245 498.981 90.725ZM493.599 82.561C494.405 83.146 495.081 83.744 495.627 84.342L495.016 84.953C494.522 84.381 493.833 83.783 492.975 83.146L493.599 82.561ZM492.728 85.668H495.653V86.383C495.211 87.15 494.691 87.891 494.093 88.619H495.783V89.23C495.601 90.27 495.393 91.141 495.133 91.83C495.237 91.895 495.354 91.986 495.484 92.103C495.887 92.493 496.303 92.779 496.732 92.974C497.148 93.143 497.733 93.234 498.474 93.247C499.176 93.247 499.995 93.26 500.905 93.26C501.815 93.26 502.998 93.234 504.454 93.195L504.246 94.092H501.022C500.047 94.092 499.176 94.079 498.422 94.053C497.538 94.027 496.862 93.91 496.394 93.702C495.848 93.481 495.367 93.143 494.925 92.675C494.821 92.571 494.704 92.532 494.6 92.532C494.275 92.532 493.82 93.091 493.222 94.222L492.572 93.624C493.17 92.519 493.729 91.882 494.275 91.713C494.548 91.024 494.756 90.257 494.912 89.399H493.027V88.697C493.664 87.956 494.197 87.228 494.639 86.5H492.728V85.668ZM503.011 83.471H501.334V84.381H503.011V83.471ZM501.334 85.031V85.655C501.334 85.876 501.464 85.993 501.75 85.993H504.025V86.695H501.347C500.801 86.695 500.541 86.461 500.541 86.006V82.795H503.804V85.031H501.334ZM496.667 86.942L496.394 86.344C496.55 86.266 496.641 86.123 496.641 85.928V82.795H499.878V85.044H497.447V86.136C498.279 86.058 499.098 85.954 499.878 85.824L500.06 86.487C499.072 86.643 497.941 86.799 496.667 86.942ZM497.447 84.394H499.085V83.484H497.447V84.394ZM505.728 83.653H509.732V84.563H508.25V90.829C508.809 90.621 509.355 90.374 509.875 90.114V91.011C508.627 91.609 507.288 92.116 505.858 92.506L505.65 91.622C506.222 91.492 506.768 91.349 507.314 91.167V84.563H505.728V83.653ZM510.824 84.784H512.93C513.073 84.433 513.19 84.069 513.268 83.705H510.213V82.873H517.272V83.705H514.178C514.1 84.082 513.996 84.446 513.866 84.784H516.622V91.752H510.824V84.784ZM515.725 90.985V89.62H511.721V90.985H515.725ZM511.721 88.892H515.725V87.566H511.721V88.892ZM511.721 86.825H515.725V85.564H511.721V86.825ZM512.462 91.908L513.086 92.454C512.306 93.169 511.357 93.793 510.239 94.339L509.732 93.676C510.811 93.182 511.721 92.584 512.462 91.908ZM514.854 91.921C515.868 92.506 516.726 93.091 517.428 93.689L516.83 94.3C516.206 93.715 515.361 93.104 514.295 92.454L514.854 91.921ZM519.547 87.891H529.453V88.762H519.547V87.891Z" fill="#161616"/>
<rect width="132" height="24" transform="translate(480 100)" fill="white"/>
<path d="M498.37 110.994H499.202V111.826H501.308V110.994H502.153V111.826H503.83V112.619H502.153V113.789H504.22V114.595H496.303V113.789H498.37V112.619H496.641V111.826H498.37V110.994ZM499.202 113.789H501.308V112.619H499.202V113.789ZM501.321 114.725C502.283 115.115 503.18 115.583 503.999 116.155L503.544 116.857C502.686 116.207 501.802 115.713 500.892 115.349L501.321 114.725ZM498.981 114.725L499.553 115.232C498.877 115.817 498.045 116.337 497.057 116.779L496.55 116.116C497.512 115.713 498.331 115.245 498.981 114.725ZM493.599 106.561C494.405 107.146 495.081 107.744 495.627 108.342L495.016 108.953C494.522 108.381 493.833 107.783 492.975 107.146L493.599 106.561ZM492.728 109.668H495.653V110.383C495.211 111.15 494.691 111.891 494.093 112.619H495.783V113.23C495.601 114.27 495.393 115.141 495.133 115.83C495.237 115.895 495.354 115.986 495.484 116.103C495.887 116.493 496.303 116.779 496.732 116.974C497.148 117.143 497.733 117.234 498.474 117.247C499.176 117.247 499.995 117.26 500.905 117.26C501.815 117.26 502.998 117.234 504.454 117.195L504.246 118.092H501.022C500.047 118.092 499.176 118.079 498.422 118.053C497.538 118.027 496.862 117.91 496.394 117.702C495.848 117.481 495.367 117.143 494.925 116.675C494.821 116.571 494.704 116.532 494.6 116.532C494.275 116.532 493.82 117.091 493.222 118.222L492.572 117.624C493.17 116.519 493.729 115.882 494.275 115.713C494.548 115.024 494.756 114.257 494.912 113.399H493.027V112.697C493.664 111.956 494.197 111.228 494.639 110.5H492.728V109.668ZM503.011 107.471H501.334V108.381H503.011V107.471ZM501.334 109.031V109.655C501.334 109.876 501.464 109.993 501.75 109.993H504.025V110.695H501.347C500.801 110.695 500.541 110.461 500.541 110.006V106.795H503.804V109.031H501.334ZM496.667 110.942L496.394 110.344C496.55 110.266 496.641 110.123 496.641 109.928V106.795H499.878V109.044H497.447V110.136C498.279 110.058 499.098 109.954 499.878 109.824L500.06 110.487C499.072 110.643 497.941 110.799 496.667 110.942ZM497.447 108.394H499.085V107.484H497.447V108.394ZM505.728 107.653H509.732V108.563H508.25V114.829C508.809 114.621 509.355 114.374 509.875 114.114V115.011C508.627 115.609 507.288 116.116 505.858 116.506L505.65 115.622C506.222 115.492 506.768 115.349 507.314 115.167V108.563H505.728V107.653ZM510.824 108.784H512.93C513.073 108.433 513.19 108.069 513.268 107.705H510.213V106.873H517.272V107.705H514.178C514.1 108.082 513.996 108.446 513.866 108.784H516.622V115.752H510.824V108.784ZM515.725 114.985V113.62H511.721V114.985H515.725ZM511.721 112.892H515.725V111.566H511.721V112.892ZM511.721 110.825H515.725V109.564H511.721V110.825ZM512.462 115.908L513.086 116.454C512.306 117.169 511.357 117.793 510.239 118.339L509.732 117.676C510.811 117.182 511.721 116.584 512.462 115.908ZM514.854 115.921C515.868 116.506 516.726 117.091 517.428 117.689L516.83 118.3C516.206 117.715 515.361 117.104 514.295 116.454L514.854 115.921ZM519.885 107.822H529.115V108.745H519.885V107.822ZM518.689 115.999H530.298V116.948H518.689V115.999Z" fill="#161616"/>
<rect width="132" height="24" transform="translate(480 124)" fill="white"/>
<path d="M498.37 134.994H499.202V135.826H501.308V134.994H502.153V135.826H503.83V136.619H502.153V137.789H504.22V138.595H496.303V137.789H498.37V136.619H496.641V135.826H498.37V134.994ZM499.202 137.789H501.308V136.619H499.202V137.789ZM501.321 138.725C502.283 139.115 503.18 139.583 503.999 140.155L503.544 140.857C502.686 140.207 501.802 139.713 500.892 139.349L501.321 138.725ZM498.981 138.725L499.553 139.232C498.877 139.817 498.045 140.337 497.057 140.779L496.55 140.116C497.512 139.713 498.331 139.245 498.981 138.725ZM493.599 130.561C494.405 131.146 495.081 131.744 495.627 132.342L495.016 132.953C494.522 132.381 493.833 131.783 492.975 131.146L493.599 130.561ZM492.728 133.668H495.653V134.383C495.211 135.15 494.691 135.891 494.093 136.619H495.783V137.23C495.601 138.27 495.393 139.141 495.133 139.83C495.237 139.895 495.354 139.986 495.484 140.103C495.887 140.493 496.303 140.779 496.732 140.974C497.148 141.143 497.733 141.234 498.474 141.247C499.176 141.247 499.995 141.26 500.905 141.26C501.815 141.26 502.998 141.234 504.454 141.195L504.246 142.092H501.022C500.047 142.092 499.176 142.079 498.422 142.053C497.538 142.027 496.862 141.91 496.394 141.702C495.848 141.481 495.367 141.143 494.925 140.675C494.821 140.571 494.704 140.532 494.6 140.532C494.275 140.532 493.82 141.091 493.222 142.222L492.572 141.624C493.17 140.519 493.729 139.882 494.275 139.713C494.548 139.024 494.756 138.257 494.912 137.399H493.027V136.697C493.664 135.956 494.197 135.228 494.639 134.5H492.728V133.668ZM503.011 131.471H501.334V132.381H503.011V131.471ZM501.334 133.031V133.655C501.334 133.876 501.464 133.993 501.75 133.993H504.025V134.695H501.347C500.801 134.695 500.541 134.461 500.541 134.006V130.795H503.804V133.031H501.334ZM496.667 134.942L496.394 134.344C496.55 134.266 496.641 134.123 496.641 133.928V130.795H499.878V133.044H497.447V134.136C498.279 134.058 499.098 133.954 499.878 133.824L500.06 134.487C499.072 134.643 497.941 134.799 496.667 134.942ZM497.447 132.394H499.085V131.484H497.447V132.394ZM505.728 131.653H509.732V132.563H508.25V138.829C508.809 138.621 509.355 138.374 509.875 138.114V139.011C508.627 139.609 507.288 140.116 505.858 140.506L505.65 139.622C506.222 139.492 506.768 139.349 507.314 139.167V132.563H505.728V131.653ZM510.824 132.784H512.93C513.073 132.433 513.19 132.069 513.268 131.705H510.213V130.873H517.272V131.705H514.178C514.1 132.082 513.996 132.446 513.866 132.784H516.622V139.752H510.824V132.784ZM515.725 138.985V137.62H511.721V138.985H515.725ZM511.721 136.892H515.725V135.566H511.721V136.892ZM511.721 134.825H515.725V133.564H511.721V134.825ZM512.462 139.908L513.086 140.454C512.306 141.169 511.357 141.793 510.239 142.339L509.732 141.676C510.811 141.182 511.721 140.584 512.462 139.908ZM514.854 139.921C515.868 140.506 516.726 141.091 517.428 141.689L516.83 142.3C516.206 141.715 515.361 141.104 514.295 140.454L514.854 139.921ZM519.599 131.367H529.427V132.277H519.599V131.367ZM520.47 135.865H528.543V136.775H520.47V135.865ZM518.637 140.675H530.363V141.611H518.637V140.675Z" fill="#161616"/>
<rect width="132" height="24" transform="translate(480 148)" fill="white"/>
<path d="M498.37 158.994H499.202V159.826H501.308V158.994H502.153V159.826H503.83V160.619H502.153V161.789H504.22V162.595H496.303V161.789H498.37V160.619H496.641V159.826H498.37V158.994ZM499.202 161.789H501.308V160.619H499.202V161.789ZM501.321 162.725C502.283 163.115 503.18 163.583 503.999 164.155L503.544 164.857C502.686 164.207 501.802 163.713 500.892 163.349L501.321 162.725ZM498.981 162.725L499.553 163.232C498.877 163.817 498.045 164.337 497.057 164.779L496.55 164.116C497.512 163.713 498.331 163.245 498.981 162.725ZM493.599 154.561C494.405 155.146 495.081 155.744 495.627 156.342L495.016 156.953C494.522 156.381 493.833 155.783 492.975 155.146L493.599 154.561ZM492.728 157.668H495.653V158.383C495.211 159.15 494.691 159.891 494.093 160.619H495.783V161.23C495.601 162.27 495.393 163.141 495.133 163.83C495.237 163.895 495.354 163.986 495.484 164.103C495.887 164.493 496.303 164.779 496.732 164.974C497.148 165.143 497.733 165.234 498.474 165.247C499.176 165.247 499.995 165.26 500.905 165.26C501.815 165.26 502.998 165.234 504.454 165.195L504.246 166.092H501.022C500.047 166.092 499.176 166.079 498.422 166.053C497.538 166.027 496.862 165.91 496.394 165.702C495.848 165.481 495.367 165.143 494.925 164.675C494.821 164.571 494.704 164.532 494.6 164.532C494.275 164.532 493.82 165.091 493.222 166.222L492.572 165.624C493.17 164.519 493.729 163.882 494.275 163.713C494.548 163.024 494.756 162.257 494.912 161.399H493.027V160.697C493.664 159.956 494.197 159.228 494.639 158.5H492.728V157.668ZM503.011 155.471H501.334V156.381H503.011V155.471ZM501.334 157.031V157.655C501.334 157.876 501.464 157.993 501.75 157.993H504.025V158.695H501.347C500.801 158.695 500.541 158.461 500.541 158.006V154.795H503.804V157.031H501.334ZM496.667 158.942L496.394 158.344C496.55 158.266 496.641 158.123 496.641 157.928V154.795H499.878V157.044H497.447V158.136C498.279 158.058 499.098 157.954 499.878 157.824L500.06 158.487C499.072 158.643 497.941 158.799 496.667 158.942ZM497.447 156.394H499.085V155.484H497.447V156.394ZM505.728 155.653H509.732V156.563H508.25V162.829C508.809 162.621 509.355 162.374 509.875 162.114V163.011C508.627 163.609 507.288 164.116 505.858 164.506L505.65 163.622C506.222 163.492 506.768 163.349 507.314 163.167V156.563H505.728V155.653ZM510.824 156.784H512.93C513.073 156.433 513.19 156.069 513.268 155.705H510.213V154.873H517.272V155.705H514.178C514.1 156.082 513.996 156.446 513.866 156.784H516.622V163.752H510.824V156.784ZM515.725 162.985V161.62H511.721V162.985H515.725ZM511.721 160.892H515.725V159.566H511.721V160.892ZM511.721 158.825H515.725V157.564H511.721V158.825ZM512.462 163.908L513.086 164.454C512.306 165.169 511.357 165.793 510.239 166.339L509.732 165.676C510.811 165.182 511.721 164.584 512.462 163.908ZM514.854 163.921C515.868 164.506 516.726 165.091 517.428 165.689L516.83 166.3C516.206 165.715 515.361 165.104 514.295 164.454L514.854 163.921ZM529.843 155.211V166.105H528.894V165.351H520.106V166.105H519.157V155.211H529.843ZM520.106 164.506H528.894V156.056H526.333V161.022C526.333 161.282 526.502 161.425 526.84 161.425H528.439V162.283H526.593C525.813 162.283 525.436 161.919 525.436 161.217V156.056H523.499V158.877C523.473 160.684 522.732 162.01 521.276 162.842L520.561 162.218C521.887 161.516 522.563 160.411 522.589 158.877V156.056H520.106V164.506Z" fill="#161616"/>
<rect x="604" y="74" width="6" height="16.6667" rx="3" fill="#E5E5E5"/>
</g>
<path d="M611.5 72.5V175.5H480.5V72.5H611.5Z" stroke="#D9D9D9"/>
<defs>
<clipPath id="clip0_154_6360">
<path d="M40 88H200V256H40V88Z" fill="white"/>
</clipPath>
<clipPath id="clip1_154_6360">
<path d="M260 80H420V216H260V80Z" fill="white"/>
</clipPath>
<clipPath id="clip2_154_6360">
<path d="M480 72H612V176H480V72Z" fill="white"/>
</clipPath>
</defs>
</svg>
