<svg width="780" height="356" viewBox="0 0 780 356" fill="none" xmlns="http://www.w3.org/2000/svg">
<mask id="path-2-inside-1_154_4438" fill="white">
<path d="M0 2C0 0.895431 0.895431 0 2 0H778C779.105 0 780 0.895431 780 2V308H0V2Z"/>
</mask>
<path d="M0 2C0 0.895431 0.895431 0 2 0H778C779.105 0 780 0.895431 780 2V308H0V2Z" fill="white"/>
<path d="M-1 2C-1 0.343146 0.343146 -1 2 -1H778C779.657 -1 781 0.343146 781 2H779C779 1.44772 778.552 1 778 1H2C1.44772 1 1 1.44772 1 2H-1ZM780 308H0H780ZM-1 308V2C-1 0.343146 0.343146 -1 2 -1V1C1.44772 1 1 1.44772 1 2V308H-1ZM778 -1C779.657 -1 781 0.343146 781 2V308H779V2C779 1.44772 778.552 1 778 1V-1Z" fill="#D9D9D9" mask="url(#path-2-inside-1_154_4438)"/>
<path d="M199.5 20.5V59.5H40.5V20.5H199.5Z" fill="white"/>
<path d="M199.5 20.5V59.5H40.5V20.5H199.5Z" stroke="#465BC7"/>
<path d="M63.38 35.58H65.555C65.72 35.175 65.84 34.755 65.93 34.335H62.795V33.36H70.19V34.335H66.995C66.905 34.755 66.77 35.175 66.605 35.58H69.62V43.56H63.38V35.58ZM68.6 42.675V41.115H64.4V42.675H68.6ZM64.4 40.26H68.6V38.775H64.4V40.26ZM64.4 37.92H68.6V36.48H64.4V37.92ZM65.21 43.725L65.915 44.34C65.12 45.15 64.145 45.87 62.99 46.485L62.375 45.72C63.5 45.15 64.445 44.475 65.21 43.725ZM67.835 43.71C68.855 44.37 69.725 45.045 70.43 45.705L69.74 46.395C69.125 45.75 68.27 45.06 67.19 44.34L67.835 43.71ZM58.07 35.25C58.505 35.67 58.895 36.06 59.24 36.435C59.825 35.805 60.35 35.1 60.83 34.32H57.08V33.36H61.94V34.185C61.31 35.31 60.605 36.285 59.855 37.11C60.125 37.41 60.35 37.695 60.56 37.965H62.495V38.625C62.255 39.81 61.985 40.725 61.67 41.385L60.815 41.07C61.085 40.485 61.31 39.78 61.49 38.97H59.855V45.24C59.855 46.02 59.465 46.425 58.715 46.425H57.305L57.08 45.45C57.53 45.495 57.95 45.525 58.355 45.525C58.655 45.525 58.82 45.345 58.82 44.985V38.97H56.585V37.965H59.39C58.805 37.275 58.1 36.525 57.275 35.745L58.07 35.25ZM76.775 41.22V45.54H73.265V46.275H72.245V41.22H76.775ZM73.265 44.565H75.785V42.165H73.265V44.565ZM71.735 34.725H74.315C74.06 34.125 73.76 33.54 73.4 32.985L74.435 32.7C74.795 33.36 75.065 33.96 75.275 34.515L74.69 34.725H77.33V35.715H71.735V34.725ZM72.365 36.915H76.67V37.86H72.365V36.915ZM72.365 38.985H76.67V39.93H72.365V38.985ZM77.81 39.165H84.275V40.155C83.855 41.535 83.18 42.72 82.22 43.71C83.12 44.43 84.215 45.075 85.535 45.615L84.95 46.545C83.57 45.915 82.415 45.195 81.485 44.4C80.405 45.3 79.055 46.005 77.465 46.545L76.88 45.63C78.41 45.12 79.67 44.46 80.69 43.65C79.745 42.63 79.1 41.475 78.755 40.215H77.81V39.165ZM79.79 40.215C80.105 41.235 80.66 42.165 81.44 42.975C82.22 42.165 82.82 41.235 83.225 40.215H79.79ZM78.935 33.33H83.42V36.57C83.42 36.945 83.615 37.14 84.035 37.14H85.1V38.13H83.765C82.805 38.13 82.34 37.68 82.34 36.795V34.35H80V35.025C80 36.525 79.295 37.68 77.915 38.49L77.195 37.695C78.35 37.095 78.935 36.24 78.935 35.13V33.33ZM86.96 35.28H93.17C92.765 34.485 92.27 33.735 91.67 33.03L92.75 32.64C93.32 33.36 93.83 34.245 94.31 35.28H100.04V36.36H97.7C96.965 38.73 95.855 40.725 94.385 42.315C95.975 43.665 97.97 44.775 100.37 45.66L99.785 46.56C97.295 45.63 95.255 44.475 93.635 43.08C91.925 44.655 89.795 45.81 87.245 46.545L86.675 45.6C89.195 44.925 91.265 43.86 92.885 42.39C91.145 40.68 89.945 38.67 89.27 36.36H86.96V35.28ZM90.335 36.36C90.98 38.385 92.075 40.14 93.635 41.64C94.97 40.185 95.945 38.43 96.575 36.36H90.335ZM114.86 34.29V37.635H113.78V35.325H103.22V37.635H102.14V34.29H108.035C107.825 33.75 107.6 33.27 107.36 32.835L108.59 32.625C108.8 33.12 109.01 33.675 109.205 34.29H114.86ZM104.45 36.945H112.505V37.95C111.53 38.64 110.435 39.3 109.235 39.96V40.965H115.145V42.015H109.235V45.195C109.235 46.02 108.8 46.44 107.93 46.44H106.085L105.83 45.45C106.355 45.465 106.925 45.48 107.555 45.48C107.945 45.48 108.14 45.255 108.14 44.82V42.015H101.87V40.965H108.14V39.495C109.355 38.865 110.27 38.34 110.885 37.95H104.45V36.945Z" fill="#8F8F8F"/>
<path fill-rule="evenodd" clip-rule="evenodd" d="M176 36L169 43.0201L169.976 44H169.978L176 37.9588L182.024 44H182.026L183 43.0211V43.0191L176 36Z" fill="#465BC7"/>
<g clip-path="url(#clip0_154_4438)">
<path d="M40 64H200V288H40V64Z" fill="white"/>
<rect width="160" height="28" transform="translate(40 68)" fill="white"/>
<path d="M56.792 85.42H58.82C58.832 85.288 58.844 85.168 58.844 85.048V83.968H59.648V85.048C59.648 85.18 59.636 85.3 59.624 85.42H61.88V86.14H59.528C59.504 86.224 59.492 86.308 59.468 86.38C60.38 87.064 61.136 87.748 61.76 88.444L61.184 89.02C60.692 88.408 60.044 87.76 59.24 87.076C58.832 87.988 58.148 88.72 57.164 89.26L56.54 88.708C57.704 88.12 58.424 87.268 58.7 86.14H56.792V85.42ZM56.876 80.572H59.012V78.256H59.804V80.572H61.868V81.28H59.804V83.644H59.012V81.28H56.876V80.572ZM61.052 78.4L61.676 78.712C61.448 79.264 61.184 79.732 60.884 80.14L60.32 79.744C60.608 79.36 60.848 78.916 61.052 78.4ZM57.728 78.508C58.016 78.964 58.268 79.444 58.496 79.96L57.884 80.236C57.632 79.66 57.356 79.168 57.056 78.736L57.728 78.508ZM60.704 83.836C61.1 84.268 61.4 84.64 61.616 84.952L61.064 85.336C60.848 84.988 60.536 84.604 60.152 84.184L60.704 83.836ZM58.076 81.772L58.604 82.228C58.172 82.9 57.632 83.476 57.008 83.98L56.552 83.392C57.152 82.924 57.668 82.384 58.076 81.772ZM60.632 81.7C61.16 82.168 61.652 82.672 62.096 83.224L61.628 83.74C61.172 83.14 60.692 82.612 60.2 82.18L60.632 81.7ZM65.636 86.896C66.392 87.472 67.028 88.06 67.532 88.636L66.968 89.188C66.524 88.636 65.912 88.036 65.12 87.412L65.636 86.896ZM62.072 78.652H67.376V79.42H65.168C65.144 79.768 65.108 80.104 65.084 80.44H66.992V86.812H62.564V80.44H64.232C64.268 80.104 64.292 79.768 64.316 79.42H62.072V78.652ZM66.176 86.044V84.868H63.38V86.044H66.176ZM63.38 84.148H66.176V83.044H63.38V84.148ZM63.38 82.324H66.176V81.184H63.38V82.324ZM63.86 86.896L64.424 87.388C63.884 88.108 63.224 88.732 62.444 89.272L61.964 88.66C62.708 88.156 63.344 87.568 63.86 86.896ZM69.116 78.736H74.756V79.504H73.544V81.304H75.02V82.096H73.544V84.736H72.704V82.096H71.132C71 83.332 70.544 84.256 69.752 84.88L69.104 84.316C69.776 83.812 70.172 83.08 70.292 82.096H68.804V81.304H70.34V79.504H69.116V78.736ZM71.168 79.504V81.304H72.704V79.504H71.168ZM75.728 79.012H76.556V83.14H75.728V79.012ZM69.404 85.912H73.616V84.868H74.48V85.912H78.608V86.704H74.48V88.108H79.268V88.9H68.732V88.108H73.616V86.704H69.404V85.912ZM77.768 84.844H76.16L75.98 84.028C76.508 84.064 77 84.088 77.48 84.088C77.756 84.088 77.9 83.896 77.9 83.536V78.352H78.728V83.74C78.728 84.472 78.404 84.844 77.768 84.844ZM80.6 83.164H91.388V84.028H80.6V83.164Z" fill="#8F8F8F"/>
<rect width="160" height="40" transform="translate(40 96)" fill="white"/>
<path d="M71.35 114.07H72.31V115.03H74.74V114.07H75.715V115.03H77.65V115.945H75.715V117.295H78.1V118.225H68.965V117.295H71.35V115.945H69.355V115.03H71.35V114.07ZM72.31 117.295H74.74V115.945H72.31V117.295ZM74.755 118.375C75.865 118.825 76.9 119.365 77.845 120.025L77.32 120.835C76.33 120.085 75.31 119.515 74.26 119.095L74.755 118.375ZM72.055 118.375L72.715 118.96C71.935 119.635 70.975 120.235 69.835 120.745L69.25 119.98C70.36 119.515 71.305 118.975 72.055 118.375ZM65.845 108.955C66.775 109.63 67.555 110.32 68.185 111.01L67.48 111.715C66.91 111.055 66.115 110.365 65.125 109.63L65.845 108.955ZM64.84 112.54H68.215V113.365C67.705 114.25 67.105 115.105 66.415 115.945H68.365V116.65C68.155 117.85 67.915 118.855 67.615 119.65C67.735 119.725 67.87 119.83 68.02 119.965C68.485 120.415 68.965 120.745 69.46 120.97C69.94 121.165 70.615 121.27 71.47 121.285C72.28 121.285 73.225 121.3 74.275 121.3C75.325 121.3 76.69 121.27 78.37 121.225L78.13 122.26H74.41C73.285 122.26 72.28 122.245 71.41 122.215C70.39 122.185 69.61 122.05 69.07 121.81C68.44 121.555 67.885 121.165 67.375 120.625C67.255 120.505 67.12 120.46 67 120.46C66.625 120.46 66.1 121.105 65.41 122.41L64.66 121.72C65.35 120.445 65.995 119.71 66.625 119.515C66.94 118.72 67.18 117.835 67.36 116.845H65.185V116.035C65.92 115.18 66.535 114.34 67.045 113.5H64.84V112.54ZM76.705 110.005H74.77V111.055H76.705V110.005ZM74.77 111.805V112.525C74.77 112.78 74.92 112.915 75.25 112.915H77.875V113.725H74.785C74.155 113.725 73.855 113.455 73.855 112.93V109.225H77.62V111.805H74.77ZM69.385 114.01L69.07 113.32C69.25 113.23 69.355 113.065 69.355 112.84V109.225H73.09V111.82H70.285V113.08C71.245 112.99 72.19 112.87 73.09 112.72L73.3 113.485C72.16 113.665 70.855 113.845 69.385 114.01ZM70.285 111.07H72.175V110.02H70.285V111.07ZM79.84 110.215H84.46V111.265H82.75V118.495C83.395 118.255 84.025 117.97 84.625 117.67V118.705C83.185 119.395 81.64 119.98 79.99 120.43L79.75 119.41C80.41 119.26 81.04 119.095 81.67 118.885V111.265H79.84V110.215ZM85.72 111.52H88.15C88.315 111.115 88.45 110.695 88.54 110.275H85.015V109.315H93.16V110.275H89.59C89.5 110.71 89.38 111.13 89.23 111.52H92.41V119.56H85.72V111.52ZM91.375 118.675V117.1H86.755V118.675H91.375ZM86.755 116.26H91.375V114.73H86.755V116.26ZM86.755 113.875H91.375V112.42H86.755V113.875ZM87.61 119.74L88.33 120.37C87.43 121.195 86.335 121.915 85.045 122.545L84.46 121.78C85.705 121.21 86.755 120.52 87.61 119.74ZM90.37 119.755C91.54 120.43 92.53 121.105 93.34 121.795L92.65 122.5C91.93 121.825 90.955 121.12 89.725 120.37L90.37 119.755ZM102.445 110.29H103.405V121H102.175V111.79C101.5 112.48 100.66 112.96 99.6551 113.26V112.03C100.135 111.895 100.645 111.685 101.155 111.385C101.665 111.055 102.085 110.695 102.445 110.29ZM105.766 116.605H113.341V117.625H105.766V116.605ZM117.548 110.29H118.508V121H117.278V111.79C116.603 112.48 115.763 112.96 114.758 113.26V112.03C115.238 111.895 115.748 111.685 116.258 111.385C116.768 111.055 117.188 110.695 117.548 110.29Z" fill="#161616"/>
<rect width="160" height="40" transform="translate(40 136)" fill="white"/>
<path d="M71.35 154.07H72.31V155.03H74.74V154.07H75.715V155.03H77.65V155.945H75.715V157.295H78.1V158.225H68.965V157.295H71.35V155.945H69.355V155.03H71.35V154.07ZM72.31 157.295H74.74V155.945H72.31V157.295ZM74.755 158.375C75.865 158.825 76.9 159.365 77.845 160.025L77.32 160.835C76.33 160.085 75.31 159.515 74.26 159.095L74.755 158.375ZM72.055 158.375L72.715 158.96C71.935 159.635 70.975 160.235 69.835 160.745L69.25 159.98C70.36 159.515 71.305 158.975 72.055 158.375ZM65.845 148.955C66.775 149.63 67.555 150.32 68.185 151.01L67.48 151.715C66.91 151.055 66.115 150.365 65.125 149.63L65.845 148.955ZM64.84 152.54H68.215V153.365C67.705 154.25 67.105 155.105 66.415 155.945H68.365V156.65C68.155 157.85 67.915 158.855 67.615 159.65C67.735 159.725 67.87 159.83 68.02 159.965C68.485 160.415 68.965 160.745 69.46 160.97C69.94 161.165 70.615 161.27 71.47 161.285C72.28 161.285 73.225 161.3 74.275 161.3C75.325 161.3 76.69 161.27 78.37 161.225L78.13 162.26H74.41C73.285 162.26 72.28 162.245 71.41 162.215C70.39 162.185 69.61 162.05 69.07 161.81C68.44 161.555 67.885 161.165 67.375 160.625C67.255 160.505 67.12 160.46 67 160.46C66.625 160.46 66.1 161.105 65.41 162.41L64.66 161.72C65.35 160.445 65.995 159.71 66.625 159.515C66.94 158.72 67.18 157.835 67.36 156.845H65.185V156.035C65.92 155.18 66.535 154.34 67.045 153.5H64.84V152.54ZM76.705 150.005H74.77V151.055H76.705V150.005ZM74.77 151.805V152.525C74.77 152.78 74.92 152.915 75.25 152.915H77.875V153.725H74.785C74.155 153.725 73.855 153.455 73.855 152.93V149.225H77.62V151.805H74.77ZM69.385 154.01L69.07 153.32C69.25 153.23 69.355 153.065 69.355 152.84V149.225H73.09V151.82H70.285V153.08C71.245 152.99 72.19 152.87 73.09 152.72L73.3 153.485C72.16 153.665 70.855 153.845 69.385 154.01ZM70.285 151.07H72.175V150.02H70.285V151.07ZM79.84 150.215H84.46V151.265H82.75V158.495C83.395 158.255 84.025 157.97 84.625 157.67V158.705C83.185 159.395 81.64 159.98 79.99 160.43L79.75 159.41C80.41 159.26 81.04 159.095 81.67 158.885V151.265H79.84V150.215ZM85.72 151.52H88.15C88.315 151.115 88.45 150.695 88.54 150.275H85.015V149.315H93.16V150.275H89.59C89.5 150.71 89.38 151.13 89.23 151.52H92.41V159.56H85.72V151.52ZM91.375 158.675V157.1H86.755V158.675H91.375ZM86.755 156.26H91.375V154.73H86.755V156.26ZM86.755 153.875H91.375V152.42H86.755V153.875ZM87.61 159.74L88.33 160.37C87.43 161.195 86.335 161.915 85.045 162.545L84.46 161.78C85.705 161.21 86.755 160.52 87.61 159.74ZM90.37 159.755C91.54 160.43 92.53 161.105 93.34 161.795L92.65 162.5C91.93 161.825 90.955 161.12 89.725 160.37L90.37 159.755ZM102.445 150.29H103.405V161H102.175V151.79C101.5 152.48 100.66 152.96 99.6551 153.26V152.03C100.135 151.895 100.645 151.685 101.155 151.385C101.665 151.055 102.085 150.695 102.445 150.29ZM105.766 156.605H113.341V157.625H105.766V156.605ZM118.748 150.08C119.738 150.08 120.548 150.365 121.193 150.935C121.823 151.505 122.153 152.27 122.153 153.2C122.153 154.13 121.793 154.97 121.103 155.72C120.728 156.11 119.993 156.695 118.883 157.445C117.518 158.36 116.738 159.185 116.543 159.905H122.168V161H115.028C115.028 160.025 115.373 159.14 116.093 158.345C116.513 157.865 117.278 157.22 118.418 156.44C119.258 155.84 119.813 155.405 120.098 155.105C120.638 154.52 120.923 153.875 120.923 153.185C120.923 152.525 120.728 152.03 120.338 151.67C119.948 151.31 119.393 151.13 118.703 151.13C117.968 151.13 117.398 151.37 117.008 151.88C116.588 152.36 116.363 153.08 116.348 154.025H115.118C115.118 152.825 115.463 151.865 116.123 151.16C116.783 150.44 117.668 150.08 118.748 150.08Z" fill="#161616"/>
<rect width="160" height="28" transform="translate(40 176)" fill="white"/>
<path d="M56.792 193.42H58.82C58.832 193.288 58.844 193.168 58.844 193.048V191.968H59.648V193.048C59.648 193.18 59.636 193.3 59.624 193.42H61.88V194.14H59.528C59.504 194.224 59.492 194.308 59.468 194.38C60.38 195.064 61.136 195.748 61.76 196.444L61.184 197.02C60.692 196.408 60.044 195.76 59.24 195.076C58.832 195.988 58.148 196.72 57.164 197.26L56.54 196.708C57.704 196.12 58.424 195.268 58.7 194.14H56.792V193.42ZM56.876 188.572H59.012V186.256H59.804V188.572H61.868V189.28H59.804V191.644H59.012V189.28H56.876V188.572ZM61.052 186.4L61.676 186.712C61.448 187.264 61.184 187.732 60.884 188.14L60.32 187.744C60.608 187.36 60.848 186.916 61.052 186.4ZM57.728 186.508C58.016 186.964 58.268 187.444 58.496 187.96L57.884 188.236C57.632 187.66 57.356 187.168 57.056 186.736L57.728 186.508ZM60.704 191.836C61.1 192.268 61.4 192.64 61.616 192.952L61.064 193.336C60.848 192.988 60.536 192.604 60.152 192.184L60.704 191.836ZM58.076 189.772L58.604 190.228C58.172 190.9 57.632 191.476 57.008 191.98L56.552 191.392C57.152 190.924 57.668 190.384 58.076 189.772ZM60.632 189.7C61.16 190.168 61.652 190.672 62.096 191.224L61.628 191.74C61.172 191.14 60.692 190.612 60.2 190.18L60.632 189.7ZM65.636 194.896C66.392 195.472 67.028 196.06 67.532 196.636L66.968 197.188C66.524 196.636 65.912 196.036 65.12 195.412L65.636 194.896ZM62.072 186.652H67.376V187.42H65.168C65.144 187.768 65.108 188.104 65.084 188.44H66.992V194.812H62.564V188.44H64.232C64.268 188.104 64.292 187.768 64.316 187.42H62.072V186.652ZM66.176 194.044V192.868H63.38V194.044H66.176ZM63.38 192.148H66.176V191.044H63.38V192.148ZM63.38 190.324H66.176V189.184H63.38V190.324ZM63.86 194.896L64.424 195.388C63.884 196.108 63.224 196.732 62.444 197.272L61.964 196.66C62.708 196.156 63.344 195.568 63.86 194.896ZM69.116 186.736H74.756V187.504H73.544V189.304H75.02V190.096H73.544V192.736H72.704V190.096H71.132C71 191.332 70.544 192.256 69.752 192.88L69.104 192.316C69.776 191.812 70.172 191.08 70.292 190.096H68.804V189.304H70.34V187.504H69.116V186.736ZM71.168 187.504V189.304H72.704V187.504H71.168ZM75.728 187.012H76.556V191.14H75.728V187.012ZM69.404 193.912H73.616V192.868H74.48V193.912H78.608V194.704H74.48V196.108H79.268V196.9H68.732V196.108H73.616V194.704H69.404V193.912ZM77.768 192.844H76.16L75.98 192.028C76.508 192.064 77 192.088 77.48 192.088C77.756 192.088 77.9 191.896 77.9 191.536V186.352H78.728V191.74C78.728 192.472 78.404 192.844 77.768 192.844ZM81.74 187.528H90.26V188.38H81.74V187.528ZM80.636 195.076H91.352V195.952H80.636V195.076Z" fill="#8F8F8F"/>
<rect width="160" height="40" transform="translate(40 204)" fill="white"/>
<path d="M71.35 222.07H72.31V223.03H74.74V222.07H75.715V223.03H77.65V223.945H75.715V225.295H78.1V226.225H68.965V225.295H71.35V223.945H69.355V223.03H71.35V222.07ZM72.31 225.295H74.74V223.945H72.31V225.295ZM74.755 226.375C75.865 226.825 76.9 227.365 77.845 228.025L77.32 228.835C76.33 228.085 75.31 227.515 74.26 227.095L74.755 226.375ZM72.055 226.375L72.715 226.96C71.935 227.635 70.975 228.235 69.835 228.745L69.25 227.98C70.36 227.515 71.305 226.975 72.055 226.375ZM65.845 216.955C66.775 217.63 67.555 218.32 68.185 219.01L67.48 219.715C66.91 219.055 66.115 218.365 65.125 217.63L65.845 216.955ZM64.84 220.54H68.215V221.365C67.705 222.25 67.105 223.105 66.415 223.945H68.365V224.65C68.155 225.85 67.915 226.855 67.615 227.65C67.735 227.725 67.87 227.83 68.02 227.965C68.485 228.415 68.965 228.745 69.46 228.97C69.94 229.165 70.615 229.27 71.47 229.285C72.28 229.285 73.225 229.3 74.275 229.3C75.325 229.3 76.69 229.27 78.37 229.225L78.13 230.26H74.41C73.285 230.26 72.28 230.245 71.41 230.215C70.39 230.185 69.61 230.05 69.07 229.81C68.44 229.555 67.885 229.165 67.375 228.625C67.255 228.505 67.12 228.46 67 228.46C66.625 228.46 66.1 229.105 65.41 230.41L64.66 229.72C65.35 228.445 65.995 227.71 66.625 227.515C66.94 226.72 67.18 225.835 67.36 224.845H65.185V224.035C65.92 223.18 66.535 222.34 67.045 221.5H64.84V220.54ZM76.705 218.005H74.77V219.055H76.705V218.005ZM74.77 219.805V220.525C74.77 220.78 74.92 220.915 75.25 220.915H77.875V221.725H74.785C74.155 221.725 73.855 221.455 73.855 220.93V217.225H77.62V219.805H74.77ZM69.385 222.01L69.07 221.32C69.25 221.23 69.355 221.065 69.355 220.84V217.225H73.09V219.82H70.285V221.08C71.245 220.99 72.19 220.87 73.09 220.72L73.3 221.485C72.16 221.665 70.855 221.845 69.385 222.01ZM70.285 219.07H72.175V218.02H70.285V219.07ZM79.84 218.215H84.46V219.265H82.75V226.495C83.395 226.255 84.025 225.97 84.625 225.67V226.705C83.185 227.395 81.64 227.98 79.99 228.43L79.75 227.41C80.41 227.26 81.04 227.095 81.67 226.885V219.265H79.84V218.215ZM85.72 219.52H88.15C88.315 219.115 88.45 218.695 88.54 218.275H85.015V217.315H93.16V218.275H89.59C89.5 218.71 89.38 219.13 89.23 219.52H92.41V227.56H85.72V219.52ZM91.375 226.675V225.1H86.755V226.675H91.375ZM86.755 224.26H91.375V222.73H86.755V224.26ZM86.755 221.875H91.375V220.42H86.755V221.875ZM87.61 227.74L88.33 228.37C87.43 229.195 86.335 229.915 85.045 230.545L84.46 229.78C85.705 229.21 86.755 228.52 87.61 227.74ZM90.37 227.755C91.54 228.43 92.53 229.105 93.34 229.795L92.65 230.5C91.93 229.825 90.955 229.12 89.725 228.37L90.37 227.755ZM103.645 218.08C104.635 218.08 105.445 218.365 106.09 218.935C106.72 219.505 107.05 220.27 107.05 221.2C107.05 222.13 106.69 222.97 106 223.72C105.625 224.11 104.89 224.695 103.78 225.445C102.415 226.36 101.635 227.185 101.44 227.905H107.065V229H99.9251C99.9251 228.025 100.27 227.14 100.99 226.345C101.41 225.865 102.175 225.22 103.315 224.44C104.155 223.84 104.71 223.405 104.995 223.105C105.535 222.52 105.82 221.875 105.82 221.185C105.82 220.525 105.625 220.03 105.235 219.67C104.845 219.31 104.29 219.13 103.6 219.13C102.865 219.13 102.295 219.37 101.905 219.88C101.485 220.36 101.26 221.08 101.245 222.025H100.015C100.015 220.825 100.36 219.865 101.02 219.16C101.68 218.44 102.565 218.08 103.645 218.08ZM108.739 224.605H116.314V225.625H108.739V224.605ZM120.521 218.29H121.481V229H120.251V219.79C119.576 220.48 118.736 220.96 117.731 221.26V220.03C118.211 219.895 118.721 219.685 119.231 219.385C119.741 219.055 120.161 218.695 120.521 218.29Z" fill="#161616"/>
<rect width="160" height="40" transform="translate(40 244)" fill="white"/>
<path d="M71.35 262.07H72.31V263.03H74.74V262.07H75.715V263.03H77.65V263.945H75.715V265.295H78.1V266.225H68.965V265.295H71.35V263.945H69.355V263.03H71.35V262.07ZM72.31 265.295H74.74V263.945H72.31V265.295ZM74.755 266.375C75.865 266.825 76.9 267.365 77.845 268.025L77.32 268.835C76.33 268.085 75.31 267.515 74.26 267.095L74.755 266.375ZM72.055 266.375L72.715 266.96C71.935 267.635 70.975 268.235 69.835 268.745L69.25 267.98C70.36 267.515 71.305 266.975 72.055 266.375ZM65.845 256.955C66.775 257.63 67.555 258.32 68.185 259.01L67.48 259.715C66.91 259.055 66.115 258.365 65.125 257.63L65.845 256.955ZM64.84 260.54H68.215V261.365C67.705 262.25 67.105 263.105 66.415 263.945H68.365V264.65C68.155 265.85 67.915 266.855 67.615 267.65C67.735 267.725 67.87 267.83 68.02 267.965C68.485 268.415 68.965 268.745 69.46 268.97C69.94 269.165 70.615 269.27 71.47 269.285C72.28 269.285 73.225 269.3 74.275 269.3C75.325 269.3 76.69 269.27 78.37 269.225L78.13 270.26H74.41C73.285 270.26 72.28 270.245 71.41 270.215C70.39 270.185 69.61 270.05 69.07 269.81C68.44 269.555 67.885 269.165 67.375 268.625C67.255 268.505 67.12 268.46 67 268.46C66.625 268.46 66.1 269.105 65.41 270.41L64.66 269.72C65.35 268.445 65.995 267.71 66.625 267.515C66.94 266.72 67.18 265.835 67.36 264.845H65.185V264.035C65.92 263.18 66.535 262.34 67.045 261.5H64.84V260.54ZM76.705 258.005H74.77V259.055H76.705V258.005ZM74.77 259.805V260.525C74.77 260.78 74.92 260.915 75.25 260.915H77.875V261.725H74.785C74.155 261.725 73.855 261.455 73.855 260.93V257.225H77.62V259.805H74.77ZM69.385 262.01L69.07 261.32C69.25 261.23 69.355 261.065 69.355 260.84V257.225H73.09V259.82H70.285V261.08C71.245 260.99 72.19 260.87 73.09 260.72L73.3 261.485C72.16 261.665 70.855 261.845 69.385 262.01ZM70.285 259.07H72.175V258.02H70.285V259.07ZM79.84 258.215H84.46V259.265H82.75V266.495C83.395 266.255 84.025 265.97 84.625 265.67V266.705C83.185 267.395 81.64 267.98 79.99 268.43L79.75 267.41C80.41 267.26 81.04 267.095 81.67 266.885V259.265H79.84V258.215ZM85.72 259.52H88.15C88.315 259.115 88.45 258.695 88.54 258.275H85.015V257.315H93.16V258.275H89.59C89.5 258.71 89.38 259.13 89.23 259.52H92.41V267.56H85.72V259.52ZM91.375 266.675V265.1H86.755V266.675H91.375ZM86.755 264.26H91.375V262.73H86.755V264.26ZM86.755 261.875H91.375V260.42H86.755V261.875ZM87.61 267.74L88.33 268.37C87.43 269.195 86.335 269.915 85.045 270.545L84.46 269.78C85.705 269.21 86.755 268.52 87.61 267.74ZM90.37 267.755C91.54 268.43 92.53 269.105 93.34 269.795L92.65 270.5C91.93 269.825 90.955 269.12 89.725 268.37L90.37 267.755ZM103.645 258.08C104.635 258.08 105.445 258.365 106.09 258.935C106.72 259.505 107.05 260.27 107.05 261.2C107.05 262.13 106.69 262.97 106 263.72C105.625 264.11 104.89 264.695 103.78 265.445C102.415 266.36 101.635 267.185 101.44 267.905H107.065V269H99.9251C99.9251 268.025 100.27 267.14 100.99 266.345C101.41 265.865 102.175 265.22 103.315 264.44C104.155 263.84 104.71 263.405 104.995 263.105C105.535 262.52 105.82 261.875 105.82 261.185C105.82 260.525 105.625 260.03 105.235 259.67C104.845 259.31 104.29 259.13 103.6 259.13C102.865 259.13 102.295 259.37 101.905 259.88C101.485 260.36 101.26 261.08 101.245 262.025H100.015C100.015 260.825 100.36 259.865 101.02 259.16C101.68 258.44 102.565 258.08 103.645 258.08ZM108.739 264.605H116.314V265.625H108.739V264.605ZM121.721 258.08C122.711 258.08 123.521 258.365 124.166 258.935C124.796 259.505 125.126 260.27 125.126 261.2C125.126 262.13 124.766 262.97 124.076 263.72C123.701 264.11 122.966 264.695 121.856 265.445C120.491 266.36 119.711 267.185 119.516 267.905H125.141V269H118.001C118.001 268.025 118.346 267.14 119.066 266.345C119.486 265.865 120.251 265.22 121.391 264.44C122.231 263.84 122.786 263.405 123.071 263.105C123.611 262.52 123.896 261.875 123.896 261.185C123.896 260.525 123.701 260.03 123.311 259.67C122.921 259.31 122.366 259.13 121.676 259.13C120.941 259.13 120.371 259.37 119.981 259.88C119.561 260.36 119.336 261.08 119.321 262.025H118.091C118.091 260.825 118.436 259.865 119.096 259.16C119.756 258.44 120.641 258.08 121.721 258.08Z" fill="#161616"/>
<rect x="192" y="66" width="6" height="36.6667" rx="3" fill="#E5E5E5"/>
</g>
<path d="M199.5 64.5V287.5H40.5V64.5H199.5Z" stroke="#BCBCBC"/>
<mask id="path-16-inside-2_154_4438" fill="white">
<path d="M0 308H780V354C780 355.105 779.105 356 778 356H1.99998C0.895407 356 0 355.105 0 354V308Z"/>
</mask>
<path d="M0 308H780V354C780 355.105 779.105 356 778 356H1.99998C0.895407 356 0 355.105 0 354V308Z" fill="#E7E7E7"/>
<path d="M0 308H780H0ZM781 354C781 355.657 779.657 357 778 357H2C0.343146 357 -1 355.657 -1 354H1C1 354.552 1.44772 355 2 355H778C778.552 355 779 354.552 779 354H781ZM2 357C0.343146 357 -1 355.657 -1 354V308H1V354C1 354.552 1.44772 355 2 355V357ZM781 308V354C781 355.657 779.657 357 778 357V355C778.552 355 779 354.552 779 354V308H781Z" fill="#D9D9D9" mask="url(#path-16-inside-2_154_4438)"/>
<path fill-rule="evenodd" clip-rule="evenodd" d="M36.0005 336L29 328.98L29.9762 328H29.9781L36.0005 334.041L42.0238 328H42.0258L43 328.979V328.981L36.0005 336Z" fill="#4457CA"/>
<path d="M59.575 335.105C59.575 335.745 59.42 336.29 59.11 336.74C58.8 337.19 58.355 337.54 57.775 337.79C57.195 338.03 56.505 338.15 55.705 338.15C55.315 338.15 54.94 338.125 54.58 338.075C54.22 338.035 53.885 337.975 53.575 337.895C53.265 337.815 52.99 337.715 52.75 337.595V336.065C53.15 336.245 53.62 336.41 54.16 336.56C54.7 336.7 55.25 336.77 55.81 336.77C56.29 336.77 56.69 336.705 57.01 336.575C57.33 336.445 57.57 336.265 57.73 336.035C57.89 335.805 57.97 335.535 57.97 335.225C57.97 334.895 57.885 334.62 57.715 334.4C57.555 334.17 57.3 333.96 56.95 333.77C56.61 333.57 56.15 333.36 55.57 333.14C55.17 332.99 54.805 332.825 54.475 332.645C54.155 332.455 53.87 332.235 53.62 331.985C53.38 331.735 53.195 331.445 53.065 331.115C52.935 330.785 52.87 330.4 52.87 329.96C52.87 329.37 53.015 328.865 53.305 328.445C53.605 328.025 54.015 327.705 54.535 327.485C55.055 327.255 55.66 327.14 56.35 327.14C56.93 327.14 57.465 327.2 57.955 327.32C58.455 327.43 58.93 327.585 59.38 327.785L58.87 329.12C58.46 328.95 58.045 328.81 57.625 328.7C57.205 328.59 56.765 328.535 56.305 328.535C55.905 328.535 55.57 328.595 55.3 328.715C55.03 328.835 54.825 329 54.685 329.21C54.555 329.42 54.49 329.665 54.49 329.945C54.49 330.275 54.565 330.55 54.715 330.77C54.865 330.99 55.105 331.195 55.435 331.385C55.765 331.565 56.2 331.765 56.74 331.985C57.34 332.215 57.85 332.465 58.27 332.735C58.7 333.005 59.025 333.33 59.245 333.71C59.465 334.08 59.575 334.545 59.575 335.105ZM63.0821 329.645C63.0821 329.895 63.0721 330.145 63.0521 330.395C63.0321 330.645 63.0121 330.85 62.9921 331.01H63.0971C63.2671 330.73 63.4771 330.5 63.7271 330.32C63.9871 330.14 64.2721 330.005 64.5821 329.915C64.9021 329.825 65.2271 329.78 65.5571 329.78C66.1971 329.78 66.7321 329.885 67.1621 330.095C67.6021 330.295 67.9321 330.615 68.1521 331.055C68.3821 331.485 68.4971 332.045 68.4971 332.735V338H66.9221V332.96C66.9221 332.33 66.7871 331.86 66.5171 331.55C66.2571 331.23 65.8371 331.07 65.2571 331.07C64.7071 331.07 64.2721 331.18 63.9521 331.4C63.6421 331.62 63.4171 331.945 63.2771 332.375C63.1471 332.795 63.0821 333.315 63.0821 333.935V338H61.4921V326.6H63.0821V329.645ZM78.0653 333.95C78.0653 334.62 77.9753 335.215 77.7953 335.735C77.6153 336.255 77.3603 336.695 77.0303 337.055C76.7003 337.415 76.3003 337.69 75.8303 337.88C75.3603 338.06 74.8303 338.15 74.2403 338.15C73.7003 338.15 73.2003 338.06 72.7403 337.88C72.2803 337.69 71.8803 337.415 71.5403 337.055C71.2103 336.695 70.9503 336.255 70.7603 335.735C70.5703 335.215 70.4753 334.615 70.4753 333.935C70.4753 333.045 70.6253 332.29 70.9253 331.67C71.2353 331.05 71.6753 330.58 72.2453 330.26C72.8253 329.93 73.5053 329.765 74.2853 329.765C75.0253 329.765 75.6753 329.93 76.2353 330.26C76.8053 330.58 77.2503 331.05 77.5703 331.67C77.9003 332.29 78.0653 333.05 78.0653 333.95ZM72.1103 333.95C72.1103 334.55 72.1853 335.07 72.3353 335.51C72.4853 335.94 72.7203 336.27 73.0403 336.5C73.3603 336.73 73.7703 336.845 74.2703 336.845C74.7703 336.845 75.1803 336.73 75.5003 336.5C75.8203 336.27 76.0553 335.94 76.2053 335.51C76.3553 335.07 76.4303 334.55 76.4303 333.95C76.4303 333.33 76.3503 332.81 76.1903 332.39C76.0403 331.97 75.8053 331.65 75.4853 331.43C75.1753 331.2 74.7653 331.085 74.2553 331.085C73.5053 331.085 72.9603 331.335 72.6203 331.835C72.2803 332.335 72.1103 333.04 72.1103 333.95ZM85.248 333.95C85.198 333.75 85.138 333.53 85.068 333.29C85.008 333.05 84.948 332.81 84.888 332.57C84.828 332.32 84.773 332.09 84.723 331.88C84.673 331.67 84.633 331.505 84.603 331.385H84.543C84.523 331.505 84.488 331.67 84.438 331.88C84.398 332.09 84.348 332.32 84.288 332.57C84.228 332.81 84.168 333.055 84.108 333.305C84.048 333.545 83.983 333.765 83.913 333.965L82.713 337.985H80.943L78.708 329.9H80.328L81.378 333.995C81.458 334.275 81.528 334.57 81.588 334.88C81.658 335.19 81.718 335.49 81.768 335.78C81.828 336.06 81.868 336.295 81.888 336.485H81.948C81.968 336.355 81.998 336.195 82.038 336.005C82.078 335.805 82.118 335.6 82.158 335.39C82.208 335.17 82.253 334.96 82.293 334.76C82.343 334.56 82.393 334.395 82.443 334.265L83.733 329.9H85.473L86.733 334.265C86.793 334.465 86.858 334.705 86.928 334.985C86.998 335.255 87.058 335.525 87.108 335.795C87.168 336.055 87.208 336.28 87.228 336.47H87.288C87.308 336.3 87.343 336.08 87.393 335.81C87.443 335.53 87.503 335.23 87.573 334.91C87.653 334.59 87.728 334.285 87.798 333.995L88.878 329.9H90.483L88.218 337.985H86.403L85.248 333.95ZM100.539 328.535C100.009 328.535 99.5341 328.63 99.1141 328.82C98.6941 329 98.3341 329.27 98.0341 329.63C97.7441 329.99 97.5191 330.425 97.3591 330.935C97.2091 331.445 97.1341 332.02 97.1341 332.66C97.1341 333.5 97.2591 334.23 97.5091 334.85C97.7591 335.46 98.1341 335.93 98.6341 336.26C99.1341 336.59 99.7641 336.755 100.524 336.755C100.984 336.755 101.424 336.715 101.844 336.635C102.274 336.545 102.709 336.43 103.149 336.29V337.685C102.729 337.845 102.299 337.96 101.859 338.03C101.419 338.11 100.909 338.15 100.329 338.15C99.2391 338.15 98.3291 337.925 97.5991 337.475C96.8791 337.025 96.3391 336.385 95.9791 335.555C95.6191 334.725 95.4391 333.755 95.4391 332.645C95.4391 331.835 95.5491 331.095 95.7691 330.425C95.9991 329.745 96.3291 329.16 96.7591 328.67C97.1891 328.18 97.7191 327.805 98.3491 327.545C98.9891 327.275 99.7241 327.14 100.554 327.14C101.094 327.14 101.624 327.2 102.144 327.32C102.664 327.43 103.134 327.59 103.554 327.8L102.954 329.15C102.604 328.99 102.224 328.85 101.814 328.73C101.414 328.6 100.989 328.535 100.539 328.535ZM112.401 333.95C112.401 334.62 112.311 335.215 112.131 335.735C111.951 336.255 111.696 336.695 111.366 337.055C111.036 337.415 110.636 337.69 110.166 337.88C109.696 338.06 109.166 338.15 108.576 338.15C108.036 338.15 107.536 338.06 107.076 337.88C106.616 337.69 106.216 337.415 105.876 337.055C105.546 336.695 105.286 336.255 105.096 335.735C104.906 335.215 104.811 334.615 104.811 333.935C104.811 333.045 104.961 332.29 105.261 331.67C105.571 331.05 106.011 330.58 106.581 330.26C107.161 329.93 107.841 329.765 108.621 329.765C109.361 329.765 110.011 329.93 110.571 330.26C111.141 330.58 111.586 331.05 111.906 331.67C112.236 332.29 112.401 333.05 112.401 333.95ZM106.446 333.95C106.446 334.55 106.521 335.07 106.671 335.51C106.821 335.94 107.056 336.27 107.376 336.5C107.696 336.73 108.106 336.845 108.606 336.845C109.106 336.845 109.516 336.73 109.836 336.5C110.156 336.27 110.391 335.94 110.541 335.51C110.691 335.07 110.766 334.55 110.766 333.95C110.766 333.33 110.686 332.81 110.526 332.39C110.376 331.97 110.141 331.65 109.821 331.43C109.511 331.2 109.101 331.085 108.591 331.085C107.841 331.085 107.296 331.335 106.956 331.835C106.616 332.335 106.446 333.04 106.446 333.95ZM117.192 338.15C116.222 338.15 115.437 337.8 114.837 337.1C114.247 336.4 113.952 335.36 113.952 333.98C113.952 332.59 114.252 331.54 114.852 330.83C115.452 330.12 116.242 329.765 117.222 329.765C117.632 329.765 117.987 329.82 118.287 329.93C118.597 330.03 118.862 330.17 119.082 330.35C119.312 330.53 119.507 330.73 119.667 330.95H119.757C119.737 330.81 119.712 330.61 119.682 330.35C119.652 330.08 119.637 329.84 119.637 329.63V326.6H121.227V338H119.982L119.712 336.92H119.637C119.487 337.15 119.297 337.36 119.067 337.55C118.847 337.73 118.582 337.875 118.272 337.985C117.962 338.095 117.602 338.15 117.192 338.15ZM117.567 336.845C118.347 336.845 118.897 336.63 119.217 336.2C119.537 335.76 119.697 335.105 119.697 334.235V333.995C119.697 333.045 119.542 332.32 119.232 331.82C118.932 331.32 118.372 331.07 117.552 331.07C116.902 331.07 116.412 331.335 116.082 331.865C115.752 332.385 115.587 333.1 115.587 334.01C115.587 334.92 115.752 335.62 116.082 336.11C116.412 336.6 116.907 336.845 117.567 336.845ZM126.899 329.765C127.609 329.765 128.219 329.915 128.729 330.215C129.239 330.505 129.629 330.925 129.899 331.475C130.179 332.025 130.319 332.675 130.319 333.425V334.295H124.889C124.909 335.125 125.124 335.76 125.534 336.2C125.954 336.64 126.539 336.86 127.289 336.86C127.809 336.86 128.269 336.815 128.669 336.725C129.079 336.625 129.499 336.48 129.929 336.29V337.61C129.529 337.79 129.119 337.925 128.699 338.015C128.289 338.105 127.799 338.15 127.229 338.15C126.449 338.15 125.759 337.995 125.159 337.685C124.559 337.375 124.089 336.915 123.749 336.305C123.419 335.685 123.254 334.925 123.254 334.025C123.254 333.115 123.404 332.345 123.704 331.715C124.014 331.085 124.439 330.605 124.979 330.275C125.529 329.935 126.169 329.765 126.899 329.765ZM126.899 330.995C126.329 330.995 125.869 331.18 125.519 331.55C125.179 331.92 124.979 332.445 124.919 333.125H128.729C128.729 332.705 128.664 332.335 128.534 332.015C128.404 331.695 128.204 331.445 127.934 331.265C127.664 331.085 127.319 330.995 126.899 330.995Z" fill="#465BC7"/>
<path fill-rule="evenodd" clip-rule="evenodd" d="M700.2 332C700.2 327.546 703.97 324 708.539 324C709.459 324 710.343 324.151 711.168 324.413L711.295 325.816C709.717 326.659 708.675 328.254 708.675 330.056C708.675 332.704 710.934 334.917 713.804 334.917C714.204 334.917 714.599 334.869 714.98 334.783L715.8 335.917C714.368 338.362 711.644 340 708.535 340C703.97 340 700.2 336.454 700.2 332ZM708.539 325.528C704.734 325.528 701.72 328.463 701.72 332C701.72 335.537 704.735 338.472 708.535 338.472C710.496 338.472 712.254 337.686 713.491 336.438C709.997 336.282 707.155 333.518 707.155 330.056C707.155 328.29 707.901 326.701 709.093 325.55C708.91 325.536 708.725 325.528 708.539 325.528Z" fill="#4457CA"/>
<path d="M756 336.418H753.851V340H740V326.149H743.582V324H756V336.418ZM741.433 327.582V338.567H752.418V336.418H743.582V327.582H741.433ZM745.082 334.918H754.5V325.5H745.082V334.918Z" fill="#4457CA"/>
<defs>
<clipPath id="clip0_154_4438">
<path d="M40 64H200V288H40V64Z" fill="white"/>
</clipPath>
</defs>
</svg>
