<svg width="835" height="380" viewBox="0 0 835 380" fill="none" xmlns="http://www.w3.org/2000/svg">
<mask id="path-1-inside-1_91_2161" fill="white">
<path d="M0 2C0 0.895427 0.895431 0 2 0H455V380H2C0.89543 380 0 379.105 0 378V2Z"/>
</mask>
<path d="M0 2C0 0.895427 0.895431 0 2 0H455V380H2C0.89543 380 0 379.105 0 378V2Z" fill="white"/>
<path d="M-1 2C-1 0.343146 0.343146 -1 2 -1H455V1H2C1.44772 1 1 1.44772 1 2H-1ZM455 381H2C0.343146 381 -1 379.657 -1 378H1C1 378.552 1.44772 379 2 379H455V381ZM2 381C0.343146 381 -1 379.657 -1 378V2C-1 0.343146 0.343146 -1 2 -1V1C1.44772 1 1 1.44772 1 2V378C1 378.552 1.44772 379 2 379V381ZM455 0V380V0Z" fill="#D9D9D9" mask="url(#path-1-inside-1_91_2161)"/>
<circle cx="44" cy="160" r="12" fill="#465BC7"/>
<path d="M44.3627 155.718H45.4287V165H44.0117V157.421C43.4527 157.954 42.7377 158.344 41.8797 158.591V157.187C42.2957 157.083 42.7247 156.901 43.1927 156.641C43.6607 156.355 44.0507 156.056 44.3627 155.718Z" fill="white"/>
<path d="M70.825 152.67H72.265V154.365H76.72V155.73H72.265V157.44H78.205V158.82H72.37V163.215H70.945V158.82H64.795V157.44H66.925V153.84H68.365V157.44H70.825V152.67ZM75.79 159.705L77.08 160.395C75.19 164.535 71.545 166.62 66.145 166.635L65.62 165.27C70.81 165.27 74.2 163.41 75.79 159.705ZM68.275 159.3L69.28 160.185C68.41 161.58 67.33 162.795 66.04 163.815L65.14 162.66C66.37 161.7 67.42 160.575 68.275 159.3ZM85.555 153.195H89.89V154.23H89.41V159.84H88.36V158.94C87.52 159.09 86.575 159.225 85.555 159.345L85.405 158.295C85.645 158.265 85.87 158.25 86.095 158.22V154.23H85.555V153.195ZM87.145 158.1L88.36 157.92V157.32H87.145V158.1ZM87.145 156.51H88.36V155.775H87.145V156.51ZM87.145 154.98H88.36V154.23H87.145V154.98ZM88.765 161.34C87.925 161.4 87.01 161.445 86.05 161.445L85.66 160.32C88.3 160.32 90.52 160.065 92.32 159.555L92.92 160.575C92.065 160.845 91.09 161.055 90.01 161.205V164.94C90.64 164.1 91.075 163.02 91.3 161.7L92.395 161.88C92.305 162.405 92.185 162.9 92.05 163.365C92.425 163.905 92.905 164.43 93.505 164.91L92.83 165.99C92.35 165.555 91.945 165.075 91.585 164.565C91.315 165.135 90.985 165.645 90.625 166.065L90.01 165.285V166.545H88.765V161.34ZM90.43 155.055C90.805 155.415 91.165 155.76 91.51 156.12C91.69 155.64 91.855 155.145 91.975 154.605H90.13V153.465H93.085V154.395C92.905 155.37 92.65 156.24 92.32 157.005C92.755 157.485 93.145 157.98 93.505 158.46L92.635 159.315C92.365 158.91 92.08 158.505 91.75 158.1C91.45 158.58 91.09 159.015 90.7 159.39L89.98 158.445C90.37 158.07 90.7 157.65 90.985 157.17C90.58 156.72 90.145 156.255 89.665 155.775L90.43 155.055ZM81.31 156.585V157.53H82.465V156.585H81.31ZM81.31 158.67V159.69H82.465V158.67H81.31ZM83.71 159.69H85.375C85.375 163.02 85.24 164.97 85 165.525C84.76 166.08 84.295 166.365 83.605 166.365C83.275 166.365 82.945 166.35 82.6 166.35L82.315 165.12C82.69 165.165 83.05 165.195 83.38 165.195C83.8 165.195 84.055 164.91 84.13 164.34C84.145 164.175 84.16 163.98 84.175 163.74L83.62 163.95C83.47 163.11 83.305 162.3 83.11 161.49L83.725 161.325C83.92 162.105 84.07 162.81 84.19 163.455C84.22 162.81 84.235 161.955 84.235 160.89H80.08V153.21H85.195V154.425H83.71V155.43H84.94V156.585H83.71V157.53H84.94V158.67H83.71V159.69ZM82.465 154.425H81.31V155.43H82.465V154.425ZM79.99 161.595L80.815 161.805C80.68 163.335 80.515 164.685 80.335 165.84L79.48 165.54C79.69 164.49 79.855 163.185 79.99 161.595ZM81.775 161.61C81.895 162.495 81.97 163.71 82 165.24L81.22 165.33C81.19 163.77 81.145 162.555 81.085 161.685L81.775 161.61ZM82.75 161.505C82.945 162.24 83.08 163.245 83.14 164.52L82.435 164.61C82.375 163.305 82.27 162.3 82.12 161.58L82.75 161.505ZM86.935 164.655C86.65 165.195 86.32 165.66 85.945 166.05L85.135 165.06C85.915 164.28 86.44 163.215 86.74 161.895L87.805 162.09C87.685 162.645 87.55 163.155 87.385 163.605C87.835 163.95 88.27 164.34 88.66 164.79L87.985 165.81C87.625 165.36 87.28 164.97 86.935 164.655ZM94.705 158.79H108.28V160.2H94.705V158.79Z" fill="#161616"/>
<rect x="117" y="159" width="64" height="1" fill="#D9D9D9"/>
<circle cx="201" cy="160" r="12" fill="#E5E5E5"/>
<path d="M201.146 155.536C202.03 155.536 202.771 155.783 203.343 156.303C203.902 156.823 204.188 157.486 204.188 158.305C204.188 159.111 203.876 159.839 203.278 160.502C202.914 160.879 202.277 161.373 201.354 161.997C200.353 162.66 199.755 163.245 199.56 163.752H204.201V165H197.805C197.805 164.077 198.104 163.271 198.728 162.569C199.066 162.166 199.768 161.607 200.821 160.879C201.445 160.437 201.887 160.086 202.147 159.813C202.563 159.345 202.784 158.838 202.784 158.292C202.784 157.772 202.641 157.382 202.355 157.122C202.069 156.862 201.64 156.732 201.094 156.732C200.509 156.732 200.067 156.927 199.768 157.33C199.456 157.72 199.3 158.279 199.274 159.033H197.857C197.87 157.993 198.169 157.161 198.754 156.537C199.352 155.861 200.158 155.536 201.146 155.536Z" fill="#BCBCBC"/>
<path d="M227.825 152.67H229.265V154.365H233.72V155.73H229.265V157.44H235.205V158.82H229.37V163.215H227.945V158.82H221.795V157.44H223.925V153.84H225.365V157.44H227.825V152.67ZM232.79 159.705L234.08 160.395C232.19 164.535 228.545 166.62 223.145 166.635L222.62 165.27C227.81 165.27 231.2 163.41 232.79 159.705ZM225.275 159.3L226.28 160.185C225.41 161.58 224.33 162.795 223.04 163.815L222.14 162.66C223.37 161.7 224.42 160.575 225.275 159.3ZM242.555 153.195H246.89V154.23H246.41V159.84H245.36V158.94C244.52 159.09 243.575 159.225 242.555 159.345L242.405 158.295C242.645 158.265 242.87 158.25 243.095 158.22V154.23H242.555V153.195ZM244.145 158.1L245.36 157.92V157.32H244.145V158.1ZM244.145 156.51H245.36V155.775H244.145V156.51ZM244.145 154.98H245.36V154.23H244.145V154.98ZM245.765 161.34C244.925 161.4 244.01 161.445 243.05 161.445L242.66 160.32C245.3 160.32 247.52 160.065 249.32 159.555L249.92 160.575C249.065 160.845 248.09 161.055 247.01 161.205V164.94C247.64 164.1 248.075 163.02 248.3 161.7L249.395 161.88C249.305 162.405 249.185 162.9 249.05 163.365C249.425 163.905 249.905 164.43 250.505 164.91L249.83 165.99C249.35 165.555 248.945 165.075 248.585 164.565C248.315 165.135 247.985 165.645 247.625 166.065L247.01 165.285V166.545H245.765V161.34ZM247.43 155.055C247.805 155.415 248.165 155.76 248.51 156.12C248.69 155.64 248.855 155.145 248.975 154.605H247.13V153.465H250.085V154.395C249.905 155.37 249.65 156.24 249.32 157.005C249.755 157.485 250.145 157.98 250.505 158.46L249.635 159.315C249.365 158.91 249.08 158.505 248.75 158.1C248.45 158.58 248.09 159.015 247.7 159.39L246.98 158.445C247.37 158.07 247.7 157.65 247.985 157.17C247.58 156.72 247.145 156.255 246.665 155.775L247.43 155.055ZM238.31 156.585V157.53H239.465V156.585H238.31ZM238.31 158.67V159.69H239.465V158.67H238.31ZM240.71 159.69H242.375C242.375 163.02 242.24 164.97 242 165.525C241.76 166.08 241.295 166.365 240.605 166.365C240.275 166.365 239.945 166.35 239.6 166.35L239.315 165.12C239.69 165.165 240.05 165.195 240.38 165.195C240.8 165.195 241.055 164.91 241.13 164.34C241.145 164.175 241.16 163.98 241.175 163.74L240.62 163.95C240.47 163.11 240.305 162.3 240.11 161.49L240.725 161.325C240.92 162.105 241.07 162.81 241.19 163.455C241.22 162.81 241.235 161.955 241.235 160.89H237.08V153.21H242.195V154.425H240.71V155.43H241.94V156.585H240.71V157.53H241.94V158.67H240.71V159.69ZM239.465 154.425H238.31V155.43H239.465V154.425ZM236.99 161.595L237.815 161.805C237.68 163.335 237.515 164.685 237.335 165.84L236.48 165.54C236.69 164.49 236.855 163.185 236.99 161.595ZM238.775 161.61C238.895 162.495 238.97 163.71 239 165.24L238.22 165.33C238.19 163.77 238.145 162.555 238.085 161.685L238.775 161.61ZM239.75 161.505C239.945 162.24 240.08 163.245 240.14 164.52L239.435 164.61C239.375 163.305 239.27 162.3 239.12 161.58L239.75 161.505ZM243.935 164.655C243.65 165.195 243.32 165.66 242.945 166.05L242.135 165.06C242.915 164.28 243.44 163.215 243.74 161.895L244.805 162.09C244.685 162.645 244.55 163.155 244.385 163.605C244.835 163.95 245.27 164.34 245.66 164.79L244.985 165.81C244.625 165.36 244.28 164.97 243.935 164.655ZM253.13 154.245H263.87V155.64H253.13V154.245ZM251.75 163.68H265.235V165.105H251.75V163.68Z" fill="#BCBCBC"/>
<rect x="274" y="159" width="64" height="1" fill="#D9D9D9"/>
<circle cx="358" cy="160" r="12" fill="#E5E5E5"/>
<path d="M358.094 155.536C359.03 155.536 359.771 155.757 360.343 156.212C360.889 156.667 361.175 157.291 361.175 158.084C361.175 159.098 360.655 159.787 359.641 160.125C360.187 160.294 360.603 160.554 360.889 160.892C361.201 161.243 361.357 161.698 361.357 162.244C361.357 163.102 361.058 163.804 360.473 164.35C359.849 164.896 359.03 165.182 358.042 165.182C357.093 165.182 356.326 164.935 355.754 164.454C355.104 163.908 354.74 163.115 354.662 162.075H356.092C356.118 162.699 356.313 163.18 356.703 163.518C357.041 163.83 357.483 163.986 358.029 163.986C358.627 163.986 359.108 163.804 359.472 163.466C359.784 163.154 359.953 162.777 359.953 162.309C359.953 161.763 359.784 161.36 359.446 161.1C359.134 160.84 358.666 160.71 358.055 160.71H357.379V159.644H358.042C358.614 159.644 359.043 159.514 359.329 159.267C359.615 159.02 359.771 158.656 359.771 158.188C359.771 157.72 359.628 157.369 359.368 157.122C359.082 156.862 358.653 156.745 358.107 156.745C357.548 156.745 357.106 156.888 356.794 157.174C356.482 157.46 356.287 157.889 356.235 158.461H354.844C354.922 157.538 355.26 156.823 355.871 156.303C356.443 155.783 357.184 155.536 358.094 155.536Z" fill="#BCBCBC"/>
<path d="M384.825 152.67H386.265V154.365H390.72V155.73H386.265V157.44H392.205V158.82H386.37V163.215H384.945V158.82H378.795V157.44H380.925V153.84H382.365V157.44H384.825V152.67ZM389.79 159.705L391.08 160.395C389.19 164.535 385.545 166.62 380.145 166.635L379.62 165.27C384.81 165.27 388.2 163.41 389.79 159.705ZM382.275 159.3L383.28 160.185C382.41 161.58 381.33 162.795 380.04 163.815L379.14 162.66C380.37 161.7 381.42 160.575 382.275 159.3ZM399.555 153.195H403.89V154.23H403.41V159.84H402.36V158.94C401.52 159.09 400.575 159.225 399.555 159.345L399.405 158.295C399.645 158.265 399.87 158.25 400.095 158.22V154.23H399.555V153.195ZM401.145 158.1L402.36 157.92V157.32H401.145V158.1ZM401.145 156.51H402.36V155.775H401.145V156.51ZM401.145 154.98H402.36V154.23H401.145V154.98ZM402.765 161.34C401.925 161.4 401.01 161.445 400.05 161.445L399.66 160.32C402.3 160.32 404.52 160.065 406.32 159.555L406.92 160.575C406.065 160.845 405.09 161.055 404.01 161.205V164.94C404.64 164.1 405.075 163.02 405.3 161.7L406.395 161.88C406.305 162.405 406.185 162.9 406.05 163.365C406.425 163.905 406.905 164.43 407.505 164.91L406.83 165.99C406.35 165.555 405.945 165.075 405.585 164.565C405.315 165.135 404.985 165.645 404.625 166.065L404.01 165.285V166.545H402.765V161.34ZM404.43 155.055C404.805 155.415 405.165 155.76 405.51 156.12C405.69 155.64 405.855 155.145 405.975 154.605H404.13V153.465H407.085V154.395C406.905 155.37 406.65 156.24 406.32 157.005C406.755 157.485 407.145 157.98 407.505 158.46L406.635 159.315C406.365 158.91 406.08 158.505 405.75 158.1C405.45 158.58 405.09 159.015 404.7 159.39L403.98 158.445C404.37 158.07 404.7 157.65 404.985 157.17C404.58 156.72 404.145 156.255 403.665 155.775L404.43 155.055ZM395.31 156.585V157.53H396.465V156.585H395.31ZM395.31 158.67V159.69H396.465V158.67H395.31ZM397.71 159.69H399.375C399.375 163.02 399.24 164.97 399 165.525C398.76 166.08 398.295 166.365 397.605 166.365C397.275 166.365 396.945 166.35 396.6 166.35L396.315 165.12C396.69 165.165 397.05 165.195 397.38 165.195C397.8 165.195 398.055 164.91 398.13 164.34C398.145 164.175 398.16 163.98 398.175 163.74L397.62 163.95C397.47 163.11 397.305 162.3 397.11 161.49L397.725 161.325C397.92 162.105 398.07 162.81 398.19 163.455C398.22 162.81 398.235 161.955 398.235 160.89H394.08V153.21H399.195V154.425H397.71V155.43H398.94V156.585H397.71V157.53H398.94V158.67H397.71V159.69ZM396.465 154.425H395.31V155.43H396.465V154.425ZM393.99 161.595L394.815 161.805C394.68 163.335 394.515 164.685 394.335 165.84L393.48 165.54C393.69 164.49 393.855 163.185 393.99 161.595ZM395.775 161.61C395.895 162.495 395.97 163.71 396 165.24L395.22 165.33C395.19 163.77 395.145 162.555 395.085 161.685L395.775 161.61ZM396.75 161.505C396.945 162.24 397.08 163.245 397.14 164.52L396.435 164.61C396.375 163.305 396.27 162.3 396.12 161.58L396.75 161.505ZM400.935 164.655C400.65 165.195 400.32 165.66 399.945 166.05L399.135 165.06C399.915 164.28 400.44 163.215 400.74 161.895L401.805 162.09C401.685 162.645 401.55 163.155 401.385 163.605C401.835 163.95 402.27 164.34 402.66 164.79L401.985 165.81C401.625 165.36 401.28 164.97 400.935 164.655ZM409.8 153.735H421.23V155.13H409.8V153.735ZM410.805 158.88H420.21V160.275H410.805V158.88ZM408.705 164.415H422.295V165.84H408.705V164.415Z" fill="#BCBCBC"/>
<rect width="52" height="24" transform="translate(26.5 212)" fill="#465BC7"/>
<path d="M39.8324 219.718H43.6804C45.8904 219.718 46.9954 220.654 46.9954 222.539C46.9954 224.437 45.8774 225.386 43.6544 225.386H41.2494V229H39.8324V219.718ZM41.2494 220.927V224.177H43.5634C44.2654 224.177 44.7724 224.047 45.0974 223.787C45.4094 223.527 45.5784 223.111 45.5784 222.539C45.5784 221.967 45.4094 221.551 45.0844 221.317C44.7594 221.057 44.2524 220.927 43.5634 220.927H41.2494ZM51.3028 222.097C51.6408 222.097 51.9398 222.149 52.1738 222.266V223.644C51.8358 223.54 51.5108 223.501 51.1988 223.501C50.7828 223.501 50.4058 223.67 50.0808 224.008C49.7298 224.372 49.5608 224.853 49.5608 225.438V229H48.1828V222.279H49.5608V223.293C49.7298 222.929 49.9508 222.656 50.2108 222.474C50.5228 222.214 50.8868 222.097 51.3028 222.097ZM55.8667 222.097C56.9587 222.097 57.8037 222.461 58.3757 223.215C58.8957 223.891 59.1687 224.827 59.1817 226.023H54.0857C54.1377 226.673 54.3067 227.18 54.6187 227.531C54.9307 227.869 55.3597 228.051 55.9057 228.051C56.3867 228.051 56.7767 227.934 57.0757 227.713C57.3097 227.531 57.5047 227.232 57.6867 226.842H59.0647C58.9087 227.466 58.6097 227.999 58.1417 228.415C57.5567 228.922 56.8157 229.182 55.9187 229.182C54.9307 229.182 54.1377 228.87 53.5657 228.259C52.9417 227.609 52.6297 226.738 52.6297 225.633C52.6297 224.632 52.9157 223.8 53.5137 223.124C54.0857 222.435 54.8787 222.097 55.8667 222.097ZM55.9057 223.228C55.3857 223.228 54.9827 223.371 54.6707 223.683C54.3847 223.982 54.1897 224.411 54.1117 224.983H57.7387C57.6087 223.813 56.9977 223.228 55.9057 223.228ZM59.6426 222.279H61.1376L62.8276 227.284L64.5176 222.279H66.0126L63.5166 229H62.1386L59.6426 222.279Z" fill="white"/>
<rect width="53" height="24" transform="translate(90.5 212)" fill="#465BC7"/>
<path d="M103.717 219.718H105.147L109.892 226.621H109.944V219.718H111.361V229H109.983L105.186 222.019H105.134V229H103.717V219.718ZM115.904 222.097C116.996 222.097 117.841 222.461 118.413 223.215C118.933 223.891 119.206 224.827 119.219 226.023H114.123C114.175 226.673 114.344 227.18 114.656 227.531C114.968 227.869 115.397 228.051 115.943 228.051C116.424 228.051 116.814 227.934 117.113 227.713C117.347 227.531 117.542 227.232 117.724 226.842H119.102C118.946 227.466 118.647 227.999 118.179 228.415C117.594 228.922 116.853 229.182 115.956 229.182C114.968 229.182 114.175 228.87 113.603 228.259C112.979 227.609 112.667 226.738 112.667 225.633C112.667 224.632 112.953 223.8 113.551 223.124C114.123 222.435 114.916 222.097 115.904 222.097ZM115.943 223.228C115.423 223.228 115.02 223.371 114.708 223.683C114.422 223.982 114.227 224.411 114.149 224.983H117.776C117.646 223.813 117.035 223.228 115.943 223.228ZM119.979 222.279H121.591L123.073 224.411L124.542 222.279H126.154L123.827 225.425L126.44 229H124.828L123.073 226.439L121.305 229H119.68L122.306 225.425L119.979 222.279ZM129.33 220.108V222.279H130.864V223.423H129.33V227.323C129.33 227.505 129.369 227.635 129.447 227.726C129.525 227.804 129.642 227.856 129.811 227.856H130.695V229H129.59C129.018 229 128.589 228.844 128.329 228.545C128.069 228.259 127.952 227.856 127.952 227.323V223.423H126.704V222.279H127.952V220.68L129.33 220.108Z" fill="white"/>
<mask id="path-16-inside-2_91_2161" fill="white">
<path d="M455 0H833C834.105 0 835 0.895431 835 2V378C835 379.105 834.105 380 833 380H455V0Z"/>
</mask>
<path d="M455 0H833C834.105 0 835 0.895431 835 2V378C835 379.105 834.105 380 833 380H455V0Z" fill="#F5F5F5"/>
<path d="M455 0V-1H454V0H455ZM455 380H454V381H455V380ZM455 0V1H833V0V-1H455V0ZM835 2H834V378H835H836V2H835ZM833 380V379H455V380V381H833V380ZM455 380H456V0H455H454V380H455ZM835 378H834C834 378.552 833.552 379 833 379V380V381C834.657 381 836 379.657 836 378H835ZM833 0V1C833.552 1 834 1.44771 834 2H835H836C836 0.343148 834.657 -1 833 -1V0Z" fill="#D9D9D9" mask="url(#path-16-inside-2_91_2161)"/>
<path d="M485.526 32.517C485.526 33.0717 485.392 33.544 485.123 33.934C484.854 34.3153 484.469 34.61 483.966 34.818C483.472 35.026 482.887 35.13 482.211 35.13C481.864 35.13 481.531 35.1127 481.21 35.078C480.898 35.0433 480.612 34.9957 480.352 34.935C480.092 34.8657 479.862 34.7833 479.663 34.688V33.57C479.975 33.7087 480.361 33.8343 480.82 33.947C481.288 34.0597 481.769 34.116 482.263 34.116C482.722 34.116 483.108 34.0553 483.42 33.934C483.732 33.8127 483.966 33.6393 484.122 33.414C484.278 33.1887 484.356 32.9243 484.356 32.621C484.356 32.3177 484.291 32.062 484.161 31.854C484.031 31.646 483.806 31.4553 483.485 31.282C483.173 31.1 482.735 30.9093 482.172 30.71C481.773 30.5627 481.422 30.4067 481.119 30.242C480.824 30.0687 480.577 29.8737 480.378 29.657C480.179 29.4403 480.027 29.1933 479.923 28.916C479.828 28.6387 479.78 28.318 479.78 27.954C479.78 27.46 479.906 27.0397 480.157 26.693C480.408 26.3377 480.755 26.0647 481.197 25.874C481.648 25.6833 482.163 25.588 482.744 25.588C483.255 25.588 483.723 25.6357 484.148 25.731C484.573 25.8263 484.958 25.952 485.305 26.108L484.941 27.109C484.62 26.9703 484.269 26.8533 483.888 26.758C483.515 26.6627 483.125 26.615 482.718 26.615C482.328 26.615 482.003 26.6713 481.743 26.784C481.483 26.8967 481.288 27.057 481.158 27.265C481.028 27.4643 480.963 27.6983 480.963 27.967C480.963 28.279 481.028 28.539 481.158 28.747C481.288 28.955 481.5 29.1413 481.795 29.306C482.09 29.4707 482.488 29.6483 482.991 29.839C483.537 30.0383 483.996 30.255 484.369 30.489C484.75 30.7143 485.036 30.9873 485.227 31.308C485.426 31.6287 485.526 32.0317 485.526 32.517ZM489.567 34.194C489.74 34.194 489.918 34.181 490.1 34.155C490.282 34.1203 490.429 34.0857 490.542 34.051V34.922C490.42 34.9827 490.247 35.0303 490.022 35.065C489.796 35.1083 489.58 35.13 489.372 35.13C489.008 35.13 488.67 35.0693 488.358 34.948C488.054 34.818 487.807 34.597 487.617 34.285C487.426 33.973 487.331 33.5353 487.331 32.972V28.916H486.343V28.37L487.344 27.915L487.799 26.433H488.475V28.032H490.49V28.916H488.475V32.946C488.475 33.3707 488.574 33.687 488.774 33.895C488.982 34.0943 489.246 34.194 489.567 34.194ZM494.628 27.902C495.226 27.902 495.737 28.032 496.162 28.292C496.595 28.552 496.925 28.9203 497.15 29.397C497.384 29.865 497.501 30.4153 497.501 31.048V31.737H492.73C492.747 32.5257 492.947 33.128 493.328 33.544C493.718 33.9513 494.26 34.155 494.953 34.155C495.395 34.155 495.785 34.116 496.123 34.038C496.47 33.9513 496.825 33.83 497.189 33.674V34.675C496.834 34.831 496.483 34.9437 496.136 35.013C495.789 35.091 495.378 35.13 494.901 35.13C494.242 35.13 493.657 34.9957 493.146 34.727C492.643 34.4583 492.249 34.0597 491.963 33.531C491.686 32.9937 491.547 32.3393 491.547 31.568C491.547 30.8053 491.673 30.151 491.924 29.605C492.184 29.059 492.544 28.6387 493.003 28.344C493.471 28.0493 494.013 27.902 494.628 27.902ZM494.615 28.838C494.069 28.838 493.636 29.0157 493.315 29.371C493.003 29.7177 492.817 30.203 492.756 30.827H496.305C496.305 30.4283 496.244 30.0817 496.123 29.787C496.002 29.4923 495.815 29.2627 495.564 29.098C495.321 28.9247 495.005 28.838 494.615 28.838ZM502.59 27.902C503.448 27.902 504.137 28.201 504.657 28.799C505.186 29.397 505.45 30.2983 505.45 31.503C505.45 32.2917 505.329 32.959 505.086 33.505C504.852 34.0423 504.518 34.4497 504.085 34.727C503.66 34.9957 503.158 35.13 502.577 35.13C502.222 35.13 501.905 35.0823 501.628 34.987C501.351 34.8917 501.112 34.7703 500.913 34.623C500.722 34.467 500.558 34.298 500.419 34.116H500.341C500.358 34.2633 500.376 34.4497 500.393 34.675C500.41 34.9003 500.419 35.0953 500.419 35.26V38.12H499.275V28.032H500.211L500.367 28.981H500.419C500.558 28.7817 500.722 28.5997 500.913 28.435C501.112 28.2703 501.346 28.1403 501.615 28.045C501.892 27.9497 502.217 27.902 502.59 27.902ZM502.382 28.864C501.914 28.864 501.537 28.955 501.251 29.137C500.965 29.3103 500.757 29.5747 500.627 29.93C500.497 30.2853 500.428 30.736 500.419 31.282V31.503C500.419 32.075 500.48 32.5603 500.601 32.959C500.722 33.3577 500.926 33.661 501.212 33.869C501.507 34.077 501.905 34.181 502.408 34.181C502.833 34.181 503.179 34.064 503.448 33.83C503.725 33.596 503.929 33.2797 504.059 32.881C504.198 32.4737 504.267 32.01 504.267 31.49C504.267 30.6927 504.111 30.0557 503.799 29.579C503.496 29.1023 503.023 28.864 502.382 28.864ZM514.784 26.615C514.29 26.615 513.844 26.7017 513.445 26.875C513.046 27.0397 512.708 27.2867 512.431 27.616C512.154 27.9367 511.941 28.331 511.794 28.799C511.647 29.2583 511.573 29.7783 511.573 30.359C511.573 31.1217 511.69 31.7847 511.924 32.348C512.167 32.9113 512.522 33.3447 512.99 33.648C513.467 33.9513 514.06 34.103 514.771 34.103C515.178 34.103 515.564 34.0683 515.928 33.999C516.292 33.9297 516.647 33.843 516.994 33.739V34.753C516.647 34.883 516.288 34.9783 515.915 35.039C515.551 35.0997 515.113 35.13 514.602 35.13C513.657 35.13 512.869 34.935 512.236 34.545C511.603 34.155 511.127 33.6003 510.806 32.881C510.494 32.1617 510.338 31.3167 510.338 30.346C510.338 29.644 510.433 29.0027 510.624 28.422C510.823 27.8413 511.109 27.3387 511.482 26.914C511.863 26.4893 512.331 26.1643 512.886 25.939C513.441 25.705 514.078 25.588 514.797 25.588C515.274 25.588 515.733 25.6357 516.175 25.731C516.617 25.8263 517.011 25.9607 517.358 26.134L516.89 27.122C516.604 26.992 516.283 26.875 515.928 26.771C515.581 26.667 515.2 26.615 514.784 26.615ZM524.922 31.503C524.922 32.0837 524.844 32.5993 524.688 33.05C524.54 33.492 524.324 33.869 524.038 34.181C523.76 34.493 523.418 34.7313 523.011 34.896C522.612 35.052 522.166 35.13 521.672 35.13C521.212 35.13 520.788 35.052 520.398 34.896C520.008 34.7313 519.67 34.493 519.384 34.181C519.098 33.869 518.872 33.492 518.708 33.05C518.552 32.5993 518.474 32.0837 518.474 31.503C518.474 30.7317 518.604 30.0817 518.864 29.553C519.124 29.0157 519.496 28.6083 519.982 28.331C520.467 28.045 521.043 27.902 521.711 27.902C522.343 27.902 522.898 28.045 523.375 28.331C523.86 28.6083 524.237 29.0157 524.506 29.553C524.783 30.0817 524.922 30.7317 524.922 31.503ZM519.657 31.503C519.657 32.049 519.726 32.5257 519.865 32.933C520.012 33.3317 520.237 33.6393 520.541 33.856C520.844 34.0727 521.23 34.181 521.698 34.181C522.166 34.181 522.551 34.0727 522.855 33.856C523.158 33.6393 523.379 33.3317 523.518 32.933C523.665 32.5257 523.739 32.049 523.739 31.503C523.739 30.9483 523.665 30.476 523.518 30.086C523.37 29.696 523.145 29.397 522.842 29.189C522.547 28.9723 522.161 28.864 521.685 28.864C520.974 28.864 520.458 29.098 520.138 29.566C519.817 30.034 519.657 30.6797 519.657 31.503ZM532.559 28.032V35H531.623L531.454 34.077H531.402C531.255 34.3197 531.064 34.519 530.83 34.675C530.596 34.831 530.34 34.9437 530.063 35.013C529.786 35.091 529.495 35.13 529.192 35.13C528.637 35.13 528.169 35.0433 527.788 34.87C527.415 34.688 527.134 34.4107 526.943 34.038C526.752 33.6653 526.657 33.1843 526.657 32.595V28.032H527.814V32.517C527.814 33.0717 527.94 33.4877 528.191 33.765C528.442 34.0423 528.832 34.181 529.361 34.181C529.881 34.181 530.288 34.0857 530.583 33.895C530.886 33.6957 531.099 33.4097 531.22 33.037C531.35 32.6557 531.415 32.1963 531.415 31.659V28.032H532.559ZM538.125 27.902C538.957 27.902 539.585 28.1057 540.01 28.513C540.435 28.9117 540.647 29.5617 540.647 30.463V35H539.516V30.541C539.516 29.9777 539.39 29.5573 539.139 29.28C538.888 29.0027 538.493 28.864 537.956 28.864C537.185 28.864 536.652 29.0807 536.357 29.514C536.062 29.9473 535.915 30.5713 535.915 31.386V35H534.771V28.032H535.694L535.863 28.981H535.928C536.084 28.7383 536.275 28.539 536.5 28.383C536.734 28.2183 536.99 28.097 537.267 28.019C537.544 27.941 537.83 27.902 538.125 27.902ZM545.134 34.194C545.307 34.194 545.485 34.181 545.667 34.155C545.849 34.1203 545.996 34.0857 546.109 34.051V34.922C545.988 34.9827 545.814 35.0303 545.589 35.065C545.364 35.1083 545.147 35.13 544.939 35.13C544.575 35.13 544.237 35.0693 543.925 34.948C543.622 34.818 543.375 34.597 543.184 34.285C542.993 33.973 542.898 33.5353 542.898 32.972V28.916H541.91V28.37L542.911 27.915L543.366 26.433H544.042V28.032H546.057V28.916H544.042V32.946C544.042 33.3707 544.142 33.687 544.341 33.895C544.549 34.0943 544.813 34.194 545.134 34.194Z" fill="#161616"/>
<path d="M610.5 48.5V71.5H479.5V48.5H610.5Z" fill="white"/>
<path d="M610.5 48.5V71.5H479.5V48.5H610.5Z" stroke="#D9D9D9"/>
<rect x="486.333" y="59.5" width="9.33333" height="1" fill="#8F8F8F"/>
<path d="M545.094 55.536C545.978 55.536 546.706 55.757 547.252 56.212C547.785 56.667 548.058 57.278 548.058 58.058C548.058 59.098 547.551 59.8 546.537 60.138C547.083 60.307 547.499 60.567 547.785 60.931C548.097 61.295 548.253 61.75 548.253 62.296C548.253 63.141 547.954 63.83 547.369 64.363C546.771 64.909 545.991 65.182 545.029 65.182C544.145 65.182 543.43 64.948 542.871 64.506C542.208 63.96 541.844 63.167 541.766 62.127H542.845C542.871 62.855 543.118 63.414 543.573 63.791C543.963 64.103 544.444 64.272 545.029 64.272C545.692 64.272 546.225 64.077 546.628 63.7C546.992 63.336 547.187 62.881 547.187 62.335C547.187 61.776 547.005 61.347 546.641 61.035C546.277 60.723 545.783 60.58 545.133 60.58H544.379V59.748H545.094C545.718 59.748 546.186 59.605 546.511 59.332C546.836 59.046 547.005 58.643 547.005 58.123C547.005 57.603 546.836 57.2 546.524 56.914C546.186 56.602 545.705 56.459 545.107 56.459C544.483 56.459 544.002 56.615 543.651 56.953C543.287 57.291 543.079 57.772 543.014 58.396H541.961C542.039 57.499 542.377 56.797 542.949 56.29C543.495 55.783 544.21 55.536 545.094 55.536Z" fill="#161616"/>
<path d="M599.5 59.5005H603.666V60.5005H599.5V64.6665H598.5V60.5005H594.333V59.5005H598.5V55.3335H599.5V59.5005Z" fill="#8F8F8F"/>
</svg>
