<svg width="840" height="380" viewBox="0 0 840 380" fill="none" xmlns="http://www.w3.org/2000/svg">
<mask id="path-1-inside-1_100_2558" fill="white">
<path d="M0 2C0 0.895427 0.89543 0 2 0H460V380H1.99999C0.895419 380 0 379.105 0 378V2Z"/>
</mask>
<path d="M0 2C0 0.895427 0.89543 0 2 0H460V380H1.99999C0.895419 380 0 379.105 0 378V2Z" fill="white"/>
<path d="M-1 2C-1 0.343146 0.343146 -1 2 -1H460V1H2C1.44772 1 1 1.44772 1 2H-1ZM460 381H2C0.343146 381 -1 379.657 -1 378H1C1 378.552 1.44772 379 2 379H460V381ZM2 381C0.343146 381 -1 379.657 -1 378V2C-1 0.343146 0.343146 -1 2 -1V1C1.44772 1 1 1.44772 1 2V378C1 378.552 1.44772 379 2 379V381ZM460 0V380V0Z" fill="#D9D9D9" mask="url(#path-1-inside-1_100_2558)"/>
<mask id="path-3-inside-2_100_2558" fill="white">
<path d="M16 166H444V214H16V166Z"/>
</mask>
<path d="M444 214V212H16V214V216H444V214Z" fill="#D9D9D9" mask="url(#path-3-inside-2_100_2558)"/>
<mask id="path-5-inside-3_100_2558" fill="white">
<path d="M16 166H444V214H16V166Z"/>
</mask>
<path d="M444 214V212H16V214V216H444V214Z" fill="#D9D9D9" mask="url(#path-5-inside-3_100_2558)"/>
<mask id="path-7-inside-4_100_2558" fill="white">
<path d="M16 166H76V214H16V166Z"/>
</mask>
<path d="M76 214V212H16V214V216H76V214Z" fill="#465BC7" mask="url(#path-7-inside-4_100_2558)"/>
<path d="M22.78 186.525H17.335V185.13H22.78C22.54 184.395 22.255 183.69 21.925 183.015L23.305 182.64C23.68 183.54 23.965 184.365 24.175 185.115L24.13 185.13H29.68V186.525H24.22V189.645H28.96V190.98H24.22V194.64H30.205V196.035H16.81V194.64H22.78V190.98H18.055V189.645H22.78V186.525ZM33.775 185.625H31.735V184.26H37.24V185.625H35.2V192.09C35.95 191.865 36.685 191.625 37.42 191.355V192.78C35.695 193.395 33.865 193.92 31.915 194.34L31.555 192.9C32.305 192.78 33.04 192.63 33.775 192.465V185.625ZM39.79 182.745H41.23V185.655H44.995C44.995 190.545 44.92 193.575 44.77 194.73C44.575 195.855 43.705 196.425 42.175 196.425C41.905 196.425 41.425 196.395 40.75 196.35L40.405 195.015C41.005 195.06 41.515 195.09 41.935 195.09C42.805 195.09 43.3 194.745 43.435 194.07C43.525 193.365 43.57 191.025 43.6 187.035H41.23V187.08C41.17 191.43 40 194.625 37.72 196.665L36.55 195.63C38.68 193.86 39.76 191.01 39.79 187.08V187.035H37.525V185.655H39.79V182.745ZM54.475 182.925H55.885V184.53L59.65 184.26V185.55L55.885 185.835V187.575C55.885 187.905 56.05 188.07 56.395 188.07H59.965V189.375H55.975C54.97 189.375 54.475 188.895 54.475 187.935V182.925ZM52.285 183.765C53.155 184.965 53.83 186 54.295 186.87L53.155 187.665C53.005 187.365 52.84 187.05 52.66 186.75C51.1 186.99 49.225 187.17 47.035 187.305L46.645 186.105C46.9 186.03 47.11 185.91 47.29 185.76C48.19 184.725 48.895 183.705 49.39 182.685L50.755 183.09C50.125 184.305 49.42 185.28 48.64 186.03C49.705 185.97 50.83 185.865 52.03 185.715C51.76 185.31 51.49 184.89 51.19 184.47L52.285 183.765ZM58.48 196.32H55.99C54.97 196.32 54.46 195.855 54.46 194.94V189.885H55.87V191.295L59.725 191.025V192.33L55.87 192.6V194.64C55.87 194.91 56.035 195.045 56.38 195.045H58.225C58.465 195.045 58.63 194.97 58.735 194.835C58.855 194.655 58.945 194.145 58.99 193.305L60.28 193.725C60.16 194.985 59.965 195.735 59.695 195.975C59.44 196.2 59.035 196.32 58.48 196.32ZM51.58 190.635L51.145 191.685C50.635 191.565 50.125 191.475 49.6 191.385L48.88 191.265V191.685C48.88 192.075 48.85 192.435 48.82 192.795C49.9 192.69 50.95 192.54 51.955 192.33V189.195H48.88V190.2C49.435 190.26 49.87 190.32 50.185 190.38C50.545 190.44 51.01 190.515 51.58 190.635ZM48.805 192.885C48.67 194.355 48.295 195.585 47.665 196.575L46.585 195.6C47.185 194.595 47.485 193.32 47.5 191.79V187.965H53.32V195.36C53.32 196.11 52.87 196.485 51.985 196.485H50.65L50.29 195.165C50.74 195.21 51.175 195.24 51.58 195.24C51.82 195.24 51.955 195.12 51.955 194.88V193.47C51.04 193.68 50.08 193.86 49.09 194.01L48.805 192.885ZM61.705 188.79H75.28V190.2H61.705V188.79Z" fill="#465BC7"/>
<path d="M114.78 186.525H109.335V185.13H114.78C114.54 184.395 114.255 183.69 113.925 183.015L115.305 182.64C115.68 183.54 115.965 184.365 116.175 185.115L116.13 185.13H121.68V186.525H116.22V189.645H120.96V190.98H116.22V194.64H122.205V196.035H108.81V194.64H114.78V190.98H110.055V189.645H114.78V186.525ZM125.775 185.625H123.735V184.26H129.24V185.625H127.2V192.09C127.95 191.865 128.685 191.625 129.42 191.355V192.78C127.695 193.395 125.865 193.92 123.915 194.34L123.555 192.9C124.305 192.78 125.04 192.63 125.775 192.465V185.625ZM131.79 182.745H133.23V185.655H136.995C136.995 190.545 136.92 193.575 136.77 194.73C136.575 195.855 135.705 196.425 134.175 196.425C133.905 196.425 133.425 196.395 132.75 196.35L132.405 195.015C133.005 195.06 133.515 195.09 133.935 195.09C134.805 195.09 135.3 194.745 135.435 194.07C135.525 193.365 135.57 191.025 135.6 187.035H133.23V187.08C133.17 191.43 132 194.625 129.72 196.665L128.55 195.63C130.68 193.86 131.76 191.01 131.79 187.08V187.035H129.525V185.655H131.79V182.745ZM146.475 182.925H147.885V184.53L151.65 184.26V185.55L147.885 185.835V187.575C147.885 187.905 148.05 188.07 148.395 188.07H151.965V189.375H147.975C146.97 189.375 146.475 188.895 146.475 187.935V182.925ZM144.285 183.765C145.155 184.965 145.83 186 146.295 186.87L145.155 187.665C145.005 187.365 144.84 187.05 144.66 186.75C143.1 186.99 141.225 187.17 139.035 187.305L138.645 186.105C138.9 186.03 139.11 185.91 139.29 185.76C140.19 184.725 140.895 183.705 141.39 182.685L142.755 183.09C142.125 184.305 141.42 185.28 140.64 186.03C141.705 185.97 142.83 185.865 144.03 185.715C143.76 185.31 143.49 184.89 143.19 184.47L144.285 183.765ZM150.48 196.32H147.99C146.97 196.32 146.46 195.855 146.46 194.94V189.885H147.87V191.295L151.725 191.025V192.33L147.87 192.6V194.64C147.87 194.91 148.035 195.045 148.38 195.045H150.225C150.465 195.045 150.63 194.97 150.735 194.835C150.855 194.655 150.945 194.145 150.99 193.305L152.28 193.725C152.16 194.985 151.965 195.735 151.695 195.975C151.44 196.2 151.035 196.32 150.48 196.32ZM143.58 190.635L143.145 191.685C142.635 191.565 142.125 191.475 141.6 191.385L140.88 191.265V191.685C140.88 192.075 140.85 192.435 140.82 192.795C141.9 192.69 142.95 192.54 143.955 192.33V189.195H140.88V190.2C141.435 190.26 141.87 190.32 142.185 190.38C142.545 190.44 143.01 190.515 143.58 190.635ZM140.805 192.885C140.67 194.355 140.295 195.585 139.665 196.575L138.585 195.6C139.185 194.595 139.485 193.32 139.5 191.79V187.965H145.32V195.36C145.32 196.11 144.87 196.485 143.985 196.485H142.65L142.29 195.165C142.74 195.21 143.175 195.24 143.58 195.24C143.82 195.24 143.955 195.12 143.955 194.88V193.47C143.04 193.68 142.08 193.86 141.09 194.01L140.805 192.885ZM155.13 184.245H165.87V185.64H155.13V184.245ZM153.75 193.68H167.235V195.105H153.75V193.68Z" fill="#8F8F8F"/>
<path d="M206.78 186.525H201.335V185.13H206.78C206.54 184.395 206.255 183.69 205.925 183.015L207.305 182.64C207.68 183.54 207.965 184.365 208.175 185.115L208.13 185.13H213.68V186.525H208.22V189.645H212.96V190.98H208.22V194.64H214.205V196.035H200.81V194.64H206.78V190.98H202.055V189.645H206.78V186.525ZM217.775 185.625H215.735V184.26H221.24V185.625H219.2V192.09C219.95 191.865 220.685 191.625 221.42 191.355V192.78C219.695 193.395 217.865 193.92 215.915 194.34L215.555 192.9C216.305 192.78 217.04 192.63 217.775 192.465V185.625ZM223.79 182.745H225.23V185.655H228.995C228.995 190.545 228.92 193.575 228.77 194.73C228.575 195.855 227.705 196.425 226.175 196.425C225.905 196.425 225.425 196.395 224.75 196.35L224.405 195.015C225.005 195.06 225.515 195.09 225.935 195.09C226.805 195.09 227.3 194.745 227.435 194.07C227.525 193.365 227.57 191.025 227.6 187.035H225.23V187.08C225.17 191.43 224 194.625 221.72 196.665L220.55 195.63C222.68 193.86 223.76 191.01 223.79 187.08V187.035H221.525V185.655H223.79V182.745ZM238.475 182.925H239.885V184.53L243.65 184.26V185.55L239.885 185.835V187.575C239.885 187.905 240.05 188.07 240.395 188.07H243.965V189.375H239.975C238.97 189.375 238.475 188.895 238.475 187.935V182.925ZM236.285 183.765C237.155 184.965 237.83 186 238.295 186.87L237.155 187.665C237.005 187.365 236.84 187.05 236.66 186.75C235.1 186.99 233.225 187.17 231.035 187.305L230.645 186.105C230.9 186.03 231.11 185.91 231.29 185.76C232.19 184.725 232.895 183.705 233.39 182.685L234.755 183.09C234.125 184.305 233.42 185.28 232.64 186.03C233.705 185.97 234.83 185.865 236.03 185.715C235.76 185.31 235.49 184.89 235.19 184.47L236.285 183.765ZM242.48 196.32H239.99C238.97 196.32 238.46 195.855 238.46 194.94V189.885H239.87V191.295L243.725 191.025V192.33L239.87 192.6V194.64C239.87 194.91 240.035 195.045 240.38 195.045H242.225C242.465 195.045 242.63 194.97 242.735 194.835C242.855 194.655 242.945 194.145 242.99 193.305L244.28 193.725C244.16 194.985 243.965 195.735 243.695 195.975C243.44 196.2 243.035 196.32 242.48 196.32ZM235.58 190.635L235.145 191.685C234.635 191.565 234.125 191.475 233.6 191.385L232.88 191.265V191.685C232.88 192.075 232.85 192.435 232.82 192.795C233.9 192.69 234.95 192.54 235.955 192.33V189.195H232.88V190.2C233.435 190.26 233.87 190.32 234.185 190.38C234.545 190.44 235.01 190.515 235.58 190.635ZM232.805 192.885C232.67 194.355 232.295 195.585 231.665 196.575L230.585 195.6C231.185 194.595 231.485 193.32 231.5 191.79V187.965H237.32V195.36C237.32 196.11 236.87 196.485 235.985 196.485H234.65L234.29 195.165C234.74 195.21 235.175 195.24 235.58 195.24C235.82 195.24 235.955 195.12 235.955 194.88V193.47C235.04 193.68 234.08 193.86 233.09 194.01L232.805 192.885ZM246.8 183.735H258.23V185.13H246.8V183.735ZM247.805 188.88H257.21V190.275H247.805V188.88ZM245.705 194.415H259.295V195.84H245.705V194.415Z" fill="#8F8F8F"/>
<path d="M298.78 186.525H293.335V185.13H298.78C298.54 184.395 298.255 183.69 297.925 183.015L299.305 182.64C299.68 183.54 299.965 184.365 300.175 185.115L300.13 185.13H305.68V186.525H300.22V189.645H304.96V190.98H300.22V194.64H306.205V196.035H292.81V194.64H298.78V190.98H294.055V189.645H298.78V186.525ZM309.775 185.625H307.735V184.26H313.24V185.625H311.2V192.09C311.95 191.865 312.685 191.625 313.42 191.355V192.78C311.695 193.395 309.865 193.92 307.915 194.34L307.555 192.9C308.305 192.78 309.04 192.63 309.775 192.465V185.625ZM315.79 182.745H317.23V185.655H320.995C320.995 190.545 320.92 193.575 320.77 194.73C320.575 195.855 319.705 196.425 318.175 196.425C317.905 196.425 317.425 196.395 316.75 196.35L316.405 195.015C317.005 195.06 317.515 195.09 317.935 195.09C318.805 195.09 319.3 194.745 319.435 194.07C319.525 193.365 319.57 191.025 319.6 187.035H317.23V187.08C317.17 191.43 316 194.625 313.72 196.665L312.55 195.63C314.68 193.86 315.76 191.01 315.79 187.08V187.035H313.525V185.655H315.79V182.745ZM330.475 182.925H331.885V184.53L335.65 184.26V185.55L331.885 185.835V187.575C331.885 187.905 332.05 188.07 332.395 188.07H335.965V189.375H331.975C330.97 189.375 330.475 188.895 330.475 187.935V182.925ZM328.285 183.765C329.155 184.965 329.83 186 330.295 186.87L329.155 187.665C329.005 187.365 328.84 187.05 328.66 186.75C327.1 186.99 325.225 187.17 323.035 187.305L322.645 186.105C322.9 186.03 323.11 185.91 323.29 185.76C324.19 184.725 324.895 183.705 325.39 182.685L326.755 183.09C326.125 184.305 325.42 185.28 324.64 186.03C325.705 185.97 326.83 185.865 328.03 185.715C327.76 185.31 327.49 184.89 327.19 184.47L328.285 183.765ZM334.48 196.32H331.99C330.97 196.32 330.46 195.855 330.46 194.94V189.885H331.87V191.295L335.725 191.025V192.33L331.87 192.6V194.64C331.87 194.91 332.035 195.045 332.38 195.045H334.225C334.465 195.045 334.63 194.97 334.735 194.835C334.855 194.655 334.945 194.145 334.99 193.305L336.28 193.725C336.16 194.985 335.965 195.735 335.695 195.975C335.44 196.2 335.035 196.32 334.48 196.32ZM327.58 190.635L327.145 191.685C326.635 191.565 326.125 191.475 325.6 191.385L324.88 191.265V191.685C324.88 192.075 324.85 192.435 324.82 192.795C325.9 192.69 326.95 192.54 327.955 192.33V189.195H324.88V190.2C325.435 190.26 325.87 190.32 326.185 190.38C326.545 190.44 327.01 190.515 327.58 190.635ZM324.805 192.885C324.67 194.355 324.295 195.585 323.665 196.575L322.585 195.6C323.185 194.595 323.485 193.32 323.5 191.79V187.965H329.32V195.36C329.32 196.11 328.87 196.485 327.985 196.485H326.65L326.29 195.165C326.74 195.21 327.175 195.24 327.58 195.24C327.82 195.24 327.955 195.12 327.955 194.88V193.47C327.04 193.68 326.08 193.86 325.09 194.01L324.805 192.885ZM350.8 183.555V196.32H349.36V195.555H339.64V196.32H338.2V183.555H350.8ZM339.64 194.28H349.36V184.845H346.78V190.245C346.78 190.515 346.96 190.65 347.32 190.65H348.955V191.94H346.9C345.91 191.94 345.415 191.49 345.415 190.59V184.845H343.525V187.92C343.495 190.05 342.64 191.595 340.975 192.57L339.88 191.61C341.365 190.83 342.115 189.6 342.145 187.92V184.845H339.64V194.28Z" fill="#8F8F8F"/>
<path d="M390.78 186.525H385.335V185.13H390.78C390.54 184.395 390.255 183.69 389.925 183.015L391.305 182.64C391.68 183.54 391.965 184.365 392.175 185.115L392.13 185.13H397.68V186.525H392.22V189.645H396.96V190.98H392.22V194.64H398.205V196.035H384.81V194.64H390.78V190.98H386.055V189.645H390.78V186.525ZM401.775 185.625H399.735V184.26H405.24V185.625H403.2V192.09C403.95 191.865 404.685 191.625 405.42 191.355V192.78C403.695 193.395 401.865 193.92 399.915 194.34L399.555 192.9C400.305 192.78 401.04 192.63 401.775 192.465V185.625ZM407.79 182.745H409.23V185.655H412.995C412.995 190.545 412.92 193.575 412.77 194.73C412.575 195.855 411.705 196.425 410.175 196.425C409.905 196.425 409.425 196.395 408.75 196.35L408.405 195.015C409.005 195.06 409.515 195.09 409.935 195.09C410.805 195.09 411.3 194.745 411.435 194.07C411.525 193.365 411.57 191.025 411.6 187.035H409.23V187.08C409.17 191.43 408 194.625 405.72 196.665L404.55 195.63C406.68 193.86 407.76 191.01 407.79 187.08V187.035H405.525V185.655H407.79V182.745ZM422.475 182.925H423.885V184.53L427.65 184.26V185.55L423.885 185.835V187.575C423.885 187.905 424.05 188.07 424.395 188.07H427.965V189.375H423.975C422.97 189.375 422.475 188.895 422.475 187.935V182.925ZM420.285 183.765C421.155 184.965 421.83 186 422.295 186.87L421.155 187.665C421.005 187.365 420.84 187.05 420.66 186.75C419.1 186.99 417.225 187.17 415.035 187.305L414.645 186.105C414.9 186.03 415.11 185.91 415.29 185.76C416.19 184.725 416.895 183.705 417.39 182.685L418.755 183.09C418.125 184.305 417.42 185.28 416.64 186.03C417.705 185.97 418.83 185.865 420.03 185.715C419.76 185.31 419.49 184.89 419.19 184.47L420.285 183.765ZM426.48 196.32H423.99C422.97 196.32 422.46 195.855 422.46 194.94V189.885H423.87V191.295L427.725 191.025V192.33L423.87 192.6V194.64C423.87 194.91 424.035 195.045 424.38 195.045H426.225C426.465 195.045 426.63 194.97 426.735 194.835C426.855 194.655 426.945 194.145 426.99 193.305L428.28 193.725C428.16 194.985 427.965 195.735 427.695 195.975C427.44 196.2 427.035 196.32 426.48 196.32ZM419.58 190.635L419.145 191.685C418.635 191.565 418.125 191.475 417.6 191.385L416.88 191.265V191.685C416.88 192.075 416.85 192.435 416.82 192.795C417.9 192.69 418.95 192.54 419.955 192.33V189.195H416.88V190.2C417.435 190.26 417.87 190.32 418.185 190.38C418.545 190.44 419.01 190.515 419.58 190.635ZM416.805 192.885C416.67 194.355 416.295 195.585 415.665 196.575L414.585 195.6C415.185 194.595 415.485 193.32 415.5 191.79V187.965H421.32V195.36C421.32 196.11 420.87 196.485 419.985 196.485H418.65L418.29 195.165C418.74 195.21 419.175 195.24 419.58 195.24C419.82 195.24 419.955 195.12 419.955 194.88V193.47C419.04 193.68 418.08 193.86 417.09 194.01L416.805 192.885ZM431.13 188.13H434.46L435.15 184.845H430.365V183.465H442.65V184.845H436.59L435.9 188.13H440.88V194.565H443.22V195.96H429.795V194.565H433.11L434.175 189.51H431.13V188.13ZM434.535 194.565H439.425V189.51H435.6L434.535 194.565Z" fill="#8F8F8F"/>
<rect width="40" height="40" transform="translate(326 170)" fill="#F5F5F5"/>
<path fill-rule="evenodd" clip-rule="evenodd" d="M350 190L342.98 183L342 183.976V183.978L348.041 190L342 196.024V196.026L342.979 197H342.981L350 190Z" fill="#8F8F8F"/>
<path d="M443.5 170.5V209.5H366.5V170.5H443.5Z" fill="#F5F5F5"/>
<path d="M443.5 170.5V209.5H366.5V170.5H443.5Z" stroke="#465BC7"/>
<path d="M386.354 184.29H388.214L392.339 195H390.584L389.579 192.24H384.974L383.969 195H382.229L386.354 184.29ZM385.469 190.89H389.084L387.314 186.045H387.254L385.469 190.89ZM396.686 187.035C397.676 187.035 398.471 187.26 399.071 187.71C399.671 188.19 400.061 188.91 400.211 189.87H398.636C398.531 189.345 398.321 188.955 397.991 188.715C397.661 188.46 397.226 188.34 396.686 188.34C396.026 188.34 395.516 188.58 395.141 189.075C394.751 189.555 394.571 190.245 394.571 191.115C394.571 191.985 394.751 192.675 395.126 193.17C395.471 193.65 395.981 193.905 396.671 193.905C397.856 193.905 398.516 193.305 398.666 192.135H400.241C400.061 193.17 399.656 193.95 399.056 194.46C398.456 194.955 397.646 195.21 396.656 195.21C395.471 195.21 394.556 194.82 393.896 194.04C393.251 193.29 392.936 192.33 392.936 191.13C392.936 189.96 393.251 189 393.881 188.25C394.556 187.44 395.486 187.035 396.686 187.035ZM403.956 184.74V187.245H405.726V188.565H403.956V193.065C403.956 193.275 404.001 193.425 404.091 193.53C404.181 193.62 404.316 193.68 404.511 193.68H405.531V195H404.256C403.596 195 403.101 194.82 402.801 194.475C402.501 194.145 402.366 193.68 402.366 193.065V188.565H400.926V187.245H402.366V185.4L403.956 184.74ZM408.131 184.14C408.446 184.14 408.716 184.23 408.926 184.44C409.136 184.635 409.241 184.89 409.241 185.205C409.241 185.52 409.121 185.775 408.911 185.985C408.701 186.18 408.431 186.285 408.131 186.285C407.816 186.285 407.561 186.18 407.351 185.985C407.141 185.775 407.036 185.505 407.036 185.205C407.036 184.89 407.141 184.635 407.351 184.44C407.561 184.23 407.816 184.14 408.131 184.14ZM407.336 187.245H408.926V195H407.336V187.245ZM414.648 187.035C415.818 187.035 416.763 187.425 417.468 188.205C418.158 188.97 418.518 189.945 418.518 191.13C418.518 192.3 418.173 193.275 417.483 194.025C416.763 194.805 415.818 195.21 414.648 195.21C413.478 195.21 412.533 194.805 411.813 194.025C411.123 193.275 410.778 192.3 410.778 191.13C410.778 189.945 411.123 188.97 411.828 188.205C412.533 187.425 413.478 187.035 414.648 187.035ZM414.648 188.34C413.913 188.34 413.343 188.625 412.938 189.21C412.578 189.705 412.413 190.35 412.413 191.13C412.413 191.91 412.578 192.54 412.938 193.035C413.343 193.605 413.913 193.905 414.648 193.905C415.383 193.905 415.953 193.605 416.373 193.035C416.733 192.525 416.913 191.895 416.913 191.13C416.913 190.35 416.733 189.705 416.373 189.21C415.953 188.625 415.383 188.34 414.648 188.34ZM423.958 187.035C425.878 187.035 426.853 188.085 426.853 190.215V195H425.263V190.35C425.263 189.03 424.648 188.37 423.448 188.37C422.998 188.37 422.593 188.52 422.263 188.85C421.903 189.21 421.678 189.705 421.618 190.335V195H420.028V187.245H421.618V188.205C421.918 187.815 422.263 187.53 422.653 187.335C423.043 187.125 423.478 187.035 423.958 187.035Z" fill="#465BC7"/>
<mask id="path-17-inside-5_100_2558" fill="white">
<path d="M460 0H838C839.105 0 840 0.895431 840 2V378C840 379.105 839.105 380 838 380H460V0Z"/>
</mask>
<path d="M460 0H838C839.105 0 840 0.895431 840 2V378C840 379.105 839.105 380 838 380H460V0Z" fill="#F5F5F5"/>
<path d="M460 0V-1H459V0H460ZM460 380H459V381H460V380ZM460 0V1H838V0V-1H460V0ZM840 2H839V378H840H841V2H840ZM838 380V379H460V380V381H838V380ZM460 380H461V0H460H459V380H460ZM840 378H839C839 378.552 838.552 379 838 379V380V381C839.657 381 841 379.657 841 378H840ZM838 0V1C838.552 1 839 1.44771 839 2H840H841C841 0.343148 839.657 -1 838 -1V0Z" fill="#D9D9D9" mask="url(#path-17-inside-5_100_2558)"/>
<path d="M488.199 35H487.029V26.745H484.13V25.718H491.085V26.745H488.199V35ZM493.927 27.915C494.776 27.915 495.404 28.1013 495.812 28.474C496.219 28.8467 496.423 29.4403 496.423 30.255V35H495.591L495.37 34.012H495.318C495.118 34.2633 494.91 34.4757 494.694 34.649C494.486 34.8137 494.243 34.935 493.966 35.013C493.697 35.091 493.368 35.13 492.978 35.13C492.562 35.13 492.185 35.0563 491.847 34.909C491.517 34.7617 491.257 34.5363 491.067 34.233C490.876 33.921 490.781 33.531 490.781 33.063C490.781 32.3697 491.054 31.8367 491.6 31.464C492.146 31.0827 492.986 30.8747 494.122 30.84L495.305 30.801V30.385C495.305 29.8043 495.179 29.4013 494.928 29.176C494.676 28.9507 494.321 28.838 493.862 28.838C493.498 28.838 493.151 28.8943 492.822 29.007C492.492 29.111 492.185 29.2323 491.899 29.371L491.548 28.513C491.851 28.3483 492.211 28.2097 492.627 28.097C493.043 27.9757 493.476 27.915 493.927 27.915ZM494.265 31.633C493.398 31.6677 492.796 31.8063 492.458 32.049C492.128 32.2917 491.964 32.634 491.964 33.076C491.964 33.466 492.081 33.752 492.315 33.934C492.557 34.116 492.865 34.207 493.238 34.207C493.827 34.207 494.317 34.0467 494.707 33.726C495.097 33.3967 495.292 32.894 495.292 32.218V31.594L494.265 31.633ZM499.719 27.525C499.719 27.8197 499.71 28.097 499.693 28.357C499.684 28.6083 499.671 28.8077 499.654 28.955H499.719C499.918 28.6603 500.191 28.4133 500.538 28.214C500.884 28.0147 501.331 27.915 501.877 27.915C502.743 27.915 503.437 28.2183 503.957 28.825C504.485 29.423 504.75 30.32 504.75 31.516C504.75 32.3133 504.628 32.9807 504.386 33.518C504.152 34.0553 503.818 34.4583 503.385 34.727C502.951 34.9957 502.449 35.13 501.877 35.13C501.331 35.13 500.884 35.0303 500.538 34.831C500.191 34.6317 499.918 34.3933 499.719 34.116H499.628L499.394 35H498.575V25.12H499.719V27.525ZM501.682 28.864C501.188 28.864 500.798 28.9593 500.512 29.15C500.226 29.332 500.022 29.618 499.901 30.008C499.779 30.3893 499.719 30.879 499.719 31.477V31.529C499.719 32.387 499.857 33.0457 500.135 33.505C500.421 33.9557 500.945 34.181 501.708 34.181C502.332 34.181 502.795 33.9513 503.099 33.492C503.411 33.0327 503.567 32.3697 503.567 31.503C503.567 30.6277 503.411 29.969 503.099 29.527C502.795 29.085 502.323 28.864 501.682 28.864ZM514.084 26.615C513.59 26.615 513.143 26.7017 512.745 26.875C512.346 27.0397 512.008 27.2867 511.731 27.616C511.453 27.9367 511.241 28.331 511.094 28.799C510.946 29.2583 510.873 29.7783 510.873 30.359C510.873 31.1217 510.99 31.7847 511.224 32.348C511.466 32.9113 511.822 33.3447 512.29 33.648C512.766 33.9513 513.36 34.103 514.071 34.103C514.478 34.103 514.864 34.0683 515.228 33.999C515.592 33.9297 515.947 33.843 516.294 33.739V34.753C515.947 34.883 515.587 34.9783 515.215 35.039C514.851 35.0997 514.413 35.13 513.902 35.13C512.957 35.13 512.168 34.935 511.536 34.545C510.903 34.155 510.426 33.6003 510.106 32.881C509.794 32.1617 509.638 31.3167 509.638 30.346C509.638 29.644 509.733 29.0027 509.924 28.422C510.123 27.8413 510.409 27.3387 510.782 26.914C511.163 26.4893 511.631 26.1643 512.186 25.939C512.74 25.705 513.377 25.588 514.097 25.588C514.573 25.588 515.033 25.6357 515.475 25.731C515.917 25.8263 516.311 25.9607 516.658 26.134L516.19 27.122C515.904 26.992 515.583 26.875 515.228 26.771C514.881 26.667 514.5 26.615 514.084 26.615ZM524.222 31.503C524.222 32.0837 524.144 32.5993 523.988 33.05C523.84 33.492 523.624 33.869 523.338 34.181C523.06 34.493 522.718 34.7313 522.311 34.896C521.912 35.052 521.466 35.13 520.972 35.13C520.512 35.13 520.088 35.052 519.698 34.896C519.308 34.7313 518.97 34.493 518.684 34.181C518.398 33.869 518.172 33.492 518.008 33.05C517.852 32.5993 517.774 32.0837 517.774 31.503C517.774 30.7317 517.904 30.0817 518.164 29.553C518.424 29.0157 518.796 28.6083 519.282 28.331C519.767 28.045 520.343 27.902 521.011 27.902C521.643 27.902 522.198 28.045 522.675 28.331C523.16 28.6083 523.537 29.0157 523.806 29.553C524.083 30.0817 524.222 30.7317 524.222 31.503ZM518.957 31.503C518.957 32.049 519.026 32.5257 519.165 32.933C519.312 33.3317 519.537 33.6393 519.841 33.856C520.144 34.0727 520.53 34.181 520.998 34.181C521.466 34.181 521.851 34.0727 522.155 33.856C522.458 33.6393 522.679 33.3317 522.818 32.933C522.965 32.5257 523.039 32.049 523.039 31.503C523.039 30.9483 522.965 30.476 522.818 30.086C522.67 29.696 522.445 29.397 522.142 29.189C521.847 28.9723 521.461 28.864 520.985 28.864C520.274 28.864 519.758 29.098 519.438 29.566C519.117 30.034 518.957 30.6797 518.957 31.503ZM531.859 28.032V35H530.923L530.754 34.077H530.702C530.554 34.3197 530.364 34.519 530.13 34.675C529.896 34.831 529.64 34.9437 529.363 35.013C529.085 35.091 528.795 35.13 528.492 35.13C527.937 35.13 527.469 35.0433 527.088 34.87C526.715 34.688 526.433 34.4107 526.243 34.038C526.052 33.6653 525.957 33.1843 525.957 32.595V28.032H527.114V32.517C527.114 33.0717 527.239 33.4877 527.491 33.765C527.742 34.0423 528.132 34.181 528.661 34.181C529.181 34.181 529.588 34.0857 529.883 33.895C530.186 33.6957 530.398 33.4097 530.52 33.037C530.65 32.6557 530.715 32.1963 530.715 31.659V28.032H531.859ZM537.425 27.902C538.257 27.902 538.885 28.1057 539.31 28.513C539.734 28.9117 539.947 29.5617 539.947 30.463V35H538.816V30.541C538.816 29.9777 538.69 29.5573 538.439 29.28C538.187 29.0027 537.793 28.864 537.256 28.864C536.484 28.864 535.951 29.0807 535.657 29.514C535.362 29.9473 535.215 30.5713 535.215 31.386V35H534.071V28.032H534.994L535.163 28.981H535.228C535.384 28.7383 535.574 28.539 535.8 28.383C536.034 28.2183 536.289 28.097 536.567 28.019C536.844 27.941 537.13 27.902 537.425 27.902ZM544.434 34.194C544.607 34.194 544.785 34.181 544.967 34.155C545.149 34.1203 545.296 34.0857 545.409 34.051V34.922C545.288 34.9827 545.114 35.0303 544.889 35.065C544.664 35.1083 544.447 35.13 544.239 35.13C543.875 35.13 543.537 35.0693 543.225 34.948C542.922 34.818 542.675 34.597 542.484 34.285C542.293 33.973 542.198 33.5353 542.198 32.972V28.916H541.21V28.37L542.211 27.915L542.666 26.433H543.342V28.032H545.357V28.916H543.342V32.946C543.342 33.3707 543.442 33.687 543.641 33.895C543.849 34.0943 544.113 34.194 544.434 34.194Z" fill="#161616"/>
<path d="M615.5 48.5V71.5H484.5V48.5H615.5Z" fill="white"/>
<path d="M615.5 48.5V71.5H484.5V48.5H615.5Z" stroke="#D9D9D9"/>
<rect x="491.333" y="59.5" width="9.33333" height="1" fill="#8F8F8F"/>
<path d="M547.468 55.718H552.863V56.667H548.339L548.027 59.774H548.079C548.339 59.462 548.677 59.228 549.08 59.072C549.444 58.916 549.834 58.851 550.263 58.851C551.147 58.851 551.862 59.124 552.408 59.683C552.954 60.255 553.24 61.035 553.24 62.036C553.24 62.972 552.902 63.739 552.239 64.337C551.615 64.896 550.835 65.182 549.925 65.182C549.106 65.182 548.404 64.961 547.832 64.519C547.182 64.025 546.831 63.349 546.766 62.504H547.819C547.871 63.089 548.105 63.544 548.521 63.856C548.885 64.129 549.366 64.272 549.938 64.272C550.588 64.272 551.121 64.064 551.55 63.648C551.966 63.232 552.187 62.699 552.187 62.049C552.187 61.308 551.979 60.736 551.589 60.333C551.212 59.917 550.679 59.722 550.003 59.722C549.561 59.722 549.171 59.813 548.82 60.008C548.456 60.19 548.17 60.476 547.988 60.84H546.974L547.468 55.718Z" fill="#161616"/>
<path d="M604.5 59.5H608.666V60.5H604.5V64.666H603.5V60.5H599.333V59.5H603.5V55.333H604.5V59.5Z" fill="#8F8F8F"/>
<path d="M495.921 89.718L493.451 99H492.268L490.461 92.916C490.409 92.734 490.357 92.5477 490.305 92.357C490.253 92.1663 490.205 91.9843 490.162 91.811C490.119 91.6377 490.08 91.4903 490.045 91.369C490.019 91.239 490.002 91.1437 489.993 91.083C489.984 91.1437 489.967 91.239 489.941 91.369C489.924 91.4903 489.893 91.6377 489.85 91.811C489.807 91.9843 489.759 92.1707 489.707 92.37C489.664 92.5607 489.612 92.7557 489.551 92.955L487.796 99H486.613L484.156 89.718H485.378L486.821 95.386C486.873 95.5853 486.921 95.7847 486.964 95.984C487.007 96.1747 487.046 96.3653 487.081 96.556C487.124 96.738 487.159 96.9157 487.185 97.089C487.211 97.2623 487.237 97.4313 487.263 97.596C487.289 97.4227 487.315 97.245 487.341 97.063C487.376 96.881 487.415 96.6947 487.458 96.504C487.501 96.3047 487.549 96.1053 487.601 95.906C487.653 95.7067 487.705 95.5117 487.757 95.321L489.395 89.718H490.604L492.307 95.36C492.368 95.5593 492.424 95.763 492.476 95.971C492.528 96.1703 492.576 96.3653 492.619 96.556C492.662 96.7467 492.697 96.933 492.723 97.115C492.758 97.2883 492.788 97.4487 492.814 97.596C492.84 97.3793 492.875 97.154 492.918 96.92C492.961 96.6773 493.013 96.426 493.074 96.166C493.135 95.906 493.2 95.6417 493.269 95.373L494.699 89.718H495.921ZM498.335 92.032V99H497.191V92.032H498.335ZM497.776 89.419C497.949 89.419 498.101 89.4797 498.231 89.601C498.37 89.7137 498.439 89.8957 498.439 90.147C498.439 90.3897 498.37 90.5717 498.231 90.693C498.101 90.8143 497.949 90.875 497.776 90.875C497.585 90.875 497.425 90.8143 497.295 90.693C497.165 90.5717 497.1 90.3897 497.1 90.147C497.1 89.8957 497.165 89.7137 497.295 89.601C497.425 89.4797 497.585 89.419 497.776 89.419ZM502.869 98.194C503.043 98.194 503.221 98.181 503.403 98.155C503.585 98.1203 503.732 98.0857 503.845 98.051V98.922C503.723 98.9827 503.55 99.0303 503.325 99.065C503.099 99.1083 502.883 99.13 502.675 99.13C502.311 99.13 501.973 99.0693 501.661 98.948C501.357 98.818 501.11 98.597 500.92 98.285C500.729 97.973 500.634 97.5353 500.634 96.972V92.916H499.646V92.37L500.647 91.915L501.102 90.433H501.778V92.032H503.793V92.916H501.778V96.946C501.778 97.3707 501.877 97.687 502.077 97.895C502.285 98.0943 502.549 98.194 502.869 98.194ZM506.384 92.019C506.384 92.1837 506.375 92.3527 506.358 92.526C506.349 92.6993 506.336 92.8553 506.319 92.994H506.397C506.544 92.7513 506.73 92.552 506.956 92.396C507.181 92.24 507.432 92.123 507.71 92.045C507.987 91.9583 508.273 91.915 508.568 91.915C509.131 91.915 509.599 92.006 509.972 92.188C510.353 92.3613 510.639 92.6343 510.83 93.007C511.02 93.3797 511.116 93.865 511.116 94.463V99H509.985V94.541C509.985 93.9777 509.859 93.5573 509.608 93.28C509.356 93.0027 508.962 92.864 508.425 92.864C507.905 92.864 507.497 92.9637 507.203 93.163C506.908 93.3537 506.696 93.6397 506.566 94.021C506.444 94.3937 506.384 94.853 506.384 95.399V99H505.24V89.12H506.384V92.019ZM519.461 89.718C520.232 89.718 520.878 89.7917 521.398 89.939C521.927 90.0863 522.321 90.329 522.581 90.667C522.85 91.005 522.984 91.4557 522.984 92.019C522.984 92.383 522.915 92.708 522.776 92.994C522.646 93.2713 522.447 93.5053 522.178 93.696C521.918 93.878 521.597 94.0037 521.216 94.073V94.138C521.606 94.1987 521.957 94.3113 522.269 94.476C522.59 94.6407 522.841 94.8747 523.023 95.178C523.205 95.4813 523.296 95.8757 523.296 96.361C523.296 96.9243 523.166 97.4053 522.906 97.804C522.646 98.194 522.273 98.493 521.788 98.701C521.311 98.9003 520.739 99 520.072 99H516.809V89.718H519.461ZM519.695 93.67C520.492 93.67 521.038 93.5443 521.333 93.293C521.628 93.033 521.775 92.6517 521.775 92.149C521.775 91.6377 521.593 91.2737 521.229 91.057C520.874 90.8317 520.302 90.719 519.513 90.719H517.979V93.67H519.695ZM517.979 94.645V98.012H519.851C520.674 98.012 521.246 97.8517 521.567 97.531C521.888 97.2103 522.048 96.79 522.048 96.27C522.048 95.9407 521.974 95.6547 521.827 95.412C521.688 95.1693 521.45 94.983 521.112 94.853C520.783 94.7143 520.332 94.645 519.76 94.645H517.979ZM527.747 91.915C528.596 91.915 529.225 92.1013 529.632 92.474C530.039 92.8467 530.243 93.4403 530.243 94.255V99H529.411L529.19 98.012H529.138C528.939 98.2633 528.731 98.4757 528.514 98.649C528.306 98.8137 528.063 98.935 527.786 99.013C527.517 99.091 527.188 99.13 526.798 99.13C526.382 99.13 526.005 99.0563 525.667 98.909C525.338 98.7617 525.078 98.5363 524.887 98.233C524.696 97.921 524.601 97.531 524.601 97.063C524.601 96.3697 524.874 95.8367 525.42 95.464C525.966 95.0827 526.807 94.8747 527.942 94.84L529.125 94.801V94.385C529.125 93.8043 528.999 93.4013 528.748 93.176C528.497 92.9507 528.141 92.838 527.682 92.838C527.318 92.838 526.971 92.8943 526.642 93.007C526.313 93.111 526.005 93.2323 525.719 93.371L525.368 92.513C525.671 92.3483 526.031 92.2097 526.447 92.097C526.863 91.9757 527.296 91.915 527.747 91.915ZM528.085 95.633C527.218 95.6677 526.616 95.8063 526.278 96.049C525.949 96.2917 525.784 96.634 525.784 97.076C525.784 97.466 525.901 97.752 526.135 97.934C526.378 98.116 526.685 98.207 527.058 98.207C527.647 98.207 528.137 98.0467 528.527 97.726C528.917 97.3967 529.112 96.894 529.112 96.218V95.594L528.085 95.633ZM534.865 99.13C533.998 99.13 533.305 98.831 532.785 98.233C532.265 97.6263 532.005 96.725 532.005 95.529C532.005 94.333 532.265 93.4317 532.785 92.825C533.314 92.2097 534.011 91.902 534.878 91.902C535.242 91.902 535.558 91.9497 535.827 92.045C536.096 92.1317 536.33 92.253 536.529 92.409C536.728 92.565 536.897 92.7383 537.036 92.929H537.114C537.105 92.8163 537.088 92.6517 537.062 92.435C537.045 92.2097 537.036 92.032 537.036 91.902V89.12H538.18V99H537.257L537.088 98.064H537.036C536.897 98.2633 536.728 98.4453 536.529 98.61C536.33 98.766 536.091 98.8917 535.814 98.987C535.545 99.0823 535.229 99.13 534.865 99.13ZM535.047 98.181C535.784 98.181 536.299 97.9817 536.594 97.583C536.897 97.1757 537.049 96.5647 537.049 95.75V95.542C537.049 94.6753 536.906 94.0123 536.62 93.553C536.334 93.085 535.805 92.851 535.034 92.851C534.419 92.851 533.955 93.098 533.643 93.592C533.34 94.0773 533.188 94.7317 533.188 95.555C533.188 96.387 533.34 97.0327 533.643 97.492C533.955 97.9513 534.423 98.181 535.047 98.181ZM542.863 91.902C543.322 91.902 543.734 91.9887 544.098 92.162C544.471 92.3353 544.787 92.5997 545.047 92.955H545.112L545.268 92.032H546.178V99.117C546.178 99.7757 546.065 100.326 545.84 100.768C545.615 101.219 545.272 101.557 544.813 101.782C544.354 102.007 543.769 102.12 543.058 102.12C542.555 102.12 542.092 102.081 541.667 102.003C541.251 101.934 540.878 101.825 540.549 101.678V100.625C540.774 100.738 541.021 100.833 541.29 100.911C541.559 100.998 541.849 101.063 542.161 101.106C542.473 101.149 542.794 101.171 543.123 101.171C543.721 101.171 544.189 100.993 544.527 100.638C544.874 100.291 545.047 99.8147 545.047 99.208V98.935C545.047 98.831 545.051 98.6837 545.06 98.493C545.069 98.2937 545.077 98.155 545.086 98.077H545.034C544.791 98.4323 544.488 98.6967 544.124 98.87C543.769 99.0433 543.353 99.13 542.876 99.13C541.975 99.13 541.268 98.8137 540.757 98.181C540.254 97.5483 540.003 96.6643 540.003 95.529C540.003 94.7837 540.116 94.1423 540.341 93.605C540.575 93.059 540.904 92.6387 541.329 92.344C541.754 92.0493 542.265 91.902 542.863 91.902ZM543.019 92.864C542.629 92.864 542.295 92.968 542.018 93.176C541.749 93.384 541.541 93.6873 541.394 94.086C541.255 94.4847 541.186 94.97 541.186 95.542C541.186 96.4 541.342 97.0587 541.654 97.518C541.975 97.9687 542.438 98.194 543.045 98.194C543.4 98.194 543.704 98.1507 543.955 98.064C544.206 97.9687 544.414 97.8257 544.579 97.635C544.744 97.4357 544.865 97.1843 544.943 96.881C545.021 96.5777 545.06 96.218 545.06 95.802V95.529C545.06 94.8963 544.986 94.385 544.839 93.995C544.7 93.605 544.479 93.319 544.176 93.137C543.873 92.955 543.487 92.864 543.019 92.864ZM551.082 91.902C551.68 91.902 552.191 92.032 552.616 92.292C553.049 92.552 553.379 92.9203 553.604 93.397C553.838 93.865 553.955 94.4153 553.955 95.048V95.737H549.184C549.201 96.5257 549.401 97.128 549.782 97.544C550.172 97.9513 550.714 98.155 551.407 98.155C551.849 98.155 552.239 98.116 552.577 98.038C552.924 97.9513 553.279 97.83 553.643 97.674V98.675C553.288 98.831 552.937 98.9437 552.59 99.013C552.243 99.091 551.832 99.13 551.355 99.13C550.696 99.13 550.111 98.9957 549.6 98.727C549.097 98.4583 548.703 98.0597 548.417 97.531C548.14 96.9937 548.001 96.3393 548.001 95.568C548.001 94.8053 548.127 94.151 548.378 93.605C548.638 93.059 548.998 92.6387 549.457 92.344C549.925 92.0493 550.467 91.902 551.082 91.902ZM551.069 92.838C550.523 92.838 550.09 93.0157 549.769 93.371C549.457 93.7177 549.271 94.203 549.21 94.827H552.759C552.759 94.4283 552.698 94.0817 552.577 93.787C552.456 93.4923 552.269 93.2627 552.018 93.098C551.775 92.9247 551.459 92.838 551.069 92.838Z" fill="#161616"/>
<circle cx="496" cy="120" r="5.5" stroke="#465BC7"/>
<circle cx="496" cy="120" r="3" fill="#465BC7"/>
<path d="M508.936 115.718H515.15V116.641H510.002V119.761H514.877V120.684H510.002V125H508.936V115.718ZM519.234 118.097C520.196 118.097 520.898 118.344 521.366 118.851C521.756 119.293 521.964 119.904 521.964 120.684V125H520.989V123.869C520.729 124.233 520.378 124.532 519.962 124.766C519.468 125.039 518.909 125.182 518.285 125.182C517.609 125.182 517.076 125.013 516.673 124.675C516.257 124.324 516.049 123.869 516.049 123.323C516.049 122.556 516.348 121.984 516.972 121.594C517.518 121.23 518.298 121.035 519.312 121.022L520.924 120.996V120.645C520.924 119.514 520.339 118.955 519.169 118.955C518.675 118.955 518.272 119.046 517.96 119.254C517.609 119.462 517.388 119.787 517.284 120.216L516.257 120.138C516.4 119.436 516.751 118.903 517.297 118.565C517.791 118.253 518.428 118.097 519.234 118.097ZM520.924 121.776L519.377 121.802C517.869 121.828 517.115 122.322 517.115 123.297C517.115 123.609 517.232 123.856 517.492 124.064C517.752 124.259 518.09 124.363 518.506 124.363C519.143 124.363 519.702 124.155 520.196 123.739C520.677 123.336 520.924 122.868 520.924 122.348V121.776ZM523.779 115.536H524.806V125H523.779V115.536ZM529.009 118.097C530.673 118.097 531.583 118.786 531.765 120.19H530.751C530.66 119.774 530.491 119.462 530.231 119.28C529.945 119.072 529.529 118.968 528.996 118.968C528.528 118.968 528.164 119.046 527.904 119.228C527.618 119.397 527.475 119.631 527.475 119.93C527.475 120.216 527.657 120.463 528.047 120.658C528.294 120.775 528.762 120.918 529.438 121.1C530.244 121.295 530.816 121.503 531.167 121.724C531.7 122.062 531.973 122.517 531.973 123.102C531.973 124.48 531.024 125.182 529.126 125.182C527.358 125.182 526.396 124.402 526.24 122.855H527.254C527.332 123.388 527.527 123.765 527.813 123.999C528.099 124.207 528.528 124.311 529.1 124.311C530.296 124.311 530.907 123.921 530.907 123.167C530.907 122.79 530.686 122.504 530.27 122.296C530.049 122.192 529.568 122.049 528.84 121.867C528.047 121.672 527.488 121.477 527.176 121.269C526.656 120.957 526.409 120.528 526.409 119.956C526.409 119.384 526.656 118.942 527.163 118.604C527.631 118.266 528.255 118.097 529.009 118.097ZM535.963 118.097C537.042 118.097 537.861 118.461 538.407 119.189C538.901 119.839 539.161 120.762 539.187 121.932H533.883C533.935 122.686 534.13 123.271 534.494 123.687C534.858 124.103 535.365 124.311 536.002 124.311C536.548 124.311 537.003 124.168 537.341 123.895C537.627 123.661 537.848 123.31 538.017 122.842H539.057C538.901 123.492 538.602 124.012 538.147 124.428C537.588 124.922 536.873 125.182 536.002 125.182C535.04 125.182 534.26 124.857 533.688 124.233C533.09 123.583 532.804 122.725 532.804 121.633C532.804 120.645 533.077 119.813 533.649 119.15C534.221 118.448 534.988 118.097 535.963 118.097ZM535.989 118.968C535.391 118.968 534.91 119.163 534.546 119.553C534.182 119.943 533.974 120.463 533.909 121.126H538.108C537.978 119.683 537.263 118.968 535.989 118.968Z" fill="#161616"/>
<circle cx="564" cy="120" r="5.5" stroke="#8F8F8F"/>
<path d="M576.221 115.718H583.826V116.641H580.55V125H579.497V116.641H576.221V115.718ZM587.806 118.097C588.17 118.097 588.482 118.149 588.729 118.253V119.293C588.391 119.189 588.053 119.15 587.728 119.15C587.208 119.15 586.766 119.371 586.415 119.839C586.051 120.281 585.882 120.814 585.882 121.438V125H584.855V118.279H585.882V119.449C586.064 119.059 586.298 118.747 586.584 118.526C586.935 118.24 587.338 118.097 587.806 118.097ZM589.603 118.279H590.643V122.387C590.643 123.024 590.773 123.505 591.046 123.817C591.319 124.129 591.761 124.298 592.372 124.298C592.814 124.298 593.217 124.116 593.568 123.778C593.932 123.414 594.153 122.946 594.231 122.374V118.279H595.271V125H594.231V123.96C593.685 124.766 592.957 125.182 592.047 125.182C590.409 125.182 589.603 124.259 589.603 122.439V118.279ZM599.646 118.097C600.725 118.097 601.544 118.461 602.09 119.189C602.584 119.839 602.844 120.762 602.87 121.932H597.566C597.618 122.686 597.813 123.271 598.177 123.687C598.541 124.103 599.048 124.311 599.685 124.311C600.231 124.311 600.686 124.168 601.024 123.895C601.31 123.661 601.531 123.31 601.7 122.842H602.74C602.584 123.492 602.285 124.012 601.83 124.428C601.271 124.922 600.556 125.182 599.685 125.182C598.723 125.182 597.943 124.857 597.371 124.233C596.773 123.583 596.487 122.725 596.487 121.633C596.487 120.645 596.76 119.813 597.332 119.15C597.904 118.448 598.671 118.097 599.646 118.097ZM599.672 118.968C599.074 118.968 598.593 119.163 598.229 119.553C597.865 119.943 597.657 120.463 597.592 121.126H601.791C601.661 119.683 600.946 118.968 599.672 118.968Z" fill="#161616"/>
<path d="M495.921 149.718L493.451 159H492.268L490.461 152.916C490.409 152.734 490.357 152.548 490.305 152.357C490.253 152.166 490.205 151.984 490.162 151.811C490.119 151.638 490.08 151.49 490.045 151.369C490.019 151.239 490.002 151.144 489.993 151.083C489.984 151.144 489.967 151.239 489.941 151.369C489.924 151.49 489.893 151.638 489.85 151.811C489.807 151.984 489.759 152.171 489.707 152.37C489.664 152.561 489.612 152.756 489.551 152.955L487.796 159H486.613L484.156 149.718H485.378L486.821 155.386C486.873 155.585 486.921 155.785 486.964 155.984C487.007 156.175 487.046 156.365 487.081 156.556C487.124 156.738 487.159 156.916 487.185 157.089C487.211 157.262 487.237 157.431 487.263 157.596C487.289 157.423 487.315 157.245 487.341 157.063C487.376 156.881 487.415 156.695 487.458 156.504C487.501 156.305 487.549 156.105 487.601 155.906C487.653 155.707 487.705 155.512 487.757 155.321L489.395 149.718H490.604L492.307 155.36C492.368 155.559 492.424 155.763 492.476 155.971C492.528 156.17 492.576 156.365 492.619 156.556C492.662 156.747 492.697 156.933 492.723 157.115C492.758 157.288 492.788 157.449 492.814 157.596C492.84 157.379 492.875 157.154 492.918 156.92C492.961 156.677 493.013 156.426 493.074 156.166C493.135 155.906 493.2 155.642 493.269 155.373L494.699 149.718H495.921ZM498.335 152.032V159H497.191V152.032H498.335ZM497.776 149.419C497.949 149.419 498.101 149.48 498.231 149.601C498.37 149.714 498.439 149.896 498.439 150.147C498.439 150.39 498.37 150.572 498.231 150.693C498.101 150.814 497.949 150.875 497.776 150.875C497.585 150.875 497.425 150.814 497.295 150.693C497.165 150.572 497.1 150.39 497.1 150.147C497.1 149.896 497.165 149.714 497.295 149.601C497.425 149.48 497.585 149.419 497.776 149.419ZM502.869 158.194C503.043 158.194 503.221 158.181 503.403 158.155C503.585 158.12 503.732 158.086 503.845 158.051V158.922C503.723 158.983 503.55 159.03 503.325 159.065C503.099 159.108 502.883 159.13 502.675 159.13C502.311 159.13 501.973 159.069 501.661 158.948C501.357 158.818 501.11 158.597 500.92 158.285C500.729 157.973 500.634 157.535 500.634 156.972V152.916H499.646V152.37L500.647 151.915L501.102 150.433H501.778V152.032H503.793V152.916H501.778V156.946C501.778 157.371 501.877 157.687 502.077 157.895C502.285 158.094 502.549 158.194 502.869 158.194ZM506.384 152.019C506.384 152.184 506.375 152.353 506.358 152.526C506.349 152.699 506.336 152.855 506.319 152.994H506.397C506.544 152.751 506.73 152.552 506.956 152.396C507.181 152.24 507.432 152.123 507.71 152.045C507.987 151.958 508.273 151.915 508.568 151.915C509.131 151.915 509.599 152.006 509.972 152.188C510.353 152.361 510.639 152.634 510.83 153.007C511.02 153.38 511.116 153.865 511.116 154.463V159H509.985V154.541C509.985 153.978 509.859 153.557 509.608 153.28C509.356 153.003 508.962 152.864 508.425 152.864C507.905 152.864 507.497 152.964 507.203 153.163C506.908 153.354 506.696 153.64 506.566 154.021C506.444 154.394 506.384 154.853 506.384 155.399V159H505.24V149.12H506.384V152.019ZM524.167 159H522.802L517.836 151.291H517.784C517.793 151.447 517.801 151.62 517.81 151.811C517.827 152.002 517.84 152.21 517.849 152.435C517.858 152.652 517.866 152.877 517.875 153.111C517.884 153.345 517.888 153.579 517.888 153.813V159H516.809V149.718H518.161L523.114 157.401H523.166C523.157 157.297 523.149 157.154 523.14 156.972C523.131 156.781 523.123 156.573 523.114 156.348C523.105 156.114 523.097 155.876 523.088 155.633C523.079 155.39 523.075 155.165 523.075 154.957V149.718H524.167V159ZM532.354 152.032V159H531.418L531.249 158.077H531.197C531.049 158.32 530.859 158.519 530.625 158.675C530.391 158.831 530.135 158.944 529.858 159.013C529.58 159.091 529.29 159.13 528.987 159.13C528.432 159.13 527.964 159.043 527.583 158.87C527.21 158.688 526.928 158.411 526.738 158.038C526.547 157.665 526.452 157.184 526.452 156.595V152.032H527.609V156.517C527.609 157.072 527.734 157.488 527.986 157.765C528.237 158.042 528.627 158.181 529.156 158.181C529.676 158.181 530.083 158.086 530.378 157.895C530.681 157.696 530.893 157.41 531.015 157.037C531.145 156.656 531.21 156.196 531.21 155.659V152.032H532.354ZM542.21 151.902C542.999 151.902 543.588 152.106 543.978 152.513C544.368 152.912 544.563 153.562 544.563 154.463V159H543.432V154.515C543.432 153.969 543.315 153.557 543.081 153.28C542.856 153.003 542.5 152.864 542.015 152.864C541.339 152.864 540.854 153.059 540.559 153.449C540.273 153.839 540.13 154.407 540.13 155.152V159H538.999V154.515C538.999 154.151 538.947 153.848 538.843 153.605C538.739 153.354 538.583 153.167 538.375 153.046C538.167 152.925 537.898 152.864 537.569 152.864C537.101 152.864 536.733 152.964 536.464 153.163C536.195 153.354 536 153.635 535.879 154.008C535.766 154.381 535.71 154.84 535.71 155.386V159H534.566V152.032H535.489L535.658 152.981H535.723C535.87 152.738 536.048 152.539 536.256 152.383C536.473 152.218 536.711 152.097 536.971 152.019C537.231 151.941 537.5 151.902 537.777 151.902C538.314 151.902 538.761 151.997 539.116 152.188C539.48 152.379 539.744 152.673 539.909 153.072H539.974C540.208 152.673 540.524 152.379 540.923 152.188C541.33 151.997 541.759 151.902 542.21 151.902ZM547.859 151.525C547.859 151.82 547.851 152.097 547.833 152.357C547.825 152.608 547.812 152.808 547.794 152.955H547.859C548.059 152.66 548.332 152.413 548.678 152.214C549.025 152.015 549.471 151.915 550.017 151.915C550.884 151.915 551.577 152.218 552.097 152.825C552.626 153.423 552.89 154.32 552.89 155.516C552.89 156.313 552.769 156.981 552.526 157.518C552.292 158.055 551.959 158.458 551.525 158.727C551.092 158.996 550.589 159.13 550.017 159.13C549.471 159.13 549.025 159.03 548.678 158.831C548.332 158.632 548.059 158.393 547.859 158.116H547.768L547.534 159H546.715V149.12H547.859V151.525ZM549.822 152.864C549.328 152.864 548.938 152.959 548.652 153.15C548.366 153.332 548.163 153.618 548.041 154.008C547.92 154.389 547.859 154.879 547.859 155.477V155.529C547.859 156.387 547.998 157.046 548.275 157.505C548.561 157.956 549.086 158.181 549.848 158.181C550.472 158.181 550.936 157.951 551.239 157.492C551.551 157.033 551.707 156.37 551.707 155.503C551.707 154.628 551.551 153.969 551.239 153.527C550.936 153.085 550.464 152.864 549.822 152.864ZM557.404 151.902C558.002 151.902 558.514 152.032 558.938 152.292C559.372 152.552 559.701 152.92 559.926 153.397C560.16 153.865 560.277 154.415 560.277 155.048V155.737H555.506C555.524 156.526 555.723 157.128 556.104 157.544C556.494 157.951 557.036 158.155 557.729 158.155C558.171 158.155 558.561 158.116 558.899 158.038C559.246 157.951 559.601 157.83 559.965 157.674V158.675C559.61 158.831 559.259 158.944 558.912 159.013C558.566 159.091 558.154 159.13 557.677 159.13C557.019 159.13 556.434 158.996 555.922 158.727C555.42 158.458 555.025 158.06 554.739 157.531C554.462 156.994 554.323 156.339 554.323 155.568C554.323 154.805 554.449 154.151 554.7 153.605C554.96 153.059 555.32 152.639 555.779 152.344C556.247 152.049 556.789 151.902 557.404 151.902ZM557.391 152.838C556.845 152.838 556.412 153.016 556.091 153.371C555.779 153.718 555.593 154.203 555.532 154.827H559.081C559.081 154.428 559.021 154.082 558.899 153.787C558.778 153.492 558.592 153.263 558.34 153.098C558.098 152.925 557.781 152.838 557.391 152.838ZM565.301 151.902C565.431 151.902 565.57 151.911 565.717 151.928C565.873 151.937 566.008 151.954 566.12 151.98L565.977 153.033C565.865 153.007 565.739 152.985 565.6 152.968C565.47 152.951 565.345 152.942 565.223 152.942C564.955 152.942 564.699 152.998 564.456 153.111C564.214 153.224 563.997 153.384 563.806 153.592C563.616 153.791 563.464 154.034 563.351 154.32C563.247 154.606 563.195 154.927 563.195 155.282V159H562.051V152.032H562.987L563.117 153.306H563.169C563.317 153.046 563.494 152.812 563.702 152.604C563.91 152.387 564.149 152.218 564.417 152.097C564.686 151.967 564.981 151.902 565.301 151.902Z" fill="#161616"/>
<circle cx="496" cy="180" r="5.5" stroke="#465BC7"/>
<circle cx="496" cy="180" r="3" fill="#465BC7"/>
<path d="M508.936 175.718H515.15V176.641H510.002V179.761H514.877V180.684H510.002V185H508.936V175.718ZM519.234 178.097C520.196 178.097 520.898 178.344 521.366 178.851C521.756 179.293 521.964 179.904 521.964 180.684V185H520.989V183.869C520.729 184.233 520.378 184.532 519.962 184.766C519.468 185.039 518.909 185.182 518.285 185.182C517.609 185.182 517.076 185.013 516.673 184.675C516.257 184.324 516.049 183.869 516.049 183.323C516.049 182.556 516.348 181.984 516.972 181.594C517.518 181.23 518.298 181.035 519.312 181.022L520.924 180.996V180.645C520.924 179.514 520.339 178.955 519.169 178.955C518.675 178.955 518.272 179.046 517.96 179.254C517.609 179.462 517.388 179.787 517.284 180.216L516.257 180.138C516.4 179.436 516.751 178.903 517.297 178.565C517.791 178.253 518.428 178.097 519.234 178.097ZM520.924 181.776L519.377 181.802C517.869 181.828 517.115 182.322 517.115 183.297C517.115 183.609 517.232 183.856 517.492 184.064C517.752 184.259 518.09 184.363 518.506 184.363C519.143 184.363 519.702 184.155 520.196 183.739C520.677 183.336 520.924 182.868 520.924 182.348V181.776ZM523.779 175.536H524.806V185H523.779V175.536ZM529.009 178.097C530.673 178.097 531.583 178.786 531.765 180.19H530.751C530.66 179.774 530.491 179.462 530.231 179.28C529.945 179.072 529.529 178.968 528.996 178.968C528.528 178.968 528.164 179.046 527.904 179.228C527.618 179.397 527.475 179.631 527.475 179.93C527.475 180.216 527.657 180.463 528.047 180.658C528.294 180.775 528.762 180.918 529.438 181.1C530.244 181.295 530.816 181.503 531.167 181.724C531.7 182.062 531.973 182.517 531.973 183.102C531.973 184.48 531.024 185.182 529.126 185.182C527.358 185.182 526.396 184.402 526.24 182.855H527.254C527.332 183.388 527.527 183.765 527.813 183.999C528.099 184.207 528.528 184.311 529.1 184.311C530.296 184.311 530.907 183.921 530.907 183.167C530.907 182.79 530.686 182.504 530.27 182.296C530.049 182.192 529.568 182.049 528.84 181.867C528.047 181.672 527.488 181.477 527.176 181.269C526.656 180.957 526.409 180.528 526.409 179.956C526.409 179.384 526.656 178.942 527.163 178.604C527.631 178.266 528.255 178.097 529.009 178.097ZM535.963 178.097C537.042 178.097 537.861 178.461 538.407 179.189C538.901 179.839 539.161 180.762 539.187 181.932H533.883C533.935 182.686 534.13 183.271 534.494 183.687C534.858 184.103 535.365 184.311 536.002 184.311C536.548 184.311 537.003 184.168 537.341 183.895C537.627 183.661 537.848 183.31 538.017 182.842H539.057C538.901 183.492 538.602 184.012 538.147 184.428C537.588 184.922 536.873 185.182 536.002 185.182C535.04 185.182 534.26 184.857 533.688 184.233C533.09 183.583 532.804 182.725 532.804 181.633C532.804 180.645 533.077 179.813 533.649 179.15C534.221 178.448 534.988 178.097 535.963 178.097ZM535.989 178.968C535.391 178.968 534.91 179.163 534.546 179.553C534.182 179.943 533.974 180.463 533.909 181.126H538.108C537.978 179.683 537.263 178.968 535.989 178.968Z" fill="#161616"/>
<circle cx="564" cy="180" r="5.5" stroke="#8F8F8F"/>
<path d="M576.221 175.718H583.826V176.641H580.55V185H579.497V176.641H576.221V175.718ZM587.806 178.097C588.17 178.097 588.482 178.149 588.729 178.253V179.293C588.391 179.189 588.053 179.15 587.728 179.15C587.208 179.15 586.766 179.371 586.415 179.839C586.051 180.281 585.882 180.814 585.882 181.438V185H584.855V178.279H585.882V179.449C586.064 179.059 586.298 178.747 586.584 178.526C586.935 178.24 587.338 178.097 587.806 178.097ZM589.603 178.279H590.643V182.387C590.643 183.024 590.773 183.505 591.046 183.817C591.319 184.129 591.761 184.298 592.372 184.298C592.814 184.298 593.217 184.116 593.568 183.778C593.932 183.414 594.153 182.946 594.231 182.374V178.279H595.271V185H594.231V183.96C593.685 184.766 592.957 185.182 592.047 185.182C590.409 185.182 589.603 184.259 589.603 182.439V178.279ZM599.646 178.097C600.725 178.097 601.544 178.461 602.09 179.189C602.584 179.839 602.844 180.762 602.87 181.932H597.566C597.618 182.686 597.813 183.271 598.177 183.687C598.541 184.103 599.048 184.311 599.685 184.311C600.231 184.311 600.686 184.168 601.024 183.895C601.31 183.661 601.531 183.31 601.7 182.842H602.74C602.584 183.492 602.285 184.012 601.83 184.428C601.271 184.922 600.556 185.182 599.685 185.182C598.723 185.182 597.943 184.857 597.371 184.233C596.773 183.583 596.487 182.725 596.487 181.633C596.487 180.645 596.76 179.813 597.332 179.15C597.904 178.448 598.671 178.097 599.646 178.097ZM599.672 178.968C599.074 178.968 598.593 179.163 598.229 179.553C597.865 179.943 597.657 180.463 597.592 181.126H601.791C601.661 179.683 600.946 178.968 599.672 178.968Z" fill="#161616"/>
<path d="M495.921 209.718L493.451 219H492.268L490.461 212.916C490.409 212.734 490.357 212.548 490.305 212.357C490.253 212.166 490.205 211.984 490.162 211.811C490.119 211.638 490.08 211.49 490.045 211.369C490.019 211.239 490.002 211.144 489.993 211.083C489.984 211.144 489.967 211.239 489.941 211.369C489.924 211.49 489.893 211.638 489.85 211.811C489.807 211.984 489.759 212.171 489.707 212.37C489.664 212.561 489.612 212.756 489.551 212.955L487.796 219H486.613L484.156 209.718H485.378L486.821 215.386C486.873 215.585 486.921 215.785 486.964 215.984C487.007 216.175 487.046 216.365 487.081 216.556C487.124 216.738 487.159 216.916 487.185 217.089C487.211 217.262 487.237 217.431 487.263 217.596C487.289 217.423 487.315 217.245 487.341 217.063C487.376 216.881 487.415 216.695 487.458 216.504C487.501 216.305 487.549 216.105 487.601 215.906C487.653 215.707 487.705 215.512 487.757 215.321L489.395 209.718H490.604L492.307 215.36C492.368 215.559 492.424 215.763 492.476 215.971C492.528 216.17 492.576 216.365 492.619 216.556C492.662 216.747 492.697 216.933 492.723 217.115C492.758 217.288 492.788 217.449 492.814 217.596C492.84 217.379 492.875 217.154 492.918 216.92C492.961 216.677 493.013 216.426 493.074 216.166C493.135 215.906 493.2 215.642 493.269 215.373L494.699 209.718H495.921ZM498.335 212.032V219H497.191V212.032H498.335ZM497.776 209.419C497.949 209.419 498.101 209.48 498.231 209.601C498.37 209.714 498.439 209.896 498.439 210.147C498.439 210.39 498.37 210.572 498.231 210.693C498.101 210.814 497.949 210.875 497.776 210.875C497.585 210.875 497.425 210.814 497.295 210.693C497.165 210.572 497.1 210.39 497.1 210.147C497.1 209.896 497.165 209.714 497.295 209.601C497.425 209.48 497.585 209.419 497.776 209.419ZM502.869 218.194C503.043 218.194 503.221 218.181 503.403 218.155C503.585 218.12 503.732 218.086 503.845 218.051V218.922C503.723 218.983 503.55 219.03 503.325 219.065C503.099 219.108 502.883 219.13 502.675 219.13C502.311 219.13 501.973 219.069 501.661 218.948C501.357 218.818 501.11 218.597 500.92 218.285C500.729 217.973 500.634 217.535 500.634 216.972V212.916H499.646V212.37L500.647 211.915L501.102 210.433H501.778V212.032H503.793V212.916H501.778V216.946C501.778 217.371 501.877 217.687 502.077 217.895C502.285 218.094 502.549 218.194 502.869 218.194ZM506.384 212.019C506.384 212.184 506.375 212.353 506.358 212.526C506.349 212.699 506.336 212.855 506.319 212.994H506.397C506.544 212.751 506.73 212.552 506.956 212.396C507.181 212.24 507.432 212.123 507.71 212.045C507.987 211.958 508.273 211.915 508.568 211.915C509.131 211.915 509.599 212.006 509.972 212.188C510.353 212.361 510.639 212.634 510.83 213.007C511.02 213.38 511.116 213.865 511.116 214.463V219H509.985V214.541C509.985 213.978 509.859 213.557 509.608 213.28C509.356 213.003 508.962 212.864 508.425 212.864C507.905 212.864 507.497 212.964 507.203 213.163C506.908 213.354 506.696 213.64 506.566 214.021C506.444 214.394 506.384 214.853 506.384 215.399V219H505.24V209.12H506.384V212.019ZM522.633 219L521.515 216.127H517.836L516.731 219H515.548L519.175 209.679H520.228L523.842 219H522.633ZM520.124 212.279C520.098 212.21 520.055 212.084 519.994 211.902C519.933 211.72 519.873 211.534 519.812 211.343C519.76 211.144 519.717 210.992 519.682 210.888C519.639 211.061 519.591 211.239 519.539 211.421C519.496 211.594 519.448 211.755 519.396 211.902C519.353 212.049 519.314 212.175 519.279 212.279L518.226 215.087H521.164L520.124 212.279ZM527.751 219.13C527.135 219.13 526.585 219.004 526.1 218.753C525.623 218.502 525.246 218.112 524.969 217.583C524.7 217.054 524.566 216.378 524.566 215.555C524.566 214.697 524.709 213.999 524.995 213.462C525.281 212.925 525.666 212.53 526.152 212.279C526.646 212.028 527.205 211.902 527.829 211.902C528.184 211.902 528.526 211.941 528.856 212.019C529.185 212.088 529.454 212.175 529.662 212.279L529.311 213.228C529.103 213.15 528.86 213.076 528.583 213.007C528.305 212.938 528.045 212.903 527.803 212.903C527.335 212.903 526.949 213.003 526.646 213.202C526.342 213.401 526.117 213.696 525.97 214.086C525.822 214.476 525.749 214.961 525.749 215.542C525.749 216.097 525.822 216.569 525.97 216.959C526.117 217.349 526.338 217.644 526.633 217.843C526.927 218.042 527.296 218.142 527.738 218.142C528.119 218.142 528.453 218.103 528.739 218.025C529.033 217.947 529.302 217.852 529.545 217.739V218.753C529.311 218.874 529.051 218.965 528.765 219.026C528.487 219.095 528.149 219.13 527.751 219.13ZM533.529 218.194C533.702 218.194 533.88 218.181 534.062 218.155C534.244 218.12 534.391 218.086 534.504 218.051V218.922C534.382 218.983 534.209 219.03 533.984 219.065C533.758 219.108 533.542 219.13 533.334 219.13C532.97 219.13 532.632 219.069 532.32 218.948C532.016 218.818 531.769 218.597 531.579 218.285C531.388 217.973 531.293 217.535 531.293 216.972V212.916H530.305V212.37L531.306 211.915L531.761 210.433H532.437V212.032H534.452V212.916H532.437V216.946C532.437 217.371 532.536 217.687 532.736 217.895C532.944 218.094 533.208 218.194 533.529 218.194ZM537.043 212.032V219H535.899V212.032H537.043ZM536.484 209.419C536.657 209.419 536.809 209.48 536.939 209.601C537.078 209.714 537.147 209.896 537.147 210.147C537.147 210.39 537.078 210.572 536.939 210.693C536.809 210.814 536.657 210.875 536.484 210.875C536.293 210.875 536.133 210.814 536.003 210.693C535.873 210.572 535.808 210.39 535.808 210.147C535.808 209.896 535.873 209.714 536.003 209.601C536.133 209.48 536.293 209.419 536.484 209.419ZM545.309 215.503C545.309 216.084 545.231 216.599 545.075 217.05C544.927 217.492 544.711 217.869 544.425 218.181C544.147 218.493 543.805 218.731 543.398 218.896C542.999 219.052 542.553 219.13 542.059 219.13C541.599 219.13 541.175 219.052 540.785 218.896C540.395 218.731 540.057 218.493 539.771 218.181C539.485 217.869 539.259 217.492 539.095 217.05C538.939 216.599 538.861 216.084 538.861 215.503C538.861 214.732 538.991 214.082 539.251 213.553C539.511 213.016 539.883 212.608 540.369 212.331C540.854 212.045 541.43 211.902 542.098 211.902C542.73 211.902 543.285 212.045 543.762 212.331C544.247 212.608 544.624 213.016 544.893 213.553C545.17 214.082 545.309 214.732 545.309 215.503ZM540.044 215.503C540.044 216.049 540.113 216.526 540.252 216.933C540.399 217.332 540.624 217.639 540.928 217.856C541.231 218.073 541.617 218.181 542.085 218.181C542.553 218.181 542.938 218.073 543.242 217.856C543.545 217.639 543.766 217.332 543.905 216.933C544.052 216.526 544.126 216.049 544.126 215.503C544.126 214.948 544.052 214.476 543.905 214.086C543.757 213.696 543.532 213.397 543.229 213.189C542.934 212.972 542.548 212.864 542.072 212.864C541.361 212.864 540.845 213.098 540.525 213.566C540.204 214.034 540.044 214.68 540.044 215.503ZM550.476 211.902C551.308 211.902 551.936 212.106 552.361 212.513C552.785 212.912 552.998 213.562 552.998 214.463V219H551.867V214.541C551.867 213.978 551.741 213.557 551.49 213.28C551.238 213.003 550.844 212.864 550.307 212.864C549.535 212.864 549.002 213.081 548.708 213.514C548.413 213.947 548.266 214.571 548.266 215.386V219H547.122V212.032H548.045L548.214 212.981H548.279C548.435 212.738 548.625 212.539 548.851 212.383C549.085 212.218 549.34 212.097 549.618 212.019C549.895 211.941 550.181 211.902 550.476 211.902ZM561.343 209.718C562.114 209.718 562.76 209.792 563.28 209.939C563.808 210.086 564.203 210.329 564.463 210.667C564.731 211.005 564.866 211.456 564.866 212.019C564.866 212.383 564.796 212.708 564.658 212.994C564.528 213.271 564.328 213.505 564.06 213.696C563.8 213.878 563.479 214.004 563.098 214.073V214.138C563.488 214.199 563.839 214.311 564.151 214.476C564.471 214.641 564.723 214.875 564.905 215.178C565.087 215.481 565.178 215.876 565.178 216.361C565.178 216.924 565.048 217.405 564.788 217.804C564.528 218.194 564.155 218.493 563.67 218.701C563.193 218.9 562.621 219 561.954 219H558.691V209.718H561.343ZM561.577 213.67C562.374 213.67 562.92 213.544 563.215 213.293C563.509 213.033 563.657 212.652 563.657 212.149C563.657 211.638 563.475 211.274 563.111 211.057C562.755 210.832 562.183 210.719 561.395 210.719H559.861V213.67H561.577ZM559.861 214.645V218.012H561.733C562.556 218.012 563.128 217.852 563.449 217.531C563.769 217.21 563.93 216.79 563.93 216.27C563.93 215.941 563.856 215.655 563.709 215.412C563.57 215.169 563.332 214.983 562.994 214.853C562.664 214.714 562.214 214.645 561.642 214.645H559.861ZM572.814 212.032V219H571.878L571.709 218.077H571.657C571.509 218.32 571.319 218.519 571.085 218.675C570.851 218.831 570.595 218.944 570.318 219.013C570.04 219.091 569.75 219.13 569.447 219.13C568.892 219.13 568.424 219.043 568.043 218.87C567.67 218.688 567.388 218.411 567.198 218.038C567.007 217.665 566.912 217.184 566.912 216.595V212.032H568.069V216.517C568.069 217.072 568.194 217.488 568.446 217.765C568.697 218.042 569.087 218.181 569.616 218.181C570.136 218.181 570.543 218.086 570.838 217.895C571.141 217.696 571.353 217.41 571.475 217.037C571.605 216.656 571.67 216.196 571.67 215.659V212.032H572.814ZM577.353 218.194C577.526 218.194 577.704 218.181 577.886 218.155C578.068 218.12 578.215 218.086 578.328 218.051V218.922C578.207 218.983 578.033 219.03 577.808 219.065C577.583 219.108 577.366 219.13 577.158 219.13C576.794 219.13 576.456 219.069 576.144 218.948C575.841 218.818 575.594 218.597 575.403 218.285C575.212 217.973 575.117 217.535 575.117 216.972V212.916H574.129V212.37L575.13 211.915L575.585 210.433H576.261V212.032H578.276V212.916H576.261V216.946C576.261 217.371 576.361 217.687 576.56 217.895C576.768 218.094 577.032 218.194 577.353 218.194ZM582.05 218.194C582.223 218.194 582.401 218.181 582.583 218.155C582.765 218.12 582.912 218.086 583.025 218.051V218.922C582.904 218.983 582.73 219.03 582.505 219.065C582.28 219.108 582.063 219.13 581.855 219.13C581.491 219.13 581.153 219.069 580.841 218.948C580.538 218.818 580.291 218.597 580.1 218.285C579.909 217.973 579.814 217.535 579.814 216.972V212.916H578.826V212.37L579.827 211.915L580.282 210.433H580.958V212.032H582.973V212.916H580.958V216.946C580.958 217.371 581.058 217.687 581.257 217.895C581.465 218.094 581.729 218.194 582.05 218.194ZM590.478 215.503C590.478 216.084 590.4 216.599 590.244 217.05C590.097 217.492 589.88 217.869 589.594 218.181C589.317 218.493 588.975 218.731 588.567 218.896C588.169 219.052 587.722 219.13 587.228 219.13C586.769 219.13 586.344 219.052 585.954 218.896C585.564 218.731 585.226 218.493 584.94 218.181C584.654 217.869 584.429 217.492 584.264 217.05C584.108 216.599 584.03 216.084 584.03 215.503C584.03 214.732 584.16 214.082 584.42 213.553C584.68 213.016 585.053 212.608 585.538 212.331C586.024 212.045 586.6 211.902 587.267 211.902C587.9 211.902 588.455 212.045 588.931 212.331C589.417 212.608 589.794 213.016 590.062 213.553C590.34 214.082 590.478 214.732 590.478 215.503ZM585.213 215.503C585.213 216.049 585.283 216.526 585.421 216.933C585.569 217.332 585.794 217.639 586.097 217.856C586.401 218.073 586.786 218.181 587.254 218.181C587.722 218.181 588.108 218.073 588.411 217.856C588.715 217.639 588.936 217.332 589.074 216.933C589.222 216.526 589.295 216.049 589.295 215.503C589.295 214.948 589.222 214.476 589.074 214.086C588.927 213.696 588.702 213.397 588.398 213.189C588.104 212.972 587.718 212.864 587.241 212.864C586.531 212.864 586.015 213.098 585.694 213.566C585.374 214.034 585.213 214.68 585.213 215.503ZM595.646 211.902C596.478 211.902 597.106 212.106 597.531 212.513C597.955 212.912 598.168 213.562 598.168 214.463V219H597.037V214.541C597.037 213.978 596.911 213.557 596.66 213.28C596.408 213.003 596.014 212.864 595.477 212.864C594.705 212.864 594.172 213.081 593.878 213.514C593.583 213.947 593.436 214.571 593.436 215.386V219H592.292V212.032H593.215L593.384 212.981H593.449C593.605 212.738 593.795 212.539 594.021 212.383C594.255 212.218 594.51 212.097 594.788 212.019C595.065 211.941 595.351 211.902 595.646 211.902Z" fill="#161616"/>
<circle cx="496" cy="240" r="5.5" stroke="#8F8F8F"/>
<path d="M508.936 235.718H515.15V236.641H510.002V239.761H514.877V240.684H510.002V245H508.936V235.718ZM519.234 238.097C520.196 238.097 520.898 238.344 521.366 238.851C521.756 239.293 521.964 239.904 521.964 240.684V245H520.989V243.869C520.729 244.233 520.378 244.532 519.962 244.766C519.468 245.039 518.909 245.182 518.285 245.182C517.609 245.182 517.076 245.013 516.673 244.675C516.257 244.324 516.049 243.869 516.049 243.323C516.049 242.556 516.348 241.984 516.972 241.594C517.518 241.23 518.298 241.035 519.312 241.022L520.924 240.996V240.645C520.924 239.514 520.339 238.955 519.169 238.955C518.675 238.955 518.272 239.046 517.96 239.254C517.609 239.462 517.388 239.787 517.284 240.216L516.257 240.138C516.4 239.436 516.751 238.903 517.297 238.565C517.791 238.253 518.428 238.097 519.234 238.097ZM520.924 241.776L519.377 241.802C517.869 241.828 517.115 242.322 517.115 243.297C517.115 243.609 517.232 243.856 517.492 244.064C517.752 244.259 518.09 244.363 518.506 244.363C519.143 244.363 519.702 244.155 520.196 243.739C520.677 243.336 520.924 242.868 520.924 242.348V241.776ZM523.779 235.536H524.806V245H523.779V235.536ZM529.009 238.097C530.673 238.097 531.583 238.786 531.765 240.19H530.751C530.66 239.774 530.491 239.462 530.231 239.28C529.945 239.072 529.529 238.968 528.996 238.968C528.528 238.968 528.164 239.046 527.904 239.228C527.618 239.397 527.475 239.631 527.475 239.93C527.475 240.216 527.657 240.463 528.047 240.658C528.294 240.775 528.762 240.918 529.438 241.1C530.244 241.295 530.816 241.503 531.167 241.724C531.7 242.062 531.973 242.517 531.973 243.102C531.973 244.48 531.024 245.182 529.126 245.182C527.358 245.182 526.396 244.402 526.24 242.855H527.254C527.332 243.388 527.527 243.765 527.813 243.999C528.099 244.207 528.528 244.311 529.1 244.311C530.296 244.311 530.907 243.921 530.907 243.167C530.907 242.79 530.686 242.504 530.27 242.296C530.049 242.192 529.568 242.049 528.84 241.867C528.047 241.672 527.488 241.477 527.176 241.269C526.656 240.957 526.409 240.528 526.409 239.956C526.409 239.384 526.656 238.942 527.163 238.604C527.631 238.266 528.255 238.097 529.009 238.097ZM535.963 238.097C537.042 238.097 537.861 238.461 538.407 239.189C538.901 239.839 539.161 240.762 539.187 241.932H533.883C533.935 242.686 534.13 243.271 534.494 243.687C534.858 244.103 535.365 244.311 536.002 244.311C536.548 244.311 537.003 244.168 537.341 243.895C537.627 243.661 537.848 243.31 538.017 242.842H539.057C538.901 243.492 538.602 244.012 538.147 244.428C537.588 244.922 536.873 245.182 536.002 245.182C535.04 245.182 534.26 244.857 533.688 244.233C533.09 243.583 532.804 242.725 532.804 241.633C532.804 240.645 533.077 239.813 533.649 239.15C534.221 238.448 534.988 238.097 535.963 238.097ZM535.989 238.968C535.391 238.968 534.91 239.163 534.546 239.553C534.182 239.943 533.974 240.463 533.909 241.126H538.108C537.978 239.683 537.263 238.968 535.989 238.968Z" fill="#161616"/>
<circle cx="564" cy="240" r="5.5" stroke="#465BC7"/>
<circle cx="564" cy="240" r="3" fill="#465BC7"/>
<path d="M576.221 235.718H583.826V236.641H580.55V245H579.497V236.641H576.221V235.718ZM587.806 238.097C588.17 238.097 588.482 238.149 588.729 238.253V239.293C588.391 239.189 588.053 239.15 587.728 239.15C587.208 239.15 586.766 239.371 586.415 239.839C586.051 240.281 585.882 240.814 585.882 241.438V245H584.855V238.279H585.882V239.449C586.064 239.059 586.298 238.747 586.584 238.526C586.935 238.24 587.338 238.097 587.806 238.097ZM589.603 238.279H590.643V242.387C590.643 243.024 590.773 243.505 591.046 243.817C591.319 244.129 591.761 244.298 592.372 244.298C592.814 244.298 593.217 244.116 593.568 243.778C593.932 243.414 594.153 242.946 594.231 242.374V238.279H595.271V245H594.231V243.96C593.685 244.766 592.957 245.182 592.047 245.182C590.409 245.182 589.603 244.259 589.603 242.439V238.279ZM599.646 238.097C600.725 238.097 601.544 238.461 602.09 239.189C602.584 239.839 602.844 240.762 602.87 241.932H597.566C597.618 242.686 597.813 243.271 598.177 243.687C598.541 244.103 599.048 244.311 599.685 244.311C600.231 244.311 600.686 244.168 601.024 243.895C601.31 243.661 601.531 243.31 601.7 242.842H602.74C602.584 243.492 602.285 244.012 601.83 244.428C601.271 244.922 600.556 245.182 599.685 245.182C598.723 245.182 597.943 244.857 597.371 244.233C596.773 243.583 596.487 242.725 596.487 241.633C596.487 240.645 596.76 239.813 597.332 239.15C597.904 238.448 598.671 238.097 599.646 238.097ZM599.672 238.968C599.074 238.968 598.593 239.163 598.229 239.553C597.865 239.943 597.657 240.463 597.592 241.126H601.791C601.661 239.683 600.946 238.968 599.672 238.968Z" fill="#161616"/>
</svg>
