<svg width="780" height="136" viewBox="0 0 780 136" fill="none" xmlns="http://www.w3.org/2000/svg">
<mask id="path-2-inside-1_100_2642" fill="white">
<path d="M0 2C0 0.895429 0.895431 0 2 0H778C779.105 0 780 0.895431 780 2V88H0V2Z"/>
</mask>
<path d="M0 2C0 0.895429 0.895431 0 2 0H778C779.105 0 780 0.895431 780 2V88H0V2Z" fill="white"/>
<path d="M-1 2C-1 0.343146 0.343146 -1 2 -1H778C779.657 -1 781 0.343146 781 2H779C779 1.44772 778.552 1 778 1H2C1.44772 1 1 1.44772 1 2H-1ZM780 88H0H780ZM-1 88V2C-1 0.343146 0.343146 -1 2 -1V1C1.44772 1 1 1.44772 1 2V88H-1ZM778 -1C779.657 -1 781 0.343146 781 2V88H779V2C779 1.44772 778.552 1 778 1V-1Z" fill="#D9D9D9" mask="url(#path-2-inside-1_100_2642)"/>
<mask id="path-4-inside-2_100_2642" fill="white">
<path d="M40 20H468V68H40V20Z"/>
</mask>
<path d="M468 68V66H40V68V70H468V68Z" fill="#D9D9D9" mask="url(#path-4-inside-2_100_2642)"/>
<mask id="path-6-inside-3_100_2642" fill="white">
<path d="M40 20H100V68H40V20Z"/>
</mask>
<path d="M100 68V66H40V68V70H100V68Z" fill="#465BC7" mask="url(#path-6-inside-3_100_2642)"/>
<path d="M46.78 40.525H41.335V39.13H46.78C46.54 38.395 46.255 37.69 45.925 37.015L47.305 36.64C47.68 37.54 47.965 38.365 48.175 39.115L48.13 39.13H53.68V40.525H48.22V43.645H52.96V44.98H48.22V48.64H54.205V50.035H40.81V48.64H46.78V44.98H42.055V43.645H46.78V40.525ZM57.775 39.625H55.735V38.26H61.24V39.625H59.2V46.09C59.95 45.865 60.685 45.625 61.42 45.355V46.78C59.695 47.395 57.865 47.92 55.915 48.34L55.555 46.9C56.305 46.78 57.04 46.63 57.775 46.465V39.625ZM63.79 36.745H65.23V39.655H68.995C68.995 44.545 68.92 47.575 68.77 48.73C68.575 49.855 67.705 50.425 66.175 50.425C65.905 50.425 65.425 50.395 64.75 50.35L64.405 49.015C65.005 49.06 65.515 49.09 65.935 49.09C66.805 49.09 67.3 48.745 67.435 48.07C67.525 47.365 67.57 45.025 67.6 41.035H65.23V41.08C65.17 45.43 64 48.625 61.72 50.665L60.55 49.63C62.68 47.86 63.76 45.01 63.79 41.08V41.035H61.525V39.655H63.79V36.745ZM78.475 36.925H79.885V38.53L83.65 38.26V39.55L79.885 39.835V41.575C79.885 41.905 80.05 42.07 80.395 42.07H83.965V43.375H79.975C78.97 43.375 78.475 42.895 78.475 41.935V36.925ZM76.285 37.765C77.155 38.965 77.83 40 78.295 40.87L77.155 41.665C77.005 41.365 76.84 41.05 76.66 40.75C75.1 40.99 73.225 41.17 71.035 41.305L70.645 40.105C70.9 40.03 71.11 39.91 71.29 39.76C72.19 38.725 72.895 37.705 73.39 36.685L74.755 37.09C74.125 38.305 73.42 39.28 72.64 40.03C73.705 39.97 74.83 39.865 76.03 39.715C75.76 39.31 75.49 38.89 75.19 38.47L76.285 37.765ZM82.48 50.32H79.99C78.97 50.32 78.46 49.855 78.46 48.94V43.885H79.87V45.295L83.725 45.025V46.33L79.87 46.6V48.64C79.87 48.91 80.035 49.045 80.38 49.045H82.225C82.465 49.045 82.63 48.97 82.735 48.835C82.855 48.655 82.945 48.145 82.99 47.305L84.28 47.725C84.16 48.985 83.965 49.735 83.695 49.975C83.44 50.2 83.035 50.32 82.48 50.32ZM75.58 44.635L75.145 45.685C74.635 45.565 74.125 45.475 73.6 45.385L72.88 45.265V45.685C72.88 46.075 72.85 46.435 72.82 46.795C73.9 46.69 74.95 46.54 75.955 46.33V43.195H72.88V44.2C73.435 44.26 73.87 44.32 74.185 44.38C74.545 44.44 75.01 44.515 75.58 44.635ZM72.805 46.885C72.67 48.355 72.295 49.585 71.665 50.575L70.585 49.6C71.185 48.595 71.485 47.32 71.5 45.79V41.965H77.32V49.36C77.32 50.11 76.87 50.485 75.985 50.485H74.65L74.29 49.165C74.74 49.21 75.175 49.24 75.58 49.24C75.82 49.24 75.955 49.12 75.955 48.88V47.47C75.04 47.68 74.08 47.86 73.09 48.01L72.805 46.885ZM85.705 42.79H99.28V44.2H85.705V42.79Z" fill="#465BC7"/>
<path d="M138.78 40.525H133.335V39.13H138.78C138.54 38.395 138.255 37.69 137.925 37.015L139.305 36.64C139.68 37.54 139.965 38.365 140.175 39.115L140.13 39.13H145.68V40.525H140.22V43.645H144.96V44.98H140.22V48.64H146.205V50.035H132.81V48.64H138.78V44.98H134.055V43.645H138.78V40.525ZM149.775 39.625H147.735V38.26H153.24V39.625H151.2V46.09C151.95 45.865 152.685 45.625 153.42 45.355V46.78C151.695 47.395 149.865 47.92 147.915 48.34L147.555 46.9C148.305 46.78 149.04 46.63 149.775 46.465V39.625ZM155.79 36.745H157.23V39.655H160.995C160.995 44.545 160.92 47.575 160.77 48.73C160.575 49.855 159.705 50.425 158.175 50.425C157.905 50.425 157.425 50.395 156.75 50.35L156.405 49.015C157.005 49.06 157.515 49.09 157.935 49.09C158.805 49.09 159.3 48.745 159.435 48.07C159.525 47.365 159.57 45.025 159.6 41.035H157.23V41.08C157.17 45.43 156 48.625 153.72 50.665L152.55 49.63C154.68 47.86 155.76 45.01 155.79 41.08V41.035H153.525V39.655H155.79V36.745ZM170.475 36.925H171.885V38.53L175.65 38.26V39.55L171.885 39.835V41.575C171.885 41.905 172.05 42.07 172.395 42.07H175.965V43.375H171.975C170.97 43.375 170.475 42.895 170.475 41.935V36.925ZM168.285 37.765C169.155 38.965 169.83 40 170.295 40.87L169.155 41.665C169.005 41.365 168.84 41.05 168.66 40.75C167.1 40.99 165.225 41.17 163.035 41.305L162.645 40.105C162.9 40.03 163.11 39.91 163.29 39.76C164.19 38.725 164.895 37.705 165.39 36.685L166.755 37.09C166.125 38.305 165.42 39.28 164.64 40.03C165.705 39.97 166.83 39.865 168.03 39.715C167.76 39.31 167.49 38.89 167.19 38.47L168.285 37.765ZM174.48 50.32H171.99C170.97 50.32 170.46 49.855 170.46 48.94V43.885H171.87V45.295L175.725 45.025V46.33L171.87 46.6V48.64C171.87 48.91 172.035 49.045 172.38 49.045H174.225C174.465 49.045 174.63 48.97 174.735 48.835C174.855 48.655 174.945 48.145 174.99 47.305L176.28 47.725C176.16 48.985 175.965 49.735 175.695 49.975C175.44 50.2 175.035 50.32 174.48 50.32ZM167.58 44.635L167.145 45.685C166.635 45.565 166.125 45.475 165.6 45.385L164.88 45.265V45.685C164.88 46.075 164.85 46.435 164.82 46.795C165.9 46.69 166.95 46.54 167.955 46.33V43.195H164.88V44.2C165.435 44.26 165.87 44.32 166.185 44.38C166.545 44.44 167.01 44.515 167.58 44.635ZM164.805 46.885C164.67 48.355 164.295 49.585 163.665 50.575L162.585 49.6C163.185 48.595 163.485 47.32 163.5 45.79V41.965H169.32V49.36C169.32 50.11 168.87 50.485 167.985 50.485H166.65L166.29 49.165C166.74 49.21 167.175 49.24 167.58 49.24C167.82 49.24 167.955 49.12 167.955 48.88V47.47C167.04 47.68 166.08 47.86 165.09 48.01L164.805 46.885ZM179.13 38.245H189.87V39.64H179.13V38.245ZM177.75 47.68H191.235V49.105H177.75V47.68Z" fill="#8F8F8F"/>
<path d="M230.78 40.525H225.335V39.13H230.78C230.54 38.395 230.255 37.69 229.925 37.015L231.305 36.64C231.68 37.54 231.965 38.365 232.175 39.115L232.13 39.13H237.68V40.525H232.22V43.645H236.96V44.98H232.22V48.64H238.205V50.035H224.81V48.64H230.78V44.98H226.055V43.645H230.78V40.525ZM241.775 39.625H239.735V38.26H245.24V39.625H243.2V46.09C243.95 45.865 244.685 45.625 245.42 45.355V46.78C243.695 47.395 241.865 47.92 239.915 48.34L239.555 46.9C240.305 46.78 241.04 46.63 241.775 46.465V39.625ZM247.79 36.745H249.23V39.655H252.995C252.995 44.545 252.92 47.575 252.77 48.73C252.575 49.855 251.705 50.425 250.175 50.425C249.905 50.425 249.425 50.395 248.75 50.35L248.405 49.015C249.005 49.06 249.515 49.09 249.935 49.09C250.805 49.09 251.3 48.745 251.435 48.07C251.525 47.365 251.57 45.025 251.6 41.035H249.23V41.08C249.17 45.43 248 48.625 245.72 50.665L244.55 49.63C246.68 47.86 247.76 45.01 247.79 41.08V41.035H245.525V39.655H247.79V36.745ZM262.475 36.925H263.885V38.53L267.65 38.26V39.55L263.885 39.835V41.575C263.885 41.905 264.05 42.07 264.395 42.07H267.965V43.375H263.975C262.97 43.375 262.475 42.895 262.475 41.935V36.925ZM260.285 37.765C261.155 38.965 261.83 40 262.295 40.87L261.155 41.665C261.005 41.365 260.84 41.05 260.66 40.75C259.1 40.99 257.225 41.17 255.035 41.305L254.645 40.105C254.9 40.03 255.11 39.91 255.29 39.76C256.19 38.725 256.895 37.705 257.39 36.685L258.755 37.09C258.125 38.305 257.42 39.28 256.64 40.03C257.705 39.97 258.83 39.865 260.03 39.715C259.76 39.31 259.49 38.89 259.19 38.47L260.285 37.765ZM266.48 50.32H263.99C262.97 50.32 262.46 49.855 262.46 48.94V43.885H263.87V45.295L267.725 45.025V46.33L263.87 46.6V48.64C263.87 48.91 264.035 49.045 264.38 49.045H266.225C266.465 49.045 266.63 48.97 266.735 48.835C266.855 48.655 266.945 48.145 266.99 47.305L268.28 47.725C268.16 48.985 267.965 49.735 267.695 49.975C267.44 50.2 267.035 50.32 266.48 50.32ZM259.58 44.635L259.145 45.685C258.635 45.565 258.125 45.475 257.6 45.385L256.88 45.265V45.685C256.88 46.075 256.85 46.435 256.82 46.795C257.9 46.69 258.95 46.54 259.955 46.33V43.195H256.88V44.2C257.435 44.26 257.87 44.32 258.185 44.38C258.545 44.44 259.01 44.515 259.58 44.635ZM256.805 46.885C256.67 48.355 256.295 49.585 255.665 50.575L254.585 49.6C255.185 48.595 255.485 47.32 255.5 45.79V41.965H261.32V49.36C261.32 50.11 260.87 50.485 259.985 50.485H258.65L258.29 49.165C258.74 49.21 259.175 49.24 259.58 49.24C259.82 49.24 259.955 49.12 259.955 48.88V47.47C259.04 47.68 258.08 47.86 257.09 48.01L256.805 46.885ZM270.8 37.735H282.23V39.13H270.8V37.735ZM271.805 42.88H281.21V44.275H271.805V42.88ZM269.705 48.415H283.295V49.84H269.705V48.415Z" fill="#8F8F8F"/>
<path d="M322.78 40.525H317.335V39.13H322.78C322.54 38.395 322.255 37.69 321.925 37.015L323.305 36.64C323.68 37.54 323.965 38.365 324.175 39.115L324.13 39.13H329.68V40.525H324.22V43.645H328.96V44.98H324.22V48.64H330.205V50.035H316.81V48.64H322.78V44.98H318.055V43.645H322.78V40.525ZM333.775 39.625H331.735V38.26H337.24V39.625H335.2V46.09C335.95 45.865 336.685 45.625 337.42 45.355V46.78C335.695 47.395 333.865 47.92 331.915 48.34L331.555 46.9C332.305 46.78 333.04 46.63 333.775 46.465V39.625ZM339.79 36.745H341.23V39.655H344.995C344.995 44.545 344.92 47.575 344.77 48.73C344.575 49.855 343.705 50.425 342.175 50.425C341.905 50.425 341.425 50.395 340.75 50.35L340.405 49.015C341.005 49.06 341.515 49.09 341.935 49.09C342.805 49.09 343.3 48.745 343.435 48.07C343.525 47.365 343.57 45.025 343.6 41.035H341.23V41.08C341.17 45.43 340 48.625 337.72 50.665L336.55 49.63C338.68 47.86 339.76 45.01 339.79 41.08V41.035H337.525V39.655H339.79V36.745ZM354.475 36.925H355.885V38.53L359.65 38.26V39.55L355.885 39.835V41.575C355.885 41.905 356.05 42.07 356.395 42.07H359.965V43.375H355.975C354.97 43.375 354.475 42.895 354.475 41.935V36.925ZM352.285 37.765C353.155 38.965 353.83 40 354.295 40.87L353.155 41.665C353.005 41.365 352.84 41.05 352.66 40.75C351.1 40.99 349.225 41.17 347.035 41.305L346.645 40.105C346.9 40.03 347.11 39.91 347.29 39.76C348.19 38.725 348.895 37.705 349.39 36.685L350.755 37.09C350.125 38.305 349.42 39.28 348.64 40.03C349.705 39.97 350.83 39.865 352.03 39.715C351.76 39.31 351.49 38.89 351.19 38.47L352.285 37.765ZM358.48 50.32H355.99C354.97 50.32 354.46 49.855 354.46 48.94V43.885H355.87V45.295L359.725 45.025V46.33L355.87 46.6V48.64C355.87 48.91 356.035 49.045 356.38 49.045H358.225C358.465 49.045 358.63 48.97 358.735 48.835C358.855 48.655 358.945 48.145 358.99 47.305L360.28 47.725C360.16 48.985 359.965 49.735 359.695 49.975C359.44 50.2 359.035 50.32 358.48 50.32ZM351.58 44.635L351.145 45.685C350.635 45.565 350.125 45.475 349.6 45.385L348.88 45.265V45.685C348.88 46.075 348.85 46.435 348.82 46.795C349.9 46.69 350.95 46.54 351.955 46.33V43.195H348.88V44.2C349.435 44.26 349.87 44.32 350.185 44.38C350.545 44.44 351.01 44.515 351.58 44.635ZM348.805 46.885C348.67 48.355 348.295 49.585 347.665 50.575L346.585 49.6C347.185 48.595 347.485 47.32 347.5 45.79V41.965H353.32V49.36C353.32 50.11 352.87 50.485 351.985 50.485H350.65L350.29 49.165C350.74 49.21 351.175 49.24 351.58 49.24C351.82 49.24 351.955 49.12 351.955 48.88V47.47C351.04 47.68 350.08 47.86 349.09 48.01L348.805 46.885ZM374.8 37.555V50.32H373.36V49.555H363.64V50.32H362.2V37.555H374.8ZM363.64 48.28H373.36V38.845H370.78V44.245C370.78 44.515 370.96 44.65 371.32 44.65H372.955V45.94H370.9C369.91 45.94 369.415 45.49 369.415 44.59V38.845H367.525V41.92C367.495 44.05 366.64 45.595 364.975 46.57L363.88 45.61C365.365 44.83 366.115 43.6 366.145 41.92V38.845H363.64V48.28Z" fill="#8F8F8F"/>
<path d="M414.78 40.525H409.335V39.13H414.78C414.54 38.395 414.255 37.69 413.925 37.015L415.305 36.64C415.68 37.54 415.965 38.365 416.175 39.115L416.13 39.13H421.68V40.525H416.22V43.645H420.96V44.98H416.22V48.64H422.205V50.035H408.81V48.64H414.78V44.98H410.055V43.645H414.78V40.525ZM425.775 39.625H423.735V38.26H429.24V39.625H427.2V46.09C427.95 45.865 428.685 45.625 429.42 45.355V46.78C427.695 47.395 425.865 47.92 423.915 48.34L423.555 46.9C424.305 46.78 425.04 46.63 425.775 46.465V39.625ZM431.79 36.745H433.23V39.655H436.995C436.995 44.545 436.92 47.575 436.77 48.73C436.575 49.855 435.705 50.425 434.175 50.425C433.905 50.425 433.425 50.395 432.75 50.35L432.405 49.015C433.005 49.06 433.515 49.09 433.935 49.09C434.805 49.09 435.3 48.745 435.435 48.07C435.525 47.365 435.57 45.025 435.6 41.035H433.23V41.08C433.17 45.43 432 48.625 429.72 50.665L428.55 49.63C430.68 47.86 431.76 45.01 431.79 41.08V41.035H429.525V39.655H431.79V36.745ZM446.475 36.925H447.885V38.53L451.65 38.26V39.55L447.885 39.835V41.575C447.885 41.905 448.05 42.07 448.395 42.07H451.965V43.375H447.975C446.97 43.375 446.475 42.895 446.475 41.935V36.925ZM444.285 37.765C445.155 38.965 445.83 40 446.295 40.87L445.155 41.665C445.005 41.365 444.84 41.05 444.66 40.75C443.1 40.99 441.225 41.17 439.035 41.305L438.645 40.105C438.9 40.03 439.11 39.91 439.29 39.76C440.19 38.725 440.895 37.705 441.39 36.685L442.755 37.09C442.125 38.305 441.42 39.28 440.64 40.03C441.705 39.97 442.83 39.865 444.03 39.715C443.76 39.31 443.49 38.89 443.19 38.47L444.285 37.765ZM450.48 50.32H447.99C446.97 50.32 446.46 49.855 446.46 48.94V43.885H447.87V45.295L451.725 45.025V46.33L447.87 46.6V48.64C447.87 48.91 448.035 49.045 448.38 49.045H450.225C450.465 49.045 450.63 48.97 450.735 48.835C450.855 48.655 450.945 48.145 450.99 47.305L452.28 47.725C452.16 48.985 451.965 49.735 451.695 49.975C451.44 50.2 451.035 50.32 450.48 50.32ZM443.58 44.635L443.145 45.685C442.635 45.565 442.125 45.475 441.6 45.385L440.88 45.265V45.685C440.88 46.075 440.85 46.435 440.82 46.795C441.9 46.69 442.95 46.54 443.955 46.33V43.195H440.88V44.2C441.435 44.26 441.87 44.32 442.185 44.38C442.545 44.44 443.01 44.515 443.58 44.635ZM440.805 46.885C440.67 48.355 440.295 49.585 439.665 50.575L438.585 49.6C439.185 48.595 439.485 47.32 439.5 45.79V41.965H445.32V49.36C445.32 50.11 444.87 50.485 443.985 50.485H442.65L442.29 49.165C442.74 49.21 443.175 49.24 443.58 49.24C443.82 49.24 443.955 49.12 443.955 48.88V47.47C443.04 47.68 442.08 47.86 441.09 48.01L440.805 46.885ZM455.13 42.13H458.46L459.15 38.845H454.365V37.465H466.65V38.845H460.59L459.9 42.13H464.88V48.565H467.22V49.96H453.795V48.565H457.11L458.175 43.51H455.13V42.13ZM458.535 48.565H463.425V43.51H459.6L458.535 48.565Z" fill="#8F8F8F"/>
<mask id="path-13-inside-4_100_2642" fill="white">
<path d="M0 88H780V134C780 135.105 779.105 136 778 136H1.99998C0.895407 136 0 135.105 0 134V88Z"/>
</mask>
<path d="M0 88H780V134C780 135.105 779.105 136 778 136H1.99998C0.895407 136 0 135.105 0 134V88Z" fill="#E7E7E7"/>
<path d="M0 88H780H0ZM781 134C781 135.657 779.657 137 778 137H2C0.343146 137 -1 135.657 -1 134H1C1 134.552 1.44772 135 2 135H778C778.552 135 779 134.552 779 134H781ZM2 137C0.343146 137 -1 135.657 -1 134V88H1V134C1 134.552 1.44772 135 2 135V137ZM781 88V134C781 135.657 779.657 137 778 137V135C778.552 135 779 134.552 779 134V88H781Z" fill="#D9D9D9" mask="url(#path-13-inside-4_100_2642)"/>
<path fill-rule="evenodd" clip-rule="evenodd" d="M36.0005 116L29 108.98L29.9762 108H29.9781L36.0005 114.041L42.0238 108H42.0258L43 108.979V108.981L36.0005 116Z" fill="#4457CA"/>
<path d="M59.575 115.105C59.575 115.745 59.42 116.29 59.11 116.74C58.8 117.19 58.355 117.54 57.775 117.79C57.195 118.03 56.505 118.15 55.705 118.15C55.315 118.15 54.94 118.125 54.58 118.075C54.22 118.035 53.885 117.975 53.575 117.895C53.265 117.815 52.99 117.715 52.75 117.595V116.065C53.15 116.245 53.62 116.41 54.16 116.56C54.7 116.7 55.25 116.77 55.81 116.77C56.29 116.77 56.69 116.705 57.01 116.575C57.33 116.445 57.57 116.265 57.73 116.035C57.89 115.805 57.97 115.535 57.97 115.225C57.97 114.895 57.885 114.62 57.715 114.4C57.555 114.17 57.3 113.96 56.95 113.77C56.61 113.57 56.15 113.36 55.57 113.14C55.17 112.99 54.805 112.825 54.475 112.645C54.155 112.455 53.87 112.235 53.62 111.985C53.38 111.735 53.195 111.445 53.065 111.115C52.935 110.785 52.87 110.4 52.87 109.96C52.87 109.37 53.015 108.865 53.305 108.445C53.605 108.025 54.015 107.705 54.535 107.485C55.055 107.255 55.66 107.14 56.35 107.14C56.93 107.14 57.465 107.2 57.955 107.32C58.455 107.43 58.93 107.585 59.38 107.785L58.87 109.12C58.46 108.95 58.045 108.81 57.625 108.7C57.205 108.59 56.765 108.535 56.305 108.535C55.905 108.535 55.57 108.595 55.3 108.715C55.03 108.835 54.825 109 54.685 109.21C54.555 109.42 54.49 109.665 54.49 109.945C54.49 110.275 54.565 110.55 54.715 110.77C54.865 110.99 55.105 111.195 55.435 111.385C55.765 111.565 56.2 111.765 56.74 111.985C57.34 112.215 57.85 112.465 58.27 112.735C58.7 113.005 59.025 113.33 59.245 113.71C59.465 114.08 59.575 114.545 59.575 115.105ZM63.0821 109.645C63.0821 109.895 63.0721 110.145 63.0521 110.395C63.0321 110.645 63.0121 110.85 62.9921 111.01H63.0971C63.2671 110.73 63.4771 110.5 63.7271 110.32C63.9871 110.14 64.2721 110.005 64.5821 109.915C64.9021 109.825 65.2271 109.78 65.5571 109.78C66.1971 109.78 66.7321 109.885 67.1621 110.095C67.6021 110.295 67.9321 110.615 68.1521 111.055C68.3821 111.485 68.4971 112.045 68.4971 112.735V118H66.9221V112.96C66.9221 112.33 66.7871 111.86 66.5171 111.55C66.2571 111.23 65.8371 111.07 65.2571 111.07C64.7071 111.07 64.2721 111.18 63.9521 111.4C63.6421 111.62 63.4171 111.945 63.2771 112.375C63.1471 112.795 63.0821 113.315 63.0821 113.935V118H61.4921V106.6H63.0821V109.645ZM78.0653 113.95C78.0653 114.62 77.9753 115.215 77.7953 115.735C77.6153 116.255 77.3603 116.695 77.0303 117.055C76.7003 117.415 76.3003 117.69 75.8303 117.88C75.3603 118.06 74.8303 118.15 74.2403 118.15C73.7003 118.15 73.2003 118.06 72.7403 117.88C72.2803 117.69 71.8803 117.415 71.5403 117.055C71.2103 116.695 70.9503 116.255 70.7603 115.735C70.5703 115.215 70.4753 114.615 70.4753 113.935C70.4753 113.045 70.6253 112.29 70.9253 111.67C71.2353 111.05 71.6753 110.58 72.2453 110.26C72.8253 109.93 73.5053 109.765 74.2853 109.765C75.0253 109.765 75.6753 109.93 76.2353 110.26C76.8053 110.58 77.2503 111.05 77.5703 111.67C77.9003 112.29 78.0653 113.05 78.0653 113.95ZM72.1103 113.95C72.1103 114.55 72.1853 115.07 72.3353 115.51C72.4853 115.94 72.7203 116.27 73.0403 116.5C73.3603 116.73 73.7703 116.845 74.2703 116.845C74.7703 116.845 75.1803 116.73 75.5003 116.5C75.8203 116.27 76.0553 115.94 76.2053 115.51C76.3553 115.07 76.4303 114.55 76.4303 113.95C76.4303 113.33 76.3503 112.81 76.1903 112.39C76.0403 111.97 75.8053 111.65 75.4853 111.43C75.1753 111.2 74.7653 111.085 74.2553 111.085C73.5053 111.085 72.9603 111.335 72.6203 111.835C72.2803 112.335 72.1103 113.04 72.1103 113.95ZM85.248 113.95C85.198 113.75 85.138 113.53 85.068 113.29C85.008 113.05 84.948 112.81 84.888 112.57C84.828 112.32 84.773 112.09 84.723 111.88C84.673 111.67 84.633 111.505 84.603 111.385H84.543C84.523 111.505 84.488 111.67 84.438 111.88C84.398 112.09 84.348 112.32 84.288 112.57C84.228 112.81 84.168 113.055 84.108 113.305C84.048 113.545 83.983 113.765 83.913 113.965L82.713 117.985H80.943L78.708 109.9H80.328L81.378 113.995C81.458 114.275 81.528 114.57 81.588 114.88C81.658 115.19 81.718 115.49 81.768 115.78C81.828 116.06 81.868 116.295 81.888 116.485H81.948C81.968 116.355 81.998 116.195 82.038 116.005C82.078 115.805 82.118 115.6 82.158 115.39C82.208 115.17 82.253 114.96 82.293 114.76C82.343 114.56 82.393 114.395 82.443 114.265L83.733 109.9H85.473L86.733 114.265C86.793 114.465 86.858 114.705 86.928 114.985C86.998 115.255 87.058 115.525 87.108 115.795C87.168 116.055 87.208 116.28 87.228 116.47H87.288C87.308 116.3 87.343 116.08 87.393 115.81C87.443 115.53 87.503 115.23 87.573 114.91C87.653 114.59 87.728 114.285 87.798 113.995L88.878 109.9H90.483L88.218 117.985H86.403L85.248 113.95ZM100.539 108.535C100.009 108.535 99.5341 108.63 99.1141 108.82C98.6941 109 98.3341 109.27 98.0341 109.63C97.7441 109.99 97.5191 110.425 97.3591 110.935C97.2091 111.445 97.1341 112.02 97.1341 112.66C97.1341 113.5 97.2591 114.23 97.5091 114.85C97.7591 115.46 98.1341 115.93 98.6341 116.26C99.1341 116.59 99.7641 116.755 100.524 116.755C100.984 116.755 101.424 116.715 101.844 116.635C102.274 116.545 102.709 116.43 103.149 116.29V117.685C102.729 117.845 102.299 117.96 101.859 118.03C101.419 118.11 100.909 118.15 100.329 118.15C99.2391 118.15 98.3291 117.925 97.5991 117.475C96.8791 117.025 96.3391 116.385 95.9791 115.555C95.6191 114.725 95.4391 113.755 95.4391 112.645C95.4391 111.835 95.5491 111.095 95.7691 110.425C95.9991 109.745 96.3291 109.16 96.7591 108.67C97.1891 108.18 97.7191 107.805 98.3491 107.545C98.9891 107.275 99.7241 107.14 100.554 107.14C101.094 107.14 101.624 107.2 102.144 107.32C102.664 107.43 103.134 107.59 103.554 107.8L102.954 109.15C102.604 108.99 102.224 108.85 101.814 108.73C101.414 108.6 100.989 108.535 100.539 108.535ZM112.401 113.95C112.401 114.62 112.311 115.215 112.131 115.735C111.951 116.255 111.696 116.695 111.366 117.055C111.036 117.415 110.636 117.69 110.166 117.88C109.696 118.06 109.166 118.15 108.576 118.15C108.036 118.15 107.536 118.06 107.076 117.88C106.616 117.69 106.216 117.415 105.876 117.055C105.546 116.695 105.286 116.255 105.096 115.735C104.906 115.215 104.811 114.615 104.811 113.935C104.811 113.045 104.961 112.29 105.261 111.67C105.571 111.05 106.011 110.58 106.581 110.26C107.161 109.93 107.841 109.765 108.621 109.765C109.361 109.765 110.011 109.93 110.571 110.26C111.141 110.58 111.586 111.05 111.906 111.67C112.236 112.29 112.401 113.05 112.401 113.95ZM106.446 113.95C106.446 114.55 106.521 115.07 106.671 115.51C106.821 115.94 107.056 116.27 107.376 116.5C107.696 116.73 108.106 116.845 108.606 116.845C109.106 116.845 109.516 116.73 109.836 116.5C110.156 116.27 110.391 115.94 110.541 115.51C110.691 115.07 110.766 114.55 110.766 113.95C110.766 113.33 110.686 112.81 110.526 112.39C110.376 111.97 110.141 111.65 109.821 111.43C109.511 111.2 109.101 111.085 108.591 111.085C107.841 111.085 107.296 111.335 106.956 111.835C106.616 112.335 106.446 113.04 106.446 113.95ZM117.192 118.15C116.222 118.15 115.437 117.8 114.837 117.1C114.247 116.4 113.952 115.36 113.952 113.98C113.952 112.59 114.252 111.54 114.852 110.83C115.452 110.12 116.242 109.765 117.222 109.765C117.632 109.765 117.987 109.82 118.287 109.93C118.597 110.03 118.862 110.17 119.082 110.35C119.312 110.53 119.507 110.73 119.667 110.95H119.757C119.737 110.81 119.712 110.61 119.682 110.35C119.652 110.08 119.637 109.84 119.637 109.63V106.6H121.227V118H119.982L119.712 116.92H119.637C119.487 117.15 119.297 117.36 119.067 117.55C118.847 117.73 118.582 117.875 118.272 117.985C117.962 118.095 117.602 118.15 117.192 118.15ZM117.567 116.845C118.347 116.845 118.897 116.63 119.217 116.2C119.537 115.76 119.697 115.105 119.697 114.235V113.995C119.697 113.045 119.542 112.32 119.232 111.82C118.932 111.32 118.372 111.07 117.552 111.07C116.902 111.07 116.412 111.335 116.082 111.865C115.752 112.385 115.587 113.1 115.587 114.01C115.587 114.92 115.752 115.62 116.082 116.11C116.412 116.6 116.907 116.845 117.567 116.845ZM126.899 109.765C127.609 109.765 128.219 109.915 128.729 110.215C129.239 110.505 129.629 110.925 129.899 111.475C130.179 112.025 130.319 112.675 130.319 113.425V114.295H124.889C124.909 115.125 125.124 115.76 125.534 116.2C125.954 116.64 126.539 116.86 127.289 116.86C127.809 116.86 128.269 116.815 128.669 116.725C129.079 116.625 129.499 116.48 129.929 116.29V117.61C129.529 117.79 129.119 117.925 128.699 118.015C128.289 118.105 127.799 118.15 127.229 118.15C126.449 118.15 125.759 117.995 125.159 117.685C124.559 117.375 124.089 116.915 123.749 116.305C123.419 115.685 123.254 114.925 123.254 114.025C123.254 113.115 123.404 112.345 123.704 111.715C124.014 111.085 124.439 110.605 124.979 110.275C125.529 109.935 126.169 109.765 126.899 109.765ZM126.899 110.995C126.329 110.995 125.869 111.18 125.519 111.55C125.179 111.92 124.979 112.445 124.919 113.125H128.729C128.729 112.705 128.664 112.335 128.534 112.015C128.404 111.695 128.204 111.445 127.934 111.265C127.664 111.085 127.319 110.995 126.899 110.995Z" fill="#465BC7"/>
<path fill-rule="evenodd" clip-rule="evenodd" d="M700.2 112C700.2 107.546 703.97 104 708.539 104C709.459 104 710.343 104.151 711.168 104.413L711.295 105.816C709.717 106.659 708.675 108.254 708.675 110.056C708.675 112.704 710.934 114.917 713.804 114.917C714.204 114.917 714.599 114.869 714.98 114.783L715.8 115.917C714.368 118.362 711.644 120 708.535 120C703.97 120 700.2 116.454 700.2 112ZM708.539 105.528C704.734 105.528 701.72 108.463 701.72 112C701.72 115.537 704.735 118.472 708.535 118.472C710.496 118.472 712.254 117.686 713.491 116.438C709.997 116.282 707.155 113.518 707.155 110.056C707.155 108.29 707.901 106.701 709.093 105.55C708.91 105.536 708.725 105.528 708.539 105.528Z" fill="#4457CA"/>
<path d="M756 116.418H753.851V120H740V106.149H743.582V104H756V116.418ZM741.433 107.582V118.567H752.418V116.418H743.582V107.582H741.433ZM745.082 114.918H754.5V105.5H745.082V114.918Z" fill="#4457CA"/>
</svg>
