<svg width="780" height="232" viewBox="0 0 780 232" fill="none" xmlns="http://www.w3.org/2000/svg">
<mask id="path-2-inside-1_8_1807" fill="white">
<path d="M0 2C0 0.89543 0.895431 0 2 0H778C779.105 0 780 0.895431 780 2V184H0V2Z"/>
</mask>
<path d="M0 2C0 0.89543 0.895431 0 2 0H778C779.105 0 780 0.895431 780 2V184H0V2Z" fill="white"/>
<path d="M-1 2C-1 0.343146 0.343146 -1 2 -1H778C779.657 -1 781 0.343146 781 2H779C779 1.44772 778.552 1 778 1H2C1.44772 1 1 1.44772 1 2H-1ZM780 184H0H780ZM-1 184V2C-1 0.343146 0.343146 -1 2 -1V1C1.44772 1 1 1.44772 1 2V184H-1ZM778 -1C779.657 -1 781 0.343146 781 2V184H779V2C779 1.44772 778.552 1 778 1V-1Z" fill="#D9D9D9" mask="url(#path-2-inside-1_8_1807)"/>
<path d="M48.5568 45H47.3868V40.671H42.6288V45H41.4588V35.718H42.6288V39.644H47.3868V35.718H48.5568V45ZM56.9965 41.503C56.9965 42.0837 56.9185 42.5993 56.7625 43.05C56.6152 43.492 56.3985 43.869 56.1125 44.181C55.8352 44.493 55.4928 44.7313 55.0855 44.896C54.6868 45.052 54.2405 45.13 53.7465 45.13C53.2872 45.13 52.8625 45.052 52.4725 44.896C52.0825 44.7313 51.7445 44.493 51.4585 44.181C51.1725 43.869 50.9472 43.492 50.7825 43.05C50.6265 42.5993 50.5485 42.0837 50.5485 41.503C50.5485 40.7317 50.6785 40.0817 50.9385 39.553C51.1985 39.0157 51.5712 38.6083 52.0565 38.331C52.5418 38.045 53.1182 37.902 53.7855 37.902C54.4182 37.902 54.9728 38.045 55.4495 38.331C55.9348 38.6083 56.3118 39.0157 56.5805 39.553C56.8578 40.0817 56.9965 40.7317 56.9965 41.503ZM51.7315 41.503C51.7315 42.049 51.8008 42.5257 51.9395 42.933C52.0868 43.3317 52.3122 43.6393 52.6155 43.856C52.9188 44.0727 53.3045 44.181 53.7725 44.181C54.2405 44.181 54.6262 44.0727 54.9295 43.856C55.2328 43.6393 55.4538 43.3317 55.5925 42.933C55.7398 42.5257 55.8135 42.049 55.8135 41.503C55.8135 40.9483 55.7398 40.476 55.5925 40.086C55.4452 39.696 55.2198 39.397 54.9165 39.189C54.6218 38.9723 54.2362 38.864 53.7595 38.864C53.0488 38.864 52.5332 39.098 52.2125 39.566C51.8918 40.034 51.7315 40.6797 51.7315 41.503ZM64.6336 38.032V45H63.6976L63.5286 44.077H63.4766C63.3293 44.3197 63.1386 44.519 62.9046 44.675C62.6706 44.831 62.4149 44.9437 62.1376 45.013C61.8603 45.091 61.5699 45.13 61.2666 45.13C60.7119 45.13 60.2439 45.0433 59.8626 44.87C59.4899 44.688 59.2083 44.4107 59.0176 44.038C58.8269 43.6653 58.7316 43.1843 58.7316 42.595V38.032H59.8886V42.517C59.8886 43.0717 60.0143 43.4877 60.2656 43.765C60.5169 44.0423 60.9069 44.181 61.4356 44.181C61.9556 44.181 62.3629 44.0857 62.6576 43.895C62.9609 43.6957 63.1733 43.4097 63.2946 43.037C63.4246 42.6557 63.4896 42.1963 63.4896 41.659V38.032H64.6336ZM70.0957 37.902C70.2257 37.902 70.3644 37.9107 70.5117 37.928C70.6677 37.9367 70.8021 37.954 70.9147 37.98L70.7717 39.033C70.6591 39.007 70.5334 38.9853 70.3947 38.968C70.2647 38.9507 70.1391 38.942 70.0177 38.942C69.7491 38.942 69.4934 38.9983 69.2507 39.111C69.0081 39.2237 68.7914 39.384 68.6007 39.592C68.4101 39.7913 68.2584 40.034 68.1457 40.32C68.0417 40.606 67.9897 40.9267 67.9897 41.282V45H66.8457V38.032H67.7817L67.9117 39.306H67.9637C68.1111 39.046 68.2887 38.812 68.4967 38.604C68.7047 38.3873 68.9431 38.2183 69.2117 38.097C69.4804 37.967 69.7751 37.902 70.0957 37.902ZM76.7528 43.076C76.7528 43.5267 76.6402 43.9037 76.4148 44.207C76.1895 44.5103 75.8688 44.74 75.4528 44.896C75.0368 45.052 74.5428 45.13 73.9708 45.13C73.4855 45.13 73.0652 45.091 72.7098 45.013C72.3632 44.935 72.0555 44.8267 71.7868 44.688V43.648C72.0642 43.7867 72.3978 43.9167 72.7878 44.038C73.1865 44.1507 73.5895 44.207 73.9968 44.207C74.5775 44.207 74.9978 44.116 75.2578 43.934C75.5178 43.7433 75.6478 43.492 75.6478 43.18C75.6478 43.0067 75.6002 42.8507 75.5048 42.712C75.4095 42.5733 75.2362 42.4347 74.9848 42.296C74.7422 42.1573 74.3912 42.0013 73.9318 41.828C73.4812 41.6547 73.0955 41.4813 72.7748 41.308C72.4542 41.1347 72.2072 40.9267 72.0338 40.684C71.8605 40.4413 71.7738 40.1293 71.7738 39.748C71.7738 39.1587 72.0122 38.7037 72.4888 38.383C72.9742 38.0623 73.6068 37.902 74.3868 37.902C74.8115 37.902 75.2058 37.9453 75.5698 38.032C75.9425 38.11 76.2892 38.2227 76.6098 38.37L76.2198 39.28C76.0292 39.1933 75.8255 39.1197 75.6088 39.059C75.4008 38.9897 75.1885 38.9377 74.9718 38.903C74.7552 38.8597 74.5342 38.838 74.3088 38.838C73.8408 38.838 73.4812 38.916 73.2298 39.072C72.9872 39.2193 72.8658 39.423 72.8658 39.683C72.8658 39.8737 72.9222 40.0383 73.0348 40.177C73.1475 40.307 73.3338 40.437 73.5938 40.567C73.8625 40.6883 74.2178 40.8357 74.6598 41.009C75.1018 41.1737 75.4788 41.3427 75.7908 41.516C76.1028 41.6893 76.3412 41.9017 76.5058 42.153C76.6705 42.3957 76.7528 42.7033 76.7528 43.076ZM79.8275 43.635C79.7495 43.9383 79.6499 44.2677 79.5285 44.623C79.4072 44.9783 79.2729 45.3293 79.1255 45.676C78.9869 46.0313 78.8482 46.365 78.7095 46.677H77.8645C77.9512 46.3477 78.0335 45.9923 78.1115 45.611C78.1982 45.2383 78.2762 44.87 78.3455 44.506C78.4149 44.1333 78.4712 43.7953 78.5145 43.492H79.7365L79.8275 43.635ZM92.936 37.902C93.7247 37.902 94.314 38.1057 94.704 38.513C95.094 38.9117 95.289 39.5617 95.289 40.463V45H94.158V40.515C94.158 39.969 94.041 39.5573 93.807 39.28C93.5817 39.0027 93.2263 38.864 92.741 38.864C92.065 38.864 91.5797 39.059 91.285 39.449C90.999 39.839 90.856 40.4067 90.856 41.152V45H89.725V40.515C89.725 40.151 89.673 39.8477 89.569 39.605C89.465 39.3537 89.309 39.1673 89.101 39.046C88.893 38.9247 88.6243 38.864 88.295 38.864C87.827 38.864 87.4587 38.9637 87.19 39.163C86.9213 39.3537 86.7263 39.6353 86.605 40.008C86.4923 40.3807 86.436 40.84 86.436 41.386V45H85.292V38.032H86.215L86.384 38.981H86.449C86.5963 38.7383 86.774 38.539 86.982 38.383C87.1987 38.2183 87.437 38.097 87.697 38.019C87.957 37.941 88.2257 37.902 88.503 37.902C89.0403 37.902 89.4867 37.9973 89.842 38.188C90.206 38.3787 90.4703 38.6733 90.635 39.072H90.7C90.934 38.6733 91.2503 38.3787 91.649 38.188C92.0563 37.9973 92.4853 37.902 92.936 37.902ZM98.5854 38.032V45H97.4414V38.032H98.5854ZM98.0264 35.419C98.1998 35.419 98.3514 35.4797 98.4814 35.601C98.6201 35.7137 98.6894 35.8957 98.6894 36.147C98.6894 36.3897 98.6201 36.5717 98.4814 36.693C98.3514 36.8143 98.1998 36.875 98.0264 36.875C97.8358 36.875 97.6754 36.8143 97.5454 36.693C97.4154 36.5717 97.3504 36.3897 97.3504 36.147C97.3504 35.8957 97.4154 35.7137 97.5454 35.601C97.6754 35.4797 97.8358 35.419 98.0264 35.419ZM104.147 37.902C104.979 37.902 105.607 38.1057 106.032 38.513C106.457 38.9117 106.669 39.5617 106.669 40.463V45H105.538V40.541C105.538 39.9777 105.412 39.5573 105.161 39.28C104.91 39.0027 104.515 38.864 103.978 38.864C103.207 38.864 102.674 39.0807 102.379 39.514C102.084 39.9473 101.937 40.5713 101.937 41.386V45H100.793V38.032H101.716L101.885 38.981H101.95C102.106 38.7383 102.297 38.539 102.522 38.383C102.756 38.2183 103.012 38.097 103.289 38.019C103.566 37.941 103.852 37.902 104.147 37.902ZM114.653 38.032V45H113.717L113.548 44.077H113.496C113.349 44.3197 113.158 44.519 112.924 44.675C112.69 44.831 112.434 44.9437 112.157 45.013C111.88 45.091 111.589 45.13 111.286 45.13C110.731 45.13 110.263 45.0433 109.882 44.87C109.509 44.688 109.228 44.4107 109.037 44.038C108.846 43.6653 108.751 43.1843 108.751 42.595V38.032H109.908V42.517C109.908 43.0717 110.034 43.4877 110.285 43.765C110.536 44.0423 110.926 44.181 111.455 44.181C111.975 44.181 112.382 44.0857 112.677 43.895C112.98 43.6957 113.193 43.4097 113.314 43.037C113.444 42.6557 113.509 42.1963 113.509 41.659V38.032H114.653ZM119.192 44.194C119.366 44.194 119.543 44.181 119.725 44.155C119.907 44.1203 120.055 44.0857 120.167 44.051V44.922C120.046 44.9827 119.873 45.0303 119.647 45.065C119.422 45.1083 119.205 45.13 118.997 45.13C118.633 45.13 118.295 45.0693 117.983 44.948C117.68 44.818 117.433 44.597 117.242 44.285C117.052 43.973 116.956 43.5353 116.956 42.972V38.916H115.968V38.37L116.969 37.915L117.424 36.433H118.1V38.032H120.115V38.916H118.1V42.946C118.1 43.3707 118.2 43.687 118.399 43.895C118.607 44.0943 118.872 44.194 119.192 44.194ZM124.254 37.902C124.852 37.902 125.363 38.032 125.788 38.292C126.221 38.552 126.55 38.9203 126.776 39.397C127.01 39.865 127.127 40.4153 127.127 41.048V41.737H122.356C122.373 42.5257 122.572 43.128 122.954 43.544C123.344 43.9513 123.885 44.155 124.579 44.155C125.021 44.155 125.411 44.116 125.749 44.038C126.095 43.9513 126.451 43.83 126.815 43.674V44.675C126.459 44.831 126.108 44.9437 125.762 45.013C125.415 45.091 125.003 45.13 124.527 45.13C123.868 45.13 123.283 44.9957 122.772 44.727C122.269 44.4583 121.875 44.0597 121.589 43.531C121.311 42.9937 121.173 42.3393 121.173 41.568C121.173 40.8053 121.298 40.151 121.55 39.605C121.81 39.059 122.169 38.6387 122.629 38.344C123.097 38.0493 123.638 37.902 124.254 37.902ZM124.241 38.838C123.695 38.838 123.261 39.0157 122.941 39.371C122.629 39.7177 122.442 40.203 122.382 40.827H125.931C125.931 40.4283 125.87 40.0817 125.749 39.787C125.627 39.4923 125.441 39.2627 125.19 39.098C124.947 38.9247 124.631 38.838 124.241 38.838ZM133.437 43.076C133.437 43.5267 133.325 43.9037 133.099 44.207C132.874 44.5103 132.553 44.74 132.137 44.896C131.721 45.052 131.227 45.13 130.655 45.13C130.17 45.13 129.75 45.091 129.394 45.013C129.048 44.935 128.74 44.8267 128.471 44.688V43.648C128.749 43.7867 129.082 43.9167 129.472 44.038C129.871 44.1507 130.274 44.207 130.681 44.207C131.262 44.207 131.682 44.116 131.942 43.934C132.202 43.7433 132.332 43.492 132.332 43.18C132.332 43.0067 132.285 42.8507 132.189 42.712C132.094 42.5733 131.921 42.4347 131.669 42.296C131.427 42.1573 131.076 42.0013 130.616 41.828C130.166 41.6547 129.78 41.4813 129.459 41.308C129.139 41.1347 128.892 40.9267 128.718 40.684C128.545 40.4413 128.458 40.1293 128.458 39.748C128.458 39.1587 128.697 38.7037 129.173 38.383C129.659 38.0623 130.291 37.902 131.071 37.902C131.496 37.902 131.89 37.9453 132.254 38.032C132.627 38.11 132.974 38.2227 133.294 38.37L132.904 39.28C132.714 39.1933 132.51 39.1197 132.293 39.059C132.085 38.9897 131.873 38.9377 131.656 38.903C131.44 38.8597 131.219 38.838 130.993 38.838C130.525 38.838 130.166 38.916 129.914 39.072C129.672 39.2193 129.55 39.423 129.55 39.683C129.55 39.8737 129.607 40.0383 129.719 40.177C129.832 40.307 130.018 40.437 130.278 40.567C130.547 40.6883 130.902 40.8357 131.344 41.009C131.786 41.1737 132.163 41.3427 132.475 41.516C132.787 41.6893 133.026 41.9017 133.19 42.153C133.355 42.3957 133.437 42.7033 133.437 43.076ZM136.512 43.635C136.434 43.9383 136.334 44.2677 136.213 44.623C136.092 44.9783 135.957 45.3293 135.81 45.676C135.671 46.0313 135.533 46.365 135.394 46.677H134.549C134.636 46.3477 134.718 45.9923 134.796 45.611C134.883 45.2383 134.961 44.87 135.03 44.506C135.099 44.1333 135.156 43.7953 135.199 43.492H136.421L136.512 43.635ZM146.514 43.076C146.514 43.5267 146.401 43.9037 146.176 44.207C145.95 44.5103 145.63 44.74 145.214 44.896C144.798 45.052 144.304 45.13 143.732 45.13C143.246 45.13 142.826 45.091 142.471 45.013C142.124 44.935 141.816 44.8267 141.548 44.688V43.648C141.825 43.7867 142.159 43.9167 142.549 44.038C142.947 44.1507 143.35 44.207 143.758 44.207C144.338 44.207 144.759 44.116 145.019 43.934C145.279 43.7433 145.409 43.492 145.409 43.18C145.409 43.0067 145.361 42.8507 145.266 42.712C145.17 42.5733 144.997 42.4347 144.746 42.296C144.503 42.1573 144.152 42.0013 143.693 41.828C143.242 41.6547 142.856 41.4813 142.536 41.308C142.215 41.1347 141.968 40.9267 141.795 40.684C141.621 40.4413 141.535 40.1293 141.535 39.748C141.535 39.1587 141.773 38.7037 142.25 38.383C142.735 38.0623 143.368 37.902 144.148 37.902C144.572 37.902 144.967 37.9453 145.331 38.032C145.703 38.11 146.05 38.2227 146.371 38.37L145.981 39.28C145.79 39.1933 145.586 39.1197 145.37 39.059C145.162 38.9897 144.949 38.9377 144.733 38.903C144.516 38.8597 144.295 38.838 144.07 38.838C143.602 38.838 143.242 38.916 142.991 39.072C142.748 39.2193 142.627 39.423 142.627 39.683C142.627 39.8737 142.683 40.0383 142.796 40.177C142.908 40.307 143.095 40.437 143.355 40.567C143.623 40.6883 143.979 40.8357 144.421 41.009C144.863 41.1737 145.24 41.3427 145.552 41.516C145.864 41.6893 146.102 41.9017 146.267 42.153C146.431 42.3957 146.514 42.7033 146.514 43.076ZM150.888 37.902C151.486 37.902 151.998 38.032 152.422 38.292C152.856 38.552 153.185 38.9203 153.41 39.397C153.644 39.865 153.761 40.4153 153.761 41.048V41.737H148.99C149.008 42.5257 149.207 43.128 149.588 43.544C149.978 43.9513 150.52 44.155 151.213 44.155C151.655 44.155 152.045 44.116 152.383 44.038C152.73 43.9513 153.085 43.83 153.449 43.674V44.675C153.094 44.831 152.743 44.9437 152.396 45.013C152.05 45.091 151.638 45.13 151.161 45.13C150.503 45.13 149.918 44.9957 149.406 44.727C148.904 44.4583 148.509 44.0597 148.223 43.531C147.946 42.9937 147.807 42.3393 147.807 41.568C147.807 40.8053 147.933 40.151 148.184 39.605C148.444 39.059 148.804 38.6387 149.263 38.344C149.731 38.0493 150.273 37.902 150.888 37.902ZM150.875 38.838C150.329 38.838 149.896 39.0157 149.575 39.371C149.263 39.7177 149.077 40.203 149.016 40.827H152.565C152.565 40.4283 152.505 40.0817 152.383 39.787C152.262 39.4923 152.076 39.2627 151.824 39.098C151.582 38.9247 151.265 38.838 150.875 38.838ZM158.33 45.13C157.715 45.13 157.165 45.0043 156.679 44.753C156.203 44.5017 155.826 44.1117 155.548 43.583C155.28 43.0543 155.145 42.3783 155.145 41.555C155.145 40.697 155.288 39.9993 155.574 39.462C155.86 38.9247 156.246 38.5303 156.731 38.279C157.225 38.0277 157.784 37.902 158.408 37.902C158.764 37.902 159.106 37.941 159.435 38.019C159.765 38.0883 160.033 38.175 160.241 38.279L159.89 39.228C159.682 39.15 159.44 39.0763 159.162 39.007C158.885 38.9377 158.625 38.903 158.382 38.903C157.914 38.903 157.529 39.0027 157.225 39.202C156.922 39.4013 156.697 39.696 156.549 40.086C156.402 40.476 156.328 40.9613 156.328 41.542C156.328 42.0967 156.402 42.569 156.549 42.959C156.697 43.349 156.918 43.6437 157.212 43.843C157.507 44.0423 157.875 44.142 158.317 44.142C158.699 44.142 159.032 44.103 159.318 44.025C159.613 43.947 159.882 43.8517 160.124 43.739V44.753C159.89 44.8743 159.63 44.9653 159.344 45.026C159.067 45.0953 158.729 45.13 158.33 45.13ZM167.839 41.503C167.839 42.0837 167.761 42.5993 167.605 43.05C167.458 43.492 167.241 43.869 166.955 44.181C166.678 44.493 166.336 44.7313 165.928 44.896C165.53 45.052 165.083 45.13 164.589 45.13C164.13 45.13 163.705 45.052 163.315 44.896C162.925 44.7313 162.587 44.493 162.301 44.181C162.015 43.869 161.79 43.492 161.625 43.05C161.469 42.5993 161.391 42.0837 161.391 41.503C161.391 40.7317 161.521 40.0817 161.781 39.553C162.041 39.0157 162.414 38.6083 162.899 38.331C163.385 38.045 163.961 37.902 164.628 37.902C165.261 37.902 165.816 38.045 166.292 38.331C166.778 38.6083 167.155 39.0157 167.423 39.553C167.701 40.0817 167.839 40.7317 167.839 41.503ZM162.574 41.503C162.574 42.049 162.644 42.5257 162.782 42.933C162.93 43.3317 163.155 43.6393 163.458 43.856C163.762 44.0727 164.147 44.181 164.615 44.181C165.083 44.181 165.469 44.0727 165.772 43.856C166.076 43.6393 166.297 43.3317 166.435 42.933C166.583 42.5257 166.656 42.049 166.656 41.503C166.656 40.9483 166.583 40.476 166.435 40.086C166.288 39.696 166.063 39.397 165.759 39.189C165.465 38.9723 165.079 38.864 164.602 38.864C163.892 38.864 163.376 39.098 163.055 39.566C162.735 40.034 162.574 40.6797 162.574 41.503ZM173.006 37.902C173.838 37.902 174.467 38.1057 174.891 38.513C175.316 38.9117 175.528 39.5617 175.528 40.463V45H174.397V40.541C174.397 39.9777 174.272 39.5573 174.02 39.28C173.769 39.0027 173.375 38.864 172.837 38.864C172.066 38.864 171.533 39.0807 171.238 39.514C170.944 39.9473 170.796 40.5713 170.796 41.386V45H169.652V38.032H170.575L170.744 38.981H170.809C170.965 38.7383 171.156 38.539 171.381 38.383C171.615 38.2183 171.871 38.097 172.148 38.019C172.426 37.941 172.712 37.902 173.006 37.902ZM180.158 45.13C179.292 45.13 178.598 44.831 178.078 44.233C177.558 43.6263 177.298 42.725 177.298 41.529C177.298 40.333 177.558 39.4317 178.078 38.825C178.607 38.2097 179.305 37.902 180.171 37.902C180.535 37.902 180.852 37.9497 181.12 38.045C181.389 38.1317 181.623 38.253 181.822 38.409C182.022 38.565 182.191 38.7383 182.329 38.929H182.407C182.399 38.8163 182.381 38.6517 182.355 38.435C182.338 38.2097 182.329 38.032 182.329 37.902V35.12H183.473V45H182.55L182.381 44.064H182.329C182.191 44.2633 182.022 44.4453 181.822 44.61C181.623 44.766 181.385 44.8917 181.107 44.987C180.839 45.0823 180.522 45.13 180.158 45.13ZM180.34 44.181C181.077 44.181 181.593 43.9817 181.887 43.583C182.191 43.1757 182.342 42.5647 182.342 41.75V41.542C182.342 40.6753 182.199 40.0123 181.913 39.553C181.627 39.085 181.099 38.851 180.327 38.851C179.712 38.851 179.248 39.098 178.936 39.592C178.633 40.0773 178.481 40.7317 178.481 41.555C178.481 42.387 178.633 43.0327 178.936 43.492C179.248 43.9513 179.716 44.181 180.34 44.181ZM190.224 43.076C190.224 43.5267 190.111 43.9037 189.886 44.207C189.66 44.5103 189.34 44.74 188.924 44.896C188.508 45.052 188.014 45.13 187.442 45.13C186.956 45.13 186.536 45.091 186.181 45.013C185.834 44.935 185.526 44.8267 185.258 44.688V43.648C185.535 43.7867 185.869 43.9167 186.259 44.038C186.657 44.1507 187.06 44.207 187.468 44.207C188.048 44.207 188.469 44.116 188.729 43.934C188.989 43.7433 189.119 43.492 189.119 43.18C189.119 43.0067 189.071 42.8507 188.976 42.712C188.88 42.5733 188.707 42.4347 188.456 42.296C188.213 42.1573 187.862 42.0013 187.403 41.828C186.952 41.6547 186.566 41.4813 186.246 41.308C185.925 41.1347 185.678 40.9267 185.505 40.684C185.331 40.4413 185.245 40.1293 185.245 39.748C185.245 39.1587 185.483 38.7037 185.96 38.383C186.445 38.0623 187.078 37.902 187.858 37.902C188.282 37.902 188.677 37.9453 189.041 38.032C189.413 38.11 189.76 38.2227 190.081 38.37L189.691 39.28C189.5 39.1933 189.296 39.1197 189.08 39.059C188.872 38.9897 188.659 38.9377 188.443 38.903C188.226 38.8597 188.005 38.838 187.78 38.838C187.312 38.838 186.952 38.916 186.701 39.072C186.458 39.2193 186.337 39.423 186.337 39.683C186.337 39.8737 186.393 40.0383 186.506 40.177C186.618 40.307 186.805 40.437 187.065 40.567C187.333 40.6883 187.689 40.8357 188.131 41.009C188.573 41.1737 188.95 41.3427 189.262 41.516C189.574 41.6893 189.812 41.9017 189.977 42.153C190.141 42.3957 190.224 42.7033 190.224 43.076Z" fill="#161616"/>
<g clip-path="url(#clip0_8_1807)">
<rect x="199.5" y="20.5" width="159" height="39" fill="white" stroke="#D9D9D9"/>
<path d="M217.595 37.945C217.595 38.135 217.585 38.33 217.565 38.53C217.555 38.73 217.54 38.91 217.52 39.07H217.61C217.78 38.79 217.995 38.56 218.255 38.38C218.515 38.2 218.805 38.065 219.125 37.975C219.445 37.875 219.775 37.825 220.115 37.825C220.765 37.825 221.305 37.93 221.735 38.14C222.175 38.34 222.505 38.655 222.725 39.085C222.945 39.515 223.055 40.075 223.055 40.765V46H221.75V40.855C221.75 40.205 221.605 39.72 221.315 39.4C221.025 39.08 220.57 38.92 219.95 38.92C219.35 38.92 218.88 39.035 218.54 39.265C218.2 39.485 217.955 39.815 217.805 40.255C217.665 40.685 217.595 41.215 217.595 41.845V46H216.275V34.6H217.595V37.945ZM227.867 37.945C227.867 38.135 227.857 38.33 227.837 38.53C227.827 38.73 227.812 38.91 227.792 39.07H227.882C228.052 38.79 228.267 38.56 228.527 38.38C228.787 38.2 229.077 38.065 229.397 37.975C229.717 37.875 230.047 37.825 230.387 37.825C231.037 37.825 231.577 37.93 232.007 38.14C232.447 38.34 232.777 38.655 232.997 39.085C233.217 39.515 233.327 40.075 233.327 40.765V46H232.022V40.855C232.022 40.205 231.877 39.72 231.587 39.4C231.297 39.08 230.842 38.92 230.222 38.92C229.622 38.92 229.152 39.035 228.812 39.265C228.472 39.485 228.227 39.815 228.077 40.255C227.937 40.685 227.867 41.215 227.867 41.845V46H226.547V34.6H227.867V37.945ZM236.625 45.19C236.625 44.82 236.715 44.56 236.895 44.41C237.075 44.26 237.29 44.185 237.54 44.185C237.8 44.185 238.02 44.26 238.2 44.41C238.39 44.56 238.485 44.82 238.485 45.19C238.485 45.55 238.39 45.81 238.2 45.97C238.02 46.13 237.8 46.21 237.54 46.21C237.29 46.21 237.075 46.13 236.895 45.97C236.715 45.81 236.625 45.55 236.625 45.19ZM236.625 38.77C236.625 38.39 236.715 38.125 236.895 37.975C237.075 37.825 237.29 37.75 237.54 37.75C237.8 37.75 238.02 37.825 238.2 37.975C238.39 38.125 238.485 38.39 238.485 38.77C238.485 39.13 238.39 39.39 238.2 39.55C238.02 39.71 237.8 39.79 237.54 39.79C237.29 39.79 237.075 39.71 236.895 39.55C236.715 39.39 236.625 39.13 236.625 38.77ZM250.654 37.81C251.564 37.81 252.244 38.045 252.694 38.515C253.144 38.975 253.369 39.725 253.369 40.765V46H252.064V40.825C252.064 40.195 251.929 39.72 251.659 39.4C251.399 39.08 250.989 38.92 250.429 38.92C249.649 38.92 249.089 39.145 248.749 39.595C248.419 40.045 248.254 40.7 248.254 41.56V46H246.949V40.825C246.949 40.405 246.889 40.055 246.769 39.775C246.649 39.485 246.469 39.27 246.229 39.13C245.989 38.99 245.679 38.92 245.299 38.92C244.759 38.92 244.334 39.035 244.024 39.265C243.714 39.485 243.489 39.81 243.349 40.24C243.219 40.67 243.154 41.2 243.154 41.83V46H241.834V37.96H242.899L243.094 39.055H243.169C243.339 38.775 243.544 38.545 243.784 38.365C244.034 38.175 244.309 38.035 244.609 37.945C244.909 37.855 245.219 37.81 245.539 37.81C246.159 37.81 246.674 37.92 247.084 38.14C247.504 38.36 247.809 38.7 247.999 39.16H248.074C248.344 38.7 248.709 38.36 249.169 38.14C249.639 37.92 250.134 37.81 250.654 37.81ZM265.672 37.81C266.582 37.81 267.262 38.045 267.712 38.515C268.162 38.975 268.387 39.725 268.387 40.765V46H267.082V40.825C267.082 40.195 266.947 39.72 266.677 39.4C266.417 39.08 266.007 38.92 265.447 38.92C264.667 38.92 264.107 39.145 263.767 39.595C263.437 40.045 263.272 40.7 263.272 41.56V46H261.967V40.825C261.967 40.405 261.907 40.055 261.787 39.775C261.667 39.485 261.487 39.27 261.247 39.13C261.007 38.99 260.697 38.92 260.317 38.92C259.777 38.92 259.352 39.035 259.042 39.265C258.732 39.485 258.507 39.81 258.367 40.24C258.237 40.67 258.172 41.2 258.172 41.83V46H256.852V37.96H257.917L258.112 39.055H258.187C258.357 38.775 258.562 38.545 258.802 38.365C259.052 38.175 259.327 38.035 259.627 37.945C259.927 37.855 260.237 37.81 260.557 37.81C261.177 37.81 261.692 37.92 262.102 38.14C262.522 38.36 262.827 38.7 263.017 39.16H263.092C263.362 38.7 263.727 38.36 264.187 38.14C264.657 37.92 265.152 37.81 265.672 37.81ZM271.676 45.19C271.676 44.82 271.766 44.56 271.946 44.41C272.126 44.26 272.341 44.185 272.591 44.185C272.851 44.185 273.071 44.26 273.251 44.41C273.441 44.56 273.536 44.82 273.536 45.19C273.536 45.55 273.441 45.81 273.251 45.97C273.071 46.13 272.851 46.21 272.591 46.21C272.341 46.21 272.126 46.13 271.946 45.97C271.766 45.81 271.676 45.55 271.676 45.19ZM271.676 38.77C271.676 38.39 271.766 38.125 271.946 37.975C272.126 37.825 272.341 37.75 272.591 37.75C272.851 37.75 273.071 37.825 273.251 37.975C273.441 38.125 273.536 38.39 273.536 38.77C273.536 39.13 273.441 39.39 273.251 39.55C273.071 39.71 272.851 39.79 272.591 39.79C272.341 39.79 272.126 39.71 271.946 39.55C271.766 39.39 271.676 39.13 271.676 38.77ZM282.119 43.78C282.119 44.3 281.989 44.735 281.729 45.085C281.469 45.435 281.099 45.7 280.619 45.88C280.139 46.06 279.569 46.15 278.909 46.15C278.349 46.15 277.864 46.105 277.454 46.015C277.054 45.925 276.699 45.8 276.389 45.64V44.44C276.709 44.6 277.094 44.75 277.544 44.89C278.004 45.02 278.469 45.085 278.939 45.085C279.609 45.085 280.094 44.98 280.394 44.77C280.694 44.55 280.844 44.26 280.844 43.9C280.844 43.7 280.789 43.52 280.679 43.36C280.569 43.2 280.369 43.04 280.079 42.88C279.799 42.72 279.394 42.54 278.864 42.34C278.344 42.14 277.899 41.94 277.529 41.74C277.159 41.54 276.874 41.3 276.674 41.02C276.474 40.74 276.374 40.38 276.374 39.94C276.374 39.26 276.649 38.735 277.199 38.365C277.759 37.995 278.489 37.81 279.389 37.81C279.879 37.81 280.334 37.86 280.754 37.96C281.184 38.05 281.584 38.18 281.954 38.35L281.504 39.4C281.284 39.3 281.049 39.215 280.799 39.145C280.559 39.065 280.314 39.005 280.064 38.965C279.814 38.915 279.559 38.89 279.299 38.89C278.759 38.89 278.344 38.98 278.054 39.16C277.774 39.33 277.634 39.565 277.634 39.865C277.634 40.085 277.699 40.275 277.829 40.435C277.959 40.585 278.174 40.735 278.474 40.885C278.784 41.025 279.194 41.195 279.704 41.395C280.214 41.585 280.649 41.78 281.009 41.98C281.369 42.18 281.644 42.425 281.834 42.715C282.024 42.995 282.119 43.35 282.119 43.78ZM290.297 43.78C290.297 44.3 290.167 44.735 289.907 45.085C289.647 45.435 289.277 45.7 288.797 45.88C288.317 46.06 287.747 46.15 287.087 46.15C286.527 46.15 286.042 46.105 285.632 46.015C285.232 45.925 284.877 45.8 284.567 45.64V44.44C284.887 44.6 285.272 44.75 285.722 44.89C286.182 45.02 286.647 45.085 287.117 45.085C287.787 45.085 288.272 44.98 288.572 44.77C288.872 44.55 289.022 44.26 289.022 43.9C289.022 43.7 288.967 43.52 288.857 43.36C288.747 43.2 288.547 43.04 288.257 42.88C287.977 42.72 287.572 42.54 287.042 42.34C286.522 42.14 286.077 41.94 285.707 41.74C285.337 41.54 285.052 41.3 284.852 41.02C284.652 40.74 284.552 40.38 284.552 39.94C284.552 39.26 284.827 38.735 285.377 38.365C285.937 37.995 286.667 37.81 287.567 37.81C288.057 37.81 288.512 37.86 288.932 37.96C289.362 38.05 289.762 38.18 290.132 38.35L289.682 39.4C289.462 39.3 289.227 39.215 288.977 39.145C288.737 39.065 288.492 39.005 288.242 38.965C287.992 38.915 287.737 38.89 287.477 38.89C286.937 38.89 286.522 38.98 286.232 39.16C285.952 39.33 285.812 39.565 285.812 39.865C285.812 40.085 285.877 40.275 286.007 40.435C286.137 40.585 286.352 40.735 286.652 40.885C286.962 41.025 287.372 41.195 287.882 41.395C288.392 41.585 288.827 41.78 289.187 41.98C289.547 42.18 289.822 42.425 290.012 42.715C290.202 42.995 290.297 43.35 290.297 43.78Z" fill="#8F8F8F"/>
<path d="M335 33C338.866 33 342 36.134 342 40C342 43.866 338.866 47 335 47C331.134 47 328 43.866 328 40C328 36.134 331.134 33 335 33ZM335 34.5C331.962 34.5 329.5 36.9624 329.5 40C329.5 43.0376 331.962 45.5 335 45.5C338.038 45.5 340.5 43.0376 340.5 40C340.5 36.9624 338.038 34.5 335 34.5ZM335.5 39.75H338.5V41.25H334V36.5H335.5V39.75Z" fill="#8F8F8F"/>
</g>
<path d="M48.359 97H47.189V92.671H42.431V97H41.261V87.718H42.431V91.644H47.189V87.718H48.359V97ZM56.7987 93.503C56.7987 94.0837 56.7207 94.5993 56.5647 95.05C56.4174 95.492 56.2007 95.869 55.9147 96.181C55.6374 96.493 55.2951 96.7313 54.8877 96.896C54.4891 97.052 54.0427 97.13 53.5487 97.13C53.0894 97.13 52.6647 97.052 52.2747 96.896C51.8847 96.7313 51.5467 96.493 51.2607 96.181C50.9747 95.869 50.7494 95.492 50.5847 95.05C50.4287 94.5993 50.3507 94.0837 50.3507 93.503C50.3507 92.7317 50.4807 92.0817 50.7407 91.553C51.0007 91.0157 51.3734 90.6083 51.8587 90.331C52.3441 90.045 52.9204 89.902 53.5877 89.902C54.2204 89.902 54.7751 90.045 55.2517 90.331C55.7371 90.6083 56.1141 91.0157 56.3827 91.553C56.6601 92.0817 56.7987 92.7317 56.7987 93.503ZM51.5337 93.503C51.5337 94.049 51.6031 94.5257 51.7417 94.933C51.8891 95.3317 52.1144 95.6393 52.4177 95.856C52.7211 96.0727 53.1067 96.181 53.5747 96.181C54.0427 96.181 54.4284 96.0727 54.7317 95.856C55.0351 95.6393 55.2561 95.3317 55.3947 94.933C55.5421 94.5257 55.6157 94.049 55.6157 93.503C55.6157 92.9483 55.5421 92.476 55.3947 92.086C55.2474 91.696 55.0221 91.397 54.7187 91.189C54.4241 90.9723 54.0384 90.864 53.5617 90.864C52.8511 90.864 52.3354 91.098 52.0147 91.566C51.6941 92.034 51.5337 92.6797 51.5337 93.503ZM64.4358 90.032V97H63.4998L63.3308 96.077H63.2788C63.1315 96.3197 62.9408 96.519 62.7068 96.675C62.4728 96.831 62.2172 96.9437 61.9398 97.013C61.6625 97.091 61.3722 97.13 61.0688 97.13C60.5142 97.13 60.0462 97.0433 59.6648 96.87C59.2922 96.688 59.0105 96.4107 58.8198 96.038C58.6292 95.6653 58.5338 95.1843 58.5338 94.595V90.032H59.6908V94.517C59.6908 95.0717 59.8165 95.4877 60.0678 95.765C60.3192 96.0423 60.7092 96.181 61.2378 96.181C61.7578 96.181 62.1652 96.0857 62.4598 95.895C62.7632 95.6957 62.9755 95.4097 63.0968 95.037C63.2268 94.6557 63.2918 94.1963 63.2918 93.659V90.032H64.4358ZM69.898 89.902C70.028 89.902 70.1666 89.9107 70.314 89.928C70.47 89.9367 70.6043 89.954 70.717 89.98L70.574 91.033C70.4613 91.007 70.3356 90.9853 70.197 90.968C70.067 90.9507 69.9413 90.942 69.82 90.942C69.5513 90.942 69.2956 90.9983 69.053 91.111C68.8103 91.2237 68.5936 91.384 68.403 91.592C68.2123 91.7913 68.0606 92.034 67.948 92.32C67.844 92.606 67.792 92.9267 67.792 93.282V97H66.648V90.032H67.584L67.714 91.306H67.766C67.9133 91.046 68.091 90.812 68.299 90.604C68.507 90.3873 68.7453 90.2183 69.014 90.097C69.2826 89.967 69.5773 89.902 69.898 89.902ZM76.5551 95.076C76.5551 95.5267 76.4424 95.9037 76.2171 96.207C75.9918 96.5103 75.6711 96.74 75.2551 96.896C74.8391 97.052 74.3451 97.13 73.7731 97.13C73.2878 97.13 72.8674 97.091 72.5121 97.013C72.1654 96.935 71.8578 96.8267 71.5891 96.688V95.648C71.8664 95.7867 72.2001 95.9167 72.5901 96.038C72.9888 96.1507 73.3918 96.207 73.7991 96.207C74.3798 96.207 74.8001 96.116 75.0601 95.934C75.3201 95.7433 75.4501 95.492 75.4501 95.18C75.4501 95.0067 75.4024 94.8507 75.3071 94.712C75.2118 94.5733 75.0384 94.4347 74.7871 94.296C74.5444 94.1573 74.1934 94.0013 73.7341 93.828C73.2834 93.6547 72.8978 93.4813 72.5771 93.308C72.2564 93.1347 72.0094 92.9267 71.8361 92.684C71.6628 92.4413 71.5761 92.1293 71.5761 91.748C71.5761 91.1587 71.8144 90.7037 72.2911 90.383C72.7764 90.0623 73.4091 89.902 74.1891 89.902C74.6138 89.902 75.0081 89.9453 75.3721 90.032C75.7448 90.11 76.0914 90.2227 76.4121 90.37L76.0221 91.28C75.8314 91.1933 75.6278 91.1197 75.4111 91.059C75.2031 90.9897 74.9908 90.9377 74.7741 90.903C74.5574 90.8597 74.3364 90.838 74.1111 90.838C73.6431 90.838 73.2834 90.916 73.0321 91.072C72.7894 91.2193 72.6681 91.423 72.6681 91.683C72.6681 91.8737 72.7244 92.0383 72.8371 92.177C72.9498 92.307 73.1361 92.437 73.3961 92.567C73.6648 92.6883 74.0201 92.8357 74.4621 93.009C74.9041 93.1737 75.2811 93.3427 75.5931 93.516C75.9051 93.6893 76.1434 93.9017 76.3081 94.153C76.4728 94.3957 76.5551 94.7033 76.5551 95.076ZM79.6298 95.635C79.5518 95.9383 79.4521 96.2677 79.3308 96.623C79.2095 96.9783 79.0751 97.3293 78.9278 97.676C78.7891 98.0313 78.6505 98.365 78.5118 98.677H77.6668C77.7535 98.3477 77.8358 97.9923 77.9138 97.611C78.0005 97.2383 78.0785 96.87 78.1478 96.506C78.2171 96.1333 78.2735 95.7953 78.3168 95.492H79.5388L79.6298 95.635ZM92.7383 89.902C93.5269 89.902 94.1163 90.1057 94.5063 90.513C94.8963 90.9117 95.0913 91.5617 95.0913 92.463V97H93.9603V92.515C93.9603 91.969 93.8433 91.5573 93.6093 91.28C93.3839 91.0027 93.0286 90.864 92.5433 90.864C91.8673 90.864 91.3819 91.059 91.0873 91.449C90.8013 91.839 90.6583 92.4067 90.6583 93.152V97H89.5273V92.515C89.5273 92.151 89.4753 91.8477 89.3713 91.605C89.2673 91.3537 89.1113 91.1673 88.9033 91.046C88.6953 90.9247 88.4266 90.864 88.0973 90.864C87.6293 90.864 87.2609 90.9637 86.9923 91.163C86.7236 91.3537 86.5286 91.6353 86.4073 92.008C86.2946 92.3807 86.2383 92.84 86.2383 93.386V97H85.0943V90.032H86.0173L86.1863 90.981H86.2513C86.3986 90.7383 86.5763 90.539 86.7843 90.383C87.0009 90.2183 87.2393 90.097 87.4993 90.019C87.7593 89.941 88.0279 89.902 88.3053 89.902C88.8426 89.902 89.2889 89.9973 89.6443 90.188C90.0083 90.3787 90.2726 90.6733 90.4373 91.072H90.5023C90.7363 90.6733 91.0526 90.3787 91.4513 90.188C91.8586 89.9973 92.2876 89.902 92.7383 89.902ZM98.3877 90.032V97H97.2437V90.032H98.3877ZM97.8287 87.419C98.002 87.419 98.1537 87.4797 98.2837 87.601C98.4223 87.7137 98.4917 87.8957 98.4917 88.147C98.4917 88.3897 98.4223 88.5717 98.2837 88.693C98.1537 88.8143 98.002 88.875 97.8287 88.875C97.638 88.875 97.4777 88.8143 97.3477 88.693C97.2177 88.5717 97.1527 88.3897 97.1527 88.147C97.1527 87.8957 97.2177 87.7137 97.3477 87.601C97.4777 87.4797 97.638 87.419 97.8287 87.419ZM103.949 89.902C104.781 89.902 105.41 90.1057 105.834 90.513C106.259 90.9117 106.471 91.5617 106.471 92.463V97H105.34V92.541C105.34 91.9777 105.215 91.5573 104.963 91.28C104.712 91.0027 104.318 90.864 103.78 90.864C103.009 90.864 102.476 91.0807 102.181 91.514C101.887 91.9473 101.739 92.5713 101.739 93.386V97H100.595V90.032H101.518L101.687 90.981H101.752C101.908 90.7383 102.099 90.539 102.324 90.383C102.558 90.2183 102.814 90.097 103.091 90.019C103.369 89.941 103.655 89.902 103.949 89.902ZM114.455 90.032V97H113.519L113.35 96.077H113.298C113.151 96.3197 112.96 96.519 112.726 96.675C112.492 96.831 112.237 96.9437 111.959 97.013C111.682 97.091 111.392 97.13 111.088 97.13C110.534 97.13 110.066 97.0433 109.684 96.87C109.312 96.688 109.03 96.4107 108.839 96.038C108.649 95.6653 108.553 95.1843 108.553 94.595V90.032H109.71V94.517C109.71 95.0717 109.836 95.4877 110.087 95.765C110.339 96.0423 110.729 96.181 111.257 96.181C111.777 96.181 112.185 96.0857 112.479 95.895C112.783 95.6957 112.995 95.4097 113.116 95.037C113.246 94.6557 113.311 94.1963 113.311 93.659V90.032H114.455ZM118.994 96.194C119.168 96.194 119.346 96.181 119.528 96.155C119.71 96.1203 119.857 96.0857 119.97 96.051V96.922C119.848 96.9827 119.675 97.0303 119.45 97.065C119.224 97.1083 119.008 97.13 118.8 97.13C118.436 97.13 118.098 97.0693 117.786 96.948C117.482 96.818 117.235 96.597 117.045 96.285C116.854 95.973 116.759 95.5353 116.759 94.972V90.916H115.771V90.37L116.772 89.915L117.227 88.433H117.903V90.032H119.918V90.916H117.903V94.946C117.903 95.3707 118.002 95.687 118.202 95.895C118.41 96.0943 118.674 96.194 118.994 96.194ZM124.056 89.902C124.654 89.902 125.165 90.032 125.59 90.292C126.023 90.552 126.352 90.9203 126.578 91.397C126.812 91.865 126.929 92.4153 126.929 93.048V93.737H122.158C122.175 94.5257 122.374 95.128 122.756 95.544C123.146 95.9513 123.687 96.155 124.381 96.155C124.823 96.155 125.213 96.116 125.551 96.038C125.897 95.9513 126.253 95.83 126.617 95.674V96.675C126.261 96.831 125.91 96.9437 125.564 97.013C125.217 97.091 124.805 97.13 124.329 97.13C123.67 97.13 123.085 96.9957 122.574 96.727C122.071 96.4583 121.677 96.0597 121.391 95.531C121.113 94.9937 120.975 94.3393 120.975 93.568C120.975 92.8053 121.1 92.151 121.352 91.605C121.612 91.059 121.971 90.6387 122.431 90.344C122.899 90.0493 123.44 89.902 124.056 89.902ZM124.043 90.838C123.497 90.838 123.063 91.0157 122.743 91.371C122.431 91.7177 122.244 92.203 122.184 92.827H125.733C125.733 92.4283 125.672 92.0817 125.551 91.787C125.429 91.4923 125.243 91.2627 124.992 91.098C124.749 90.9247 124.433 90.838 124.043 90.838ZM133.24 95.076C133.24 95.5267 133.127 95.9037 132.902 96.207C132.676 96.5103 132.356 96.74 131.94 96.896C131.524 97.052 131.03 97.13 130.458 97.13C129.972 97.13 129.552 97.091 129.197 97.013C128.85 96.935 128.542 96.8267 128.274 96.688V95.648C128.551 95.7867 128.885 95.9167 129.275 96.038C129.673 96.1507 130.076 96.207 130.484 96.207C131.064 96.207 131.485 96.116 131.745 95.934C132.005 95.7433 132.135 95.492 132.135 95.18C132.135 95.0067 132.087 94.8507 131.992 94.712C131.896 94.5733 131.723 94.4347 131.472 94.296C131.229 94.1573 130.878 94.0013 130.419 93.828C129.968 93.6547 129.582 93.4813 129.262 93.308C128.941 93.1347 128.694 92.9267 128.521 92.684C128.347 92.4413 128.261 92.1293 128.261 91.748C128.261 91.1587 128.499 90.7037 128.976 90.383C129.461 90.0623 130.094 89.902 130.874 89.902C131.298 89.902 131.693 89.9453 132.057 90.032C132.429 90.11 132.776 90.2227 133.097 90.37L132.707 91.28C132.516 91.1933 132.312 91.1197 132.096 91.059C131.888 90.9897 131.675 90.9377 131.459 90.903C131.242 90.8597 131.021 90.838 130.796 90.838C130.328 90.838 129.968 90.916 129.717 91.072C129.474 91.2193 129.353 91.423 129.353 91.683C129.353 91.8737 129.409 92.0383 129.522 92.177C129.634 92.307 129.821 92.437 130.081 92.567C130.349 92.6883 130.705 92.8357 131.147 93.009C131.589 93.1737 131.966 93.3427 132.278 93.516C132.59 93.6893 132.828 93.9017 132.993 94.153C133.157 94.3957 133.24 94.7033 133.24 95.076Z" fill="#161616"/>
<g clip-path="url(#clip1_8_1807)">
<rect x="199.5" y="72.5" width="159" height="39" fill="white" stroke="#D9D9D9"/>
<path d="M217.595 89.945C217.595 90.135 217.585 90.33 217.565 90.53C217.555 90.73 217.54 90.91 217.52 91.07H217.61C217.78 90.79 217.995 90.56 218.255 90.38C218.515 90.2 218.805 90.065 219.125 89.975C219.445 89.875 219.775 89.825 220.115 89.825C220.765 89.825 221.305 89.93 221.735 90.14C222.175 90.34 222.505 90.655 222.725 91.085C222.945 91.515 223.055 92.075 223.055 92.765V98H221.75V92.855C221.75 92.205 221.605 91.72 221.315 91.4C221.025 91.08 220.57 90.92 219.95 90.92C219.35 90.92 218.88 91.035 218.54 91.265C218.2 91.485 217.955 91.815 217.805 92.255C217.665 92.685 217.595 93.215 217.595 93.845V98H216.275V86.6H217.595V89.945ZM227.867 89.945C227.867 90.135 227.857 90.33 227.837 90.53C227.827 90.73 227.812 90.91 227.792 91.07H227.882C228.052 90.79 228.267 90.56 228.527 90.38C228.787 90.2 229.077 90.065 229.397 89.975C229.717 89.875 230.047 89.825 230.387 89.825C231.037 89.825 231.577 89.93 232.007 90.14C232.447 90.34 232.777 90.655 232.997 91.085C233.217 91.515 233.327 92.075 233.327 92.765V98H232.022V92.855C232.022 92.205 231.877 91.72 231.587 91.4C231.297 91.08 230.842 90.92 230.222 90.92C229.622 90.92 229.152 91.035 228.812 91.265C228.472 91.485 228.227 91.815 228.077 92.255C227.937 92.685 227.867 93.215 227.867 93.845V98H226.547V86.6H227.867V89.945ZM236.625 97.19C236.625 96.82 236.715 96.56 236.895 96.41C237.075 96.26 237.29 96.185 237.54 96.185C237.8 96.185 238.02 96.26 238.2 96.41C238.39 96.56 238.485 96.82 238.485 97.19C238.485 97.55 238.39 97.81 238.2 97.97C238.02 98.13 237.8 98.21 237.54 98.21C237.29 98.21 237.075 98.13 236.895 97.97C236.715 97.81 236.625 97.55 236.625 97.19ZM236.625 90.77C236.625 90.39 236.715 90.125 236.895 89.975C237.075 89.825 237.29 89.75 237.54 89.75C237.8 89.75 238.02 89.825 238.2 89.975C238.39 90.125 238.485 90.39 238.485 90.77C238.485 91.13 238.39 91.39 238.2 91.55C238.02 91.71 237.8 91.79 237.54 91.79C237.29 91.79 237.075 91.71 236.895 91.55C236.715 91.39 236.625 91.13 236.625 90.77ZM250.654 89.81C251.564 89.81 252.244 90.045 252.694 90.515C253.144 90.975 253.369 91.725 253.369 92.765V98H252.064V92.825C252.064 92.195 251.929 91.72 251.659 91.4C251.399 91.08 250.989 90.92 250.429 90.92C249.649 90.92 249.089 91.145 248.749 91.595C248.419 92.045 248.254 92.7 248.254 93.56V98H246.949V92.825C246.949 92.405 246.889 92.055 246.769 91.775C246.649 91.485 246.469 91.27 246.229 91.13C245.989 90.99 245.679 90.92 245.299 90.92C244.759 90.92 244.334 91.035 244.024 91.265C243.714 91.485 243.489 91.81 243.349 92.24C243.219 92.67 243.154 93.2 243.154 93.83V98H241.834V89.96H242.899L243.094 91.055H243.169C243.339 90.775 243.544 90.545 243.784 90.365C244.034 90.175 244.309 90.035 244.609 89.945C244.909 89.855 245.219 89.81 245.539 89.81C246.159 89.81 246.674 89.92 247.084 90.14C247.504 90.36 247.809 90.7 247.999 91.16H248.074C248.344 90.7 248.709 90.36 249.169 90.14C249.639 89.92 250.134 89.81 250.654 89.81ZM265.672 89.81C266.582 89.81 267.262 90.045 267.712 90.515C268.162 90.975 268.387 91.725 268.387 92.765V98H267.082V92.825C267.082 92.195 266.947 91.72 266.677 91.4C266.417 91.08 266.007 90.92 265.447 90.92C264.667 90.92 264.107 91.145 263.767 91.595C263.437 92.045 263.272 92.7 263.272 93.56V98H261.967V92.825C261.967 92.405 261.907 92.055 261.787 91.775C261.667 91.485 261.487 91.27 261.247 91.13C261.007 90.99 260.697 90.92 260.317 90.92C259.777 90.92 259.352 91.035 259.042 91.265C258.732 91.485 258.507 91.81 258.367 92.24C258.237 92.67 258.172 93.2 258.172 93.83V98H256.852V89.96H257.917L258.112 91.055H258.187C258.357 90.775 258.562 90.545 258.802 90.365C259.052 90.175 259.327 90.035 259.627 89.945C259.927 89.855 260.237 89.81 260.557 89.81C261.177 89.81 261.692 89.92 262.102 90.14C262.522 90.36 262.827 90.7 263.017 91.16H263.092C263.362 90.7 263.727 90.36 264.187 90.14C264.657 89.92 265.152 89.81 265.672 89.81Z" fill="#8F8F8F"/>
<path d="M335 85C338.866 85 342 88.134 342 92C342 95.866 338.866 99 335 99C331.134 99 328 95.866 328 92C328 88.134 331.134 85 335 85ZM335 86.5C331.962 86.5 329.5 88.9624 329.5 92C329.5 95.0376 331.962 97.5 335 97.5C338.038 97.5 340.5 95.0376 340.5 92C340.5 88.9624 338.038 86.5 335 86.5ZM335.5 91.75H338.5V93.25H334V88.5H335.5V91.75Z" fill="#8F8F8F"/>
</g>
<path d="M48.359 149H47.189V144.671H42.431V149H41.261V139.718H42.431V143.644H47.189V139.718H48.359V149ZM56.7987 145.503C56.7987 146.084 56.7207 146.599 56.5647 147.05C56.4174 147.492 56.2007 147.869 55.9147 148.181C55.6374 148.493 55.2951 148.731 54.8877 148.896C54.4891 149.052 54.0427 149.13 53.5487 149.13C53.0894 149.13 52.6647 149.052 52.2747 148.896C51.8847 148.731 51.5467 148.493 51.2607 148.181C50.9747 147.869 50.7494 147.492 50.5847 147.05C50.4287 146.599 50.3507 146.084 50.3507 145.503C50.3507 144.732 50.4807 144.082 50.7407 143.553C51.0007 143.016 51.3734 142.608 51.8587 142.331C52.3441 142.045 52.9204 141.902 53.5877 141.902C54.2204 141.902 54.7751 142.045 55.2517 142.331C55.7371 142.608 56.1141 143.016 56.3827 143.553C56.6601 144.082 56.7987 144.732 56.7987 145.503ZM51.5337 145.503C51.5337 146.049 51.6031 146.526 51.7417 146.933C51.8891 147.332 52.1144 147.639 52.4177 147.856C52.7211 148.073 53.1067 148.181 53.5747 148.181C54.0427 148.181 54.4284 148.073 54.7317 147.856C55.0351 147.639 55.2561 147.332 55.3947 146.933C55.5421 146.526 55.6157 146.049 55.6157 145.503C55.6157 144.948 55.5421 144.476 55.3947 144.086C55.2474 143.696 55.0221 143.397 54.7187 143.189C54.4241 142.972 54.0384 142.864 53.5617 142.864C52.8511 142.864 52.3354 143.098 52.0147 143.566C51.6941 144.034 51.5337 144.68 51.5337 145.503ZM64.4358 142.032V149H63.4998L63.3308 148.077H63.2788C63.1315 148.32 62.9408 148.519 62.7068 148.675C62.4728 148.831 62.2172 148.944 61.9398 149.013C61.6625 149.091 61.3722 149.13 61.0688 149.13C60.5142 149.13 60.0462 149.043 59.6648 148.87C59.2922 148.688 59.0105 148.411 58.8198 148.038C58.6292 147.665 58.5338 147.184 58.5338 146.595V142.032H59.6908V146.517C59.6908 147.072 59.8165 147.488 60.0678 147.765C60.3192 148.042 60.7092 148.181 61.2378 148.181C61.7578 148.181 62.1652 148.086 62.4598 147.895C62.7632 147.696 62.9755 147.41 63.0968 147.037C63.2268 146.656 63.2918 146.196 63.2918 145.659V142.032H64.4358ZM69.898 141.902C70.028 141.902 70.1666 141.911 70.314 141.928C70.47 141.937 70.6043 141.954 70.717 141.98L70.574 143.033C70.4613 143.007 70.3356 142.985 70.197 142.968C70.067 142.951 69.9413 142.942 69.82 142.942C69.5513 142.942 69.2956 142.998 69.053 143.111C68.8103 143.224 68.5936 143.384 68.403 143.592C68.2123 143.791 68.0606 144.034 67.948 144.32C67.844 144.606 67.792 144.927 67.792 145.282V149H66.648V142.032H67.584L67.714 143.306H67.766C67.9133 143.046 68.091 142.812 68.299 142.604C68.507 142.387 68.7453 142.218 69.014 142.097C69.2826 141.967 69.5773 141.902 69.898 141.902ZM76.5551 147.076C76.5551 147.527 76.4424 147.904 76.2171 148.207C75.9918 148.51 75.6711 148.74 75.2551 148.896C74.8391 149.052 74.3451 149.13 73.7731 149.13C73.2878 149.13 72.8674 149.091 72.5121 149.013C72.1654 148.935 71.8578 148.827 71.5891 148.688V147.648C71.8664 147.787 72.2001 147.917 72.5901 148.038C72.9888 148.151 73.3918 148.207 73.7991 148.207C74.3798 148.207 74.8001 148.116 75.0601 147.934C75.3201 147.743 75.4501 147.492 75.4501 147.18C75.4501 147.007 75.4024 146.851 75.3071 146.712C75.2118 146.573 75.0384 146.435 74.7871 146.296C74.5444 146.157 74.1934 146.001 73.7341 145.828C73.2834 145.655 72.8978 145.481 72.5771 145.308C72.2564 145.135 72.0094 144.927 71.8361 144.684C71.6628 144.441 71.5761 144.129 71.5761 143.748C71.5761 143.159 71.8144 142.704 72.2911 142.383C72.7764 142.062 73.4091 141.902 74.1891 141.902C74.6138 141.902 75.0081 141.945 75.3721 142.032C75.7448 142.11 76.0914 142.223 76.4121 142.37L76.0221 143.28C75.8314 143.193 75.6278 143.12 75.4111 143.059C75.2031 142.99 74.9908 142.938 74.7741 142.903C74.5574 142.86 74.3364 142.838 74.1111 142.838C73.6431 142.838 73.2834 142.916 73.0321 143.072C72.7894 143.219 72.6681 143.423 72.6681 143.683C72.6681 143.874 72.7244 144.038 72.8371 144.177C72.9498 144.307 73.1361 144.437 73.3961 144.567C73.6648 144.688 74.0201 144.836 74.4621 145.009C74.9041 145.174 75.2811 145.343 75.5931 145.516C75.9051 145.689 76.1434 145.902 76.3081 146.153C76.4728 146.396 76.5551 146.703 76.5551 147.076Z" fill="#161616"/>
<g clip-path="url(#clip2_8_1807)">
<rect x="199.5" y="124.5" width="159" height="39" fill="white" stroke="#D9D9D9"/>
<path d="M217.595 141.945C217.595 142.135 217.585 142.33 217.565 142.53C217.555 142.73 217.54 142.91 217.52 143.07H217.61C217.78 142.79 217.995 142.56 218.255 142.38C218.515 142.2 218.805 142.065 219.125 141.975C219.445 141.875 219.775 141.825 220.115 141.825C220.765 141.825 221.305 141.93 221.735 142.14C222.175 142.34 222.505 142.655 222.725 143.085C222.945 143.515 223.055 144.075 223.055 144.765V150H221.75V144.855C221.75 144.205 221.605 143.72 221.315 143.4C221.025 143.08 220.57 142.92 219.95 142.92C219.35 142.92 218.88 143.035 218.54 143.265C218.2 143.485 217.955 143.815 217.805 144.255C217.665 144.685 217.595 145.215 217.595 145.845V150H216.275V138.6H217.595V141.945ZM227.867 141.945C227.867 142.135 227.857 142.33 227.837 142.53C227.827 142.73 227.812 142.91 227.792 143.07H227.882C228.052 142.79 228.267 142.56 228.527 142.38C228.787 142.2 229.077 142.065 229.397 141.975C229.717 141.875 230.047 141.825 230.387 141.825C231.037 141.825 231.577 141.93 232.007 142.14C232.447 142.34 232.777 142.655 232.997 143.085C233.217 143.515 233.327 144.075 233.327 144.765V150H232.022V144.855C232.022 144.205 231.877 143.72 231.587 143.4C231.297 143.08 230.842 142.92 230.222 142.92C229.622 142.92 229.152 143.035 228.812 143.265C228.472 143.485 228.227 143.815 228.077 144.255C227.937 144.685 227.867 145.215 227.867 145.845V150H226.547V138.6H227.867V141.945Z" fill="#8F8F8F"/>
<path d="M335 137C338.866 137 342 140.134 342 144C342 147.866 338.866 151 335 151C331.134 151 328 147.866 328 144C328 140.134 331.134 137 335 137ZM335 138.5C331.962 138.5 329.5 140.962 329.5 144C329.5 147.038 331.962 149.5 335 149.5C338.038 149.5 340.5 147.038 340.5 144C340.5 140.962 338.038 138.5 335 138.5ZM335.5 143.75H338.5V145.25H334V140.5H335.5V143.75Z" fill="#8F8F8F"/>
</g>
<mask id="path-16-inside-2_8_1807" fill="white">
<path d="M0 184H780V230C780 231.105 779.105 232 778 232H1.99998C0.895407 232 0 231.105 0 230V184Z"/>
</mask>
<path d="M0 184H780V230C780 231.105 779.105 232 778 232H1.99998C0.895407 232 0 231.105 0 230V184Z" fill="#E7E7E7"/>
<path d="M0 184H780H0ZM781 230C781 231.657 779.657 233 778 233H2C0.343146 233 -1 231.657 -1 230H1C1 230.552 1.44772 231 2 231H778C778.552 231 779 230.552 779 230H781ZM2 233C0.343146 233 -1 231.657 -1 230V184H1V230C1 230.552 1.44772 231 2 231V233ZM781 184V230C781 231.657 779.657 233 778 233V231C778.552 231 779 230.552 779 230V184H781Z" fill="#D9D9D9" mask="url(#path-16-inside-2_8_1807)"/>
<path fill-rule="evenodd" clip-rule="evenodd" d="M36.0005 212L29 204.98L29.9762 204H29.9781L36.0005 210.041L42.0238 204H42.0258L43 204.979V204.981L36.0005 212Z" fill="#4457CA"/>
<path d="M59.575 211.105C59.575 211.745 59.42 212.29 59.11 212.74C58.8 213.19 58.355 213.54 57.775 213.79C57.195 214.03 56.505 214.15 55.705 214.15C55.315 214.15 54.94 214.125 54.58 214.075C54.22 214.035 53.885 213.975 53.575 213.895C53.265 213.815 52.99 213.715 52.75 213.595V212.065C53.15 212.245 53.62 212.41 54.16 212.56C54.7 212.7 55.25 212.77 55.81 212.77C56.29 212.77 56.69 212.705 57.01 212.575C57.33 212.445 57.57 212.265 57.73 212.035C57.89 211.805 57.97 211.535 57.97 211.225C57.97 210.895 57.885 210.62 57.715 210.4C57.555 210.17 57.3 209.96 56.95 209.77C56.61 209.57 56.15 209.36 55.57 209.14C55.17 208.99 54.805 208.825 54.475 208.645C54.155 208.455 53.87 208.235 53.62 207.985C53.38 207.735 53.195 207.445 53.065 207.115C52.935 206.785 52.87 206.4 52.87 205.96C52.87 205.37 53.015 204.865 53.305 204.445C53.605 204.025 54.015 203.705 54.535 203.485C55.055 203.255 55.66 203.14 56.35 203.14C56.93 203.14 57.465 203.2 57.955 203.32C58.455 203.43 58.93 203.585 59.38 203.785L58.87 205.12C58.46 204.95 58.045 204.81 57.625 204.7C57.205 204.59 56.765 204.535 56.305 204.535C55.905 204.535 55.57 204.595 55.3 204.715C55.03 204.835 54.825 205 54.685 205.21C54.555 205.42 54.49 205.665 54.49 205.945C54.49 206.275 54.565 206.55 54.715 206.77C54.865 206.99 55.105 207.195 55.435 207.385C55.765 207.565 56.2 207.765 56.74 207.985C57.34 208.215 57.85 208.465 58.27 208.735C58.7 209.005 59.025 209.33 59.245 209.71C59.465 210.08 59.575 210.545 59.575 211.105ZM63.0821 205.645C63.0821 205.895 63.0721 206.145 63.0521 206.395C63.0321 206.645 63.0121 206.85 62.9921 207.01H63.0971C63.2671 206.73 63.4771 206.5 63.7271 206.32C63.9871 206.14 64.2721 206.005 64.5821 205.915C64.9021 205.825 65.2271 205.78 65.5571 205.78C66.1971 205.78 66.7321 205.885 67.1621 206.095C67.6021 206.295 67.9321 206.615 68.1521 207.055C68.3821 207.485 68.4971 208.045 68.4971 208.735V214H66.9221V208.96C66.9221 208.33 66.7871 207.86 66.5171 207.55C66.2571 207.23 65.8371 207.07 65.2571 207.07C64.7071 207.07 64.2721 207.18 63.9521 207.4C63.6421 207.62 63.4171 207.945 63.2771 208.375C63.1471 208.795 63.0821 209.315 63.0821 209.935V214H61.4921V202.6H63.0821V205.645ZM78.0653 209.95C78.0653 210.62 77.9753 211.215 77.7953 211.735C77.6153 212.255 77.3603 212.695 77.0303 213.055C76.7003 213.415 76.3003 213.69 75.8303 213.88C75.3603 214.06 74.8303 214.15 74.2403 214.15C73.7003 214.15 73.2003 214.06 72.7403 213.88C72.2803 213.69 71.8803 213.415 71.5403 213.055C71.2103 212.695 70.9503 212.255 70.7603 211.735C70.5703 211.215 70.4753 210.615 70.4753 209.935C70.4753 209.045 70.6253 208.29 70.9253 207.67C71.2353 207.05 71.6753 206.58 72.2453 206.26C72.8253 205.93 73.5053 205.765 74.2853 205.765C75.0253 205.765 75.6753 205.93 76.2353 206.26C76.8053 206.58 77.2503 207.05 77.5703 207.67C77.9003 208.29 78.0653 209.05 78.0653 209.95ZM72.1103 209.95C72.1103 210.55 72.1853 211.07 72.3353 211.51C72.4853 211.94 72.7203 212.27 73.0403 212.5C73.3603 212.73 73.7703 212.845 74.2703 212.845C74.7703 212.845 75.1803 212.73 75.5003 212.5C75.8203 212.27 76.0553 211.94 76.2053 211.51C76.3553 211.07 76.4303 210.55 76.4303 209.95C76.4303 209.33 76.3503 208.81 76.1903 208.39C76.0403 207.97 75.8053 207.65 75.4853 207.43C75.1753 207.2 74.7653 207.085 74.2553 207.085C73.5053 207.085 72.9603 207.335 72.6203 207.835C72.2803 208.335 72.1103 209.04 72.1103 209.95ZM85.248 209.95C85.198 209.75 85.138 209.53 85.068 209.29C85.008 209.05 84.948 208.81 84.888 208.57C84.828 208.32 84.773 208.09 84.723 207.88C84.673 207.67 84.633 207.505 84.603 207.385H84.543C84.523 207.505 84.488 207.67 84.438 207.88C84.398 208.09 84.348 208.32 84.288 208.57C84.228 208.81 84.168 209.055 84.108 209.305C84.048 209.545 83.983 209.765 83.913 209.965L82.713 213.985H80.943L78.708 205.9H80.328L81.378 209.995C81.458 210.275 81.528 210.57 81.588 210.88C81.658 211.19 81.718 211.49 81.768 211.78C81.828 212.06 81.868 212.295 81.888 212.485H81.948C81.968 212.355 81.998 212.195 82.038 212.005C82.078 211.805 82.118 211.6 82.158 211.39C82.208 211.17 82.253 210.96 82.293 210.76C82.343 210.56 82.393 210.395 82.443 210.265L83.733 205.9H85.473L86.733 210.265C86.793 210.465 86.858 210.705 86.928 210.985C86.998 211.255 87.058 211.525 87.108 211.795C87.168 212.055 87.208 212.28 87.228 212.47H87.288C87.308 212.3 87.343 212.08 87.393 211.81C87.443 211.53 87.503 211.23 87.573 210.91C87.653 210.59 87.728 210.285 87.798 209.995L88.878 205.9H90.483L88.218 213.985H86.403L85.248 209.95ZM100.539 204.535C100.009 204.535 99.5341 204.63 99.1141 204.82C98.6941 205 98.3341 205.27 98.0341 205.63C97.7441 205.99 97.5191 206.425 97.3591 206.935C97.2091 207.445 97.1341 208.02 97.1341 208.66C97.1341 209.5 97.2591 210.23 97.5091 210.85C97.7591 211.46 98.1341 211.93 98.6341 212.26C99.1341 212.59 99.7641 212.755 100.524 212.755C100.984 212.755 101.424 212.715 101.844 212.635C102.274 212.545 102.709 212.43 103.149 212.29V213.685C102.729 213.845 102.299 213.96 101.859 214.03C101.419 214.11 100.909 214.15 100.329 214.15C99.2391 214.15 98.3291 213.925 97.5991 213.475C96.8791 213.025 96.3391 212.385 95.9791 211.555C95.6191 210.725 95.4391 209.755 95.4391 208.645C95.4391 207.835 95.5491 207.095 95.7691 206.425C95.9991 205.745 96.3291 205.16 96.7591 204.67C97.1891 204.18 97.7191 203.805 98.3491 203.545C98.9891 203.275 99.7241 203.14 100.554 203.14C101.094 203.14 101.624 203.2 102.144 203.32C102.664 203.43 103.134 203.59 103.554 203.8L102.954 205.15C102.604 204.99 102.224 204.85 101.814 204.73C101.414 204.6 100.989 204.535 100.539 204.535ZM112.401 209.95C112.401 210.62 112.311 211.215 112.131 211.735C111.951 212.255 111.696 212.695 111.366 213.055C111.036 213.415 110.636 213.69 110.166 213.88C109.696 214.06 109.166 214.15 108.576 214.15C108.036 214.15 107.536 214.06 107.076 213.88C106.616 213.69 106.216 213.415 105.876 213.055C105.546 212.695 105.286 212.255 105.096 211.735C104.906 211.215 104.811 210.615 104.811 209.935C104.811 209.045 104.961 208.29 105.261 207.67C105.571 207.05 106.011 206.58 106.581 206.26C107.161 205.93 107.841 205.765 108.621 205.765C109.361 205.765 110.011 205.93 110.571 206.26C111.141 206.58 111.586 207.05 111.906 207.67C112.236 208.29 112.401 209.05 112.401 209.95ZM106.446 209.95C106.446 210.55 106.521 211.07 106.671 211.51C106.821 211.94 107.056 212.27 107.376 212.5C107.696 212.73 108.106 212.845 108.606 212.845C109.106 212.845 109.516 212.73 109.836 212.5C110.156 212.27 110.391 211.94 110.541 211.51C110.691 211.07 110.766 210.55 110.766 209.95C110.766 209.33 110.686 208.81 110.526 208.39C110.376 207.97 110.141 207.65 109.821 207.43C109.511 207.2 109.101 207.085 108.591 207.085C107.841 207.085 107.296 207.335 106.956 207.835C106.616 208.335 106.446 209.04 106.446 209.95ZM117.192 214.15C116.222 214.15 115.437 213.8 114.837 213.1C114.247 212.4 113.952 211.36 113.952 209.98C113.952 208.59 114.252 207.54 114.852 206.83C115.452 206.12 116.242 205.765 117.222 205.765C117.632 205.765 117.987 205.82 118.287 205.93C118.597 206.03 118.862 206.17 119.082 206.35C119.312 206.53 119.507 206.73 119.667 206.95H119.757C119.737 206.81 119.712 206.61 119.682 206.35C119.652 206.08 119.637 205.84 119.637 205.63V202.6H121.227V214H119.982L119.712 212.92H119.637C119.487 213.15 119.297 213.36 119.067 213.55C118.847 213.73 118.582 213.875 118.272 213.985C117.962 214.095 117.602 214.15 117.192 214.15ZM117.567 212.845C118.347 212.845 118.897 212.63 119.217 212.2C119.537 211.76 119.697 211.105 119.697 210.235V209.995C119.697 209.045 119.542 208.32 119.232 207.82C118.932 207.32 118.372 207.07 117.552 207.07C116.902 207.07 116.412 207.335 116.082 207.865C115.752 208.385 115.587 209.1 115.587 210.01C115.587 210.92 115.752 211.62 116.082 212.11C116.412 212.6 116.907 212.845 117.567 212.845ZM126.899 205.765C127.609 205.765 128.219 205.915 128.729 206.215C129.239 206.505 129.629 206.925 129.899 207.475C130.179 208.025 130.319 208.675 130.319 209.425V210.295H124.889C124.909 211.125 125.124 211.76 125.534 212.2C125.954 212.64 126.539 212.86 127.289 212.86C127.809 212.86 128.269 212.815 128.669 212.725C129.079 212.625 129.499 212.48 129.929 212.29V213.61C129.529 213.79 129.119 213.925 128.699 214.015C128.289 214.105 127.799 214.15 127.229 214.15C126.449 214.15 125.759 213.995 125.159 213.685C124.559 213.375 124.089 212.915 123.749 212.305C123.419 211.685 123.254 210.925 123.254 210.025C123.254 209.115 123.404 208.345 123.704 207.715C124.014 207.085 124.439 206.605 124.979 206.275C125.529 205.935 126.169 205.765 126.899 205.765ZM126.899 206.995C126.329 206.995 125.869 207.18 125.519 207.55C125.179 207.92 124.979 208.445 124.919 209.125H128.729C128.729 208.705 128.664 208.335 128.534 208.015C128.404 207.695 128.204 207.445 127.934 207.265C127.664 207.085 127.319 206.995 126.899 206.995Z" fill="#465BC7"/>
<path fill-rule="evenodd" clip-rule="evenodd" d="M700.2 208C700.2 203.546 703.97 200 708.539 200C709.459 200 710.343 200.151 711.168 200.413L711.295 201.816C709.717 202.659 708.675 204.254 708.675 206.056C708.675 208.704 710.934 210.917 713.804 210.917C714.204 210.917 714.599 210.869 714.98 210.783L715.8 211.917C714.368 214.362 711.644 216 708.535 216C703.97 216 700.2 212.454 700.2 208ZM708.539 201.528C704.734 201.528 701.72 204.463 701.72 208C701.72 211.537 704.735 214.472 708.535 214.472C710.496 214.472 712.254 213.686 713.491 212.438C709.997 212.282 707.155 209.518 707.155 206.056C707.155 204.29 707.901 202.701 709.093 201.55C708.91 201.536 708.725 201.528 708.539 201.528Z" fill="#4457CA"/>
<path d="M756 212.418H753.851V216H740V202.149H743.582V200H756V212.418ZM741.433 203.582V214.567H752.418V212.418H743.582V203.582H741.433ZM745.082 210.918H754.5V201.5H745.082V210.918Z" fill="#4457CA"/>
<defs>
<clipPath id="clip0_8_1807">
<rect width="160" height="40" fill="white" transform="translate(199 20)"/>
</clipPath>
<clipPath id="clip1_8_1807">
<rect width="160" height="40" fill="white" transform="translate(199 72)"/>
</clipPath>
<clipPath id="clip2_8_1807">
<rect width="160" height="40" fill="white" transform="translate(199 124)"/>
</clipPath>
</defs>
</svg>
