<svg width="780" height="128" viewBox="0 0 780 128" fill="none" xmlns="http://www.w3.org/2000/svg">
<mask id="path-2-inside-1_8_1807" fill="white">
<path d="M0 2C0 0.895429 0.895431 0 2 0H778C779.105 0 780 0.895431 780 2V80H0V2Z"/>
</mask>
<path d="M0 2C0 0.895429 0.895431 0 2 0H778C779.105 0 780 0.895431 780 2V80H0V2Z" fill="white"/>
<path d="M-1 2C-1 0.343146 0.343146 -1 2 -1H778C779.657 -1 781 0.343146 781 2H779C779 1.44772 778.552 1 778 1H2C1.44772 1 1 1.44772 1 2H-1ZM780 80H0H780ZM-1 80V2C-1 0.343146 0.343146 -1 2 -1V1C1.44772 1 1 1.44772 1 2V80H-1ZM778 -1C779.657 -1 781 0.343146 781 2V80H779V2C779 1.44772 778.552 1 778 1V-1Z" fill="#D9D9D9" mask="url(#path-2-inside-1_8_1807)"/>
<g clip-path="url(#clip0_8_1807)">
<rect x="40.5" y="20.5" width="159" height="39" fill="white" stroke="#D9D9D9"/>
<path d="M58.595 37.945C58.595 38.135 58.585 38.33 58.565 38.53C58.555 38.73 58.54 38.91 58.52 39.07H58.61C58.78 38.79 58.995 38.56 59.255 38.38C59.515 38.2 59.805 38.065 60.125 37.975C60.445 37.875 60.775 37.825 61.115 37.825C61.765 37.825 62.305 37.93 62.735 38.14C63.175 38.34 63.505 38.655 63.725 39.085C63.945 39.515 64.055 40.075 64.055 40.765V46H62.75V40.855C62.75 40.205 62.605 39.72 62.315 39.4C62.025 39.08 61.57 38.92 60.95 38.92C60.35 38.92 59.88 39.035 59.54 39.265C59.2 39.485 58.955 39.815 58.805 40.255C58.665 40.685 58.595 41.215 58.595 41.845V46H57.275V34.6H58.595V37.945ZM68.8675 37.945C68.8675 38.135 68.8575 38.33 68.8375 38.53C68.8275 38.73 68.8125 38.91 68.7925 39.07H68.8825C69.0525 38.79 69.2675 38.56 69.5275 38.38C69.7875 38.2 70.0775 38.065 70.3975 37.975C70.7175 37.875 71.0475 37.825 71.3875 37.825C72.0375 37.825 72.5775 37.93 73.0075 38.14C73.4475 38.34 73.7775 38.655 73.9975 39.085C74.2175 39.515 74.3275 40.075 74.3275 40.765V46H73.0225V40.855C73.0225 40.205 72.8775 39.72 72.5875 39.4C72.2975 39.08 71.8425 38.92 71.2225 38.92C70.6225 38.92 70.1525 39.035 69.8125 39.265C69.4725 39.485 69.2275 39.815 69.0775 40.255C68.9375 40.685 68.8675 41.215 68.8675 41.845V46H67.5475V34.6H68.8675V37.945ZM77.6249 45.19C77.6249 44.82 77.7149 44.56 77.8949 44.41C78.0749 44.26 78.2899 44.185 78.5399 44.185C78.7999 44.185 79.0199 44.26 79.1999 44.41C79.3899 44.56 79.4849 44.82 79.4849 45.19C79.4849 45.55 79.3899 45.81 79.1999 45.97C79.0199 46.13 78.7999 46.21 78.5399 46.21C78.2899 46.21 78.0749 46.13 77.8949 45.97C77.7149 45.81 77.6249 45.55 77.6249 45.19ZM77.6249 38.77C77.6249 38.39 77.7149 38.125 77.8949 37.975C78.0749 37.825 78.2899 37.75 78.5399 37.75C78.7999 37.75 79.0199 37.825 79.1999 37.975C79.3899 38.125 79.4849 38.39 79.4849 38.77C79.4849 39.13 79.3899 39.39 79.1999 39.55C79.0199 39.71 78.7999 39.79 78.5399 39.79C78.2899 39.79 78.0749 39.71 77.8949 39.55C77.7149 39.39 77.6249 39.13 77.6249 38.77ZM91.6536 37.81C92.5636 37.81 93.2436 38.045 93.6936 38.515C94.1436 38.975 94.3686 39.725 94.3686 40.765V46H93.0636V40.825C93.0636 40.195 92.9286 39.72 92.6586 39.4C92.3986 39.08 91.9886 38.92 91.4286 38.92C90.6486 38.92 90.0886 39.145 89.7486 39.595C89.4186 40.045 89.2536 40.7 89.2536 41.56V46H87.9486V40.825C87.9486 40.405 87.8886 40.055 87.7686 39.775C87.6486 39.485 87.4686 39.27 87.2286 39.13C86.9886 38.99 86.6786 38.92 86.2986 38.92C85.7586 38.92 85.3336 39.035 85.0236 39.265C84.7136 39.485 84.4886 39.81 84.3486 40.24C84.2186 40.67 84.1536 41.2 84.1536 41.83V46H82.8336V37.96H83.8986L84.0936 39.055H84.1686C84.3386 38.775 84.5436 38.545 84.7836 38.365C85.0336 38.175 85.3086 38.035 85.6086 37.945C85.9086 37.855 86.2186 37.81 86.5386 37.81C87.1586 37.81 87.6736 37.92 88.0836 38.14C88.5036 38.36 88.8086 38.7 88.9986 39.16H89.0736C89.3436 38.7 89.7086 38.36 90.1686 38.14C90.6386 37.92 91.1336 37.81 91.6536 37.81ZM106.672 37.81C107.582 37.81 108.262 38.045 108.712 38.515C109.162 38.975 109.387 39.725 109.387 40.765V46H108.082V40.825C108.082 40.195 107.947 39.72 107.677 39.4C107.417 39.08 107.007 38.92 106.447 38.92C105.667 38.92 105.107 39.145 104.767 39.595C104.437 40.045 104.272 40.7 104.272 41.56V46H102.967V40.825C102.967 40.405 102.907 40.055 102.787 39.775C102.667 39.485 102.487 39.27 102.247 39.13C102.007 38.99 101.697 38.92 101.317 38.92C100.777 38.92 100.352 39.035 100.042 39.265C99.7321 39.485 99.5071 39.81 99.3671 40.24C99.2371 40.67 99.1721 41.2 99.1721 41.83V46H97.8521V37.96H98.9171L99.1121 39.055H99.1871C99.3571 38.775 99.5621 38.545 99.8021 38.365C100.052 38.175 100.327 38.035 100.627 37.945C100.927 37.855 101.237 37.81 101.557 37.81C102.177 37.81 102.692 37.92 103.102 38.14C103.522 38.36 103.827 38.7 104.017 39.16H104.092C104.362 38.7 104.727 38.36 105.187 38.14C105.657 37.92 106.152 37.81 106.672 37.81ZM112.676 45.19C112.676 44.82 112.766 44.56 112.946 44.41C113.126 44.26 113.341 44.185 113.591 44.185C113.851 44.185 114.071 44.26 114.251 44.41C114.441 44.56 114.536 44.82 114.536 45.19C114.536 45.55 114.441 45.81 114.251 45.97C114.071 46.13 113.851 46.21 113.591 46.21C113.341 46.21 113.126 46.13 112.946 45.97C112.766 45.81 112.676 45.55 112.676 45.19ZM112.676 38.77C112.676 38.39 112.766 38.125 112.946 37.975C113.126 37.825 113.341 37.75 113.591 37.75C113.851 37.75 114.071 37.825 114.251 37.975C114.441 38.125 114.536 38.39 114.536 38.77C114.536 39.13 114.441 39.39 114.251 39.55C114.071 39.71 113.851 39.79 113.591 39.79C113.341 39.79 113.126 39.71 112.946 39.55C112.766 39.39 112.676 39.13 112.676 38.77ZM123.119 43.78C123.119 44.3 122.989 44.735 122.729 45.085C122.469 45.435 122.099 45.7 121.619 45.88C121.139 46.06 120.569 46.15 119.909 46.15C119.349 46.15 118.864 46.105 118.454 46.015C118.054 45.925 117.699 45.8 117.389 45.64V44.44C117.709 44.6 118.094 44.75 118.544 44.89C119.004 45.02 119.469 45.085 119.939 45.085C120.609 45.085 121.094 44.98 121.394 44.77C121.694 44.55 121.844 44.26 121.844 43.9C121.844 43.7 121.789 43.52 121.679 43.36C121.569 43.2 121.369 43.04 121.079 42.88C120.799 42.72 120.394 42.54 119.864 42.34C119.344 42.14 118.899 41.94 118.529 41.74C118.159 41.54 117.874 41.3 117.674 41.02C117.474 40.74 117.374 40.38 117.374 39.94C117.374 39.26 117.649 38.735 118.199 38.365C118.759 37.995 119.489 37.81 120.389 37.81C120.879 37.81 121.334 37.86 121.754 37.96C122.184 38.05 122.584 38.18 122.954 38.35L122.504 39.4C122.284 39.3 122.049 39.215 121.799 39.145C121.559 39.065 121.314 39.005 121.064 38.965C120.814 38.915 120.559 38.89 120.299 38.89C119.759 38.89 119.344 38.98 119.054 39.16C118.774 39.33 118.634 39.565 118.634 39.865C118.634 40.085 118.699 40.275 118.829 40.435C118.959 40.585 119.174 40.735 119.474 40.885C119.784 41.025 120.194 41.195 120.704 41.395C121.214 41.585 121.649 41.78 122.009 41.98C122.369 42.18 122.644 42.425 122.834 42.715C123.024 42.995 123.119 43.35 123.119 43.78ZM131.297 43.78C131.297 44.3 131.167 44.735 130.907 45.085C130.647 45.435 130.277 45.7 129.797 45.88C129.317 46.06 128.747 46.15 128.087 46.15C127.527 46.15 127.042 46.105 126.632 46.015C126.232 45.925 125.877 45.8 125.567 45.64V44.44C125.887 44.6 126.272 44.75 126.722 44.89C127.182 45.02 127.647 45.085 128.117 45.085C128.787 45.085 129.272 44.98 129.572 44.77C129.872 44.55 130.022 44.26 130.022 43.9C130.022 43.7 129.967 43.52 129.857 43.36C129.747 43.2 129.547 43.04 129.257 42.88C128.977 42.72 128.572 42.54 128.042 42.34C127.522 42.14 127.077 41.94 126.707 41.74C126.337 41.54 126.052 41.3 125.852 41.02C125.652 40.74 125.552 40.38 125.552 39.94C125.552 39.26 125.827 38.735 126.377 38.365C126.937 37.995 127.667 37.81 128.567 37.81C129.057 37.81 129.512 37.86 129.932 37.96C130.362 38.05 130.762 38.18 131.132 38.35L130.682 39.4C130.462 39.3 130.227 39.215 129.977 39.145C129.737 39.065 129.492 39.005 129.242 38.965C128.992 38.915 128.737 38.89 128.477 38.89C127.937 38.89 127.522 38.98 127.232 39.16C126.952 39.33 126.812 39.565 126.812 39.865C126.812 40.085 126.877 40.275 127.007 40.435C127.137 40.585 127.352 40.735 127.652 40.885C127.962 41.025 128.372 41.195 128.882 41.395C129.392 41.585 129.827 41.78 130.187 41.98C130.547 42.18 130.822 42.425 131.012 42.715C131.202 42.995 131.297 43.35 131.297 43.78Z" fill="#8F8F8F"/>
<path d="M176 33C179.866 33 183 36.134 183 40C183 43.866 179.866 47 176 47C172.134 47 169 43.866 169 40C169 36.134 172.134 33 176 33ZM176 34.5C172.962 34.5 170.5 36.9624 170.5 40C170.5 43.0376 172.962 45.5 176 45.5C179.038 45.5 181.5 43.0376 181.5 40C181.5 36.9624 179.038 34.5 176 34.5ZM176.5 39.75H179.5V41.25H175V36.5H176.5V39.75Z" fill="#8F8F8F"/>
</g>
<mask id="path-7-inside-2_8_1807" fill="white">
<path d="M0 80H780V126C780 127.105 779.105 128 778 128H1.99998C0.895407 128 0 127.105 0 126V80Z"/>
</mask>
<path d="M0 80H780V126C780 127.105 779.105 128 778 128H1.99998C0.895407 128 0 127.105 0 126V80Z" fill="#E7E7E7"/>
<path d="M0 80H780H0ZM781 126C781 127.657 779.657 129 778 129H2C0.343146 129 -1 127.657 -1 126H1C1 126.552 1.44772 127 2 127H778C778.552 127 779 126.552 779 126H781ZM2 129C0.343146 129 -1 127.657 -1 126V80H1V126C1 126.552 1.44772 127 2 127V129ZM781 80V126C781 127.657 779.657 129 778 129V127C778.552 127 779 126.552 779 126V80H781Z" fill="#D9D9D9" mask="url(#path-7-inside-2_8_1807)"/>
<path fill-rule="evenodd" clip-rule="evenodd" d="M36.0005 108L29 100.98L29.9762 100H29.9781L36.0005 106.041L42.0238 100H42.0258L43 100.979V100.981L36.0005 108Z" fill="#4457CA"/>
<path d="M59.575 107.105C59.575 107.745 59.42 108.29 59.11 108.74C58.8 109.19 58.355 109.54 57.775 109.79C57.195 110.03 56.505 110.15 55.705 110.15C55.315 110.15 54.94 110.125 54.58 110.075C54.22 110.035 53.885 109.975 53.575 109.895C53.265 109.815 52.99 109.715 52.75 109.595V108.065C53.15 108.245 53.62 108.41 54.16 108.56C54.7 108.7 55.25 108.77 55.81 108.77C56.29 108.77 56.69 108.705 57.01 108.575C57.33 108.445 57.57 108.265 57.73 108.035C57.89 107.805 57.97 107.535 57.97 107.225C57.97 106.895 57.885 106.62 57.715 106.4C57.555 106.17 57.3 105.96 56.95 105.77C56.61 105.57 56.15 105.36 55.57 105.14C55.17 104.99 54.805 104.825 54.475 104.645C54.155 104.455 53.87 104.235 53.62 103.985C53.38 103.735 53.195 103.445 53.065 103.115C52.935 102.785 52.87 102.4 52.87 101.96C52.87 101.37 53.015 100.865 53.305 100.445C53.605 100.025 54.015 99.705 54.535 99.485C55.055 99.255 55.66 99.14 56.35 99.14C56.93 99.14 57.465 99.2 57.955 99.32C58.455 99.43 58.93 99.585 59.38 99.785L58.87 101.12C58.46 100.95 58.045 100.81 57.625 100.7C57.205 100.59 56.765 100.535 56.305 100.535C55.905 100.535 55.57 100.595 55.3 100.715C55.03 100.835 54.825 101 54.685 101.21C54.555 101.42 54.49 101.665 54.49 101.945C54.49 102.275 54.565 102.55 54.715 102.77C54.865 102.99 55.105 103.195 55.435 103.385C55.765 103.565 56.2 103.765 56.74 103.985C57.34 104.215 57.85 104.465 58.27 104.735C58.7 105.005 59.025 105.33 59.245 105.71C59.465 106.08 59.575 106.545 59.575 107.105ZM63.0821 101.645C63.0821 101.895 63.0721 102.145 63.0521 102.395C63.0321 102.645 63.0121 102.85 62.9921 103.01H63.0971C63.2671 102.73 63.4771 102.5 63.7271 102.32C63.9871 102.14 64.2721 102.005 64.5821 101.915C64.9021 101.825 65.2271 101.78 65.5571 101.78C66.1971 101.78 66.7321 101.885 67.1621 102.095C67.6021 102.295 67.9321 102.615 68.1521 103.055C68.3821 103.485 68.4971 104.045 68.4971 104.735V110H66.9221V104.96C66.9221 104.33 66.7871 103.86 66.5171 103.55C66.2571 103.23 65.8371 103.07 65.2571 103.07C64.7071 103.07 64.2721 103.18 63.9521 103.4C63.6421 103.62 63.4171 103.945 63.2771 104.375C63.1471 104.795 63.0821 105.315 63.0821 105.935V110H61.4921V98.6H63.0821V101.645ZM78.0653 105.95C78.0653 106.62 77.9753 107.215 77.7953 107.735C77.6153 108.255 77.3603 108.695 77.0303 109.055C76.7003 109.415 76.3003 109.69 75.8303 109.88C75.3603 110.06 74.8303 110.15 74.2403 110.15C73.7003 110.15 73.2003 110.06 72.7403 109.88C72.2803 109.69 71.8803 109.415 71.5403 109.055C71.2103 108.695 70.9503 108.255 70.7603 107.735C70.5703 107.215 70.4753 106.615 70.4753 105.935C70.4753 105.045 70.6253 104.29 70.9253 103.67C71.2353 103.05 71.6753 102.58 72.2453 102.26C72.8253 101.93 73.5053 101.765 74.2853 101.765C75.0253 101.765 75.6753 101.93 76.2353 102.26C76.8053 102.58 77.2503 103.05 77.5703 103.67C77.9003 104.29 78.0653 105.05 78.0653 105.95ZM72.1103 105.95C72.1103 106.55 72.1853 107.07 72.3353 107.51C72.4853 107.94 72.7203 108.27 73.0403 108.5C73.3603 108.73 73.7703 108.845 74.2703 108.845C74.7703 108.845 75.1803 108.73 75.5003 108.5C75.8203 108.27 76.0553 107.94 76.2053 107.51C76.3553 107.07 76.4303 106.55 76.4303 105.95C76.4303 105.33 76.3503 104.81 76.1903 104.39C76.0403 103.97 75.8053 103.65 75.4853 103.43C75.1753 103.2 74.7653 103.085 74.2553 103.085C73.5053 103.085 72.9603 103.335 72.6203 103.835C72.2803 104.335 72.1103 105.04 72.1103 105.95ZM85.248 105.95C85.198 105.75 85.138 105.53 85.068 105.29C85.008 105.05 84.948 104.81 84.888 104.57C84.828 104.32 84.773 104.09 84.723 103.88C84.673 103.67 84.633 103.505 84.603 103.385H84.543C84.523 103.505 84.488 103.67 84.438 103.88C84.398 104.09 84.348 104.32 84.288 104.57C84.228 104.81 84.168 105.055 84.108 105.305C84.048 105.545 83.983 105.765 83.913 105.965L82.713 109.985H80.943L78.708 101.9H80.328L81.378 105.995C81.458 106.275 81.528 106.57 81.588 106.88C81.658 107.19 81.718 107.49 81.768 107.78C81.828 108.06 81.868 108.295 81.888 108.485H81.948C81.968 108.355 81.998 108.195 82.038 108.005C82.078 107.805 82.118 107.6 82.158 107.39C82.208 107.17 82.253 106.96 82.293 106.76C82.343 106.56 82.393 106.395 82.443 106.265L83.733 101.9H85.473L86.733 106.265C86.793 106.465 86.858 106.705 86.928 106.985C86.998 107.255 87.058 107.525 87.108 107.795C87.168 108.055 87.208 108.28 87.228 108.47H87.288C87.308 108.3 87.343 108.08 87.393 107.81C87.443 107.53 87.503 107.23 87.573 106.91C87.653 106.59 87.728 106.285 87.798 105.995L88.878 101.9H90.483L88.218 109.985H86.403L85.248 105.95ZM100.539 100.535C100.009 100.535 99.5341 100.63 99.1141 100.82C98.6941 101 98.3341 101.27 98.0341 101.63C97.7441 101.99 97.5191 102.425 97.3591 102.935C97.2091 103.445 97.1341 104.02 97.1341 104.66C97.1341 105.5 97.2591 106.23 97.5091 106.85C97.7591 107.46 98.1341 107.93 98.6341 108.26C99.1341 108.59 99.7641 108.755 100.524 108.755C100.984 108.755 101.424 108.715 101.844 108.635C102.274 108.545 102.709 108.43 103.149 108.29V109.685C102.729 109.845 102.299 109.96 101.859 110.03C101.419 110.11 100.909 110.15 100.329 110.15C99.2391 110.15 98.3291 109.925 97.5991 109.475C96.8791 109.025 96.3391 108.385 95.9791 107.555C95.6191 106.725 95.4391 105.755 95.4391 104.645C95.4391 103.835 95.5491 103.095 95.7691 102.425C95.9991 101.745 96.3291 101.16 96.7591 100.67C97.1891 100.18 97.7191 99.805 98.3491 99.545C98.9891 99.275 99.7241 99.14 100.554 99.14C101.094 99.14 101.624 99.2 102.144 99.32C102.664 99.43 103.134 99.59 103.554 99.8L102.954 101.15C102.604 100.99 102.224 100.85 101.814 100.73C101.414 100.6 100.989 100.535 100.539 100.535ZM112.401 105.95C112.401 106.62 112.311 107.215 112.131 107.735C111.951 108.255 111.696 108.695 111.366 109.055C111.036 109.415 110.636 109.69 110.166 109.88C109.696 110.06 109.166 110.15 108.576 110.15C108.036 110.15 107.536 110.06 107.076 109.88C106.616 109.69 106.216 109.415 105.876 109.055C105.546 108.695 105.286 108.255 105.096 107.735C104.906 107.215 104.811 106.615 104.811 105.935C104.811 105.045 104.961 104.29 105.261 103.67C105.571 103.05 106.011 102.58 106.581 102.26C107.161 101.93 107.841 101.765 108.621 101.765C109.361 101.765 110.011 101.93 110.571 102.26C111.141 102.58 111.586 103.05 111.906 103.67C112.236 104.29 112.401 105.05 112.401 105.95ZM106.446 105.95C106.446 106.55 106.521 107.07 106.671 107.51C106.821 107.94 107.056 108.27 107.376 108.5C107.696 108.73 108.106 108.845 108.606 108.845C109.106 108.845 109.516 108.73 109.836 108.5C110.156 108.27 110.391 107.94 110.541 107.51C110.691 107.07 110.766 106.55 110.766 105.95C110.766 105.33 110.686 104.81 110.526 104.39C110.376 103.97 110.141 103.65 109.821 103.43C109.511 103.2 109.101 103.085 108.591 103.085C107.841 103.085 107.296 103.335 106.956 103.835C106.616 104.335 106.446 105.04 106.446 105.95ZM117.192 110.15C116.222 110.15 115.437 109.8 114.837 109.1C114.247 108.4 113.952 107.36 113.952 105.98C113.952 104.59 114.252 103.54 114.852 102.83C115.452 102.12 116.242 101.765 117.222 101.765C117.632 101.765 117.987 101.82 118.287 101.93C118.597 102.03 118.862 102.17 119.082 102.35C119.312 102.53 119.507 102.73 119.667 102.95H119.757C119.737 102.81 119.712 102.61 119.682 102.35C119.652 102.08 119.637 101.84 119.637 101.63V98.6H121.227V110H119.982L119.712 108.92H119.637C119.487 109.15 119.297 109.36 119.067 109.55C118.847 109.73 118.582 109.875 118.272 109.985C117.962 110.095 117.602 110.15 117.192 110.15ZM117.567 108.845C118.347 108.845 118.897 108.63 119.217 108.2C119.537 107.76 119.697 107.105 119.697 106.235V105.995C119.697 105.045 119.542 104.32 119.232 103.82C118.932 103.32 118.372 103.07 117.552 103.07C116.902 103.07 116.412 103.335 116.082 103.865C115.752 104.385 115.587 105.1 115.587 106.01C115.587 106.92 115.752 107.62 116.082 108.11C116.412 108.6 116.907 108.845 117.567 108.845ZM126.899 101.765C127.609 101.765 128.219 101.915 128.729 102.215C129.239 102.505 129.629 102.925 129.899 103.475C130.179 104.025 130.319 104.675 130.319 105.425V106.295H124.889C124.909 107.125 125.124 107.76 125.534 108.2C125.954 108.64 126.539 108.86 127.289 108.86C127.809 108.86 128.269 108.815 128.669 108.725C129.079 108.625 129.499 108.48 129.929 108.29V109.61C129.529 109.79 129.119 109.925 128.699 110.015C128.289 110.105 127.799 110.15 127.229 110.15C126.449 110.15 125.759 109.995 125.159 109.685C124.559 109.375 124.089 108.915 123.749 108.305C123.419 107.685 123.254 106.925 123.254 106.025C123.254 105.115 123.404 104.345 123.704 103.715C124.014 103.085 124.439 102.605 124.979 102.275C125.529 101.935 126.169 101.765 126.899 101.765ZM126.899 102.995C126.329 102.995 125.869 103.18 125.519 103.55C125.179 103.92 124.979 104.445 124.919 105.125H128.729C128.729 104.705 128.664 104.335 128.534 104.015C128.404 103.695 128.204 103.445 127.934 103.265C127.664 103.085 127.319 102.995 126.899 102.995Z" fill="#465BC7"/>
<path fill-rule="evenodd" clip-rule="evenodd" d="M700.2 104C700.2 99.5457 703.97 96 708.539 96C709.459 96 710.343 96.1506 711.168 96.4134L711.295 97.8164C709.717 98.6593 708.675 100.254 708.675 102.056C708.675 104.704 710.934 106.917 713.804 106.917C714.204 106.917 714.599 106.869 714.98 106.783L715.8 107.917C714.368 110.362 711.644 112 708.535 112C703.97 112 700.2 108.454 700.2 104ZM708.539 97.528C704.734 97.528 701.72 100.463 701.72 104C701.72 107.537 704.735 110.472 708.535 110.472C710.496 110.472 712.254 109.686 713.491 108.438C709.997 108.282 707.155 105.518 707.155 102.056C707.155 100.29 707.901 98.7006 709.093 97.5502C708.91 97.5355 708.725 97.528 708.539 97.528Z" fill="#4457CA"/>
<path d="M756 108.418H753.851V112H740V98.1494H743.582V96H756V108.418ZM741.433 99.582V110.567H752.418V108.418H743.582V99.582H741.433ZM745.082 106.918H754.5V97.5H745.082V106.918Z" fill="#4457CA"/>
<defs>
<clipPath id="clip0_8_1807">
<rect width="160" height="40" fill="white" transform="translate(40 20)"/>
</clipPath>
</defs>
</svg>
