<svg width="724" height="448" viewBox="0 0 724 448" fill="none" xmlns="http://www.w3.org/2000/svg">
<mask id="path-1-inside-1_47_7908" fill="white">
<path d="M0 1.99999C0 0.895423 0.895431 0 2 0H362V448H2C0.895435 448 0 447.105 0 446V1.99999Z"/>
</mask>
<path d="M0 1.99999C0 0.895423 0.895431 0 2 0H362V448H2C0.895435 448 0 447.105 0 446V1.99999Z" fill="white"/>
<path d="M-1 2C-1 0.343146 0.343146 -1 2 -1H362V1H2C1.44772 1 1 1.44772 1 2H-1ZM362 449H2C0.343146 449 -1 447.657 -1 446H1C1 446.552 1.44772 447 2 447H362V449ZM2 449C0.343146 449 -1 447.657 -1 446V2C-1 0.343146 0.343146 -1 2 -1V1C1.44772 1 1 1.44772 1 2V446C1 446.552 1.44772 447 2 447V449ZM362 0V448V0Z" fill="#D9D9D9" mask="url(#path-1-inside-1_47_7908)"/>
<path d="M90.7716 235H88.2516V225.676H78.0036V235H75.4836V215.008H78.0036V223.464H88.2516V215.008H90.7716V235ZM105.697 219.712C106.985 219.712 108.087 219.992 109.001 220.552C109.935 221.112 110.644 221.905 111.129 222.932C111.633 223.94 111.885 225.125 111.885 226.488V227.972H101.609C101.647 229.671 102.076 230.968 102.897 231.864C103.737 232.741 104.904 233.18 106.397 233.18C107.349 233.18 108.189 233.096 108.917 232.928C109.664 232.741 110.429 232.48 111.213 232.144V234.3C110.448 234.636 109.692 234.879 108.945 235.028C108.199 235.196 107.312 235.28 106.285 235.28C104.867 235.28 103.607 234.991 102.505 234.412C101.423 233.833 100.573 232.975 99.9575 231.836C99.3602 230.679 99.0615 229.269 99.0615 227.608C99.0615 225.965 99.3322 224.556 99.8735 223.38C100.433 222.204 101.208 221.299 102.197 220.664C103.205 220.029 104.372 219.712 105.697 219.712ZM105.669 221.728C104.493 221.728 103.56 222.111 102.869 222.876C102.197 223.623 101.796 224.668 101.665 226.012H109.309C109.309 225.153 109.179 224.407 108.917 223.772C108.656 223.137 108.255 222.643 107.713 222.288C107.191 221.915 106.509 221.728 105.669 221.728ZM122.17 235H119.706V213.72H122.17V235ZM133.389 235H130.925V213.72H133.389V235ZM155.192 227.468C155.192 228.719 155.024 229.829 154.688 230.8C154.37 231.752 153.904 232.564 153.288 233.236C152.69 233.908 151.953 234.421 151.076 234.776C150.217 235.112 149.256 235.28 148.192 235.28C147.202 235.28 146.288 235.112 145.448 234.776C144.608 234.421 143.88 233.908 143.264 233.236C142.648 232.564 142.162 231.752 141.808 230.8C141.472 229.829 141.304 228.719 141.304 227.468C141.304 225.807 141.584 224.407 142.144 223.268C142.704 222.111 143.506 221.233 144.552 220.636C145.597 220.02 146.838 219.712 148.276 219.712C149.638 219.712 150.833 220.02 151.86 220.636C152.905 221.233 153.717 222.111 154.296 223.268C154.893 224.407 155.192 225.807 155.192 227.468ZM143.852 227.468C143.852 228.644 144.001 229.671 144.3 230.548C144.617 231.407 145.102 232.069 145.756 232.536C146.409 233.003 147.24 233.236 148.248 233.236C149.256 233.236 150.086 233.003 150.74 232.536C151.393 232.069 151.869 231.407 152.168 230.548C152.485 229.671 152.644 228.644 152.644 227.468C152.644 226.273 152.485 225.256 152.168 224.416C151.85 223.576 151.365 222.932 150.712 222.484C150.077 222.017 149.246 221.784 148.22 221.784C146.689 221.784 145.578 222.288 144.888 223.296C144.197 224.304 143.852 225.695 143.852 227.468ZM197.666 215.008L192.346 235H189.798L185.906 221.896C185.794 221.504 185.682 221.103 185.57 220.692C185.458 220.281 185.356 219.889 185.262 219.516C185.169 219.143 185.085 218.825 185.01 218.564C184.954 218.284 184.917 218.079 184.898 217.948C184.88 218.079 184.842 218.284 184.786 218.564C184.749 218.825 184.684 219.143 184.59 219.516C184.497 219.889 184.394 220.291 184.282 220.72C184.189 221.131 184.077 221.551 183.946 221.98L180.166 235H177.618L172.326 215.008H174.958L178.066 227.216C178.178 227.645 178.281 228.075 178.374 228.504C178.468 228.915 178.552 229.325 178.626 229.736C178.72 230.128 178.794 230.511 178.85 230.884C178.906 231.257 178.962 231.621 179.018 231.976C179.074 231.603 179.13 231.22 179.186 230.828C179.261 230.436 179.345 230.035 179.438 229.624C179.532 229.195 179.634 228.765 179.746 228.336C179.858 227.907 179.97 227.487 180.082 227.076L183.61 215.008H186.214L189.882 227.16C190.013 227.589 190.134 228.028 190.246 228.476C190.358 228.905 190.461 229.325 190.554 229.736C190.648 230.147 190.722 230.548 190.778 230.94C190.853 231.313 190.918 231.659 190.974 231.976C191.03 231.509 191.105 231.024 191.198 230.52C191.292 229.997 191.404 229.456 191.534 228.896C191.665 228.336 191.805 227.767 191.954 227.188L195.034 215.008H197.666ZM216.903 227.468C216.903 228.719 216.735 229.829 216.399 230.8C216.081 231.752 215.615 232.564 214.999 233.236C214.401 233.908 213.664 234.421 212.787 234.776C211.928 235.112 210.967 235.28 209.903 235.28C208.913 235.28 207.999 235.112 207.159 234.776C206.319 234.421 205.591 233.908 204.975 233.236C204.359 232.564 203.873 231.752 203.519 230.8C203.183 229.829 203.015 228.719 203.015 227.468C203.015 225.807 203.295 224.407 203.855 223.268C204.415 222.111 205.217 221.233 206.263 220.636C207.308 220.02 208.549 219.712 209.987 219.712C211.349 219.712 212.544 220.02 213.571 220.636C214.616 221.233 215.428 222.111 216.007 223.268C216.604 224.407 216.903 225.807 216.903 227.468ZM205.563 227.468C205.563 228.644 205.712 229.671 206.011 230.548C206.328 231.407 206.813 232.069 207.467 232.536C208.12 233.003 208.951 233.236 209.959 233.236C210.967 233.236 211.797 233.003 212.451 232.536C213.104 232.069 213.58 231.407 213.879 230.548C214.196 229.671 214.355 228.644 214.355 227.468C214.355 226.273 214.196 225.256 213.879 224.416C213.561 223.576 213.076 222.932 212.423 222.484C211.788 222.017 210.957 221.784 209.931 221.784C208.4 221.784 207.289 222.288 206.599 223.296C205.908 224.304 205.563 225.695 205.563 227.468ZM231.808 219.712C232.088 219.712 232.386 219.731 232.704 219.768C233.04 219.787 233.329 219.824 233.572 219.88L233.264 222.148C233.021 222.092 232.75 222.045 232.452 222.008C232.172 221.971 231.901 221.952 231.64 221.952C231.061 221.952 230.51 222.073 229.988 222.316C229.465 222.559 228.998 222.904 228.588 223.352C228.177 223.781 227.85 224.304 227.608 224.92C227.384 225.536 227.272 226.227 227.272 226.992V235H224.808V219.992H226.824L227.104 222.736H227.216C227.533 222.176 227.916 221.672 228.364 221.224C228.812 220.757 229.325 220.393 229.904 220.132C230.482 219.852 231.117 219.712 231.808 219.712ZM242.838 235H240.374V213.72H242.838V235ZM256.913 235.28C255.046 235.28 253.553 234.636 252.433 233.348C251.313 232.041 250.753 230.1 250.753 227.524C250.753 224.948 251.313 223.007 252.433 221.7C253.572 220.375 255.074 219.712 256.941 219.712C257.725 219.712 258.406 219.815 258.985 220.02C259.564 220.207 260.068 220.468 260.497 220.804C260.926 221.14 261.29 221.513 261.589 221.924H261.757C261.738 221.681 261.701 221.327 261.645 220.86C261.608 220.375 261.589 219.992 261.589 219.712V213.72H264.053V235H262.065L261.701 232.984H261.589C261.29 233.413 260.926 233.805 260.497 234.16C260.068 234.496 259.554 234.767 258.957 234.972C258.378 235.177 257.697 235.28 256.913 235.28ZM257.305 233.236C258.892 233.236 260.002 232.807 260.637 231.948C261.29 231.071 261.617 229.755 261.617 228V227.552C261.617 225.685 261.309 224.257 260.693 223.268C260.077 222.26 258.938 221.756 257.277 221.756C255.952 221.756 254.953 222.288 254.281 223.352C253.628 224.397 253.301 225.807 253.301 227.58C253.301 229.372 253.628 230.763 254.281 231.752C254.953 232.741 255.961 233.236 257.305 233.236ZM286.277 229.372H284.681L283.981 215.008H286.977L286.277 229.372ZM283.729 233.488C283.729 232.797 283.897 232.312 284.233 232.032C284.569 231.752 284.98 231.612 285.465 231.612C285.932 231.612 286.333 231.752 286.669 232.032C287.024 232.312 287.201 232.797 287.201 233.488C287.201 234.16 287.024 234.645 286.669 234.944C286.333 235.243 285.932 235.392 285.465 235.392C284.98 235.392 284.569 235.243 284.233 234.944C283.897 234.645 283.729 234.16 283.729 233.488Z" fill="#161616"/>
<mask id="path-4-inside-2_47_7908" fill="white">
<path d="M362 0H722C723.105 0 724 0.895431 724 2V446C724 447.105 723.105 448 722 448H362V0Z"/>
</mask>
<path d="M362 0H722C723.105 0 724 0.895431 724 2V446C724 447.105 723.105 448 722 448H362V0Z" fill="#F5F5F5"/>
<path d="M362 0V-1H361V0H362ZM362 448H361V449H362V448ZM362 0V1H722V0V-1H362V0ZM724 2H723V446H724H725V2H724ZM722 448V447H362V448V449H722V448ZM362 448H363V0H362H361V448H362ZM724 446H723C723 446.552 722.552 447 722 447V448V449C723.657 449 725 447.657 725 446H724ZM722 0V1C722.552 1 723 1.44772 723 2H724H725C725 0.343143 723.657 -1 722 -1V0Z" fill="#D9D9D9" mask="url(#path-4-inside-2_47_7908)"/>
<path d="M393.8 25.718L390.485 35H389.315L386 25.718H387.222L389.315 31.672C389.41 31.9233 389.493 32.166 389.562 32.4C389.631 32.634 389.692 32.8593 389.744 33.076C389.805 33.284 389.857 33.492 389.9 33.7C389.943 33.492 389.991 33.2797 390.043 33.063C390.104 32.8463 390.169 32.621 390.238 32.387C390.316 32.153 390.398 31.906 390.485 31.646L392.565 25.718H393.8ZM397.285 27.915C398.134 27.915 398.763 28.1013 399.17 28.474C399.577 28.8467 399.781 29.4403 399.781 30.255V35H398.949L398.728 34.012H398.676C398.477 34.2633 398.269 34.4757 398.052 34.649C397.844 34.8137 397.601 34.935 397.324 35.013C397.055 35.091 396.726 35.13 396.336 35.13C395.92 35.13 395.543 35.0563 395.205 34.909C394.876 34.7617 394.616 34.5363 394.425 34.233C394.234 33.921 394.139 33.531 394.139 33.063C394.139 32.3697 394.412 31.8367 394.958 31.464C395.504 31.0827 396.345 30.8747 397.48 30.84L398.663 30.801V30.385C398.663 29.8043 398.537 29.4013 398.286 29.176C398.035 28.9507 397.679 28.838 397.22 28.838C396.856 28.838 396.509 28.8943 396.18 29.007C395.851 29.111 395.543 29.2323 395.257 29.371L394.906 28.513C395.209 28.3483 395.569 28.2097 395.985 28.097C396.401 27.9757 396.834 27.915 397.285 27.915ZM397.623 31.633C396.756 31.6677 396.154 31.8063 395.816 32.049C395.487 32.2917 395.322 32.634 395.322 33.076C395.322 33.466 395.439 33.752 395.673 33.934C395.916 34.116 396.223 34.207 396.596 34.207C397.185 34.207 397.675 34.0467 398.065 33.726C398.455 33.3967 398.65 32.894 398.65 32.218V31.594L397.623 31.633ZM405.183 27.902C405.313 27.902 405.452 27.9107 405.599 27.928C405.755 27.9367 405.889 27.954 406.002 27.98L405.859 29.033C405.746 29.007 405.621 28.9853 405.482 28.968C405.352 28.9507 405.226 28.942 405.105 28.942C404.836 28.942 404.581 28.9983 404.338 29.111C404.095 29.2237 403.879 29.384 403.688 29.592C403.497 29.7913 403.346 30.034 403.233 30.32C403.129 30.606 403.077 30.9267 403.077 31.282V35H401.933V28.032H402.869L402.999 29.306H403.051C403.198 29.046 403.376 28.812 403.584 28.604C403.792 28.3873 404.03 28.2183 404.299 28.097C404.568 27.967 404.862 27.902 405.183 27.902ZM408.447 28.032V35H407.303V28.032H408.447ZM407.888 25.419C408.062 25.419 408.213 25.4797 408.343 25.601C408.482 25.7137 408.551 25.8957 408.551 26.147C408.551 26.3897 408.482 26.5717 408.343 26.693C408.213 26.8143 408.062 26.875 407.888 26.875C407.698 26.875 407.537 26.8143 407.407 26.693C407.277 26.5717 407.212 26.3897 407.212 26.147C407.212 25.8957 407.277 25.7137 407.407 25.601C407.537 25.4797 407.698 25.419 407.888 25.419ZM413.294 27.915C414.143 27.915 414.771 28.1013 415.179 28.474C415.586 28.8467 415.79 29.4403 415.79 30.255V35H414.958L414.737 34.012H414.685C414.485 34.2633 414.277 34.4757 414.061 34.649C413.853 34.8137 413.61 34.935 413.333 35.013C413.064 35.091 412.735 35.13 412.345 35.13C411.929 35.13 411.552 35.0563 411.214 34.909C410.884 34.7617 410.624 34.5363 410.434 34.233C410.243 33.921 410.148 33.531 410.148 33.063C410.148 32.3697 410.421 31.8367 410.967 31.464C411.513 31.0827 412.353 30.8747 413.489 30.84L414.672 30.801V30.385C414.672 29.8043 414.546 29.4013 414.295 29.176C414.043 28.9507 413.688 28.838 413.229 28.838C412.865 28.838 412.518 28.8943 412.189 29.007C411.859 29.111 411.552 29.2323 411.266 29.371L410.915 28.513C411.218 28.3483 411.578 28.2097 411.994 28.097C412.41 27.9757 412.843 27.915 413.294 27.915ZM413.632 31.633C412.765 31.6677 412.163 31.8063 411.825 32.049C411.495 32.2917 411.331 32.634 411.331 33.076C411.331 33.466 411.448 33.752 411.682 33.934C411.924 34.116 412.232 34.207 412.605 34.207C413.194 34.207 413.684 34.0467 414.074 33.726C414.464 33.3967 414.659 32.894 414.659 32.218V31.594L413.632 31.633ZM421.296 27.902C422.128 27.902 422.756 28.1057 423.181 28.513C423.606 28.9117 423.818 29.5617 423.818 30.463V35H422.687V30.541C422.687 29.9777 422.561 29.5573 422.31 29.28C422.059 29.0027 421.664 28.864 421.127 28.864C420.356 28.864 419.823 29.0807 419.528 29.514C419.233 29.9473 419.086 30.5713 419.086 31.386V35H417.942V28.032H418.865L419.034 28.981H419.099C419.255 28.7383 419.446 28.539 419.671 28.383C419.905 28.2183 420.161 28.097 420.438 28.019C420.715 27.941 421.001 27.902 421.296 27.902ZM428.305 34.194C428.478 34.194 428.656 34.181 428.838 34.155C429.02 34.1203 429.167 34.0857 429.28 34.051V34.922C429.159 34.9827 428.985 35.0303 428.76 35.065C428.535 35.1083 428.318 35.13 428.11 35.13C427.746 35.13 427.408 35.0693 427.096 34.948C426.793 34.818 426.546 34.597 426.355 34.285C426.164 33.973 426.069 33.5353 426.069 32.972V28.916H425.081V28.37L426.082 27.915L426.537 26.433H427.213V28.032H429.228V28.916H427.213V32.946C427.213 33.3707 427.313 33.687 427.512 33.895C427.72 34.0943 427.984 34.194 428.305 34.194Z" fill="#161616"/>
<path d="M517.5 44.5V67.5H386.5V44.5H517.5Z" fill="white"/>
<path d="M517.5 44.5V67.5H386.5V44.5H517.5Z" stroke="#D9D9D9"/>
<path d="M398.806 51.536H399.846V55.384C400.08 54.955 400.392 54.63 400.782 54.409C401.146 54.201 401.549 54.097 402.004 54.097C402.784 54.097 403.395 54.318 403.811 54.786C404.227 55.241 404.435 55.904 404.435 56.762V61H403.395V56.918C403.395 56.294 403.239 55.813 402.953 55.475C402.641 55.137 402.212 54.968 401.653 54.968C401.133 54.968 400.704 55.176 400.366 55.592C400.015 56.008 399.846 56.541 399.846 57.165V61H398.806V51.536ZM409.254 51.536C410.112 51.536 410.814 51.783 411.373 52.277C411.919 52.771 412.205 53.434 412.205 54.24C412.205 55.046 411.893 55.774 411.295 56.424C410.97 56.762 410.333 57.269 409.371 57.919C408.188 58.712 407.512 59.427 407.343 60.051H412.218V61H406.03C406.03 60.155 406.329 59.388 406.953 58.699C407.317 58.283 407.98 57.724 408.968 57.048C409.696 56.528 410.177 56.151 410.424 55.891C410.892 55.384 411.139 54.825 411.139 54.227C411.139 53.655 410.97 53.226 410.632 52.914C410.294 52.602 409.813 52.446 409.215 52.446C408.578 52.446 408.084 52.654 407.746 53.096C407.382 53.512 407.187 54.136 407.174 54.955H406.108C406.108 53.915 406.407 53.083 406.979 52.472C407.551 51.848 408.318 51.536 409.254 51.536Z" fill="#161616"/>
<path fill-rule="evenodd" clip-rule="evenodd" d="M502 58.6665L497.333 53.9864L497.984 53.3332H497.985L502 57.3606L506.016 53.3332H506.017L506.667 53.9858V53.9871L502 58.6665Z" fill="#8F8F8F"/>
<path d="M397.921 85.718L395.451 95H394.268L392.461 88.916C392.409 88.734 392.357 88.5477 392.305 88.357C392.253 88.1663 392.205 87.9843 392.162 87.811C392.119 87.6377 392.08 87.4903 392.045 87.369C392.019 87.239 392.002 87.1437 391.993 87.083C391.984 87.1437 391.967 87.239 391.941 87.369C391.924 87.4903 391.893 87.6377 391.85 87.811C391.807 87.9843 391.759 88.1707 391.707 88.37C391.664 88.5607 391.612 88.7557 391.551 88.955L389.796 95H388.613L386.156 85.718H387.378L388.821 91.386C388.873 91.5853 388.921 91.7847 388.964 91.984C389.007 92.1747 389.046 92.3653 389.081 92.556C389.124 92.738 389.159 92.9157 389.185 93.089C389.211 93.2623 389.237 93.4313 389.263 93.596C389.289 93.4227 389.315 93.245 389.341 93.063C389.376 92.881 389.415 92.6947 389.458 92.504C389.501 92.3047 389.549 92.1053 389.601 91.906C389.653 91.7067 389.705 91.5117 389.757 91.321L391.395 85.718H392.604L394.307 91.36C394.368 91.5593 394.424 91.763 394.476 91.971C394.528 92.1703 394.576 92.3653 394.619 92.556C394.662 92.7467 394.697 92.933 394.723 93.115C394.758 93.2883 394.788 93.4487 394.814 93.596C394.84 93.3793 394.875 93.154 394.918 92.92C394.961 92.6773 395.013 92.426 395.074 92.166C395.135 91.906 395.2 91.6417 395.269 91.373L396.699 85.718H397.921ZM401.628 87.902C402.226 87.902 402.737 88.032 403.162 88.292C403.595 88.552 403.925 88.9203 404.15 89.397C404.384 89.865 404.501 90.4153 404.501 91.048V91.737H399.73C399.747 92.5257 399.947 93.128 400.328 93.544C400.718 93.9513 401.26 94.155 401.953 94.155C402.395 94.155 402.785 94.116 403.123 94.038C403.47 93.9513 403.825 93.83 404.189 93.674V94.675C403.834 94.831 403.483 94.9437 403.136 95.013C402.789 95.091 402.378 95.13 401.901 95.13C401.242 95.13 400.657 94.9957 400.146 94.727C399.643 94.4583 399.249 94.0597 398.963 93.531C398.686 92.9937 398.547 92.3393 398.547 91.568C398.547 90.8053 398.673 90.151 398.924 89.605C399.184 89.059 399.544 88.6387 400.003 88.344C400.471 88.0493 401.013 87.902 401.628 87.902ZM401.615 88.838C401.069 88.838 400.636 89.0157 400.315 89.371C400.003 89.7177 399.817 90.203 399.756 90.827H403.305C403.305 90.4283 403.244 90.0817 403.123 89.787C403.002 89.4923 402.815 89.2627 402.564 89.098C402.321 88.9247 402.005 88.838 401.615 88.838ZM407.419 88.032V95H406.275V88.032H407.419ZM406.86 85.419C407.033 85.419 407.185 85.4797 407.315 85.601C407.454 85.7137 407.523 85.8957 407.523 86.147C407.523 86.3897 407.454 86.5717 407.315 86.693C407.185 86.8143 407.033 86.875 406.86 86.875C406.669 86.875 406.509 86.8143 406.379 86.693C406.249 86.5717 406.184 86.3897 406.184 86.147C406.184 85.8957 406.249 85.7137 406.379 85.601C406.509 85.4797 406.669 85.419 406.86 85.419ZM412.096 87.902C412.556 87.902 412.967 87.9887 413.331 88.162C413.704 88.3353 414.02 88.5997 414.28 88.955H414.345L414.501 88.032H415.411V95.117C415.411 95.7757 415.299 96.326 415.073 96.768C414.848 97.2187 414.506 97.5567 414.046 97.782C413.587 98.0073 413.002 98.12 412.291 98.12C411.789 98.12 411.325 98.081 410.9 98.003C410.484 97.9337 410.112 97.8253 409.782 97.678V96.625C410.008 96.7377 410.255 96.833 410.523 96.911C410.792 96.9977 411.082 97.0627 411.394 97.106C411.706 97.1493 412.027 97.171 412.356 97.171C412.954 97.171 413.422 96.9933 413.76 96.638C414.107 96.2913 414.28 95.8147 414.28 95.208V94.935C414.28 94.831 414.285 94.6837 414.293 94.493C414.302 94.2937 414.311 94.155 414.319 94.077H414.267C414.025 94.4323 413.721 94.6967 413.357 94.87C413.002 95.0433 412.586 95.13 412.109 95.13C411.208 95.13 410.502 94.8137 409.99 94.181C409.488 93.5483 409.236 92.6643 409.236 91.529C409.236 90.7837 409.349 90.1423 409.574 89.605C409.808 89.059 410.138 88.6387 410.562 88.344C410.987 88.0493 411.498 87.902 412.096 87.902ZM412.252 88.864C411.862 88.864 411.529 88.968 411.251 89.176C410.983 89.384 410.775 89.6873 410.627 90.086C410.489 90.4847 410.419 90.97 410.419 91.542C410.419 92.4 410.575 93.0587 410.887 93.518C411.208 93.9687 411.672 94.194 412.278 94.194C412.634 94.194 412.937 94.1507 413.188 94.064C413.44 93.9687 413.648 93.8257 413.812 93.635C413.977 93.4357 414.098 93.1843 414.176 92.881C414.254 92.5777 414.293 92.218 414.293 91.802V91.529C414.293 90.8963 414.22 90.385 414.072 89.995C413.934 89.605 413.713 89.319 413.409 89.137C413.106 88.955 412.72 88.864 412.252 88.864ZM418.769 88.019C418.769 88.1837 418.76 88.3527 418.743 88.526C418.734 88.6993 418.721 88.8553 418.704 88.994H418.782C418.929 88.7513 419.115 88.552 419.341 88.396C419.566 88.24 419.817 88.123 420.095 88.045C420.372 87.9583 420.658 87.915 420.953 87.915C421.516 87.915 421.984 88.006 422.357 88.188C422.738 88.3613 423.024 88.6343 423.215 89.007C423.405 89.3797 423.501 89.865 423.501 90.463V95H422.37V90.541C422.37 89.9777 422.244 89.5573 421.993 89.28C421.741 89.0027 421.347 88.864 420.81 88.864C420.29 88.864 419.882 88.9637 419.588 89.163C419.293 89.3537 419.081 89.6397 418.951 90.021C418.829 90.3937 418.769 90.853 418.769 91.399V95H417.625V85.12H418.769V88.019ZM427.988 94.194C428.161 94.194 428.339 94.181 428.521 94.155C428.703 94.1203 428.85 94.0857 428.963 94.051V94.922C428.841 94.9827 428.668 95.0303 428.443 95.065C428.217 95.1083 428.001 95.13 427.793 95.13C427.429 95.13 427.091 95.0693 426.779 94.948C426.475 94.818 426.228 94.597 426.038 94.285C425.847 93.973 425.752 93.5353 425.752 92.972V88.916H424.764V88.37L425.765 87.915L426.22 86.433H426.896V88.032H428.911V88.916H426.896V92.946C426.896 93.3707 426.995 93.687 427.195 93.895C427.403 94.0943 427.667 94.194 427.988 94.194Z" fill="#161616"/>
<path d="M517.5 104.5V127.5H386.5V104.5H517.5Z" fill="white"/>
<path d="M517.5 104.5V127.5H386.5V104.5H517.5Z" stroke="#D9D9D9"/>
<path d="M402.992 111.718H403.993V118.023H405.501V118.894H403.993V121H402.979V118.894H398.312V117.88L402.992 111.718ZM402.94 113.109L399.209 118.023H402.979V113.109H402.94ZM409.695 111.536C410.8 111.536 411.632 112.017 412.204 113.005C412.698 113.837 412.945 114.955 412.945 116.359C412.945 117.763 412.698 118.881 412.204 119.713C411.632 120.688 410.8 121.182 409.695 121.182C408.577 121.182 407.745 120.688 407.186 119.713C406.692 118.881 406.445 117.763 406.445 116.359C406.445 114.955 406.692 113.837 407.186 113.005C407.745 112.017 408.577 111.536 409.695 111.536ZM409.695 112.446C408.863 112.446 408.265 112.888 407.901 113.785C407.641 114.409 407.511 115.267 407.511 116.359C407.511 117.438 407.641 118.296 407.901 118.933C408.265 119.817 408.863 120.272 409.695 120.272C410.527 120.272 411.125 119.817 411.489 118.933C411.749 118.296 411.892 117.438 411.892 116.359C411.892 115.267 411.749 114.409 411.489 113.785C411.125 112.888 410.527 112.446 409.695 112.446ZM417.49 111.536C418.595 111.536 419.427 112.017 419.999 113.005C420.493 113.837 420.74 114.955 420.74 116.359C420.74 117.763 420.493 118.881 419.999 119.713C419.427 120.688 418.595 121.182 417.49 121.182C416.372 121.182 415.54 120.688 414.981 119.713C414.487 118.881 414.24 117.763 414.24 116.359C414.24 114.955 414.487 113.837 414.981 113.005C415.54 112.017 416.372 111.536 417.49 111.536ZM417.49 112.446C416.658 112.446 416.06 112.888 415.696 113.785C415.436 114.409 415.306 115.267 415.306 116.359C415.306 117.438 415.436 118.296 415.696 118.933C416.06 119.817 416.658 120.272 417.49 120.272C418.322 120.272 418.92 119.817 419.284 118.933C419.544 118.296 419.687 117.438 419.687 116.359C419.687 115.267 419.544 114.409 419.284 113.785C418.92 112.888 418.322 112.446 417.49 112.446Z" fill="#161616"/>
<path fill-rule="evenodd" clip-rule="evenodd" d="M502 118.667L497.333 113.986L497.984 113.333H497.985L502 117.361L506.016 113.333H506.017L506.667 113.986V113.987L502 118.667Z" fill="#8F8F8F"/>
<path d="M391.239 146.615C390.745 146.615 390.299 146.702 389.9 146.875C389.501 147.04 389.163 147.287 388.886 147.616C388.609 147.937 388.396 148.331 388.249 148.799C388.102 149.258 388.028 149.778 388.028 150.359C388.028 151.122 388.145 151.785 388.379 152.348C388.622 152.911 388.977 153.345 389.445 153.648C389.922 153.951 390.515 154.103 391.226 154.103C391.633 154.103 392.019 154.068 392.383 153.999C392.747 153.93 393.102 153.843 393.449 153.739V154.753C393.102 154.883 392.743 154.978 392.37 155.039C392.006 155.1 391.568 155.13 391.057 155.13C390.112 155.13 389.324 154.935 388.691 154.545C388.058 154.155 387.582 153.6 387.261 152.881C386.949 152.162 386.793 151.317 386.793 150.346C386.793 149.644 386.888 149.003 387.079 148.422C387.278 147.841 387.564 147.339 387.937 146.914C388.318 146.489 388.786 146.164 389.341 145.939C389.896 145.705 390.533 145.588 391.252 145.588C391.729 145.588 392.188 145.636 392.63 145.731C393.072 145.826 393.466 145.961 393.813 146.134L393.345 147.122C393.059 146.992 392.738 146.875 392.383 146.771C392.036 146.667 391.655 146.615 391.239 146.615ZM401.377 151.503C401.377 152.084 401.299 152.599 401.143 153.05C400.996 153.492 400.779 153.869 400.493 154.181C400.216 154.493 399.873 154.731 399.466 154.896C399.067 155.052 398.621 155.13 398.127 155.13C397.668 155.13 397.243 155.052 396.853 154.896C396.463 154.731 396.125 154.493 395.839 154.181C395.553 153.869 395.328 153.492 395.163 153.05C395.007 152.599 394.929 152.084 394.929 151.503C394.929 150.732 395.059 150.082 395.319 149.553C395.579 149.016 395.952 148.608 396.437 148.331C396.922 148.045 397.499 147.902 398.166 147.902C398.799 147.902 399.353 148.045 399.83 148.331C400.315 148.608 400.692 149.016 400.961 149.553C401.238 150.082 401.377 150.732 401.377 151.503ZM396.112 151.503C396.112 152.049 396.181 152.526 396.32 152.933C396.467 153.332 396.693 153.639 396.996 153.856C397.299 154.073 397.685 154.181 398.153 154.181C398.621 154.181 399.007 154.073 399.31 153.856C399.613 153.639 399.834 153.332 399.973 152.933C400.12 152.526 400.194 152.049 400.194 151.503C400.194 150.948 400.12 150.476 399.973 150.086C399.826 149.696 399.6 149.397 399.297 149.189C399.002 148.972 398.617 148.864 398.14 148.864C397.429 148.864 396.914 149.098 396.593 149.566C396.272 150.034 396.112 150.68 396.112 151.503ZM404.334 155H403.19V145.12H404.334V155ZM412.6 151.503C412.6 152.084 412.522 152.599 412.366 153.05C412.218 153.492 412.002 153.869 411.716 154.181C411.438 154.493 411.096 154.731 410.689 154.896C410.29 155.052 409.844 155.13 409.35 155.13C408.89 155.13 408.466 155.052 408.076 154.896C407.686 154.731 407.348 154.493 407.062 154.181C406.776 153.869 406.55 153.492 406.386 153.05C406.23 152.599 406.152 152.084 406.152 151.503C406.152 150.732 406.282 150.082 406.542 149.553C406.802 149.016 407.174 148.608 407.66 148.331C408.145 148.045 408.721 147.902 409.389 147.902C410.021 147.902 410.576 148.045 411.053 148.331C411.538 148.608 411.915 149.016 412.184 149.553C412.461 150.082 412.6 150.732 412.6 151.503ZM407.335 151.503C407.335 152.049 407.404 152.526 407.543 152.933C407.69 153.332 407.915 153.639 408.219 153.856C408.522 154.073 408.908 154.181 409.376 154.181C409.844 154.181 410.229 154.073 410.533 153.856C410.836 153.639 411.057 153.332 411.196 152.933C411.343 152.526 411.417 152.049 411.417 151.503C411.417 150.948 411.343 150.476 411.196 150.086C411.048 149.696 410.823 149.397 410.52 149.189C410.225 148.972 409.839 148.864 409.363 148.864C408.652 148.864 408.136 149.098 407.816 149.566C407.495 150.034 407.335 150.68 407.335 151.503ZM417.663 147.902C417.793 147.902 417.931 147.911 418.079 147.928C418.235 147.937 418.369 147.954 418.482 147.98L418.339 149.033C418.226 149.007 418.1 148.985 417.962 148.968C417.832 148.951 417.706 148.942 417.585 148.942C417.316 148.942 417.06 148.998 416.818 149.111C416.575 149.224 416.358 149.384 416.168 149.592C415.977 149.791 415.825 150.034 415.713 150.32C415.609 150.606 415.557 150.927 415.557 151.282V155H414.413V148.032H415.349L415.479 149.306H415.531C415.678 149.046 415.856 148.812 416.064 148.604C416.272 148.387 416.51 148.218 416.779 148.097C417.047 147.967 417.342 147.902 417.663 147.902Z" fill="#161616"/>
<path d="M517.5 164.5V187.5H386.5V164.5H517.5Z" fill="white"/>
<path d="M517.5 164.5V187.5H386.5V164.5H517.5Z" stroke="#D9D9D9"/>
<path d="M398.936 171.718H402.732C404.864 171.718 405.93 172.628 405.93 174.448C405.93 176.281 404.851 177.204 402.719 177.204H400.002V181H398.936V171.718ZM400.002 172.641V176.281H402.667C403.421 176.281 403.967 176.125 404.331 175.826C404.682 175.527 404.864 175.072 404.864 174.448C404.864 173.824 404.682 173.369 404.318 173.096C403.954 172.784 403.408 172.641 402.667 172.641H400.002ZM410.098 174.097C410.462 174.097 410.774 174.149 411.021 174.253V175.293C410.683 175.189 410.345 175.15 410.02 175.15C409.5 175.15 409.058 175.371 408.707 175.839C408.343 176.281 408.174 176.814 408.174 177.438V181H407.147V174.279H408.174V175.449C408.356 175.059 408.59 174.747 408.876 174.526C409.227 174.24 409.63 174.097 410.098 174.097ZM412.753 171.744C412.974 171.744 413.156 171.809 413.312 171.965C413.468 172.095 413.546 172.277 413.546 172.511C413.546 172.732 413.468 172.914 413.312 173.07C413.156 173.213 412.974 173.291 412.753 173.291C412.532 173.291 412.35 173.213 412.194 173.07C412.038 172.914 411.973 172.732 411.973 172.511C411.973 172.277 412.038 172.095 412.194 171.965C412.35 171.809 412.532 171.744 412.753 171.744ZM412.233 174.279H413.273V181H412.233V174.279ZM418.159 174.097C419.186 174.097 419.888 174.513 420.265 175.371C420.525 174.929 420.837 174.604 421.201 174.409C421.526 174.201 421.916 174.097 422.384 174.097C423.086 174.097 423.645 174.318 424.087 174.76C424.503 175.215 424.724 175.826 424.724 176.593V181H423.684V176.762C423.684 176.164 423.554 175.722 423.307 175.436C423.047 175.124 422.631 174.981 422.059 174.981C421.617 174.981 421.24 175.137 420.954 175.475C420.642 175.813 420.499 176.242 420.499 176.788V181H419.459V176.762C419.459 175.566 418.939 174.981 417.912 174.981C417.431 174.981 417.041 175.163 416.729 175.553C416.417 175.917 416.261 176.372 416.261 176.905V181H415.221V174.279H416.261V175.176C416.768 174.448 417.405 174.097 418.159 174.097ZM429.267 174.097C430.229 174.097 430.931 174.344 431.399 174.851C431.789 175.293 431.997 175.904 431.997 176.684V181H431.022V179.869C430.762 180.233 430.411 180.532 429.995 180.766C429.501 181.039 428.942 181.182 428.318 181.182C427.642 181.182 427.109 181.013 426.706 180.675C426.29 180.324 426.082 179.869 426.082 179.323C426.082 178.556 426.381 177.984 427.005 177.594C427.551 177.23 428.331 177.035 429.345 177.022L430.957 176.996V176.645C430.957 175.514 430.372 174.955 429.202 174.955C428.708 174.955 428.305 175.046 427.993 175.254C427.642 175.462 427.421 175.787 427.317 176.216L426.29 176.138C426.433 175.436 426.784 174.903 427.33 174.565C427.824 174.253 428.461 174.097 429.267 174.097ZM430.957 177.776L429.41 177.802C427.902 177.828 427.148 178.322 427.148 179.297C427.148 179.609 427.265 179.856 427.525 180.064C427.785 180.259 428.123 180.363 428.539 180.363C429.176 180.363 429.735 180.155 430.229 179.739C430.71 179.336 430.957 178.868 430.957 178.348V177.776ZM436.555 174.097C436.919 174.097 437.231 174.149 437.478 174.253V175.293C437.14 175.189 436.802 175.15 436.477 175.15C435.957 175.15 435.515 175.371 435.164 175.839C434.8 176.281 434.631 176.814 434.631 177.438V181H433.604V174.279H434.631V175.449C434.813 175.059 435.047 174.747 435.333 174.526C435.684 174.24 436.087 174.097 436.555 174.097ZM437.611 174.279H438.742L440.796 179.583L442.785 174.279H443.929L440.25 183.574H439.119L440.276 180.844L437.611 174.279Z" fill="#161616"/>
<path fill-rule="evenodd" clip-rule="evenodd" d="M502 178.667L497.333 173.986L497.984 173.333H497.985L502 177.361L506.016 173.333H506.017L506.667 173.986V173.987L502 178.667Z" fill="#8F8F8F"/>
<path d="M393.085 215L391.967 212.127H388.288L387.183 215H386L389.627 205.679H390.68L394.294 215H393.085ZM390.576 208.279C390.55 208.21 390.507 208.084 390.446 207.902C390.385 207.72 390.325 207.534 390.264 207.343C390.212 207.144 390.169 206.992 390.134 206.888C390.091 207.061 390.043 207.239 389.991 207.421C389.948 207.594 389.9 207.755 389.848 207.902C389.805 208.049 389.766 208.175 389.731 208.279L388.678 211.087H391.616L390.576 208.279ZM396.552 215H395.408V205.12H396.552V215ZM399.903 208.032V215H398.759V208.032H399.903ZM399.344 205.419C399.518 205.419 399.669 205.48 399.799 205.601C399.938 205.714 400.007 205.896 400.007 206.147C400.007 206.39 399.938 206.572 399.799 206.693C399.669 206.814 399.518 206.875 399.344 206.875C399.154 206.875 398.993 206.814 398.863 206.693C398.733 206.572 398.668 206.39 398.668 206.147C398.668 205.896 398.733 205.714 398.863 205.601C398.993 205.48 399.154 205.419 399.344 205.419ZM404.581 207.902C405.04 207.902 405.452 207.989 405.816 208.162C406.189 208.335 406.505 208.6 406.765 208.955H406.83L406.986 208.032H407.896V215.117C407.896 215.776 407.783 216.326 407.558 216.768C407.333 217.219 406.99 217.557 406.531 217.782C406.072 218.007 405.487 218.12 404.776 218.12C404.273 218.12 403.81 218.081 403.385 218.003C402.969 217.934 402.596 217.825 402.267 217.678V216.625C402.492 216.738 402.739 216.833 403.008 216.911C403.277 216.998 403.567 217.063 403.879 217.106C404.191 217.149 404.512 217.171 404.841 217.171C405.439 217.171 405.907 216.993 406.245 216.638C406.592 216.291 406.765 215.815 406.765 215.208V214.935C406.765 214.831 406.769 214.684 406.778 214.493C406.787 214.294 406.795 214.155 406.804 214.077H406.752C406.509 214.432 406.206 214.697 405.842 214.87C405.487 215.043 405.071 215.13 404.594 215.13C403.693 215.13 402.986 214.814 402.475 214.181C401.972 213.548 401.721 212.664 401.721 211.529C401.721 210.784 401.834 210.142 402.059 209.605C402.293 209.059 402.622 208.639 403.047 208.344C403.472 208.049 403.983 207.902 404.581 207.902ZM404.737 208.864C404.347 208.864 404.013 208.968 403.736 209.176C403.467 209.384 403.259 209.687 403.112 210.086C402.973 210.485 402.904 210.97 402.904 211.542C402.904 212.4 403.06 213.059 403.372 213.518C403.693 213.969 404.156 214.194 404.763 214.194C405.118 214.194 405.422 214.151 405.673 214.064C405.924 213.969 406.132 213.826 406.297 213.635C406.462 213.436 406.583 213.184 406.661 212.881C406.739 212.578 406.778 212.218 406.778 211.802V211.529C406.778 210.896 406.704 210.385 406.557 209.995C406.418 209.605 406.197 209.319 405.894 209.137C405.591 208.955 405.205 208.864 404.737 208.864ZM413.463 207.902C414.295 207.902 414.923 208.106 415.348 208.513C415.773 208.912 415.985 209.562 415.985 210.463V215H414.854V210.541C414.854 209.978 414.728 209.557 414.477 209.28C414.226 209.003 413.831 208.864 413.294 208.864C412.523 208.864 411.99 209.081 411.695 209.514C411.4 209.947 411.253 210.571 411.253 211.386V215H410.109V208.032H411.032L411.201 208.981H411.266C411.422 208.738 411.613 208.539 411.838 208.383C412.072 208.218 412.328 208.097 412.605 208.019C412.882 207.941 413.168 207.902 413.463 207.902Z" fill="#161616"/>
<path d="M434.5 224.5V247.5H386.5V224.5H434.5Z" stroke="#465BC7"/>
<path d="M399.108 231.718H400.512V239.791H405.621V241H399.108V231.718ZM409.506 234.097C410.598 234.097 411.443 234.461 412.015 235.215C412.535 235.891 412.808 236.827 412.821 238.023H407.725C407.777 238.673 407.946 239.18 408.258 239.531C408.57 239.869 408.999 240.051 409.545 240.051C410.026 240.051 410.416 239.934 410.715 239.713C410.949 239.531 411.144 239.232 411.326 238.842H412.704C412.548 239.466 412.249 239.999 411.781 240.415C411.196 240.922 410.455 241.182 409.558 241.182C408.57 241.182 407.777 240.87 407.205 240.259C406.581 239.609 406.269 238.738 406.269 237.633C406.269 236.632 406.555 235.8 407.153 235.124C407.725 234.435 408.518 234.097 409.506 234.097ZM409.545 235.228C409.025 235.228 408.622 235.371 408.31 235.683C408.024 235.982 407.829 236.411 407.751 236.983H411.378C411.248 235.813 410.637 235.228 409.545 235.228ZM416.649 231.718H418.053V232.888H416.844C416.623 232.888 416.454 232.94 416.35 233.057C416.246 233.161 416.194 233.343 416.194 233.59V234.279H417.962V235.41H416.194V241H414.829V235.41H413.282V234.279H414.829V233.551C414.829 232.979 414.985 232.524 415.297 232.212C415.609 231.874 416.051 231.718 416.649 231.718ZM420.938 232.108V234.279H422.472V235.423H420.938V239.323C420.938 239.505 420.977 239.635 421.055 239.726C421.133 239.804 421.25 239.856 421.419 239.856H422.303V241H421.198C420.626 241 420.197 240.844 419.937 240.545C419.677 240.259 419.56 239.856 419.56 239.323V235.423H418.312V234.279H419.56V232.68L420.938 232.108Z" fill="#465BC7"/>
<path d="M508.5 224.5V247.5H443.5V224.5H508.5Z" fill="#465BC7" fill-opacity="0.2"/>
<path d="M508.5 224.5V247.5H443.5V224.5H508.5Z" stroke="#465BC7"/>
<path d="M460.342 231.536C461.421 231.536 462.318 231.809 463.02 232.381C463.696 232.927 464.112 233.681 464.255 234.617H462.877C462.721 233.993 462.422 233.525 461.98 233.226C461.538 232.927 460.992 232.784 460.316 232.784C459.315 232.784 458.561 233.122 458.054 233.811C457.573 234.435 457.339 235.293 457.339 236.372C457.339 237.49 457.573 238.348 458.041 238.959C458.535 239.609 459.302 239.934 460.342 239.934C461.018 239.934 461.59 239.765 462.032 239.427C462.5 239.063 462.825 238.517 463.007 237.789H464.385C464.177 238.868 463.696 239.713 462.929 240.324C462.214 240.896 461.356 241.182 460.355 241.182C458.834 241.182 457.69 240.688 456.923 239.726C456.247 238.894 455.922 237.776 455.922 236.372C455.922 234.994 456.26 233.876 456.962 233.005C457.742 232.017 458.86 231.536 460.342 231.536ZM468.538 234.097C469.63 234.097 470.475 234.461 471.047 235.215C471.567 235.891 471.84 236.827 471.853 238.023H466.757C466.809 238.673 466.978 239.18 467.29 239.531C467.602 239.869 468.031 240.051 468.577 240.051C469.058 240.051 469.448 239.934 469.747 239.713C469.981 239.531 470.176 239.232 470.358 238.842H471.736C471.58 239.466 471.281 239.999 470.813 240.415C470.228 240.922 469.487 241.182 468.59 241.182C467.602 241.182 466.809 240.87 466.237 240.259C465.613 239.609 465.301 238.738 465.301 237.633C465.301 236.632 465.587 235.8 466.185 235.124C466.757 234.435 467.55 234.097 468.538 234.097ZM468.577 235.228C468.057 235.228 467.654 235.371 467.342 235.683C467.056 235.982 466.861 236.411 466.783 236.983H470.41C470.28 235.813 469.669 235.228 468.577 235.228ZM476.435 234.097C478.099 234.097 478.944 235.007 478.944 236.853V241H477.566V236.97C477.566 235.826 477.033 235.254 475.993 235.254C475.603 235.254 475.252 235.384 474.966 235.67C474.654 235.982 474.459 236.411 474.407 236.957V241H473.029V234.279H474.407V235.111C474.667 234.773 474.966 234.526 475.304 234.357C475.642 234.175 476.019 234.097 476.435 234.097ZM482.56 232.108V234.279H484.094V235.423H482.56V239.323C482.56 239.505 482.599 239.635 482.677 239.726C482.755 239.804 482.872 239.856 483.041 239.856H483.925V241H482.82C482.248 241 481.819 240.844 481.559 240.545C481.299 240.259 481.182 239.856 481.182 239.323V235.423H479.934V234.279H481.182V232.68L482.56 232.108ZM488.05 234.097C489.142 234.097 489.987 234.461 490.559 235.215C491.079 235.891 491.352 236.827 491.365 238.023H486.269C486.321 238.673 486.49 239.18 486.802 239.531C487.114 239.869 487.543 240.051 488.089 240.051C488.57 240.051 488.96 239.934 489.259 239.713C489.493 239.531 489.688 239.232 489.87 238.842H491.248C491.092 239.466 490.793 239.999 490.325 240.415C489.74 240.922 488.999 241.182 488.102 241.182C487.114 241.182 486.321 240.87 485.749 240.259C485.125 239.609 484.813 238.738 484.813 237.633C484.813 236.632 485.099 235.8 485.697 235.124C486.269 234.435 487.062 234.097 488.05 234.097ZM488.089 235.228C487.569 235.228 487.166 235.371 486.854 235.683C486.568 235.982 486.373 236.411 486.295 236.983H489.922C489.792 235.813 489.181 235.228 488.089 235.228ZM495.661 234.097C495.999 234.097 496.298 234.149 496.532 234.266V235.644C496.194 235.54 495.869 235.501 495.557 235.501C495.141 235.501 494.764 235.67 494.439 236.008C494.088 236.372 493.919 236.853 493.919 237.438V241H492.541V234.279H493.919V235.293C494.088 234.929 494.309 234.656 494.569 234.474C494.881 234.214 495.245 234.097 495.661 234.097Z" fill="#465BC7"/>
<path d="M573.5 224.5V247.5H517.5V224.5H573.5Z" stroke="#465BC7"/>
<path d="M530.192 231.718H534.3C535.236 231.718 535.99 231.926 536.536 232.355C537.108 232.823 537.394 233.486 537.394 234.37C537.394 234.864 537.264 235.293 537.004 235.67C536.705 236.086 536.302 236.359 535.795 236.489V236.515C536.627 236.697 537.082 237.243 537.186 238.153L537.342 239.635C537.394 240.207 537.576 240.662 537.888 241H536.354C536.133 240.714 536.003 240.298 535.951 239.778L535.834 238.621C535.782 238.101 535.613 237.737 535.34 237.503C535.054 237.269 534.651 237.165 534.118 237.165H531.609V241H530.192V231.718ZM531.609 232.927V235.956H534.118C534.742 235.956 535.21 235.813 535.522 235.553C535.821 235.293 535.977 234.916 535.977 234.422C535.977 233.902 535.821 233.525 535.535 233.291C535.223 233.044 534.755 232.927 534.105 232.927H531.609ZM540.038 231.588C540.311 231.588 540.545 231.666 540.727 231.848C540.909 232.017 541 232.238 541 232.511C541 232.784 540.896 233.005 540.714 233.187C540.532 233.356 540.298 233.447 540.038 233.447C539.765 233.447 539.544 233.356 539.362 233.187C539.18 233.005 539.089 232.771 539.089 232.511C539.089 232.238 539.18 232.017 539.362 231.848C539.544 231.666 539.765 231.588 540.038 231.588ZM539.349 234.279H540.727V241H539.349V234.279ZM545.387 234.097C546.271 234.097 546.947 234.448 547.441 235.176V234.279H548.819V240.558C548.819 242.69 547.766 243.756 545.686 243.756C544.75 243.756 544.035 243.574 543.541 243.223C543.047 242.859 542.748 242.313 542.618 241.572H543.996C544.074 241.962 544.23 242.248 544.49 242.417C544.737 242.573 545.14 242.664 545.686 242.664C546.856 242.664 547.441 242.027 547.441 240.766V239.726C546.947 240.467 546.271 240.844 545.387 240.844C544.477 240.844 543.736 240.532 543.177 239.921C542.605 239.31 542.332 238.504 542.332 237.49C542.332 236.476 542.605 235.67 543.177 235.046C543.736 234.409 544.477 234.097 545.387 234.097ZM545.595 235.215C545.01 235.215 544.555 235.41 544.243 235.826C543.905 236.216 543.749 236.775 543.749 237.49C543.749 238.14 543.879 238.66 544.139 239.037C544.438 239.479 544.919 239.713 545.595 239.713C546.18 239.713 546.635 239.518 546.973 239.128C547.285 238.725 547.454 238.179 547.454 237.49C547.454 236.788 547.285 236.229 546.973 235.826C546.635 235.41 546.18 235.215 545.595 235.215ZM550.374 231.536H551.752V235.228C551.999 234.838 552.311 234.539 552.688 234.357C553.026 234.175 553.403 234.097 553.832 234.097C554.638 234.097 555.249 234.331 555.665 234.812C556.055 235.267 556.25 235.943 556.25 236.827V241H554.872V237.061C554.872 236.463 554.742 236.021 554.508 235.709C554.248 235.384 553.845 235.228 553.325 235.228C552.857 235.228 552.48 235.41 552.194 235.787C551.895 236.164 551.752 236.645 551.752 237.23V241H550.374V231.536ZM559.855 232.108V234.279H561.389V235.423H559.855V239.323C559.855 239.505 559.894 239.635 559.972 239.726C560.05 239.804 560.167 239.856 560.336 239.856H561.22V241H560.115C559.543 241 559.114 240.844 558.854 240.545C558.594 240.259 558.477 239.856 558.477 239.323V235.423H557.229V234.279H558.477V232.68L559.855 232.108Z" fill="#465BC7"/>
<path d="M647.5 224.5V247.5H582.5V224.5H647.5Z" stroke="#465BC7"/>
<path d="M599.08 231.718H600.497V238.01C600.497 239.05 600.276 239.83 599.847 240.35C599.353 240.896 598.573 241.182 597.507 241.182C596.584 241.182 595.882 240.922 595.414 240.415C594.92 239.895 594.673 239.193 594.673 238.283V237.971H596.09V238.27C596.09 239.375 596.571 239.934 597.533 239.934C598.079 239.934 598.469 239.765 598.716 239.453C598.95 239.141 599.08 238.647 599.08 237.958V231.718ZM602.19 234.279H603.568V238.374C603.568 238.946 603.685 239.362 603.932 239.622C604.166 239.882 604.556 240.025 605.089 240.025C605.453 240.025 605.778 239.869 606.09 239.583C606.402 239.284 606.623 238.881 606.74 238.387V234.279H608.118V241H606.74V240.09C606.168 240.818 605.466 241.182 604.621 241.182C602.996 241.182 602.19 240.272 602.19 238.465V234.279ZM612.202 234.097C613.944 234.097 614.906 234.799 615.062 236.216H613.723C613.619 235.852 613.463 235.605 613.242 235.462C613.008 235.306 612.644 235.228 612.176 235.228C611.76 235.228 611.448 235.28 611.24 235.41C610.993 235.54 610.876 235.748 610.876 236.008C610.876 236.242 611.058 236.437 611.422 236.606C611.656 236.71 612.098 236.84 612.774 237.009C613.541 237.191 614.113 237.412 614.477 237.646C615.01 237.984 615.283 238.452 615.283 239.05C615.283 240.467 614.282 241.182 612.293 241.182C610.447 241.182 609.459 240.389 609.303 238.829H610.655C610.733 239.284 610.902 239.609 611.136 239.791C611.37 239.96 611.734 240.051 612.254 240.051C613.32 240.051 613.866 239.739 613.866 239.141C613.866 238.816 613.658 238.556 613.268 238.374C613.06 238.27 612.605 238.14 611.916 237.984C611.123 237.802 610.564 237.607 610.252 237.399C609.732 237.074 609.472 236.619 609.472 236.047C609.472 235.436 609.719 234.955 610.226 234.617C610.733 234.266 611.396 234.097 612.202 234.097ZM618.488 232.108V234.279H620.022V235.423H618.488V239.323C618.488 239.505 618.527 239.635 618.605 239.726C618.683 239.804 618.8 239.856 618.969 239.856H619.853V241H618.748C618.176 241 617.747 240.844 617.487 240.545C617.227 240.259 617.11 239.856 617.11 239.323V235.423H615.862V234.279H617.11V232.68L618.488 232.108ZM622.106 231.588C622.379 231.588 622.613 231.666 622.795 231.848C622.977 232.017 623.068 232.238 623.068 232.511C623.068 232.784 622.964 233.005 622.782 233.187C622.6 233.356 622.366 233.447 622.106 233.447C621.833 233.447 621.612 233.356 621.43 233.187C621.248 233.005 621.157 232.771 621.157 232.511C621.157 232.238 621.248 232.017 621.43 231.848C621.612 231.666 621.833 231.588 622.106 231.588ZM621.417 234.279H622.795V241H621.417V234.279ZM627.312 231.718H628.716V232.888H627.507C627.286 232.888 627.117 232.94 627.013 233.057C626.909 233.161 626.857 233.343 626.857 233.59V234.279H628.625V235.41H626.857V241H625.492V235.41H623.945V234.279H625.492V233.551C625.492 232.979 625.648 232.524 625.96 232.212C626.272 231.874 626.714 231.718 627.312 231.718ZM628.846 234.279H630.341L632.187 239.18L633.955 234.279H635.463L631.81 243.574H630.341L631.511 240.844L628.846 234.279Z" fill="#465BC7"/>
<path d="M394.697 270.268C394.697 271.308 394.502 272.179 394.112 272.881C393.731 273.583 393.18 274.112 392.461 274.467C391.742 274.822 390.871 275 389.848 275H387.261V265.718H390.121C391.057 265.718 391.867 265.891 392.552 266.238C393.237 266.585 393.765 267.096 394.138 267.772C394.511 268.439 394.697 269.271 394.697 270.268ZM393.462 270.307C393.462 269.484 393.323 268.808 393.046 268.279C392.777 267.75 392.379 267.36 391.85 267.109C391.33 266.849 390.697 266.719 389.952 266.719H388.431V273.999H389.692C390.949 273.999 391.889 273.691 392.513 273.076C393.146 272.452 393.462 271.529 393.462 270.307ZM397.745 268.032V275H396.601V268.032H397.745ZM397.186 265.419C397.359 265.419 397.511 265.48 397.641 265.601C397.78 265.714 397.849 265.896 397.849 266.147C397.849 266.39 397.78 266.572 397.641 266.693C397.511 266.814 397.359 266.875 397.186 266.875C396.995 266.875 396.835 266.814 396.705 266.693C396.575 266.572 396.51 266.39 396.51 266.147C396.51 265.896 396.575 265.714 396.705 265.601C396.835 265.48 396.995 265.419 397.186 265.419ZM404.49 273.076C404.49 273.527 404.377 273.904 404.152 274.207C403.926 274.51 403.606 274.74 403.19 274.896C402.774 275.052 402.28 275.13 401.708 275.13C401.222 275.13 400.802 275.091 400.447 275.013C400.1 274.935 399.792 274.827 399.524 274.688V273.648C399.801 273.787 400.135 273.917 400.525 274.038C400.923 274.151 401.326 274.207 401.734 274.207C402.314 274.207 402.735 274.116 402.995 273.934C403.255 273.743 403.385 273.492 403.385 273.18C403.385 273.007 403.337 272.851 403.242 272.712C403.146 272.573 402.973 272.435 402.722 272.296C402.479 272.157 402.128 272.001 401.669 271.828C401.218 271.655 400.832 271.481 400.512 271.308C400.191 271.135 399.944 270.927 399.771 270.684C399.597 270.441 399.511 270.129 399.511 269.748C399.511 269.159 399.749 268.704 400.226 268.383C400.711 268.062 401.344 267.902 402.124 267.902C402.548 267.902 402.943 267.945 403.307 268.032C403.679 268.11 404.026 268.223 404.347 268.37L403.957 269.28C403.766 269.193 403.562 269.12 403.346 269.059C403.138 268.99 402.925 268.938 402.709 268.903C402.492 268.86 402.271 268.838 402.046 268.838C401.578 268.838 401.218 268.916 400.967 269.072C400.724 269.219 400.603 269.423 400.603 269.683C400.603 269.874 400.659 270.038 400.772 270.177C400.884 270.307 401.071 270.437 401.331 270.567C401.599 270.688 401.955 270.836 402.397 271.009C402.839 271.174 403.216 271.343 403.528 271.516C403.84 271.689 404.078 271.902 404.243 272.153C404.407 272.396 404.49 272.703 404.49 273.076ZM409.488 267.902C410.346 267.902 411.035 268.201 411.555 268.799C412.084 269.397 412.348 270.298 412.348 271.503C412.348 272.292 412.227 272.959 411.984 273.505C411.75 274.042 411.417 274.45 410.983 274.727C410.559 274.996 410.056 275.13 409.475 275.13C409.12 275.13 408.804 275.082 408.526 274.987C408.249 274.892 408.011 274.77 407.811 274.623C407.621 274.467 407.456 274.298 407.317 274.116H407.239C407.257 274.263 407.274 274.45 407.291 274.675C407.309 274.9 407.317 275.095 407.317 275.26V278.12H406.173V268.032H407.109L407.265 268.981H407.317C407.456 268.782 407.621 268.6 407.811 268.435C408.011 268.27 408.245 268.14 408.513 268.045C408.791 267.95 409.116 267.902 409.488 267.902ZM409.28 268.864C408.812 268.864 408.435 268.955 408.149 269.137C407.863 269.31 407.655 269.575 407.525 269.93C407.395 270.285 407.326 270.736 407.317 271.282V271.503C407.317 272.075 407.378 272.56 407.499 272.959C407.621 273.358 407.824 273.661 408.11 273.869C408.405 274.077 408.804 274.181 409.306 274.181C409.731 274.181 410.078 274.064 410.346 273.83C410.624 273.596 410.827 273.28 410.957 272.881C411.096 272.474 411.165 272.01 411.165 271.49C411.165 270.693 411.009 270.056 410.697 269.579C410.394 269.102 409.922 268.864 409.28 268.864ZM415.315 275H414.171V265.12H415.315V275ZM420.162 267.915C421.011 267.915 421.64 268.101 422.047 268.474C422.454 268.847 422.658 269.44 422.658 270.255V275H421.826L421.605 274.012H421.553C421.354 274.263 421.146 274.476 420.929 274.649C420.721 274.814 420.478 274.935 420.201 275.013C419.932 275.091 419.603 275.13 419.213 275.13C418.797 275.13 418.42 275.056 418.082 274.909C417.753 274.762 417.493 274.536 417.302 274.233C417.111 273.921 417.016 273.531 417.016 273.063C417.016 272.37 417.289 271.837 417.835 271.464C418.381 271.083 419.222 270.875 420.357 270.84L421.54 270.801V270.385C421.54 269.804 421.414 269.401 421.163 269.176C420.912 268.951 420.556 268.838 420.097 268.838C419.733 268.838 419.386 268.894 419.057 269.007C418.728 269.111 418.42 269.232 418.134 269.371L417.783 268.513C418.086 268.348 418.446 268.21 418.862 268.097C419.278 267.976 419.711 267.915 420.162 267.915ZM420.5 271.633C419.633 271.668 419.031 271.806 418.693 272.049C418.364 272.292 418.199 272.634 418.199 273.076C418.199 273.466 418.316 273.752 418.55 273.934C418.793 274.116 419.1 274.207 419.473 274.207C420.062 274.207 420.552 274.047 420.942 273.726C421.332 273.397 421.527 272.894 421.527 272.218V271.594L420.5 271.633ZM423.718 268.032H424.94L426.448 271.997C426.535 272.231 426.613 272.456 426.682 272.673C426.76 272.89 426.829 273.102 426.89 273.31C426.951 273.509 426.998 273.704 427.033 273.895H427.085C427.137 273.678 427.219 273.397 427.332 273.05C427.445 272.695 427.562 272.339 427.683 271.984L429.1 268.032H430.335L427.332 275.962C427.167 276.395 426.972 276.772 426.747 277.093C426.53 277.422 426.262 277.674 425.941 277.847C425.629 278.029 425.248 278.12 424.797 278.12C424.589 278.12 424.407 278.107 424.251 278.081C424.095 278.064 423.961 278.042 423.848 278.016V277.106C423.943 277.123 424.056 277.141 424.186 277.158C424.325 277.175 424.468 277.184 424.615 277.184C424.884 277.184 425.113 277.132 425.304 277.028C425.503 276.933 425.672 276.79 425.811 276.599C425.95 276.417 426.067 276.2 426.162 275.949L426.526 275.026L423.718 268.032Z" fill="#161616"/>
<path d="M444.5 284.5V307.5H386.5V284.5H444.5Z" stroke="#465BC7"/>
<path d="M399.265 291.718H403.503C404.413 291.718 405.115 291.926 405.635 292.368C406.129 292.784 406.376 293.343 406.376 294.058C406.376 294.578 406.246 295.02 405.986 295.384C405.726 295.722 405.375 295.982 404.907 296.151C405.518 296.268 405.986 296.515 406.298 296.892C406.61 297.269 406.766 297.776 406.766 298.4C406.766 299.336 406.441 300.012 405.804 300.454C405.258 300.818 404.491 301 403.503 301H399.265V291.718ZM400.682 292.888V295.657H403.126C403.776 295.657 404.244 295.54 404.53 295.319C404.816 295.085 404.959 294.721 404.959 294.227C404.959 293.759 404.816 293.421 404.53 293.213C404.244 292.992 403.776 292.888 403.152 292.888H400.682ZM400.682 296.814V299.83H403.308C403.906 299.83 404.374 299.726 404.712 299.544C405.128 299.297 405.349 298.907 405.349 298.374C405.349 297.828 405.18 297.425 404.855 297.178C404.53 296.931 404.023 296.814 403.347 296.814H400.682ZM408.216 291.536H409.594V301H408.216V291.536ZM414.404 294.097C415.418 294.097 416.237 294.435 416.848 295.111C417.446 295.774 417.758 296.619 417.758 297.646C417.758 298.66 417.459 299.505 416.861 300.155C416.237 300.831 415.418 301.182 414.404 301.182C413.39 301.182 412.571 300.831 411.947 300.155C411.349 299.505 411.05 298.66 411.05 297.646C411.05 296.619 411.349 295.774 411.96 295.111C412.571 294.435 413.39 294.097 414.404 294.097ZM414.404 295.228C413.767 295.228 413.273 295.475 412.922 295.982C412.61 296.411 412.467 296.97 412.467 297.646C412.467 298.322 412.61 298.868 412.922 299.297C413.273 299.791 413.767 300.051 414.404 300.051C415.041 300.051 415.535 299.791 415.899 299.297C416.211 298.855 416.367 298.309 416.367 297.646C416.367 296.97 416.211 296.411 415.899 295.982C415.535 295.475 415.041 295.228 414.404 295.228ZM422.057 294.097C422.915 294.097 423.604 294.292 424.124 294.682C424.644 295.098 424.982 295.722 425.112 296.554H423.747C423.656 296.099 423.474 295.761 423.188 295.553C422.902 295.332 422.525 295.228 422.057 295.228C421.485 295.228 421.043 295.436 420.718 295.865C420.38 296.281 420.224 296.879 420.224 297.633C420.224 298.387 420.38 298.985 420.705 299.414C421.004 299.83 421.446 300.051 422.044 300.051C423.071 300.051 423.643 299.531 423.773 298.517H425.138C424.982 299.414 424.631 300.09 424.111 300.532C423.591 300.961 422.889 301.182 422.031 301.182C421.004 301.182 420.211 300.844 419.639 300.168C419.08 299.518 418.807 298.686 418.807 297.646C418.807 296.632 419.08 295.8 419.626 295.15C420.211 294.448 421.017 294.097 422.057 294.097ZM426.316 291.536H427.694V297.048L430.606 294.279H432.387L429.41 297.048L432.647 301H430.879L428.461 297.932L427.694 298.647V301H426.316V291.536Z" fill="#465BC7"/>
<path d="M502.5 284.5V307.5H453.5V284.5H502.5Z" stroke="#465BC7"/>
<path d="M466.392 291.718H472.697V292.927H467.809V295.631H472.424V296.84H467.809V301H466.392V291.718ZM473.972 291.536H475.35V301H473.972V291.536ZM479.913 294.097C481.005 294.097 481.85 294.461 482.422 295.215C482.942 295.891 483.215 296.827 483.228 298.023H478.132C478.184 298.673 478.353 299.18 478.665 299.531C478.977 299.869 479.406 300.051 479.952 300.051C480.433 300.051 480.823 299.934 481.122 299.713C481.356 299.531 481.551 299.232 481.733 298.842H483.111C482.955 299.466 482.656 299.999 482.188 300.415C481.603 300.922 480.862 301.182 479.965 301.182C478.977 301.182 478.184 300.87 477.612 300.259C476.988 299.609 476.676 298.738 476.676 297.633C476.676 296.632 476.962 295.8 477.56 295.124C478.132 294.435 478.925 294.097 479.913 294.097ZM479.952 295.228C479.432 295.228 479.029 295.371 478.717 295.683C478.431 295.982 478.236 296.411 478.158 296.983H481.785C481.655 295.813 481.044 295.228 479.952 295.228ZM483.988 294.279H485.6L487.082 296.411L488.551 294.279H490.163L487.836 297.425L490.449 301H488.837L487.082 298.439L485.314 301H483.689L486.315 297.425L483.988 294.279Z" fill="#465BC7"/>
<path d="M608.5 284.5V307.5H511.5V284.5H608.5Z" stroke="#465BC7"/>
<path d="M524.247 291.718H525.651V301H524.247V291.718ZM530.772 294.097C532.436 294.097 533.281 295.007 533.281 296.853V301H531.903V296.97C531.903 295.826 531.37 295.254 530.33 295.254C529.94 295.254 529.589 295.384 529.303 295.67C528.991 295.982 528.796 296.411 528.744 296.957V301H527.366V294.279H528.744V295.111C529.004 294.773 529.303 294.526 529.641 294.357C529.979 294.175 530.356 294.097 530.772 294.097ZM535.012 291.536H536.39V301H535.012V291.536ZM539.081 291.588C539.354 291.588 539.588 291.666 539.77 291.848C539.952 292.017 540.043 292.238 540.043 292.511C540.043 292.784 539.939 293.005 539.757 293.187C539.575 293.356 539.341 293.447 539.081 293.447C538.808 293.447 538.587 293.356 538.405 293.187C538.223 293.005 538.132 292.771 538.132 292.511C538.132 292.238 538.223 292.017 538.405 291.848C538.587 291.666 538.808 291.588 539.081 291.588ZM538.392 294.279H539.77V301H538.392V294.279ZM545.041 294.097C546.705 294.097 547.55 295.007 547.55 296.853V301H546.172V296.97C546.172 295.826 545.639 295.254 544.599 295.254C544.209 295.254 543.858 295.384 543.572 295.67C543.26 295.982 543.065 296.411 543.013 296.957V301H541.635V294.279H543.013V295.111C543.273 294.773 543.572 294.526 543.91 294.357C544.248 294.175 544.625 294.097 545.041 294.097ZM551.973 294.097C553.065 294.097 553.91 294.461 554.482 295.215C555.002 295.891 555.275 296.827 555.288 298.023H550.192C550.244 298.673 550.413 299.18 550.725 299.531C551.037 299.869 551.466 300.051 552.012 300.051C552.493 300.051 552.883 299.934 553.182 299.713C553.416 299.531 553.611 299.232 553.793 298.842H555.171C555.015 299.466 554.716 299.999 554.248 300.415C553.663 300.922 552.922 301.182 552.025 301.182C551.037 301.182 550.244 300.87 549.672 300.259C549.048 299.609 548.736 298.738 548.736 297.633C548.736 296.632 549.022 295.8 549.62 295.124C550.192 294.435 550.985 294.097 551.973 294.097ZM552.012 295.228C551.492 295.228 551.089 295.371 550.777 295.683C550.491 295.982 550.296 296.411 550.218 296.983H553.845C553.715 295.813 553.104 295.228 552.012 295.228ZM556.334 297.061H562.899V298.205H556.334V297.061ZM564.335 291.536H565.713V295.28C566.259 294.487 566.935 294.097 567.767 294.097C568.729 294.097 569.483 294.448 570.042 295.15C570.549 295.8 570.809 296.619 570.809 297.607C570.809 298.634 570.549 299.479 570.029 300.129C569.457 300.831 568.69 301.182 567.702 301.182C566.779 301.182 566.09 300.844 565.622 300.194V301H564.335V291.536ZM567.455 295.215C566.935 295.215 566.519 295.41 566.207 295.826C565.843 296.268 565.674 296.853 565.674 297.581V297.698C565.674 298.374 565.817 298.92 566.103 299.349C566.428 299.817 566.896 300.064 567.494 300.064C568.17 300.064 568.664 299.817 568.989 299.336C569.249 298.92 569.392 298.348 569.392 297.607C569.392 296.866 569.249 296.294 568.963 295.904C568.638 295.436 568.131 295.215 567.455 295.215ZM572.26 291.536H573.638V301H572.26V291.536ZM578.448 294.097C579.462 294.097 580.281 294.435 580.892 295.111C581.49 295.774 581.802 296.619 581.802 297.646C581.802 298.66 581.503 299.505 580.905 300.155C580.281 300.831 579.462 301.182 578.448 301.182C577.434 301.182 576.615 300.831 575.991 300.155C575.393 299.505 575.094 298.66 575.094 297.646C575.094 296.619 575.393 295.774 576.004 295.111C576.615 294.435 577.434 294.097 578.448 294.097ZM578.448 295.228C577.811 295.228 577.317 295.475 576.966 295.982C576.654 296.411 576.511 296.97 576.511 297.646C576.511 298.322 576.654 298.868 576.966 299.297C577.317 299.791 577.811 300.051 578.448 300.051C579.085 300.051 579.579 299.791 579.943 299.297C580.255 298.855 580.411 298.309 580.411 297.646C580.411 296.97 580.255 296.411 579.943 295.982C579.579 295.475 579.085 295.228 578.448 295.228ZM586.101 294.097C586.959 294.097 587.648 294.292 588.168 294.682C588.688 295.098 589.026 295.722 589.156 296.554H587.791C587.7 296.099 587.518 295.761 587.232 295.553C586.946 295.332 586.569 295.228 586.101 295.228C585.529 295.228 585.087 295.436 584.762 295.865C584.424 296.281 584.268 296.879 584.268 297.633C584.268 298.387 584.424 298.985 584.749 299.414C585.048 299.83 585.49 300.051 586.088 300.051C587.115 300.051 587.687 299.531 587.817 298.517H589.182C589.026 299.414 588.675 300.09 588.155 300.532C587.635 300.961 586.933 301.182 586.075 301.182C585.048 301.182 584.255 300.844 583.683 300.168C583.124 299.518 582.851 298.686 582.851 297.646C582.851 296.632 583.124 295.8 583.67 295.15C584.255 294.448 585.061 294.097 586.101 294.097ZM590.36 291.536H591.738V297.048L594.65 294.279H596.431L593.454 297.048L596.691 301H594.923L592.505 297.932L591.738 298.647V301H590.36V291.536Z" fill="#465BC7"/>
<path d="M703.5 284.5V307.5H617.5V284.5H703.5Z" stroke="#465BC7"/>
<path d="M630.123 291.718H631.527V301H630.123V291.718ZM636.648 294.097C638.312 294.097 639.157 295.007 639.157 296.853V301H637.779V296.97C637.779 295.826 637.246 295.254 636.206 295.254C635.816 295.254 635.465 295.384 635.179 295.67C634.867 295.982 634.672 296.411 634.62 296.957V301H633.242V294.279H634.62V295.111C634.88 294.773 635.179 294.526 635.517 294.357C635.855 294.175 636.232 294.097 636.648 294.097ZM640.889 291.536H642.267V301H640.889V291.536ZM644.958 291.588C645.231 291.588 645.465 291.666 645.647 291.848C645.829 292.017 645.92 292.238 645.92 292.511C645.92 292.784 645.816 293.005 645.634 293.187C645.452 293.356 645.218 293.447 644.958 293.447C644.685 293.447 644.464 293.356 644.282 293.187C644.1 293.005 644.009 292.771 644.009 292.511C644.009 292.238 644.1 292.017 644.282 291.848C644.464 291.666 644.685 291.588 644.958 291.588ZM644.269 294.279H645.647V301H644.269V294.279ZM650.918 294.097C652.582 294.097 653.427 295.007 653.427 296.853V301H652.049V296.97C652.049 295.826 651.516 295.254 650.476 295.254C650.086 295.254 649.735 295.384 649.449 295.67C649.137 295.982 648.942 296.411 648.89 296.957V301H647.512V294.279H648.89V295.111C649.15 294.773 649.449 294.526 649.787 294.357C650.125 294.175 650.502 294.097 650.918 294.097ZM657.849 294.097C658.941 294.097 659.786 294.461 660.358 295.215C660.878 295.891 661.151 296.827 661.164 298.023H656.068C656.12 298.673 656.289 299.18 656.601 299.531C656.913 299.869 657.342 300.051 657.888 300.051C658.369 300.051 658.759 299.934 659.058 299.713C659.292 299.531 659.487 299.232 659.669 298.842H661.047C660.891 299.466 660.592 299.999 660.124 300.415C659.539 300.922 658.798 301.182 657.901 301.182C656.913 301.182 656.12 300.87 655.548 300.259C654.924 299.609 654.612 298.738 654.612 297.633C654.612 296.632 654.898 295.8 655.496 295.124C656.068 294.435 656.861 294.097 657.849 294.097ZM657.888 295.228C657.368 295.228 656.965 295.371 656.653 295.683C656.367 295.982 656.172 296.411 656.094 296.983H659.721C659.591 295.813 658.98 295.228 657.888 295.228ZM662.21 297.061H668.775V298.205H662.21V297.061ZM672.863 291.718H674.267V292.888H673.058C672.837 292.888 672.668 292.94 672.564 293.057C672.46 293.161 672.408 293.343 672.408 293.59V294.279H674.176V295.41H672.408V301H671.043V295.41H669.496V294.279H671.043V293.551C671.043 292.979 671.199 292.524 671.511 292.212C671.823 291.874 672.265 291.718 672.863 291.718ZM675.268 291.536H676.646V301H675.268V291.536ZM681.209 294.097C682.301 294.097 683.146 294.461 683.718 295.215C684.238 295.891 684.511 296.827 684.524 298.023H679.428C679.48 298.673 679.649 299.18 679.961 299.531C680.273 299.869 680.702 300.051 681.248 300.051C681.729 300.051 682.119 299.934 682.418 299.713C682.652 299.531 682.847 299.232 683.029 298.842H684.407C684.251 299.466 683.952 299.999 683.484 300.415C682.899 300.922 682.158 301.182 681.261 301.182C680.273 301.182 679.48 300.87 678.908 300.259C678.284 299.609 677.972 298.738 677.972 297.633C677.972 296.632 678.258 295.8 678.856 295.124C679.428 294.435 680.221 294.097 681.209 294.097ZM681.248 295.228C680.728 295.228 680.325 295.371 680.013 295.683C679.727 295.982 679.532 296.411 679.454 296.983H683.081C682.951 295.813 682.34 295.228 681.248 295.228ZM685.283 294.279H686.895L688.377 296.411L689.846 294.279H691.458L689.131 297.425L691.744 301H690.132L688.377 298.439L686.609 301H684.984L687.61 297.425L685.283 294.279Z" fill="#465BC7"/>
<path d="M392.448 335H387.261V325.718H392.448V326.745H388.431V329.644H392.214V330.658H388.431V333.973H392.448V335ZM395.473 335H394.329V325.12H395.473V335ZM398.824 335H397.68V325.12H398.824V335ZM402.176 328.032V335H401.032V328.032H402.176ZM401.617 325.419C401.79 325.419 401.942 325.48 402.072 325.601C402.21 325.714 402.28 325.896 402.28 326.147C402.28 326.39 402.21 326.572 402.072 326.693C401.942 326.814 401.79 326.875 401.617 326.875C401.426 326.875 401.266 326.814 401.136 326.693C401.006 326.572 400.941 326.39 400.941 326.147C400.941 325.896 401.006 325.714 401.136 325.601C401.266 325.48 401.426 325.419 401.617 325.419ZM407.698 327.902C408.556 327.902 409.245 328.201 409.765 328.799C410.294 329.397 410.558 330.298 410.558 331.503C410.558 332.292 410.437 332.959 410.194 333.505C409.96 334.042 409.627 334.45 409.193 334.727C408.769 334.996 408.266 335.13 407.685 335.13C407.33 335.13 407.014 335.082 406.736 334.987C406.459 334.892 406.221 334.77 406.021 334.623C405.831 334.467 405.666 334.298 405.527 334.116H405.449C405.467 334.263 405.484 334.45 405.501 334.675C405.519 334.9 405.527 335.095 405.527 335.26V338.12H404.383V328.032H405.319L405.475 328.981H405.527C405.666 328.782 405.831 328.6 406.021 328.435C406.221 328.27 406.455 328.14 406.723 328.045C407.001 327.95 407.326 327.902 407.698 327.902ZM407.49 328.864C407.022 328.864 406.645 328.955 406.359 329.137C406.073 329.31 405.865 329.575 405.735 329.93C405.605 330.285 405.536 330.736 405.527 331.282V331.503C405.527 332.075 405.588 332.56 405.709 332.959C405.831 333.358 406.034 333.661 406.32 333.869C406.615 334.077 407.014 334.181 407.516 334.181C407.941 334.181 408.288 334.064 408.556 333.83C408.834 333.596 409.037 333.28 409.167 332.881C409.306 332.474 409.375 332.01 409.375 331.49C409.375 330.693 409.219 330.056 408.907 329.579C408.604 329.102 408.132 328.864 407.49 328.864ZM416.918 333.076C416.918 333.527 416.806 333.904 416.58 334.207C416.355 334.51 416.034 334.74 415.618 334.896C415.202 335.052 414.708 335.13 414.136 335.13C413.651 335.13 413.231 335.091 412.875 335.013C412.529 334.935 412.221 334.827 411.952 334.688V333.648C412.23 333.787 412.563 333.917 412.953 334.038C413.352 334.151 413.755 334.207 414.162 334.207C414.743 334.207 415.163 334.116 415.423 333.934C415.683 333.743 415.813 333.492 415.813 333.18C415.813 333.007 415.766 332.851 415.67 332.712C415.575 332.573 415.402 332.435 415.15 332.296C414.908 332.157 414.557 332.001 414.097 331.828C413.647 331.655 413.261 331.481 412.94 331.308C412.62 331.135 412.373 330.927 412.199 330.684C412.026 330.441 411.939 330.129 411.939 329.748C411.939 329.159 412.178 328.704 412.654 328.383C413.14 328.062 413.772 327.902 414.552 327.902C414.977 327.902 415.371 327.945 415.735 328.032C416.108 328.11 416.455 328.223 416.775 328.37L416.385 329.28C416.195 329.193 415.991 329.12 415.774 329.059C415.566 328.99 415.354 328.938 415.137 328.903C414.921 328.86 414.7 328.838 414.474 328.838C414.006 328.838 413.647 328.916 413.395 329.072C413.153 329.219 413.031 329.423 413.031 329.683C413.031 329.874 413.088 330.038 413.2 330.177C413.313 330.307 413.499 330.437 413.759 330.567C414.028 330.688 414.383 330.836 414.825 331.009C415.267 331.174 415.644 331.343 415.956 331.516C416.268 331.689 416.507 331.902 416.671 332.153C416.836 332.396 416.918 332.703 416.918 333.076ZM419.746 328.032V335H418.602V328.032H419.746ZM419.187 325.419C419.36 325.419 419.512 325.48 419.642 325.601C419.781 325.714 419.85 325.896 419.85 326.147C419.85 326.39 419.781 326.572 419.642 326.693C419.512 326.814 419.36 326.875 419.187 326.875C418.996 326.875 418.836 326.814 418.706 326.693C418.576 326.572 418.511 326.39 418.511 326.147C418.511 325.896 418.576 325.714 418.706 325.601C418.836 325.48 418.996 325.419 419.187 325.419ZM426.491 333.076C426.491 333.527 426.378 333.904 426.153 334.207C425.927 334.51 425.607 334.74 425.191 334.896C424.775 335.052 424.281 335.13 423.709 335.13C423.223 335.13 422.803 335.091 422.448 335.013C422.101 334.935 421.793 334.827 421.525 334.688V333.648C421.802 333.787 422.136 333.917 422.526 334.038C422.924 334.151 423.327 334.207 423.735 334.207C424.315 334.207 424.736 334.116 424.996 333.934C425.256 333.743 425.386 333.492 425.386 333.18C425.386 333.007 425.338 332.851 425.243 332.712C425.147 332.573 424.974 332.435 424.723 332.296C424.48 332.157 424.129 332.001 423.67 331.828C423.219 331.655 422.833 331.481 422.513 331.308C422.192 331.135 421.945 330.927 421.772 330.684C421.598 330.441 421.512 330.129 421.512 329.748C421.512 329.159 421.75 328.704 422.227 328.383C422.712 328.062 423.345 327.902 424.125 327.902C424.549 327.902 424.944 327.945 425.308 328.032C425.68 328.11 426.027 328.223 426.348 328.37L425.958 329.28C425.767 329.193 425.563 329.12 425.347 329.059C425.139 328.99 424.926 328.938 424.71 328.903C424.493 328.86 424.272 328.838 424.047 328.838C423.579 328.838 423.219 328.916 422.968 329.072C422.725 329.219 422.604 329.423 422.604 329.683C422.604 329.874 422.66 330.038 422.773 330.177C422.885 330.307 423.072 330.437 423.332 330.567C423.6 330.688 423.956 330.836 424.398 331.009C424.84 331.174 425.217 331.343 425.529 331.516C425.841 331.689 426.079 331.902 426.244 332.153C426.408 332.396 426.491 332.703 426.491 333.076Z" fill="#161616"/>
<circle cx="398" cy="356" r="5.5" stroke="#465BC7"/>
<circle cx="398" cy="356" r="3" fill="#465BC7"/>
<path d="M410.936 351.718H417.15V352.641H412.002V355.761H416.877V356.684H412.002V361H410.936V351.718ZM421.234 354.097C422.196 354.097 422.898 354.344 423.366 354.851C423.756 355.293 423.964 355.904 423.964 356.684V361H422.989V359.869C422.729 360.233 422.378 360.532 421.962 360.766C421.468 361.039 420.909 361.182 420.285 361.182C419.609 361.182 419.076 361.013 418.673 360.675C418.257 360.324 418.049 359.869 418.049 359.323C418.049 358.556 418.348 357.984 418.972 357.594C419.518 357.23 420.298 357.035 421.312 357.022L422.924 356.996V356.645C422.924 355.514 422.339 354.955 421.169 354.955C420.675 354.955 420.272 355.046 419.96 355.254C419.609 355.462 419.388 355.787 419.284 356.216L418.257 356.138C418.4 355.436 418.751 354.903 419.297 354.565C419.791 354.253 420.428 354.097 421.234 354.097ZM422.924 357.776L421.377 357.802C419.869 357.828 419.115 358.322 419.115 359.297C419.115 359.609 419.232 359.856 419.492 360.064C419.752 360.259 420.09 360.363 420.506 360.363C421.143 360.363 421.702 360.155 422.196 359.739C422.677 359.336 422.924 358.868 422.924 358.348V357.776ZM425.779 351.536H426.806V361H425.779V351.536ZM431.009 354.097C432.673 354.097 433.583 354.786 433.765 356.19H432.751C432.66 355.774 432.491 355.462 432.231 355.28C431.945 355.072 431.529 354.968 430.996 354.968C430.528 354.968 430.164 355.046 429.904 355.228C429.618 355.397 429.475 355.631 429.475 355.93C429.475 356.216 429.657 356.463 430.047 356.658C430.294 356.775 430.762 356.918 431.438 357.1C432.244 357.295 432.816 357.503 433.167 357.724C433.7 358.062 433.973 358.517 433.973 359.102C433.973 360.48 433.024 361.182 431.126 361.182C429.358 361.182 428.396 360.402 428.24 358.855H429.254C429.332 359.388 429.527 359.765 429.813 359.999C430.099 360.207 430.528 360.311 431.1 360.311C432.296 360.311 432.907 359.921 432.907 359.167C432.907 358.79 432.686 358.504 432.27 358.296C432.049 358.192 431.568 358.049 430.84 357.867C430.047 357.672 429.488 357.477 429.176 357.269C428.656 356.957 428.409 356.528 428.409 355.956C428.409 355.384 428.656 354.942 429.163 354.604C429.631 354.266 430.255 354.097 431.009 354.097ZM437.963 354.097C439.042 354.097 439.861 354.461 440.407 355.189C440.901 355.839 441.161 356.762 441.187 357.932H435.883C435.935 358.686 436.13 359.271 436.494 359.687C436.858 360.103 437.365 360.311 438.002 360.311C438.548 360.311 439.003 360.168 439.341 359.895C439.627 359.661 439.848 359.31 440.017 358.842H441.057C440.901 359.492 440.602 360.012 440.147 360.428C439.588 360.922 438.873 361.182 438.002 361.182C437.04 361.182 436.26 360.857 435.688 360.233C435.09 359.583 434.804 358.725 434.804 357.633C434.804 356.645 435.077 355.813 435.649 355.15C436.221 354.448 436.988 354.097 437.963 354.097ZM437.989 354.968C437.391 354.968 436.91 355.163 436.546 355.553C436.182 355.943 435.974 356.463 435.909 357.126H440.108C439.978 355.683 439.263 354.968 437.989 354.968Z" fill="#161616"/>
<circle cx="466" cy="356" r="5.5" stroke="#8F8F8F"/>
<path d="M478.221 351.718H485.826V352.641H482.55V361H481.497V352.641H478.221V351.718ZM489.806 354.097C490.17 354.097 490.482 354.149 490.729 354.253V355.293C490.391 355.189 490.053 355.15 489.728 355.15C489.208 355.15 488.766 355.371 488.415 355.839C488.051 356.281 487.882 356.814 487.882 357.438V361H486.855V354.279H487.882V355.449C488.064 355.059 488.298 354.747 488.584 354.526C488.935 354.24 489.338 354.097 489.806 354.097ZM491.603 354.279H492.643V358.387C492.643 359.024 492.773 359.505 493.046 359.817C493.319 360.129 493.761 360.298 494.372 360.298C494.814 360.298 495.217 360.116 495.568 359.778C495.932 359.414 496.153 358.946 496.231 358.374V354.279H497.271V361H496.231V359.96C495.685 360.766 494.957 361.182 494.047 361.182C492.409 361.182 491.603 360.259 491.603 358.439V354.279ZM501.646 354.097C502.725 354.097 503.544 354.461 504.09 355.189C504.584 355.839 504.844 356.762 504.87 357.932H499.566C499.618 358.686 499.813 359.271 500.177 359.687C500.541 360.103 501.048 360.311 501.685 360.311C502.231 360.311 502.686 360.168 503.024 359.895C503.31 359.661 503.531 359.31 503.7 358.842H504.74C504.584 359.492 504.285 360.012 503.83 360.428C503.271 360.922 502.556 361.182 501.685 361.182C500.723 361.182 499.943 360.857 499.371 360.233C498.773 359.583 498.487 358.725 498.487 357.633C498.487 356.645 498.76 355.813 499.332 355.15C499.904 354.448 500.671 354.097 501.646 354.097ZM501.672 354.968C501.074 354.968 500.593 355.163 500.229 355.553C499.865 355.943 499.657 356.463 499.592 357.126H503.791C503.661 355.683 502.946 354.968 501.672 354.968Z" fill="#161616"/>
<path d="M390.459 387.902C391.291 387.902 391.919 388.106 392.344 388.513C392.769 388.912 392.981 389.562 392.981 390.463V395H391.85V390.541C391.85 389.978 391.724 389.557 391.473 389.28C391.222 389.003 390.827 388.864 390.29 388.864C389.519 388.864 388.986 389.081 388.691 389.514C388.396 389.947 388.249 390.571 388.249 391.386V395H387.105V388.032H388.028L388.197 388.981H388.262C388.418 388.738 388.609 388.539 388.834 388.383C389.068 388.218 389.324 388.097 389.601 388.019C389.878 387.941 390.164 387.902 390.459 387.902ZM401.199 391.503C401.199 392.084 401.121 392.599 400.965 393.05C400.818 393.492 400.601 393.869 400.315 394.181C400.038 394.493 399.695 394.731 399.288 394.896C398.889 395.052 398.443 395.13 397.949 395.13C397.49 395.13 397.065 395.052 396.675 394.896C396.285 394.731 395.947 394.493 395.661 394.181C395.375 393.869 395.15 393.492 394.985 393.05C394.829 392.599 394.751 392.084 394.751 391.503C394.751 390.732 394.881 390.082 395.141 389.553C395.401 389.016 395.774 388.608 396.259 388.331C396.744 388.045 397.321 387.902 397.988 387.902C398.621 387.902 399.175 388.045 399.652 388.331C400.137 388.608 400.514 389.016 400.783 389.553C401.06 390.082 401.199 390.732 401.199 391.503ZM395.934 391.503C395.934 392.049 396.003 392.526 396.142 392.933C396.289 393.332 396.515 393.639 396.818 393.856C397.121 394.073 397.507 394.181 397.975 394.181C398.443 394.181 398.829 394.073 399.132 393.856C399.435 393.639 399.656 393.332 399.795 392.933C399.942 392.526 400.016 392.049 400.016 391.503C400.016 390.948 399.942 390.476 399.795 390.086C399.648 389.696 399.422 389.397 399.119 389.189C398.824 388.972 398.439 388.864 397.962 388.864C397.251 388.864 396.736 389.098 396.415 389.566C396.094 390.034 395.934 390.68 395.934 391.503ZM413.828 385.718L411.358 395H410.175L408.368 388.916C408.316 388.734 408.264 388.548 408.212 388.357C408.16 388.166 408.113 387.984 408.069 387.811C408.026 387.638 407.987 387.49 407.952 387.369C407.926 387.239 407.909 387.144 407.9 387.083C407.892 387.144 407.874 387.239 407.848 387.369C407.831 387.49 407.801 387.638 407.757 387.811C407.714 387.984 407.666 388.171 407.614 388.37C407.571 388.561 407.519 388.756 407.458 388.955L405.703 395H404.52L402.063 385.718H403.285L404.728 391.386C404.78 391.585 404.828 391.785 404.871 391.984C404.915 392.175 404.954 392.365 404.988 392.556C405.032 392.738 405.066 392.916 405.092 393.089C405.118 393.262 405.144 393.431 405.17 393.596C405.196 393.423 405.222 393.245 405.248 393.063C405.283 392.881 405.322 392.695 405.365 392.504C405.409 392.305 405.456 392.105 405.508 391.906C405.56 391.707 405.612 391.512 405.664 391.321L407.302 385.718H408.511L410.214 391.36C410.275 391.559 410.331 391.763 410.383 391.971C410.435 392.17 410.483 392.365 410.526 392.556C410.57 392.747 410.604 392.933 410.63 393.115C410.665 393.288 410.695 393.449 410.721 393.596C410.747 393.379 410.782 393.154 410.825 392.92C410.869 392.677 410.921 392.426 410.981 392.166C411.042 391.906 411.107 391.642 411.176 391.373L412.606 385.718H413.828ZM418.221 387.902C418.351 387.902 418.49 387.911 418.637 387.928C418.793 387.937 418.928 387.954 419.04 387.98L418.897 389.033C418.785 389.007 418.659 388.985 418.52 388.968C418.39 388.951 418.265 388.942 418.143 388.942C417.875 388.942 417.619 388.998 417.376 389.111C417.134 389.224 416.917 389.384 416.726 389.592C416.536 389.791 416.384 390.034 416.271 390.32C416.167 390.606 416.115 390.927 416.115 391.282V395H414.971V388.032H415.907L416.037 389.306H416.089C416.237 389.046 416.414 388.812 416.622 388.604C416.83 388.387 417.069 388.218 417.337 388.097C417.606 387.967 417.901 387.902 418.221 387.902ZM422.726 387.915C423.576 387.915 424.204 388.101 424.611 388.474C425.019 388.847 425.222 389.44 425.222 390.255V395H424.39L424.169 394.012H424.117C423.918 394.263 423.71 394.476 423.493 394.649C423.285 394.814 423.043 394.935 422.765 395.013C422.497 395.091 422.167 395.13 421.777 395.13C421.361 395.13 420.984 395.056 420.646 394.909C420.317 394.762 420.057 394.536 419.866 394.233C419.676 393.921 419.58 393.531 419.58 393.063C419.58 392.37 419.853 391.837 420.399 391.464C420.945 391.083 421.786 390.875 422.921 390.84L424.104 390.801V390.385C424.104 389.804 423.979 389.401 423.727 389.176C423.476 388.951 423.121 388.838 422.661 388.838C422.297 388.838 421.951 388.894 421.621 389.007C421.292 389.111 420.984 389.232 420.698 389.371L420.347 388.513C420.651 388.348 421.01 388.21 421.426 388.097C421.842 387.976 422.276 387.915 422.726 387.915ZM423.064 391.633C422.198 391.668 421.595 391.806 421.257 392.049C420.928 392.292 420.763 392.634 420.763 393.076C420.763 393.466 420.88 393.752 421.114 393.934C421.357 394.116 421.665 394.207 422.037 394.207C422.627 394.207 423.116 394.047 423.506 393.726C423.896 393.397 424.091 392.894 424.091 392.218V391.594L423.064 391.633ZM430.69 387.902C431.548 387.902 432.237 388.201 432.757 388.799C433.285 389.397 433.55 390.298 433.55 391.503C433.55 392.292 433.428 392.959 433.186 393.505C432.952 394.042 432.618 394.45 432.185 394.727C431.76 394.996 431.257 395.13 430.677 395.13C430.321 395.13 430.005 395.082 429.728 394.987C429.45 394.892 429.212 394.77 429.013 394.623C428.822 394.467 428.657 394.298 428.519 394.116H428.441C428.458 394.263 428.475 394.45 428.493 394.675C428.51 394.9 428.519 395.095 428.519 395.26V398.12H427.375V388.032H428.311L428.467 388.981H428.519C428.657 388.782 428.822 388.6 429.013 388.435C429.212 388.27 429.446 388.14 429.715 388.045C429.992 387.95 430.317 387.902 430.69 387.902ZM430.482 388.864C430.014 388.864 429.637 388.955 429.351 389.137C429.065 389.31 428.857 389.575 428.727 389.93C428.597 390.285 428.527 390.736 428.519 391.282V391.503C428.519 392.075 428.579 392.56 428.701 392.959C428.822 393.358 429.026 393.661 429.312 393.869C429.606 394.077 430.005 394.181 430.508 394.181C430.932 394.181 431.279 394.064 431.548 393.83C431.825 393.596 432.029 393.28 432.159 392.881C432.297 392.474 432.367 392.01 432.367 391.49C432.367 390.693 432.211 390.056 431.899 389.579C431.595 389.102 431.123 388.864 430.482 388.864Z" fill="#161616"/>
<circle cx="398" cy="416" r="5.5" stroke="#465BC7"/>
<circle cx="398" cy="416" r="3" fill="#465BC7"/>
<path d="M410.936 411.718H417.15V412.641H412.002V415.761H416.877V416.684H412.002V421H410.936V411.718ZM421.234 414.097C422.196 414.097 422.898 414.344 423.366 414.851C423.756 415.293 423.964 415.904 423.964 416.684V421H422.989V419.869C422.729 420.233 422.378 420.532 421.962 420.766C421.468 421.039 420.909 421.182 420.285 421.182C419.609 421.182 419.076 421.013 418.673 420.675C418.257 420.324 418.049 419.869 418.049 419.323C418.049 418.556 418.348 417.984 418.972 417.594C419.518 417.23 420.298 417.035 421.312 417.022L422.924 416.996V416.645C422.924 415.514 422.339 414.955 421.169 414.955C420.675 414.955 420.272 415.046 419.96 415.254C419.609 415.462 419.388 415.787 419.284 416.216L418.257 416.138C418.4 415.436 418.751 414.903 419.297 414.565C419.791 414.253 420.428 414.097 421.234 414.097ZM422.924 417.776L421.377 417.802C419.869 417.828 419.115 418.322 419.115 419.297C419.115 419.609 419.232 419.856 419.492 420.064C419.752 420.259 420.09 420.363 420.506 420.363C421.143 420.363 421.702 420.155 422.196 419.739C422.677 419.336 422.924 418.868 422.924 418.348V417.776ZM425.779 411.536H426.806V421H425.779V411.536ZM431.009 414.097C432.673 414.097 433.583 414.786 433.765 416.19H432.751C432.66 415.774 432.491 415.462 432.231 415.28C431.945 415.072 431.529 414.968 430.996 414.968C430.528 414.968 430.164 415.046 429.904 415.228C429.618 415.397 429.475 415.631 429.475 415.93C429.475 416.216 429.657 416.463 430.047 416.658C430.294 416.775 430.762 416.918 431.438 417.1C432.244 417.295 432.816 417.503 433.167 417.724C433.7 418.062 433.973 418.517 433.973 419.102C433.973 420.48 433.024 421.182 431.126 421.182C429.358 421.182 428.396 420.402 428.24 418.855H429.254C429.332 419.388 429.527 419.765 429.813 419.999C430.099 420.207 430.528 420.311 431.1 420.311C432.296 420.311 432.907 419.921 432.907 419.167C432.907 418.79 432.686 418.504 432.27 418.296C432.049 418.192 431.568 418.049 430.84 417.867C430.047 417.672 429.488 417.477 429.176 417.269C428.656 416.957 428.409 416.528 428.409 415.956C428.409 415.384 428.656 414.942 429.163 414.604C429.631 414.266 430.255 414.097 431.009 414.097ZM437.963 414.097C439.042 414.097 439.861 414.461 440.407 415.189C440.901 415.839 441.161 416.762 441.187 417.932H435.883C435.935 418.686 436.13 419.271 436.494 419.687C436.858 420.103 437.365 420.311 438.002 420.311C438.548 420.311 439.003 420.168 439.341 419.895C439.627 419.661 439.848 419.31 440.017 418.842H441.057C440.901 419.492 440.602 420.012 440.147 420.428C439.588 420.922 438.873 421.182 438.002 421.182C437.04 421.182 436.26 420.857 435.688 420.233C435.09 419.583 434.804 418.725 434.804 417.633C434.804 416.645 435.077 415.813 435.649 415.15C436.221 414.448 436.988 414.097 437.963 414.097ZM437.989 414.968C437.391 414.968 436.91 415.163 436.546 415.553C436.182 415.943 435.974 416.463 435.909 417.126H440.108C439.978 415.683 439.263 414.968 437.989 414.968Z" fill="#161616"/>
<circle cx="466" cy="416" r="5.5" stroke="#8F8F8F"/>
<path d="M478.221 411.718H485.826V412.641H482.55V421H481.497V412.641H478.221V411.718ZM489.806 414.097C490.17 414.097 490.482 414.149 490.729 414.253V415.293C490.391 415.189 490.053 415.15 489.728 415.15C489.208 415.15 488.766 415.371 488.415 415.839C488.051 416.281 487.882 416.814 487.882 417.438V421H486.855V414.279H487.882V415.449C488.064 415.059 488.298 414.747 488.584 414.526C488.935 414.24 489.338 414.097 489.806 414.097ZM491.603 414.279H492.643V418.387C492.643 419.024 492.773 419.505 493.046 419.817C493.319 420.129 493.761 420.298 494.372 420.298C494.814 420.298 495.217 420.116 495.568 419.778C495.932 419.414 496.153 418.946 496.231 418.374V414.279H497.271V421H496.231V419.96C495.685 420.766 494.957 421.182 494.047 421.182C492.409 421.182 491.603 420.259 491.603 418.439V414.279ZM501.646 414.097C502.725 414.097 503.544 414.461 504.09 415.189C504.584 415.839 504.844 416.762 504.87 417.932H499.566C499.618 418.686 499.813 419.271 500.177 419.687C500.541 420.103 501.048 420.311 501.685 420.311C502.231 420.311 502.686 420.168 503.024 419.895C503.31 419.661 503.531 419.31 503.7 418.842H504.74C504.584 419.492 504.285 420.012 503.83 420.428C503.271 420.922 502.556 421.182 501.685 421.182C500.723 421.182 499.943 420.857 499.371 420.233C498.773 419.583 498.487 418.725 498.487 417.633C498.487 416.645 498.76 415.813 499.332 415.15C499.904 414.448 500.671 414.097 501.646 414.097ZM501.672 414.968C501.074 414.968 500.593 415.163 500.229 415.553C499.865 415.943 499.657 416.463 499.592 417.126H503.791C503.661 415.683 502.946 414.968 501.672 414.968Z" fill="#161616"/>
</svg>
