<svg width="780" height="212" viewBox="0 0 780 212" fill="none" xmlns="http://www.w3.org/2000/svg">
<mask id="path-2-inside-1_56_9031" fill="white">
<path d="M0 2C0 0.895429 0.895431 0 2 0H778C779.105 0 780 0.89543 780 2V164H0V2Z"/>
</mask>
<path d="M0 2C0 0.895429 0.895431 0 2 0H778C779.105 0 780 0.89543 780 2V164H0V2Z" fill="white"/>
<path d="M-1 2C-1 0.343146 0.343146 -1 2 -1H778C779.657 -1 781 0.343146 781 2H779C779 1.44772 778.552 1 778 1H2C1.44772 1 1 1.44772 1 2H-1ZM780 164H0H780ZM-1 164V2C-1 0.343146 0.343146 -1 2 -1V1C1.44772 1 1 1.44772 1 2V164H-1ZM778 -1C779.657 -1 781 0.343146 781 2V164H779V2C779 1.44772 778.552 1 778 1V-1Z" fill="#D9D9D9" mask="url(#path-2-inside-1_56_9031)"/>
<path d="M43.822 33.718C44.5933 33.718 45.226 33.8177 45.72 34.017C46.2227 34.2077 46.5953 34.498 46.838 34.888C47.0807 35.278 47.202 35.7677 47.202 36.357C47.202 36.851 47.111 37.2627 46.929 37.592C46.747 37.9213 46.513 38.1857 46.227 38.385C45.9497 38.5757 45.655 38.7273 45.343 38.84L47.891 43H46.526L44.277 39.165H42.431V43H41.261V33.718H43.822ZM43.757 34.732H42.431V38.177H43.822C44.3247 38.177 44.7363 38.112 45.057 37.982C45.3777 37.8433 45.6117 37.644 45.759 37.384C45.915 37.124 45.993 36.799 45.993 36.409C45.993 36.0017 45.9107 35.6767 45.746 35.434C45.59 35.1913 45.3473 35.0137 45.018 34.901C44.6887 34.7883 44.2683 34.732 43.757 34.732ZM51.8829 35.902C52.4809 35.902 52.9922 36.032 53.4169 36.292C53.8502 36.552 54.1796 36.9203 54.4049 37.397C54.6389 37.865 54.7559 38.4153 54.7559 39.048V39.737H49.9849C50.0022 40.5257 50.2016 41.128 50.5829 41.544C50.9729 41.9513 51.5146 42.155 52.2079 42.155C52.6499 42.155 53.0399 42.116 53.3779 42.038C53.7246 41.9513 54.0799 41.83 54.4439 41.674V42.675C54.0886 42.831 53.7376 42.9437 53.3909 43.013C53.0442 43.091 52.6326 43.13 52.1559 43.13C51.4972 43.13 50.9122 42.9957 50.4009 42.727C49.8982 42.4583 49.5039 42.0597 49.2179 41.531C48.9406 40.9937 48.8019 40.3393 48.8019 39.568C48.8019 38.8053 48.9276 38.151 49.1789 37.605C49.4389 37.059 49.7986 36.6387 50.2579 36.344C50.7259 36.0493 51.2676 35.902 51.8829 35.902ZM51.8699 36.838C51.3239 36.838 50.8906 37.0157 50.5699 37.371C50.2579 37.7177 50.0716 38.203 50.0109 38.827H53.5599C53.5599 38.4283 53.4992 38.0817 53.3779 37.787C53.2566 37.4923 53.0702 37.2627 52.8189 37.098C52.5762 36.9247 52.2599 36.838 51.8699 36.838ZM58.9998 35.902C59.4591 35.902 59.8708 35.9887 60.2348 36.162C60.6075 36.3353 60.9238 36.5997 61.1838 36.955H61.2488L61.4048 36.032H62.3148V43.117C62.3148 43.7757 62.2021 44.326 61.9768 44.768C61.7515 45.2187 61.4091 45.5567 60.9498 45.782C60.4905 46.0073 59.9055 46.12 59.1948 46.12C58.6921 46.12 58.2285 46.081 57.8038 46.003C57.3878 45.9337 57.0151 45.8253 56.6858 45.678V44.625C56.9111 44.7377 57.1581 44.833 57.4268 44.911C57.6955 44.9977 57.9858 45.0627 58.2978 45.106C58.6098 45.1493 58.9305 45.171 59.2598 45.171C59.8578 45.171 60.3258 44.9933 60.6638 44.638C61.0105 44.2913 61.1838 43.8147 61.1838 43.208V42.935C61.1838 42.831 61.1881 42.6837 61.1968 42.493C61.2055 42.2937 61.2141 42.155 61.2228 42.077H61.1708C60.9281 42.4323 60.6248 42.6967 60.2608 42.87C59.9055 43.0433 59.4895 43.13 59.0128 43.13C58.1115 43.13 57.4051 42.8137 56.8938 42.181C56.3911 41.5483 56.1398 40.6643 56.1398 39.529C56.1398 38.7837 56.2525 38.1423 56.4778 37.605C56.7118 37.059 57.0411 36.6387 57.4658 36.344C57.8905 36.0493 58.4018 35.902 58.9998 35.902ZM59.1558 36.864C58.7658 36.864 58.4321 36.968 58.1548 37.176C57.8861 37.384 57.6781 37.6873 57.5308 38.086C57.3921 38.4847 57.3228 38.97 57.3228 39.542C57.3228 40.4 57.4788 41.0587 57.7908 41.518C58.1115 41.9687 58.5751 42.194 59.1818 42.194C59.5371 42.194 59.8405 42.1507 60.0918 42.064C60.3431 41.9687 60.5511 41.8257 60.7158 41.635C60.8805 41.4357 61.0018 41.1843 61.0798 40.881C61.1578 40.5777 61.1968 40.218 61.1968 39.802V39.529C61.1968 38.8963 61.1231 38.385 60.9758 37.995C60.8371 37.605 60.6161 37.319 60.3128 37.137C60.0095 36.955 59.6238 36.864 59.1558 36.864ZM70.3519 36.032V43H69.4159L69.2469 42.077H69.1949C69.0475 42.3197 68.8569 42.519 68.6229 42.675C68.3889 42.831 68.1332 42.9437 67.8559 43.013C67.5785 43.091 67.2882 43.13 66.9849 43.13C66.4302 43.13 65.9622 43.0433 65.5809 42.87C65.2082 42.688 64.9265 42.4107 64.7359 42.038C64.5452 41.6653 64.4499 41.1843 64.4499 40.595V36.032H65.6069V40.517C65.6069 41.0717 65.7325 41.4877 65.9839 41.765C66.2352 42.0423 66.6252 42.181 67.1539 42.181C67.6739 42.181 68.0812 42.0857 68.3759 41.895C68.6792 41.6957 68.8915 41.4097 69.0129 41.037C69.1429 40.6557 69.2079 40.1963 69.2079 39.659V36.032H70.3519ZM73.708 43H72.564V33.12H73.708V43ZM78.5545 35.915C79.4039 35.915 80.0322 36.1013 80.4395 36.474C80.8469 36.8467 81.0505 37.4403 81.0505 38.255V43H80.2185L79.9975 42.012H79.9455C79.7462 42.2633 79.5382 42.4757 79.3215 42.649C79.1135 42.8137 78.8709 42.935 78.5935 43.013C78.3249 43.091 77.9955 43.13 77.6055 43.13C77.1895 43.13 76.8125 43.0563 76.4745 42.909C76.1452 42.7617 75.8852 42.5363 75.6945 42.233C75.5039 41.921 75.4085 41.531 75.4085 41.063C75.4085 40.3697 75.6815 39.8367 76.2275 39.464C76.7735 39.0827 77.6142 38.8747 78.7495 38.84L79.9325 38.801V38.385C79.9325 37.8043 79.8069 37.4013 79.5555 37.176C79.3042 36.9507 78.9489 36.838 78.4895 36.838C78.1255 36.838 77.7789 36.8943 77.4495 37.007C77.1202 37.111 76.8125 37.2323 76.5265 37.371L76.1755 36.513C76.4789 36.3483 76.8385 36.2097 77.2545 36.097C77.6705 35.9757 78.1039 35.915 78.5545 35.915ZM78.8925 39.633C78.0259 39.6677 77.4235 39.8063 77.0855 40.049C76.7562 40.2917 76.5915 40.634 76.5915 41.076C76.5915 41.466 76.7085 41.752 76.9425 41.934C77.1852 42.116 77.4929 42.207 77.8655 42.207C78.4549 42.207 78.9445 42.0467 79.3345 41.726C79.7245 41.3967 79.9195 40.894 79.9195 40.218V39.594L78.8925 39.633ZM86.4527 35.902C86.5827 35.902 86.7213 35.9107 86.8687 35.928C87.0247 35.9367 87.159 35.954 87.2717 35.98L87.1287 37.033C87.016 37.007 86.8903 36.9853 86.7517 36.968C86.6217 36.9507 86.496 36.942 86.3747 36.942C86.106 36.942 85.8503 36.9983 85.6077 37.111C85.365 37.2237 85.1483 37.384 84.9577 37.592C84.767 37.7913 84.6153 38.034 84.5027 38.32C84.3987 38.606 84.3467 38.9267 84.3467 39.282V43H83.2027V36.032H84.1387L84.2687 37.306H84.3207C84.468 37.046 84.6457 36.812 84.8537 36.604C85.0617 36.3873 85.3 36.2183 85.5687 36.097C85.8373 35.967 86.132 35.902 86.4527 35.902ZM91.3647 39.438C91.3647 38.7273 91.4297 38.034 91.5597 37.358C91.6984 36.682 91.9107 36.0363 92.1967 35.421C92.4827 34.8057 92.8424 34.238 93.2757 33.718H94.3547C93.9561 34.2553 93.6181 34.836 93.3407 35.46C93.0721 36.084 92.8684 36.7297 92.7297 37.397C92.5911 38.0643 92.5217 38.7403 92.5217 39.425C92.5217 40.0923 92.5911 40.7553 92.7297 41.414C92.8684 42.0727 93.0721 42.7053 93.3407 43.312C93.6094 43.9273 93.9431 44.508 94.3417 45.054H93.2757C92.8424 44.5427 92.4827 43.9837 92.1967 43.377C91.9107 42.779 91.6984 42.1463 91.5597 41.479C91.4297 40.8117 91.3647 40.1313 91.3647 39.438ZM101.918 40.894H100.566V43H99.4612V40.894H95.0152V39.919L99.3832 33.666H100.566V39.867H101.918V40.894ZM99.4612 36.942C99.4612 36.7167 99.4612 36.513 99.4612 36.331C99.4699 36.1403 99.4785 35.9627 99.4872 35.798C99.4959 35.6333 99.5002 35.4773 99.5002 35.33C99.5089 35.174 99.5175 35.0267 99.5262 34.888H99.4742C99.4049 35.0527 99.3182 35.2303 99.2142 35.421C99.1102 35.6117 99.0105 35.772 98.9152 35.902L96.1332 39.867H99.4612V36.942ZM108.981 38.346C108.981 39.1 108.924 39.7717 108.812 40.361C108.699 40.9503 108.517 41.453 108.266 41.869C108.023 42.2763 107.702 42.5883 107.304 42.805C106.914 43.0217 106.441 43.13 105.887 43.13C105.193 43.13 104.617 42.9393 104.158 42.558C103.707 42.1767 103.369 41.6307 103.144 40.92C102.927 40.2007 102.819 39.3427 102.819 38.346C102.819 37.3407 102.918 36.4827 103.118 35.772C103.326 35.0613 103.655 34.5197 104.106 34.147C104.556 33.7657 105.15 33.575 105.887 33.575C106.58 33.575 107.156 33.7657 107.616 34.147C108.075 34.5197 108.417 35.0613 108.643 35.772C108.868 36.4827 108.981 37.3407 108.981 38.346ZM103.963 38.346C103.963 39.1953 104.023 39.9017 104.145 40.465C104.275 41.0283 104.478 41.453 104.756 41.739C105.042 42.0163 105.419 42.155 105.887 42.155C106.355 42.155 106.727 42.0163 107.005 41.739C107.291 41.4617 107.499 41.0413 107.629 40.478C107.759 39.906 107.824 39.1953 107.824 38.346C107.824 37.4967 107.759 36.7947 107.629 36.24C107.499 35.6767 107.291 35.2563 107.005 34.979C106.727 34.693 106.355 34.55 105.887 34.55C105.419 34.55 105.042 34.693 104.756 34.979C104.478 35.2563 104.275 35.6767 104.145 36.24C104.023 36.7947 103.963 37.4967 103.963 38.346ZM116.42 38.346C116.42 39.1 116.364 39.7717 116.251 40.361C116.138 40.9503 115.956 41.453 115.705 41.869C115.462 42.2763 115.142 42.5883 114.743 42.805C114.353 43.0217 113.881 43.13 113.326 43.13C112.633 43.13 112.056 42.9393 111.597 42.558C111.146 42.1767 110.808 41.6307 110.583 40.92C110.366 40.2007 110.258 39.3427 110.258 38.346C110.258 37.3407 110.358 36.4827 110.557 35.772C110.765 35.0613 111.094 34.5197 111.545 34.147C111.996 33.7657 112.589 33.575 113.326 33.575C114.019 33.575 114.596 33.7657 115.055 34.147C115.514 34.5197 115.857 35.0613 116.082 35.772C116.307 36.4827 116.42 37.3407 116.42 38.346ZM111.402 38.346C111.402 39.1953 111.463 39.9017 111.584 40.465C111.714 41.0283 111.918 41.453 112.195 41.739C112.481 42.0163 112.858 42.155 113.326 42.155C113.794 42.155 114.167 42.0163 114.444 41.739C114.73 41.4617 114.938 41.0413 115.068 40.478C115.198 39.906 115.263 39.1953 115.263 38.346C115.263 37.4967 115.198 36.7947 115.068 36.24C114.938 35.6767 114.73 35.2563 114.444 34.979C114.167 34.693 113.794 34.55 113.326 34.55C112.858 34.55 112.481 34.693 112.195 34.979C111.918 35.2563 111.714 35.6767 111.584 36.24C111.463 36.7947 111.402 37.4967 111.402 38.346ZM120.441 39.438C120.441 40.1313 120.371 40.8117 120.233 41.479C120.103 42.1463 119.895 42.779 119.609 43.377C119.331 43.9837 118.972 44.5427 118.53 45.054H117.464C117.862 44.508 118.196 43.9273 118.465 43.312C118.733 42.7053 118.937 42.0727 119.076 41.414C119.214 40.7553 119.284 40.0923 119.284 39.425C119.284 38.7403 119.214 38.0643 119.076 37.397C118.937 36.7297 118.733 36.084 118.465 35.46C118.196 34.836 117.858 34.2553 117.451 33.718H118.53C118.972 34.238 119.331 34.8057 119.609 35.421C119.895 36.0363 120.103 36.682 120.233 37.358C120.371 38.034 120.441 38.7273 120.441 39.438Z" fill="#161616"/>
<path d="M174.744 29.864H177.024L183.768 47H181.632L179.808 42.2H171.936L170.112 47H168L174.744 29.864ZM172.56 40.544H179.184L175.944 31.976H175.848L172.56 40.544ZM190.901 34.256C192.677 34.256 193.973 34.712 194.837 35.648C195.557 36.464 195.941 37.592 195.941 39.032V47H194.141V44.912C193.661 45.584 193.013 46.136 192.245 46.568C191.333 47.072 190.301 47.336 189.149 47.336C187.901 47.336 186.917 47.024 186.173 46.4C185.405 45.752 185.021 44.912 185.021 43.904C185.021 42.488 185.573 41.432 186.725 40.712C187.733 40.04 189.173 39.68 191.045 39.656L194.021 39.608V38.96C194.021 36.872 192.941 35.84 190.781 35.84C189.869 35.84 189.125 36.008 188.549 36.392C187.901 36.776 187.493 37.376 187.301 38.168L185.405 38.024C185.669 36.728 186.317 35.744 187.325 35.12C188.237 34.544 189.413 34.256 190.901 34.256ZM194.021 41.048L191.165 41.096C188.381 41.144 186.989 42.056 186.989 43.856C186.989 44.432 187.205 44.888 187.685 45.272C188.165 45.632 188.789 45.824 189.557 45.824C190.733 45.824 191.765 45.44 192.677 44.672C193.565 43.928 194.021 43.064 194.021 42.104V41.048ZM207.428 31.448H217.364C216.716 30.176 215.924 28.976 214.964 27.848L216.692 27.224C217.604 28.376 218.42 29.792 219.188 31.448H228.356V33.176H224.612C223.436 36.968 221.66 40.16 219.308 42.704C221.852 44.864 225.044 46.64 228.884 48.056L227.948 49.496C223.964 48.008 220.7 46.16 218.108 43.928C215.372 46.448 211.964 48.296 207.884 49.472L206.972 47.96C211.004 46.88 214.316 45.176 216.908 42.824C214.124 40.088 212.204 36.872 211.124 33.176H207.428V31.448ZM212.828 33.176C213.86 36.416 215.612 39.224 218.108 41.624C220.244 39.296 221.804 36.488 222.812 33.176H212.828ZM252.308 29.864V35.216H250.58V31.52H233.684V35.216H231.956V29.864H241.388C241.052 29 240.692 28.232 240.308 27.536L242.276 27.2C242.612 27.992 242.948 28.88 243.26 29.864H252.308ZM235.652 34.112H248.54V35.72C246.98 36.824 245.228 37.88 243.308 38.936V40.544H252.764V42.224H243.308V47.312C243.308 48.632 242.612 49.304 241.22 49.304H238.268L237.86 47.72C238.7 47.744 239.612 47.768 240.62 47.768C241.244 47.768 241.556 47.408 241.556 46.712V42.224H231.524V40.544H241.556V38.192C243.5 37.184 244.964 36.344 245.948 35.72H235.652V34.112Z" fill="#161616"/>
<path d="M45.356 87L42.301 78.862H42.249C42.2663 79.0353 42.2793 79.2563 42.288 79.525C42.3053 79.7937 42.3183 80.0883 42.327 80.409C42.3357 80.721 42.34 81.0417 42.34 81.371V87H41.261V77.718H42.99L45.85 85.323H45.902L48.814 77.718H50.53V87H49.373V81.293C49.373 80.9897 49.3773 80.6907 49.386 80.396C49.3947 80.0927 49.4077 79.811 49.425 79.551C49.4423 79.2823 49.4553 79.057 49.464 78.875H49.412L46.318 87H45.356ZM55.5899 79.902C56.1879 79.902 56.6993 80.032 57.1239 80.292C57.5573 80.552 57.8866 80.9203 58.1119 81.397C58.3459 81.865 58.4629 82.4153 58.4629 83.048V83.737H53.6919C53.7093 84.5257 53.9086 85.128 54.2899 85.544C54.6799 85.9513 55.2216 86.155 55.9149 86.155C56.3569 86.155 56.7469 86.116 57.0849 86.038C57.4316 85.9513 57.7869 85.83 58.1509 85.674V86.675C57.7956 86.831 57.4446 86.9437 57.0979 87.013C56.7513 87.091 56.3396 87.13 55.8629 87.13C55.2043 87.13 54.6193 86.9957 54.1079 86.727C53.6053 86.4583 53.2109 86.0597 52.9249 85.531C52.6476 84.9937 52.5089 84.3393 52.5089 83.568C52.5089 82.8053 52.6346 82.151 52.8859 81.605C53.1459 81.059 53.5056 80.6387 53.9649 80.344C54.4329 80.0493 54.9746 79.902 55.5899 79.902ZM55.5769 80.838C55.0309 80.838 54.5976 81.0157 54.2769 81.371C53.9649 81.7177 53.7786 82.203 53.7179 82.827H57.2669C57.2669 82.4283 57.2063 82.0817 57.0849 81.787C56.9636 81.4923 56.7773 81.2627 56.5259 81.098C56.2833 80.9247 55.9669 80.838 55.5769 80.838ZM62.7068 87.13C61.8402 87.13 61.1468 86.831 60.6268 86.233C60.1068 85.6263 59.8468 84.725 59.8468 83.529C59.8468 82.333 60.1068 81.4317 60.6268 80.825C61.1555 80.2097 61.8532 79.902 62.7198 79.902C63.0838 79.902 63.4002 79.9497 63.6688 80.045C63.9375 80.1317 64.1715 80.253 64.3708 80.409C64.5702 80.565 64.7392 80.7383 64.8778 80.929H64.9558C64.9472 80.8163 64.9298 80.6517 64.9038 80.435C64.8865 80.2097 64.8778 80.032 64.8778 79.902V77.12H66.0218V87H65.0988L64.9298 86.064H64.8778C64.7392 86.2633 64.5702 86.4453 64.3708 86.61C64.1715 86.766 63.9332 86.8917 63.6558 86.987C63.3872 87.0823 63.0708 87.13 62.7068 87.13ZM62.8888 86.181C63.6255 86.181 64.1412 85.9817 64.4358 85.583C64.7392 85.1757 64.8908 84.5647 64.8908 83.75V83.542C64.8908 82.6753 64.7478 82.0123 64.4618 81.553C64.1758 81.085 63.6472 80.851 62.8758 80.851C62.2605 80.851 61.7968 81.098 61.4848 81.592C61.1815 82.0773 61.0298 82.7317 61.0298 83.555C61.0298 84.387 61.1815 85.0327 61.4848 85.492C61.7968 85.9513 62.2648 86.181 62.8888 86.181ZM69.3789 80.032V87H68.2349V80.032H69.3789ZM68.8199 77.419C68.9932 77.419 69.1449 77.4797 69.2749 77.601C69.4135 77.7137 69.4829 77.8957 69.4829 78.147C69.4829 78.3897 69.4135 78.5717 69.2749 78.693C69.1449 78.8143 68.9932 78.875 68.8199 78.875C68.6292 78.875 68.4689 78.8143 68.3389 78.693C68.2089 78.5717 68.1439 78.3897 68.1439 78.147C68.1439 77.8957 68.2089 77.7137 68.3389 77.601C68.4689 77.4797 68.6292 77.419 68.8199 77.419ZM77.4104 80.032V87H76.4744L76.3054 86.077H76.2534C76.1061 86.3197 75.9154 86.519 75.6814 86.675C75.4474 86.831 75.1918 86.9437 74.9144 87.013C74.6371 87.091 74.3468 87.13 74.0434 87.13C73.4888 87.13 73.0208 87.0433 72.6394 86.87C72.2668 86.688 71.9851 86.4107 71.7944 86.038C71.6038 85.6653 71.5084 85.1843 71.5084 84.595V80.032H72.6654V84.517C72.6654 85.0717 72.7911 85.4877 73.0424 85.765C73.2938 86.0423 73.6838 86.181 74.2124 86.181C74.7324 86.181 75.1398 86.0857 75.4344 85.895C75.7378 85.6957 75.9501 85.4097 76.0714 85.037C76.2014 84.6557 76.2664 84.1963 76.2664 83.659V80.032H77.4104ZM87.2666 79.902C88.0552 79.902 88.6446 80.1057 89.0346 80.513C89.4246 80.9117 89.6196 81.5617 89.6196 82.463V87H88.4886V82.515C88.4886 81.969 88.3716 81.5573 88.1376 81.28C87.9122 81.0027 87.5569 80.864 87.0716 80.864C86.3956 80.864 85.9102 81.059 85.6156 81.449C85.3296 81.839 85.1866 82.4067 85.1866 83.152V87H84.0556V82.515C84.0556 82.151 84.0036 81.8477 83.8996 81.605C83.7956 81.3537 83.6396 81.1673 83.4316 81.046C83.2236 80.9247 82.9549 80.864 82.6256 80.864C82.1576 80.864 81.7892 80.9637 81.5206 81.163C81.2519 81.3537 81.0569 81.6353 80.9356 82.008C80.8229 82.3807 80.7666 82.84 80.7666 83.386V87H79.6226V80.032H80.5456L80.7146 80.981H80.7796C80.9269 80.7383 81.1046 80.539 81.3126 80.383C81.5292 80.2183 81.7676 80.097 82.0276 80.019C82.2876 79.941 82.5562 79.902 82.8336 79.902C83.3709 79.902 83.8172 79.9973 84.1726 80.188C84.5366 80.3787 84.8009 80.6733 84.9656 81.072H85.0306C85.2646 80.6733 85.5809 80.3787 85.9796 80.188C86.3869 79.9973 86.8159 79.902 87.2666 79.902ZM94.5639 83.438C94.5639 82.7273 94.6289 82.034 94.7589 81.358C94.8976 80.682 95.1099 80.0363 95.3959 79.421C95.6819 78.8057 96.0416 78.238 96.4749 77.718H97.5539C97.1553 78.2553 96.8173 78.836 96.5399 79.46C96.2713 80.084 96.0676 80.7297 95.9289 81.397C95.7903 82.0643 95.7209 82.7403 95.7209 83.425C95.7209 84.0923 95.7903 84.7553 95.9289 85.414C96.0676 86.0727 96.2713 86.7053 96.5399 87.312C96.8086 87.9273 97.1423 88.508 97.5409 89.054H96.4749C96.0416 88.5427 95.6819 87.9837 95.3959 87.377C95.1099 86.779 94.8976 86.1463 94.7589 85.479C94.6289 84.8117 94.5639 84.1313 94.5639 83.438ZM101.516 81.306C102.149 81.306 102.699 81.4143 103.167 81.631C103.635 81.8477 103.995 82.1597 104.246 82.567C104.506 82.9657 104.636 83.4553 104.636 84.036C104.636 84.6773 104.498 85.232 104.22 85.7C103.943 86.1593 103.544 86.5147 103.024 86.766C102.513 87.0087 101.893 87.13 101.165 87.13C100.689 87.13 100.238 87.0867 99.8134 87C99.3974 86.9133 99.0464 86.7877 98.7604 86.623V85.544C99.0724 85.7347 99.4494 85.8863 99.8914 85.999C100.342 86.103 100.771 86.155 101.178 86.155C101.638 86.155 102.036 86.0857 102.374 85.947C102.721 85.7997 102.99 85.5787 103.18 85.284C103.371 84.9807 103.466 84.6037 103.466 84.153C103.466 83.5463 103.28 83.0827 102.907 82.762C102.535 82.4327 101.945 82.268 101.139 82.268C100.897 82.268 100.619 82.2897 100.307 82.333C99.9954 82.3763 99.7441 82.4197 99.5534 82.463L98.9814 82.099L99.3324 77.718H103.986V78.758H100.307L100.086 81.449C100.234 81.423 100.433 81.3927 100.684 81.358C100.936 81.3233 101.213 81.306 101.516 81.306ZM112.18 82.346C112.18 83.1 112.124 83.7717 112.011 84.361C111.898 84.9503 111.716 85.453 111.465 85.869C111.222 86.2763 110.902 86.5883 110.503 86.805C110.113 87.0217 109.641 87.13 109.086 87.13C108.393 87.13 107.816 86.9393 107.357 86.558C106.906 86.1767 106.568 85.6307 106.343 84.92C106.126 84.2007 106.018 83.3427 106.018 82.346C106.018 81.3407 106.118 80.4827 106.317 79.772C106.525 79.0613 106.854 78.5197 107.305 78.147C107.756 77.7657 108.349 77.575 109.086 77.575C109.779 77.575 110.356 77.7657 110.815 78.147C111.274 78.5197 111.617 79.0613 111.842 79.772C112.067 80.4827 112.18 81.3407 112.18 82.346ZM107.162 82.346C107.162 83.1953 107.223 83.9017 107.344 84.465C107.474 85.0283 107.678 85.453 107.955 85.739C108.241 86.0163 108.618 86.155 109.086 86.155C109.554 86.155 109.927 86.0163 110.204 85.739C110.49 85.4617 110.698 85.0413 110.828 84.478C110.958 83.906 111.023 83.1953 111.023 82.346C111.023 81.4967 110.958 80.7947 110.828 80.24C110.698 79.6767 110.49 79.2563 110.204 78.979C109.927 78.693 109.554 78.55 109.086 78.55C108.618 78.55 108.241 78.693 107.955 78.979C107.678 79.2563 107.474 79.6767 107.344 80.24C107.223 80.7947 107.162 81.4967 107.162 82.346ZM119.619 82.346C119.619 83.1 119.563 83.7717 119.45 84.361C119.338 84.9503 119.156 85.453 118.904 85.869C118.662 86.2763 118.341 86.5883 117.942 86.805C117.552 87.0217 117.08 87.13 116.525 87.13C115.832 87.13 115.256 86.9393 114.796 86.558C114.346 86.1767 114.008 85.6307 113.782 84.92C113.566 84.2007 113.457 83.3427 113.457 82.346C113.457 81.3407 113.557 80.4827 113.756 79.772C113.964 79.0613 114.294 78.5197 114.744 78.147C115.195 77.7657 115.789 77.575 116.525 77.575C117.219 77.575 117.795 77.7657 118.254 78.147C118.714 78.5197 119.056 79.0613 119.281 79.772C119.507 80.4827 119.619 81.3407 119.619 82.346ZM114.601 82.346C114.601 83.1953 114.662 83.9017 114.783 84.465C114.913 85.0283 115.117 85.453 115.394 85.739C115.68 86.0163 116.057 86.155 116.525 86.155C116.993 86.155 117.366 86.0163 117.643 85.739C117.929 85.4617 118.137 85.0413 118.267 84.478C118.397 83.906 118.462 83.1953 118.462 82.346C118.462 81.4967 118.397 80.7947 118.267 80.24C118.137 79.6767 117.929 79.2563 117.643 78.979C117.366 78.693 116.993 78.55 116.525 78.55C116.057 78.55 115.68 78.693 115.394 78.979C115.117 79.2563 114.913 79.6767 114.783 80.24C114.662 80.7947 114.601 81.4967 114.601 82.346ZM123.64 83.438C123.64 84.1313 123.57 84.8117 123.432 85.479C123.302 86.1463 123.094 86.779 122.808 87.377C122.53 87.9837 122.171 88.5427 121.729 89.054H120.663C121.061 88.508 121.395 87.9273 121.664 87.312C121.932 86.7053 122.136 86.0727 122.275 85.414C122.413 84.7553 122.483 84.0923 122.483 83.425C122.483 82.7403 122.413 82.0643 122.275 81.397C122.136 80.7297 121.932 80.084 121.664 79.46C121.395 78.836 121.057 78.2553 120.65 77.718H121.729C122.171 78.238 122.53 78.8057 122.808 79.421C123.094 80.0363 123.302 80.682 123.432 81.358C123.57 82.034 123.64 82.7273 123.64 83.438Z" fill="#161616"/>
<path d="M174.6 73.864H177.576L184.176 91H181.368L179.76 86.584H172.392L170.784 91H168L174.6 73.864ZM173.184 84.424H178.968L176.136 76.672H176.04L173.184 84.424ZM191.444 78.256C193.268 78.256 194.612 78.712 195.476 79.624C196.22 80.416 196.604 81.568 196.604 83.08V91H194.252V89.248C193.772 89.872 193.172 90.376 192.452 90.736C191.636 91.12 190.676 91.336 189.572 91.336C188.276 91.336 187.268 91 186.548 90.352C185.756 89.704 185.372 88.864 185.372 87.832C185.372 86.44 185.924 85.36 187.028 84.616C188.036 83.896 189.476 83.536 191.3 83.488L194.084 83.416V82.912C194.084 81.184 193.148 80.32 191.276 80.32C190.484 80.32 189.836 80.464 189.356 80.752C188.78 81.088 188.42 81.592 188.276 82.288L185.756 82.072C186.02 80.728 186.692 79.72 187.748 79.096C188.66 78.52 189.908 78.256 191.444 78.256ZM194.084 85.264L191.468 85.336C189.14 85.384 187.988 86.2 187.988 87.736C187.988 88.216 188.18 88.6 188.588 88.912C188.972 89.224 189.5 89.392 190.148 89.392C191.228 89.392 192.14 89.056 192.908 88.408C193.676 87.76 194.084 86.944 194.084 85.984V85.264ZM207.964 75.184H217.636C217.012 74.032 216.244 72.952 215.332 71.92L217.612 71.08C218.476 72.232 219.292 73.6 220.036 75.184H229.132V77.44H225.46C224.308 81.088 222.604 84.136 220.348 86.608C222.844 88.648 225.964 90.352 229.66 91.696L228.388 93.616C224.524 92.176 221.308 90.376 218.764 88.216C216.052 90.616 212.716 92.392 208.756 93.544L207.532 91.528C211.42 90.52 214.612 88.936 217.156 86.752C214.516 84.112 212.668 80.992 211.636 77.44H207.964V75.184ZM213.82 77.44C214.828 80.392 216.46 82.984 218.74 85.192C220.684 83.056 222.148 80.464 223.108 77.44H213.82ZM253.108 73.648V79.264H250.804V75.808H234.772V79.264H232.468V73.648H241.636C241.3 72.88 240.964 72.16 240.58 71.512L243.196 71.08C243.532 71.848 243.868 72.688 244.18 73.648H253.108ZM236.236 77.944H249.292V80.056C247.78 81.112 246.1 82.168 244.228 83.2V84.376H253.492V86.584H244.228V91.096C244.228 92.608 243.436 93.376 241.852 93.376H238.9L238.348 91.312C239.188 91.336 240.1 91.36 241.084 91.36C241.66 91.36 241.948 91 241.948 90.304V86.584H232.108V84.376H241.948V82.264C243.628 81.376 244.948 80.632 245.908 80.056H236.236V77.944Z" fill="#161616"/>
<path d="M46.526 128.517C46.526 129.072 46.3917 129.544 46.123 129.934C45.8543 130.315 45.4687 130.61 44.966 130.818C44.472 131.026 43.887 131.13 43.211 131.13C42.8643 131.13 42.5307 131.113 42.21 131.078C41.898 131.043 41.612 130.996 41.352 130.935C41.092 130.866 40.8623 130.783 40.663 130.688V129.57C40.975 129.709 41.3607 129.834 41.82 129.947C42.288 130.06 42.769 130.116 43.263 130.116C43.7223 130.116 44.108 130.055 44.42 129.934C44.732 129.813 44.966 129.639 45.122 129.414C45.278 129.189 45.356 128.924 45.356 128.621C45.356 128.318 45.291 128.062 45.161 127.854C45.031 127.646 44.8057 127.455 44.485 127.282C44.173 127.1 43.7353 126.909 43.172 126.71C42.7733 126.563 42.4223 126.407 42.119 126.242C41.8243 126.069 41.5773 125.874 41.378 125.657C41.1787 125.44 41.027 125.193 40.923 124.916C40.8277 124.639 40.78 124.318 40.78 123.954C40.78 123.46 40.9057 123.04 41.157 122.693C41.4083 122.338 41.755 122.065 42.197 121.874C42.6477 121.683 43.1633 121.588 43.744 121.588C44.2553 121.588 44.7233 121.636 45.148 121.731C45.5727 121.826 45.9583 121.952 46.305 122.108L45.941 123.109C45.6203 122.97 45.2693 122.853 44.888 122.758C44.5153 122.663 44.1253 122.615 43.718 122.615C43.328 122.615 43.003 122.671 42.743 122.784C42.483 122.897 42.288 123.057 42.158 123.265C42.028 123.464 41.963 123.698 41.963 123.967C41.963 124.279 42.028 124.539 42.158 124.747C42.288 124.955 42.5003 125.141 42.795 125.306C43.0897 125.471 43.4883 125.648 43.991 125.839C44.537 126.038 44.9963 126.255 45.369 126.489C45.7503 126.714 46.0363 126.987 46.227 127.308C46.4263 127.629 46.526 128.032 46.526 128.517ZM50.9308 123.902C51.5288 123.902 52.0401 124.032 52.4648 124.292C52.8981 124.552 53.2274 124.92 53.4528 125.397C53.6868 125.865 53.8038 126.415 53.8038 127.048V127.737H49.0328C49.0501 128.526 49.2494 129.128 49.6308 129.544C50.0208 129.951 50.5624 130.155 51.2558 130.155C51.6978 130.155 52.0878 130.116 52.4258 130.038C52.7724 129.951 53.1278 129.83 53.4918 129.674V130.675C53.1364 130.831 52.7854 130.944 52.4388 131.013C52.0921 131.091 51.6804 131.13 51.2038 131.13C50.5451 131.13 49.9601 130.996 49.4488 130.727C48.9461 130.458 48.5518 130.06 48.2658 129.531C47.9884 128.994 47.8498 128.339 47.8498 127.568C47.8498 126.805 47.9754 126.151 48.2268 125.605C48.4868 125.059 48.8464 124.639 49.3058 124.344C49.7738 124.049 50.3154 123.902 50.9308 123.902ZM50.9178 124.838C50.3718 124.838 49.9384 125.016 49.6178 125.371C49.3058 125.718 49.1194 126.203 49.0588 126.827H52.6078C52.6078 126.428 52.5471 126.082 52.4258 125.787C52.3044 125.492 52.1181 125.263 51.8668 125.098C51.6241 124.925 51.3078 124.838 50.9178 124.838ZM63.2217 123.902C64.0103 123.902 64.5997 124.106 64.9897 124.513C65.3797 124.912 65.5747 125.562 65.5747 126.463V131H64.4437V126.515C64.4437 125.969 64.3267 125.557 64.0927 125.28C63.8673 125.003 63.512 124.864 63.0267 124.864C62.3507 124.864 61.8653 125.059 61.5707 125.449C61.2847 125.839 61.1417 126.407 61.1417 127.152V131H60.0107V126.515C60.0107 126.151 59.9587 125.848 59.8547 125.605C59.7507 125.354 59.5947 125.167 59.3867 125.046C59.1787 124.925 58.91 124.864 58.5807 124.864C58.1127 124.864 57.7443 124.964 57.4757 125.163C57.207 125.354 57.012 125.635 56.8907 126.008C56.778 126.381 56.7217 126.84 56.7217 127.386V131H55.5777V124.032H56.5007L56.6697 124.981H56.7347C56.882 124.738 57.0597 124.539 57.2677 124.383C57.4843 124.218 57.7227 124.097 57.9827 124.019C58.2427 123.941 58.5113 123.902 58.7887 123.902C59.326 123.902 59.7723 123.997 60.1277 124.188C60.4917 124.379 60.756 124.673 60.9207 125.072H60.9857C61.2197 124.673 61.536 124.379 61.9347 124.188C62.342 123.997 62.771 123.902 63.2217 123.902ZM68.8711 124.032V131H67.7271V124.032H68.8711ZM68.3121 121.419C68.4854 121.419 68.6371 121.48 68.7671 121.601C68.9057 121.714 68.9751 121.896 68.9751 122.147C68.9751 122.39 68.9057 122.572 68.7671 122.693C68.6371 122.814 68.4854 122.875 68.3121 122.875C68.1214 122.875 67.9611 122.814 67.8311 122.693C67.7011 122.572 67.6361 122.39 67.6361 122.147C67.6361 121.896 67.7011 121.714 67.8311 121.601C67.9611 121.48 68.1214 121.419 68.3121 121.419ZM72.2226 123.525C72.2226 123.82 72.214 124.097 72.1966 124.357C72.188 124.608 72.175 124.808 72.1576 124.955H72.2226C72.422 124.66 72.695 124.413 73.0416 124.214C73.3883 124.015 73.8346 123.915 74.3806 123.915C75.2473 123.915 75.9406 124.218 76.4606 124.825C76.9893 125.423 77.2536 126.32 77.2536 127.516C77.2536 128.313 77.1323 128.981 76.8896 129.518C76.6556 130.055 76.322 130.458 75.8886 130.727C75.4553 130.996 74.9526 131.13 74.3806 131.13C73.8346 131.13 73.3883 131.03 73.0416 130.831C72.695 130.632 72.422 130.393 72.2226 130.116H72.1316L71.8976 131H71.0786V121.12H72.2226V123.525ZM74.1856 124.864C73.6916 124.864 73.3016 124.959 73.0156 125.15C72.7296 125.332 72.526 125.618 72.4046 126.008C72.2833 126.389 72.2226 126.879 72.2226 127.477V127.529C72.2226 128.387 72.3613 129.046 72.6386 129.505C72.9246 129.956 73.449 130.181 74.2116 130.181C74.8356 130.181 75.2993 129.951 75.6026 129.492C75.9146 129.033 76.0706 128.37 76.0706 127.503C76.0706 126.628 75.9146 125.969 75.6026 125.527C75.2993 125.085 74.827 124.864 74.1856 124.864ZM85.1347 127.503C85.1347 128.084 85.0567 128.599 84.9007 129.05C84.7533 129.492 84.5367 129.869 84.2507 130.181C83.9733 130.493 83.631 130.731 83.2237 130.896C82.825 131.052 82.3787 131.13 81.8847 131.13C81.4253 131.13 81.0007 131.052 80.6107 130.896C80.2207 130.731 79.8827 130.493 79.5967 130.181C79.3107 129.869 79.0853 129.492 78.9207 129.05C78.7647 128.599 78.6867 128.084 78.6867 127.503C78.6867 126.732 78.8167 126.082 79.0767 125.553C79.3367 125.016 79.7093 124.608 80.1947 124.331C80.68 124.045 81.2563 123.902 81.9237 123.902C82.5563 123.902 83.111 124.045 83.5877 124.331C84.073 124.608 84.45 125.016 84.7187 125.553C84.996 126.082 85.1347 126.732 85.1347 127.503ZM79.8697 127.503C79.8697 128.049 79.939 128.526 80.0777 128.933C80.225 129.332 80.4503 129.639 80.7537 129.856C81.057 130.073 81.4427 130.181 81.9107 130.181C82.3787 130.181 82.7643 130.073 83.0677 129.856C83.371 129.639 83.592 129.332 83.7307 128.933C83.878 128.526 83.9517 128.049 83.9517 127.503C83.9517 126.948 83.878 126.476 83.7307 126.086C83.5833 125.696 83.358 125.397 83.0547 125.189C82.76 124.972 82.3743 124.864 81.8977 124.864C81.187 124.864 80.6713 125.098 80.3507 125.566C80.03 126.034 79.8697 126.68 79.8697 127.503ZM88.0918 131H86.9478V121.12H88.0918V131ZM92.7693 131.13C91.9027 131.13 91.2093 130.831 90.6893 130.233C90.1693 129.626 89.9093 128.725 89.9093 127.529C89.9093 126.333 90.1693 125.432 90.6893 124.825C91.218 124.21 91.9157 123.902 92.7823 123.902C93.1463 123.902 93.4627 123.95 93.7313 124.045C94 124.132 94.234 124.253 94.4333 124.409C94.6327 124.565 94.8017 124.738 94.9403 124.929H95.0183C95.0097 124.816 94.9923 124.652 94.9663 124.435C94.949 124.21 94.9403 124.032 94.9403 123.902V121.12H96.0843V131H95.1613L94.9923 130.064H94.9403C94.8017 130.263 94.6327 130.445 94.4333 130.61C94.234 130.766 93.9957 130.892 93.7183 130.987C93.4497 131.082 93.1333 131.13 92.7693 131.13ZM92.9513 130.181C93.688 130.181 94.2037 129.982 94.4983 129.583C94.8017 129.176 94.9533 128.565 94.9533 127.75V127.542C94.9533 126.675 94.8103 126.012 94.5243 125.553C94.2383 125.085 93.7097 124.851 92.9383 124.851C92.323 124.851 91.8593 125.098 91.5473 125.592C91.244 126.077 91.0923 126.732 91.0923 127.555C91.0923 128.387 91.244 129.033 91.5473 129.492C91.8593 129.951 92.3273 130.181 92.9513 130.181ZM101.089 127.438C101.089 126.727 101.154 126.034 101.284 125.358C101.423 124.682 101.635 124.036 101.921 123.421C102.207 122.806 102.567 122.238 103 121.718H104.079C103.681 122.255 103.343 122.836 103.065 123.46C102.797 124.084 102.593 124.73 102.454 125.397C102.316 126.064 102.246 126.74 102.246 127.425C102.246 128.092 102.316 128.755 102.454 129.414C102.593 130.073 102.797 130.705 103.065 131.312C103.334 131.927 103.668 132.508 104.066 133.054H103C102.567 132.543 102.207 131.984 101.921 131.377C101.635 130.779 101.423 130.146 101.284 129.479C101.154 128.812 101.089 128.131 101.089 127.438ZM105.182 127.035C105.182 126.498 105.216 125.969 105.286 125.449C105.364 124.929 105.494 124.439 105.676 123.98C105.858 123.512 106.109 123.1 106.43 122.745C106.75 122.381 107.153 122.099 107.639 121.9C108.133 121.692 108.731 121.588 109.433 121.588C109.615 121.588 109.814 121.597 110.031 121.614C110.256 121.631 110.438 121.662 110.577 121.705V122.68C110.421 122.628 110.243 122.589 110.044 122.563C109.853 122.537 109.658 122.524 109.459 122.524C108.861 122.524 108.362 122.624 107.964 122.823C107.565 123.022 107.249 123.295 107.015 123.642C106.789 123.989 106.625 124.387 106.521 124.838C106.417 125.289 106.352 125.77 106.326 126.281H106.404C106.534 126.073 106.698 125.887 106.898 125.722C107.097 125.557 107.335 125.427 107.613 125.332C107.899 125.237 108.228 125.189 108.601 125.189C109.138 125.189 109.606 125.302 110.005 125.527C110.412 125.744 110.728 126.064 110.954 126.489C111.179 126.905 111.292 127.412 111.292 128.01C111.292 128.651 111.17 129.206 110.928 129.674C110.685 130.142 110.343 130.502 109.901 130.753C109.467 131.004 108.947 131.13 108.341 131.13C107.899 131.13 107.487 131.048 107.106 130.883C106.724 130.718 106.386 130.467 106.092 130.129C105.806 129.791 105.58 129.366 105.416 128.855C105.26 128.335 105.182 127.728 105.182 127.035ZM108.328 130.168C108.874 130.168 109.316 129.995 109.654 129.648C109.992 129.293 110.161 128.747 110.161 128.01C110.161 127.421 110.009 126.953 109.706 126.606C109.411 126.259 108.965 126.086 108.367 126.086C107.959 126.086 107.604 126.173 107.301 126.346C106.997 126.511 106.759 126.723 106.586 126.983C106.421 127.243 106.339 127.512 106.339 127.789C106.339 128.075 106.378 128.357 106.456 128.634C106.542 128.911 106.668 129.167 106.833 129.401C107.006 129.635 107.214 129.821 107.457 129.96C107.708 130.099 107.998 130.168 108.328 130.168ZM118.705 126.346C118.705 127.1 118.649 127.772 118.536 128.361C118.424 128.95 118.242 129.453 117.99 129.869C117.748 130.276 117.427 130.588 117.028 130.805C116.638 131.022 116.166 131.13 115.611 131.13C114.918 131.13 114.342 130.939 113.882 130.558C113.432 130.177 113.094 129.631 112.868 128.92C112.652 128.201 112.543 127.343 112.543 126.346C112.543 125.341 112.643 124.483 112.842 123.772C113.05 123.061 113.38 122.52 113.83 122.147C114.281 121.766 114.875 121.575 115.611 121.575C116.305 121.575 116.881 121.766 117.34 122.147C117.8 122.52 118.142 123.061 118.367 123.772C118.593 124.483 118.705 125.341 118.705 126.346ZM113.687 126.346C113.687 127.195 113.748 127.902 113.869 128.465C113.999 129.028 114.203 129.453 114.48 129.739C114.766 130.016 115.143 130.155 115.611 130.155C116.079 130.155 116.452 130.016 116.729 129.739C117.015 129.462 117.223 129.041 117.353 128.478C117.483 127.906 117.548 127.195 117.548 126.346C117.548 125.497 117.483 124.795 117.353 124.24C117.223 123.677 117.015 123.256 116.729 122.979C116.452 122.693 116.079 122.55 115.611 122.55C115.143 122.55 114.766 122.693 114.48 122.979C114.203 123.256 113.999 123.677 113.869 124.24C113.748 124.795 113.687 125.497 113.687 126.346ZM126.145 126.346C126.145 127.1 126.088 127.772 125.976 128.361C125.863 128.95 125.681 129.453 125.43 129.869C125.187 130.276 124.866 130.588 124.468 130.805C124.078 131.022 123.605 131.13 123.051 131.13C122.357 131.13 121.781 130.939 121.322 130.558C120.871 130.177 120.533 129.631 120.308 128.92C120.091 128.201 119.983 127.343 119.983 126.346C119.983 125.341 120.082 124.483 120.282 123.772C120.49 123.061 120.819 122.52 121.27 122.147C121.72 121.766 122.314 121.575 123.051 121.575C123.744 121.575 124.32 121.766 124.78 122.147C125.239 122.52 125.581 123.061 125.807 123.772C126.032 124.483 126.145 125.341 126.145 126.346ZM121.127 126.346C121.127 127.195 121.187 127.902 121.309 128.465C121.439 129.028 121.642 129.453 121.92 129.739C122.206 130.016 122.583 130.155 123.051 130.155C123.519 130.155 123.891 130.016 124.169 129.739C124.455 129.462 124.663 129.041 124.793 128.478C124.923 127.906 124.988 127.195 124.988 126.346C124.988 125.497 124.923 124.795 124.793 124.24C124.663 123.677 124.455 123.256 124.169 122.979C123.891 122.693 123.519 122.55 123.051 122.55C122.583 122.55 122.206 122.693 121.92 122.979C121.642 123.256 121.439 123.677 121.309 124.24C121.187 124.795 121.127 125.497 121.127 126.346ZM130.165 127.438C130.165 128.131 130.096 128.812 129.957 129.479C129.827 130.146 129.619 130.779 129.333 131.377C129.056 131.984 128.696 132.543 128.254 133.054H127.188C127.587 132.508 127.92 131.927 128.189 131.312C128.458 130.705 128.661 130.073 128.8 129.414C128.939 128.755 129.008 128.092 129.008 127.425C129.008 126.74 128.939 126.064 128.8 125.397C128.661 124.73 128.458 124.084 128.189 123.46C127.92 122.836 127.582 122.255 127.175 121.718H128.254C128.696 122.238 129.056 122.806 129.333 123.421C129.619 124.036 129.827 124.682 129.957 125.358C130.096 126.034 130.165 126.727 130.165 127.438Z" fill="#161616"/>
<path d="M174.6 117.864H177.576L184.176 135H181.368L179.76 130.584H172.392L170.784 135H168L174.6 117.864ZM173.184 128.424H178.968L176.136 120.672H176.04L173.184 128.424ZM191.444 122.256C193.268 122.256 194.612 122.712 195.476 123.624C196.22 124.416 196.604 125.568 196.604 127.08V135H194.252V133.248C193.772 133.872 193.172 134.376 192.452 134.736C191.636 135.12 190.676 135.336 189.572 135.336C188.276 135.336 187.268 135 186.548 134.352C185.756 133.704 185.372 132.864 185.372 131.832C185.372 130.44 185.924 129.36 187.028 128.616C188.036 127.896 189.476 127.536 191.3 127.488L194.084 127.416V126.912C194.084 125.184 193.148 124.32 191.276 124.32C190.484 124.32 189.836 124.464 189.356 124.752C188.78 125.088 188.42 125.592 188.276 126.288L185.756 126.072C186.02 124.728 186.692 123.72 187.748 123.096C188.66 122.52 189.908 122.256 191.444 122.256ZM194.084 129.264L191.468 129.336C189.14 129.384 187.988 130.2 187.988 131.736C187.988 132.216 188.18 132.6 188.588 132.912C188.972 133.224 189.5 133.392 190.148 133.392C191.228 133.392 192.14 133.056 192.908 132.408C193.676 131.76 194.084 130.944 194.084 129.984V129.264ZM207.964 119.184H217.636C217.012 118.032 216.244 116.952 215.332 115.92L217.612 115.08C218.476 116.232 219.292 117.6 220.036 119.184H229.132V121.44H225.46C224.308 125.088 222.604 128.136 220.348 130.608C222.844 132.648 225.964 134.352 229.66 135.696L228.388 137.616C224.524 136.176 221.308 134.376 218.764 132.216C216.052 134.616 212.716 136.392 208.756 137.544L207.532 135.528C211.42 134.52 214.612 132.936 217.156 130.752C214.516 128.112 212.668 124.992 211.636 121.44H207.964V119.184ZM213.82 121.44C214.828 124.392 216.46 126.984 218.74 129.192C220.684 127.056 222.148 124.464 223.108 121.44H213.82ZM253.108 117.648V123.264H250.804V119.808H234.772V123.264H232.468V117.648H241.636C241.3 116.88 240.964 116.16 240.58 115.512L243.196 115.08C243.532 115.848 243.868 116.688 244.18 117.648H253.108ZM236.236 121.944H249.292V124.056C247.78 125.112 246.1 126.168 244.228 127.2V128.376H253.492V130.584H244.228V135.096C244.228 136.608 243.436 137.376 241.852 137.376H238.9L238.348 135.312C239.188 135.336 240.1 135.36 241.084 135.36C241.66 135.36 241.948 135 241.948 134.304V130.584H232.108V128.376H241.948V126.264C243.628 125.376 244.948 124.632 245.908 124.056H236.236V121.944Z" fill="#161616"/>
<mask id="path-10-inside-2_56_9031" fill="white">
<path d="M0 164H780V210C780 211.105 779.105 212 778 212H1.99998C0.895407 212 0 211.105 0 210V164Z"/>
</mask>
<path d="M0 164H780V210C780 211.105 779.105 212 778 212H1.99998C0.895407 212 0 211.105 0 210V164Z" fill="#E7E7E7"/>
<path d="M0 164H780H0ZM781 210C781 211.657 779.657 213 778 213H2C0.343146 213 -1 211.657 -1 210H1C1 210.552 1.44772 211 2 211H778C778.552 211 779 210.552 779 210H781ZM2 213C0.343146 213 -1 211.657 -1 210V164H1V210C1 210.552 1.44772 211 2 211V213ZM781 164V210C781 211.657 779.657 213 778 213V211C778.552 211 779 210.552 779 210V164H781Z" fill="#D9D9D9" mask="url(#path-10-inside-2_56_9031)"/>
<path fill-rule="evenodd" clip-rule="evenodd" d="M36.0005 192L29 184.98L29.9762 184H29.9781L36.0005 190.041L42.0238 184H42.0258L43 184.979V184.981L36.0005 192Z" fill="#4457CA"/>
<path d="M59.575 191.105C59.575 191.745 59.42 192.29 59.11 192.74C58.8 193.19 58.355 193.54 57.775 193.79C57.195 194.03 56.505 194.15 55.705 194.15C55.315 194.15 54.94 194.125 54.58 194.075C54.22 194.035 53.885 193.975 53.575 193.895C53.265 193.815 52.99 193.715 52.75 193.595V192.065C53.15 192.245 53.62 192.41 54.16 192.56C54.7 192.7 55.25 192.77 55.81 192.77C56.29 192.77 56.69 192.705 57.01 192.575C57.33 192.445 57.57 192.265 57.73 192.035C57.89 191.805 57.97 191.535 57.97 191.225C57.97 190.895 57.885 190.62 57.715 190.4C57.555 190.17 57.3 189.96 56.95 189.77C56.61 189.57 56.15 189.36 55.57 189.14C55.17 188.99 54.805 188.825 54.475 188.645C54.155 188.455 53.87 188.235 53.62 187.985C53.38 187.735 53.195 187.445 53.065 187.115C52.935 186.785 52.87 186.4 52.87 185.96C52.87 185.37 53.015 184.865 53.305 184.445C53.605 184.025 54.015 183.705 54.535 183.485C55.055 183.255 55.66 183.14 56.35 183.14C56.93 183.14 57.465 183.2 57.955 183.32C58.455 183.43 58.93 183.585 59.38 183.785L58.87 185.12C58.46 184.95 58.045 184.81 57.625 184.7C57.205 184.59 56.765 184.535 56.305 184.535C55.905 184.535 55.57 184.595 55.3 184.715C55.03 184.835 54.825 185 54.685 185.21C54.555 185.42 54.49 185.665 54.49 185.945C54.49 186.275 54.565 186.55 54.715 186.77C54.865 186.99 55.105 187.195 55.435 187.385C55.765 187.565 56.2 187.765 56.74 187.985C57.34 188.215 57.85 188.465 58.27 188.735C58.7 189.005 59.025 189.33 59.245 189.71C59.465 190.08 59.575 190.545 59.575 191.105ZM63.0821 185.645C63.0821 185.895 63.0721 186.145 63.0521 186.395C63.0321 186.645 63.0121 186.85 62.9921 187.01H63.0971C63.2671 186.73 63.4771 186.5 63.7271 186.32C63.9871 186.14 64.2721 186.005 64.5821 185.915C64.9021 185.825 65.2271 185.78 65.5571 185.78C66.1971 185.78 66.7321 185.885 67.1621 186.095C67.6021 186.295 67.9321 186.615 68.1521 187.055C68.3821 187.485 68.4971 188.045 68.4971 188.735V194H66.9221V188.96C66.9221 188.33 66.7871 187.86 66.5171 187.55C66.2571 187.23 65.8371 187.07 65.2571 187.07C64.7071 187.07 64.2721 187.18 63.9521 187.4C63.6421 187.62 63.4171 187.945 63.2771 188.375C63.1471 188.795 63.0821 189.315 63.0821 189.935V194H61.4921V182.6H63.0821V185.645ZM78.0653 189.95C78.0653 190.62 77.9753 191.215 77.7953 191.735C77.6153 192.255 77.3603 192.695 77.0303 193.055C76.7003 193.415 76.3003 193.69 75.8303 193.88C75.3603 194.06 74.8303 194.15 74.2403 194.15C73.7003 194.15 73.2003 194.06 72.7403 193.88C72.2803 193.69 71.8803 193.415 71.5403 193.055C71.2103 192.695 70.9503 192.255 70.7603 191.735C70.5703 191.215 70.4753 190.615 70.4753 189.935C70.4753 189.045 70.6253 188.29 70.9253 187.67C71.2353 187.05 71.6753 186.58 72.2453 186.26C72.8253 185.93 73.5053 185.765 74.2853 185.765C75.0253 185.765 75.6753 185.93 76.2353 186.26C76.8053 186.58 77.2503 187.05 77.5703 187.67C77.9003 188.29 78.0653 189.05 78.0653 189.95ZM72.1103 189.95C72.1103 190.55 72.1853 191.07 72.3353 191.51C72.4853 191.94 72.7203 192.27 73.0403 192.5C73.3603 192.73 73.7703 192.845 74.2703 192.845C74.7703 192.845 75.1803 192.73 75.5003 192.5C75.8203 192.27 76.0553 191.94 76.2053 191.51C76.3553 191.07 76.4303 190.55 76.4303 189.95C76.4303 189.33 76.3503 188.81 76.1903 188.39C76.0403 187.97 75.8053 187.65 75.4853 187.43C75.1753 187.2 74.7653 187.085 74.2553 187.085C73.5053 187.085 72.9603 187.335 72.6203 187.835C72.2803 188.335 72.1103 189.04 72.1103 189.95ZM85.248 189.95C85.198 189.75 85.138 189.53 85.068 189.29C85.008 189.05 84.948 188.81 84.888 188.57C84.828 188.32 84.773 188.09 84.723 187.88C84.673 187.67 84.633 187.505 84.603 187.385H84.543C84.523 187.505 84.488 187.67 84.438 187.88C84.398 188.09 84.348 188.32 84.288 188.57C84.228 188.81 84.168 189.055 84.108 189.305C84.048 189.545 83.983 189.765 83.913 189.965L82.713 193.985H80.943L78.708 185.9H80.328L81.378 189.995C81.458 190.275 81.528 190.57 81.588 190.88C81.658 191.19 81.718 191.49 81.768 191.78C81.828 192.06 81.868 192.295 81.888 192.485H81.948C81.968 192.355 81.998 192.195 82.038 192.005C82.078 191.805 82.118 191.6 82.158 191.39C82.208 191.17 82.253 190.96 82.293 190.76C82.343 190.56 82.393 190.395 82.443 190.265L83.733 185.9H85.473L86.733 190.265C86.793 190.465 86.858 190.705 86.928 190.985C86.998 191.255 87.058 191.525 87.108 191.795C87.168 192.055 87.208 192.28 87.228 192.47H87.288C87.308 192.3 87.343 192.08 87.393 191.81C87.443 191.53 87.503 191.23 87.573 190.91C87.653 190.59 87.728 190.285 87.798 189.995L88.878 185.9H90.483L88.218 193.985H86.403L85.248 189.95ZM100.539 184.535C100.009 184.535 99.5341 184.63 99.1141 184.82C98.6941 185 98.3341 185.27 98.0341 185.63C97.7441 185.99 97.5191 186.425 97.3591 186.935C97.2091 187.445 97.1341 188.02 97.1341 188.66C97.1341 189.5 97.2591 190.23 97.5091 190.85C97.7591 191.46 98.1341 191.93 98.6341 192.26C99.1341 192.59 99.7641 192.755 100.524 192.755C100.984 192.755 101.424 192.715 101.844 192.635C102.274 192.545 102.709 192.43 103.149 192.29V193.685C102.729 193.845 102.299 193.96 101.859 194.03C101.419 194.11 100.909 194.15 100.329 194.15C99.2391 194.15 98.3291 193.925 97.5991 193.475C96.8791 193.025 96.3391 192.385 95.9791 191.555C95.6191 190.725 95.4391 189.755 95.4391 188.645C95.4391 187.835 95.5491 187.095 95.7691 186.425C95.9991 185.745 96.3291 185.16 96.7591 184.67C97.1891 184.18 97.7191 183.805 98.3491 183.545C98.9891 183.275 99.7241 183.14 100.554 183.14C101.094 183.14 101.624 183.2 102.144 183.32C102.664 183.43 103.134 183.59 103.554 183.8L102.954 185.15C102.604 184.99 102.224 184.85 101.814 184.73C101.414 184.6 100.989 184.535 100.539 184.535ZM112.401 189.95C112.401 190.62 112.311 191.215 112.131 191.735C111.951 192.255 111.696 192.695 111.366 193.055C111.036 193.415 110.636 193.69 110.166 193.88C109.696 194.06 109.166 194.15 108.576 194.15C108.036 194.15 107.536 194.06 107.076 193.88C106.616 193.69 106.216 193.415 105.876 193.055C105.546 192.695 105.286 192.255 105.096 191.735C104.906 191.215 104.811 190.615 104.811 189.935C104.811 189.045 104.961 188.29 105.261 187.67C105.571 187.05 106.011 186.58 106.581 186.26C107.161 185.93 107.841 185.765 108.621 185.765C109.361 185.765 110.011 185.93 110.571 186.26C111.141 186.58 111.586 187.05 111.906 187.67C112.236 188.29 112.401 189.05 112.401 189.95ZM106.446 189.95C106.446 190.55 106.521 191.07 106.671 191.51C106.821 191.94 107.056 192.27 107.376 192.5C107.696 192.73 108.106 192.845 108.606 192.845C109.106 192.845 109.516 192.73 109.836 192.5C110.156 192.27 110.391 191.94 110.541 191.51C110.691 191.07 110.766 190.55 110.766 189.95C110.766 189.33 110.686 188.81 110.526 188.39C110.376 187.97 110.141 187.65 109.821 187.43C109.511 187.2 109.101 187.085 108.591 187.085C107.841 187.085 107.296 187.335 106.956 187.835C106.616 188.335 106.446 189.04 106.446 189.95ZM117.192 194.15C116.222 194.15 115.437 193.8 114.837 193.1C114.247 192.4 113.952 191.36 113.952 189.98C113.952 188.59 114.252 187.54 114.852 186.83C115.452 186.12 116.242 185.765 117.222 185.765C117.632 185.765 117.987 185.82 118.287 185.93C118.597 186.03 118.862 186.17 119.082 186.35C119.312 186.53 119.507 186.73 119.667 186.95H119.757C119.737 186.81 119.712 186.61 119.682 186.35C119.652 186.08 119.637 185.84 119.637 185.63V182.6H121.227V194H119.982L119.712 192.92H119.637C119.487 193.15 119.297 193.36 119.067 193.55C118.847 193.73 118.582 193.875 118.272 193.985C117.962 194.095 117.602 194.15 117.192 194.15ZM117.567 192.845C118.347 192.845 118.897 192.63 119.217 192.2C119.537 191.76 119.697 191.105 119.697 190.235V189.995C119.697 189.045 119.542 188.32 119.232 187.82C118.932 187.32 118.372 187.07 117.552 187.07C116.902 187.07 116.412 187.335 116.082 187.865C115.752 188.385 115.587 189.1 115.587 190.01C115.587 190.92 115.752 191.62 116.082 192.11C116.412 192.6 116.907 192.845 117.567 192.845ZM126.899 185.765C127.609 185.765 128.219 185.915 128.729 186.215C129.239 186.505 129.629 186.925 129.899 187.475C130.179 188.025 130.319 188.675 130.319 189.425V190.295H124.889C124.909 191.125 125.124 191.76 125.534 192.2C125.954 192.64 126.539 192.86 127.289 192.86C127.809 192.86 128.269 192.815 128.669 192.725C129.079 192.625 129.499 192.48 129.929 192.29V193.61C129.529 193.79 129.119 193.925 128.699 194.015C128.289 194.105 127.799 194.15 127.229 194.15C126.449 194.15 125.759 193.995 125.159 193.685C124.559 193.375 124.089 192.915 123.749 192.305C123.419 191.685 123.254 190.925 123.254 190.025C123.254 189.115 123.404 188.345 123.704 187.715C124.014 187.085 124.439 186.605 124.979 186.275C125.529 185.935 126.169 185.765 126.899 185.765ZM126.899 186.995C126.329 186.995 125.869 187.18 125.519 187.55C125.179 187.92 124.979 188.445 124.919 189.125H128.729C128.729 188.705 128.664 188.335 128.534 188.015C128.404 187.695 128.204 187.445 127.934 187.265C127.664 187.085 127.319 186.995 126.899 186.995Z" fill="#465BC7"/>
<path fill-rule="evenodd" clip-rule="evenodd" d="M700.2 188C700.2 183.546 703.97 180 708.539 180C709.46 180 710.343 180.151 711.168 180.413L711.296 181.816C709.717 182.659 708.675 184.254 708.675 186.056C708.675 188.704 710.934 190.917 713.804 190.917C714.205 190.917 714.599 190.869 714.98 190.783L715.8 191.917C714.368 194.362 711.645 196 708.535 196C703.97 196 700.2 192.454 700.2 188ZM708.539 181.528C704.735 181.528 701.72 184.463 701.72 188C701.72 191.537 704.735 194.472 708.535 194.472C710.496 194.472 712.254 193.686 713.492 192.438C709.998 192.282 707.155 189.518 707.155 186.056C707.155 184.29 707.901 182.701 709.093 181.55C708.91 181.536 708.726 181.528 708.539 181.528Z" fill="#4457CA"/>
<path d="M756 192.418H753.851V196H740V182.149H743.582V180H756V192.418ZM741.433 183.582V194.567H752.418V192.418H743.582V183.582H741.433ZM745.082 190.918H754.5V181.5H745.082V190.918Z" fill="#4457CA"/>
</svg>
